<?xml version="1.0" encoding="UTF-8"?>
<svg xmlns="http://www.w3.org/2000/svg" viewBox="0 0 702.8 702.8"><g fill="#019df4"><path fill-rule="evenodd" d="M543.2 622.4h-.3c-8.4.1-18.3-2.8-28.8-9.1-2.2-1.3-4.3-2.7-6.4-4.2-11.4-8.2-27.1-6.6-36.6 3.8-8.3 9.4-7.4 23.8 2.1 32.1.7.6 1.3 1.1 2.1 1.6 3 2.2 6.4 4.5 10.2 6.8 6.5 3.9 13 6.9 19.4 9.5-13.3 21.4-35.8 32.1-68.2 32.1-40 0-55.6-38.6-59.1-48.9.1-8.8.3-31.7 0-37.4v-46.1h52.1c8.7 13 24.3 21.7 42 21.7 27.4 0 49.7-20.5 49.7-45.7 0-25.2-22.3-45.7-49.7-45.7-17.8 0-33.3 8.8-42 21.7h-52.1V269h36.9v77.7c-12.5 8.4-20.7 21.8-20.7 36.9 0 25.2 22.3 45.8 49.7 45.8 17.7 0 33.2-8.7 42-21.6l94.7-.2v49.7c-14.2 8.1-23.7 22.4-23.7 38.8 0 25.2 22.2 45.7 49.7 45.7 27.3 0 49.6-20.5 49.6-45.7 0-16.3-9.4-30.6-23.5-38.7v-73.8c-.1-6.5-2.8-12.6-7.6-17-5.1-4.5-11.6-7-18.4-7l-120.5.2c-4.8-7.1-11.4-12.7-19.1-16.4V269h92.2c14.4 0 26-10.8 26-24v-58.6c14.2-8.1 23.7-22.3 23.7-38.7 0-25.2-22.3-45.7-49.7-45.7-27.3 0-49.6 20.5-49.6 45.7 0 16.3 9.4 30.6 23.5 38.7V221H377.5V94.3c0-7 .2-32.6.3-42.9C382.4 41 400.3 8 436.6 8c32.4 0 54.7 10.7 68.2 32.1-26.4 11-47.2 32.3-57.4 59l-2.7 7.5c-4.2 12.7 3.5 26.1 17.2 30 2.5.7 5.1 1 7.7 1 11.1 0 21.4-6.6 24.9-16.9l2.1-5.9c4-10.5 17.4-35.5 46.5-34.6h.1c126.9 0 136.8 114.1 136.8 149 0 12.8-1.9 51.4-20 86-21-13.1-45.9-21.6-74-24.5-14.2-1.7-27.2 8-28.7 21.1-1.6 13.1 8.7 25 23 26.5 27.8 2.8 50.1 12.4 66.2 28.3C677.6 404.9 680 458 680 473.5c-.1 34.8-9.9 147-136.8 148.9m-277 72.5c-31.8 0-54.1-10.2-67.6-30.8 7.6-2.7 15.4-6.2 23-10.8 12-7.3 15.4-22.2 7.5-33.2-7.9-11.1-24-14.2-36-6.9-10.6 6.4-19.9 9.3-29 9.3-1.3-.2-2.4.3-3.6.3l-.9-.1c-126.9 0-136.8-114.1-136.8-149 0-12.6 1.9-49.9 18.9-84 1.7 24.9 20.2 42.8 42.6 50.8l4.6 1.5c2.7.8 5.3 1.3 7.9 1.3 10.4-.1 19.6-6.6 23.2-16.3 4.9-12.2-3.6-26.4-16.8-31.2-3.1-.9-5.9-2.8-7.8-5.4 17-.7 32.3-4.2 45.2-11.4 12.3-6.9 16.2-21.7 8.7-33s-23.5-14.9-35.8-8c-7.4 4.2-17.6 5.7-30.5 4.7-12.3-1-21.8-4.2-28.3-9-29.3-38-31.8-89.3-31.8-104.5 0-34.9 9.9-149 140.1-149h.1c8.9.3 16.5 1.6 23.3 5.2 4.2 2.3 8.8 3.4 13.3 3.4 8.9 0 17.5-4.2 22.4-11.6 7.3-11.4 3.3-26.1-9-32.9-4.5-2.4-9.1-4.5-13.9-6.2C212.7 18 234.8 8 266.3 8c40 0 55.6 38.6 59.1 48.9-.2 12.5-.2 24.9 0 37.4v30.5h-47.2c-9.6-13.8-25.3-21.9-42.1-21.7-27.4 0-49.6 20.5-49.6 45.7 0 25.2 22.2 45.7 49.6 45.7 17.8 0 33.3-8.7 42.1-21.7h47.2v48.1H146.3c-9.5-13.8-25.3-21.9-42.1-21.7-27.4 0-49.7 20.5-49.7 45.7 0 25.2 22.2 45.7 49.7 45.7 17.8 0 33.3-8.7 42.1-21.7h179.1v40.5h-88.3c-14.4 0-26 10.8-26 24V407c-14.1 8.1-23.6 22.3-23.6 38.7 0 25.2 22.3 45.7 49.6 45.7 27.4 0 49.6-20.5 49.6-45.7 0-16.4-9.5-30.7-23.6-38.8v-49.8h62.3V549H134.6l-.1-5.8-.1-.4c14.4-8 24.1-22.4 24.1-39 0-25.2-22.3-45.8-49.6-45.8-27.4 0-49.6 20.5-49.6 45.8 0 16.4 9.4 30.6 23.5 38.7 0 .5-.3.9-.3 1.4l.4 29.4c.2 13.1 11.8 23.6 26 23.6h216.4v11.6c0 7-.2 32.6-.3 42.9-4.7 10.6-22.6 43.5-58.8 43.5" clip-rule="evenodd" style="fill: #019df4;"/><path d="M436.6 702.3c-44.5 0-61.9-41.3-66.2-54-.3-.8-.4-1.6-.4-2.5.1-11.3.2-31.9 0-36.9v-46.5c0-4.1 3.3-7.5 7.5-7.5h52.1c2.5 0 4.8 1.2 6.2 3.3 7.8 11.5 21.1 18.4 35.8 18.4 23.3 0 42.2-17.2 42.2-38.3 0-21.1-18.9-38.2-42.2-38.2-14.6 0-28 6.9-35.8 18.4-1.4 2.1-3.7 3.3-6.2 3.3h-52.1c-4.1 0-7.5-3.3-7.5-7.5V269c0-4.1 3.3-7.5 7.5-7.5h36.9c4.1 0 7.5 3.3 7.5 7.5v77.7c0 2.5-1.2 4.8-3.3 6.2-11 7.4-17.4 18.6-17.4 30.7 0 21.1 18.9 38.3 42.2 38.3 14.6 0 28-6.8 35.8-18.3 1.4-2 3.7-3.3 6.2-3.3l94.7-.2c2 0 3.9.8 5.3 2.2 1.4 1.4 2.2 3.3 2.2 5.3v49.7c0 2.7-1.4 5.2-3.8 6.5-12.5 7.1-19.9 19.2-19.9 32.3 0 21.1 18.9 38.3 42.2 38.3 23.2 0 42.1-17.2 42.1-38.3 0-13-7.4-25.1-19.7-32.2-2.3-1.3-3.7-3.8-3.7-6.5v-73.8c0-4.3-1.9-8.5-5.2-11.4-3.6-3.3-8.3-5.1-13.2-5.1h-.1l-120.6.2c-2.5 0-4.8-1.2-6.2-3.3-4.1-6-9.6-10.8-16.1-13.8-2.6-1.2-4.3-3.9-4.3-6.7V269c0-4.1 3.3-7.5 7.5-7.5h92.2c10.2 0 18.6-7.4 18.6-16.5v-58.6c0-2.7 1.4-5.2 3.8-6.5 12.5-7.1 19.9-19.1 19.9-32.2 0-21.1-18.9-38.2-42.2-38.2-23.2 0-42.1 17.1-42.1 38.2 0 13.1 7.4 25.1 19.7 32.2 2.3 1.3 3.8 3.8 3.8 6.5V221c0 4.1-3.3 7.5-7.5 7.5H377.5c-4.1 0-7.5-3.3-7.5-7.5V94.3c0-7.2.2-33.5.3-43 0-1 .2-2.1.7-3C376.1 37.1 395.8.6 436.6.6c34.6 0 59.7 12 74.5 35.6 1.2 1.9 1.5 4.1.8 6.2-.7 2.1-2.2 3.8-4.3 4.6-24.4 10.1-43.8 30-53.3 54.7l-2.6 7.3c-1.3 3.9-.9 8 1 11.6 2.2 4.2 6.3 7.4 11.2 8.8 1.8.5 3.7.8 5.6.8 8.1 0 15.5-4.9 17.8-11.8v-.1l2.1-5.9c0-.1 0-.1.1-.2 3.7-9.5 18.4-40.4 53.7-39.4h.5c30.5.1 56.8 6.6 78.2 19.4 18.2 10.9 32.9 26.3 43.8 45.8 18.9 33.9 21.7 71.7 21.7 91.3 0 11.6-1.5 52.5-20.9 89.5-1 1.8-2.7 3.2-4.7 3.7s-4.1.2-5.9-.9c-20.6-12.8-44.4-20.7-70.8-23.4h-.1c-10-1.2-19.4 5.5-20.4 14.6-.5 4 .7 8 3.3 11.3 3.1 3.8 7.8 6.3 13 6.8 29.5 3 53.2 13.2 70.7 30.5l.6.6c32.7 40.2 35.2 95.6 35.2 111.6 0 19.3-2.8 56.6-21.8 90.3-10.9 19.4-25.6 34.7-43.7 45.7-21.5 13-48 19.8-78.7 20.3h-.8-.1c-10 0-21.1-3.5-32.2-10.2-2.4-1.4-4.7-3-6.9-4.6-8.3-6-19.8-4.8-26.7 2.7-2.7 3.1-4 7-3.7 11 .3 4.1 2.1 7.8 5.2 10.5.4.4.9.7 1.4 1.1.1 0 .1.1.2.1 2.7 2 5.8 4.1 9.6 6.5 5.4 3.2 11.2 6 18.3 8.9 2 .8 3.6 2.5 4.3 4.6.7 2.1.4 4.4-.8 6.3-14.6 23.5-39.7 35.5-74.4 35.5zm-51.7-57.6c4.1 11.4 18.3 42.7 51.7 42.7 25.7 0 44.4-7 56.7-21.5-4.2-2-8-4-11.7-6.2 0 0-.1 0-.1-.1-4.1-2.6-7.6-4.9-10.5-7.1-.9-.6-1.8-1.3-2.7-2.1-12.5-11-13.7-30.1-2.7-42.6l.1-.1c12-13.2 32-15.2 46.5-4.8 1.9 1.4 3.9 2.7 5.9 3.9 8.7 5.3 17.2 8.1 24.5 8.1h1.1c119.5-2.2 128.8-108.7 128.8-141.3 0-14.7-2.3-65.5-31.6-101.9-2.4-2.3-4.9-4.5-7.6-6.5 4 5.2 6.2 11.7 6.3 18.3v69.8c14.8 10 23.5 25.8 23.5 42.8 0 29.3-25.6 53.2-57 53.2-31.5 0-57.1-23.9-57.1-53.2 0-17.2 8.8-32.9 23.7-42.9v-38.1l-83.5.2c-10.8 13.6-27.6 21.6-45.8 21.6-31.5 0-57.1-23.9-57.1-53.2 0-15.7 7.7-30.6 20.7-40.8v-66.4h-21.9V507H426c10.8-13.7 27.6-21.7 45.8-21.7 31.5 0 57.1 23.8 57.1 53.2 0 29.3-25.6 53.2-57.1 53.2-18.2 0-35.1-8.1-45.8-21.7h-40.9v38.5c.1 6.3-.1 29.8-.2 36.2zM473.8 339c5.9 3.5 11.2 8 15.4 13.4l116.8-.2c1 0 2.1 0 3.1.1-9-3.2-18.9-5.4-29.7-6.5-9.2-.9-17.6-5.4-23.2-12.4-5.2-6.5-7.5-14.4-6.5-22.4 2.1-17.4 18.6-29.8 37-27.7 25.7 2.6 49.2 9.8 70 21.4 14.5-32 15.7-65.5 15.7-75.5 0-33.2-9.3-141.6-129.3-141.6h-.8c-25.1-.4-36 22.6-38.8 29.8l-2 5.7c-4.4 13.1-17.3 21.9-31.9 21.9-3.3 0-6.5-.4-9.7-1.3-8.9-2.5-16.3-8.4-20.4-16.2-3.9-7.3-4.6-15.6-2-23.4 0-.1 0-.1.1-.2l2.7-7.5c0-.1 0-.1.1-.2 9.8-25.6 28.8-46.7 53-59.2-12.4-14.6-31-21.7-56.8-21.7-30.4 0-46.4 27.1-51.4 37.6-.1 10.6-.3 34.5-.3 41.2v119.3H525v-23.1c-14.8-10-23.5-25.7-23.5-42.8 0-29.3 25.6-53.2 57-53.2 31.5 0 57.1 23.8 57.1 53.2 0 17.1-8.8 32.9-23.7 42.9V245c0 17.3-15 31.4-33.5 31.4h-84.7V339zM266.2 702.3c-34.2 0-59-11.5-73.8-34.1-1.3-1.9-1.6-4.3-.8-6.5.7-2.2 2.4-3.9 4.6-4.7 7.9-2.8 15-6.1 21.6-10.1 4.2-2.5 6.9-6.3 7.9-10.8.8-4.1-.1-8.2-2.6-11.7-5.6-7.9-17.4-10.1-26.1-4.9-11.8 7.1-22.3 10.4-32.9 10.3h-.8c-.7.1-1.6.3-2.7.3h-.7l-.5-.1c-30.6-.1-56.9-6.6-78.4-19.4-18.2-10.9-32.9-26.3-43.8-45.8-18.9-33.9-21.7-71.7-21.7-91.3 0-11.2 1.4-50.8 19.7-87.4 1.5-3 4.8-4.6 8.1-4 3.3.7 5.8 3.5 6 6.8 1.3 19.7 15.4 36.3 37.6 44.3l4.5 1.5c1.8.6 3.7.9 5.6.9 7.2-.1 13.7-4.6 16.3-11.4v-.1c1.7-4.2.6-8.1-.5-10.7-2.2-4.8-6.5-8.8-11.7-10.7-4.5-1.4-8.6-4.2-11.5-8-1.7-2.2-2-5.2-.8-7.7s3.7-4.1 6.4-4.3c16.6-.7 30.7-4.2 41.9-10.5 4.3-2.4 7.2-6.1 8.2-10.5 1-4 .2-8.2-2.2-11.8-5.4-8.1-17-10.6-25.9-5.6-8.6 4.9-20 6.8-34.7 5.7-13.4-1-24.3-4.5-32.2-10.4-.6-.4-1-.9-1.5-1.4-31-40.2-33.4-93.6-33.4-109.1 0-19.6 2.9-57.4 22.2-91.3 11.1-19.5 26.2-34.9 44.8-45.8 22-12.9 49.1-19.4 80.6-19.4h.3c11.3.4 19.5 2.3 26.6 6.1 2.9 1.6 6.3 2.5 9.7 2.5 6.6 0 12.8-3.2 16.2-8.3 2.3-3.6 3-7.8 2-11.8-1.1-4.4-4.1-8.1-8.4-10.4-4.1-2.2-8.4-4.1-12.8-5.7-2.2-.8-3.8-2.5-4.6-4.7-.7-2.2-.4-4.6.9-6.5C207.8 11.7 232.4.4 266.2.4c44.5 0 61.9 41.3 66.2 54 .3.8.4 1.7.4 2.5-.2 12.3-.2 24.8 0 37.1v30.6c0 4.1-3.3 7.5-7.5 7.5h-47.2c-2.4 0-4.7-1.2-6.1-3.2-8.2-11.8-21.6-18.7-35.9-18.5-23.3 0-42.3 17.1-42.3 38.2s18.9 38.2 42.2 38.2c14.7 0 28.1-6.9 35.9-18.4 1.4-2.1 3.7-3.3 6.2-3.3h47.2c4.1 0 7.5 3.3 7.5 7.5v48.1c0 4.1-3.3 7.5-7.5 7.5h-179c-2.4 0-4.7-1.2-6.1-3.2-8.1-11.6-21.3-18.5-35.4-18.5h-.4c-23.3 0-42.3 17.1-42.3 38.2s18.9 38.2 42.2 38.2c14.7 0 28.1-6.9 35.9-18.4 1.4-2.1 3.7-3.3 6.2-3.3h179.1c4.1 0 7.5 3.3 7.5 7.5v40.5c0 4.1-3.3 7.5-7.5 7.5h-88.3c-10.2 0-18.6 7.4-18.6 16.5V407c0 2.7-1.4 5.2-3.8 6.5-12.4 7.1-19.8 19.2-19.8 32.3 0 21.1 18.9 38.2 42.2 38.2 23.3 0 42.2-17.1 42.2-38.2 0-13.1-7.4-25.2-19.8-32.3-2.3-1.3-3.8-3.8-3.8-6.5v-49.8c0-4.1 3.3-7.5 7.5-7.5h62.3c4.1 0 7.5 3.3 7.5 7.5V549c0 4.1-3.3 7.5-7.5 7.5h-191c-4.1 0-7.4-3.3-7.5-7.4l-.1-5.2c-.5-3.1 1-6.2 3.8-7.7 12.7-7 20.3-19.2 20.3-32.5 0-21.1-18.9-38.3-42.2-38.3-23.3 0-42.2 17.2-42.2 38.3 0 13.1 7.4 25.1 19.7 32.2 2.5 1.4 3.9 4.1 3.7 6.9 0 .7-.2 1.3-.3 1.8l.4 28.6c.1 9 8.5 16.3 18.6 16.3h216.4c4.1 0 7.5 3.3 7.5 7.5v11.6c0 6-.2 24.7-.3 37.1l-.1 5.8c0 1-.2 2.1-.7 3-4.8 11.2-24.6 47.8-65.4 47.8zm-55.6-34.9c12.3 13.4 30.6 20 55.6 20 30.4 0 46.4-27.2 51.4-37.6v-4.2c.1-11.6.3-31.1.3-37v-4.2h-97.1c5.6 2.3 10.7 6.2 14.4 11.4 4.9 6.9 6.7 15.2 5 23.4-1.8 8.5-7 15.8-14.8 20.5-4.7 2.9-9.6 5.4-14.8 7.7zM97.9 602.6c16.3 7.8 36.6 12.5 61.7 12.5H160.7c.8-.1 2.2-.4 3.8-.2 7.6 0 15.5-2.6 24.7-8.2 1.6-.9 3.1-1.7 4.8-2.4h-85c-3.9.1-7.6-.5-11.1-1.7zM40.4 412.4c-9.2 27.3-10.1 52.8-10.1 61.2 0 24.6 5.1 90.4 56.5 122.9-6.9-5.7-11.3-13.9-11.4-23.1l-.4-27c-14.6-10-23.2-25.7-23.2-42.7 0-29.3 25.6-53.2 57.1-53.2s57.1 23.9 57.1 53.2c0 14.5-6.2 28-17.1 37.8h169V364.6h-47.3v38.2c14.9 10 23.6 25.8 23.6 42.9 0 29.3-25.6 53.2-57.1 53.2S180 475 180 445.7c0-17.1 8.7-32.9 23.6-42.9v-69.6c0-17.3 15-31.4 33.5-31.4h80.8v-25.6H150.1c-10.8 13.7-27.6 21.7-45.8 21.7-31.5 0-57.1-23.8-57.1-53.2s25.6-53.2 57.1-53.2c17.9-.2 34.7 7.9 45.8 21.7H318V180h-36c-10.8 13.7-27.6 21.7-45.9 21.7-31.5 0-57.1-23.8-57.1-53.2s25.6-53.2 57.1-53.2c17.9-.2 34.7 7.9 45.8 21.7h36V94c-.2-12-.2-24.2 0-36.2-4.1-11.5-18.3-42.7-51.6-42.7-24.7 0-42.8 6.4-55.1 19.5 1.8.9 3.7 1.8 5.5 2.8 8 4.4 13.6 11.4 15.7 19.9 2.1 8.1.7 16.5-3.9 23.6-6.2 9.5-16.9 15.1-28.7 15.1-6 0-11.8-1.5-16.9-4.3-4.9-2.7-11-4-19.8-4.3-119.6.1-132.5 99-132.5 141.5 0 14.1 2.1 62.7 29.6 99.1 5.5 3.8 13.7 6.2 23.6 6.9 11.5.9 20.3-.4 26.3-3.8 15.6-8.8 36.1-4.2 45.7 10.3 4.7 7.1 6.2 15.4 4.2 23.6-2 8.5-7.5 15.6-15.5 20.1-8 4.5-17.1 7.8-27.2 9.8 3.9 3.3 7.1 7.5 9.2 12.1 3.3 7.3 3.6 15.2.8 22.3-4.8 12.6-16.6 20.9-30.1 21-3.4 0-6.8-.5-10.2-1.6l-4.6-1.5c-.1 0-.1 0-.2-.1-19.4-6.5-34-19.1-41.8-34.7z" style="fill: #019df4;"/></g></svg>
