<?xml version="1.0" encoding="UTF-8"?>
<svg xmlns="http://www.w3.org/2000/svg" viewBox="0 0 702.8 702.8"><path fill="#019df4" fill-rule="evenodd" d="M530.9 177.2c-7.1.1-12.9-5.5-13-12.6 0-6.9 5.8-12.6 12.9-12.6 7.1 0 12.9 5.7 12.9 12.6.1 7-5.7 12.6-12.8 12.6m41 294.2c7.1 0 12.9 5.6 12.9 12.6 0 6.9-5.8 12.6-13 12.6-7 .1-12.8-5.6-12.9-12.6 0-6.9 5.8-12.6 13-12.6M431 368.4c7.1 0 12.9 5.7 12.9 12.6 0 7-5.8 12.6-12.9 12.6-7.1.1-12.8-5.5-12.9-12.6-.1-7 5.7-12.6 12.9-12.6m11.6 154.5c0-6.9 5.9-12.6 13-12.6s12.9 5.7 12.9 12.6-5.8 12.6-12.9 12.6c-7.1.1-12.9-5.6-13-12.6m200.9-59.5c0 33.4-9.1 141.7-125.7 143.7h-.2c-8.9.9-18.9-2.9-29.6-9.7-2.1-1.3-4.1-2.7-6-4.2-6.6-4.9-15.8-3.9-21.1 2.4-5 6.2-4.1 15.2 2.1 20.2.1.1.3.2.4.3 2.6 2.1 5.4 4 8.2 5.8 7.8 4.9 15.5 8.6 23.1 11-12.1 26.9-35.4 40.6-69.6 40.6-41.2 0-56-42.1-58.7-51.1.1-6.9.3-29.6 0-35.3v-49.6h48.9c6.1 15.9 21.8 27.2 40.2 27.2 23.7 0 43-18.8 43-41.9 0-23.1-19.3-41.9-43-41.9-18.4 0-34 11.4-40.2 27.2h-49V268.5h47v74.3C398.5 349.4 388 364 388 381c0 23.1 19.3 41.9 43 41.9 18.4 0 34.1-11.4 40.2-27.3H557v49.3c-16.7 5.8-27.9 21.5-28.1 39.1 0 23.1 19.3 41.9 43 41.9s43-18.7 43-41.9c-.2-17.6-11.3-33.2-27.9-39v-64.1c0-8.1-6.7-14.6-15.1-14.6H471.1c-4.8-12.2-15-21.5-27.7-25.2v-72.6h87.4c8.2.1 14.9-6.4 15-14.6v-50.1c16.3-5.9 28.1-21.2 28.1-39.2 0-23.1-19.3-41.9-43-41.9s-43 18.7-43 41.9c0 17.9 11.7 33.1 27.9 39.1v35.5H366.4V115.7c0-6.8.2-32.5.3-40.7 3.7-8.9 21-45.7 58.5-45.7 34.1 0 57.4 13.7 69.5 40.5-27.7 8.5-45 30.6-52.9 52.5-.8 2.3-1.6 4.7-2.3 6.7-2.4 7.7 1.9 15.9 9.6 18.3.1 0 .2 0 .2.1 7.9 2.4 16.2-1.8 18.9-9.6l1.9-5.7c4-11.2 17.9-36.6 47.7-36.6 116.6.2 125.7 110.1 125.7 143.8 0 13.2-1.8 54.8-22 89.8-4.5-3.3-9.2-6.4-14.2-9.1 18.4-23.3 10.2-47.4-4.1-62.1l-2.8-2.7c-5.9-5.5-14.6-4.5-20.3 1.3-5.7 5.9-4.6 16 1.4 21.6 13.4 13.8 2.3 24.5-1.5 28-.5.5-.8 1.2-1.2 1.8-8.2-2.3-16.7-4-25.2-4.9-8.2-1-15.6 4.8-16.6 12.9-.8 8.1 5.1 15.3 13.2 16.2h.1c26.2 2.8 47.1 12.5 62.4 28.7 28.5 36.9 30.8 87.9 30.8 102.6m-502.1 40.2c-7.1.1-12.8-5.5-13-12.6 0-7 5.9-12.6 13-12.6s12.9 5.6 12.9 12.6c.1 6.9-5.7 12.6-12.9 12.6m111-78.4c7.1 0 12.9 5.7 12.9 12.6-.1 7.1-5.8 12.7-12.9 12.7-7.1.1-12.8-5.6-12.9-12.6-.1-7 5.7-12.6 12.9-12.7M150.2 253.6c-.1 7.1-5.9 12.7-13 12.6-7 .1-12.8-5.6-12.9-12.6 0-7 5.8-12.6 12.9-12.6 7.2 0 13 5.7 13 12.6m114.2-88c0 7-5.9 12.6-13 12.6-7 .1-12.8-5.5-12.9-12.6 0-7 5.8-12.6 12.9-12.6 7.2 0 13 5.7 13 12.6m13.2 507.9c-33.8 0-56.9-13.5-69.1-39.8 8.7-2.3 17.5-6.1 26.4-11.8 6.8-4.2 8.9-13.1 4.7-19.8-.1-.1-.2-.3-.3-.4-4.6-6.8-13.9-8.7-20.8-4.2-10.5 6.7-20.4 10.6-29.5 9.6-.9 0-1.6.3-2.5.4-.4 0-.8-.1-1.2-.1-116.9 0-126-110.2-126-143.9 0-13.5 2-56.7 23.6-92.2 2.7 1.4 5.6 2.5 8.5 3.5-4.2 25.6 11.7 43.9 31.7 51.5l3.3 1.2c7.8 2.8 16.3-1.2 19.2-8.9 2.7-7.6-1.3-15.9-8.9-18.6-.1 0-.2-.1-.3-.1l-2.6-.9c-12.3-4.6-13.8-12.6-12.9-18.7 1.4 0 2.9.2 4.3.2 15.3 0 28.6-3.3 39.8-10 6.9-4 9.3-12.8 5.3-19.7-.1-.2-.2-.3-.3-.5-4.4-7-13.6-9.1-20.6-4.9-7.9 4.7-18.4 6.5-31.1 5.4-12.8-1.1-22.5-4.6-29.3-10.3-27.3-36.8-29.6-86.4-29.6-101 0-33.7 9.1-143.9 128.9-143.9h.1c8.9-.3 16.9 1.6 24 5.8 7.1 4.2 16.2 1.9 20.6-5.1 4.1-6.8 2-15.7-4.8-19.8-.1-.1-.3-.2-.4-.2-5.9-3.4-12.3-5.9-18.9-7.5 12.3-26 35.4-39.3 69-39.3 41.1 0 56 42.1 58.7 51.1-.1 7-.3 29.6 0 35.2V151h-44.7c-6.5-16.5-22.4-27.3-40.1-27.2-23.7 0-43 18.7-43 41.9s19.3 41.9 43 41.9c18.4 0 34-11.4 40.1-27.3h44.8V239h-159c-6.5-16.5-22.4-27.3-40.1-27.2-23.7 0-43 18.8-43 41.9 0 23.1 19.3 41.9 43 41.9 18.4 0 34-11.4 40.2-27.3h158.9v51.8h-84c-8.2-.1-14.9 6.5-15 14.6v64c-16.6 5.9-27.8 21.5-27.9 39.1 0 23.1 19.3 41.9 43 41.9s43-18.8 43-41.9c0-18-11.7-33.1-28-39.1v-49.4h69v190.5h-180v-9.7c16.3-6 28-21.2 28-39.2 0-23.1-19.3-41.9-43-41.9s-43 18.8-43 41.9c0 18 11.7 33.2 28 39.2v24.4c0 8.1 6.7 14.6 15 14.6h195v18c0 6.9-.2 32.5-.3 40.8-4.1 9.1-21.3 45.6-58.9 45.6m395.9-434.1c0-28.2-7.1-165.9-147.7-172.7C510.4 23.6 475 0 425.2 0c-38 0-61.2 22.8-74.2 42-14.2-21.5-37.8-42-73.4-42-49.8 0-85.1 23.5-100.6 66.4C36.5 71.6 29.3 211 29.3 239.4c0 16 2.3 69 30.7 111.9-28.4 43-30.7 96.1-30.7 112.2 0 28.2 7.1 166 147.7 172.7 15.4 43.1 50.8 66.7 100.7 66.7 38 0 61.2-22.8 74.2-42 14.1 21.5 37.8 42 73.4 42 49.8 0 85.1-23.4 100.6-66.3 140.5-5.3 147.7-144.7 147.7-173.1 0-16-2.3-69-30.7-111.9 28.3-43.1 30.6-96.2 30.6-112.2" clip-rule="evenodd" style="fill: #019df4;"/></svg>
