<?xml version="1.0" encoding="UTF-8"?>
<svg xmlns="http://www.w3.org/2000/svg" viewBox="0 0 702.8 702.8"><path fill="#019df4" fill-rule="evenodd" d="M513.7 594.7h-.2c-7.1.1-15.5-2.5-24.3-8.2-1.9-1.2-3.7-2.5-5.4-3.8-9.6-7.4-23.2-5.9-31 3.4-7.4 9.1-6.1 22.4 3 29.8.2.1.3.3.5.4 2.5 2 5.4 4 8.6 6.1 5.5 3.5 11 6.2 16.4 8.5-11.3 19.2-30.2 28.8-57.7 28.8-33.9 0-47.1-34.6-50-43.9.1-7.9.2-28.5 0-33.5v-41.4h44.1c7.4 11.7 20.5 19.5 35.6 19.5 23.2 0 42-18.4 42-41.1s-18.9-41.1-42-41.1c-15.1 0-28.2 7.9-35.6 19.5h-44.2V277.4h31.2v69.8c-10.5 7.5-17.5 19.6-17.5 33.2 0 22.6 18.9 41.1 42 41.1 15 0 28.1-7.8 35.5-19.4l80.2-.2v44.6c-12 7.2-20.1 20.1-20.1 34.8 0 22.6 18.8 41.1 42.1 41.1 23.1 0 42-18.4 42-41.1 0-14.6-8-27.4-19.9-34.7v-66.3c0-5.7-2.3-11.2-6.4-15.2-4.2-4-9.8-6.3-15.6-6.3l-102 .2c-4-6.3-9.6-11.4-16.2-14.7v-66.9h78c12.2 0 22-9.6 22-21.5v-52.7c12-7.2 20.1-20 20.1-34.8 0-22.7-18.9-41.1-42-41.1s-42 18.4-42 41.1c0 14.6 8 27.5 19.9 34.7v31.2H373.4V120.5c0-6.3.2-29.3.3-38.5 4-9.3 19-38.9 49.8-38.9 27.4 0 46.4 9.6 57.7 28.8-24.6 10.6-41 31.9-48.6 52.9l-2.3 6.7c-3.6 11.4 3 23.4 14.6 26.9 11.5 3.6 23.8-2.7 27.5-14.2l1.8-5.3c3.4-9.4 14.8-31.9 39.3-31.1h.1c107.4 0 115.8 102.4 115.8 133.8 0 11.5-1.6 46.2-16.9 77.3-18.8-12.3-40.3-19.8-62.7-22-11.9-1.4-22.8 7-24.3 19-1.3 11.9 7.4 22.5 19.2 23.8h.2c23.6 2.5 42.4 11.1 56.1 25.4 26.3 34.3 28.4 82.1 28.4 96 .1 31.2-8.3 131.9-115.7 133.6m-234.4 65.1c-26.9 0-45.8-9.1-57.2-27.6 6.5-2.5 13-5.6 19.5-9.7 9.9-6.2 12.9-19.4 6.7-29.3-.1-.2-.2-.3-.3-.5-6.8-10-20.3-12.7-30.5-6.2-9 5.8-16.9 8.4-24.5 8.3-1.1-.1-2 .3-3 .3-.3 0-.5-.1-.8-.1C81.8 595 73.4 492.6 73.4 461.2c0-11.3 1.6-44.8 16-75.5 1.4 22.4 17.1 38.4 36 45.6.3.1 3.6 1.3 3.9 1.3 2.2.7 4.4 1.1 6.7 1.1 8.7 0 16.3-5.9 19.6-14.6 4.1-11-3-23.7-14.2-28-2.7-.8-5-2.6-6.6-4.9 14.3-.6 27.4-3.8 38.3-10.2 10.1-5.9 13.6-18.9 7.7-29l-.3-.6c-6.5-10.2-19.9-13.4-30.2-7.2-6.3 3.7-14.9 5.1-25.9 4.2-10.4-.9-18.4-3.7-24-8-24.8-34.2-26.9-80.2-26.9-93.9 0-31.3 8.4-133.8 118.6-133.8 7.5.3 14 1.4 19.7 4.7 10.4 6.1 23.8 2.8 30.2-7.4 6.1-10 2.9-23.1-7.1-29.3-.2-.1-.3-.2-.5-.3-3.8-2.2-7.7-4-11.8-5.6 11.5-18 30.2-27 56.8-27 33.9 0 47.1 34.6 50.1 43.9-.1 7.9-.2 28.5 0 33.5v27.4h-40c-7.7-12.2-21.2-19.5-35.6-19.5-23.2 0-42 18.4-42 41.1 0 22.6 18.8 41 42 41 14.4 0 27.8-7.3 35.6-19.5h40v43.2H177.7c-7.7-12.2-21.2-19.5-35.6-19.5-23.2 0-42.1 18.4-42.1 41.1 0 22.6 18.8 41 42.1 41 15.1 0 28.2-7.8 35.6-19.5h151.6v36.4h-74.7c-12-.1-21.9 9.5-22.1 21.5v66.2c-12.3 7.3-19.9 20.5-20 34.8 0 22.6 18.9 41 42 41s42-18.4 42-41c0-14.8-8-27.6-20-34.8v-44.7h52.7v172.2H167.9v-5.2c0-.1-.1-.3-.1-.4 12.5-7.2 20.3-20.6 20.4-35 0-22.7-18.9-41.1-42-41.1s-42 18.4-42 41.1c0 14.7 8 27.5 19.9 34.7 0 .5-.2.8-.2 1.3l.4 26.5c.3 11.9 10.1 21.3 22 21.2h183.2v10.5c0 6.3-.2 29.3-.3 38.5-4.2 9.6-19.2 39.1-49.9 39.1m394.2-418.2c0-77.8-38.1-168-146.4-176C510.2 23.2 473.9 0 423.5 0c-34.9 0-58.1 18.2-72.6 36.1C335.6 16.7 312.5 0 279.3 0c-49.5 0-86.4 23.5-103.5 65.3C68 72.1 29.3 163.2 29.3 241.6c0 20.1 3 68.2 28.7 109.7-25.7 41.4-28.7 89.7-28.7 109.8 0 77.8 38.1 168.1 146.4 176.1 16.9 42.5 53.2 65.6 103.7 65.6 34.9 0 58.1-18.2 72.5-36.1 15.3 19.4 38.5 36.1 71.7 36.1 50.3 0 86.5-23 103.5-65.3 107.8-6.9 146.5-98 146.5-176.3 0-20.1-3-68.2-28.7-109.7 25.6-41.4 28.6-89.7 28.6-109.9" clip-rule="evenodd" style="fill: #019df4;"/></svg>
