<?xml version="1.0" encoding="UTF-8"?>
<svg xmlns="http://www.w3.org/2000/svg" viewBox="0 0 702.8 702.8"><path fill="#019df4" fill-rule="evenodd" d="M607.7 602.9c-38.7 19.2-87.2 28.9-144 28.9-136.1 0-218.7-53.3-250.6-161.6h197c18.4 0 33.4-15.7 33.4-35.2 0-19.4-14.9-35.2-33.4-35.2H200.7c-1.4-15.5-2.9-30.8-2.9-47.9 0-7.4 1-13.8 1.3-21h211c18.4 0 33.4-15.7 33.4-35.2s-14.9-35.2-33.4-35.2H207.3C233.1 134.5 317 71.8 463.7 71.8c56.2 0 104.1 9.5 142.6 28.2 16.8 8.2 36.6.5 44.4-17.1 7.7-17.6.5-38.5-16.3-46.7C587.1 13.1 529.6 1.5 463.7 1.5c-183.6 0-296.3 91.3-325.1 259H81.8c-18.4 0-33.4 15.7-33.4 35.2s15 35.2 33.4 35.2h49.9c-.2 7-.7 13.8-.7 21 0 16.6.8 32.4 2.1 47.9H81.8c-18.4 0-33.4 15.7-33.4 35.2 0 19.4 15 35.2 33.4 35.2h62c35.9 150.5 146.3 231.9 319.8 231.9 66.8 0 124.8-12 172.5-35.6 16.7-8.3 23.9-29.2 16-46.8-7.8-17.6-27.6-25.2-44.4-16.8" clip-rule="evenodd" style="fill: #019df4;"/></svg>
