<?xml version="1.0" encoding="UTF-8"?>
<svg xmlns="http://www.w3.org/2000/svg" viewBox="0 0 702.8 702.8"><path fill="#019df4" fill-rule="evenodd" d="M653.8 634.8c-5-11.6-18.4-16.9-30-12-.3.1-.5.2-.8.4-41.8 20.6-93.9 31-154.8 31-151.7 0-243.1-65.1-274.7-191.8h219c13.1-.3 23.5-11.2 23.2-24.3.3-13.1-10-24-23.2-24.3H184c-2.3-19.6-4-39.8-4-61.8 0-12 1.5-22.5 2.2-33.9h230.2c13.1-.3 23.5-11.1 23.2-24.2v-.1c.3-13.1-10-24-23.2-24.3H187.2C211.8 124 305.6 49.6 468.2 49.6c60.2 0 111.7 10.3 153.3 30.4 11.7 5.6 25.4.4 30.8-11.8 5.4-12.1.4-26.2-11.3-32.3C593.2 12.7 535.1 1 468.2 1c-187.8 0-302 94.6-328.5 268.5H70.9c-13.1.3-23.5 11.2-23.2 24.3 0 13.4 10.4 24.3 23.2 24.3h63.9c-.6 11-1.2 22.2-1.2 33.9 0 21.7 1.4 42 3.5 61.8H70.9c-13.1.3-23.5 11.2-23.2 24.3 0 13.4 10.4 24.3 23.2 24.3h73.5c33.1 157.7 143.2 240.4 323.7 240.4 67.8 0 126.6-12 174.5-35.7 11.8-6.1 16.7-20.3 11.2-32.3" clip-rule="evenodd" style="fill: #019df4;"/></svg>
