<?xml version="1.0" encoding="UTF-8"?>
<svg xmlns="http://www.w3.org/2000/svg" viewBox="0 0 702.8 702.8"><path fill="#019df4" fill-rule="evenodd" d="M651.9 606.7c-10.2-22.7-35.8-32.6-57.3-21.8-36 17.9-81.4 26.9-134.7 26.9-118.9 0-193.2-44.6-226.1-134h174.3c23.9 0 43-20.4 43-45.5s-19.2-45.4-43-45.4H215.8c-.7-11.6-2.1-22.6-2.1-35.1 0-3.2.5-5.8.6-8.9h193.8c23.9 0 43-20.4 43-45.5s-19.2-45.4-43-45.4H225.7C253.1 145.1 329.9 91.9 459.9 91.9c52.7 0 97.6 8.9 133.4 26.3 21.6 10.7 47.2.6 57.1-22.1 10-22.8.6-49.8-21-60.4C582.2 12.7 525.2 1 460 1 279.7 1 168 89.4 136.9 252.2h-46c-23.8 0-43 20.4-43 45.4 0 25.1 19.2 45.5 43 45.5H128c0 3-.3 5.8-.3 8.9 0 12 .5 23.6 1.2 35.1h-38c-23.8 0-43 20.3-43 45.4 0 25.1 19.2 45.5 43 45.5h51.7C180.4 623.9 289.7 702.8 460 702.8c66.2 0 123.8-11.9 171.4-35.6 21.5-10.7 30.6-37.8 20.5-60.5" clip-rule="evenodd" style="fill: #019df4;"/></svg>
