<?xml version="1.0" encoding="UTF-8"?>
<svg xmlns="http://www.w3.org/2000/svg" viewBox="0 0 702.8 702.8"><path fill="#019df4" fill-rule="evenodd" d="M266.2 272.3c0 8.1-6.7 14.6-14.8 14.6-8.1 0-14.8-6.5-14.9-14.6 0-8.1 6.7-14.6 14.9-14.6 3.1 0 5.9 1.2 8.4 2.9.6.7.9 1.6 1.6 2.2.6.5 1.3.8 1.9 1.2 1.7 2.4 2.9 5.2 2.9 8.3m251.5 214l-.4 172.6H265.4v-80.2c-115.1 0-106.2-60.9-106.2-60.9l-1.2-81.3-84.1-21.9c22.8-23.6 42.5-50.2 58.4-78.9 13.9-25.4 22.9-53.3 24.6-82.1 7-120.5 69.4-186.8 174-204.6v110.7l-57 58.4c-7.2-2.9-14.8-4.4-22.5-4.4-32.8 0-59.4 26.2-59.4 58.5s26.6 58.6 59.4 58.6c32.7 0 59.4-26.3 59.4-58.6 0-8.3-1.8-16.2-5-23.4l56.9-58.3h62.5c4.7 12.9 13.7 23.7 25.5 30.7l-40.3 109.5c-29.8 3.1-53.2 27.7-53.2 58 0 32.3 26.6 58.6 59.4 58.6 24.8 0 46.1-15.2 55-36.6h127.9c-19 34-46.5 59.1-81.8 75.6m-36.8-300.6c-8.1 0-14.8-6.5-14.8-14.6s6.7-14.6 14.8-14.6c8.2 0 14.9 6.6 14.9 14.6 0 8.1-6.7 14.6-14.9 14.6M416.5 374c8.2 0 14.8 6.6 14.8 14.7s-6.7 14.6-14.8 14.6c-8.1 0-14.8-6.5-14.8-14.6s6.6-14.6 14.8-14.7M629 277.1c0 33.8-4.4 63.4-12.1 89.6H471.5c-3.9-9.3-10.2-17.5-18.2-23.7l42.5-115.4c25.6-6.6 44.6-29.3 44.6-56.5 0-32.3-26.6-58.6-59.4-58.6-23.9 0-44.4 14-53.8 34.1h-51.7V44.4c5.7-.2 11.3-.5 17.2-.5 149.2 0 236.3 74.4 236.3 233.2M392.5 0C221.3 0 121.8 89.2 112.4 251c-1.3 21.1-7.7 42.6-19.3 63.7-14.1 25.4-31.5 48.8-51.6 69.7-10.8 11.2-14.7 27.3-10.4 42.2 4.4 15 16.3 26.5 31.5 30.4l51.4 13.4.7 46c-1 22.9 7 45.3 22.4 62.4 18.7 21.2 46.8 34.8 83.9 40.6v39.5c0 24.2 19.9 43.9 44.5 43.9h251.8c24.4.2 44.3-19.4 44.5-43.8l.4-146.8c55.5-34.6 111.4-102.5 111.4-235.1C673.5 101 571.1 0 392.5 0" clip-rule="evenodd" style="fill: #019df4;"/></svg>
