<?xml version="1.0" encoding="UTF-8"?>
<svg xmlns="http://www.w3.org/2000/svg" viewBox="0 0 702.8 702.8"><path fill="#019df4" fill-rule="evenodd" d="M394.5 0c179.9 0 279 97.3 279 273.9 0 35.8-4.2 66.6-11.3 93.5h-185c-4.1-9.8-10.7-18.3-19.1-24.8l44.6-120.5c26.8-6.8 46.7-30.5 46.7-58.9 0-33.7-27.9-61.1-62.3-61.1-25 0-46.6 14.6-56.4 35.6h-54.2V.6c6-.2 11.9-.6 18-.6zm25.1 451.4c25.2.1 47.9-15 57.7-38.2h168.1c-22.8 48.1-56 78.7-88.6 97.3l-.4 161.8c-.2 17-14.1 30.6-31.1 30.5h-264c-17 .1-30.9-13.5-31.1-30.5v-54.7c-41.8-4.2-72.6-17.2-91.7-38.9-16.5-18.6-20.9-40.6-19.7-55.1l-.9-59.8-65.4-16.9c-10.5-2.7-18.9-10.7-22-21.2-3-10.4-.2-21.6 7.3-29.4 22.8-23.7 41.8-49.3 56.5-75.9 13.2-24.1 20.7-48.6 22.1-72.9 8.1-138 83.3-222.3 213.4-242.5v146.5l-59.7 61c-7.5-3.1-15.5-4.6-23.6-4.7-34.3 0-62.3 27.4-62.3 61.1s27.9 61.1 62.3 61.1c34.3 0 62.2-27.4 62.2-61.1 0-8.4-1.8-16.7-5.2-24.4l59.6-60.9h65.6c4.9 13.6 14.4 24.8 26.8 32l-42.3 114.3c-31.3 3.2-55.8 28.9-55.8 60.5 0 33.7 27.9 61.1 62.2 61zm83.1-288.1c0 8.4-7 15.3-15.5 15.3-8.5.1-15.5-6.7-15.6-15.3 0-8.4 7-15.3 15.6-15.3 8.5 0 15.5 6.9 15.5 15.3zm-247.4 93.3c.6.7 3 2 3.7 3.6 1.9 2.5 3 5.5 3.1 8.6 0 8.4-7 15.3-15.6 15.3-8.5.1-15.5-6.8-15.6-15.3 0-8.4 7-15.3 15.6-15.3 3.3.1 6.3 1.3 8.8 3.1zM404 390.3c0-8.4 7-15.3 15.5-15.3 8.6 0 15.6 6.9 15.6 15.3s-7 15.3-15.6 15.3c-8.4.1-15.4-6.8-15.5-15.3z" clip-rule="evenodd" style="fill: #019df4;"/></svg>
