<?xml version="1.0" encoding="UTF-8"?>
<svg xmlns="http://www.w3.org/2000/svg" viewBox="0 0 702.8 702.8"><path fill="#019df4" fill-rule="evenodd" d="M351.3 673.5c213.8 0 322.1-108.3 322.1-322 0-213.8-108.3-322.1-322.1-322.1-213.7 0-322 108.4-322 322.1 0 213.7 108.4 322 322 322zm0-673.5c230 0 351.5 121.6 351.5 351.5 0 229.8-121.5 351.3-351.5 351.3C121.5 702.8 0 581.3 0 351.5 0 121.6 121.5 0 351.3 0zm142.4 515c7.5-3.1 16.1.5 19.1 8 2.9 7 0 14.9-6.6 18.5-30.3 14.3-67.5 21.6-110.5 21.6-114.2 0-183.9-50-204.9-145.1h-46.5c-8.1 0-14.7-6.6-14.7-14.7s6.6-14.7 14.7-14.7h41.9c-1.4-12.4-2.1-24.8-2.2-37.3 0-7 .3-13.8.7-20.4h-40.4c-8.1 0-14.7-6.6-14.7-14.7s6.6-14.7 14.7-14.7h43.5c16.7-105 89.1-162.1 207.9-162.1 42.4 0 79.2 7.1 109.4 21.1 7.2 3.8 9.9 12.7 6 19.9-3.5 6.6-11.4 9.5-18.3 6.7-26.3-12.2-59-18.4-97.1-18.4-103 0-162.3 44.9-177.8 132.7h142.6c8.1 0 14.7 6.6 14.7 14.7s-6.6 14.7-14.7 14.7H214.6c-.4 6.8-1.4 13.2-1.4 20.4 0 13.2 1.1 25.5 2.5 37.3h144.6c8.1 0 14.7 6.6 14.7 14.7s-6.6 14.7-14.7 14.7H221.7c20 76.5 77.9 115.8 173.9 115.8 38.7.1 71.6-6.2 98.1-18.7z" clip-rule="evenodd" style="fill: #019df4;"/></svg>
