<?xml version="1.0" encoding="UTF-8"?>
<svg xmlns="http://www.w3.org/2000/svg" viewBox="0 0 702.8 702.8"><path fill="#019df4" fill-rule="evenodd" d="M508.3 533.7c-30.8 14.5-68.2 21.8-111.3 21.8-112 0-183.2-49.9-206.3-142.1h-40c-11.9 0-21.5-9.7-21.5-21.5 0-11.9 9.7-21.5 21.5-21.5h33.1c-.8-9.5-1.4-19.2-1.4-29.4 0-4.4.3-8.6.5-12.8h-32.2c-11.9 0-21.5-9.7-21.5-21.5s9.7-21.5 21.5-21.5h36.6c18.6-102.8 91.3-158.7 209.7-158.7 42.5 0 79.6 7.2 110.1 21.3 10.8 5 15.5 17.8 10.5 28.6s-17.8 15.5-28.6 10.5c-24.8-11.5-55.7-17.3-92-17.3-94.6 0-148.7 38.4-165.4 115.7h130.8c11.9 0 21.5 9.7 21.5 21.5s-9.7 21.5-21.5 21.5H226.3c-.2 4.4-.9 8.3-.9 12.8 0 10.4 1 19.8 2 29.4h135c11.9 0 21.5 9.6 21.5 21.5s-9.7 21.5-21.5 21.5H235.3c20.6 66.3 73.8 99 161.6 99 36.6 0 67.9-6 92.9-17.7 10.8-5.1 23.6-.5 28.7 10.3 5.1 10.7.5 23.6-10.2 28.6M351.3 0C121.5 0 0 121.5 0 351.5c0 229.9 121.5 351.3 351.3 351.3 230 0 351.5-121.5 351.5-351.3C702.8 121.5 581.3 0 351.3 0" clip-rule="evenodd" style="fill: #019df4;"/></svg>
