<?xml version="1.0" encoding="UTF-8"?>
<svg xmlns="http://www.w3.org/2000/svg" viewBox="0 0 702.8 702.8"><path fill="#019df4" fill-rule="evenodd" d="M351.4 439.3c-48.5 0-87.9-39.3-87.9-87.9s39.3-87.9 87.9-87.9c48.5 0 87.8 39.3 87.8 87.9s-39.3 87.9-87.8 87.9zm0-263.6c-48.5 0-87.9-39.3-87.9-87.9S302.9 0 351.4 0c48.5 0 87.8 39.3 87.8 87.9s-39.3 87.8-87.8 87.8zm0 527.1c-48.5 0-87.9-39.3-87.9-87.8s39.3-87.9 87.9-87.9c48.5 0 87.8 39.3 87.8 87.9s-39.3 87.8-87.8 87.8z" clip-rule="evenodd" style="fill: #019df4;"/></svg>
