<?xml version="1.0" encoding="UTF-8"?>
<svg xmlns="http://www.w3.org/2000/svg" viewBox="0 0 702.8 702.8"><path fill="#019df4" fill-rule="evenodd" d="M647.6 647.5c7.9-7.9 12.2-18.5 12.2-29.6l-.7-208.7c.8-14.9-2.6-26-9.6-33.5-7.2-7.6-18-11.7-31.5-11.8l-533.4.1c-11.2 0-21.7 4.4-29.6 12.3-7.9 8-12.2 18.5-12.2 29.6l.7 208.7c-.8 14.8 2.6 26 9.6 33.5 7.2 7.6 18.1 11.7 31.5 11.8l533.4-.1c11.2-.1 21.8-4.4 29.6-12.3zM351.4 42.9c-14 0-25.3 11.3-25.3 25.3 0 13.9 11.3 25.3 25.3 25.3s25.3-11.3 25.3-25.3c0-13.9-11.3-25.3-25.3-25.3zm0 93.6c-11 0-21.2-2.8-30.4-7.4l-191.9 192 445.3-.1-192.6-192c-9.2 4.6-19.4 7.5-30.4 7.5zm350.7 273.8l.7 207.5c0 22.7-8.8 44-24.8 60s-37.3 24.8-59.9 24.9l-533.6.1c-25.3-.2-47.5-9.2-62.6-25.4C6.7 661.1-.7 639 .7 613.4L0 405.9c0-22.7 8.8-44 24.8-60 11.5-11.5 25.8-19.2 41.4-22.7L290.7 98.6c-4.6-9.2-7.5-19.4-7.5-30.4 0-37.7 30.6-68.3 68.2-68.3s68.2 30.6 68.2 68.3c0 11-2.8 21.2-7.4 30.4L637 322.8c17.4 3.4 32.6 11.5 43.9 23.5 15.2 16.2 22.6 38.3 21.2 64zM176.4 542.4c7.1 0 18.9 0 18.9-36.2 0-36.5-12.3-36.5-18.9-36.5-7.1 0-19 0-19 36.5 0 36.2 11.9 36.2 19 36.2zm0-106c19.6 0 52.5 9.1 52.5 69.8 0 60.6-32.9 69.7-52.5 69.7-19.7 0-52.6-9-52.6-69.7s32.9-69.8 52.6-69.8zM302 496.7c1.1-1.3 2.3-3.4 2.3-11.5 0-6.6-1.4-10.6-2.8-12.2 0 0-1.9-1.7-9.9-1.7h-10v27.2h12c6.8-.1 7.7-1 8.4-1.8zm-9.8-58.3c15.2 0 26.4 3.9 34 12 7.7 8.2 11.7 19.8 11.7 34.4 0 14.5-3.5 25.5-10.8 33.7-7.3 8.4-17.9 12.8-31.6 12.8h-13.9v28.1c0 7.9-6.4 14.3-14.3 14.3h-4.7c-7.9 0-14.3-6.4-14.3-14.3V452.8c0-7.9 6.4-14.3 14.3-14.3h29.6zm130.2 102.4c7.9 0 14.3 6.4 14.3 14.3v4.2c0 7.9-6.4 14.3-14.3 14.3h-52.5c-7.9 0-14.3-6.4-14.3-14.3V452.7c0-7.9 6.4-14.3 14.3-14.3h50.9c4.4 0 8.4 1.9 11.2 5.3 2.7 3.4 3.7 7.8 2.8 12.1l-.9 4.2c-1.4 6.6-7.3 11.2-14 11.2h-31.1v17.6h23.6c7.9 0 14.3 6.4 14.3 14.3v4.2c0 7.9-6.4 14.3-14.3 14.3h-23.6v19.3h33.6zm119.2-102.4c7.9 0 14.3 6.4 14.3 14.3v106.7c0 7.9-6.4 14.3-14.3 14.3H538c-4.8 0-9.3-2.4-11.9-6.4l-38-57.6v49.7c0 7.9-6.4 14.3-14.3 14.3h-4.3c-7.9 0-14.3-6.4-14.3-14.3V452.7c0-7.9 6.4-14.3 14.3-14.3h3.4c4.8 0 9.3 2.4 11.9 6.4l38.1 57.6v-49.7c0-7.9 6.4-14.3 14.3-14.3h4.4z" clip-rule="evenodd" style="fill: #019df4;"/></svg>
