<?xml version="1.0" encoding="UTF-8"?>
<svg xmlns="http://www.w3.org/2000/svg" viewBox="0 0 702.8 702.8"><path fill="#019df4" fill-rule="evenodd" d="M659 658.8c9.4-9.5 14.6-22 14.6-35.4l-.7-213c.9-16.8-3.2-30-11.8-39.2-8.7-9.3-21.6-14.2-37.4-14.3l-544.5.1c-13.3 0-25.9 5.2-35.3 14.7-9.5 9.5-14.6 22-14.6 35.4l.7 213c-.9 16.8 3.2 30 11.8 39.2 8.7 9.2 21.7 14.2 37.5 14.3l544.5-.2c13.2 0 25.7-5.2 35.2-14.6zM351.4 29.2c-18.3 1-32.4 16.6-31.4 34.9.9 17 14.4 30.6 31.4 31.4 18.3-.9 32.4-16.5 31.4-34.8-.8-17-14.4-30.6-31.4-31.5zm0 95.5c-11.9 0-22.9-3.5-32.4-9.4L106.8 327.7l489.8-.1-212.8-212.2c-9.5 5.8-20.5 9.3-32.4 9.3zm350.7 286.4l.7 212.2c.1 21-8.2 41.2-23.1 56.1-14.8 14.9-35 23.3-56 23.3l-544.7.1c-23.7-.2-44.5-8.6-58.6-23.6C6.2 664.1-.6 643.4.7 619.3L0 407.1c-.1-21 8.2-41.2 23.1-56.1 11.2-11.3 25.7-18.9 41.3-21.8.3-.4.4-.9.8-1.2L298.4 94.7c-6-9.7-9.3-20.9-9.3-32.3C289.1 28 317 0 351.4 0c34.3 0 62.3 28 62.3 62.4 0 11.9-3.5 22.9-9.4 32.3l234.8 234.1c.1.1.1.2.2.3 17.2 2.9 32.1 10.5 43 22.1 14.3 15.1 21.1 35.8 19.8 59.9zM172.8 550c8 0 23 0 23-40.6 0-40.9-14.9-40.9-23-40.9s-23.1 0-23.1 40.9c0 40.6 15 40.6 23.1 40.6zm0-108.2c18.7 0 49.9 8.8 49.9 67.6 0 55.8-27.1 67.4-49.9 67.4-22.8 0-50.1-11.7-50.1-67.4 0-58.8 31.3-67.6 50.1-67.6zm130.9 60.3c2-2.3 3.2-5.5 3.2-14.1 0-6.7-1.3-12.1-3.7-14.8-.8-.9-3.7-3.1-12.9-3.1h-13.9v35.1h15.9c8.7-.1 10.1-1.6 11.4-3.1zM291 443.9c14.6 0 25 3.6 32 11.1 7.3 7.6 10.9 18.6 10.9 32.6 0 13.9-3.3 24.3-10.1 31.9-6.8 7.9-16.5 11.8-29.5 11.8h-17.9v32.4c0 6-4.9 11-11 11h-4.8c-6 0-11-4.9-11-11V454.8c0-6 4.9-11 11-11 .2.1 30.4.1 30.4.1zm132.9 104.5c6 0 11 4.9 11 11v4.3c0 6-4.9 11-11 11h-53.6c-6 0-11-4.9-11-11V454.8c0-6 4.9-11 11-11h52c6 0 11 4.9 11 10.9 0 .8-.1 1.6-.3 2.4l-1 4.3c-1.1 5-5.6 8.6-10.7 8.6H386v25.2h27.7c6 0 11 4.9 11 11v4.3c0 6-4.9 11-11 11H386v26.9h37.9zm121.7-104.5c6.1 0 11 4.9 11 11v108.9c0 6-4.9 11-11 11H542c-3.7 0-7.1-1.8-9.1-4.9L487.5 501v62.9c0 6-4.9 11-11 11H472c-6 0-11-4.9-11-11V454.8c0-6 4.9-11 11-11h3.5c3.7 0 7.1 1.8 9.1 4.9l45.7 68.9v-62.9c0-6 4.9-11 11-11-.1.2 4.3.2 4.3.2z" clip-rule="evenodd" style="fill: #019df4;"/></svg>
