<?xml version="1.0" encoding="UTF-8"?>
<svg xmlns="http://www.w3.org/2000/svg" viewBox="0 0 702.8 702.8"><path fill="#019df4" fill-rule="evenodd" d="M619.2 573.1c0 6.5-5.3 11.8-11.8 11.8H69.2c-6.5 0-11.8-5.3-12-9.2l55.2-315.1c0-6.5 5.2-11.8 11.8-11.8h537.4c6.1 0 11.2 4.7 11.7 10.7l-54.1 313.6zM29.4 130.5c0-6.9 6.4-12.6 14.4-12.6h223.3c7.9 0 14.3 5.6 14.3 12.6v37.7c0 8.3 6.6 15 14.7 15h281.4c7.9 0 14.3 5.7 14.4 13.7l1.7 21.9H124.2c-22.7 0-41.2 18.8-41 39.2L49.8 448.6 29.4 130.5zm632.1 88.3H623l-1.8-23c0-23.5-19.7-42.6-43.8-42.6H310.9v-22.7c0-23.5-19.7-42.6-43.8-42.6H43.8C19.6 87.9 0 107 0 131.5l28.1 440.7-.2.9c0 23.1 18.5 41.9 41.3 41.9h538.2c22.7 0 41.2-18.8 41-39.3l54.2-312.5c.1-.8.2-1.7.2-2.6 0-23-18.5-41.8-41.3-41.8z" clip-rule="evenodd" style="fill: #019df4;"/></svg>
