<?xml version="1.0" encoding="UTF-8"?>
<svg xmlns="http://www.w3.org/2000/svg" viewBox="0 0 702.8 702.8"><path fill="#019df4" fill-rule="evenodd" d="M607 562.5c-.3 1.3-.4 2.7-.4 4 0 2.1-1.7 3.7-3.9 3.7H75.4c-1.7 0-3.2-1.1-3.7-2.6l52.2-282.4c.2-1.4.4-2.7.4-4.1 0-2.1 1.7-3.7 3.9-3.7h526.6c1.8 0 3.2 1.1 3.7 2.6L607 562.5zm-556.5-430h218.8c3.8 0 6.4 2.3 6.4 4.4v36.7c0 12.3 9.9 22.3 22.1 22.3h275.7c3.8 0 6.4 2.3 6.5 6.2l2.3 30.7v.1H128.2c-25.7 0-46.8 20.4-48 46L60.3 386.7 44.2 137c-.1-2.2 2.5-4.5 6.3-4.5zm604.2 100.3h-28.8c.1-1.2.5-2.3.4-3.5l-2.3-29c0-27-22.7-49.1-50.6-49.1H319.8v-14.4c0-27-22.7-49.1-50.6-49.1H50.4c-27.9 0-50.5 22-50.5 50.5l27.5 426.6c0 .5-.2 1-.2 1.6 0 26.7 21.6 48.4 48.1 48.4h527.3c25.7 0 46.8-20.5 48-46l51.7-283.7c.3-1.3.4-2.7.4-4 .1-26.6-21.5-48.3-48-48.3z" clip-rule="evenodd" style="fill: #019df4;"/></svg>
