<?xml version="1.0" encoding="UTF-8"?>
<svg xmlns="http://www.w3.org/2000/svg" viewBox="0 0 702.8 702.8"><path fill="#019df4" fill-rule="evenodd" d="M666.8 646.8c-6 7.2-16.6 11-31.4 11.3-29.1.5-180.7.5-268.7.4h-1.4c-131 .1-274 0-297.9-.4-14.8-.3-25.3-4-31.3-11.2-8.7-10.4-6.4-25.8-6.2-28.3l-.3-319.5L290.9 464c1 .7 23.8 17.1 55.9 17.1 18.9 0 37.1-5.6 53.8-16.5l272.6-170.1-.1 326.6c0 .2 2.2 15.4-6.3 25.7M42.2 225.5L312.4 54.7c11.8-7.3 25.4-11.3 39.2-11.4 22.2 0 38.6 11.2 39.4 11.7l269 170.1c8.3 5.9 12.8 18 13.2 34.6v.8c-.5.2-1.1.3-1.6.6L384.7 440c-12 7.9-24.8 11.9-37.9 11.9-22.1 0-38.4-11.4-39.4-12L29.5 264.6V260c.4-16.9 5-29 12.7-34.5m660 393.2l.3-359.3c-.8-33.4-14.3-50-26.1-58.4l-269-170.1c-16.8-10.9-36.3-16.7-56.3-16.8-31.9 0-54.8 16.1-55.1 16.3L30.4 198.3l-4.7 3C14.5 209.3 1 225.8.2 259.6l.5 356.6c-.5 2.9-4.4 28.8 12.6 49.2C25 679.5 43 686.8 66.9 687.2c19 .3 106.8.4 200.4.4h98V673l1.5 14.6c87.9.1 239.8.1 269.1-.4 23.8-.4 41.8-7.8 53.5-21.8 17-20.4 13.1-46.3 12.8-46.7" clip-rule="evenodd" style="fill: #019df4;"/></svg>
