<?xml version="1.0" encoding="UTF-8"?>
<svg xmlns="http://www.w3.org/2000/svg" viewBox="0 0 702.8 702.8"><path fill="#019df4" fill-rule="evenodd" d="M50.5 132.5h218.8c3.8 0 6.4 2.3 6.4 4.4v36.7c0 12.3 9.9 22.3 22.1 22.3h275.7c3.8 0 6.4 2.3 6.4 6.1l2.3 30.7v.1h-454c-25.7 0-46.8 20.4-48 46L60.3 386.6 44.2 136.9c0-2 2.5-4.4 6.3-4.4zm604.2 100.4h-28.8c.1-1.2.5-2.3.4-3.5l-2.3-29c0-27.1-22.7-49.1-50.6-49.1H319.9V137c0-27.1-22.7-49.1-50.6-49.1H50.5C22.8 87.7.2 109.9 0 137.5v.9L27.5 565c0 .5-.1 1-.1 1.6 0 26.6 21.6 48.4 48.1 48.4h527.3c25.7 0 46.8-20.5 48-46l51.7-283.7c.3-1.3.4-2.7.4-4.1-.1-26.7-21.7-48.3-48.2-48.3z" clip-rule="evenodd" style="fill: #019df4;"/></svg>
