<?xml version="1.0" encoding="UTF-8"?>
<svg xmlns="http://www.w3.org/2000/svg" viewBox="0 0 702.8 702.8"><path fill="#019df4" fill-rule="evenodd" d="M379.7 431.8c-9.7 6.6-21.1 10.2-32.8 10.4-12.2-.2-24.2-3.9-34.4-10.6L44.3 262.5v-.1c.4-13.8 3.8-23.7 8.9-27.4L317.7 67.8c10.2-6.3 22-9.6 33.9-9.7 19 0 33.4 9.6 34.4 10.3l262.7 166c5.4 3.8 8.6 12.4 9.4 23.8L379.7 431.8zm322.6 179.6l.3-350c-.8-35.8-15.7-53.9-29.1-63.4L410.8 32c-17.7-11.7-38.4-17.9-59.6-17.9-33.1 0-56.5 16-58 17.2l-260 164.2-4.9 3.1C15.9 207.5 1 225.6.2 261.9l.3 349.6c-.9 7.8-2.2 32.2 14.3 52C23.7 674.2 41 687 73 687.7h556.8c31.9-.6 49.2-13.5 58.1-24.2 16.6-19.9 15.3-44.2 14.4-52.1z" clip-rule="evenodd" style="fill: #019df4;"/></svg>
