<?xml version="1.0" encoding="UTF-8"?>
<svg xmlns="http://www.w3.org/2000/svg" viewBox="0 0 702.8 702.8"><path fill="#019df4" fill-rule="evenodd" d="M629.1 643.4c-21.1.4-116.8.5-262.6.4H365c-127.8 0-267.5 0-291.2-.4-8.3-.1-19.3-1.7-24.8-8.1-6.1-7.2-4.7-19.1-4.7-19.1l.3-1.8-.2-300 243.2 153.2c2.5 1.9 26 18.2 59.3 18.2 20.1 0 39.3-5.9 56.7-17.3l254.8-158.8-.3 302.8.3 3.7c0 .1 1.5 11.7-4.5 18.9-5.4 6.6-16.5 8.1-24.8 8.3zM317.7 67.8c10.2-6.3 22-9.6 33.9-9.7 19.1 0 33.4 9.6 34.3 10.3l262.7 165.9c5.4 3.8 8.6 12.4 9.4 23.8L379.7 431.6c-9.7 6.6-21.1 10.2-32.8 10.3-18.9 0-33.1-9.7-34.3-10.5l-268.2-169v-.1c.3-13.8 3.7-23.7 8.8-27.4L317.7 67.8zm384.9 193.4c-.8-35.8-15.7-53.9-29.1-63.3L410.7 32c-17.7-11.6-38.4-17.8-59.6-17.9-33.1 0-56.5 16-58 17.2L33.2 195.4l-4.9 3.1C16 207.4 1 225.5.2 261.8l.3 349.4c-.9 7.8-2.2 32.1 14.3 52 8.9 10.7 26.2 23.5 58.2 24.2 18 .3 100.7.4 194.7.4h98.7c69 0 233 .1 263.5-.4 31.9-.6 49.2-13.5 58.1-24.2 16.5-19.9 15.3-44.2 14.4-52-.1-.1.2-350 .2-350z" clip-rule="evenodd" style="fill: #019df4;"/></svg>
