<?xml version="1.0" encoding="UTF-8"?>
<svg xmlns="http://www.w3.org/2000/svg" viewBox="0 0 702.8 702.8"><path fill="#019df4" fill-rule="evenodd" d="M341.3 479.4c11.6 0 23.1-2.9 31.8-5.8L587 378.2v98.3c0 28.9-20.2 52-46.2 57.8-46.2 8.7-109.8 26-156.1 63.6-11.6 8.7-26 14.5-40.5 14.5s-28.9-5.8-40.5-14.5c-46.2-37.6-109.8-54.9-156.1-63.6-26-5.8-46.2-28.9-46.2-57.8v-95.4l208.1 92.5c8.7 2.9 20.3 5.8 31.8 5.8zm335.3 40.4c14.5 11.6 23.1 34.7 23.1 49.1 0 8.7-2.9 17.3-8.7 20.2-5.8 5.8-17.3 8.7-26 8.7h-17.4c-11.6 0-23.1 0-31.8-8.7-5.8-5.8-8.7-11.6-8.7-20.2 0-14.5 8.7-37.6 23.1-49.1V326.2L358.5 447.6c-5.8 2.9-14.5 5.8-20.2 5.8-8.7 0-14.5-2.9-20.2-5.8L35 320.4c-20.2-8.7-31.8-26-31.8-49.1 0-20.2 11.6-40.5 31.8-49.1L318.2 95c14.5-5.8 28.9-5.8 43.4 0l283.2 127.2c29.2 13.4 28.9 46.7 28.9 63.6l2.9 234z" clip-rule="evenodd" style="fill: #019df4;"/></svg>
