<?xml version="1.0" encoding="UTF-8"?>
<svg xmlns="http://www.w3.org/2000/svg" viewBox="0 0 703.9 702.8"><path fill="#019df4" fill-rule="evenodd" d="M677.6 584.5h-38.3c0-14.7 11.8-38.3 17.7-38.3s20.6 20.6 20.6 38.3zM557 481.5c0 11.8-8.8 20.6-17.7 20.6-50 8.8-120.6 29.4-176.5 73.6-11.8 8.8-29.4 8.8-41.2 0-53-44.1-126.5-64.7-176.5-73.6-11.8-2.9-17.7-11.8-17.7-20.6V355l191.3 88.3c11.8 5.9 26.5 5.9 38.3 0L554 352l3 129.5zM30.3 266.7c0-8.8 2.9-14.7 11.8-17.7l291.3-132.4c5.9-2.9 8.8-2.9 14.7 0L639.4 249c3.5 1.8 2.9 2.9 2.9 2.9h-306c-8.8 0-14.7 5.9-14.7 14.7 0 8.8 5.9 14.7 14.7 14.7h300.1L345.1 413.8c-5.9 2.9-8.8 2.9-14.7 0L39.1 281.4c-5.9-2.9-8.8-8.8-8.8-14.7zm644.4 253.1V281.4c.5-18.5 1.8-49-23.5-58.8L359.8 90.2c-14.7-5.9-26.5-5.9-41.2-2.9L27.3 222.6C9.6 228.5.8 246.1.8 266.7s11.8 35.3 26.5 44.1L98 343.2v138.3c0 26.5 17.7 47.1 41.2 53C186.3 543.3 254 561 301 602.2c11.8 8.8 23.5 14.7 38.3 14.7 14.7 0 26.5-5.9 38.3-14.7 50-38.3 114.8-58.8 161.8-67.7 23.5-5.9 41.2-26.5 41.2-53V340.3l61.8-26.5v206c-23.5 8.8-35.3 44.1-35.3 64.7 0 8.8 2.9 17.7 8.8 23.5 8.8 8.8 20.6 8.8 32.4 8.8H666c8.8 0 17.3-2.1 26.5-8.8 6.7-4.9 9.2-8.4 10.3-23.5 1.3-21.7-7.5-50-28.1-64.7z" clip-rule="evenodd" style="fill: #019df4;"/></svg>
