<?xml version="1.0" encoding="UTF-8"?>
<svg xmlns="http://www.w3.org/2000/svg" viewBox="0 0 702.8 702.8"><path fill="#019df4" fill-rule="evenodd" d="M658.2 568.4h-17.5c2.9-8.8 5.8-17.5 8.8-20.4 5.8 2.9 8.7 11.6 8.7 20.4 2.9 0 2.9 0 0 0zm-113.9-90.6c0 5.8-5.8 11.7-11.7 14.6-49.7 8.8-119.8 29.2-175.3 70.1-8.8 5.8-20.5 5.8-29.2 0-52.6-43.8-122.7-61.4-175.3-70.1-5.8 0-11.7-5.8-11.7-14.6v-111l175.3 78.9c5.8 2.9 14.6 5.8 20.5 5.8 8.8 0 14.6-2.9 20.5-5.8l185.3-84.1 1.6 116.2zM47.6 270.4c0-2.9 2-6.6 5.8-8.8l283.4-128.5h5.8l260 116.9H336.7c-11.7 0-20.5 8.8-20.5 20.4s8.8 20.4 20.5 20.4h260L345.4 404.7h-8.8L53.2 276.2c-3.4-1.9-5.6-2.9-5.6-5.8zM675.7 510V285c-.4-19.1-.9-52.2-29.2-64.3L363.1 92.2c-14.6-5.8-29.2-5.8-43.8 0L35.9 220.7C15.4 229.5 3.8 247 3.8 270.4c0 20.4 11.7 40.9 32.1 49.7l64.3 29.2v128.5c0 29.2 20.5 52.6 46.7 58.4 43.8 8.8 108.1 26.3 154.8 64.3 11.7 8.8 26.3 14.6 40.9 14.6s29.2-5.8 40.9-14.6c46.7-38 111-55.5 154.8-64.3 26.3-5.8 46.7-29.2 46.7-58.4V346.3l43.8-20.4V510c-23.4 11.7-35.1 46.7-35.1 67.2 0 11.7 2.9 20.4 8.8 26.3 11.7 11.7 26.3 11.7 38 11.7h17.4c11.7 0 20.5 0 29.2-8.8 19-16 14.7-82.1-11.4-96.4z" clip-rule="evenodd" style="fill: #019df4;"/></svg>
