<?xml version="1.0" encoding="UTF-8"?>
<svg xmlns="http://www.w3.org/2000/svg" viewBox="0 0 702.8 702.8"><path fill="#019df4" fill-rule="evenodd" d="M350.9 702.8c-103.8 0-161.1-52-161.1-146.6v-439C189.8 41.6 235.6 0 318.8 0c83.1 0 128.9 41.6 128.9 117.3v380.2c0 55.6-35 87.6-96.2 87.6s-96.2-31.9-96.2-87.6V176.9c0-8.1 7.2-14.6 16.1-14.6s16 6.6 16 14.6v320.6c0 39.8 20.4 58.3 64 58.3 43.7 0 64-18.5 64-58.3V117.3c0-59.2-31.7-88-96.8-88s-96.8 28.8-96.8 88v439c0 77.8 43.4 117.3 128.9 117.3s128.9-39.5 128.9-117.3l-.4-379.6c0-8.1 7.2-14.6 16-14.6h.1c8.9 0 16.1 6.5 16.1 14.6l.5 379.7c.1 94.4-57.2 146.4-161 146.4" clip-rule="evenodd" style="fill: #019df4;"/></svg>
