<?xml version="1.0" encoding="UTF-8"?>
<svg xmlns="http://www.w3.org/2000/svg" viewBox="0 0 702.8 702.8"><path fill="#019df4" fill-rule="evenodd" d="M351.7 702.8c-102.2 0-160.9-55.8-160.9-153.2v-437C190.8 41.1 233.9 0 309 0s118.2 41 118.2 112.6l.9 394.6c0 41.6-27.1 67.4-70.7 67.4s-70.7-25.8-70.7-67.3V147.4c0-12.1 10.3-21.8 22.9-21.8 12.7 0 22.9 9.8 22.9 21.8v359.8c0 17.7 6.3 23.6 24.8 23.6 18.6 0 24.8-5.9 24.8-23.6l-1-394.6c0-47-23-68.9-72.3-68.9s-72.3 21.9-72.3 68.9v437c0 73.7 37.6 109.5 115 109.5s115-35.8 115-109.5l.4-404.1c0-12.1 10.3-21.8 22.9-21.8 12.7 0 22.9 9.8 22.9 21.9l-.4 404.1c.3 97.3-58.4 153.1-160.6 153.1" clip-rule="evenodd" style="fill: #019df4;"/></svg>
