<?xml version="1.0" encoding="UTF-8"?>
<svg xmlns="http://www.w3.org/2000/svg" viewBox="0 0 702.8 702.8"><path fill="#019df4" fill-rule="evenodd" d="M394.3 462.9c-13.2 9.1-27.4 18-42.4 27-14.9-9-29.2-17.9-42.3-27h84.7zM260 418.5c-10.1-13.1-17.2-27.7-20.6-44.4h225.1c-3.4 16.7-10.6 31.2-20.6 44.4H260zm48.2-177.6c13.6-9.4 28.2-18.7 43.7-28 15.5 9.3 30.2 18.5 43.8 28h-87.5zm136.5 44.4c9.9 13.1 16.6 27.8 19.9 44.4H239.3c3.3-16.6 10-31.3 19.9-44.4h185.5zm68.3 66.1c0-80.8-57.6-126.9-117.9-164.6C455.4 149.1 513 103 513 22.2 513 10 502.7 0 490 0s-23 9.9-23 22.2c0 65.7-52.1 100.8-115 138.4-62.9-37.7-115-72.7-115-138.4C237 10 226.7 0 214 0s-23 9.9-23 22.2c0 80.8 57.6 126.9 117.9 164.6C248.6 224.5 191 270.7 191 351.4c0 41.6 15.3 73.9 38.2 100.7 1.4 2.2 3.2 4.1 5.3 5.7 21 22.6 47.3 41.3 74.3 58.1-60.3 37.7-117.9 83.8-117.9 164.6 0 12.2 10.3 22.2 23 22.2s23-9.9 23-22.2c0-65.7 52.2-100.7 115-138.4 62.9 37.7 115 72.8 115 138.4 0 12.2 10.3 22.2 23 22.2s23-9.9 23-22.2c0-80.8-57.6-126.9-117.9-164.6 60.4-37.6 118-83.7 118-164.5z" clip-rule="evenodd" style="fill: #019df4;"/></svg>
