<?xml version="1.0" encoding="UTF-8"?>
<svg xmlns="http://www.w3.org/2000/svg" viewBox="0 0 702.8 702.8"><path fill="#019df4" fill-rule="evenodd" d="M282.6 246.1c20.5-16.1 44.5-30.6 69.3-45 24.9 14.5 48.9 29 69.3 45H282.6zm-31.5 30.2h201.7c14.2 17.3 23.5 37.1 26.4 60.5H224.7c3-23.3 12.2-43.2 26.4-60.5zm169 181.4c-20.2 15.7-43.8 29.8-68.2 44-24.3-14.2-47.9-28.4-68.1-44h136.3zM252 427.5c-14.5-17.3-24-37.1-27.1-60.4H479c-3.1 23.3-12.7 43.2-27.1 60.4H252zm261-76.1c0-83.5-63.2-128.2-130.6-168.1C449.8 143.4 513 98.6 513 15.2 513 6.9 505.8.1 496.9.1c-8.9 0-16.1 6.8-16.1 15.1 0 72.6-61.5 111.1-128.8 150.3-67.3-39.2-128.8-77.7-128.8-150.3 0-8.3-7.2-15.1-16.1-15.1-8.9 0-16.1 6.8-16.1 15.1 0 83.5 63.2 128.2 130.7 168.1C254.3 223.2 191 268 191 351.4c0 39.9 14.9 70.6 37.3 96.5 1.2 2.9 3.4 5.3 6.1 7 23.9 25.1 54.9 45.5 87.2 64.7-67.4 39.9-130.7 84.7-130.7 168.1 0 8.3 7.2 15.1 16.1 15.1 8.9 0 16.1-6.8 16.1-15.1 0-72.6 61.5-111.1 128.8-150.3 67.4 39.2 128.8 77.7 128.8 150.3 0 8.3 7.2 15.1 16.1 15.1 8.9 0 16.1-6.8 16.1-15.1 0-83.5-63.2-128.2-130.6-168.1 67.5-40 130.7-84.7 130.7-168.2z" clip-rule="evenodd" style="fill: #019df4;"/></svg>
