<?xml version="1.0" encoding="UTF-8"?>
<svg xmlns="http://www.w3.org/2000/svg" viewBox="0 0 702.8 702.8"><path fill="#019df4" fill-rule="evenodd" d="M512.4 260.9c-3.6 3.3-5.4 8.2-4.6 13.1L557 587.2l-28.4 13.9L419 370c-2-4.2-5.8-7.1-10.3-8.1-4.5-1-9.2.3-12.7 3.4-32.2 28.6-63.4 58.2-93.5 89-28.3 28.5-50.6 51-91.1 82.1-3.9 3-6.1 7.8-5.7 12.8l8.4 108.6-23.5 11.3-60.2-101.3c-1.1-1.9-2.7-3.5-4.5-4.7l-91-59.8 12.4-19 101.1 7.4c4.9.4 9.7-1.8 12.6-5.7 30.1-38.9 52.9-61.1 81.8-89.2 24.2-23.5 51.5-50.1 90.3-93.1 5.4-6.1 4.9-15.4-1.2-20.8-1.1-.9-2.2-1.7-3.5-2.3L98.9 174.5l18.2-29 312 45.9c4.7.6 9.6-1 12.8-4.5 48.4-52.3 123.2-132.5 130.7-139.2 14.2-12.8 28.6-18.6 42.3-18.2 13.9.7 27.4 8.3 40.2 22.5 25.6 28.4 24.1 57-4.3 82.6-9.9 8.9-138.4 126.3-138.4 126.3M676.9 32.4C659 12.5 638.1 1.4 616.5.2c-21.7-1.5-43.6 7.7-63.4 25.6-10 9-102.1 108.2-127.3 135.5L112 115.1c-5.7-.7-11.3 1.9-14.5 6.7L65.3 173c-4.3 6.8-2.3 15.8 4.5 20.2.6.4 1.2.7 1.8 1L298 298.9c-24.4 26.4-49.6 52.1-75.6 77-28.2 27.4-50.8 49.3-79.7 86.1l-101.9-7.4c-5.3-.4-10.4 2.1-13.3 6.6L2.4 499.5c-4.4 6.8-2.6 15.8 4.2 20.3l100.4 66 65.3 109.9c3.9 6.5 12.1 9 18.9 5.7l44.6-21.5c5.4-2.6 8.7-8.3 8.2-14.3l-8.5-110.8c38.1-29.8 60.2-52 87.8-79.8 20.4-20.6 43.2-43.6 77.6-74.7l107.7 226.8c3.5 7.3 12.2 10.4 19.5 7 0 0 .1 0 .1-.1l51.5-25.2c5.8-2.8 9-9.1 8-15.5L538 277.2c25.1-23 123.7-113 132.4-120.8 40.8-36.8 43.2-83.2 6.5-124" clip-rule="evenodd" style="fill: #019df4;"/></svg>
