<?xml version="1.0" encoding="UTF-8"?>
<svg xmlns="http://www.w3.org/2000/svg" viewBox="0 0 702.8 702.8"><path fill="#019df4" fill-rule="evenodd" d="M702.7 96.1c1.1-21.7-7.7-43.7-25.6-63.5-36.7-40.9-83-43.3-123.9-6.6-10 9-102.1 108.2-127.4 135.4L112 115.3c-5.7-.7-11.3 1.9-14.5 6.7l-32.2 51.1c-2.3 3.6-2.9 7.9-1.6 12 1.2 4.1 4.1 7.4 7.9 9.2L298.2 299c-31.2 33.9-54.6 56.6-75.6 77-28.2 27.4-50.8 49.3-79.7 86.1L41 454.7c-5.3-.5-10.5 2.1-13.3 6.6L2.4 499.6c-4.4 6.8-2.6 15.8 4.2 20.3l100.4 66 65.4 109.8c3.9 6.5 12.1 8.9 18.9 5.7l44.6-21.5c5.4-2.6 8.7-8.3 8.2-14.3l-8.5-110.7c38.1-29.8 60.2-52 87.8-79.8 25.1-25.7 51-50.6 77.6-74.7l107.7 226.8c3.5 7.3 12.2 10.4 19.5 6.9h.1l51.5-25.2c5.8-2.8 9-9.1 8-15.4l-49.7-316.1c25.1-23 123.8-113 132.4-120.8 19.9-18 31.1-38.9 32.2-60.5" clip-rule="evenodd" style="fill: #019df4;"/></svg>
