<?xml version="1.0" encoding="UTF-8"?>
<svg xmlns="http://www.w3.org/2000/svg" viewBox="0 0 702.8 702.8"><path fill="#019df4" fill-rule="evenodd" d="M640.1 133.7c-9.7 8.8-135.6 123.7-135.6 123.7-5.3 4.9-7.9 12.1-6.8 19.3l47.5 301.6-16.6 8.1-104.4-219.9c-2.9-6.1-8.5-10.5-15.2-11.9-6.6-1.4-13.5.5-18.5 5-42.8 37.9-68.9 64.3-91.9 87.5-27.6 27.8-49.3 49.7-88.6 79.8-5.8 4.5-8.9 11.5-8.4 18.8l7.8 101.5-12.6 6.1-55.6-93.5c-1.7-2.8-4-5.2-6.7-7l-83.2-54.7 5.9-9 94.9 6.9c7.1.4 14.2-2.6 18.6-8.3 29.1-37.7 51.3-59.3 79.4-86.6 23.8-23.1 50.7-49.2 88.9-91.6 4.6-5.1 6.5-12.1 5.1-18.7-1.4-6.7-5.8-12.4-12-15.2L114.5 175l11-17.5 301 44.2c7 .9 14.1-1.5 18.9-6.7C490.8 146 565.6 65.8 573 59.1c25-22.5 48.2-21.3 70.7 3.7 22.6 25.1 21.4 48.3-3.6 70.9M675.8 34C637.3-8.7 587-11.4 544.4 27.1c-9.7 8.7-92.3 97.6-122.7 130.4L118 112.9c-8.4-1.2-16.8 2.6-21.3 9.8l-31.6 50.1c-3.3 5.3-4.2 11.7-2.4 17.6 1.7 5.9 6 10.9 11.6 13.4l212.9 98.5c-27.2 29.2-48.1 49.6-67.1 67.9-27 26.3-48.8 47.5-76.3 82l-96.1-6.9c-7.7-.4-15.3 3.1-19.5 9.7L3.6 492.6c-6.5 9.9-3.8 23.3 6.2 29.8l97 63.8L170 692.4c4 6.7 11.2 10.5 18.5 10.5 3.1 0 6.3-.7 9.3-2.1l43.6-21c8-3.8 12.8-12.2 12.1-21.1l-8.1-104.6c35.9-28.3 57.2-49.8 83.7-76.5 18.5-18.6 39-39.3 68.7-66.4l101.3 213.5c2.5 5.2 6.9 9.2 12.4 11.1 5.4 1.9 11.4 1.5 16.5-1l50.4-24.6c8.5-4.2 13.3-13.4 11.8-22.7l-48.1-305.8c28.5-26 118.7-108.3 126.9-115.7 42.5-38.8 45.2-89.2 6.8-132" clip-rule="evenodd" style="fill: #019df4;"/></svg>
