<?xml version="1.0" encoding="UTF-8"?>
<svg xmlns="http://www.w3.org/2000/svg" viewBox="0 0 702.8 702.8"><path fill="#019df4" fill-rule="evenodd" d="M339 6.2c2-1.8 4.2-3.4 6.6-4.5 5-2.2 10.7-2.2 15.7 0 2.5 1.2 4.9 2.7 7 4.5L575 212.9c8.1 8.1 8.1 21.2 0 29.4-8.1 8.1-21.2 8.1-29.4 0L374.1 70.7v431.2c0 11.4-9.3 20.7-20.7 20.7-11.4 0-20.7-9.3-20.7-20.7V70.7L157.9 246c-8.1 8.1-21.2 8.1-29.4 0-8.1-8.1-8.1-21.2 0-29.4L339 6.2zm343.1 505.2c11.4 0 20.7 9.3 20.7 20.7v150.1c0 11.4-9.3 20.7-20.7 20.7H20.7C9.3 702.9 0 693.6 0 682.2V532.1c0-11.4 9.3-20.7 20.7-20.7 11.4 0 20.7 9.3 20.7 20.7v129.4h620.1V532.1c0-11.5 9.2-20.7 20.6-20.7z" clip-rule="evenodd" style="fill: #019df4;"/></svg>
