<?xml version="1.0" encoding="UTF-8"?>
<svg xmlns="http://www.w3.org/2000/svg" viewBox="0 0 702.8 702.8"><path fill="#019df4" fill-rule="evenodd" d="M352.5 658.1h-1.2c-65.1 0-115.9-17.9-151-53.3-35.2-35.6-53.2-87.5-53.4-154.3-.4-118.7 140.5-321.5 203.9-395.4 57.8 67.8 205.5 269.6 205.9 394.1.5 134.3-72.1 208.5-204.2 208.9M366.6 6.3c-8.3-8.4-22.9-8.4-31.1 0-47.4 48.2-232.9 291.1-232.4 444.3.2 78 23.2 142.2 66.4 185.9 43 43.4 105.9 66.3 182 66.3h1.2c155.8-.5 248.6-95.3 248.2-253.7-.6-164.6-205.2-413.2-234.3-442.8" clip-rule="evenodd" style="fill: #019df4;"/></svg>
