<?xml version="1.0" encoding="UTF-8"?>
<svg xmlns="http://www.w3.org/2000/svg" viewBox="0 0 702.8 702.8"><path fill="#019df4" fill-rule="evenodd" d="M352.6 673.5h-1.2c-69.5 0-124-19.2-161.7-56.9-38-38-57.3-93.1-57.6-163.7C131.7 317.4 295.8 98.4 351 36.1c55.4 62.4 220.4 281.5 220.8 415.5.3 142.6-77.5 221.5-219.2 221.9m8.7-669.2C358.6 1.6 354.9 0 351 0c-3.8 0-7.5 1.6-10.3 4.3C292.2 53.1 102.5 298.6 103 453c.2 77.5 23.1 141.3 66.1 184.4 42.8 42.8 105.8 65.5 182.3 65.5h1.2c155.8-.5 248.6-94.4 248.1-251.4-.3-152.7-190.8-398.2-239.4-447.2" clip-rule="evenodd" style="fill: #019df4;"/></svg>
