<?xml version="1.0" encoding="UTF-8"?>
<svg xmlns="http://www.w3.org/2000/svg" viewBox="0 0 702.9 702.9"><g fill="#019df4"><path d="M351.5 482.6c-41.7 0-74.1-10.9-96.3-32.3-23.1-22.3-34.8-55.5-34.8-98.9s11.7-76.6 34.8-98.9c22.3-21.4 54.7-32.3 96.3-32.3s74.1 10.9 96.3 32.3c23.1 22.3 34.8 55.5 34.8 98.9s-11.7 76.6-34.8 98.9c-22.3 21.5-54.7 32.3-96.3 32.3zm0-242.3c-36.3 0-64.1 9-82.5 26.7-19 18.4-28.7 46.8-28.7 84.5S250 417.6 269 436c18.4 17.7 46.1 26.7 82.5 26.7s64.1-9 82.5-26.7c19-18.4 28.7-46.8 28.7-84.5s-9.6-66.1-28.7-84.4c-18.5-17.8-46.2-26.8-82.5-26.8z" style="fill: #019df4;"/><path d="M379.2 702.9h-55.4c-14.1 0-25.5-11.4-25.5-25.5v-72.3c0-3.2-3.5-5.6-6.9-6.1-29.1-4.5-55.3-12.6-78-24l-.1-.1c-2.6-1.4-6.2-1.8-8.4.3l-.1.1-52.8 52.9c-10.2 10.1-26.6 10.1-36.7 0l-40.5-40.5c-10.1-10.2-10.1-26.6 0-36.7l52.8-52.8.2-.1c2.4-2.6 1.5-6.4.6-7.8-8.1-13.2-18.8-42.6-24.4-78.7-.5-3.2-3.1-6.8-6-6.9H25.5C11.4 404.6 0 393.2 0 379.2v-55.4c0-14.1 11.4-25.5 25.5-25.5h72.4c2.9-.1 5.5-3.7 6-6.9 4-26 13.2-60.4 24.4-78.7.8-1.4 1.8-5.2-.6-7.8l-.1-.1L74.8 152c-10.1-10.2-10.1-26.6 0-36.7l40.5-40.5c10.2-10.1 26.6-10.1 36.7 0l52.8 52.8.1.1c2.2 2.1 5.8 1.6 8.4.3l.1-.1c22.7-11.4 48.9-19.5 78-24 3.4-.5 6.9-3 6.9-6.1V25.5c0-14.1 11.4-25.4 25.5-25.5h55.4c14.1 0 25.5 11.4 25.5 25.5V98c.1 3.1 3.5 5.4 6.9 6h.1c29.2 4.5 53.9 12.1 77.8 24 1.7.8 5.8 2.4 8.6-.2l.1-.1L551 74.9c10.2-10.1 26.6-10.1 36.7 0l40.5 40.5c10.1 10.2 10.1 26.6 0 36.7l-52.8 52.8-.1.1c-2 2.2-1.6 5.8-.3 8.4l.1.1c11.5 22.7 19.5 48.9 24 78 .5 3.4 3 6.9 6.1 6.9h72.3c14.1 0 25.5 11.4 25.5 25.5v55.4c0 14.1-11.4 25.5-25.5 25.5h-72.3c-3.2 0-5.6 3.5-6.1 6.9-4.5 29.1-12.6 55.3-24 78l-.1.1c-1.4 2.6-1.8 6.2.3 8.4l.1.1 52.8 52.8c10.1 10.2 10.1 26.6 0 36.7l-40.5 40.5c-10.2 10.1-26.6 10.1-36.7 0l-52.8-52.8-.1-.2c-2.8-2.6-6.9-1-8.6-.2-23.9 11.8-48.6 19.5-77.8 24h-.1c-3.3.5-6.8 2.9-6.9 6v72.5c-.1 14-11.5 25.3-25.5 25.3zM222.5 557.2c20.8 10.5 45 17.9 72 22.1 13.8 2.1 23.9 13 23.9 25.9v72.3c0 3 2.5 5.4 5.5 5.5h55.4c3 0 5.4-2.5 5.5-5.5v-72-.3c0-12.8 10-23.7 23.7-25.9h.1c27.1-4.2 50-11.2 72.1-22.1 8.9-4.4 22-5.7 31.7 4.1l.2.2 52.6 52.5c2.3 2.3 6.1 2.3 8.5 0l40.5-40.5c2.3-2.4 2.3-6.1 0-8.5l-52.6-52.6-.2-.2c-8.1-8.1-9.7-20.9-4-31.8 10.5-20.8 17.9-45 22.1-72 2.1-13.8 13-23.9 25.9-23.9h72.3c3 0 5.4-2.5 5.5-5.5v-55.4c0-3-2.5-5.4-5.5-5.5h-72.3c-12.9 0-23.8-10-25.9-23.9-4.2-27-11.6-51.2-22.1-72-5.7-11-4.1-23.7 4-31.8l.2-.2 52.6-52.5c2.3-2.4 2.3-6.1 0-8.5l-40.5-40.5c-2.3-2.3-6.1-2.3-8.5 0l-52.6 52.6-.2.2c-9.7 9.8-22.8 8.5-31.7 4.1-22-10.9-45-17.9-72.1-22.1h-.1c-13.8-2.2-23.7-13-23.7-25.9V25.3c0-3-2.5-5.4-5.5-5.5h-55.4c-3 0-5.4 2.5-5.5 5.5v72.3c0 12.9-10 23.8-23.9 25.9-27 4.2-51.2 11.6-72 22.1-11 5.7-23.8 4.1-31.8-4l-.2-.2L138 88.8c-2.3-2.3-6.1-2.3-8.5 0L89 129.3c-2.3 2.4-2.3 6.1 0 8.5l52.6 52.6.2.2c9.6 9.6 9.1 23.6 3.6 32.5-8.4 13.6-17.3 42.9-21.7 71.3-1.8 11.5-11.5 23.8-25.9 23.8H25.5c-3 0-5.4 2.5-5.5 5.5v55.4c0 3 2.5 5.4 5.5 5.5h72.3c10.8 0 23.5 8.4 25.9 23.8 4.4 28.4 13.3 57.8 21.7 71.3 5.5 8.9 6 22.9-3.6 32.5l-.2.2L89 565c-2.3 2.4-2.3 6.1 0 8.5l40.5 40.5c2.3 2.3 6.1 2.3 8.5 0l52.6-52.6.2-.2c7.9-8.1 20.7-9.7 31.7-4z" style="fill: #019df4;"/></g></svg>
