<?xml version="1.0" encoding="UTF-8"?>
<svg xmlns="http://www.w3.org/2000/svg" viewBox="0 0 702.8 702.8"><g fill="#019df4"><path d="M351.4 488.9c-88.7 0-137.5-48.8-137.5-137.5s48.8-137.5 137.5-137.5 137.5 48.8 137.5 137.5S440 488.9 351.4 488.9zm0-235c-66.5 0-97.5 31-97.5 97.5s31 97.5 97.5 97.5 97.5-31 97.5-97.5-31-97.5-97.5-97.5z" style="fill: #019df4;"/><path d="M378.2 702.4h-53.7c-19.3 0-35-15.7-35-35v-66.2c-27.9-4.5-53.2-12.3-75.3-23.3l-48.9 48.9c-13.9 13.8-36.3 13.8-50.2 0l-39.2-39.3c-13.8-13.9-13.8-36.3 0-50.2l48.8-48.8c-11.3-20-19.4-52.3-23.2-75.4H35.3c-19.3 0-35-15.7-35-35v-53.7c0-19.3 15.7-35 35-35h66.2c3.8-23.2 11.9-55.4 23.2-75.4l-48.8-48.8c-13.8-13.9-13.8-36.3 0-50.2l39.2-39.2c13.9-13.8 36.3-13.8 50.2 0l48.9 48.9c22.1-11 47.4-18.8 75.3-23.3V35.3c0-19.3 15.7-35 35-35h53.7c19.3 0 35 15.7 35 35v66.2c28 4.5 52 11.9 75.3 23.3l48.9-48.9c13.9-13.8 36.3-13.8 50.2 0l39.2 39.2c13.8 13.9 13.8 36.3 0 50.2L578 214.2c11 22.1 18.8 47.4 23.3 75.3h66.2c19.3 0 35 15.7 35 35v53.7c0 19.3-15.7 35-35 35h-66.2c-4.5 27.9-12.3 53.2-23.3 75.3l48.9 48.9c13.8 13.9 13.8 36.3 0 50.2l-39.2 39.2c-13.9 13.8-36.3 13.8-50.2 0l-49-48.9c-23.3 11.4-47.3 18.8-75.3 23.3v66.2c0 19.4-15.6 35-35 35zm-48.7-40h43.7v-64.7-.4c0-17.6 13.4-32.5 31.9-35.3h.1c25.2-3.9 46.4-10.4 66.8-20.5 14.9-7.4 31.6-5.1 42.6 5.9l.3.3 47.7 47.7 32.9-32.9-47.7-47.7-.3-.3c-11-11-13.3-28.2-5.8-42.8 9.7-19.2 16.5-41.6 20.4-66.7 2.8-18.5 17.7-31.9 35.3-31.9h65.1v-43.7h-65.1c-17.6 0-32.5-13.4-35.3-31.9-3.9-25.1-10.7-47.5-20.4-66.6-7.5-14.6-5.2-31.8 5.8-42.8l.3-.3 47.7-47.7-32.9-32.9-47.7 47.8-.3.3c-11 11-27.7 13.3-42.6 5.9-20.4-10.1-41.6-16.6-66.8-20.5h-.1c-18.5-2.8-31.9-17.7-31.9-35.3V40.3h-43.7v65.1c0 17.6-13.4 32.5-31.9 35.3-25.1 3.9-47.5 10.7-66.6 20.4-14.6 7.6-31.8 5.2-42.8-5.8l-.3-.3-47.7-47.7-32.9 32.9 47.7 47.7.3.3c13.1 13.1 12.4 32.2 5 44.2-7.3 11.9-15.6 39.4-19.6 65.3-2.8 18.1-18 31.8-35.3 31.8H40.3v43.7h65.1c17.3 0 32.5 13.7 35.3 31.8 4 25.9 12.3 53.4 19.6 65.3 7.4 12.1 8.1 31.1-5 44.2l-.3.3-47.7 47.7 32.9 32.9 47.7-47.7.3-.3c11-11 28.2-13.3 42.8-5.8 19.2 9.7 41.6 16.5 66.7 20.4 18.5 2.8 31.9 17.7 31.9 35.3l-.1 65.1z" style="fill: #019df4;"/></g></svg>
