<?xml version="1.0" encoding="UTF-8"?>
<svg xmlns="http://www.w3.org/2000/svg" viewBox="0 0 702.8 702.8"><path fill="#019df4" d="M667.4 289.5h-66.1c-4.5-27.9-12.3-53.2-23.3-75.3l48.9-48.9c13.8-13.9 13.8-36.3 0-50.2l-39.3-39.2c-13.9-13.8-36.3-13.8-50.2 0l-48.9 48.9c-23.3-11.4-47.3-18.8-75.3-23.3V35.3c0-19.3-15.7-35-35-35h-53.7c-19.3 0-35 15.7-35 35v66.2c-27.9 4.5-53.2 12.3-75.3 23.3l-48.9-48.9c-13.9-13.8-36.3-13.8-50.2 0l-39.2 39.2c-13.8 13.9-13.8 36.3 0 50.2l48.8 48.8c-11.3 20-19.4 52.3-23.2 75.4H35.3c-19.3 0-35 15.7-35 35v53.7c0 19.3 15.7 35 35 35h66.2c3.8 23.2 11.9 55.4 23.2 75.4l-48.8 48.8c-13.8 13.9-13.8 36.3 0 50.2l39.2 39.2c13.9 13.8 36.3 13.8 50.2 0l48.9-48.9c22.1 11 47.4 18.8 75.3 23.3v66.2c0 19.3 15.7 35 35 35h53.7c19.3 0 35-15.7 35-35v-66.2c28-4.5 52-11.9 75.3-23.3l48.9 48.9c13.9 13.8 36.3 13.8 50.2 0l39.2-39.2c13.8-13.9 13.8-36.3 0-50.2L578 488.6c11-22.1 18.8-47.4 23.3-75.3h66.2c19.3 0 35-15.7 35-35v-53.7c-.1-19.4-15.7-35.1-35.1-35.1zm-316-35.6c66.5 0 97.5 31 97.5 97.5s-31 97.5-97.5 97.5-97.5-31-97.5-97.5 31-97.5 97.5-97.5z" style="fill: #019df4;"/></svg>
