<?xml version="1.0" encoding="UTF-8"?>
<svg xmlns="http://www.w3.org/2000/svg" viewBox="0 0 800 800"><path fill="#019df4" d="M734.2 750.8H65.1c-6.1 0-11.1-2.6-14-7.2-2.8-4.6-2.9-10.3-.2-15.7L386.6 57.6c2.8-5.7 7.6-9 13-9s10.2 3.3 13.1 9l335.6 670.3c2.7 5.4 2.6 11.1-.2 15.7-2.7 4.6-7.8 7.2-13.9 7.2zm-2.9-14.2zm-663.2 0zm2.4-5h658.2l-329-657.3L70.5 731.6z" style="fill: #019df4;"/><path fill="#019df4" d="M400.4 575.8c-5.5 0-10-4.5-10-10V273c0-5.5 4.5-10 10-10s10 4.5 10 10v292.8c0 5.5-4.4 10-10 10zM399.7 654.6c-6.9 0-10.8-4-10.8-10.8s4-10.8 10.8-10.8 10.8 4 10.8 10.8-3.9 10.8-10.8 10.8z" style="fill: #019df4;"/></svg>
