<?xml version="1.0" encoding="UTF-8"?>
<svg xmlns="http://www.w3.org/2000/svg" viewBox="0 0 800 800"><path fill="#019df4" d="M748 714.8L418.6 62.7c-4.6-9.1-12.9-14.5-22.2-14.5s-17.6 5.5-22.1 14.6l-322.4 652c-4.2 8.4-3.8 17.8.8 25.2s13.1 12 22.6 12h649.5c9.5 0 17.9-4.4 22.6-11.9s4.8-16.9.6-25.3zM383.4 80.2zM400 653.8c-12.5 0-19.8-7.2-19.8-19.8s7.2-19.8 19.8-19.8 19.8 7.2 19.8 19.8-7.3 19.8-19.8 19.8zm20.1-95.4c0 10.9-8.8 19.7-19.7 19.7-10.9 0-19.7-8.8-19.7-19.7V283c0-10.9 8.8-19.7 19.7-19.7 10.9 0 19.7 8.8 19.7 19.7v275.4z" style="fill: #019df4;"/></svg>
