<?xml version="1.0" encoding="UTF-8"?>
<svg xmlns="http://www.w3.org/2000/svg" viewBox="0 0 800 800"><path fill="#019df4" d="M724.3 752.1H74.4c-9.4 0-17.8-4.4-22.4-11.9-4.6-7.4-4.9-16.9-.8-25.4l322.6-652c4.6-9.2 12.8-14.6 22-14.6s17.4 5.4 22 14.5l329.5 652s0 .1.1.1c4.2 8.5 4 18-.7 25.4-4.6 7.4-13 11.9-22.4 11.9zM95.9 712.9h606.6L396 106.3 95.9 712.9zM382.8 80.3z" style="fill: #019df4;"/><path fill="#019df4" d="M399.8 578c-10.8 0-19.6-8.8-19.6-19.6V283c0-10.8 8.8-19.6 19.6-19.6s19.6 8.8 19.6 19.6v275.4c0 10.8-8.8 19.6-19.6 19.6zM399.8 653.8c-12.5 0-19.8-7.2-19.8-19.8s7.2-19.8 19.8-19.8 19.8 7.2 19.8 19.8-7.3 19.8-19.8 19.8z" style="fill: #019df4;"/></svg>
