<?xml version="1.0" encoding="UTF-8"?>
<svg xmlns="http://www.w3.org/2000/svg" viewBox="0 0 702.8 702.8"><path fill="#019df4" fill-rule="evenodd" d="M351.3 673.5c-99.7 0-176.3-23.9-229.8-70.9l481.1-481.1c47 53.6 70.9 130.1 70.9 230 0 213.7-108.4 322-322.2 322m0-644.2c100.3 0 177.1 24.1 230.6 71.5L100.8 581.9c-47.4-53.5-71.5-130.3-71.5-230.5 0-213.7 108.3-322.1 322-322.1m0-29.3C129.3 0 0 112.1 0 351.5s129.3 351.3 351.3 351.3 351.5-111.9 351.5-351.3S573.3 0 351.3 0" clip-rule="evenodd" style="fill: #019df4;"/></svg>
