<?xml version="1.0" encoding="UTF-8"?>
<svg xmlns="http://www.w3.org/2000/svg" viewBox="0 0 702.8 702.8"><path fill="#019df4" fill-rule="evenodd" d="M351.3 644.2c-85.3 0-151-17.2-198.5-52.2L591 153.9c35.5 47.7 53.2 113.3 53.2 197.6 0 199.7-93.1 292.7-292.9 292.7m0-585.6c84.8 0 150.7 17.8 198.4 53.7L111.3 550.7c-35.4-47.5-52.7-113.5-52.7-199.2 0-199.8 93-292.9 292.7-292.9m0-58.6C129.3 0 0 112.1 0 351.5s129.3 351.3 351.3 351.3 351.5-111.9 351.5-351.3S573.3 0 351.3 0" clip-rule="evenodd" style="fill: #019df4;"/></svg>
