<?xml version="1.0" encoding="UTF-8"?>
<svg xmlns="http://www.w3.org/2000/svg" viewBox="0 0 702.8 702.8"><path fill="#019df4" fill-rule="evenodd" d="M351.3 658.9c-92.7 0-163.9-20.4-214.4-61.3L597.5 137c41 50.5 61.4 121.8 61.4 214.6 0 206.7-100.7 307.3-307.6 307.3m0-615c93.2 0 164.6 20.6 215.2 61.9L105.8 566.6c-41.3-50.6-61.9-122-61.9-215.1 0-207 100.6-307.6 307.4-307.6m0-43.9C129.3 0 0 112.1 0 351.5s129.3 351.3 351.3 351.3 351.5-111.9 351.5-351.3S573.3 0 351.3 0" clip-rule="evenodd" style="fill: #019df4;"/></svg>
