<?xml version="1.0" encoding="UTF-8"?>
<svg xmlns="http://www.w3.org/2000/svg" viewBox="0 0 702.8 702.8"><path fill="#019df4" fill-rule="evenodd" d="M552.7 0h115.1c19.3 0 35 15.7 35 35v115.1c0 19.3-15.7 35-35 35H552.7c-19.3 0-35-15.7-35-35V35c0-19.3 15.7-35 35-35zM293.9 0H409c19.3 0 35 15.7 35 35v115.1c0 19.3-15.7 35-35 35H293.9c-19.3 0-35-15.7-35-35V35c0-19.3 15.6-35 35-35zM35 0h115.1c19.3 0 35 15.7 35 35v115.1c0 19.3-15.7 35-35 35H35c-19.3 0-35-15.7-35-35V35C0 15.7 15.7 0 35 0zm517.7 258.9h115.1c19.3 0 35 15.7 35 35V409c0 19.3-15.7 35-35 35H552.7c-19.3 0-35-15.7-35-35V293.9c0-19.4 15.7-35 35-35zm-258.8 0H409c19.3 0 35 15.7 35 35V409c0 19.3-15.7 35-35 35H293.9c-19.3 0-35-15.7-35-35V293.9c0-19.4 15.6-35 35-35zm-258.9 0h115.1c19.3 0 35 15.7 35 35V409c0 19.3-15.7 35-35 35H35c-19.3 0-35-15.7-35-35V293.9c0-19.4 15.7-35 35-35zm258.9 258.8H409c19.3 0 35 15.7 35 35v115.1c0 19.3-15.7 35-35 35H293.9c-19.3 0-35-15.7-35-35V552.7c0-19.3 15.6-35 35-35zm258 0H667c19.3 0 35 15.7 35 35v115.1c0 19.3-15.7 35-35 35H551.9c-19.3 0-35-15.7-35-35V552.7c0-19.3 15.6-35 35-35zm-516.9 0h115.1c19.3 0 35 15.7 35 35v115.1c0 19.3-15.7 35-35 35H35c-19.3 0-35-15.7-35-35V552.7c0-19.3 15.7-35 35-35z" clip-rule="evenodd" style="fill: #019df4;"/></svg>
