<?xml version="1.0" encoding="UTF-8"?>
<svg xmlns="http://www.w3.org/2000/svg" viewBox="0 0 207.8 207.8"><path fill="#019df4" fill-rule="evenodd" d="M153.3 140.3l-44.8.3c-.4 0-.7.2-1 .3v-30.6c.2-.2.5-.3.7-.6l23.2-31.6c1.4-1.9 1-4.7-.9-6.1-1.9-1.4-4.7-1-6.1.9l-16.8 22.9V78c.1-2.4-1.8-4.4-4.2-4.5-2.4-.1-4.4 1.8-4.5 4.2V122l-20.3-20.6c-1.7-1.7-4.4-1.7-6.1 0-1.7 1.7-1.7 4.5 0 6.2L98.4 134c.1.1.3.1.4.3v6.4H44.5c-10.8 0-36-3.5-36-36.1 0-18.3 7.9-29.8 23.3-34.2 1.9-.5 3.1-3.4 3.1-5.4 0-52.1 45.2-56.2 59-56.2 7.8 0 47.4 1.8 56.8 37.2.5 1.9 2.2 3.2 4.1 3.3 13.3.4 44.4 5.6 44.4 45.3.1 42.4-35.1 45.7-45.9 45.7m5-99.7C145.9 2 102.7 0 94 0 82.8 0 27.4 3 26.3 62.9 15.1 67-.2 77.5-.2 104.6c0 33.1 23.1 44.8 44.7 44.8h54.3v54.4c.2 2.4 2.3 4.2 4.7 4 2.1-.2 3.8-1.9 4-4v-54.6c.4.1.7.3 1.1.3l44.7-.3c25.2 0 54.7-14.3 54.7-54.6 0-45.3-34.7-52.9-49.7-54" clip-rule="evenodd" style="fill: #019df4;"/></svg>
