<?xml version="1.0" encoding="UTF-8"?>
<svg xmlns="http://www.w3.org/2000/svg" viewBox="0 0 702.8 702.8"><path fill="#019df4" fill-rule="evenodd" d="M537.2 285.3c-6.3 4.5-7.8 13.3-3.4 19.6 1.2 1.7 2.7 3.1 4.5 4.1 20.1 12.1 29.8 32.1 29.8 61.1 0 37.5-17 61.1-50.6 70-6.7 1.8-11 10.1-11 16.6 0 109.1-101.3 117.6-132.4 117.6h-.4V406.7c.7-.7 1.7-1.1 2.3-1.9L458.3 300c4.8-6.1 3.8-14.9-2.3-19.7-.3-.2-.6-.5-.9-.7-6.9-4.7-16.3-3.4-21.6 3l-59.7 76.1v-88.3c0-8-6.9-14.5-15.4-14.5s-15.4 6.5-15.4 14.5v204L270.8 406c-6.1-5.7-15.6-5.7-21.8-.1-5.7 5.2-6.1 14-.9 19.7.3.3.5.6.8.8l92.7 87.9c.4.4.9.5 1.3.8v56c-33.5-5.7-81.5-22.6-96.3-74.5-2-6.4-7.8-10.7-14.5-10.7-29.6-.7-98.3-11.2-98.3-93.8 0-33.4 11-58.3 32.7-74.2 4-2.9 6.1-7.5 5.9-12.2-.3-4.8-3-9.2-7.1-11.6-20-12-29.8-32-29.8-61.1 0-37.8 16.5-60.7 50.7-70 6.6-1.8 10.9-10 10.9-16.5 0-109.1 101.3-117.6 132.4-117.6 24.7 0 107 5.6 127.5 77.5 1.8 6.1 7.6 10.5 14.4 10.7 36.8 1.2 98.5 14.9 98.5 94 0 33.9-10.7 58.1-32.7 74.2m63.6-74c0-82.6-58.7-117-117.3-122.4C452 4.4 350.3 0 329.6 0 303 0 173.1 6.7 166.8 138.8c-40.1 15.1-62 48.2-62 94.5 0 36.8 13.6 59.9 28.8 74.1-20.4 21.1-30.6 49.6-30.6 84.9 0 83 58.6 117.2 117.2 122.3C243.3 576.4 304 595.3 343 601v87.3c0 8.1 6.9 14.5 15.4 14.5s15.4-6.5 15.4-14.5v-84.9h.4c26.6 0 156.5-6.7 162.8-138.8 27-10.1 62.1-34.7 62.1-94.5 0-31.6-9.7-56.5-28.8-74.2 20.3-21 30.5-49.4 30.5-84.6" clip-rule="evenodd" style="fill: #019df4;"/></svg>
