<?xml version="1.0" encoding="UTF-8"?>
<svg xmlns="http://www.w3.org/2000/svg" viewBox="0 0 702.8 702.8"><path fill="#019df4" fill-rule="evenodd" d="M600.8 214.2c0-83.5-57.2-119.5-115.8-126.5C458.6 23.4 389.2 0 330.2 0c-73 0-157.7 36-165.1 138.3-39.1 16.6-60.5 50.6-60.5 97.4 0 34.5 11.4 57.6 25.3 72.8-18 21.3-27.1 49.2-27.1 83 0 84 57.2 119.8 115.8 126.4 20.9 50.8 68.7 75.8 116.9 84.1v79.4c0 11.8 10.1 21.4 22.5 21.4s22.5-9.6 22.5-21.4v-76.2s-16.4-.7-24.6-1.3c-8.4-.6-20.3-1.9-20.3-1.9v-86.6l-89-85.2c-8.7-8.4-8.7-21.9.1-30.3 8.8-8.3 23-8.2 31.8.1l57.2 54.7V272.2c0-11.8 10.1-21.4 22.5-21.4s22.5 9.6 22.5 21.4v64.9l44.4-57.1c7.4-9.5 21.4-11.5 31.4-4.5s12.1 20.4 4.7 29.9l-79.7 102.7c-.2.3-.6.4-.8.7v196.6c71.3-2.3 150.8-39.1 157.9-138 27.5-11.6 60.5-37.9 60.5-97.4 0-34.5-11.4-57.6-25.3-72.8 17.9-21.6 27-49.3 27-83" clip-rule="evenodd" style="fill: #019df4;"/></svg>
