<?xml version="1.0" encoding="UTF-8"?>
<svg xmlns="http://www.w3.org/2000/svg" viewBox="0 0 702.8 702.8"><path fill="#019df4" fill-rule="evenodd" d="M528.7 315.9c17.1 10.4 25.5 28 25.5 53.9 0 33.7-14.3 53.9-43.6 61.7-9.7 2.6-16.2 13.5-16.2 23 0 91.7-74.6 106.5-113.7 108.1v-154c.2-.3.6-.4.8-.7l79.7-102.7c7-9 5.4-22-3.6-29.1-.4-.3-.7-.6-1.1-.8-10-7-23.8-5-31.4 4.5L380.8 337v-64.9c0-11.8-10-21.4-22.5-21.4-12.4 0-22.5 9.6-22.5 21.4v182.5L278.6 400c-9-8.3-22.8-8.4-31.8-.1-8.4 7.8-8.9 20.9-1.1 29.3.3.3.6.7 1 1l89.1 85.2v43c-30.1-6.6-66.5-23.4-78.6-66.4-2.8-9.3-11.4-15.7-21.1-15.8-32.9-.8-88.1-12.9-88.1-84.8 0-30.7 9.5-52.7 28.9-67.1 5.7-4.1 9-10.8 8.7-17.9-.4-7.1-4.3-13.4-10.4-17-17.1-10.3-25.4-27.9-25.4-53.8 0-33.9 13.9-53.5 43.8-61.8 9.6-2.6 15.9-13.5 15.9-23 0-97.6 84.5-108.1 120.9-108.1 22.6 0 98 5.1 116.5 70.7 2.8 9.3 11.3 15.7 20.9 15.8 33 1 88.2 13.4 88.2 85 0 30.7-9.4 52.5-28.8 66.9-5.7 4.1-9 10.8-8.7 17.9.3 6.9 4.2 13.3 10.2 16.9m72.1-101.7c0-83.5-57.2-119.5-115.8-126.5C458.7 23.4 389.3 0 330.3 0c-72.9 0-157.7 36-165 138.3-39.2 16.5-60.5 50.5-60.5 97.4 0 34.6 11.5 57.7 25.4 72.9-14.7 17.7-27.2 44.1-27.2 82.9 0 84 57.2 119.8 115.8 126.4 20.9 50.8 68.7 75.8 116.9 84.1v79.4c0 11.8 10.1 21.4 22.5 21.4s22.5-9.6 22.5-21.4v-76.2c71.3-2.3 150.8-39.1 157.9-138 27.5-11.6 60.5-37.9 60.5-97.5 0-34.5-11.4-57.5-25.4-72.8 18-21.3 27.1-49 27.1-82.7" clip-rule="evenodd" style="fill: #019df4;"/></svg>
