<?xml version="1.0" encoding="UTF-8"?>
<svg xmlns="http://www.w3.org/2000/svg" viewBox="0 0 702.8 702.8"><path fill="#019df4" fill-rule="evenodd" d="M514.8 464.1l-144.2.9v-90.1c.2-.3.6-.4.8-.7l76.5-104.3c7.1-9.7 5-23.2-4.6-30.4-9.5-7.1-23-5.1-30.1 4.4l-.1.1-42.6 58.1v-36.9c0-12-9.6-21.7-21.6-21.7-11.9.1-21.6 9.8-21.6 21.7v127.6l-54.9-55.6c-8.3-8.5-21.9-8.6-30.4-.3l-.2.2c-8.5 8.5-8.5 22.2-.1 30.7l85.6 86.6V465H155c-33.6 0-111.9-10.9-111.9-112 0-56.8 24.2-92.6 71.9-106.2 9.5-2.7 15.9-11.5 15.7-21.3l-.2-3.5c0-165.7 143.8-178.5 187.9-178.5 25 0 151.2 5.7 181.1 117.7 2.4 9.2 10.7 15.8 20.2 16.1 42.1 1.2 139.9 17.4 139.9 142.5.1 133.9-110.8 144.3-144.8 144.3m21.8-329.3C492.1 6.7 347.9 0 318.5 0c-37.9 0-224 10.3-230.9 210.4C49.4 225.8 0 263.1 0 353c0 114.6 80.1 155.5 155 155.5h172.4v172.6c0 12 9.7 21.7 21.6 21.7 11.9 0 21.6-9.8 21.6-21.7V508.4l144.2-.9c86.7 0 188-49.2 188-187.8 0-125.4-83.1-177.2-166.2-184.9" clip-rule="evenodd" style="fill: #019df4;"/></svg>
