<?xml version="1.0" encoding="UTF-8"?>
<svg xmlns="http://www.w3.org/2000/svg" viewBox="0 0 702.8 702.8"><path fill="#019df4" fill-rule="evenodd" d="M536.6 134.7C492.1 6.6 347.9 0 318.5 0c-37.9 0-224 10.3-230.9 210.4C49.4 225.7 0 263 0 353c0 114.6 80.1 155.4 155 155.4h172.5v-53.9l-85.6-86.6c-8.4-8.5-8.3-22.3.1-30.7 8.4-8.4 22.1-8.4 30.5.1l55 55.6V265.3c0-12 9.6-21.7 21.6-21.7 11.9 0 21.6 9.7 21.6 21.7v36.9l42.6-58.1c7.1-9.6 20.6-11.7 30.2-4.6 9.6 7.1 11.6 20.7 4.5 30.4l-76.5 104.3c-.2.3-.6.4-.8.7V508l-43.1.4V681c0 12 9.6 21.7 21.6 21.7 11.9 0 21.6-9.7 21.6-21.7V508.3l144.2-.9c86.8 0 188-49.2 188-187.8-.2-125.3-83.3-177.1-166.4-184.9" clip-rule="evenodd" style="fill: #019df4;"/></svg>
