<?xml version="1.0" encoding="UTF-8"?>
<svg xmlns="http://www.w3.org/2000/svg" viewBox="0 0 702.8 702.8"><path fill="#019df4" fill-rule="evenodd" d="M430.6 344.6c-12.4 0-22.4 10.1-22.4 22.5v31c-.1 29.4-23.9 53.2-53.4 53.2h-6.9c-29.4 0-53.2-23.8-53.3-53.2v-31c0-12.4-10-22.4-22.4-22.5h-219l48.6-288.9c.2-1.2.3-2.5.3-3.7 0-3.8 3.1-6.9 6.9-6.9l484.8.5c4.7 0 9.3 5.2 10.4 11.7l45.6 287.4H430.6zm271.8 47.9c0-.7.1-1.2.1-1.9l-54.1-341C643.1 20.7 620.7.5 593.8.5L109.1 0C81.3 0 58.5 22.1 57.3 49.8L.5 388.1c-.2.9.1 1.8.1 2.7-.2 1.8-.5 3.6-.5 5.4v254.6c0 28.7 23.3 52 51.8 52H651c28.6 0 51.8-23.3 51.8-52V396.3c0-1.2-.3-2.6-.4-3.8z" clip-rule="evenodd" style="fill: #019df4;"/></svg>
