<?xml version="1.0" encoding="UTF-8"?>
<svg xmlns="http://www.w3.org/2000/svg" viewBox="0 0 702.8 702.8"><path fill="#019df4" fill-rule="evenodd" d="M651 657.9H51.9c-3.7 0-7-3.3-7-7V396.4c0-3.6 3.3-6.8 7-6.8h198v8.5c0 54.1 44 98.2 98.1 98.2h6.9c54.1 0 98.2-44 98.2-98.2v-8.5h198c4 0 6.3 2.9 6.8 4.9l.2 256.5c-.1 3.7-3.2 6.9-7.1 6.9zM101.8 55.6c.2-1.3.3-2.5.3-3.7 0-3.8 3.1-6.9 6.9-6.9l484.8.5c4.7 0 9.2 5.2 10.5 11.7l45.6 287.3H430.7c-12.4 0-22.4 10.1-22.4 22.5v30.9c0 29.4-23.9 53.2-53.4 53.2H348c-29.4 0-53.3-23.9-53.3-53.2V367c0-12.4-10-22.5-22.4-22.5h-219l48.5-288.9zm600.6 336.9c-.1-.7.2-1.2.1-1.9L648.4 49.7C643.1 20.8 620.7.6 593.8.6L109 .1C81.2.1 58.4 22.2 57.3 49.9L.4 388.2c-.1.9.1 1.8.1 2.7-.2 1.8-.6 3.6-.6 5.5v254.5c0 28.7 23.2 52 51.8 52H651c28.6 0 51.8-23.3 51.8-52V396.4c0-1.4-.3-2.7-.4-3.9z" clip-rule="evenodd" style="fill: #019df4;"/></svg>
