<?xml version="1.0" encoding="UTF-8"?>
<svg xmlns="http://www.w3.org/2000/svg" viewBox="0 0 702.8 702.8"><path fill="#019df4" fill-rule="evenodd" d="M673.5 657.9c0 8.6-6.9 15.6-15.5 15.6H44.8c-8.4 0-15.5-7.1-15.5-15.6V397.3c0-8.3 7.1-15.3 15.5-15.3h211v17c0 50.8 41.3 92.1 92.1 92.1h7c50.8 0 92.2-41.3 92.2-92.1v-17h211c7.3 0 13.5 5 15 11.6l.2 1.2c.1.8.3 1.6.3 2.5v260.6zM87.9 44.8c0-8.5 6.9-15.5 15.4-15.5l496.2.6c9 0 16.9 8 18.8 19l48.4 305.3c-2.9-.6-5.7-1.5-8.8-1.5H432.4c-8.1 0-14.6 6.5-14.6 14.7v31.7c0 34.6-28.2 62.8-62.9 62.8h-7c-34.7 0-62.9-28.2-62.9-62.8v-31.7c0-8.1-6.6-14.7-14.6-14.7H44.8c-3 0-5.8.3-8.6.9L87.9 44.8zm614.6 349.8c0-.6.2-1.1.1-1.7l-.6-4.1v-.3-.1L647.4 44C642.7 18.4 623.1.6 599.7.6L103.5 0C78.9 0 58.8 20.1 59 42.4L.5 390.4c-.2.9.1 1.8.1 2.7-.1 1.4-.4 2.8-.4 4.2v260.6c0 24.8 20.1 44.9 44.8 44.9h613.3c24.6 0 44.7-20.1 44.7-44.9V397.3c-.2-.8-.4-1.8-.5-2.7z" clip-rule="evenodd" style="fill: #019df4;"/></svg>
