<?xml version="1.0" encoding="UTF-8"?>
<svg xmlns="http://www.w3.org/2000/svg" fill="none" viewBox="0 0 500 500"><path fill="#019DF4" fill-rule="evenodd" d="M251.401 104.167c18.148 0 31.629 13.655 31.629 30.345v243.873c0 16.631-13.364 30.17-29.82 30.17-68.453 0-104.634-28.303-123.833-55.03l-70.845.058c-9.162 0-16.632-7.47-16.632-16.748l-.233-160.598c0-4.493 1.75-8.753 4.902-11.905 3.092-3.151 7.294-4.902 11.73-4.902l71.369-.058c19.258-26.844 55.323-55.205 121.733-55.205zm4.277 282.064V128.083c-47.39.742-86.601 15.167-106.893 45.544-.216.575-.64.983-1.066 1.393-.309.297-.618.595-.852.958-.99 1.856-2.227 3.465-3.836 4.826a3.31 3.31 0 0 0-.247.186c-.078.061-.155.123-.248.185-3.031 2.413-6.681 3.691-10.827 3.691H66.357l.186 145.042h64.981c6.805 0 12.559 2.114 15.529 7.806.135.245.342.429.553.617.27.241.545.486.684.868 20.107 30.624 59.936 46.413 107.388 47.032zM391.25 126.143c7.678 7.087 17.784 18.933 28.003 36.196 15.502 26.185 25.341 56.05 26.986 89.318l.234 7.737c.448 11.721-.77 29.221-5.695 49.947-8.031 33.796-23.638 63.697-48.728 86.362-2.12 1.924-4.75 2.917-7.596 2.917-3.185 0-6.299-1.381-8.568-3.888-4.169-4.771-3.769-12.135.961-16.383 21.695-19.589 35.073-45.856 41.926-75.63 1.721-7.474 2.938-14.956 3.73-21.644l.751-7.595c.465-5.927.537-10.74.295-13.642-.324-31.734-9.193-60.396-23.74-85.213-8.813-15.034-18.562-26.591-23.889-31.252-4.648-4.253-5.048-11.62-.822-16.37 3.801-4.156 10.005-4.923 14.54-2.09l1.612 1.23zm-57.837 46.621c5.013 4.642 11.432 12.112 18.077 23.152 10.209 16.958 16.776 36.274 18.073 57.776l.229 6.516c1.657 25.795-7.407 63.758-35.805 89.392-2.105 1.91-4.786 2.918-7.598 2.918-3.233 0-6.311-1.354-8.541-3.858-4.228-4.751-3.816-12.106.952-16.429 22.237-20.074 30.392-55.49 28.034-71.997-.273-32.614-14.68-57.65-28.702-70.196-4.61-4.254-4.935-11.617-.649-16.389a11.27 11.27 0 0 1 14.342-2.076l1.588 1.191z" clip-rule="evenodd" style="fill: #019df4;"/></svg>
