<?xml version="1.0" encoding="UTF-8"?>
<svg xmlns="http://www.w3.org/2000/svg" fill="none" viewBox="0 0 500 500"><path fill="#019DF4" fill-rule="evenodd" d="M270.833 395.833V104.167l-10.124.152-7.59.224c-52.462 2.322-90.939 20.539-114.75 54.753l-1.074 1.163-1.186 1.524c-.988 1.71-1.614 2.473-2.483 3.148l-1.668 1.13c-1.62.951-3.107 1.379-4.567 1.379l-85.724.076.237 164.946 85.287-.076 2.083.242c2.714.637 5.122 2.499 6.592 5.203l.955 1.449.94 1.092.253.172c-.458-.526-.885-1.212-1.283-2.261 25.694 38.031 67.356 56.515 124.004 57.224l10.098.126zm-25.27-270.582L250 125v250l-4.544-.286c-42.309-3.246-72.559-18.546-91.024-45.54l-.078-.353a3.28 3.28 0 0 0-.274-.391l-1.361-1.349-.933-1.566c-5.34-7.703-14.338-12.7-24.352-12.7l-64.786.07-.148-125.486 65.15-.075 3.311-.194c5.441-.641 10.479-2.847 14.934-6.25l.328-.232 2.209-1.946a26.701 26.701 0 0 0 3.487-4.117l.677-1.097.971-.949c1.039-1.094 1.749-2.153 2.41-3.847 17.804-25.176 47.547-40.152 89.586-43.441zm139.543 1.842c-3.278-3.022-8.613-2.739-11.702.638-3.087 3.469-2.793 8.883.546 11.94 5.572 4.876 15.538 16.69 24.526 32.023 14.809 25.264 23.839 54.447 24.159 86.535.607 7.281-.642 25.584-4.845 43.841-6.986 30.35-20.651 57.179-42.884 77.254-3.451 3.1-3.745 8.511-.731 11.961 1.676 1.853 3.948 2.86 6.25 2.86 2.078 0 3.958-.71 5.502-2.111 24.57-22.195 39.887-51.54 47.782-84.766 4.366-18.375 5.775-34.167 5.691-45.558l-.081-3.632c-.392-35.805-10.354-67.745-26.783-95.497-9.044-15.277-17.979-26.218-25.122-33.281l-2.308-2.207zm-69.322 47.294a8.141 8.141 0 0 1 11.551-.616l1.072 1.03 2.836 2.983 1.738 1.977c4.029 4.688 8.048 10.172 11.808 16.417 10.957 18.201 17.611 39.176 17.854 62.712l.165 4.061c.458 24.916-8.861 59.44-34.94 82.98a8.11 8.11 0 0 1-5.504 2.112c-2.349 0-4.575-.979-6.206-2.811-3.086-3.467-2.783-8.862.716-12.035 20.721-18.706 28.584-45.584 29.117-70.845l.005-2.518-.285-7.174c-1.805-30.419-15.762-53.991-29.52-66.301-3.315-3.06-3.554-8.469-.407-11.972z" clip-rule="evenodd" style="fill: #019df4;"/></svg>
