<?xml version="1.0" encoding="UTF-8"?>
<svg xmlns="http://www.w3.org/2000/svg" viewBox="0 0 702.8 702.8"><path fill="#019df4" fill-rule="evenodd" d="M659 508.4c-9.3 9.4-21.1 14.8-32.5 14.8h-6.4c.5-5.1 1.2-10.1 1.2-15.6 0-67.2-39.5-107.3-105.7-107.3s-105.7 40.1-105.7 107.3c0 5.5.7 10.5 1.2 15.6H273.7c.5-5.1 1.2-10.1 1.2-15.6 0-67.2-39.5-107.3-105.7-107.3S63.5 440.4 63.5 507.6c0 4.6.6 8.7 1 13-7.8-2.4-14.7-6.3-20.6-12.2-9.3-9.4-14.6-21.4-14.6-32.9v-151h433.9c1.5 0 158.2-6 210.4 104.4v46.6c0 11.5-5.4 23.5-14.6 32.9zm-143.5 76.9c-50 0-76.5-26.8-76.5-77.7 0-50.8 26.5-77.7 76.5-77.7s76.5 26.9 76.5 77.7c0 50.8-26.4 77.7-76.5 77.7zm-346.4 0c-50 0-76.5-26.8-76.5-77.7 0-50.8 26.5-77.7 76.5-77.7s76.5 26.9 76.5 77.7c0 50.8-26.4 77.7-76.5 77.7zm-125.3-453c9.3-9.4 21.1-14.8 32.4-14.8h128.9v177.4H29.2V165.3c0-11.6 5.4-23.6 14.6-33zm190.6 162.6H409V117.5H234.4v177.4zm249.5-177.4c7.7 0 189.7 2.9 189.7 233.9V375c-73.1-85.7-205.3-80.4-211.1-80.1h-24.3V117.5h45.7zm149.8 34.9C570 88 486.3 88.1 483.9 87.8H76.3c-19 0-38.4 8.5-53.1 23.5C8.5 126.2 0 145.9 0 165.3v310.2c0 19.3 8.4 39 23.2 53.9 12.6 12.8 28.9 20.3 47.2 22.5C84.5 592 119.2 615 169.1 615c49.6 0 84.2-22.5 98.5-62.1h149.5c14.3 39.5 48.8 62.1 98.5 62.1 49.6 0 84.2-22.5 98.4-62.1h12.5c19.1 0 38.4-8.6 53.1-23.5 14.7-14.9 23.2-34.6 23.2-53.9V351.4c0-85.7-23.3-152.6-69.1-199z" clip-rule="evenodd" style="fill: #019df4;"/></svg>
