<?xml version="1.0" encoding="UTF-8"?>
<svg xmlns="http://www.w3.org/2000/svg" viewBox="0 0 702.8 702.8"><path fill="#019df4" fill-rule="evenodd" d="M647.7 499c-7.2 7.3-16.6 11.7-25.3 12.1.1-2.7.6-5.1.6-7.8 0-68.8-42.4-111.6-110.7-111.6-68.3 0-110.8 42.8-110.8 111.6 0 2.8.5 5.3.7 8H283c.1-2.7.6-5.2.6-8 0-68.8-42.4-111.6-110.7-111.6-68.3 0-110.7 42.8-110.7 111.6v.3c-2.3-1.5-5-2.5-7-4.6-7.8-7.8-12.2-17.6-12.2-26.9V332.5h418.2c1.4 0 148.9-5.3 198.6 96.2v43.4c0 9.3-4.4 19.1-12.1 26.9zm-135.5 72.7c-45 0-67.8-23-67.8-68.3s22.8-68.3 67.8-68.3 67.8 23 67.8 68.3-22.8 68.3-67.8 68.3zm-339.4 0c-45 0-67.8-23-67.8-68.3s22.8-68.3 67.8-68.3 67.8 23 67.8 68.3-22.8 68.3-67.8 68.3zM55.2 143.4c7.7-7.8 17.5-12.3 26.7-12.3H201v158.1H43V170.3c0-9.1 4.5-19.2 12.2-26.9zm188.7 145.8h156.7V131.1H243.9v158.1zm415.9 62.2v5.2c-75.4-72.2-194.5-67.7-199.7-67.4h-16.6V131.1h37.6c7.3.1 178.7 3.1 178.7 220.3zM633 152.8c-64.5-64.7-148.9-65-151.8-64.9H81.9c-20.6 0-41.4 9.1-57.1 24.9C9 128.6 0 149.6 0 170.4v301.7c0 20.7 9 41.7 24.8 57.6 12.7 12.8 28.7 20.6 46.7 23.5 15.9 38.9 51.7 61.8 101.4 61.8 49.1 0 84.5-22.4 100.7-60.4h138c16.2 38 51.6 60.4 100.7 60.4s84.5-22.4 100.7-60.4h8c20.6 0 41.4-9.1 57.2-25 15.7-15.8 24.7-36.8 24.7-57.6V351.3c-.1-85.2-23.6-152-69.9-198.5z" clip-rule="evenodd" style="fill: #019df4;"/></svg>
