<?xml version="1.0" encoding="UTF-8"?>
<svg xmlns="http://www.w3.org/2000/svg" viewBox="0 0 702.8 702.8"><path fill="#019df4" fill-rule="evenodd" d="M659.8 356.6c-75.4-72.3-194.5-67.7-199.7-67.4h-16.6V131.1h37.6c7.3 0 178.7 3.1 178.7 220.3v5.2zM512.2 571.7c-45 0-67.8-23-67.8-68.3s22.8-68.3 67.8-68.3 67.8 23 67.8 68.3-22.8 68.3-67.8 68.3zM243.9 289.2h156.7V131.1H243.9v158.1zm-71.1 282.5c-45 0-67.8-23-67.8-68.3s22.8-68.3 67.8-68.3 67.8 23 67.8 68.3-22.8 68.3-67.8 68.3zM43 289.2V170.3c0-9.2 4.6-19.2 12.2-26.9 7.7-7.8 17.5-12.3 26.7-12.3H201v158.1H43zm590-136.4c-64.5-64.7-149-65-151.9-64.9H81.8c-20.5 0-41.4 9.1-57.1 24.9C8.9 128.6-.1 149.6-.1 170.4v301.8c0 20.7 9 41.7 24.8 57.5 12.7 12.8 28.7 20.7 46.7 23.6 15.9 38.9 51.7 61.7 101.3 61.7 49.1 0 84.5-22.4 100.7-60.4h137.9c16.2 38 51.6 60.4 100.7 60.4s84.5-22.4 100.7-60.4h8c20.5 0 41.4-9.1 57.1-25 15.7-15.8 24.7-36.8 24.7-57.5V351.4c.3-85.3-23.2-152.1-69.5-198.6z" clip-rule="evenodd" style="fill: #019df4;"/></svg>
