<?xml version="1.0" encoding="UTF-8"?>
<svg xmlns="http://www.w3.org/2000/svg" viewBox="0 0 702.8 702.8"><path fill="#019df4" fill-rule="evenodd" d="M351.5 673.4c-213.7 0-322.1-108.3-322.1-321.9 0-213.8 108.3-322.1 322.1-322.1 213.6 0 321.9 108.3 321.9 322.1 0 213.6-108.3 321.9-321.9 321.9zm0-673.4C121.6 0 0 121.5 0 351.5c0 229.8 121.5 351.3 351.5 351.3 229.8 0 351.3-121.5 351.3-351.3C702.8 121.5 581.3 0 351.5 0zm50.3 422.3v-164l137.1 82.4-137.1 81.6zm-22-202.8c-4.6 2.6-7.5 7.5-7.4 12.8v215.9c0 8.1 6.5 14.7 14.6 14.7h.1c2.6 0 5.2-.7 7.5-2l180.5-107.5c7-4.1 9.2-13.2 5.1-20.1-1.2-2.1-3-3.8-5.1-5.1L394.7 219.7c-4.6-2.7-10.2-2.8-14.9-.2zm-193.9 203v-164L323 340.9l-137.1 81.6zM164 219.7c-4.6 2.6-7.5 7.5-7.5 12.8v215.9c0 8.1 6.5 14.7 14.6 14.7h.1c2.6 0 5.2-.7 7.5-2l180.5-107.5c7-4.1 9.2-13.2 5.1-20.1-1.2-2.1-3-3.8-5.1-5.1L178.8 219.9c-4.6-2.8-10.2-2.8-14.8-.2z" clip-rule="evenodd" style="fill: #019df4;"/></svg>
