<?xml version="1.0" encoding="UTF-8"?>
<svg xmlns="http://www.w3.org/2000/svg" viewBox="0 0 702.8 702.8"><path fill="#019df4" fill-rule="evenodd" d="M351.5 0C121.5 0 0 121.5 0 351.5c0 229.8 121.5 351.3 351.5 351.3 229.8 0 351.3-121.5 351.3-351.3C702.8 121.5 581.3 0 351.5 0zm-155 408.4l113.1-67.3-113.1-68v135.3zm324.6-67.5l-113.1-68v135.3l113.1-67.3zM164.2 216.1c6.8-3.9 15.1-3.7 21.8.3l176.8 106.2c.9.5 1.2 1.4 2 2v-89.9c0-7.8 4.2-15 11-18.8 6.7-3.8 15.1-3.7 21.7.3l176.8 106.3c6.5 3.9 10.5 10.9 10.5 18.5s-4 14.6-10.5 18.5L397.5 464.7c-3.4 2-7.2 3-11.1 3-3.7 0-7.4-.9-10.7-2.8-6.8-3.9-10.9-11-10.9-18.8v-88.6c-.8.6-1.2 1.6-2.1 2.1L185.9 465c-3.4 2-7.2 3-11.1 3-3.7 0-7.4-.9-10.7-2.8-6.7-3.9-10.9-11-10.9-18.8V234.9c.1-7.8 4.3-14.9 11-18.8z" clip-rule="evenodd" style="fill: #019df4;"/></svg>
