<?xml version="1.0" encoding="UTF-8"?>
<svg xmlns="http://www.w3.org/2000/svg" viewBox="0 0 702.8 702.8"><path fill="#019df4" fill-rule="evenodd" d="M351.5 659.6c-204.6 0-308.3-103.7-308.3-308.1 0-204.6 103.7-308.3 308.3-308.3 204.5 0 308.1 103.7 308.1 308.3 0 204.4-103.7 308.1-308.1 308.1zm0-659.6C121.6 0 0 121.5 0 351.5c0 229.8 121.5 351.3 351.5 351.3 229.8 0 351.3-121.5 351.3-351.3C702.8 121.5 581.3 0 351.5 0zm-155 408.4V273.1l113.2 68c-.1 0-113.2 67.3-113.2 67.3zm324.6-67.5l-113.2 67.3V272.9l113.2 68zM164.2 216.1c-6.8 3.8-11 11-11 18.8v211.4c0 11.9 9.7 21.6 21.6 21.6 3.9 0 7.7-1 11.1-3l176.8-105.2c.9-.5 1.3-1.5 2.1-2.1v88.6c0 11.9 9.7 21.6 21.6 21.6 3.9 0 7.7-1 11-3l176.8-105.2c10.3-6.1 13.6-19.4 7.5-29.6-1.8-3.1-4.4-5.6-7.4-7.4L397.5 216.2c-10.2-6.1-23.5-2.8-29.6 7.4-2 3.4-3.1 7.2-3.1 11.1v89.9c-.8-.6-1.1-1.5-2-2L186 216.4c-6.7-4-15-4.1-21.8-.3z" clip-rule="evenodd" style="fill: #019df4;"/></svg>
