<?xml version="1.0" encoding="UTF-8"?>
<svg xmlns="http://www.w3.org/2000/svg" viewBox="0 0 702.8 702.8"><path fill="#019df4" fill-rule="evenodd" d="M526.5 335.7c8.1 0 14.6 6.6 14.6 14.6s-6.6 14.6-14.6 14.6H365.9v161c0 8.1-6.6 14.6-14.6 14.6s-14.6-6.6-14.6-14.6V365H176.3c-8.1 0-14.6-6.6-14.6-14.6s6.6-14.6 14.6-14.6h160.3v-159c0-8.1 6.6-14.6 14.6-14.6s14.6 6.6 14.6 14.6v158.9h160.7zM366.9 673.3c71.9-1.3 306.6-28.4 306.6-321 0-126.7-43.4-218.2-128.8-271.7-69.8-43.8-148.6-50.3-179.3-51-7.8-.2-16.8-.3-25.5-.3h-6.7c-30.5.3-108.8 5.5-177.5 48.8-84 52.7-126.4 144.3-126.4 272.2 0 128 42.8 220 127.5 273.3 69.4 43.7 148.2 49.4 178.9 49.9 3.5.1 7 .1 10.5.1 7.2-.1 14.4-.1 20.7-.3zM366 .3c68.8 1.6 336.8 28.8 336.8 352 0 323.9-268.2 349-335.3 350.3-6.4.1-13.9.2-21.3.2-3.6 0-7.3 0-10.9-.1C264.7 701.7 0 676.2 0 350.3 0 24.8 262.3.6 332.8 0h7c9 0 18.2.1 26.2.3z" clip-rule="evenodd" style="fill: #019df4;"/></svg>
