<?xml version="1.0" encoding="UTF-8"?>
<svg xmlns="http://www.w3.org/2000/svg" viewBox="0 0 702.8 702.8"><path fill="#019df4" fill-rule="evenodd" d="M526.5 328.4c12.1 0 22 9.8 22 22s-9.8 22-22 22H373.2V526c0 12.1-9.8 22-22 22-12.1 0-22-9.8-22-22V372.3h-153c-12.1 0-22-9.8-22-22s9.8-22 22-22h153V176.8c0-12.1 9.8-22 22-22s22 9.8 22 22v151.6h153.3zM366.6 658.7c87.9-1.6 292.2-34.7 292.2-306.4S453.3 46.3 365 44.2c-8.4-.2-16.8-.3-25.2-.3h-6.6C246.2 44.7 44 76 44 350.3 44 625 248.2 657.6 336 658.8c10.2.1 20.4.1 30.6-.1zM366 .3c69 1.7 336.8 28.9 336.8 352 0 323.9-268.3 349-335.3 350.3-6.3.1-13.5.2-20.8.2-3.8 0-7.6 0-11.4-.1C264.7 701.7 0 676.2 0 350.3 0 24.8 262.2.6 332.8 0h7c9 0 18.3.1 26.2.3z" clip-rule="evenodd" style="fill: #019df4;"/></svg>
