<?xml version="1.0" encoding="UTF-8"?>
<svg xmlns="http://www.w3.org/2000/svg" viewBox="0 0 702.8 702.8"><path fill="#019df4" fill-rule="evenodd" d="M526.5 372.3H373.2V526c0 12.1-9.8 22-22 22s-22-9.8-22-22V372.3h-153c-12.1 0-22-9.8-22-22 0-12.1 9.8-22 22-22h153V176.8c0-12.1 9.8-22 22-22s22 9.8 22 22v151.6h153.3c12.1 0 22 9.8 22 22-.1 12.1-9.9 21.9-22 21.9M366.1.4c-8.2-.2-17.8-.4-27-.4h-6.3C262.2.6 0 24.8 0 350.3c0 325.9 264.7 351.4 335.3 352.4 3.7.1 7.6.1 11.4.1 7.3 0 14.5-.1 20.7-.2 67.1-1.2 335.3-26.4 335.3-350.2C702.8 29.2 434.9 2 366.1.4" clip-rule="evenodd" style="fill: #019df4;"/></svg>
