<?xml version="1.0" encoding="UTF-8"?>
<svg xmlns="http://www.w3.org/2000/svg" viewBox="0 0 702.8 702.8"><path fill="#019df4" fill-rule="evenodd" d="M422.2 327c11.8-.2 58.7-4.7 58.7-62.3 0-57.5-46.9-62.3-59-62.6-1.5-.1-3.2-.1-4.8-.1h-1c-12.3.1-58.3 4.4-58.3 62.3 0 58 46.3 62.5 58.7 62.7h1.7c1.4.1 2.8 0 4 0zm.4-154.8c43.9 1.1 88.2 30.1 88.2 92.6 0 62.6-44.3 91.5-88.1 92.3l-4.5.1H416c-43.9-.7-88.2-29.6-88.2-92.7s44.1-91.8 88-92.2h1.3l5.5-.1zM244.2 359.1c6.5-.1 32.7-2.6 32.7-34.6s-26.1-34.7-32.8-34.9h-3.3c-6.9.1-32.4 2.5-32.4 34.6 0 32.3 25.8 34.8 32.7 34.9h3.1zm.6-99.5c29.9.7 62 21.3 62 64.8 0 43.6-32.2 64-62.1 64.6h-4.1c-29.9-.5-62.1-20.9-62.1-64.9 0-44 32.2-64.3 61.9-64.6h1.3l3.1.1zm193.8 237.5c8.3-1.9 40.7-12 32.3-52.6-6.5-31.2-28-36.3-41.5-36.3-4 0-7.4.5-9.3.8-1.3.2-2.8.5-4.1.8-8.7 1.9-40.5 11.7-32 52.6 6.5 31.2 27.5 36.5 41 36.5 4.2 0 7.6-.5 9.7-1 1.2-.2 2.7-.6 3.9-.8zm-9.2-118.9c36.5 0 62.9 22.5 70.8 60.2 10.3 49.7-20.1 79.9-55 87.9l-4.8 1c-3.4.6-8.9 1.5-15.4 1.5-36.1 0-62.4-22.6-70.3-60.4-10.4-50.2 20-80.3 54.9-87.9 1.7-.3 3.5-.7 5.1-1 3.2-.6 8.4-1.3 14.7-1.3zm89.9 138.3c33.2-33.2 57.5-84.4 57.5-164.4 0-198.5-150-223.3-214.3-225.2h-23.1c-2.4 0-4.8 0-7.5.3-2.4 0-5.1 0-7.8.3-11.3.6-23.6 2.1-36.8 4.8-8.4 1.5-16.5 3.6-24.8 6.6-2.7.9-5.7 1.4-8.4 2.7-2.7.9-5.4 1.8-8.1 3-.3 0-.6.3-1.2.6-4.8 1.8-9.6 3.9-14.4 6.6-1.8.9-3.3 1.8-5.1 2.7-13.8 7.5-27 16.8-38.9 28.7 0 .3 0 .6-.6.6-.6.6-.9 1.2-1.5 1.8 0 0-.3.6-.6.6-4.2 4.2-8.1 8.4-11.3 13.1-3.6 4.5-6.9 9-10.2 14.1-.3.9-.9 1.5-1.5 2.4-3 4.8-5.7 9.9-8.4 15.3-.3.6-.6 1.2-.6 1.8-3 5.4-5.4 11.1-7.5 17.4-1.5 3.9-3 7.8-4.2 12-.9 3-1.8 6.3-2.7 9.9-2.1 7.5-3.6 15.6-5.1 23.7-.6 3-.9 6-1.2 9-.9 5.7-1.5 11.4-1.8 17.4-.6 4.5-.6 9-.9 13.8-.3 4.8-.3 9.6-.3 14.6 0 200.6 149.1 224.6 213.1 225.5h7.8c5.1 0 10.1 0 14.7-.3 37.4-.6 104.1-9.6 152.9-56.6.6-.3.6-.9 1.2-1.5.4-.7 1-.7 1.6-1.3zm168.5-179.9c8.4 0 15 6.6 15 15 0 8.1-6.6 15-15 15h-81.7c-2.7 74.6-25.7 126.1-57.2 161.4l50.9 50.9c6 5.7 6 15.3 0 21.3-3 2.7-6.6 4.2-10.4 4.2-3.9 0-7.8-1.5-10.8-4.2L527.7 549c-58.3 48.8-132 56-161.3 56.9V688c0 8.4-6.6 15-15 15-8.1 0-15-6.6-15-15v-82.1c-32.1-.9-103.9-9-160.5-57.5l-51.8 51.8c-3 2.7-6.9 4.2-10.8 4.2-3.6 0-7.5-1.5-10.4-4.2-5.7-6-5.7-15.6 0-21.3l51.7-51.8C124.1 491.8 102 440.3 99 366.6H15c-8.1 0-15-6.9-15-15 0-8.4 6.9-15 15-15h84.1c2.7-74.6 24.5-126.1 55.1-161.4L103 124c-5.7-5.7-5.7-15.3 0-21 6-6 15.3-6 21.3 0l50.9 51c57.5-49.1 130.5-56.3 161.3-56.9v-82c0-8.4 6.9-15 15-15 8.4 0 15 6.6 15 15v82.3c30.5 1.2 103 9.3 160.7 57.2l51.5-51.5c6-6 15.6-6 21.3 0 6 5.7 6 15.3 0 21l-51.5 51.5c31.4 35.3 54.4 86.8 57.5 161.1h81.8z" clip-rule="evenodd" style="fill: #019df4;"/></svg>
