<?xml version="1.0" encoding="UTF-8"?>
<svg xmlns="http://www.w3.org/2000/svg" viewBox="0 0 702.8 702.8"><path fill="#019df4" fill-rule="evenodd" d="M409 330.6h-6.7c-14.4 0-69.2-5.6-69.2-73.9 0-68 54.2-73 68.9-73.3h6.7c14.1.3 69.5 6.2 69.5 73.9s-55.4 73-69.2 73.3m15 165.3c-1.5.3-3.2.6-5 .9-2.6.6-7.3 1.2-12.6 1.2-17.3 0-44.3-6.7-52.5-46.9-11.1-52.5 29.9-65.1 41.1-67.4 1.7-.3 3.5-.9 5.2-1.1 2.3-.3 6.7-.9 12-.9 17.3 0 44.9 6.4 53.4 46.6 10.8 52.1-31.1 64.9-41.6 67.6M235.4 361.1h-3.8c-8.5-.3-40.2-3.2-40.2-43.1 0-39.6 31.4-42.5 39.9-42.5H235.1c8.5.3 40.5 3.5 40.5 42.8 0 39.5-32.2 42.5-40.2 42.8m445.4-31.7H601c-3.8-65.1-24-111.7-51.9-144.8l50.7-50.7c8.8-8.5 8.8-22.5 0-31.1-8.5-8.5-22.3-8.5-31.1 0l-51.3 51.3c-50.7-39.9-112-48.9-144-51V22c0-12-10-22-22-22-12.3 0-22 10-22 22v80.6c-32.3 1.5-94.4 10-145.4 50.4l-50.1-50.1c-8.5-8.5-22.5-8.5-31 0-8.8 8.5-8.8 22.6 0 31.1l50.4 50.4c-26.7 33.4-46 80-49.2 145.1H22c-12.3 0-22 9.7-22 22 0 12 9.7 22 22 22h82.1c3.8 65.1 23.2 111.4 49.8 144.5l-51 50.7c-8.8 8.8-8.8 22.6 0 31.4 4.1 4.1 9.9 6.4 15.5 6.4s11.1-2.3 15.5-6.4l51.3-51.3c50.4 40.4 111.4 49.5 144.2 51.3V681c0 12 9.7 22 22 22 12 0 22-10 22-22v-80.9c31.4-1.5 93.5-10.3 144.8-50.4l50.4 50.4c4.4 4.1 10 6.4 15.5 6.4 5.9 0 11.4-2.3 15.5-6.4 8.8-8.8 8.8-22.6 0-31.4l-49.8-49.8c27.5-33.1 47.5-79.7 51-145.4h79.8c12.3 0 22-10 22-22 .2-12.4-9.5-22.1-21.8-22.1" clip-rule="evenodd" style="fill: #019df4;"/></svg>
