<?xml version="1.0" encoding="UTF-8"?>
<svg xmlns="http://www.w3.org/2000/svg" viewBox="0 0 702.8 702.8"><path fill="#019df4" fill-rule="evenodd" d="M407.4 323.2c9.5-.2 47.8-3.8 47.8-50.7 0-46.7-38.2-50.7-48-50.9-1.2 0-2.6-.1-3.9-.1h-.8c-10.1.1-47.4 3.6-47.4 50.7s37.7 50.9 47.8 51h4.5zm.7-136.7c41 1 82.3 28 82.3 86.1 0 58.2-41.3 85-82.5 85.8l-3.6.1h-1.9c-41-.6-82.4-27.4-82.4-86.1 0-58.7 41.3-85.4 82.2-85.8h1.2l4.7-.1zM253.5 360.1c5.3-.1 26.6-2.1 26.6-28.2 0-26-21.2-28.2-26.7-28.3h-2.6c-5.6.1-26.3 2-26.3 28.2 0 26.3 21 28.3 26.6 28.4H253.5zm.8-91.8c29.3.8 60.9 21 60.9 63.5 0 42.8-31.7 62.8-61.1 63.4h-3.7c-29.5-.4-61.2-20.5-61.2-63.5 0-41.3 30.8-63.1 61-63.3h1.3l2.8-.1zm163.2 219.1c6.5-2.3 31.7-13.7 20.8-45.7-7.2-21-21.3-25.5-32.1-25.5-5.5 0-10.1 1.2-12.5 1.9-1 .3-2.2.7-3.3 1-6.8 2.4-31.5 13.4-20.6 45.6 7.2 21.1 21.2 25.7 31.9 25.7 5.5 0 10.2-1.2 12.6-2 1.1-.3 2.2-.7 3.2-1zM406.2 381c30.4 0 54.9 18.5 65.4 49.4 15.6 45.8-11 78.8-42.4 90.1l-4 1.4c-5.2 1.7-13.5 3.7-23.4 3.7-30.2 0-54.6-18.6-65.2-49.6-15.7-46.1 10.9-79 42.7-90.2l4-1.3c5.1-1.6 13.2-3.5 22.9-3.5zm-43.1 175.5c58.3-1.2 194.3-23.2 194.3-204.3 0-181.4-136.9-204.3-195.8-205.7-5.3 0-11.4-.3-17.6-.3h-4.4c-57.8.6-192.3 21.7-192.3 204.5 0 61 19.1 203.4 194.3 205.8h21.5zm317.7-227.1c12 0 22 10 22 22s-10 22-22 22h-80c-3.5 65.3-23.4 112.3-51 145.4l50.1 50.1c8.5 8.5 8.5 22.6 0 31-4.4 4.1-10 6.5-15.5 6.5-5.6 0-11.4-2.3-15.5-6.5l-50.4-50.4c-51.6 40.1-113.7 49-145.1 50.4v80.9c0 12-10 22-22 22s-22-10-22-22v-80.6c-33.1-2.1-94.1-11.1-144.5-51.3l-51 51c-4.1 4.1-10 6.5-15.6 6.5-5.5 0-11.1-2.3-15.5-6.5-8.5-8.5-8.5-22.5 0-31l51-51c-26.7-33.2-46-79.8-49.8-144.5H22c-12 0-22-10-22-22s10-22 22-22h82.1c3.5-65.1 22.6-111.9 49.2-145.1l-50.4-50.4c-8.5-8.5-8.5-22.3 0-31 8.5-8.6 22.6-8.6 31.1 0l50.1 50.1c51-40.1 112.8-48.9 145.4-50.4V22c0-12 9.9-22 22-22 12 0 22 10 22 22v81.2c31.9 1.8 93.2 11.1 144.2 51l51.3-51.3c8.5-8.6 22.6-8.6 31.1 0 8.5 8.8 8.5 22.5 0 31l-50.7 50.7c27.5 33.1 47.7 79.7 51.3 144.8h80.1z" clip-rule="evenodd" style="fill: #019df4;"/></svg>
