<?xml version="1.0" encoding="UTF-8"?>
<svg xmlns="http://www.w3.org/2000/svg" viewBox="0 0 702.8 702.8"><path fill="#019df4" fill-rule="evenodd" d="M645 470.2c-7.6 7.6-18.9 12.1-33.7 13.1-3.9.2-31.7.3-34.4.3-2 0-29.5-.1-32.6-.2-15.6-.7-27.6-5.2-35.7-13.2-5.1-5.1-8.8-12-11.1-20.5H656c-2.2 8.5-5.9 15.4-11 20.5zm-81.1-268.9l83.3 202.3H502.9l61-202.3zm-97.4 427.5c16.4 0 28.6 4 36.5 11.9 4 4.1 7 9.4 9.1 16H190.8c2-6.6 5.1-11.9 9-16 7.8-7.9 20.1-11.9 36.5-11.9h230.2zM332 156.6h6.1c.3 0 .6.2.9.2.3 0 7.7-.1 14-.1v.1h11c.3 0 .6-.2.9-.2h6v426.1H332V156.6zm-132.1 247H55.6l83.3-202.3 61 202.3zm-5.7 66.6c-8 8-20.1 12.4-35.6 13.2-3.1.1-30.6.2-32.6.2-2.7 0-30.5-.1-34.4-.3-14.8-1-26.1-5.4-33.8-13.1-5.1-5.1-8.8-12-11-20.5h158.5c-2.3 8.5-6 15.4-11.1 20.5zm508.6-43.6c0-1-.5-1.9-.6-3-.2-2.1-.4-4.1-1.2-6L595.6 161.7c4.8 2.1 9.2 4.5 12.6 7.8 4.3 4.3 9.7 6.4 15.2 6.4 5.8 0 11.6-2.4 16-7.1 8.4-9.1 8.1-23.7-.7-32.6-15.6-15.6-36.8-24.2-63.1-25.5-2.1-.1-119-.2-186.8-.2 2.7-1.8 5.2-3.6 7.4-5.8 10.1-10.2 15.3-25.3 15.3-44.8 0-19.7-5.1-34.8-15.3-45C386.5 5 372.4 0 354.4 0c-.1 0-.3 0-.4.1V0h-5.2c-18 0-32.1 5-41.8 14.9-10.1 10.2-15.3 25.3-15.3 45 0 19.5 5.1 34.6 15.3 44.8 2.1 2.2 4.7 4.1 7.4 5.8-67.9 0-184.8 0-186.8.2-26.3 1.3-47.5 9.9-63.1 25.5-8.9 8.8-9.1 23.4-.7 32.6 4.3 4.8 10.1 7.1 15.9 7.1 5.5 0 11-2.1 15.2-6.4 3.3-3.3 7.8-5.8 12.5-7.8L2 417.6c-.8 1.9-.9 4-1.2 6-.1 1-.6 2-.6 3v.1c0 32.8 9.2 58.6 27.1 76.7 15.3 15.4 35.9 24.1 61.3 25.9 2.9.2 34.5.4 37.5.4 2.1 0 32.2-.1 34.4-.2 26.8-1.3 48.5-10 64.4-26 17.7-17.7 26.6-42.8 27.1-74.3 0-.2 0-.4.1-.6 0-.7.1-1.2.1-1.9 0-1.3-.5-2.4-.7-3.6-.2-1.1 0-2.2-.3-3.4l-79.4-263c32.6 0 77.9 0 116.2-.1v426.1h-51.5c-28.3 0-50.8 8.4-67.2 24.9-17 17.1-25.6 41.4-25.6 72.1 0 12.7 9.9 23 22.1 23 .7 0 1.3-.3 2-.4.6.1 1.2.4 1.9.4h363.8c.7 0 1.3-.3 2-.4.6.1 1.2.4 1.9.4 12.2 0 22.1-10.3 22.1-23 0-30.8-8.6-55-25.6-72.1-16.4-16.5-38.9-24.9-67.1-24.9h-51.6V156.6c38.3 0 83.7 0 116.3.1l-79.3 263c-.4 1.2-.2 2.3-.4 3.4-.2 1.2-.7 2.3-.7 3.6 0 .6.1 1.2.1 1.9 0 .2 0 .4.1.6.5 31.5 9.5 56.6 27.1 74.3 16 16 37.7 24.7 64.5 26 2.1.1 32.2.2 34.3.2 3 0 34.5-.2 37.4-.4 25.3-1.8 46-10.5 61.3-25.9 17.7-18.2 26.9-44 26.9-76.8z" clip-rule="evenodd" style="fill: #019df4;"/></svg>
