<?xml version="1.0" encoding="UTF-8"?>
<svg xmlns="http://www.w3.org/2000/svg" viewBox="0 0 702.8 702.8"><path fill="#019df4" fill-rule="evenodd" d="M656.9 478.4c-9.2 9.3-22.6 14.6-39.7 15.8-3.3.2-32.9.2-35.8.2-2.1 0-31 0-33.8-.1-18.1-.9-32.2-6.2-41.8-15.9-8.4-8.3-13.6-20.3-15.7-35.4l182.3.1c-2 15.1-7.2 27-15.5 35.3zm-90-305.8l98.9 239.8-171.3-.1 72.4-239.7zm-99 454.3c19.1 0 33.5 4.8 43 14.5 7.2 7.4 11.8 17.6 13.8 30.8H178c2-13.1 6.6-23.4 13.8-30.8 9.5-9.6 24-14.5 43-14.5h233.1zM325.1 142.2h52.5v454.1h-52.5V142.2zm5.9-64.9c-4.5-4.6-5.5-13.7-5.5-20.6 0-6.8 1-16.1 5.5-20.7 4.3-4.3 12.3-5.3 18.5-5.4h2.8c6.4 0 14.9.9 19.4 5.4 4.5 4.6 5.5 13.9 5.5 20.7 0 6.9-1 16-5.5 20.6-4.5 4.5-13 5.5-19.4 5.5h-3.2c-6.2-.2-13.9-1.3-18.1-5.5zM208.3 412.4l-171.3.1 98.9-239.8 72.4 239.7zm-11.3 66c-9.6 9.7-23.8 15-41.9 15.9-2.8.1-31.7.1-33.7.1-2.9 0-32.6 0-35.8-.2-17.1-1.2-30.5-6.5-39.7-15.8-8.4-8.3-13.5-20.2-15.6-35.3l182.3-.1c-2 15.1-7.2 27.1-15.6 35.4zm505.8-50.7c0-.7-.3-1.3-.4-2-.2-1.4-.3-2.8-.8-4L587.1 144c13 2 24.2 6.1 31.9 13.7 2.8 2.9 6.5 4.3 10.2 4.3 3.9 0 7.7-1.6 10.6-4.7 5.6-6.2 5.5-15.8-.5-21.7-14.6-14.6-34.7-22.7-59.7-23.9-1.9-.1-147.8-.2-211.2-.2 9.6-2.1 17.6-6 23.7-12.2 9.7-9.7 14.5-24 14.5-42.6s-4.9-33-14.5-42.6C382.9 4.7 369.5 0 352.3 0h-3c-16.6.2-29.6 4.9-38.7 14.1-9.6 9.7-14.5 24-14.5 42.6 0 18.7 4.9 32.9 14.5 42.6 6.1 6.1 14.1 10.1 23.8 12.2-63.4 0-209.2.1-211.2.2-25 1.2-45.1 9.2-59.7 23.9-5.9 5.9-6 15.5-.5 21.7 2.9 3.1 6.8 4.7 10.6 4.7 3.7 0 7.3-1.4 10.2-4.3 7.6-7.6 18.8-11.7 31.9-13.7L1.3 421.7c-.6 1.2-.6 2.6-.8 4-.1.7-.4 1.3-.4 2v.1c0 31.2 8.6 55.7 25.5 72.8 14.3 14.3 33.8 22.5 58.2 24.2 2.8.2 34.6.3 37.7.3 2.1 0 32.8 0 34.9-.1 25.6-1.2 46.2-9.5 61-24.4 16.7-16.8 25.2-40.7 25.5-71.3v-.4c0-.5.1-.8.1-1.2 0-.9-.3-1.6-.4-2.4-.1-.8 0-1.5-.2-2.2l-84.8-280.8c35.7 0 92.9-.1 138.3-.1v454.1h-61c-26.9 0-48.2 7.8-63.4 23.1-15.8 15.9-23.9 38.8-23.9 68 0 8.5 6.6 15.3 14.7 15.3h378.4c8.1 0 14.7-6.8 14.7-15.3 0-29.2-8-52.1-23.8-68-15.2-15.3-36.6-23.1-63.5-23.1h-61V142.2c45.4 0 102.6.1 138.3.1l-84.7 280.8c-.2.7-.1 1.4-.2 2.2-.1.8-.5 1.5-.5 2.4 0 .4.1.8.1 1.2v.4c.3 30.5 8.8 54.5 25.5 71.3 14.9 14.9 35.4 23.2 61 24.4 2.2.1 32.8.1 35 .1 3 0 34.8-.1 37.7-.3 24.3-1.7 43.9-9.9 58.1-24.2 16.8-17.1 25.4-41.6 25.4-72.9z" clip-rule="evenodd" style="fill: #019df4;"/></svg>
