<?xml version="1.0" encoding="UTF-8"?>
<svg xmlns="http://www.w3.org/2000/svg" viewBox="0 0 702.8 702.8"><path fill="#019df4" fill-rule="evenodd" d="M557.3 598.8c-41-58.3-66.5-144.1-69.1-234.6h185.1c-3.8 91.1-45.9 176.4-116 234.6zM366 673.2V364.3h92.8c2.6 96.6 30.2 188.9 75.3 252.1-49.5 34.4-107.8 54.1-168.1 56.8zm0-643.6c60.6 2.6 116.8 22.2 164 53.9-43.6 65-69.1 155.2-71.1 251.5H366V29.6zM673.2 335h-185c2-89.9 25.8-173.9 65.3-234 71.4 57.4 114.9 142.5 119.7 234zm-336.4 0h-94.9c-1.7-95.7-26.9-185.9-70.3-251 47.7-31.9 104.2-51.8 165.2-54.4V335zm0 338.2c-63-2.9-120.9-23.7-169.6-57.7 44.2-63.3 71.5-155.2 74.6-251.3h94.9v309zM29.5 364.3h183c-2.9 89.6-28.1 175.1-68.5 233.4-69.2-58.3-110.8-143-114.5-233.4zm118.4-262.4c39.8 60.3 63 143.8 64.7 233.1h-183c4.9-94 50.1-177.2 118.3-233.1zM351.4 0C157.5 0 0 157.5 0 351.4c0 193.8 157.5 351.4 351.4 351.4s351.4-157.6 351.4-351.4C702.8 157.5 545.3 0 351.4 0z" clip-rule="evenodd" style="fill: #019df4;"/></svg>
