<?xml version="1.0" encoding="UTF-8"?>
<svg xmlns="http://www.w3.org/2000/svg" viewBox="0 0 702.8 702.8"><path fill="#019df4" fill-rule="evenodd" d="M584.8 615.1c-39.9-61.9-65-147.9-69.5-239.8h187.5c-6.2 95.3-50.6 179.9-118 239.8zm-206.4 87.3V375.3h85.3c4.9 103.2 33.7 200.9 80.2 271.1-48.2 31.6-104.6 51.6-165.5 56zm0-702.4c58.9 4.5 113.9 23.4 161.3 53.7-45.4 71.5-72.6 167.6-76 270h-85.3V0zm324.4 323.7H515.3c3.4-90.1 27.2-176.8 65.7-239.4 68.8 59.1 114.2 143.8 121.8 239.4zm-376 0h-89.1c-3.4-102.1-30.3-198.1-75.3-269.3C210.6 23.5 266.6 4.2 326.8.1v323.6zm0 379.1c-62.3-4.5-120-24.8-169.6-57.4 47.1-70.9 75.4-166.5 80.2-270.1h89.4v327.5zM0 375.3h185.8c-4.4 90.8-29.5 176.5-69.1 238.4C50.3 553.9 6.5 469.6 0 375.3zm121.1-290c38.5 62.9 61.6 147.6 65 238.4H.4C7.9 228.4 53 144.2 121.1 85.3z" clip-rule="evenodd" style="fill: #019df4;"/></svg>
