<?xml version="1.0" encoding="UTF-8"?>
<svg xmlns="http://www.w3.org/2000/svg" viewBox="0 0 702.8 702.8"><path fill="#019df4" fill-rule="evenodd" d="M554.2 580.8c-34.7-53.8-56.5-128.6-60.4-208.4h163c-5.5 82.8-44 156.4-102.6 208.4m-179.5 75.9V372.3h74.1C453 462 478.1 546.9 518.5 608c-42.9 28.3-92.5 45-143.8 48.7M252.1 372.3h77.8V657c-52.6-3.7-103.4-20.9-147.4-49.9 40.9-61.6 65.4-144.7 69.6-234.8m-206.3 0h161.4c-3.8 79-25.7 153.4-60.1 207.2C87.7 526.3 51.4 452 45.8 372.3m105.2-252c33.5 54.7 53.6 128.3 56.5 207.2H46.1c6.3-80.2 44-154.7 104.9-207.2m178.9-74.2v281.4h-77.5c-3-88.8-26.4-172.2-65.5-234.2 42.9-27.6 92.1-43.8 143-47.2m119 281.4h-74.1V46.1c49.9 3.7 98 19.8 140.2 46.7-39.5 62.1-63.1 145.6-66.1 234.7m207.9 0h-163c3-78.4 23.7-153.7 57.2-208.1 61.3 52.6 99.4 127.4 105.8 208.1M351.4 0C157.6 0 0 157.9 0 351.4c0 193.8 157.6 351.4 351.4 351.4 193.8 0 351.4-157.6 351.4-351.4C702.8 157.9 545.2 0 351.4 0" clip-rule="evenodd" style="fill: #019df4;"/></svg>
