<?xml version="1.0" encoding="UTF-8"?>
<svg xmlns="http://www.w3.org/2000/svg" viewBox="0 0 702.8 702.8"><path fill="#019df4" fill-rule="evenodd" d="M617.4 339.1c-.6 1.2-2 3.2-5.1 3.2H85.8V46.7c0-3.1 2.5-5.6 5.7-5.6h520.9c3.1 0 4.5 2 5.1 3.2.7 1.5 1.2 3.6 1.2 3.9L508 158.4c-18.1 18.1-18.2 47.6-.1 66.1l108.9 108.7c1.8 2.3 1.3 4.5.6 5.9zm-80-143.5c-2.3-2.4-2.4-6-.1-8.2L649.7 75.1c10.9-14.2 12.8-33 4.8-49.1S630.4-.1 612.3-.1H91.4c-25.9 0-47 21-47 46.7v635.5c0 11.3 9.3 20.5 20.7 20.5 11.4 0 20.7-9.2 20.7-20.5V383.3h526.5c18 0 34.2-10 42.2-26.1s6.1-34.9-6.5-51.1L537.4 195.6z" clip-rule="evenodd" style="fill: #019df4;"/></svg>
