<?xml version="1.0" encoding="UTF-8"?>
<svg xmlns="http://www.w3.org/2000/svg" viewBox="0 0 702.8 702.8"><path fill="#019df4" fill-rule="evenodd" d="M628.8 342c-2.1 4.4-6.6 7.2-11.5 7.1H71.6V40.6c0-7 5.7-12.7 12.8-12.7h532.8c7.4 0 10.7 5.4 11.5 7.1 1.1 2.1 3 7.7-.1 12L515.5 159.5c-15.8 15.9-15.8 41.6 0 57.5l112 111.6c4.4 5.7 2.3 11.3 1.3 13.4zm-93.2-144.6c-5-5-5.1-13.1-.1-18.2L649.9 65.4c9.6-12.2 11.2-28.9 4.2-42.8-6.9-14-21.2-22.8-36.8-22.7H84.5c-22.6 0-41 18.2-41 40.6v648.2c0 7.7 6.3 14 14.1 14 7.7 0 14.1-6.2 14.1-13.9V377.1h545.6c15.7 0 29.8-8.7 36.8-22.7 7-14 5.4-30.4-5.4-44.2L535.6 197.4z" clip-rule="evenodd" style="fill: #019df4;"/></svg>
