<?xml version="1.0" encoding="UTF-8"?>
<svg xmlns="http://www.w3.org/2000/svg" viewBox="0 0 702.8 702.8"><path fill="#019df4" fill-rule="evenodd" d="M329.6 80.2v35.1H142.3V80.2c0-11.9 9.6-21.6 21.5-21.6h144.3c11.9 0 21.5 9.7 21.5 21.6zm118.2 464.4c23.8 0 43.1-19.5 43.1-43.4s-19.3-43.4-43.1-43.4-43.1 19.5-43.1 43.4 19.3 43.4 43.1 43.4zm-144.1 0c23.8 0 43.1-19.5 43.1-43.4s-19.4-43.4-43.1-43.4c-23.8 0-43.1 19.5-43.1 43.4s19.4 43.4 43.1 43.4zm-144.1 0c23.8 0 43.1-19.5 43.1-43.4s-19.3-43.4-43.1-43.4-43.1 19.5-43.1 43.4 19.4 43.4 43.1 43.4zm521.7-184.9c11.9 0 21.5 9.7 21.5 21.6 0 95-24.4 166.3-72.5 212-49.8 47.4-108.8 50.8-124.7 50.8-2.3 0-3.7-.1-4-.1H58.5c-34.1 0-47.8-31.3-48.8-52.3L0 381.5c-.3-5.9 1.9-11.7 5.9-16 4.1-4.3 9.7-6.7 15.5-6.7l48 .1.7-86.6c-.7-7.3 1-17.1 7.6-25.1 5-6.1 14.6-13.5 32.1-13.7 4.6-.1 16.5-.1 32.4-.2v-74.8h187.3v74.9c43.5.1 77.3.1 81.2.1 1.6.1 60.8-2.1 102.6 38.3 22.6 21.8 35 51.5 38.2 87.7l129.8.2zM159.6 486.6c8 0 14.5 6.5 14.5 14.5s-6.5 14.5-14.5 14.5-14.4-6.5-14.4-14.5 6.5-14.5 14.4-14.5zm144.1 0c8 0 14.4 6.5 14.4 14.5s-6.5 14.5-14.4 14.5c-8 0-14.4-6.5-14.4-14.5s6.5-14.5 14.4-14.5zm144.1 0c8 0 14.5 6.5 14.5 14.5s-6.5 14.5-14.5 14.5-14.4-6.5-14.4-14.5 6.4-14.5 14.4-14.5z" clip-rule="evenodd" style="fill: #019df4;"/></svg>
