<?xml version="1.0" encoding="UTF-8"?>
<svg xmlns="http://www.w3.org/2000/svg" viewBox="0 0 702.8 702.8"><path fill="#019df4" fill-rule="evenodd" d="M601.3 561.5c35.3-33.9 54.8-87.2 58-158.5L44 402.3l8.6 187.6s.9 11 5.9 11h444.3c1.7-.2 55.4 2 98.5-39.4zM113.2 276.8l-.6 79.6 396-.5c-3.2-22.2-11.6-39.9-24.9-52.8-28.4-27.3-71.6-26.1-72-26.3-2.5-.3-122.4-.2-210.8-.2-41.2.1-75.6.1-87.7.2zm72.1-151.2h101.3v-23.7H185.3v23.7zm0 107.6h101.3v-64.4H185.3v64.4zm496 126.5c11.9 0 21.5 9.7 21.5 21.6 0 95-24.4 166.3-72.5 212-49.8 47.4-108.8 50.8-124.7 50.8-2.3 0-3.7-.1-4-.1H58.5c-34.1 0-47.9-31.3-48.8-52.3L.1 381.5c-.3-5.9 1.9-11.7 5.9-16 4.1-4.3 9.7-6.7 15.5-6.7l48 .1.7-86.6c-.7-7.3 1-17.1 7.6-25.1 5-6.1 14.6-13.5 32.1-13.7 4.7-.1 16.5-.1 32.5-.1V80.2c0-11.9 9.6-21.6 21.5-21.6h144.3c11.9 0 21.5 9.7 21.5 21.6v153.3c43.5.1 77.3.1 81.2.1 1.6 0 60.8-2.1 102.6 38.3 22.6 21.8 35 51.5 38.2 87.7l129.6.1zM159.7 486.6c-8 0-14.4 6.5-14.4 14.5s6.5 14.5 14.4 14.5 14.4-6.5 14.4-14.5-6.5-14.5-14.4-14.5zm0 58c-23.8 0-43.1-19.5-43.1-43.4s19.3-43.4 43.1-43.4 43.1 19.5 43.1 43.4-19.4 43.4-43.1 43.4zm144-58c-8 0-14.5 6.5-14.5 14.5s6.5 14.5 14.5 14.5 14.4-6.5 14.4-14.5-6.4-14.5-14.4-14.5zm0 58c-23.8 0-43.1-19.5-43.1-43.4s19.4-43.4 43.1-43.4c23.8 0 43.1 19.5 43.1 43.4.1 23.9-19.3 43.4-43.1 43.4zm144.1-58c-8 0-14.4 6.5-14.4 14.5s6.5 14.5 14.4 14.5c8 0 14.4-6.5 14.4-14.5s-6.4-14.5-14.4-14.5zm0 58c-23.8 0-43.1-19.5-43.1-43.4s19.3-43.4 43.1-43.4 43.1 19.5 43.1 43.4-19.3 43.4-43.1 43.4z" clip-rule="evenodd" style="fill: #019df4;"/></svg>
