<?xml version="1.0" encoding="UTF-8"?>
<svg xmlns="http://www.w3.org/2000/svg" viewBox="0 0 702.8 702.8"><path fill="#019df4" fill-rule="evenodd" d="M611.4 572.3c38.9-37.4 59.7-96.3 62-175.4L30 396.2l9.1 200c.2 3 1.7 18.4 13.3 18.4H506c1.2-.2 58.8 2.4 105.4-42.3zm-506-304.7c-4 .1-5.3.9-5.4.9l.1 95.5 419.9-.6c-2.4-28.3-11.9-50.7-28.4-66.7-31.4-30.6-78.4-29.1-79-29.1-.9.7-124.7-.2-215.1-.2-45.6 0-82.9 0-92.1.2zm69.1-150.8h118V88.2h-118v28.6zm0 120.9h118v-91.4h-118v91.4zm513.7 129.6c8.1 0 14.6 6.6 14.6 14.8 0 95.3-24.1 166.6-71.7 212-33 31.4-76.6 49.3-122.1 50.1-2.2 0-3.5-.1-3.9-.1H52.4c-32 0-41.8-30.5-42.5-46.6L0 382.1c-.4-8.1 5.8-15 13.8-15.4h.8l56.2.1.8-97.5c-.2 0-1.4-10.5 6.1-19.7 4.1-5.1 12.2-11.2 27.2-11.4 5.4-.1 20.2-.1 40.4-.1V73.4c0-8.2 6.6-14.8 14.6-14.8h147.3c8.1 0 14.6 6.6 14.6 14.8v164.5l90.2.1c1.6.1 59.1-2.1 99.6 37.2 23.1 22.4 35.3 53.6 37.3 92l139.3.1zM155.7 490.1c-8.2.1-14.8 6.7-14.7 14.9 0 8.2 6.6 14.9 14.7 14.9s14.8-6.7 14.8-14.9c-.1-8.3-6.7-15-14.8-14.9zm0 59.4c-24.4-.2-44.1-20.1-44-44.5 0-24.5 19.7-44.5 44-44.5s44 20 44 44.5-19.8 44.5-44 44.5zm147-59.5c-8.2.1-14.8 6.7-14.8 14.9s6.6 14.9 14.8 14.9c8.1 0 14.8-6.7 14.8-14.9s-6.6-14.9-14.8-14.9zm0 59.5c-24.3 0-44-20-44-44.5s19.8-44.5 44-44.5 44 20 44 44.5-19.7 44.5-44 44.5zM449.8 490c-8.2 0-14.8 6.7-14.8 14.9s6.6 14.9 14.8 14.9c8.1 0 14.7-6.7 14.7-14.9s-6.6-14.9-14.7-14.9zm0 59.5c-24.4-.2-44.1-20.1-44-44.5 0-24.5 19.7-44.5 44-44.5 24.2 0 44 20 44 44.5s-19.8 44.5-44 44.5z" clip-rule="evenodd" style="fill: #019df4;"/></svg>
