<?xml version="1.0" encoding="UTF-8"?>
<svg xmlns="http://www.w3.org/2000/svg" viewBox="0 0 702.8 702.8"><path fill="#019df4" fill-rule="evenodd" d="M586.3 602.4c19 0 26.4-7.5 26.4-26.8 0-19.2-7.4-26.8-26.4-26.8s-26.4 7.5-26.4 26.8c-.1 19.3 7.3 26.8 26.4 26.8zm0-83.5c35.1 0 56.1 21.2 56.1 56.8 0 35.5-20.9 56.8-56.1 56.8-35.1 0-56-21.2-56-56.8-.1-35.5 20.8-56.8 56-56.8zm0-140.7c19 0 26.4-7.5 26.4-26.8 0-19.2-7.4-26.8-26.4-26.8s-26.4 7.5-26.4 26.8c-.1 19.3 7.3 26.8 26.4 26.8zm0-83.6c35.1 0 56.1 21.2 56.1 56.8 0 35.5-20.9 56.8-56.1 56.8-35.1 0-56-21.2-56-56.8-.1-35.5 20.8-56.8 56-56.8zm.6-194.2c-19 0-26.4 7.5-26.4 26.8 0 19.2 7.4 26.7 26.4 26.7s26.5-7.5 26.5-26.7c0-19.1-7.7-26.8-26.5-26.8zm0 83.5c-35.1 0-56-21.2-56-56.7s20.9-56.8 56-56.8S643 91.6 643 127.2c0 35.5-21 56.7-56.1 56.7zM673 657l.2-162.7c0-8.7-7-15.7-15.6-15.8H45.5c-8.7 0-15.7 7.1-15.6 15.8L29.6 657c0 8.7 7 15.8 15.6 15.8h612.1c8.7 0 15.7-7.1 15.7-15.8zM29.8 45.8l-.2 162.7c0 8.7 7 15.8 15.6 15.8h612.1c8.7 0 15.7-7.1 15.6-15.8l.2-162.7c0-8.7-7-15.8-15.6-15.8h-612c-8.7 0-15.7 7.1-15.7 15.8zm15.4 402.8h612.1c8.7-.1 15.7-7.1 15.6-15.8l.2-162.7c0-8.7-7-15.8-15.6-15.8h-612c-8.7.1-15.7 7.1-15.6 15.8l-.2 162.7c-.1 8.6 6.9 15.8 15.5 15.8zm657.6-178.5l-.2 162.7c0 11.8-4.6 22.5-11.9 30.7 7.4 8.1 12.1 19 12.1 30.9l-.2 162.6c0 25.2-20.3 45.8-45.3 45.8H45.2C20.1 702.6-.1 682.1 0 657l.2-162.7c0-11.8 4.6-22.5 11.9-30.6-7.7-8.5-12.1-19.5-12.1-31L.2 270c0-11.9 4.6-22.5 11.9-30.7C4.4 231 0 219.9 0 208.5L.2 45.8C.2 20.6 20.5 0 45.5 0h612.1c24.9 0 45.2 20.6 45.2 45.8l-.2 162.7c0 11.8-4.6 22.5-11.9 30.7 7.4 8.1 12.1 18.9 12.1 30.9zM94 142.1c-8.2 0-14.8-6.7-14.8-15s6.6-15 14.8-15h205.5c8.2 0 14.8 6.7 14.8 15 .1 8.2-6.5 14.9-14.8 15H94zm205.5 194.3c8.2 0 14.8 6.7 14.8 15 0 8.2-6.6 14.9-14.8 15H94c-8.2 0-14.8-6.7-14.8-14.9 0-8.3 6.6-15 14.8-15 0-.1 205.5-.1 205.5-.1zm0 225.7c8.2 0 14.8 6.7 14.8 15 0 8.2-6.6 14.9-14.8 15H94c-8.2 0-14.8-6.7-14.8-14.9 0-8.3 6.6-15 14.8-15h205.5z" clip-rule="evenodd" style="fill: #019df4;"/></svg>
