<?xml version="1.0" encoding="UTF-8"?>
<svg xmlns="http://www.w3.org/2000/svg" viewBox="0 0 702.8 702.8"><path fill="#019df4" fill-rule="evenodd" d="M572.2 596.4c17.1 0 23.2-6.2 23.2-23.5s-6.1-23.5-23.2-23.5-23.2 6.2-23.2 23.5c.1 17.3 6.1 23.5 23.2 23.5zm0-82.4c36.5 0 58.2 22 58.2 58.9s-21.8 58.9-58.2 58.9-58.2-22-58.2-58.9 21.8-58.9 58.2-58.9zm0-139c17.1 0 23.2-6.2 23.2-23.5s-6.1-23.5-23.2-23.5-23.2 6.2-23.2 23.5c.1 17.4 6.1 23.5 23.2 23.5zm0-82.4c36.5 0 58.2 22 58.2 58.9s-21.8 58.9-58.2 58.9-58.2-22-58.2-58.9c0-36.8 21.8-58.9 58.2-58.9zm.7-185.8c-17.1 0-23.2 6.2-23.2 23.5s6.1 23.5 23.2 23.5 23.2-6.2 23.2-23.5c0-17.4-6.1-23.5-23.2-23.5zm0 82.4c-36.5 0-58.2-22-58.2-58.9s21.8-58.9 58.2-58.9 58.2 22 58.2 58.9c0 36.8-21.7 58.9-58.2 58.9zm85.8 461.3l.2-159.2c0-4.4-3.5-7.9-7.9-7.9H51.9c-4.3 0-7.8 3.6-7.8 8l-.2 159.2c0 4.4 3.5 7.9 7.9 7.9h599.1c4.3-.1 7.8-3.7 7.8-8zM44.1 52.3l-.2 159.2c0 4.3 3.5 8 7.9 8h599.1c4.4 0 7.9-3.6 7.9-8l.2-159.2c0-4.4-3.5-7.9-7.9-7.9H51.9c-4.3 0-7.8 3.5-7.8 7.9zm7.6 386.6h599.1c4.4 0 7.9-3.6 7.9-8l.2-159.2c0-4.4-3.5-7.9-7.9-7.9H51.9c-4.3 0-7.8 3.5-7.8 7.9l-.2 159.2c0 4.5 3.5 8 7.8 8zm651.1-167.1l-.2 159.2c0 11.2-3.6 21.5-9.5 30 6 8.6 9.7 19 9.7 30.3l-.2 159.2c0 28.8-23.2 52.3-51.8 52.3H51.7C23.2 702.8 0 679.3 0 650.5l.2-159.2c0-11.2 3.5-21.5 9.4-30-6-8.6-9.7-19-9.7-30.3l.2-159.2c0-11.2 3.5-21.5 9.4-30-6-8.6-9.7-19-9.7-30.3L0 52.3C0 23.5 23.2 0 51.7 0h599.1c28.5 0 51.7 23.5 51.7 52.3l-.2 159.2c0 11.2-3.5 21.5-9.5 30 6.3 8.6 10 19 10 30.3zm-605-119.4c-12.1 0-21.9-9.9-21.9-22.2S85.7 108 97.8 108h202.9c12.1 0 21.9 9.9 21.9 22.2s-9.8 22.2-21.9 22.2H97.8zm202.9 177c12.1 0 21.9 9.9 21.9 22.2 0 12.2-9.8 22.2-21.9 22.2H97.8c-12.1 0-21.9-9.9-21.9-22.2 0-12.3 9.8-22.2 21.9-22.2h202.9zm0 222.7c12.1 0 21.9 9.9 21.9 22.2s-9.8 22.2-21.9 22.2H97.8c-12.1 0-21.9-9.9-21.9-22.2s9.8-22.2 21.9-22.2h202.9z" clip-rule="evenodd" style="fill: #019df4;"/></svg>
