<?xml version="1.0" encoding="UTF-8"?>
<svg xmlns="http://www.w3.org/2000/svg" viewBox="0 0 702.8 702.8"><path fill="#019df4" fill-rule="evenodd" d="M572.9 189.2c36.5 0 58.2-22 58.2-58.9s-21.8-58.9-58.2-58.9c-36.5 0-58.2 22-58.2 58.9s21.7 58.9 58.2 58.9zm-.6 221.3c36.5 0 58.2-22 58.2-58.9s-21.8-58.9-58.2-58.9c-36.5 0-58.3 22-58.3 58.9s21.8 58.9 58.3 58.9zm0 221.4c36.5 0 58.2-22 58.2-58.9s-21.8-58.9-58.2-58.9c-36.5 0-58.3 22-58.3 58.9s21.8 58.9 58.3 58.9zM300.7 152.4c12.1 0 21.9-9.9 21.9-22.2s-9.8-22.2-21.9-22.2H97.8c-12.1 0-21.9 9.9-21.9 22.2s9.8 22.2 21.9 22.2h202.9zm0 221.4c12.1 0 21.9-9.9 21.9-22.2s-9.8-22.2-21.9-22.2H97.8c-12.1 0-21.9 9.9-21.9 22.2s9.8 22.2 21.9 22.2h202.9zm0 222.8c12.1 0 21.9-9.9 21.9-22.2 0-12.3-9.8-22.2-21.9-22.2H97.8c-12.1 0-21.9 9.9-21.9 22.2 0 12.2 9.8 22.2 21.9 22.2h202.9zm402.1-324.8l-.2 159.2c0 11.2-3.6 21.5-9.5 30 6.1 8.6 9.7 19 9.7 30.3l-.2 159.2c0 28.8-23.2 52.3-51.8 52.3H51.7c-28.5 0-51.8-23.5-51.8-52.3l.2-159.2c0-11.2 3.5-21.5 9.5-30-6.1-8.6-9.7-19-9.7-30.3l.2-159.2c0-11.2 3.5-21.5 9.5-30-6.1-8.6-9.7-19-9.7-30.3L.1 52.3C.1 23.5 23.3 0 51.8 0h599.1c28.5 0 51.7 23.5 51.7 52.3l-.2 159.2c0 11.2-3.6 21.5-9.5 30 6.3 8.6 9.9 19 9.9 30.3zm-129.9-165c17.1 0 23.2 6.2 23.2 23.5s-6.1 23.5-23.2 23.5-23.2-6.2-23.2-23.5c0-17.4 6.1-23.5 23.2-23.5zm-.6 221.3c17.1 0 23.2 6.2 23.2 23.5s-6.1 23.5-23.2 23.5-23.2-6.2-23.2-23.5 6.1-23.5 23.2-23.5zm0 221.4c17.1 0 23.2 6.2 23.2 23.5s-6.1 23.5-23.2 23.5-23.2-6.2-23.2-23.5 6.1-23.5 23.2-23.5z" clip-rule="evenodd" style="fill: #019df4;"/></svg>
