<?xml version="1.0" encoding="UTF-8"?>
<svg xmlns="http://www.w3.org/2000/svg" viewBox="0 0 702.8 702.8"><path fill="#019df4" fill-rule="evenodd" d="M540.4 588.3v-396c0-29.2-6.9-50.1-21-63.8-14.1-13.8-35.6-20.5-65.7-20.5H250.1c-29.8 0-51.2 6.9-65.6 21-14.2 14-21.1 34.6-21.1 63.3v396c0 29.5 6.9 50.4 21.1 64.1 14.1 13.6 35.5 20.2 65.6 20.2h203.6c30.1 0 51.5-6.6 65.6-20.2 14.2-13.7 21.1-34.7 21.1-64.1zM287.8 53.9v23.8H416V53.9c0-13.1-4.1-17.1-5.4-18.4-1.3-1.3-5.4-5.3-18.9-5.3h-79.5c-13.3 0-17.4 4.1-18.8 5.5-1.5 1.3-5.6 5.4-5.6 18.2zm253.7 53.2c20.2 19.7 30 47.5 30 85.2v396c0 37.9-9.9 65.9-30.3 85.6-20.2 19.5-48.8 29-87.5 29H250.1c-38.7 0-67.3-9.5-87.5-28.9-20.4-19.7-30.3-47.7-30.3-85.6v-396c0-37 9.9-64.7 30.1-84.6 20.6-20.2 49.2-30 87.7-30h6.6V53.9c0-16.7 4.9-30 14.5-39.5 9.7-9.5 23.5-14.4 41-14.4h79.5c17.5 0 31.3 4.8 40.9 14.2S447 37 447 53.9v23.8h6.7c38.8 0 67.5 9.6 87.8 29.4zM479 565.5V388.6H224.7v176.9c0 23.6 19.7 42.8 44 42.8h166.4c24.2 0 43.9-19.2 43.9-42.8zm15.5-207.1c8.6 0 15.6 6.7 15.6 15.1v192c0 40.3-33.7 73-75.1 73H268.7c-41.4 0-75.1-32.7-75.1-73v-192c0-8.4 7-15.1 15.5-15.1h285.4z" clip-rule="evenodd" style="fill: #019df4;"/></svg>
