<?xml version="1.0" encoding="UTF-8"?>
<svg xmlns="http://www.w3.org/2000/svg" viewBox="0 0 702.8 702.8"><path fill="#019df4" fill-rule="evenodd" d="M539.5 588.3V192.2c0-29.2-6.9-50.1-21-63.8-14.1-13.8-35.6-20.5-65.7-20.5H249.1c-29.8 0-51.2 6.9-65.6 21-14.2 14-21.1 34.6-21.1 63.3v396c0 29.4 6.9 50.4 21.1 64.1 14.1 13.6 35.5 20.2 65.6 20.2h203.6c30.1 0 51.5-6.6 65.6-20.2 14.2-13.6 21.2-34.6 21.2-64zM286.8 53.9v23.8H415V53.9c0-13.1-4.1-17.1-5.4-18.4-1.4-1.3-5.4-5.3-18.9-5.3h-79.5c-13.3 0-17.5 4.1-18.8 5.5-1.4 1.3-5.6 5.4-5.6 18.2zm253.7 53.2c20.2 19.7 30 47.5 30 85.2v396c0 37.9-9.9 65.9-30.3 85.6-20.1 19.5-48.8 29-87.5 29H249.1c-38.7 0-67.3-9.5-87.5-29-20.4-19.6-30.3-47.6-30.3-85.5V192.2c0-37 9.9-64.7 30.1-84.6 20.6-20.2 49.2-30 87.7-30h6.7V53.9c0-16.8 4.9-30.1 14.5-39.5C279.9 4.9 293.7 0 311.2 0h79.5c17.5 0 31.3 4.8 40.9 14.2 9.8 9.5 14.5 22.5 14.5 39.7v23.8h6.6c38.8 0 67.5 9.6 87.8 29.4zM434.1 608.3c22.7 0 41.5-16.8 43.7-38.4H223.9c2.3 21.6 21 38.4 43.7 38.4h166.5zm59.5-68.6c8.6 0 15.5 6.8 15.5 15.1v10.7c0 40.3-33.6 73-75 73H267.7c-41.4 0-75.1-32.7-75.1-73v-10.7c0-8.3 7-15.1 15.5-15.1h285.5z" clip-rule="evenodd" style="fill: #019df4;"/></svg>
