<?xml version="1.0" encoding="UTF-8"?>
<svg xmlns="http://www.w3.org/2000/svg" viewBox="0 0 702.8 702.8"><path fill="#019df4" fill-rule="evenodd" d="M526.5 583.3V195.6c0-26.5-5.9-45.2-18.1-57.3-12.2-12-31.2-17.9-58.2-17.9H253.6c-26.6 0-45.6 6-58 18.4-12.3 12.2-18.3 30.8-18.3 56.8v387.6c0 26.7 5.9 45.6 18.2 57.5 12.1 11.9 31.1 17.6 58 17.6h196.7c26.9 0 46-5.7 58.1-17.6 12.3-11.8 18.2-30.7 18.2-57.4zM300.7 47.5c-2.6 2.6-3.2 8.3-3.2 12.7v15.9h108.8V60.2c0-3.7-.4-10.2-3.1-12.8-2.6-2.6-9.2-3-12.9-3h-76.7c-4.5 0-10.3.5-12.9 3.1zM540.3 107c21 20.8 31.2 49.7 31.2 88.6v387.7c0 39.2-10.3 68.3-31.5 89-21 20.5-50.4 30.5-89.8 30.5H253.6c-39.4 0-68.8-10-89.8-30.5-21.2-20.8-31.5-49.9-31.5-89.1V195.6c0-38.3 10.2-67.1 31.2-88 21.1-21 50.3-31.3 89-31.5V60.2c0-18.4 5.4-33.2 16.2-43.9C279.5 5.5 294.6 0 313.5 0h76.7c19 0 34.1 5.4 44.9 16.1 10.7 10.7 16.2 25.5 16.2 44.1v15.9c39 .2 68.2 10.3 89 30.9zm-63 243.8c12.4 0 22.5 9.9 22.5 22.2v188c0 43.5-35.9 78.8-80 78.8H284.1c-44.1 0-80-35.3-80-78.8V373c0-12.2 10.1-22.2 22.5-22.2h250.7z" clip-rule="evenodd" style="fill: #019df4;"/></svg>
