<?xml version="1.0" encoding="UTF-8"?>
<svg xmlns="http://www.w3.org/2000/svg" viewBox="0 0 702.8 702.8"><path fill="#019df4" fill-rule="evenodd" d="M540.5 588.2v-396c0-29.2-6.9-50.1-21-63.8-14.1-13.8-35.6-20.5-65.7-20.5H250.1c-29.8 0-51.2 6.9-65.6 21-14.2 14-21.1 34.6-21.1 63.3v396c0 29.5 6.9 50.5 21.1 64.1 14.1 13.6 35.5 20.2 65.6 20.2h203.7c30 0 51.5-6.6 65.6-20.2 14.1-13.6 21-34.6 21.1-64.1zM287.8 53.9v23.8H416V53.9c0-13.1-4.1-17.1-5.4-18.4-1.3-1.3-5.4-5.3-18.9-5.3h-79.4c-13.3 0-17.5 4.1-18.9 5.5-1.4 1.3-5.6 5.4-5.6 18.2zm253.7 53.2c20.2 19.7 30 47.5 30 85.1v396c0 38-9.9 66-30.3 85.6-20.2 19.5-48.8 29-87.4 29H250.1c-38.6 0-67.2-9.5-87.4-29-20.4-19.6-30.3-47.6-30.3-85.6v-396c0-37 9.8-64.6 30.1-84.5 20.5-20.2 49.2-30 87.7-30h6.7V53.9c0-16.7 4.9-30 14.5-39.4C281 4.8 294.8 0 312.2 0h79.4c17.5 0 31.3 4.7 40.9 14.2C442.2 23.6 447 37 447 53.9v23.8h6.7c38.8 0 67.6 9.6 87.8 29.4zm-62.4 458.4V189.3H224.7v376.2c0 23.6 19.7 42.8 44 42.8h166.4c24.2 0 44-19.2 44-42.8zm15.5-406.4c8.6 0 15.5 6.7 15.5 15.1v391.3c0 40.3-33.6 73-75.1 73H268.7c-41.4 0-75.1-32.7-75.1-73V174.2c0-8.4 7-15.1 15.5-15.1h285.5z" clip-rule="evenodd" style="fill: #019df4;"/></svg>
