<?xml version="1.0" encoding="UTF-8"?>
<svg xmlns="http://www.w3.org/2000/svg" viewBox="0 0 702.8 702.8"><path fill="#019df4" fill-rule="evenodd" d="M526.5 583.3c0 26.7-5.9 45.6-18.2 57.5-12.2 11.9-31.2 17.6-58.1 17.6H253.6c-26.9 0-46-5.7-58.1-17.6-12.3-11.9-18.2-30.8-18.2-57.5V195.6c0-26 5.9-44.6 18.3-56.8 12.4-12.4 31.4-18.4 58-18.4h196.7c27 0 46 5.9 58.2 17.9 12.2 12.1 18.1 30.8 18.1 57.3l-.1 387.7zM300.8 60.2c0-4.4.5-10.1 3.1-12.6 2.6-2.6 8.5-3.2 12.9-3.2h76.7c3.7 0 10.4.4 12.9 3 2.7 2.6 3.1 9.1 3.1 12.8v15.9H300.8V60.2zM540.3 107c-20.3-20-48.5-29.9-85.8-30.7V60.2c0-18.6-5.4-33.4-16.2-44.1C427.6 5.4 412.5 0 393.5 0h-76.7c-18.9 0-34 5.5-44.8 16.3-10.8 10.7-16.2 25.4-16.2 43.9v15.9h-2.2c-39.2 0-68.7 10.3-90 31.5-21 20.9-31.2 49.7-31.2 88v387.7c0 39.2 10.3 68.3 31.5 89 21 20.5 50.4 30.5 89.8 30.5h196.7c39.4 0 68.8-10 89.8-30.5 21.2-20.8 31.5-49.9 31.5-89V195.6c-.2-38.8-10.4-67.8-31.4-88.6z" clip-rule="evenodd" style="fill: #019df4;"/></svg>
