<?xml version="1.0" encoding="UTF-8"?>
<svg xmlns="http://www.w3.org/2000/svg" viewBox="0 0 702.8 702.8"><path fill="#019df4" fill-rule="evenodd" d="M540.5 588.2c0 29.5-6.9 50.5-21.1 64.1-14.1 13.6-35.6 20.2-65.6 20.2H250.1c-30 0-51.5-6.6-65.6-20.2-14.2-13.7-21.1-34.6-21.1-64.1v-396c0-28.7 6.9-49.3 21.1-63.3 14.4-14.1 35.8-21 65.6-21h203.7c30.1 0 51.6 6.7 65.7 20.5 14.1 13.8 21 34.6 21 63.8v396zM291.2 53.9c0-12.8 4.2-16.9 5.5-18.2 1.4-1.4 5.6-5.5 18.9-5.5H395c13.6 0 17.6 4 19 5.3 1.3 1.3 5.4 5.3 5.4 18.4v23.8H291.2V53.9zm250.3 53.2c-20.3-19.8-49-29.4-87.8-29.4h-3.3V53.9c0-17-4.9-30.3-14.5-39.7C426.3 4.8 412.5 0 395 0h-79.4c-17.5 0-31.2 4.9-41 14.4-9.6 9.5-14.5 22.8-14.5 39.4v23.8h-10c-38.5 0-67.1 9.8-87.7 30-20.2 19.9-30 47.6-30 84.5v396c0 38 10 66 30.3 85.6 20.2 19.5 48.8 29 87.4 29h203.7c38.6 0 67.2-9.5 87.4-29 20.4-19.6 30.3-47.6 30.3-85.6v-396c0-37.5-9.8-65.3-30-85z" clip-rule="evenodd" style="fill: #019df4;"/></svg>
