<?xml version="1.0" encoding="UTF-8"?>
<svg xmlns="http://www.w3.org/2000/svg" viewBox="0 0 702.8 702.8"><path fill="#019df4" fill-rule="evenodd" d="M526.5 583.3V195.6c0-26.5-5.9-45.2-18.1-57.2-12.2-12.1-31.2-17.9-58.2-17.9H253.5c-26.6 0-45.6 6-58 18.4-12.3 12.2-18.2 30.8-18.2 56.8v387.7c0 26.7 5.9 45.6 18.2 57.5 12.1 11.9 31.2 17.6 58.1 17.6h196.7c26.9 0 45.9-5.8 58.1-17.6 12.2-12 18.1-30.9 18.1-57.6zM300.7 47.6c-2.6 2.5-3.1 8.3-3.1 12.6v15.9h108.8V60.2c0-3.6-.4-10.1-3-12.7-2.7-2.7-9.3-3-13-3h-76.7c-4.6-.1-10.4.4-13 3.1zM540.3 107c21 20.8 31.2 49.7 31.2 88.6v387.7c0 39.2-10.3 68.3-31.5 89-21 20.5-50.4 30.5-89.8 30.5H253.5c-39.4 0-68.8-10-89.8-30.5-21.2-20.7-31.5-49.9-31.5-89V195.6c0-38.2 10.2-67 31.2-88 21.1-21 50.3-31.3 89-31.5V60.2c0-18.4 5.5-33.2 16.2-43.9C279.5 5.5 294.6 0 313.4 0h76.7c19.1 0 34.2 5.4 44.9 16.1 10.7 10.6 16.1 25.4 16.1 44V76c39.2.3 68.4 10.4 89.2 31zm-63 421.3c12.4 0 22.5 9.9 22.5 22.2V561c0 43.5-33.6 78.9-74.8 78.9H278.9c-41.2 0-74.8-35.4-74.8-78.9v-10.5c0-12.2 10.1-22.2 22.5-22.2h250.7z" clip-rule="evenodd" style="fill: #019df4;"/></svg>
