<?xml version="1.0" encoding="UTF-8"?>
<svg xmlns="http://www.w3.org/2000/svg" viewBox="0 0 702.8 702.8"><path fill="#019df4" fill-rule="evenodd" d="M556.6 418.4c-9.3 9.3-20.6 16.6-33 22.8-6.2 3.1-12.4 6.1-19.3 8.4-15.7 5.1-33.4 8-52.5 8.7-3.3.2-6.2.7-9.6.7H260.6c-3.3 0-6.3-.6-9.6-.7-19.1-.8-36.8-3.6-52.5-8.7-6.9-2.3-13.1-5.3-19.3-8.4-12.4-6.2-23.7-13.4-33-22.8-9.1-12.1-13.9-28.8-13.9-50.5 0-21.6 4.9-38.3 14-50.6 21.4-21.6 51.9-34.5 88.5-38.7-1.2 8.1-2 16.4-2 25.4 0 37.8 11 67.4 32.6 88.1 20.7 19.8 49.7 29.9 86.1 29.9 36.5 0 65.4-10.1 86.1-29.9 21.6-20.7 32.5-50.3 32.5-88.1 0-8.9-.7-17.3-1.9-25.4 36.6 4.3 67 17.1 88.5 38.7 9.1 12.2 14 29 14 50.6-.2 21.7-5 38.4-14.1 50.5zm-279.3 84.8h148.2l-.1 9.1c-.2 25.9-10.2 69.1-74 69.1s-73.8-43.2-74-69.1l-.1-9.1zm221.4 17.4c-.4 41.6-15.5 138.1-147.3 138.1-131.9 0-146.9-96.5-147.3-138.1l-.4-23.7c9.3 2.1 19 3.7 29 4.7l.2 11.1c.5 52 31.8 112.6 118.4 112.7 86.7 0 118-60.6 118.4-112.7l.2-11.1c10-1 19.7-2.6 29-4.7l-.2 23.7zM274.4 69.1c17.2-16.6 43.2-25 77-25 33.9 0 59.8 8.5 77 25 17.8 17.2 26.9 43.7 26.9 78.8 0 28.5-6.3 51-18.1 67.7-2.7 3.8-5.5 7.7-8.8 10.9 0 0-1.5 1.1-3.4 2.8-6.1 3.1-10.9 8.5-12.1 15.7-.8 5 .5 9.8 2.7 13.9.4 1.5.9 2.7 1.3 3.5 3 5.8 3.4 7.1 5.2 14.2 2.1 8.2 3.4 17.1 3.4 27.3 0 25.4-6.4 44.3-18.9 56.3-12.2 11.7-30.8 17.6-55.3 17.6-24.5 0-43.1-5.9-55.2-17.6-12.6-12-19-31-19-56.3 0-10.2 1.4-19.2 3.5-27.3 1.8-7.1 2.3-8.4 5.2-14.2.5-.8.9-2 1.4-3.5 2.3-4.1 3.5-8.9 2.7-13.9-1.2-7.2-6-12.6-12.1-15.7-1.9-1.7-3.4-2.8-3.4-2.8-3.4-3.2-6.1-7.1-8.8-10.9-11.8-16.7-18.1-39.2-18.1-67.7 0-35.1 9-61.6 26.9-78.8zm315.1 218.8c-.5-.6-.9-1.2-1.5-1.8-2-2.4-3.7-3.7-6-5.8-1.8-1.8-3.8-3.7-6.1-5.3-26.2-21.4-59.6-34.9-98.2-40 14.4-23.2 21.9-52.3 21.9-87.1 0-47.5-13.6-84.7-40.4-110.5-25.8-24.9-62.1-37.5-108-37.5S269 12.5 243.3 37.4c-26.8 25.8-40.4 63-40.4 110.5 0 34.8 7.4 63.9 21.9 87.1-38.6 5.1-71.9 18.6-98.2 40-2.3 1.5-4.3 3.5-6.1 5.3-2.2 2.1-3.9 3.4-5.9 5.8-.6.6-.9 1.2-1.5 1.8-16.5 20.2-25.4 46.8-25.4 80s8.9 59.8 25.4 80l1.5 1.8c3.8 3.9 7.8 7.6 12 11 9.8 8.1 20.6 15 32.3 20.8l.6 39.5c.7 87.9 51.5 181.7 191.7 181.7s191-93.8 191.7-181.7l.6-39.5c11.7-5.9 22.5-12.8 32.3-20.8 4.2-3.4 8.2-7.2 12-11l1.5-1.8c16.6-20.2 25.5-46.8 25.5-80 .1-33.2-8.7-59.8-25.3-80z" clip-rule="evenodd" style="fill: #019df4;"/></svg>
