<?xml version="1.0" encoding="UTF-8"?>
<svg xmlns="http://www.w3.org/2000/svg" viewBox="0 0 702.8 702.8"><path fill="#019df4" fill-rule="evenodd" d="M556.6 418.3c-9.3 9.3-20.6 16.6-33 22.8-6.2 3.1-12.4 6.1-19.3 8.4-15.8 5.1-33.5 8-52.5 8.7-3.3.2-6.2.7-9.6.7H260.6c-3.4 0-6.3-.6-9.6-.7-19.1-.8-36.8-3.6-52.5-8.7-6.9-2.3-13.1-5.3-19.3-8.4-12.4-6.2-23.7-13.4-33-22.8-9.1-12.1-13.9-28.8-13.9-50.5 0-21.6 4.9-38.3 13.9-50.6 21.4-21.6 51.9-34.5 88.5-38.7-1.2 8.1-2 16.4-2 25.3 0 37.8 11 67.4 32.6 88.1 20.7 19.8 49.7 29.9 86.1 29.9 36.5 0 65.4-10.1 86.1-29.9 21.6-20.7 32.5-50.3 32.5-88.1 0-8.9-.7-17.3-1.9-25.3 36.6 4.3 67 17.1 88.5 38.7 9.1 12.2 14 29 14 50.6-.1 21.7-5 38.4-14 50.5zM432.4 519.8c-.2 22.9-8.6 76-81 76.3-72.5-.3-80.8-53.4-81-76.3l-.3-16.7 7.2-.1h155.3l-.2 16.8zm157.1-231.9c-.5-.6-.9-1.2-1.5-1.8-2-2.4-3.7-3.7-5.9-5.8-1.8-1.8-3.9-3.7-6.1-5.3-26.2-21.4-59.6-34.9-98.2-40 14.4-23.2 21.9-52.3 21.9-87.1 0-47.5-13.6-84.6-40.4-110.4C433.5 12.7 397.2 0 351.3 0s-82.2 12.6-107.9 37.5c-26.9 25.8-40.5 63-40.5 110.4 0 34.8 7.5 63.9 21.9 87.1-38.6 5.1-72 18.6-98.2 40-2.3 1.5-4.3 3.5-6.1 5.3-2.2 2.1-3.9 3.4-5.9 5.8-.6.6-.9 1.2-1.5 1.8-16.6 20.2-25.4 46.8-25.4 80s8.9 59.7 25.4 80c.5.6.9 1.2 1.5 1.8 3.8 3.9 7.8 7.6 12 11 5.3 4.4 13.2 9.5 21.2 14.3 6.8 4.1 13.7 7.9 19.1 10.6v17.9l.4 25.1c.8 84.1 49.5 173.9 183.5 174.3h.8c134-.4 182.7-90.2 183.5-174.3l.3-25.4v-17.5c5.4-2.7 12.4-6.5 19.1-10.6 8-4.8 15.9-9.9 21.2-14.3 4.2-3.4 8.2-7.2 12-11l1.5-1.8c16.6-20.2 25.5-46.7 25.5-80 .2-33.4-8.6-60-25.2-80.1z" clip-rule="evenodd" style="fill: #019df4;"/></svg>
