<?xml version="1.0" encoding="UTF-8"?>
<svg xmlns="http://www.w3.org/2000/svg" viewBox="0 0 702.8 702.8"><path fill="#019df4" fill-rule="evenodd" d="M658 527.3c-129.8 3.8-233.8 39.3-284.2 60.2V159.8c109.5-53.7 235.4-57.6 284.2-56.7v424.2zM44.8 103.1c48.8-.6 174.4 2.9 284.2 56.7v427.7c-50.3-20.8-154.4-56.4-284.2-60.2V103.1zm637.4-43.4c-7.5-.6-180.5-12.9-330.8 61.9C201.2 46.7 28.2 59.1 20.7 59.7 9 60.6.1 70.2.1 81.8v467.4c0 12.2 10 22.2 22.4 22.2 180.6 0 317.2 69.6 318.6 70.3 3.3 1.7 6.8 2.5 10.4 2.5.9 0 1.7-.6 2.7-.7 2.7-.3 5.3-.6 7.8-1.9.1 0 .7-.3 1.1-.6 11.7-5.8 143.6-69.7 317.4-69.7 12.4 0 22.4-9.9 22.4-22.2V81.7c-.1-11.5-9.1-21.1-20.7-22z" clip-rule="evenodd" style="fill: #019df4;"/></svg>
