<?xml version="1.0" encoding="UTF-8"?>
<svg xmlns="http://www.w3.org/2000/svg" viewBox="0 0 702.8 702.8"><path fill="#019df4" fill-rule="evenodd" d="M673.5 540.4C527.1 543.1 412 586.5 366 606.7V149.4c121.5-61.6 263.6-62.6 307.5-61.3v452.3zM29.3 88.2c43.7-1.4 186-.3 307.5 61.3v457.3c-45.9-20.2-161.1-63.5-307.5-66.3V88.2zm660-28.4c-7.7-.7-185.4-13.5-338 64.6-152.6-78-330.2-65.2-337.8-64.5C5.9 60.4 0 66.7 0 74.3v480.5c0 8 6.6 14.5 14.6 14.5 187.1 0 328.6 72.5 330 73.2 2.1 1.1 4.4 1.6 6.8 1.6.6 0 1.2-.4 1.8-.5 1.7-.1 3.4-.5 4.9-1.2l.7-.4h.1c8.6-4.3 147-72.8 329.1-72.8 8.1 0 14.6-6.5 14.6-14.6V74.2c.2-7.6-5.7-13.8-13.3-14.4z" clip-rule="evenodd" style="fill: #019df4;"/></svg>
