<?xml version="1.0" encoding="UTF-8"?>
<svg xmlns="http://www.w3.org/2000/svg" viewBox="0 0 702.8 702.8"><path fill="#019df4" fill-rule="evenodd" d="M689.3 59.7c-7.6-.6-185.3-13.5-338 64.7C198.7 46.3 21.1 59 13.5 59.7 5.9 60.3 0 66.6 0 74.2v480.5c0 8.1 6.6 14.6 14.6 14.6 187.1 0 328.6 72.5 330 73.2 2.1 1.1 4.4 1.7 6.8 1.7.9 0 1.8-.6 2.8-.8 1.4-.3 2.8-.3 4-1l.6-.3h.2l.1-.1c9-4.5 147.3-72.7 329.1-72.7 8.1 0 14.6-6.5 14.6-14.6V74.2c0-7.6-5.9-13.9-13.5-14.5" clip-rule="evenodd" style="fill: #019df4;"/></svg>
