<?xml version="1.0" encoding="UTF-8"?>
<svg xmlns="http://www.w3.org/2000/svg" viewBox="0 0 702.8 702.8"><path fill="#019df4" fill-rule="evenodd" d="M573.8 568.7c-66.8 0-99.2-34-99.2-103.8 0-43.5 12.6-73 38.2-89.2l47.1 95.7c2.6 5.4 7.9 8.4 13.2 8.4 2.4 0 4.7-.6 6.8-1.7 7.4-4.1 10.2-13.4 6.4-20.9L540.9 365c10-2.3 20.6-3.8 32.9-3.8 66.8 0 99.3 34 99.3 103.8-.1 69.7-32.6 103.7-99.3 103.7zM347.6 413.8c-2.3 0-4.3.3-6.4.5l-76.8-164.2h171.1l-81.4 164.2c-2.1-.2-4.1-.6-6.5-.5zm0 80.6c-17 0-23.6-6.9-23.6-24.8 0-17.8 6.6-24.8 23.6-24.8 17.1 0 23.7 7 23.7 24.8 0 17.9-6.6 24.8-23.7 24.8zM129 568.7c-66.8 0-99.2-34-99.2-103.8S62.2 361.1 129 361.1c11.5 0 21.8 1.4 31.3 3.5L115 457.3c-2.4 4.8-2.1 10.5.6 15.2 2.6 4.6 7.4 7.4 12.7 7.4h99.1c-4.7 59.4-36.7 88.8-98.4 88.8zm98.3-119.9h-74.7l36-73.8c23.1 13.9 35.7 38.5 38.7 73.8zm12.8-179.5l72.8 155.6c-7.6 6.2-13.1 14.5-15.8 24h-40.2c-3.5-47.8-22.3-82.3-55-101.2l38.2-78.4zM573.7 330c-17.4 0-32.8 2.5-46.8 6.7l-52.1-105.8v-97c13.9-1.5 34.5-1.4 45.3 7.7 3.3 2.8 7.7 7.8 7.7 19.9-.2 8.4 6.5 15.3 14.9 15.5 8.4-.2 15-7.1 14.9-15.5 0-23.5-10.2-37-18.8-44.2-28.1-23.6-76.5-13.2-82-11.9-6.9 1.8-11.7 8.1-11.6 15.2v98.5H249.8l-26.4-56.3h34.3c8.4-.2 15.1-7.2 14.9-15.5.2-8.4-6.5-15.4-14.9-15.5H158c-8.4.2-15 7.1-14.9 15.5-.2 8.4 6.5 15.4 14.9 15.6h32.3l33.4 71.5-49.8 102c-14.7-4.2-29.8-6.3-45.1-6.2C45.8 330 0 377.9 0 464.9c0 87 45.8 134.9 129 134.9 78.2 0 122.8-42.7 128-119.9h38c3.2 25.3 18.4 41.3 42.5 44.8l24.3 51c2.5 5.3 7.7 8.6 13.3 8.6h29.5c8.4-.2 15.1-7.2 14.9-15.5.2-8.4-6.5-15.4-14.9-15.6h-20.3L369.4 522c20.2-7.3 31.7-25.7 31.7-52.3 0-20-6.7-35.3-18.7-44.7L460 268.6l39.3 79.8c-35.4 21.4-54.5 60.8-54.5 116.6 0 87 45.8 134.9 129 134.9s129-47.9 129-134.9S657 330 573.7 330z" clip-rule="evenodd" style="fill: #019df4;"/></svg>
