<?xml version="1.0" encoding="UTF-8"?>
<svg xmlns="http://www.w3.org/2000/svg" viewBox="0 0 702.8 702.8"><path fill="#019df4" fill-rule="evenodd" d="M568.8 553.9c-61.2 0-89.7-29.7-89.7-93.5 0-37.1 9.9-62.3 29.9-77.2l42.3 85.7c3.1 6.5 9.7 10.6 16.8 10.7 2.9 0 5.9-.7 8.7-2.2 9.4-5.2 13-17 8.2-26.6l-40.5-81.9c7.5-1.3 15.4-2 24.3-2 61.3 0 89.8 29.7 89.8 93.6 0 63.7-28.5 93.4-89.8 93.4zM347.7 406c-1.3 0-2.4.3-3.7.3l-70.7-150.5h153.1l-74.8 150.5c-1.3 0-2.5-.2-3.9-.3zm0 39.5c14.3 0 18.8 4.8 18.8 19.6 0 15-4.4 19.6-18.8 19.6s-18.8-4.6-18.8-19.6c0-14.9 4.6-19.6 18.8-19.6zM133.9 553.9c-61.2 0-89.8-29.7-89.8-93.5s28.5-93.6 89.8-93.6c8.2 0 15.7.6 22.8 1.7L116.4 451c-3 6.1-2.7 13.3.8 19.2 3.4 5.8 9.5 9.4 16.1 9.4h89.3c-5.5 50.5-34 74.3-88.7 74.3zm58.6-171.7c17 12 26.9 31 30 57.9h-58.4l28.4-57.9zM242.6 280l65.8 139.9c-6 5.6-10.6 12.5-13.3 20.3H266c-4.3-45.1-22.5-78.9-53.5-98.5l30.1-61.7zm326.2 41.4c-16.5 0-31.1 2.5-44.7 6.2l-47.7-96.3v-89.2c13-1.1 29 0 37.2 6.9 2.7 2.3 5.8 6.1 5.8 15.8 0 10.9 8.5 19.7 18.9 19.7 10.7-.2 19.1-9 18.9-19.7 0-24.6-10.9-38.9-20-46.5-29.1-24.4-78.4-13.7-83.9-12.5-8.8 2.2-14.9 10.2-14.8 19.2v91.4H254.8l-21.4-45.7h26.5c10.7-.2 19.1-9 18.9-19.7.2-10.7-8.2-19.5-18.9-19.7h-97.6c-10.7.2-19.1 9-18.9 19.7 0 10.9 8.5 19.7 18.9 19.7h28.9l30.5 65-44.7 91.5c-14-3.8-28.5-5.7-43-5.8C49.2 321.4.6 372.1.6 460.4S49.2 599.3 134 599.3c78.3 0 125.2-43.6 132-119.8h26.5c4.2 24 19.2 39.4 42.5 43.4l22.7 47.3c3.2 6.7 9.8 10.9 16.9 10.9h28.9c10.7-.2 19.1-9 18.9-19.6v-.1c.2-10.7-8.2-19.5-18.9-19.7h-17.3L375 518.3c18.7-8.7 29.4-27.1 29.4-53.2 0-19.6-6.1-34.9-17-45l70.2-141 31.4 63.5c-34.6 22.7-53.4 63-53.4 117.9 0 88.3 48.6 139 133.3 139 84.8 0 133.4-50.6 133.4-139-.1-88.4-48.7-139.1-133.5-139.1z" clip-rule="evenodd" style="fill: #019df4;"/></svg>
