<?xml version="1.0" encoding="UTF-8"?>
<svg xmlns="http://www.w3.org/2000/svg" viewBox="0 0 705.7 702.8"><g fill="#019df4"><path d="M481.1 702.3h-352c-41.7 0-73.9-11.8-96-35.1-20.8-22-31.4-53-31.4-92.2V129.1C1.8 90 12.4 59 33.2 36.9c22-23.3 54.3-35.1 96-35.1h352c41.7 0 73.9 11.8 96 35.1 20.8 22 31.4 53 31.4 92.2v183.2c0 5.5-4.5 10-10 10s-10-4.5-10-10V129.1c0-49-18.6-107.3-107.3-107.3h-352C40.6 21.8 22 80.2 22 129.1V575c0 49 18.6 107.3 107.3 107.3h352c88.7 0 107.3-58.4 107.3-107.3V451.7c0-5.5 4.5-10 10-10s10 4.5 10 10V575c0 39.2-10.5 70.2-31.4 92.2-22.1 23.3-54.4 35.1-96.1 35.1z" style="fill: #019df4;"/><path d="M481.1 174.3h-352c-5.5 0-10-4.5-10-10s4.5-10 10-10h352c5.5 0 10 4.5 10 10s-4.5 10-10 10zM481.1 299.5h-352c-5.5 0-10-4.5-10-10s4.5-10 10-10h352c5.5 0 10 4.5 10 10s-4.5 10-10 10zM482.9 424.6H129.1c-5.5 0-10-4.5-10-10s4.5-10 10-10h353.8c5.5 0 10 4.5 10 10s-4.5 10-10 10zM380.4 549.8H129.1c-5.5 0-10-4.5-10-10s4.5-10 10-10h251.2c5.5 0 10 4.5 10 10s-4.4 10-9.9 10z" style="fill: #019df4;"/><path d="M363.8 608.5c-5.5 0-10-4.5-10-10 0-1.1.2-2.2.5-3.2l35.4-105.5c.6-1.7 1.5-3.2 2.9-4.3 68.9-60.8 201.6-178.1 210.7-187.3 16.2-16.2 33.8-18.6 45.8-17.7 31.9 2.3 56.6 28.8 56.6 60.8 0 15.5-6.3 29.8-18 41.4-12 11.8-203.5 181.2-211.6 188.4-1 .9-2.2 1.6-3.5 2L367 607.9c-1.1.4-2.1.5-3.2.6zm44-109.8l-28.2 84 84.7-28c69.3-61.3 200-177.2 209.3-186.3 8-7.9 12.1-17 12.1-27.2-.1-10.8-4.4-21.2-12-28.9-7-6.9-16.3-11.1-26.1-11.9-7.8-.6-19.3 1-30.2 11.9C606 323.8 430 479.2 407.8 498.7zm61.6 64.8z" style="fill: #019df4;"/></g></svg>
