<?xml version="1.0" encoding="UTF-8"?>
<svg xmlns="http://www.w3.org/2000/svg" viewBox="0 0 706.4 703.1"><g fill="#019df4"><path d="M478.3 703.1H134.9c-43.3 0-77.2-12.5-100.6-37.3-22-23.3-33.2-55.8-33.2-96.5V136.9c0-85 50-135.8 133.8-135.8h343.4c83.8 0 133.8 50.8 133.8 135.8v172.5c0 11-9 20-20 20s-20-9-20-20V136.9c0-30.4-7.6-54-22.5-70.2-15.6-17-39.6-25.6-71.3-25.6H134.9c-31.7 0-55.7 8.6-71.3 25.6-14.9 16.2-22.5 39.8-22.5 70.2v432.4c0 62.2 31.6 93.8 93.8 93.8h343.4c62.2 0 93.8-31.6 93.8-93.8V458.4c0-11 9-20 20-20s20 9 20 20v110.9c0 40.7-11.2 73.2-33.2 96.5-23.4 24.7-57.3 37.3-100.6 37.3z" style="fill: #019df4;"/><path d="M478.3 191H136.9c-11 0-20-9-20-20s9-20 20-20h341.4c11 0 20 9 20 20s-9 20-20 20zM478.3 312.4H136.9c-11 0-20-9-20-20s9-20 20-20h341.4c11 0 20 9 20 20s-9 20-20 20zM477.9 433.8h-341c-11 0-20-9-20-20s9-20 20-20h341c11 0 20 9 20 20s-9 20-20 20zM374.4 555.2H136.9c-11 0-20-9-20-20s9-20 20-20h237.5c11 0 20 9 20 20s-9 20-20 20z" style="fill: #019df4;"/><path d="M364.5 612.1c-11 0-20-8.9-20-20 0-2.2.3-4.3 1-6.4l34.3-102.3c1.1-3.3 3.1-6.3 5.7-8.6 77.5-68.4 195.8-173.1 203.9-181.2 30.2-30.2 72.8-23.7 96.6 0 12.9 13.1 20.2 30.7 20.3 49.1-.1 17.8-7.2 34.2-20.6 47.4-11.5 11.4-185.7 165.6-205.5 183.1-2 1.8-4.4 3.2-7 4l-102.5 33.9c-2 .6-4.1 1-6.2 1zm51.6-110.8l-19.9 59.3 60.6-20c77.5-68.6 192.9-170.9 201-178.9 5.7-5.7 8.7-12.1 8.7-19.1-.1-7.7-3.2-15.1-8.6-20.7-5.6-5.6-23.6-16.4-40 0-11.1 11-169.2 150.6-201.8 179.4zm50.9 57z" style="fill: #019df4;"/></g></svg>
