<?xml version="1.0" encoding="UTF-8"?>
<svg xmlns="http://www.w3.org/2000/svg" viewBox="0 0 706.4 703.1"><path fill="#019df4" d="M686.1 293.6c-11.9-11.7-27.5-18.9-44.1-20.2-10.2-.8-20.4.9-29.9 4.9V136.9c0-40.7-11.2-75.2-33.2-98.5-23.4-24.8-57.3-37.3-100.6-37.3H134.9c-43.3 0-77.2 12.5-100.6 37.3-22 23.3-33.2 57.8-33.2 98.5v432.4c0 40.7 11.2 73.2 33.2 96.5 23.4 24.8 57.2 37.3 100.6 37.3h343.4c43.3 0 77.2-12.5 100.6-37.3 22-23.3 33.2-55.8 33.2-96.5v-113c37.3-33.2 69-61.5 73.8-66.2 13.4-13.2 20.5-29.6 20.6-47.4-.2-18.4-7.5-36-20.4-49.1zM136.9 151h341.4c11 0 20 9 20 20s-9 20-20 20H136.9c-11 0-20-9-20-20s9-20 20-20zm0 121.4h341.4c11 0 20 9 20 20s-9 20-20 20H136.9c-11 0-20-9-20-20s9-20 20-20zm0 121.4h340.4c-14.9 13.2-30.3 26.8-45.3 40H136.9c-11 0-20-9-20-20s9-20 20-20zm218.9 161.4H136.9c-11 0-20-9-20-20s9-20 20-20h232.3l-13.4 40zm302-193.6c-8.1 8-123.4 110.3-201 178.9l-60.6 20 19.9-59.3c32.6-28.8 190.7-168.4 201.7-179.4 6.3-6.3 13.4-9.1 21.2-8.6 15.4 1.1 27.3 13.8 27.4 29.2 0 7.1-2.9 13.6-8.6 19.2z" style="fill: #019df4;"/></svg>
