<?xml version="1.0" encoding="UTF-8"?>
<svg xmlns="http://www.w3.org/2000/svg" viewBox="0 0 702.8 702.8"><path fill="#019df4" fill-rule="evenodd" d="M446 447.2c41.2-25.2 61.2-68.1 61.2-131 0-45.8-14.6-152.8-149.7-155.7-5.6-.2-11.4-.2-16.7-.2h-1.3c-54.8.3-146.7 20.8-146.7 154.9 0 63.1 20.5 107.6 61.1 132.2l21.1 12.7.2 24.4.3 39.7c0 5.4.8 8.1 1.2 9.1 2.9.9 12.1 3 37.9 3h71.3c25.7 0 35.3-1.9 38.5-2.9.8-2.9 1.1-5.9 1.1-8.9l-.3-39.7-.1-24.7c-.3 0 20.9-12.9 20.9-12.9zm-87.5-330.7c39.5.8 193.3 16.3 193.3 199.7 0 92.2-38.8 141.8-82.3 168.4l.3 40c0 18.3-5.2 32.5-15.7 41.9-10.2 9.2-25.7 13.9-68.4 13.9h-71.3c-41.7 0-57.3-4.7-67.5-13.9-10.7-9.4-16.1-23.6-16.1-41.9l-.3-39.8c-43.5-26.4-82.3-76.4-82.3-169.7 0-184.8 150.6-198.6 191.1-198.9 6.2 0 13.1 0 19.2.3zm-21.8 66.7c68.1 1.5 143.2 39.5 148.6 141.8.6 12.2-8.9 22.5-21.1 23.1H463c-11.8.1-21.5-9.1-22.2-20.8-4.6-88.4-75.3-99.5-105.4-100.1-4-.1-8.1.1-12.2-.1-12.2.1-22.2-9.8-22.3-22 0-12.2 10-22 22.3-22 4.4 0 9.3 0 13.5.1zm110.6 414.9c12.3 0 22.3 9.9 22.3 22 0 12.2-10 22-22.3 22h-189c-12.2.1-22.2-9.8-22.3-22 0-12.2 10-22 22.3-22h189zm-25.5 60.7c12.3 0 22.3 9.9 22.3 22 0 12.2-10 22-22.3 22H278.1c-12.2.1-22.2-9.8-22.3-22 0-12.2 10-22 22.3-22h143.7zM348.6 95.2c-12.2.1-22.2-9.8-22.3-22V22c0-12.2 10-22 22.3-22s22.3 9.8 22.3 22v51.3c-.1 12.1-10 21.9-22.3 21.9zm182.2 58.9c-5.9 0-11.5-2.3-15.7-6.4-8.6-8.4-8.7-22.2-.3-30.8l.3-.3 36.6-36.3c8.7-8.6 22.8-8.6 31.5 0 8.6 8.5 8.7 22.3.2 30.9l-.2.2-36.7 36.2c-4.1 4.2-9.8 6.5-15.7 6.5zm-351.5-.1c-8.7 8.6-22.8 8.6-31.5 0l-36.6-36.2c-8.6-8.4-8.7-22.3-.3-30.9l.3-.3c8.7-8.6 22.7-8.6 31.5 0l36.6 36.3c8.6 8.5 8.7 22.3.2 30.9l-.2.2zm-75.9 129.9c12.3 0 22.3 9.9 22.3 22 0 12.2-10 22-22.3 22H51.6c-12.2.1-22.2-9.8-22.3-22 0-12.2 10-22 22.3-22h51.8zm547.8-2.6c12.3 0 22.3 9.8 22.3 22s-10 22-22.3 22h-51.8c-12.2.1-22.2-9.8-22.3-22 0-12.2 10-22 22.3-22h51.8z" clip-rule="evenodd" style="fill: #019df4;"/></svg>
