<?xml version="1.0" encoding="UTF-8"?>
<svg xmlns="http://www.w3.org/2000/svg" viewBox="0 0 702.8 702.8"><path fill="#019df4" fill-rule="evenodd" d="M447.3 598.1c12.3 0 22.3 9.9 22.3 22s-10 22-22.3 22H258.4c-12.3 0-22.3-9.9-22.3-22s10-22 22.3-22h188.9zm-25.5 60.7c12.3 0 22.3 9.9 22.3 22s-10 22-22.3 22H278.1c-12.3 0-22.3-9.9-22.3-22s10-22 22.3-22h143.7zM348.6 95.2c-12.3 0-22.3-9.9-22.3-22V22c0-12.1 10-22 22.3-22s22.3 9.9 22.3 22v51.2c-.1 12.1-10.1 22-22.3 22zm182.2 58.9c-5.7 0-11.4-2.1-15.7-6.4-8.7-8.6-8.7-22.5 0-31.1l36.7-36.2c8.7-8.6 22.8-8.6 31.5 0s8.7 22.5 0 31.1l-36.7 36.2c-4.4 4.3-10.1 6.4-15.8 6.4zm-351.5-.1c-4.3 4.3-10.1 6.4-15.7 6.4-5.7 0-11.4-2.2-15.8-6.4l-36.7-36.2c-8.7-8.6-8.7-22.5 0-31.1 8.7-8.6 22.8-8.6 31.5 0l36.7 36.2c8.7 8.6 8.7 22.5 0 31.1zm-75.9 129.9c12.3 0 22.3 9.9 22.3 22s-10 22-22.3 22H51.5c-12.3 0-22.3-9.9-22.3-22s10-22 22.3-22h51.9zm547.9-2.6c12.3 0 22.3 9.9 22.3 22s-10 22-22.3 22h-51.8c-12.3 0-22.3-9.9-22.3-22s10-22 22.3-22h51.8zM464.2 348c12.3-.6 21.7-10.9 21.1-23.1-5.4-102.3-80.5-140.3-148.6-141.8-4.2-.2-9.1-.2-13.5-.2-12.3 0-22.3 9.9-22.3 22s10 22 22.3 22c4.1.3 8.1 0 12.2.2 30.2.6 100.8 11.7 105.4 100.1.6 11.7 10.4 20.8 22.2 20.8.5.1.8.1 1.2 0zM358.5 116.4c39.4.9 193.3 16.4 193.3 199.7 0 92.2-38.8 141.8-82.3 168.4l.3 40c0 18.3-5.2 32.5-15.8 41.9-10.1 9.2-25.6 13.8-68.3 13.8h-71.3c-41.7 0-57.3-4.7-67.5-13.8-10.8-9.4-16.2-23.6-16.2-41.9l-.3-39.7c-43.5-26.4-82.3-76.4-82.3-169.7 0-184.8 150.6-198.6 191.1-198.8 6.3-.1 13.2-.1 19.3.1z" clip-rule="evenodd" style="fill: #019df4;"/></svg>
