<?xml version="1.0" encoding="UTF-8"?>
<svg xmlns="http://www.w3.org/2000/svg" viewBox="0 0 702.8 702.8"><path fill="#019df4" fill-rule="evenodd" d="M456.5 462.3c46.5-28.4 70.1-77.8 70.1-147 0-40.1-12.1-171.2-168.7-174.6-5.8-.2-12.1-.2-17.9-.2h-1c-49.9.3-165.9 17.8-165.9 173.7 0 70.2 23.6 120.1 70 148.2l14.3 8.7v70.5c0 6.9 1.1 16.1 6.4 20.7 3.7 3.3 14.8 6.7 49.3 6.7h73c28.4 0 45.1-2.1 49.8-6.4 5.3-4.7 6.4-14 6.4-21V471l14.2-8.7zm-97.9-351.1c40.4.9 198 16.8 198 204.1 0 94.2-39.7 144.9-84.3 172.1v54.2c0 18.7-5.3 33.3-16.1 42.9-10.4 9.3-26.3 14.1-70 14.1h-73c-42.7 0-58.7-4.8-69.1-14.1-11.1-9.6-16.6-24.2-16.6-42.9v-54c-44.6-26.9-84.3-78.1-84.3-173.4 0-188.9 154.3-203 195.8-203.2 6.4 0 13.4 0 19.6.2zm-9.6 69.2c22.9.5 138 9.6 144.8 137.6.4 8.2-5.9 15.1-14.2 15.5h-.8c-7.9 0-14.5-6.1-15-14-5.3-99.4-89.9-109-115.7-109.6-4-.1-8.5-.1-12.6-.1-8.3 0-15-6.6-15-14.8 0-8.2 6.7-14.8 15-14.8 4.4.1 9.2.1 13.5.2zM449.6 619c8.3 0 15 6.6 15 14.8 0 8.2-6.7 14.8-15 14.8H256.1c-8.3 0-15-6.6-15-14.8 0-8.2 6.7-14.8 15-14.8h193.5zm-26.1 54.3c8.3 0 15 6.6 15 14.8s-6.7 14.8-15 14.8H276.3c-8.3 0-15-6.6-15-14.8s6.7-14.8 15-14.8h147.2zm-75-591.4c-8.3 0-15-6.6-15-14.8V14.8c0-8.2 6.7-14.8 15-14.8s15 6.6 15 14.8v52.3c0 8.2-6.8 14.8-15 14.8zm213.6-2.1c5.8-5.8 15.3-5.8 21.2 0 5.8 5.8 5.8 15.1 0 20.9l-37.6 37c-2.9 2.9-6.7 4.3-10.6 4.3-3.8 0-7.7-1.4-10.6-4.3-5.8-5.8-5.8-15.1 0-20.9l37.6-37zm-413.7 64.4l-37.6-37c-5.8-5.8-5.8-15.1 0-20.9 5.8-5.8 15.3-5.8 21.2 0l37.6 37c5.8 5.8 5.8 15.1 0 20.9-2.9 2.9-6.8 4.3-10.6 4.3s-7.7-1.4-10.6-4.3zm-51 146c8.3 0 15 6.6 15 14.8 0 8.2-6.7 14.8-15 14.8H44.3c-8.3 0-15-6.6-15-14.8 0-8.2 6.7-14.8 15-14.8h53.1zm561.1-2.8c8.3 0 15 6.6 15 14.8 0 8.2-6.7 14.8-15 14.8h-53.1c-8.3 0-15-6.6-15-14.8 0-8.2 6.7-14.8 15-14.8h53.1z" clip-rule="evenodd" style="fill: #019df4;"/></svg>
