<?xml version="1.0" encoding="UTF-8"?>
<svg xmlns="http://www.w3.org/2000/svg" viewBox="0 0 702.8 702.8"><g fill="#019df4"><path d="M281 561.1C126.3 561.1.9 435.7.9 281c0-74.3 29.5-145.5 82-198.1C194.1-24.7 371.4-21.8 479 89.3c105.2 108.6 105.2 281.1 0 389.7-52.4 52.7-123.7 82.3-198 82.1zm0-520.2C148.4 40.9 40.9 148.4 40.9 281c0 63.7 25.3 124.7 70.3 169.8 94.1 93.4 246.2 92.8 339.6-1.3 92.9-93.6 92.9-244.6 0-338.2C405.8 66 344.7 40.7 281 40.9z" style="fill: #019df4;"/><path d="M681.9 701.9c-5.3 0-10.4-2.1-14.1-5.9l-217-217c-7.5-8.1-6.9-20.8 1.2-28.3 7.7-7 19.4-7 27.1 0l217 217c7.8 7.8 7.8 20.5 0 28.3-3.9 3.8-8.9 5.9-14.2 5.9z" style="fill: #019df4;"/></g></svg>
