<?xml version="1.0" encoding="UTF-8"?>
<svg xmlns="http://www.w3.org/2000/svg" viewBox="0 0 703 703"><g fill="#019df4"><path d="M278.8 557.5C124.8 557.5 0 432.7 0 278.7c0-73.9 29.4-144.8 81.6-197.1C189.9-27.8 366.4-28.8 475.9 79.4s110.5 284.7 2.2 394.2l-2.2 2.2c-52.2 52.5-123.2 81.9-197.1 81.7zm0-537.5C135.9 20 20 135.8 20 278.7c0 68.6 27.3 134.4 75.8 183 101 101.1 264.9 101.1 365.9 0s101.1-264.9 0-365.9c-48.4-48.7-114.3-76-182.9-75.8z" style="fill: #019df4;"/><path d="M693 703c-2.7 0-5.2-1.1-7.1-3L461.7 475.9c-3.8-4-3.7-10.3.2-14.1 3.9-3.7 10-3.7 13.9 0L700 685.9c3.9 3.9 3.9 10.2.1 14.1-1.9 1.9-4.4 3-7.1 3z" style="fill: #019df4;"/></g></svg>
