<?xml version="1.0" encoding="UTF-8"?>
<svg xmlns="http://www.w3.org/2000/svg" viewBox="0 0 702.8 702.8"><path fill="#019df4" fill-rule="evenodd" d="M529.3 557.3c40.6-2 143-20.3 143-150.2 0-129.1-101.7-148.5-143-151v301.2zm-30.5 10.6V197.4H30.5v370.4c0 36.7 8.8 62.9 26.9 80.1 18 17.1 45 25.5 82.8 25.5h248.9c37.8 0 64.8-8.3 82.8-25.5 18.1-17.2 26.9-43.4 26.9-80zm204-160.9c0 161.4-137.3 178.1-174.8 179.7-3 35.1-14.1 62.5-34.6 82.2-23.9 22.8-58 33.9-104.2 33.9h-249c-46.2 0-80.3-11.1-104.2-34-24.3-23-36-56-36-100.9V182.8c0-8.1 6.8-14.7 15.2-14.7H514c8.4 0 15.3 6.6 15.3 14.6v43.9c40.4 2.4 173.5 22 173.5 180.4zM198.6 125c0-6-4-12.4-8.7-19.7-6.1-9.7-13.1-20.6-13.2-34.8-.1-14.4 6.9-25.6 13.1-35.5 4.7-7.5 8.8-14.1 8.8-20.2 0-8.1 6.8-14.7 15.2-14.7 8.4 0 15.3 6.6 15.3 14.6 0 14.3-7 25.5-13.1 35.3-4.7 7.6-8.8 14.1-8.8 20.2.1 6.1 4.1 12.4 8.8 19.7 6.1 9.7 13.2 20.7 13.2 35 0 8.1-6.9 14.6-15.3 14.6-8.3.2-15.1-6.3-15.3-14.5zm98.2 0c0-1.4-3.4-5.7-5.2-8.1-5-6.4-11.3-14.4-11.4-25.5-.1-11.2 6.2-19.5 11.3-26.1 2-2.6 5.3-6.9 5.3-8.4 0-8.1 6.9-14.7 15.2-14.7 8.2-.2 15.1 6.3 15.3 14.6v.1c0 11.2-6.3 19.3-11.3 25.9-1.9 2.4-5.3 6.9-5.3 8.4 0 1.4 3.3 5.6 5.3 8.1 4.8 6.1 11.4 14.6 11.4 25.8 0 8.1-6.9 14.6-15.3 14.6-8.3 0-15.1-6.5-15.3-14.7z" clip-rule="evenodd" style="fill: #019df4;"/></svg>
