<?xml version="1.0" encoding="UTF-8"?>
<svg xmlns="http://www.w3.org/2000/svg" viewBox="0 0 702.8 702.8"><path fill="#019df4" fill-rule="evenodd" d="M533.2 544.8c46-4.1 124.3-27.4 124.3-139 0-111.1-77.9-135.1-124.3-139.6v278.6zm0-322.4c47.8 4.3 169.6 30.2 169.6 183.4 0 155.9-125.6 179.5-171.5 182.9-3.9 33.2-15.4 59.4-35.6 78.7-25 23.8-60.1 35.4-107.5 35.4H144.8c-47.4 0-82.5-11.6-107.5-35.4-25.2-24-37.4-58.1-37.4-104.1V186.4c0-12.1 10.2-21.9 22.7-21.9h487.8c12.5 0 22.7 9.8 22.7 21.9v36zm-338.5-94c0-7.5-2.9-12-8.4-20.1-5.9-8.4-13.2-18.9-13.3-34-.1-15.4 7.5-25.6 13-33.2 5.3-7.2 8.8-12 8.7-22.1-.1-10.5 8.6-19 19.5-19.1h.2c10.8 0 19.6 8.4 19.7 18.7.2 22.3-9.5 35.6-16 44.4-4.4 5.9-5.8 8.1-5.7 11 0 3.6 2.3 7 6.6 13.2 6.4 9.2 15.2 21.8 15.1 41.2 0 10.5-8.8 18.9-19.7 18.9-10.9.1-19.7-8.4-19.7-18.9zm97.6 1.7c-.6-2.4-4.6-8.5-6.7-11.7-4.9-7.5-9.6-14.5-9.8-22.8-.4-10.2 5.7-18.9 11-26.5 1.9-2.8 5.2-7.4 5.7-9.2-.5-10.5 7.8-18.4 18.6-18.9 10.3.3 20 8.5 20.5 19 .6 11.9-6.5 22-12.2 30.2-.9 1.3-2 2.9-3 4.4.7 1.1 1.5 2.3 2.4 3.6 5.3 8.1 12 18.1 12.7 29.1.7 10.5-7.4 19.5-18.3 20.2-.5 0-.9.1-1.4.1-10.1-.2-18.7-7.7-19.5-17.5z" clip-rule="evenodd" style="fill: #019df4;"/></svg>
