<?xml version="1.0" encoding="UTF-8"?>
<svg xmlns="http://www.w3.org/2000/svg" viewBox="0 0 702.8 702.8"><path fill="#019df4" fill-rule="evenodd" d="M651 642.9c0 8.5-6.3 16-13.5 16H65.1c-7.2 0-13.4-7.5-13.4-16V234.2c0-8.5 6.2-16 13.4-16h180.1v87.9c0 12.1 11.6 21.9 25.9 21.9h149.2c14.3 0 25.9-9.8 25.9-21.9l-.1-87.9h191.4c7.2 0 13.5 7.5 13.5 16v408.7zM101.5 55.2c.5-1.7.7-3.4.7-5.1 0-3.4 3.3-6.2 7.4-6.2h152.1l-13.8 130.5h-180l33.6-119.2zm293 163v65.9H297v-65.9h97.5zM374.6 44l16.6 130.3h-91.5L313.5 44h61.1zm226 6.1c0 1.8.2 3.5.8 5.2l34.5 119H443.2L426.7 43.8h166.5c4.1.1 7.4 2.8 7.4 6.3zm101.1 174.3c.4-2.7.4-5.4-.4-8.2l-49-169.1c-1.9-26.2-27.6-47-59-47H109.6C78.1.1 52.3 21 50.6 47.2L3 216.4c-.1.5 0 .9-.1 1.4-1.7 5.3-2.8 10.8-2.8 16.6v408.7c0 33 29.2 59.9 65.2 59.9h572.4c36 0 65.2-26.9 65.2-59.9V234.4c-.1-3.6-.6-6.8-1.2-10z" clip-rule="evenodd" style="fill: #019df4;"/></svg>
