<?xml version="1.0" encoding="UTF-8"?>
<svg xmlns="http://www.w3.org/2000/svg" viewBox="0 0 702.8 702.8"><path fill="#019df4" fill-rule="evenodd" d="M667.4 649.1c0 13.1-10.2 23.8-22.7 23.8H58c-12.4 0-22.6-10.7-22.6-23.8V231.7c0-13.1 10.2-23.8 22.6-23.8h193.4V305c0 8.2 7.9 14.9 17.7 14.9h153c9.8 0 17.7-6.7 17.7-14.9l-.1-97.1h205.1c12.5 0 22.7 10.7 22.7 23.8v417.4h-.1zM86.6 47.1c.3-1.1.5-2.3.5-3.5 0-7.6 7.3-13.8 16.4-13.8h165.6L253.4 178H58c-3 0-5.8.4-8.6.8L86.6 47.1zm317.8 160.8v82.2H286.8l-.1-82.2h117.7zM383.2 30l18.9 148H288.8l15.7-148h78.7zm232.5 13.7c0 1.2.2 2.4.6 3.5L654.6 179c-3.3-.6-6.6-.9-9.9-.9H437.6L418.8 29.9h180.6c9 0 16.3 6.2 16.3 13.8zm86 177.7c.5-2.1.4-4.2-.1-6.3L651 41.7C649.9 18.5 627.1 0 599.3 0H103.5C75.6 0 52.9 18.5 51.7 41.7l-49 173.4c-.1.4 0 .9-.1 1.3-1.6 5-2.5 10.1-2.6 15.3v417.4c0 29.6 26 53.7 58 53.7h586.8c32 0 58-24.1 58-53.7V231.7c0-3.6-.4-7-1.1-10.3z" clip-rule="evenodd" style="fill: #019df4;"/></svg>
