<?xml version="1.0" encoding="UTF-8"?>
<svg xmlns="http://www.w3.org/2000/svg" viewBox="0 0 702.8 702.8"><path fill="#019df4" fill-rule="evenodd" d="M216.7 380.5c21.5-.4 57.4-8.7 57.4-59.9 0-4-.2-7.8-.7-11.4-4.8-41.5-37.8-48.5-57-48.9l-7.1-.1h-.1c-19.2.2-52.1 7-56 50.4-.3 3-.4 6.2-.4 9.5 0 49.3 31.1 60 57.1 60.4h6.8zm104-59.9c0 76.8-55.5 105.2-102.9 106-1.4 0-3.1.1-4.8.1h-3.5c-47.6-.7-103.1-29-103.1-106.6 0-4.7.2-9.2.6-13.5 6-67.6 58.7-92.1 101.9-92.5 2.9-.1 6.1 0 8.7.1 44.5 1.1 94.7 25.2 102.2 89.8.5 5.1.9 10.7.9 16.6zM495 380.5c21.5-.4 57.4-8.7 57.4-59.9 0-4-.2-7.8-.7-11.4-4.8-41.5-37.8-48.5-57-48.9l-7.1-.1h-.1c-19.2.2-52.1 7-56 50.4-.3 3-.4 6.2-.4 9.5 0 49.3 31.1 60 57.1 60.4h6.8zm103-76.6c.6 5.2 1 10.8 1 16.7 0 76.8-55.5 105.2-102.9 106-1.4 0-3.1.1-4.8.1h-3.5c-47.6-.7-103.1-29-103.1-106.6 0-4.7.2-9.2.6-13.5 6-67.6 58.7-92.1 101.9-92.5 2.6 0 6 0 8.7.1 44.4 1 94.6 25.1 102.1 89.7zM331.2 448.5c11.9 5 17.4 18.5 12.4 30.2l-13 30.6c-3.8 8.8-12.4 14.1-21.4 14.1-3 0-6.1-.6-9-1.8-11.9-5-17.4-18.5-12.4-30.2l13-30.6c5-11.7 18.7-17.1 30.4-12.3zm61.5 12.3l13 30.5c5 11.8-.6 25.3-12.4 30.2-2.9 1.2-6 1.8-9 1.8-9.1 0-17.7-5.3-21.5-14.1l-13-30.5c-5-11.8.6-25.3 12.4-30.2 11.8-4.9 25.5.5 30.5 12.3zm124.9 90c72.6-44.5 109.3-122.1 109.3-230.5 0-108-36.6-185.5-108.8-230.4C458 52.5 390.3 47.2 363.9 46.5c-9.1-.3-18.9-.3-27.9-.3h-1.5C256.6 46.6 75.8 74 75.8 318.6c0 110.2 36.7 188.4 109.2 232.5l22.2 13.5v49c0 10.9 1.7 25.3 10 32.5 7.8 7.1 21.6 10.6 39.4 10.6h190.5c12.5 0 29.2-1.7 38.4-10 8.3-7.4 10-22.1 10-33.1v-49.3l22.1-13.5zM365 .3c62.9 1.4 308.5 26.3 308.5 319.9 0 147.7-61.9 227.2-131.4 269.8v23.4c0 29.3-8.3 52.2-25.1 67.2-16.2 14.6-39.6 22.1-69.8 22.1H256.7c-30.3 0-54-7.5-70.2-22.1-17.2-15-25.8-37.9-25.8-67.2v-23.1C91.2 548 29.3 467.9 29.3 318.4 29.3 22.3 269.7.2 334.4-.1c9.9.1 21 .1 30.6.4z" clip-rule="evenodd" style="fill: #019df4;"/></svg>
