<?xml version="1.0" encoding="UTF-8"?>
<svg xmlns="http://www.w3.org/2000/svg" viewBox="0 0 702.8 702.8"><path fill="#019df4" fill-rule="evenodd" d="M198.9 388.2c20.7-.4 69-8.1 69-72 0-4.6-.2-9-.7-13-6-52.3-50.1-59-68.8-59.4l-7.8-.1c-18.8.2-63 6.5-67.9 61.3-.3 3.3-.4 6.9-.4 10.7 0 64.5 48.3 72.3 69.1 72.6l7.5-.1zm99.1-88.6c.6 5.2.9 10.7.9 16.5 0 74.6-53.6 102-99.6 102.8h-8.6c-48.2-.7-99.7-28.3-99.7-103.3 0-4.7.2-9.1.6-13.4 5.8-65.3 54.7-89 98.5-89.4l8.9.1c43.2 1 91.8 24.3 99 86.7zm212.2 88.6c20.6-.4 69-8.1 69-72 0-4.6-.3-9-.8-13.1-6-52.2-50.1-58.9-68.8-59.3l-7.8-.1h-.1c-18.7.2-63 6.5-67.8 61.3-.3 3.3-.5 6.9-.5 10.7 0 64.5 48.3 72.3 69.1 72.6l7.7-.1zm99.1-88.6c.6 5.3.9 10.7.9 16.5 0 74.6-53.6 102-99.6 102.8H502c-48.2-.7-99.7-28.3-99.7-103.3 0-4.7.2-9.1.6-13.4 5.8-65.4 54.7-89 98.5-89.4l8.9.1c43.2 1 91.8 24.3 99 86.7zm-281.1 156c7.9 3.3 11.6 12.3 8.3 20.1l-13 30.5c-3.7 7.7-12.9 11-20.7 7.4-7.2-3.4-10.7-11.8-7.9-19.3l13-30.5c3.4-7.8 12.5-11.5 20.3-8.2zm57.4 8.2l13 30.5c3.3 7.8-.4 16.8-8.2 20.1h-.1c-7.9 3.3-16.9-.4-20.3-8.2l-13-30.5c-3.3-7.8.3-16.8 8.2-20.2 0 0 .1 0 .1-.1 7.8-3.1 16.9.5 20.3 8.4zm140.2 100.1c77.4-47.5 116.7-129.5 116.7-243.6 0-262.7-212.9-287.7-278.2-289.1-9.3-.3-19.5-.3-28.8-.3h-1c-27.5.1-98 4.7-160.4 43.6-75.5 47.1-113.8 129.2-113.8 244 0 115.9 39.2 198.5 116.6 245.6l14.8 9v40.3c0 20.4 5.1 35.2 15.3 44 13.3 12.1 34.3 14.5 49.7 14.5h190.5c22.1 0 38.6-4.8 48.8-14.1 10.1-9 15-23.9 15-44.5v-40.6c.1.2 14.8-8.8 14.8-8.8zM365 .3c63 1.3 308.6 26.2 308.6 319.9 0 147.7-61.9 227.2-131.4 269.8v23.4c0 29.3-8.2 52.2-25.1 67.1-16.2 14.7-39.6 22.2-69.8 22.2H256.6c-30.3 0-54-7.5-70.2-22.2-17.2-15-25.8-37.8-25.8-67.2v-23.1C91.2 548 29.3 467.9 29.3 318.5 29.3 22.5 269.7.3 334.4 0c9.9 0 21 0 30.6.3z" clip-rule="evenodd" style="fill: #019df4;"/></svg>
