<?xml version="1.0" encoding="UTF-8"?>
<svg xmlns="http://www.w3.org/2000/svg" viewBox="0 0 800 800"><path fill="#019df4" d="M658.1 165.5H141.9c-51.1.1-92.5 41.5-92.6 92.6V659c.1 51.1 41.5 92.5 92.6 92.6h513.3c52.7-.1 95.4-42.8 95.5-95.5v-398c-.1-51.1-41.5-92.5-92.6-92.6zm-101.6 52.4c17.3 0 29 11.7 29 29.1 0 10.6-4.2 17.2-7.8 20.9s-10.3 8.2-21.2 8.2-17.5-4.5-21.2-8.2-7.8-10.2-7.8-20.9c0-17.4 11.7-29.1 29-29.1zm-312.5 0c17.3 0 29 11.7 29 29.1 0 10.6-4.2 17.2-7.8 20.9s-10.3 8.2-21.2 8.2-17.6-4.5-21.2-8.2-7.8-10.3-7.8-20.9c0-17.4 11.7-29.1 29-29.1zm223 416.5H331.8c-.9-2.5-1.2-6.5-1.2-9.9 0-13 3.4-21.7 12.4-32.5l41.2-50.2c23.6-28.5 33.5-42.5 33.5-60.1 0-9-2.8-15.8-8.4-20.5-6.5-5.6-17-8.1-32.2-8.1-13.9.2-27.8 1.5-41.5 4v-32.8c16.2-3.8 32.7-5.8 49.3-5.9 30.4 0 50.5 6.8 63.5 19.8 9.9 9.9 15.2 23.6 15.2 41.2 0 26.4-11.8 46.5-45.3 83.1l-36.9 40.3H467v31.6zm236.8-293.1H96.2c-9.9 0-18-6.5-18-14.5s8.1-14.5 18-14.5h607.5c9.9 0 18 6.5 18 14.5s-8 14.5-17.9 14.5z" style="fill: #019df4;"/></svg>
