<?xml version="1.0" encoding="UTF-8"?>
<svg xmlns="http://www.w3.org/2000/svg" viewBox="0 0 800 800"><path fill="#019df4" d="M663.6 751.1H135.5c-47.2 0-85.5-38.4-85.5-85.5V251.5c0-47.2 38.4-85.5 85.5-85.5h531.1c47.2 0 85.5 38.4 85.5 85.5v411.1c0 48.8-39.7 88.5-88.5 88.5zM135.5 185.7c-36.3 0-65.8 29.5-65.8 65.8v414.1c0 36.3 29.5 65.8 65.8 65.8h528.1c37.9 0 68.8-30.9 68.8-68.8V251.5c0-36.3-29.5-65.8-65.8-65.8H135.5z" style="fill: #019df4;"/><path fill="#019df4" d="M742.2 322H63.5c-5.5 0-9.9-4.4-9.9-9.9s4.4-9.9 9.9-9.9h678.8c5.5 0 9.9 4.4 9.9 9.9s-4.5 9.9-10 9.9zM338.4 627.3c0-4.3.8-8.3 2.5-11.9 1.7-3.6 5-8.4 9.9-14.4l48.7-59.5c12.4-15.3 21.1-27.7 26-37.4 5-9.6 7.4-19.2 7.4-28.7 0-12.8-3.8-22-11.5-27.4-7.6-5.5-19-8.2-34.1-8.2-14.9 0-29.8 1.6-44.6 4.7v-20.2c15.7-3.9 31.8-5.9 48.4-5.9 23.6 0 41.1 5.2 52.7 15.5 10.7 9.5 16.1 22.9 16.1 40.3 0 8.7-1.2 16.7-3.7 24-2.5 7.3-6.6 15.2-12.4 23.7-5.8 8.5-14.2 19.2-25.1 32.2L367.8 614h95.8v20.5h-124c-.8-2.6-1.2-4.9-1.2-7.2z" style="fill: #019df4;"/><g fill="#019df4"><path d="M244 229.4c-8.8 0-14.5 4.6-14.5 14.6 0 4.8 1.3 8.3 3.7 10.7 2.5 2.6 6.3 3.9 10.8 3.9s8.3-1.3 10.8-3.9c2.3-2.4 3.7-5.9 3.7-10.7 0-9.9-5.7-14.6-14.5-14.6z" style="fill: #019df4;"/><path d="M244 263.5c-6 0-10.9-1.8-14.3-5.3-3.3-3.4-5-8.2-5-14.1 0-12.2 7.2-19.5 19.4-19.5s19.4 7.3 19.4 19.5c0 5.9-1.7 10.7-5 14.1-3.6 3.4-8.5 5.3-14.5 5.3zm0-29.2c-6.6 0-9.6 3-9.6 9.7 0 3.3.8 5.8 2.3 7.3 1.5 1.6 4 2.4 7.3 2.4s5.8-.8 7.3-2.4c1.5-1.5 2.3-4 2.3-7.3 0-6.7-3-9.7-9.6-9.7z" style="fill: #019df4;"/></g><g fill="#019df4"><path d="M556.5 229.4c-8.8 0-14.5 4.6-14.5 14.6 0 4.8 1.3 8.3 3.7 10.7 2.5 2.6 6.3 3.9 10.8 3.9s8.3-1.3 10.8-3.9c2.3-2.4 3.7-5.9 3.7-10.7 0-9.9-5.7-14.6-14.5-14.6z" style="fill: #019df4;"/><path d="M556.5 263.5c-6 0-10.9-1.8-14.3-5.3-3.3-3.4-5-8.2-5-14.1 0-12.2 7.2-19.5 19.4-19.5 5.7 0 10.5 1.7 13.9 4.9 3.6 3.5 5.5 8.4 5.5 14.6 0 5.9-1.7 10.7-5 14.1-3.6 3.4-8.5 5.3-14.5 5.3zm0-29.2c-6.6 0-9.6 3-9.6 9.7 0 3.3.8 5.8 2.3 7.3 1.5 1.6 4 2.4 7.3 2.4s5.8-.8 7.3-2.4c1.5-1.5 2.3-4 2.3-7.3 0-3.4-.8-5.9-2.4-7.5-1.6-1.4-4-2.2-7.2-2.2z" style="fill: #019df4;"/></g></svg>
