<?xml version="1.0" encoding="UTF-8"?>
<svg xmlns="http://www.w3.org/2000/svg" viewBox="0 0 800 800"><path fill="#019df4" d="M655.2 751.6H141.9c-51 0-92.6-41.5-92.6-92.6V258.1c0-51 41.5-92.6 92.6-92.6h516.2c51 0 92.6 41.5 92.6 92.6v398c0 52.6-42.9 95.5-95.5 95.5zM141.9 203.9c-29.9 0-54.2 24.3-54.2 54.2V659c0 29.9 24.3 54.2 54.2 54.2h513.3c31.5 0 57.1-25.6 57.1-57.1v-398c0-29.9-24.3-54.2-54.2-54.2H141.9z" style="fill: #019df4;"/><path fill="#019df4" d="M721.8 341.3H75c-10.6 0-19.1-8.6-19.1-19.1S64.4 303 75 303h646.8c10.6 0 19.2 8.6 19.2 19.1s-8.7 19.2-19.2 19.2zM330.6 624.5c0-6.4.9-12.1 2.8-17.1 1.9-5 5.1-10.1 9.6-15.5l41.2-50.2c12.8-15.5 21.6-27.3 26.3-35.5 4.8-8.2 7.1-16.4 7.1-24.6 0-9.1-2.8-15.9-8.4-20.5-6.2-5.4-16.9-8.1-32.2-8.1-13.2 0-27.1 1.3-41.5 4v-32.9c6.6-1.7 14.4-3 23.4-4.2 9-1.1 17.6-1.7 25.9-1.7 29.1 0 50.3 6.6 63.5 19.8 10.1 10.1 15.2 23.9 15.2 41.2 0 13-3.3 25.5-9.9 37.4-6.6 11.9-18.4 27.1-35.3 45.7l-36.9 40.3H467v31.6H331.8c-.8-2.1-1.2-5.4-1.2-9.7z" style="fill: #019df4;"/><g fill="#019df4"><path d="M244 239.4c-8.8 0-14.5 4.6-14.5 14.6 0 4.8 1.3 8.3 3.7 10.7 2.5 2.6 6.3 3.9 10.8 3.9s8.3-1.3 10.8-3.9c2.3-2.4 3.7-5.9 3.7-10.7 0-9.9-5.7-14.6-14.5-14.6z" style="fill: #019df4;"/><path d="M244 283.1c-10.9 0-17.6-4.5-21.2-8.2-3.5-3.6-7.8-10.2-7.8-20.8 0-17.4 11.7-29.1 29-29.1s29 11.7 29 29.1c0 10.6-4.2 17.2-7.8 20.8-3.6 3.7-10.3 8.2-21.2 8.2zm.2-27.6zm-.4 0zm-1.2-1.4zm2.8-.2zm-2.8 0zm1.6-1.4z" style="fill: #019df4;"/></g><g fill="#019df4"><path d="M556.5 239.4c-8.8 0-14.5 4.6-14.5 14.6 0 4.8 1.3 8.3 3.7 10.7 2.5 2.6 6.3 3.9 10.8 3.9s8.3-1.3 10.8-3.9c2.3-2.4 3.7-5.9 3.7-10.7 0-9.9-5.7-14.6-14.5-14.6z" style="fill: #019df4;"/><path d="M556.5 283.1c-10.9 0-17.6-4.5-21.2-8.2-3.5-3.6-7.8-10.2-7.8-20.8 0-17.4 11.7-29.1 29-29.1 10.4 0 16.9 4.1 20.5 7.5 3.9 3.7 8.5 10.4 8.5 21.5 0 10.6-4.2 17.2-7.8 20.8-3.6 3.8-10.3 8.3-21.2 8.3zm.2-27.6zm-.4 0zm1.6-1.4zm-2.8 0zm0-.2zm2.8 0zm-1.6-1.4zm.4 0z" style="fill: #019df4;"/></g></svg>
