<?xml version="1.0" encoding="UTF-8"?>
<svg xmlns="http://www.w3.org/2000/svg" viewBox="0 0 702.8 702.8"><path fill="#019df4" fill-rule="evenodd" d="M672.5 260l-13.3 52.2c-1.6 6.4-8 10.3-14.3 8.7-.1 0-.1 0-.2-.1l-34.1-8.7 19.2-75.5 34.1 8.7c6.3 1.8 10.2 8.2 8.6 14.7zm-102.2 89.1c-2.1 8.4-10.6 13.6-19.1 11.5h-.2L101.3 246c-4.1-1-7.5-3.6-9.7-7.3-2.2-3.6-2.8-7.9-1.8-11.9l47-184.8c2.2-8.5 10.8-13.6 19.2-11.5l449.8 114.4c8.5 2.2 13.6 10.8 11.4 19.2.1.1-46.9 185-46.9 185zm-470.4 308c0 8.7-7.1 15.8-15.8 15.8H45.8C37 672.8 30 665.8 30 657V463.1c0-8.7 7.1-15.8 15.8-15.8h38.4c8.7 0 15.8 7.1 15.8 15.8v194zm597-421.4c-5.6-9.6-14.9-16.5-25.7-19.2l-34.1-8.7 9.2-36.2c6.2-24.5-8.6-49.4-33.1-55.7L163.4 1.4c-24.5-6.2-49.3 8.6-55.6 33.1l-47 184.9c-3 11.8-1.2 24.2 5 34.7C72.1 264.6 82 272 93.9 275l224.3 57.1L236.7 563H130.8c-.4 0-.6.2-1 .2V463.1c0-25.2-20.5-45.8-45.7-45.8H45.8C20.5 417.3 0 437.9 0 463.1V657c0 25.2 20.5 45.7 45.8 45.7h38.4c25.2 0 45.7-20.5 45.7-45.7v-64.2c.4 0 .6.2 1 .2h116.5c6.4 0 12-4 14.1-10l85.9-243.5 196.3 50c24.5 6.2 49.4-8.6 55.6-33.1l3.8-15.1 34.1 8.6c22.2 5.8 45-7.5 50.8-29.8 0-.2.1-.3.1-.5l13.3-52.2c2.9-10.8 1.2-22.2-4.5-31.7z" clip-rule="evenodd" style="fill: #019df4;"/></svg>
