<?xml version="1.0" encoding="UTF-8"?>
<svg xmlns="http://www.w3.org/2000/svg" viewBox="0 0 702.8 702.8"><path fill="#019df4" fill-rule="evenodd" d="M645.7 311.3c-.6 2.4-3 3.8-5.4 3.2l-26.3-6.7 15.2-59.6 26.3 6.7c2.4.6 3.8 3 3.2 5.3 0-.1-13 51.1-13 51.1zm50.3-77c-6.5-11-17.2-19-29.6-22.1l-26.3-6.7 7.2-28.4c3.4-13.5 1.4-27.5-5.7-39.5s-18.4-20.5-31.9-23.9L169.2 1.6c-27.8-7.1-56.2 9.7-63.3 37.5v.2l-46 181c-7.1 27.9 9.8 56.3 37.7 63.5l211.9 53.9-75.4 213.7H142v-90.5c0-28.8-23.3-52.2-52.1-52.2H52.1C23.4 408.7 0 432.1 0 460.8v189.8c0 28.8 23.4 52.1 52.1 52.1h37.6c28.8 0 52.1-23.4 52.1-52.2v-55.3h107.6c9.3 0 17.6-5.9 20.7-14.6L352 348.5l185.8 47.3c13.4 3.4 27.6 1.4 39.5-5.7 11.9-7.1 20.4-18.5 23.8-32l2-7.7 26.3 6.7c25.9 6.5 52.2-9.1 58.8-35l13-51.2c3.3-12.5 1.3-25.5-5.2-36.6z" clip-rule="evenodd" style="fill: #019df4;"/></svg>
