<?xml version="1.0" encoding="UTF-8"?>
<svg xmlns="http://www.w3.org/2000/svg" viewBox="0 0 702.8 702.8"><path fill="#019df4" fill-rule="evenodd" d="M355.4 450.4c57.9-1.1 57.9-47.9 57.9-63.3 0-15.4 0-62.4-58.5-63.8-2.1-.1-4.5-.1-6.8-.1h-1.7c-56.8.5-56.8 47.8-56.8 63.3 0 15.6 0 63.1 57.7 64h2.7l5.5-.1zm.4-169.8c20.5.5 100.4 8.7 100.4 106.5 0 98-80 105.6-100.1 106-1.9 0-4.1.1-6.2.1h-3.4c-21-.3-100-8-100-106.6 0-98.4 78.3-105.7 99.3-105.9h2.1c2.7-.2 5.5-.2 7.9-.1zm297.2 287c5.7-6.1 6.2-18.4 6-20.7l-.1-318.7c0-9.9-2.1-17-6.4-21.1-4.8-4.7-11.9-5.1-12-5.1l-199.6-.1c-7.7 0-14.8-4.1-18.6-10.6L387 131l-77.4.2-28.5 58.8c-3.6 7.3-11.1 12-19.3 12-92.2 0-170.3 0-189.9.2-11.1.1-18.9 2.5-23.1 7.3-5.7 6.4-5.2 16.4-5.1 16.5l1 319.7c.8 26.2 14.4 26 14.8 26.2l580.7.1c7.9-.2 11.1-2.6 12.8-4.4zm49-22.1c.2 1.8 1.5 31-17.6 51.2-7.6 8.1-21.5 17.7-44.2 17.7l-580.1-.1c-16.5 0-56.6-11.1-58.3-68.2l-.9-318c-.2-.7-2.4-26.8 15.9-47.3 8.8-9.7 25.4-21.4 54.9-21.5 18.6-.1 90.3-.2 176.7-.2l23.1-47c7.2-14.6 21.8-23.7 38.1-23.7h77.9c15 0 29.1 8.1 36.7 21.1l29 49.6 186.9.2c2 .4 24.8.1 42.5 17.3 8.8 8.6 19.3 24.5 19.3 51.6v317.3z" clip-rule="evenodd" style="fill: #019df4;"/></svg>
