<?xml version="1.0" encoding="UTF-8"?>
<svg xmlns="http://www.w3.org/2000/svg" viewBox="0 0 702.8 702.8"><path fill="#019df4" fill-rule="evenodd" d="M659.8 495.4c0 7.2-3.5 15.3-9.2 21.2-6 6.3-13.8 9.8-20.4 9.8h-31.6c-9.2-51.6-46.2-82.4-101.3-82.4-5.5 0-10.6.3-15.8.9V200l29.5-.3c11.2 0 24.2 6.9 30.5 15.8 14.1 20 92.2 127.8 102.2 141.3 6 8.1 16.1 21.8 16.1 32.9v105.7zM497.2 614.6c-40.2 0-60.6-21.2-60.6-62.7 0-41.9 20.4-63.1 60.6-63.1 39.9 0 60.3 21.2 60.3 63 0 41.6-20.4 62.8-60.3 62.8zm-101.6-88.1H254.1c-9.2-51.6-46.2-82.4-101.3-82.4-55.4 0-92.4 30.8-101.6 82.4-4.5-.2-8-3.8-8.1-8.3V97.6c-.1-4.5 3.5-8.3 8-8.4l379.2.3c4.3 0 8.1 3.6 8.1 8.1v361.6c-22.7 14.1-37.3 37.1-42.8 67.3zm-242.9 88.1c-40.2 0-60.6-21.2-60.6-62.7 0-41.8 20.4-63 60.6-63 39.9 0 60.3 21.2 60.3 63 0 41.5-20.4 62.7-60.3 62.7zm524.8-284.9c-9.8-13.1-87.8-121.2-101-140.1-14.6-20.9-40.2-34.6-65.5-34.6h-.3l-29.3.3V97.6c0-29.3-23-52.9-51.1-52.9l-379.2-.3C22.9 44.4 0 68.3 0 97.6v420.5c0 29 22.4 52.6 50.3 53.1 7.1 55 45.1 88.1 102.5 88.1 57.1 0 95-33.1 101.9-88.1H395c6.9 55 44.8 88.1 102.2 88.1 57.1 0 95-33.1 101.9-88.1h31c18.1 0 36.8-8.3 50.8-23 13.8-14.6 21.8-33.8 21.8-52.9v-106c.1-25.9-16.3-48-25.2-59.6z" clip-rule="evenodd" style="fill: #019df4;"/></svg>
