<?xml version="1.0" encoding="UTF-8"?>
<svg xmlns="http://www.w3.org/2000/svg" viewBox="0 0 702.8 702.8"><path fill="#019df4" fill-rule="evenodd" d="M609.2 275.4l-55.3-26.9c-6.7-3.2-14.4-2.7-20.6 1.2-6.2 4-9.9 10.9-9.9 18.3l1.2 391.6H187.2l1.2-391.6c0-7.4-3.7-14.3-9.9-18.3-6.1-4-13.9-4.5-20.5-1.3l-57.3 27.4-52.1-116.1L225.5 57c11.6 64.7 56.9 99.8 130.5 99.8 72.1 0 117.7-35.9 129.9-99.4L655 160l-45.8 115.4zm83.3-143L478.9 3c-.3-.1-.5-.1-.8-.3-1.6-.8-3.1-1.3-4.9-1.8-1.2-.4-2.4-.6-3.7-.7-.4-.1-.8-.3-1.3-.3-.8 0-1.4.4-2.2.4-1.7.2-3.4.5-5.1 1.1-.8.3-1.5.7-2.3 1.1-1.7.9-3.3 1.9-4.8 3.3-.5.5-1 1-1.4 1.6-.9 1-2 1.8-2.7 3-.4.7-.5 1.5-.7 2.1-.3.6-.4 1.1-.6 1.6-.8 2.3-1.3 4.5-1.4 6.8 0 .2-.1.3-.1.5 0 62.9-28.9 92.2-90.9 92.2-62 0-90.9-29.3-90.9-92.2 0-7.7-4-14.8-10.6-18.7-6.6-3.8-14.7-3.9-21.2-.1L10.8 132c-9.5 5.5-13.3 17.5-8.8 27.6l69.1 153.9c2.4 5.3 6.7 9.3 12.1 11.3 5.4 2 11.3 1.7 16.4-.8l46.3-22.1-1.1 379.1c0 5.7 2.2 11.2 6.2 15.3s9.4 6.3 15.1 6.3H546c5.7 0 11.1-2.3 15.1-6.3 4-4.1 6.2-9.6 6.2-15.3l-1.2-378.9 45.2 21.9c5.3 2.6 11.5 2.8 16.9.7 5.5-2.2 9.8-6.5 12-12l61.1-153.9c3.9-9.7.1-21-8.8-26.4z" clip-rule="evenodd" style="fill: #019df4;"/></svg>
