<?xml version="1.0" encoding="UTF-8"?>
<svg xmlns="http://www.w3.org/2000/svg" viewBox="0 0 702.8 702.8"><path fill="#019df4" fill-rule="evenodd" d="M695.7 134.1L477.8 2.1c-.1-.1-.3-.1-.4-.1-1.1-.6-2.2-1-3.5-1.3-.8-.2-1.6-.5-2.5-.5-.3 0-.6-.2-.8-.2-.5 0-1 .2-1.4.3-1.3.1-2.5.4-3.6.8-.5.2-.8.4-1.3.6-1.3.6-2.5 1.4-3.6 2.5l-.6.6c-.7.8-1.6 1.4-2.1 2.4-.3.6-.3 1.2-.6 1.7 0 .1 0 .2-.1.2-.8 1.9-1.2 3.8-1.1 5.7 0 68.1-32.8 101.3-100 101.3-67.3 0-100-33.1-100-101.4 0-5.2-2.7-10-7.2-12.7-4.5-2.6-10-2.6-14.5-.1L7.3 133.9c-6.5 3.7-9.1 11.9-6 18.8l70.5 157c1.6 3.6 4.6 6.4 8.2 7.7 3.6 1.4 7.7 1.2 11.1-.5l57.6-27.6-1.2 398.7c0 3.9 1.5 7.7 4.2 10.5 2.7 2.7 6.4 4.3 10.3 4.3h388c3.8 0 7.6-1.6 10.2-4.3 2.7-2.8 4.2-6.5 4.2-10.5l-1.2-398.5 56.5 27.4c3.6 1.7 7.8 1.9 11.5.5 3.7-1.5 6.7-4.5 8.2-8.2l62.3-157.1c2.7-6.7.2-14.3-6-18" clip-rule="evenodd" style="fill: #019df4;"/></svg>
