<?xml version="1.0" encoding="UTF-8"?>
<svg xmlns="http://www.w3.org/2000/svg" viewBox="0 0 702.8 702.8"><path fill="#019df4" fill-rule="evenodd" d="M661.8 517.4c-7.6 7.6-17 11.7-26.1 11.7H597c-6.4-50.4-41.6-80.2-97-80.2-8.2 0-16.1.6-23.4 2.1V195.9H514c14.1 0 29.3 7.5 37.2 18.4 14.1 19.2 94.1 124.7 104 137.5 6.7 8.8 17.9 23.4 17.9 36.5l.3 103.2c.1 9-4.3 18.6-11.6 25.9zM500 615.1c-45.1 0-68.9-23.6-68.9-68.5s23.7-68.5 68.9-68.5 68.9 23.6 68.9 68.5-23.8 68.5-68.9 68.5zm-97-86H245.3c-6.4-50.4-41.6-80.2-97-80.2-55.3 0-90.3 29.8-96.7 80.2h-6.7c-8.5 0-15.5-6.9-15.6-15.4V103.2c0-8.5 7-15.5 15.5-15.5l386.9.3c8.8 0 15.6 7 15.6 15.5v357.4c-24.7 13.1-40.2 36.4-44.3 68.2zm-254.7 86c-45.1 0-68.9-23.6-68.9-68.5s23.7-68.5 68.9-68.5 68.9 23.6 68.9 68.5-23.8 68.5-68.9 68.5zm554.2-226.8c0-23-15.5-43.4-24.1-54.2-10-12.9-89.3-117.8-103.5-136.8-13.5-18.7-37.5-30.6-60.9-30.6h-37.5v-63.3c0-24.5-20-44.6-44.9-44.6l-386.7-.2C19.9 58.6 0 78.7 0 103.2v410.4c0 24.5 20 44.6 44.8 44.6H51c4.5 53.9 39.9 86 97.3 86 57.5 0 92.9-32.1 97.3-86h157.1c4.7 53.9 39.9 86 97.3 86 57.5 0 92.9-32.1 97.3-86h38.4c17 0 34-7.3 46.9-20.1 12.9-12.8 20.2-29.8 20.2-46.6l-.3-103.2z" clip-rule="evenodd" style="fill: #019df4;"/></svg>
