<?xml version="1.0" encoding="UTF-8"?>
<svg xmlns="http://www.w3.org/2000/svg" viewBox="0 0 702.8 702.8"><path fill="#019df4" fill-rule="evenodd" d="M618.3 283.8L554.9 253c-4.5-2.1-9.7-1.8-14 .8-4.2 2.7-6.7 7.4-6.7 12.5l1.2 407.2H176.5l1.2-407.2c0-5-2.5-9.7-6.7-12.4-4.2-2.7-9.4-3-14-.9l-65 31.2-59-131.4L228.5 39.2c8.3 68.8 52.8 106.3 127.5 106.3 74.5 0 118.8-37.5 127.2-105.8l187 113.2-51.9 130.9zm77.4-149.7L477.8 2.1c-.1-.1-.3-.1-.4-.1-1.1-.6-2.2-.9-3.5-1.2-.8-.2-1.6-.4-2.5-.5-.3 0-.5-.2-.8-.2-.5 0-.9.2-1.4.3-1.2.1-2.4.3-3.6.7-.5.2-.9.4-1.3.6-1.3.6-2.5 1.4-3.6 2.5-.2.1-.4.4-.6.6-.7.8-1.6 1.4-2.1 2.4-.3.6-.4 1.1-.6 1.7 0 .1-.1.2-.1.2-.8 1.8-1.1 3.7-1.1 5.7 0 68.2-32.7 101.3-100.1 101.3-67.3 0-100-33.2-100-101.4 0-5.3-2.7-10.1-7.2-12.7-4.5-2.6-10-2.6-14.5 0L7.3 134c-6.5 3.8-9.1 11.9-6 18.8l70.5 157.1c1.6 3.6 4.5 6.3 8.2 7.7 3.6 1.4 7.7 1.2 11.2-.5l57.6-27.6-1.2 398.7c0 3.9 1.5 7.7 4.2 10.4 2.7 2.8 6.4 4.3 10.2 4.3h388c3.8 0 7.5-1.5 10.2-4.3 2.7-2.8 4.2-6.5 4.2-10.4l-1.2-398.5 56.5 27.4c3.6 1.7 7.7 1.9 11.5.4 3.7-1.4 6.7-4.4 8.2-8.2l62.3-157c2.7-6.9.2-14.5-6-18.2z" clip-rule="evenodd" style="fill: #019df4;"/></svg>
