<?xml version="1.0" encoding="UTF-8"?>
<svg xmlns="http://www.w3.org/2000/svg" viewBox="0 0 702.8 702.8"><path fill="#019df4" fill-rule="evenodd" d="M497.2 614.6c-40.2 0-60.6-21.2-60.6-62.7 0-41.8 20.4-63 60.6-63 39.9 0 60.3 21.2 60.3 63 0 41.5-20.4 62.7-60.3 62.7zm-344.5 0c-40.2 0-60.6-21.2-60.6-62.7 0-41.8 20.4-63 60.6-63 39.9 0 60.3 21.2 60.3 63 0 41.5-20.4 62.7-60.3 62.7zm524.8-285c-9.8-13.1-87.9-121.2-101.1-140-14.6-20.9-40.2-34.6-65.5-34.6h-.3l-29.3.3V97.7c0-29.3-23-52.9-51.1-52.9L51 44.5C22.8 44.5-.1 68.4-.1 97.7v420.5c0 28.9 22.4 52.6 50.2 53.1 7.2 55 45.1 88.1 102.5 88.1 57.1 0 95-33.2 101.9-88.1H395c6.9 55 44.8 88.1 102.2 88.1 57.1 0 95-33.2 101.9-88.1h31c18.1 0 36.7-8.3 50.8-23 13.8-14.7 21.8-33.7 21.8-52.9v-106c.1-26-16.3-48.1-25.2-59.8z" clip-rule="evenodd" style="fill: #019df4;"/></svg>
