<?xml version="1.0" encoding="UTF-8"?>
<svg xmlns="http://www.w3.org/2000/svg" viewBox="0 0 702.8 702.8"><path fill="#019df4" fill-rule="evenodd" d="M493.3 209.4c5.7 5.7 5.7 15 0 20.7L371.9 351.5 493.3 473c5.6 5.8 5.5 15.1-.4 20.7-5.7 5.5-14.7 5.5-20.3 0L351.2 372.2 230.1 493.3c-5.7 5.7-15 5.7-20.7 0-5.7-5.7-5.7-14.9 0-20.7l121.1-121.1-121.1-121c-5.7-5.7-5.7-14.9 0-20.7 5.7-5.7 14.9-5.7 20.7 0l121.1 121.1 121.5-121.5c5.7-5.7 14.9-5.7 20.6 0zm-142 464.1c213.8 0 322.2-108.3 322.2-322 0-213.8-108.4-322.2-322.2-322.2-213.7 0-322 108.4-322 322.2 0 213.7 108.3 322 322 322zm0-673.5c222 0 351.5 112.1 351.5 351.5S573.3 702.8 351.3 702.8 0 590.9 0 351.5 129.3 0 351.3 0z" clip-rule="evenodd" style="fill: #019df4;"/></svg>
