<?xml version="1.0" encoding="UTF-8"?>
<svg xmlns="http://www.w3.org/2000/svg" viewBox="0 0 702.8 702.8"><path fill="#019df4" fill-rule="evenodd" d="M522.7 179.9c8.6 8.6 8.6 22.5 0 31L382.2 351.4l140.4 140.4c8.7 8.4 9 22.3.5 31.1-8.4 8.7-22.3 9-31.1.5l-.5-.5-140.3-140.4-140 140c-8.5 8.6-22.4 8.6-31 .1l-.1-.1c-8.6-8.6-8.6-22.5 0-31.1l140-140-140-140c-8.9-8.3-9.4-22.2-1.1-31 8.3-8.9 22.2-9.4 31-1.1l1.1 1.1 140 140L491.5 180c8.7-8.7 22.6-8.7 31.2-.1-.1 0-.1 0 0 0zm-171.4 479c206.9 0 307.6-100.6 307.6-307.4 0-206.9-100.6-307.6-307.5-307.6S44 144.5 44 351.5c-.1 206.8 100.5 307.4 307.3 307.4zm0-658.9c222 0 351.5 112.2 351.5 351.5 0 239.4-129.5 351.3-351.5 351.3S0 590.9 0 351.5C0 112.2 129.3 0 351.3 0z" clip-rule="evenodd" style="fill: #019df4;"/></svg>
