<?xml version="1.0" encoding="UTF-8"?>
<svg xmlns="http://www.w3.org/2000/svg" viewBox="0 0 702.8 702.8"><path fill="#019df4" fill-rule="evenodd" d="M522.7 491.8c8.6 8.6 8.6 22.5 0 31.1-4.3 4.3-9.9 6.4-15.5 6.4-5.7 0-11.2-2.1-15.6-6.4L351.2 382.5l-140 140c-4.3 4.3-9.9 6.4-15.5 6.4s-11.2-2.2-15.5-6.4c-8.6-8.6-8.6-22.5 0-31.1l140-140-140-140c-8.6-8.6-8.6-22.5 0-31 8.6-8.6 22.5-8.6 31 0l140 140 140.4-140.5c8.6-8.6 22.5-8.6 31.1 0 8.6 8.6 8.6 22.5 0 31.1L382.2 351.4l140.5 140.4zM351.3 0C129.3 0 0 112.1 0 351.5s129.3 351.3 351.3 351.3 351.5-111.9 351.5-351.3S573.3 0 351.3 0z" clip-rule="evenodd" style="fill: #019df4;"/></svg>
