<?xml version="1.0" encoding="UTF-8"?>
<svg xmlns="http://www.w3.org/2000/svg" viewBox="0 0 702.8 702.8"><path fill="#019df4" fill-rule="evenodd" d="M614.8 324.7c.1 0 0 184.3.1 275.2 0 32-9.7 57.4-29 75.6-31.9 30.2-78 27.2-79.9 27.1l-311.2.2c-35.2 0-62.7-10.5-81.7-31.2-27.8-30.3-25.2-71-25.1-72.7l-.1-276.3c0-32.3 9.9-57.9 29.3-76 18.1-16.9 40.7-23 57.1-25.1V179C174.3 48.2 261.4.8 342.9 0c5.2 0 10.7.1 15.5.1C424 1.7 501.7 35.7 522.7 126.4c2.7 11.6-4.4 23.2-15.8 25.9-11.3 2.7-22.8-4.4-25.6-16-19.5-84.2-99.8-92.6-124-93.2-4.3-.1-9.4-.1-14.1-.1-38 .3-126.5 14.3-126.5 135.9v41.6c58-.1 215.6-.3 290.6-.3 35.9 0 63.8 10.6 82.9 31.6 27.7 30.5 24.7 71 24.6 72.9zM350 509.2h-7.4c-48.4-.7-48.4-38.8-48.4-53.1 0-14.2 0-52 47.5-52.5h1.5c2 0 4.1.1 6 .1 49.1 1.2 49.1 40.2 49.1 53 .1 14.1.1 51.7-48.3 52.5zm.3-148.5c-2.1-.1-4.6-.1-7-.1h-1.9c-19 .2-89.6 6.8-89.6 95.5 0 89 71.3 95.9 90.3 96.2h8.7c18-.3 90.3-7.2 90.3-95.6-.2-88.1-72.3-95.5-90.8-96z" clip-rule="evenodd" style="fill: #019df4;"/></svg>
