<?xml version="1.0" encoding="UTF-8"?>
<svg xmlns="http://www.w3.org/2000/svg" viewBox="0 0 702.8 702.8"><path fill="#019df4" fill-rule="evenodd" d="M585.7 322.3c.1-1.4 1.8-28.7-15.8-47.9-12.4-13.5-32-20.2-58.2-20.2-93 0-309.3.3-320.5.3h-2.3c-.1 0-1.3-.1-3.5-.1-9 0-33.5 1.5-50.3 17.2-12 11.2-18.1 28.2-18.1 50.4v283.7c-.1 1.3-1.5 28.8 16.3 47.9 12.3 13.2 31.6 19.9 57.1 19.9l321.3-.2c1.3-.1 34.7 2 55.9-18 12-11.4 18.1-28.3 18.1-50.3-.1-93.2 0-282.7 0-282.7zm29.1 1.2s-.1 188.6 0 281.5c0 30.5-9.2 54.8-27.5 71.9-30.5 28.7-74.9 25.9-76.6 25.7l-320.3.2c-34.1 0-60.6-10-78.7-29.5-26.4-28.6-24-67.1-23.9-68.7V322.1c0-30.9 9.3-55.2 27.8-72.2 19.9-18.4 45.2-23.2 61-24.4v-50.1C176.7 9.9 315.1.3 342.8 0c5.2.1 10.8 0 15.7.1C389.9.9 494.3 12 520.4 123.5c1.9 7.8-3 15.7-10.8 17.6-7.8 1.9-15.5-2.9-17.4-10.6 0-.1 0-.2-.1-.3C470.8 39.2 383.9 30 357.8 29.4c-4.5-.1-10-.2-14.6-.1-32.3.3-137.4 11.7-137.4 146v49.8c52.6-.1 225.5-.3 306-.3 34.8 0 61.6 10.1 79.8 29.9 26.2 28.9 23.3 67.1 23.2 68.8zM350.2 527.2c29.2-.5 64.1-12.8 64.1-68.2 0-55.6-35.2-68-64.7-68.8l-6.6-.1h-1.7c-28.8.3-63.3 12.3-63.3 68.2 0 56.2 34.8 68.5 64.1 68.9h8.1zm0-166.3c19 .5 93.1 8.1 93.1 98 0 90.2-74.2 97.2-92.7 97.5-1.8.1-3.7.1-5.7.1h-3.2c-19.5-.3-92.8-7.4-92.8-98.2 0-90.6 72.6-97.4 92.1-97.5h1.9c2.6 0 5.1 0 7.3.1z" clip-rule="evenodd" style="fill: #019df4;"/></svg>
