<?xml version="1.0" encoding="UTF-8"?>
<svg xmlns="http://www.w3.org/2000/svg" viewBox="0 0 702.8 702.8"><path fill="#019df4" fill-rule="evenodd" d="M348.7 514.3L35.8 352.1l79.1-41.4 217.4 112.7c5.2 2.7 10.7 4 16.4 4 5.5 0 11.1-1.3 16.1-3.9l221.6-112.9 80.6 41.5-318.3 162.2zM667 475.1L348.7 637.3 35.8 475.1l79.1-41.4 217.4 112.8c5.2 2.7 10.7 4 16.4 4 5.5 0 11.1-1.3 16.1-3.8l221.6-113 80.6 41.4zM348.7 65.5L667 229.1 348.7 391.4 35.8 229.1 348.7 65.5zm354.1 286.7c0-13.6-7.6-26.2-19.6-32.3L626 290.5l57.1-29.1c12.1-6.1 19.6-18.7 19.7-32.3 0-13.6-7.6-26.1-19.6-32.3L364.9 33.2c-5.1-2.6-10.7-3.9-16.2-3.9-5.7 0-11.3 1.3-16.5 4.1L19.4 197C7.5 203.2 0 215.6 0 229.2c0 13.5 7.6 25.9 19.5 32.1l56.3 29.2L19.4 320C7.5 326.3 0 338.7 0 352.2c0 13.5 7.6 25.9 19.5 32.1l56.3 29.2L19.4 443C7.5 449.2 0 461.7 0 475.2c0 13.5 7.6 25.9 19.5 32.1l312.8 162.2c5.2 2.6 10.7 4 16.4 4 5.5 0 11.1-1.3 16.1-3.9l318.3-162.2c12.1-6.2 19.6-18.7 19.7-32.3 0-13.6-7.6-26.1-19.6-32.3L626 413.4l57.1-29.1c12.1-6.1 19.7-18.5 19.7-32.1z" clip-rule="evenodd" style="fill: #019df4;"/></svg>
