<?xml version="1.0" encoding="UTF-8"?>
<svg xmlns="http://www.w3.org/2000/svg" viewBox="0 0 702.8 702.8"><path fill="#019df4" fill-rule="evenodd" d="M348.9 608.5L65 462.6l36.4-18.8 217.9 111.9c9.3 4.7 19.5 7.2 29.7 7.2 10 0 20-2.3 29.2-7l222.4-112.3 37.3 19-289 145.9zm0-514.2l288.9 147.1-288.9 145.8L65 241.4 348.9 94.3zM65 352l36.4-18.8 217.9 112c9.3 4.8 19.5 7.2 29.7 7.2 10 0 20-2.3 29.2-7l222.4-112.3 37.3 19L349 498 65 352zm637.8.1c0-22.9-12.3-43.7-31.7-55.4 19.3-11.6 31.7-32.3 31.7-55.1.1-24.5-13.7-47-35.5-58.1L378.4 36.4c-9.2-4.7-19.3-7.1-29.4-7.1-10.2 0-20.5 2.4-29.9 7.3L35.2 183.7C13.6 194.9.1 217.2.1 241.6c.1 22.8 12.3 43.5 31.6 55.1C12.3 308.4 0 329.3.1 352.1c.1 22.8 12.3 43.5 31.6 55.2C12.3 419.1 0 439.8.1 462.8c.1 24.3 13.7 46.6 35.3 57.7l283.9 145.8c9.3 4.8 19.5 7.2 29.7 7.2 10 0 20-2.3 29.2-7l288.9-145.9c21.9-11 35.7-33.4 35.7-57.9 0-23-12.3-43.7-31.7-55.5 19.3-11.6 31.7-32.2 31.7-55.1z" clip-rule="evenodd" style="fill: #019df4;"/></svg>
