<?xml version="1.0" encoding="UTF-8"?>
<svg xmlns="http://www.w3.org/2000/svg" viewBox="0 0 702.8 702.8"><path fill="#019df4" fill-rule="evenodd" d="M348.8 505.7L51.1 352.1l56.7-29.6 217.7 112.4c7.3 3.8 15.3 5.7 23.3 5.7 7.9 0 15.8-1.9 23-5.5l222-112.6 57.9 29.7-302.9 153.5zm302.9-37.2L348.8 622.1 51.1 468.5l56.7-29.5 217.7 112.3c7.3 3.8 15.3 5.7 23.3 5.7 7.9 0 15.8-1.9 23-5.5l222-112.6 57.9 29.6zM348.8 80.7l302.9 154.9-302.9 153.7L51.1 235.6 348.8 80.7zm354 271.5c0-19.4-10.8-37.1-28-45.9l-24.5-12.5 24.3-12.3c17.2-8.7 28.1-26.4 28.1-45.8s-10.8-37.1-28-45.9L371.8 34.9c-7.3-3.7-15.2-5.6-23.2-5.6-8.1 0-16.1 1.9-23.5 5.8L27.4 190c-17 8.8-27.6 26.5-27.6 45.7 0 19.2 10.7 36.8 27.8 45.6l24.2 12.5-24.4 12.7c-17 8.8-27.6 26.4-27.6 45.7s10.7 36.8 27.8 45.6l24.2 12.5L27.4 423c-17 8.8-27.6 26.5-27.6 45.7 0 19.2 10.7 36.8 27.8 45.6l297.7 153.6c7.3 3.8 15.3 5.6 23.3 5.6 7.9 0 15.8-1.8 23-5.5l302.9-153.6c17.2-8.7 28.1-26.4 28.1-45.8s-10.8-37.1-28-45.9l-24.5-12.5 24.3-12.4c17.5-8.6 28.4-26.3 28.4-45.6z" clip-rule="evenodd" style="fill: #019df4;"/></svg>
