<?xml version="1.0" encoding="UTF-8"?>
<svg xmlns="http://www.w3.org/2000/svg" viewBox="0 0 702.8 702.8"><path fill="#019df4" fill-rule="evenodd" d="M354.2 414.7c129.7 1.4 205.3 83.9 208.5 87.4 5.3 6.1 4.6 15.4-1.5 20.7-5.9 5.1-14.9 4.7-20.3-1.1-.7-.7-70.7-76.4-187.5-77.7-1.6.1-119.7-3.9-191.4 76.3-5.4 6-14.6 6.6-20.7 1.2-6-5.4-6.6-14.6-1.2-20.7 81.1-90.7 208.8-86 214.1-86.1zm-2.9 258.8c213.8 0 322.2-108.3 322.2-322 0-213.8-108.4-322.2-322.2-322.2-213.7 0-322 108.4-322 322.2 0 213.7 108.3 322 322 322zm0-673.5c222 0 351.5 112.1 351.5 351.5S573.3 702.8 351.3 702.8 0 590.9 0 351.5 129.3 0 351.3 0zM244.8 295.9c-11.7 0-21.4-3.6-28.1-10.4-6.6-6.7-9.9-16-9.9-27.7 0-23.9 14.2-38.1 38-38.1s38 14.3 38 38.1c0 11.7-3.3 21-9.9 27.7-6.7 6.8-16.4 10.4-28.1 10.4zm213.2 0c-11.7 0-21.4-3.6-28.1-10.4-6.6-6.7-9.9-16-9.9-27.7 0-23.9 14.2-38.1 38-38.1s38 14.3 38 38.1c0 11.7-3.3 21-9.9 27.7-6.7 6.8-16.4 10.4-28.1 10.4z" clip-rule="evenodd" style="fill: #019df4;"/></svg>
