<?xml version="1.0" encoding="UTF-8"?>
<svg xmlns="http://www.w3.org/2000/svg" viewBox="0 0 702.8 702.8"><path fill="#019df4" fill-rule="evenodd" d="M351.3 0c222 0 351.5 112.1 351.5 351.5S573.3 702.8 351.3 702.8 0 590.9 0 351.5 129.3 0 351.3 0zm3.2 407.5c-5.5-.2-136.5-4.8-219.8 88.5-8.1 9.1-7.3 23 1.8 31 9.1 8.1 22.9 7.3 31-1.8 69.3-77.5 184.1-73.7 185.9-73.9 113.4 1.2 181.5 74.6 182.2 75.3 4.3 4.8 10.3 7.2 16.3 7.2 5.2 0 10.5-1.8 14.7-5.6 9-8.1 9.8-22 1.6-31-3.3-3.6-81.1-88.3-213.7-89.7zM244.8 299.6c12.7 0 23.3-4 30.7-11.5 7.2-7.4 10.9-17.6 10.9-30.2 0-25.8-16-41.8-41.6-41.8-25.7 0-41.6 16-41.6 41.8 0 12.6 3.7 22.8 10.9 30.2 7.4 7.5 18 11.5 30.7 11.5zm213.2 0c12.7 0 23.3-4 30.7-11.5 7.3-7.4 11-17.6 11-30.2 0-25.8-16-41.8-41.6-41.8-25.7 0-41.6 16-41.6 41.8 0 12.6 3.7 22.8 10.9 30.2 7.2 7.5 17.8 11.5 30.6 11.5z" clip-rule="evenodd" style="fill: #019df4;"/></svg>
