<?xml version="1.0" encoding="UTF-8"?>
<svg xmlns="http://www.w3.org/2000/svg" viewBox="0 0 702.8 702.8"><path fill="#019df4" fill-rule="evenodd" d="M354.5 407.5c132.6 1.4 210.4 86.2 213.7 89.8 8.1 9.1 7.4 22.9-1.6 31-4.2 3.8-9.5 5.6-14.7 5.6-6 0-11.9-2.4-16.3-7.2-.7-.7-68.8-74.1-182.2-75.3-1.8.2-116.6-3.6-185.9 73.9-8.1 9.1-21.9 9.8-31 1.8-9-8.1-9.8-22-1.8-31 83.3-93.4 214.3-88.8 219.8-88.6zm-3.2 251.4c206.9 0 307.6-100.6 307.6-307.4 0-206.9-100.6-307.6-307.6-307.6-206.8 0-307.4 100.6-307.4 307.6 0 206.8 100.6 307.4 307.4 307.4zm0-658.9c222 0 351.5 112.1 351.5 351.5S573.3 702.8 351.3 702.8 0 590.9 0 351.5 129.3 0 351.3 0zM244.8 299.6c-12.7 0-23.3-4-30.7-11.5-7.3-7.4-10.9-17.6-10.9-30.2 0-25.8 16-41.8 41.6-41.8 25.7 0 41.6 16 41.6 41.8 0 12.6-3.7 22.8-10.9 30.2-7.4 7.5-18 11.5-30.7 11.5zm213.2 0c-12.7 0-23.3-4-30.7-11.5-7.3-7.5-10.9-17.7-10.9-30.2 0-25.8 16-41.8 41.6-41.8 25.7 0 41.6 16 41.6 41.8 0 12.6-3.7 22.8-11 30.2-7.3 7.5-17.9 11.5-30.6 11.5z" clip-rule="evenodd" style="fill: #019df4;"/></svg>
