<?xml version="1.0" encoding="UTF-8"?>
<svg xmlns="http://www.w3.org/2000/svg" viewBox="0 0 702.8 702.8"><path fill="#019df4" d="M656.2 643.4H45.7c-24.6-.2-44.5-20.2-44.7-44.9V104.4c.2-24.8 20.1-44.8 44.7-44.9h260.2c12-.2 23.5 4.5 32.1 12.9 8.6 8.4 13.4 20 13.5 32v35.5h304.8c12-.2 23.5 4.5 32.1 12.9 8.6 8.4 13.4 20 13.5 32v413.6c-.1 12-4.9 23.6-13.5 32-8.6 8.5-20.2 13.2-32.2 13zM45.7 88.8c-8.5 0-15.5 7-15.5 15.6v494.1c0 8.6 6.9 15.6 15.5 15.6h610.6c4.1 0 8-1.6 10.9-4.6 2.9-2.9 4.5-6.9 4.5-11V184.9c0-4.1-1.6-8.1-4.5-11s-6.8-4.6-10.9-4.6H335c-8.1 0-14.6-6.6-14.6-14.7v-50.2c0-8.3-6.4-15.1-14.6-15.6H45.7z" style="fill: #019df4;"/></svg>
