<?xml version="1.0" encoding="UTF-8"?>
<svg xmlns="http://www.w3.org/2000/svg" viewBox="0 0 702.8 702.8"><path fill="#019df4" fill-rule="evenodd" d="M52.3 104.1c-3.8 0-6.7 2.9-6.7 6.7V592c0 3.8 2.9 6.7 6.7 6.7h598.3c3.7 0 6.7-3 6.7-6.7V189.2c0-3.8-2.9-6.7-6.7-6.7H336.7c-12.6 0-22.8-10.2-22.8-22.8v-48.9c0-3.8-2.9-6.7-6.7-6.7H52.3zm598.3 540.1H52.3C23.5 644.2 0 620.8 0 591.9V110.8C0 82 23.4 58.6 52.3 58.6h254.9c28.8 0 52.3 23.4 52.3 52.2v26.1h291.1c28.8 0 52.2 23.4 52.2 52.2V592c0 28.8-23.4 52.2-52.2 52.2z" clip-rule="evenodd" style="fill: #019df4;"/></svg>
