<?xml version="1.0" encoding="UTF-8"?>
<svg xmlns="http://www.w3.org/2000/svg" viewBox="0 0 702.8 702.9"><g fill="#019df4"><path d="M516.9 537H302.4c-29.9 0-56.4-10.1-76.7-29.1-21.1-19.9-34.8-48.6-40.6-85.3-4.8-30.4-51.9-304.3-58.4-340.6-4.3-24-29.3-42-58.3-42H20.1c-11 0-20-9-20-20s9-20 20-20h48.3c48.8 0 89.9 31.5 97.7 75 2.1 11.5 8.2 46.7 15.7 90.5h500.7c11 0 20 8.9 20 20 0 1.9-.3 3.9-.8 5.7-16.5 55.4-60.8 205.8-67.9 233.3-9.5 36.6-23.3 63.5-42.2 82.4-20 20-45.1 30.1-74.7 30.1zM188.7 205.5c15.3 89.1 33.1 192.8 35.9 210.9 4.4 27.7 13.9 48.6 28.5 62.4 12.9 12.1 29.4 18.2 49.3 18.2h214.5c24.4 0 59-8.5 78.1-82.5 6.7-25.8 42.1-146.2 60.7-209h-467zM302.4 702.8c-17.9 0-32.2-5.1-42.6-15.1-10.9-10.5-16.4-25.2-16.4-43.9s5.5-33.4 16.4-43.9c10.4-10 24.8-15.1 42.6-15.1s32.2 5.1 42.6 15.1c10.9 10.5 16.4 25.2 16.4 43.9s-5.5 33.4-16.4 43.9c-10.4 10-24.7 15.1-42.6 15.1zm0-78c-14.6 0-19 4.4-19 19s4.4 19 19 19 19-4.4 19-19-4.5-19-19-19zM497.4 702.8c-17.9 0-32.2-5.1-42.6-15.1-10.9-10.5-16.4-25.2-16.4-43.9s5.5-33.4 16.4-43.9c10.4-10 24.8-15.1 42.6-15.1s32.2 5.1 42.6 15.1c10.8 10.5 16.4 25.2 16.4 43.9s-5.5 33.4-16.4 43.9c-10.4 10-24.7 15.1-42.6 15.1zm0-78c-14.6 0-19 4.4-19 19s4.4 19 19 19 19-4.4 19-19-4.5-19-19-19z" style="fill: #019df4;"/></g></svg>
