<?xml version="1.0" encoding="UTF-8"?>
<svg xmlns="http://www.w3.org/2000/svg" viewBox="0 0 702.9 702.9"><g fill="#019df4"><path d="M536.5 527h-234c-27.3 0-51.5-9.1-69.8-26.4-19.5-18.4-32.1-45.1-37.6-79.5-3.1-19.9-22.6-137.5-38.4-231.8-.5-1.2-.7-2.5-.7-3.8v-.6c-9.4-56-17.2-102.8-19.4-114.7-2.5-13.8-10.6-26.4-22.8-35.6C101.3 25.2 85.2 20 68.5 20H10C4.5 20 0 15.5 0 10S4.5 0 10 0h58.5c21 0 41.4 6.6 57.4 18.7 16.3 12.2 27.1 29.3 30.4 48 2 11.4 9.5 55.5 18.4 108.8h517.8c5.5 0 10 4.5 10 10 0 .8-.1 1.7-.3 2.5-5.5 21.8-15.9 63.7-27 108.1-13.4 54-27.3 109.8-31.5 126-9 34.8-22 60.3-39.5 77.9-18.1 17.9-40.8 27-67.7 27zM178.1 195.5c15.4 92.6 33.8 203.2 36.8 222.4 9 57.4 40.1 89.1 87.6 89.1h234c21.7 0 39.2-7 53.5-21.3 14.8-14.8 26.3-37.9 34.3-68.7 4.2-16.1 18-71.9 31.5-125.8 9.2-37 18-72.4 23.9-95.7H178.1zM302.5 702.5c-31.1 0-49-17.9-49-49s17.9-49 49-49 49 17.9 49 49-17.9 49-49 49zm0-78c-20.1 0-29 8.9-29 29s8.9 29 29 29 29-8.9 29-29-8.9-29-29-29zM497.5 702.5c-31.1 0-49-17.9-49-49s17.9-49 49-49 49 17.9 49 49-17.9 49-49 49zm0-78c-20.1 0-29 8.9-29 29s8.9 29 29 29 29-8.9 29-29-8.9-29-29-29z" style="fill: #019df4;"/></g></svg>
