<?xml version="1.0" encoding="UTF-8"?>
<svg xmlns="http://www.w3.org/2000/svg" viewBox="0 0 702.8 702.8"><g fill="#019df4"><path d="M698 173.1c-3.8-4.9-9.6-7.7-15.8-7.7H180.5c-8.2-46-14.3-89.3-14.4-90.3-7.8-43.5-48.8-75-97.7-75H20c-11 0-20 9-20 20s9 20 20 20h48.4c29 0 54 18.1 58.3 42 8.2 45.9 53.8 310.9 58.4 340.4 5.8 36.6 19.4 65.3 40.6 85.3 20.2 19.1 46.8 29.1 76.7 29.1h214.5c29.6 0 54.7-10.1 74.7-30 18.9-18.9 31.6-46.2 42.2-82.4 4.7-16.1 61.7-212.1 67.9-234.1 1.6-6.1.2-12.5-3.7-17.3zM302.4 702.7c-17.9 0-32.2-5.1-42.6-15.1-10.9-10.5-16.4-25.2-16.4-43.9s5.5-33.4 16.4-43.9c10.4-10 24.8-15.1 42.6-15.1s32.2 5.1 42.6 15.1c10.9 10.5 16.4 25.2 16.4 43.9s-5.5 33.4-16.4 43.9c-10.4 10-24.7 15.1-42.6 15.1zM497.4 702.7c-17.9 0-32.2-5.1-42.6-15.1-10.9-10.5-16.4-25.2-16.4-43.9s5.5-33.4 16.4-43.9c10.4-10 24.8-15.1 42.6-15.1s32.2 5.1 42.6 15.1c10.8 10.5 16.4 25.2 16.4 43.9s-5.5 33.4-16.4 43.9c-10.4 10-24.7 15.1-42.6 15.1z" style="fill: #019df4;"/></g></svg>
