<?xml version="1.0" encoding="UTF-8"?>
<svg xmlns="http://www.w3.org/2000/svg" viewBox="0 0 702.8 702.8"><path fill="#019df4" fill-rule="evenodd" d="M659.7 487.2V384.1c0-4.6-3.6-8.2-8-8.2H367.2c-30.1 0-54.5 25.1-54.5 55.9v7.6c0 30.8 24.5 55.9 54.5 55.9h284.5c4.4.1 8-3.6 8-8.1zm-54.2 109.6l-.1-57.1H367.2c-53.8 0-97.7-45-97.7-100.2v-7.6c0-55.3 43.8-100.2 97.7-100.2h237.7l-.1-53.5c.8-16.3-2.8-28.6-10.4-37-7.7-8.5-19.5-13-34-13.1l-471.9.1v-.3c-16.2 0-31.6-4.8-45.2-13.1v378.6c-.8 16 2.8 28.3 10.5 36.6 7.8 8.6 20.1 13.3 34.7 13.4l471.9-.1c12.1 0 23.4-4.8 31.9-13.6s13.2-20.5 13.2-32.9zM43.3 135.9v1.2c0 11.3 4.1 22 11.4 30.5 1-28.9 24.4-52.2 53.3-52.2l400.8-28.8V60L89.9 89.5c-13.5.1-24.9 4.9-33.4 13.6-8.5 8.8-13.2 20.4-13.2 32.8zm487-6.4l-420.8 30.2c-7.2.1-11.9 4.4-11.9 9.7v12.1c0 .7-.3 1.4-.4 2.1l453.8.1v-45.2c0-5.3-4.7-9.7-10.4-9.7l-10.2.7h-.1zm121.4 202.1c28.2 0 51.1 23.5 51.1 52.5v103.1c0 28.9-23 52.5-51.1 52.5h-3.1l.1 57.1c0 24.2-9.1 47-25.8 64.1-16.7 17.2-38.9 26.6-62.5 26.6l-472.1.1c-26.6-.2-50-10-65.9-27.4C6.5 642.8-1.2 619.3.2 592.1V135.9c0-24.2 9.2-47 25.8-64.1 16.7-17.2 38.9-26.6 62.5-26.6l440.4-31.1c6.4-.2 11.9 1.7 16.2 5.9 4.4 4.2 6.8 10 6.8 16.2V86c24.6 5.6 42.3 26.9 42.3 52.4v51.5c12.2 4.6 23 11.5 31.6 20.8 15.9 17.4 23.5 41 22.1 68.5l.1 52.4h3.7zM374 402.9c19.2 0 34.8 16 34.8 35.7 0 19.7-15.6 35.7-34.8 35.7-19.2 0-34.7-16-34.7-35.7 0-19.7 15.5-35.7 34.7-35.7z" clip-rule="evenodd" style="fill: #019df4;"/></svg>
