<?xml version="1.0" encoding="UTF-8"?>
<svg xmlns="http://www.w3.org/2000/svg" viewBox="0 0 702.8 702.8"><path fill="#019df4" fill-rule="evenodd" d="M659.4 487.1V384c0-4.5-3.6-8.2-8-8.2H367.1c-30 0-54.5 25.1-54.5 55.9v7.6c0 30.8 24.4 55.9 54.5 55.9h284.3c4.4.1 8-3.6 8-8.1zM97.8 181.6c0 .8-.3 1.4-.4 2.1l453.5.1v-45.2c0-5.3-4.7-9.7-10.4-9.7l-10.2.8h-.2l-420.5 30.1c-7.2.1-11.9 4.5-11.9 9.7v12.1zm-42.9-13.8c1-28.9 24.4-52.2 53.3-52.2l400.5-28.7V60.2L90.1 89.7c-13.5.1-24.9 4.9-33.4 13.7-8.5 8.8-13.2 20.4-13.2 32.8v1.2c0 11.2 4.2 21.9 11.4 30.4zm596.5 163.8c28.2 0 51.1 23.5 51.1 52.5v103.1c0 28.9-22.9 52.4-51.1 52.4h-3.1l.1 57c0 24.2-9.1 47-25.8 64.1-16.7 17.2-38.9 26.6-62.4 26.6l-471.7.2c-26.6-.2-49.9-10-65.9-27.4C6.7 642.7-1 619.2.4 592V136.2c0-24.2 9.2-47 25.8-64.1C42.9 55 65 45.5 88.6 45.5l440.1-31c6.4-.2 11.8 1.7 16.2 5.9 4.4 4.2 6.8 10 6.8 16.2v49.8c24.5 5.5 42.2 26.9 42.2 52.3v51.5c12.2 4.5 23 11.4 31.6 20.8 15.9 17.4 23.5 41 22.1 68.4l.1 52.3h3.7zM374 402.8c19.2 0 34.7 16 34.7 35.7 0 19.7-15.5 35.7-34.7 35.7-19.2 0-34.7-16-34.7-35.7-.1-19.7 15.5-35.7 34.7-35.7z" clip-rule="evenodd" style="fill: #019df4;"/></svg>
