<?xml version="1.0" encoding="UTF-8"?>
<svg xmlns="http://www.w3.org/2000/svg" viewBox="0 0 702.8 702.8"><path fill="#019df4" fill-rule="evenodd" d="M687.7 305.4L392.9 15.7c-21.3-20.9-61.6-20.9-83 0L15.1 305.5C.2 320-4 340.6 4 359.1c8.6 19.7 29.2 32.4 52.5 32.4h21.8v260c0 28.3 25.3 51.3 56.5 51.3h111c8.2.2 15.1-6.4 15.2-14.6V543.8h182.5v144.4c.1 8.2 6.9 14.8 15.2 14.7h104.9c31.2 0 56.5-23 56.5-51.3v-260h26c23.3 0 44-12.7 52.5-32.4 8.2-18.6 4-39.2-10.9-53.8" clip-rule="evenodd" style="fill: #019df4;"/></svg>
