<?xml version="1.0" encoding="UTF-8"?>
<svg xmlns="http://www.w3.org/2000/svg" viewBox="0 0 702.8 702.8"><path fill="#019df4" fill-rule="evenodd" d="M474 673.4h89.7c14.4 0 26.1-9.8 26.1-21.9V376.8c.1-8.2 6.9-14.8 15.2-14.7h41.2c13.4 0 21.4-7.5 24.5-14.5 3.4-7.5 1.5-16.3-4.7-21.7L371.2 36.3c-10-9.8-29.6-9.8-39.5 0L36.8 326c-6.1 5.4-8 14.2-4.7 21.7 3.1 7 11.1 14.5 24.5 14.5h37c8.4 0 15.2 6.6 15.2 14.7v274.7c0 12.1 11.7 21.9 26 21.9h95.8V529c.1-8.2 6.9-14.8 15.2-14.7h212.9c8.4 0 15.2 6.6 15.2 14.7l.1 144.4zm89.7 29.4H458.8c-8.3.1-15.1-6.4-15.2-14.7V543.8H261.1v144.4c-.2 8.3-7 14.8-15.2 14.7h-111c-31.2 0-56.5-23-56.5-51.3v-260H56.6c-23.3 0-43.9-12.7-52.6-32.4-8-18.5-3.8-39.1 11.1-53.6L309.9 15.7c21.3-20.9 61.7-20.9 83 0l294.9 289.7c14.8 14.6 19.1 35.1 11 53.6-8.6 19.7-29.2 32.5-52.6 32.5h-25.9v260c0 28.3-25.4 51.3-56.6 51.3z" clip-rule="evenodd" style="fill: #019df4;"/></svg>
