<?xml version="1.0" encoding="UTF-8"?>
<svg xmlns="http://www.w3.org/2000/svg" viewBox="0 0 702.8 702.8"><path fill="#019df4" fill-rule="evenodd" d="M478.9 659.6h80.3c10 0 18.1-6.4 18.1-14.3V376.2c.2-12.1 10.2-21.8 22.4-21.6H640c9.5 0 15.1-5 17.1-9.8 1.4-3.4 2.1-8.3-3.1-13.5L365.4 47.7c-7-6.9-21.1-6.9-28.1 0L48.8 331.5c-5.2 5.1-4.5 10.1-3 13.5 2 4.7 7.6 9.7 17.1 9.7h36.3c12.1-.2 22.1 9.4 22.3 21.6v269.1c0 7.9 8.1 14.3 18 14.3h86.3V525.4c.2-12.1 10.2-21.8 22.4-21.6h208.4c12.1-.2 22.1 9.4 22.3 21.6v134.2zm80.3 43.2H456.5c-12.1.2-22.1-9.4-22.3-21.6V547H270.5v134.2c-.2 12.1-10.2 21.8-22.3 21.6H139.5c-34.6 0-62.8-25.8-62.8-57.4V397.9H62.9c-25.8 0-48.8-14.2-58.3-36.2-9.1-20.8-4.4-44 12.4-60.3L305.5 17.5c23.6-23.3 68.2-23.3 91.9 0l288.5 283.8c16.7 16.4 21.5 39.5 12.4 60.3-9.5 22-32.5 36.2-58.3 36.2h-18v247.5c0 31.7-28.2 57.5-62.8 57.5z" clip-rule="evenodd" style="fill: #019df4;"/></svg>
