<?xml version="1.0" encoding="UTF-8"?>
<svg xmlns="http://www.w3.org/2000/svg" viewBox="0 0 702.8 702.8"><path fill="#019df4" fill-rule="evenodd" d="M632.7 321.3C629.4 114.1 528.8 0 347.7 0 165.7 0 64.8 115.6 63 325.8 22.1 350.8.1 397.3.1 463.9c0 98 47.4 154.3 133.4 158.2l9.8.3h3.8c69.3-2.4 83.6-65.1 83.6-158.5 0-93.7-14.3-156.3-82.3-158.8-3.9-.3-8.4-.3-10.8 0-1.8 0-3.6 0-4.1.3-9 .3-17.3 1.6-25.4 3 6.6-174.3 86.8-262.9 239.6-262.9s233.1 88.3 239.9 262c-5.6-.6-11-1.9-17-2.2-1.8-.3-3.6-.3-4.8-.3-3.9-.3-9-.3-10.1 0-69.5 2.4-83.6 65.1-83.6 158.8 0 61.2 6.3 108.9 30.2 135.4-31 17.3-68.3 28.6-111.9 34.4-5.4-20.4-21.5-32.6-46-33.2-31.4-.9-50.7 16.7-51.7 49.6-.6 15.8 3.3 28.6 11.7 37.7 8.3 9.1 20.9 14.6 36.7 14.9h2.4c14.6 0 26.5-4.3 35.2-12.5 2.7-2.7 4.5-6.4 6.3-10 67.1-7 123-26.8 166.3-58.4 1.5.3 2.4.6 3.8.6h4.5l9.8-.3c85.9-4 133.4-60.3 133.4-158.2 0-70.4-25.1-119.1-70.1-142.5" clip-rule="evenodd" style="fill: #019df4;"/></svg>
