<?xml version="1.0" encoding="UTF-8"?>
<svg xmlns="http://www.w3.org/2000/svg" viewBox="0 0 702.8 702.8"><path fill="#019df4" fill-rule="evenodd" d="M567.3 576.9h-10.1c-1.8 0-3.6 0-5.4-.3-1.7-.6-3.5-.9-5.3-.9-14.6-4.2-29.5-22.5-29.5-111.7 0-112 23.3-112.5 42.7-113.2h3.9l3.9.3c38.8 1.6 90.7 15.2 90.7 112.9-.2 97.3-52.1 111-90.9 112.9M135.2 351.1c.6 0 3.6-.3 4.2-.3h6.2c17 .6 40.3 1.2 40.3 113.2 0 111.7-23.3 112.2-42.7 112.9h-8.1C96.4 575 44.8 561.3 44.8 464c0-97.7 51.6-111.4 90.4-112.9m497.4-29.8C629.4 114.1 528.9 0 347.7 0 165.6 0 64.7 115.7 63 325.8 22.1 350.8 0 397.4 0 464c0 98 47.4 154.3 133.4 158.2l9.9.3h3.9c69.3-2.4 83.6-65.1 83.6-158.5 0-93.7-14.3-156.4-82.4-158.8-3.6-.3-7.2-.3-10.7 0-1.8 0-3.6 0-4.2.3-8.5.4-17 1.4-25.4 3.1C114.7 134.2 195 45.7 347.8 45.7c152.8 0 233 88.2 239.9 262-5.7-.6-11-1.8-17-2.1-1.8-.3-3.5-.3-4.8-.3-3.4-.3-6.8-.3-10.1 0-69.5 2.4-83.5 65.1-83.5 158.8 0 61.1 6.3 108.9 30.1 135.4-31 17.3-68.3 28.6-111.9 34.4-5.4-20.4-21.5-32.6-46-33.2-31.3-.9-50.7 16.8-51.6 49.6-.6 15.8 3.3 28.6 11.6 37.7 8.4 9.1 20.9 14.6 36.7 14.9h2.4c14.6 0 26.6-4.2 35.2-12.5 2.7-2.7 4.5-6.3 6.3-10 67.1-7 123-26.7 166.2-58.4 1.5.4 2.4.6 3.9.6h4.5l9.8-.3c85.9-4 133.4-60.2 133.4-158.2-.1-70.7-25.2-119.4-70.3-142.8" clip-rule="evenodd" style="fill: #019df4;"/></svg>
