<?xml version="1.0" encoding="UTF-8"?>
<svg xmlns="http://www.w3.org/2000/svg" viewBox="0 0 702.8 702.8"><path fill="#019df4" d="M631.3 325.9C629.3 57 476.4 0 347.9 0S64.4 57.3 64.4 330.4C22.8 353.7 0 399.9 0 466.5c0 95.2 45.7 149.2 128.6 153.7H142c55.9-2.1 77.6-45.4 77.6-154s-21.7-152.2-77-154h-13.8c-11.8.6-23.5 2.5-34.8 5.7 3.5-191 88.7-288 253.9-288s249.8 96.4 253.9 286.2c-8.8-1.8-17.7-3-26.6-3.6h-14.1c-55.9 2.1-77.9 45.4-77.9 154.3 0 76.7 11.1 119.4 37.2 140.3-41.5 24.1-87.8 38.6-135.6 42.7-1.6-20.9-19.7-36.7-40.7-35.5-11.8-1.7-23.7 2-32.4 10.2-8.8 8.3-13.4 20.1-12.7 32.2-1.1 11.9 2.5 23.8 10 33.1 8.5 8.7 20.2 13.4 32.2 12.8 12 1.3 24-2.6 33.1-10.7 3.4-3.6 6.1-7.8 7.9-12.5 61.5-3.8 120.9-24.5 171.9-59.7 2 .1 4.1.1 6.1 0h14.3c82.9-3.9 128.3-59.7 128.3-153.7 0-70.2-25.2-118.3-71.5-140.1zm-500.7 16.4h10.5c20.8 0 49.2 1.8 49.2 124.5S161 590.1 138.2 591H130c-67.6-3.9-100.7-44.5-100.7-124.5s33.1-120.9 101.3-124.2zm442.5 248.1H552c-18.7-3.3-38.7-20.9-38.7-123 0-122.6 29.3-123.5 52.1-124.5h8.5c67.6 3.3 100.4 43.9 100.4 124.2.1 80.3-33.6 120-101.2 123.3z" style="fill: #019df4;"/></svg>
