<?xml version="1.0" encoding="UTF-8"?>
<svg xmlns="http://www.w3.org/2000/svg" viewBox="0 0 702.8 702.8"><path fill="#019df4" fill-rule="evenodd" d="M512.5 590.9c-.1 0-.3-.1-.4-.1-6 0-14.4-2.4-22.9-7.9-8.9-5.7-14.6-11.9-16.8-18.3-4.3-12.4-18.1-19-30.7-14.8-12.7 4.2-19.5 17.6-15.1 30 5.8 16.7 17.9 31 36.1 42.7 4.7 3 9.5 5.5 14.2 7.6-11 16.8-28.8 25.3-54 25.3-31.6 0-44.3-32.4-47.3-41.7.1-8.1.2-28.1 0-33V122c0-6.2.2-28.4.3-37.8 4.1-9.4 18.5-36.9 47-36.9 25.4 0 42.9 8.2 53.8 25-23.6 11.2-39.5 32.5-46.9 53.1l-2.2 6.5 46.2 14.1 1.6-4.9c4-11 13.9-29 36.6-29.3h.3c101.6 0 112.6 91.3 112.6 130.6 0 11-1.5 43.6-15.4 73.4-16.1-10.1-33.1-15.9-48.6-18.8 1.2-16.2-5.5-31.5-16.4-42.7-.1-.1-2.4-2.5-2.5-2.6-9.2-9.5-23.4-8.7-33.1.3-9.7 9-9 25.1.2 34.5 3.3 3.4 4 5.8 3.3 8.1h-.2c-3.7.4-8.2.9-12.4 1.4-3.7.5-8.7 1.4-14.7 2.7-13 2.9-21.1 15.6-18.1 28.4 3 12.8 16.2 20.8 29 17.7 4.2-.9 7.7-1.6 10.3-1.9 3.5-.4 7.4-.9 10.8-1.2 12.2-1.3 53.6-3 80.2 24.7 25.5 33.5 27.5 80.2 27.5 93.8.3 39.2-10.6 129-112.3 130.7m-232.7 64.6c-24.9 0-42.1-8-53.1-24.2 5.6-2.3 11.3-5.1 16.9-8.7 18.2-11.7 30.4-26 36.1-42.7 4.3-12.4-2.5-25.8-15.1-30-12.7-4.2-26.4 2.4-30.7 14.8-2.2 6.4-7.9 12.6-16.8 18.3-8.5 5.5-16.6 7.9-22.9 7.8-1.1-.1-2.1.3-3.2.4-.3 0-.6-.1-.8-.1-101.6 0-112.6-91.4-112.6-130.6 0-11.5 1.6-46.8 17.5-77.7 7.1 2.5 14.8 4.3 23.2 5.2 2.3 22 17.9 37.8 36.7 44.8.4.2 3.8 1.4 4.2 1.5 2.5.9 5 1.2 7.4 1.2 9.6 0 18.1-6.3 21.8-16 4.6-12.1-3.2-26.1-15.5-30.7-4.6-1.7-6.2-3.7-6.5-6.2 29.4-12.1 43.1-39.8 45.8-65.3l.6-6.4c.7-13-9.4-24.2-22.8-25-13.8-.7-24.8 9.2-25.6 22.3l-.4 4.3c-3.3 31.7-29.3 29.4-37.9 28.9-9.8-.8-17.2-3.5-22.2-7.3-24-33.3-26.1-78.3-26.1-91.6 0-39.3 11-130.6 115.4-130.6h.2c22.7 0 33.6 18.2 37.5 29.1l1.9 5.8c3.3 9.8 12.5 15.8 22.5 15.8 2.6 0 5.3-.4 7.9-1.3 12.7-4 19.4-18 15.3-30.4l-1.8-5.3c-7.7-21.5-24.2-43.2-49.6-54 11.1-15.9 28.4-24.1 52.9-24.1 31.6 0 44.3 32.5 47.3 41.7-.1 8.1-.2 28.1 0 33V581c0 6.2-.2 28.3-.3 37.8-4.2 9.2-18.6 36.7-47.2 36.7m393.7-413.1c0-78-38-168.4-146.1-177C509.9 23.6 472.7.1 422.9.1c-34.1 0-57.2 17-72 34.5C335.3 15.9 312.3.1 279.8.1c-49.7 0-86.8 23.4-104.4 65C67.9 72.7 29.2 163.9 29.2 242.5c0 20 3 67.6 28.1 108.9-25.1 41.4-28.1 89.1-28.1 109.1 0 78 38 168.4 146.1 177.1 17.5 41.7 54.7 65.3 104.5 65.3 34.1 0 57.2-17 72-34.5 15.6 18.7 38.6 34.5 71.1 34.5 49.7 0 86.8-23.4 104.4-65 107.6-7.6 146.2-98.8 146.2-177.4 0-20-3-67.5-28.1-108.9 25.1-41.5 28.1-89.2 28.1-109.2" clip-rule="evenodd" style="fill: #019df4;"/></svg>
