<?xml version="1.0" encoding="UTF-8"?>
<svg xmlns="http://www.w3.org/2000/svg" viewBox="0 0 702.8 702.8"><path fill="#019df4" fill-rule="evenodd" d="M619.8 326.7c-20.5-15.2-43.4-21.7-62.8-24.2 4.2-16.9-2.1-33.4-13.6-45.1-.1-.1-2.4-2.5-2.5-2.5-6.4-6.2-15.5-5.1-22.1 1-6.5 6.1-5.5 17.4.7 23.8 9 9.3 6.1 16.8 2.4 21.6-1.5.1-3.3.2-4.4.3-3.9.4-8.4.9-12.4 1.5-4.8.6-9.6 1.5-14.3 2.6-8.7 1.8-14.3 10.3-12.5 19.1 0 .1 0 .2.1.3 2 8.7 11.1 14.1 19.8 12.1 4.6-1 8.6-1.6 11.5-2 3.6-.5 7.6-1 11.2-1.3 13.4-1.5 59.6-3.4 89.5 28.1 27.9 36.4 30.1 86.6 30.1 101.2 0 32.9-9 139.5-123.5 141.4h-.2c-8.7 1.1-18.2-2.8-28.5-9.4-10.7-6.8-17.7-14.5-20.6-22.8-3.1-8.5-12.4-12.9-21-10.1-8.5 2.7-13.1 11.7-10.4 20.2 0 .1.1.2.1.3 5.3 15.2 16.7 28.6 33.8 39.4 7 4.5 14.1 7.9 21.1 10.3-12.1 24.9-33.9 38.2-66.4 38.2-39.5 0-54-40.4-56.8-49.5.1-7.2.2-29.4 0-34.9V116.8c0-6.7.2-31.8.3-40.3 3.8-9.3 20.5-44.2 56.6-44.2 32.3 0 54.1 13.2 66.2 37.9-26.4 9.2-43.5 31.2-51.2 52.7l-2.3 6.7c-2.6 8.5 2.2 17.5 10.7 20.1.1 0 .2 0 .2.1 1.6.5 3.3.7 4.9.7 7.2 0 13.6-4.5 15.8-11.4l1.9-5.5c3.9-10.8 17.6-35.5 46.1-35.4 114.4.3 123.4 108.5 123.4 141.7-.3 12.7-2 52.7-20.9 86.8M278 670.5c-32 0-53.7-12.9-65.9-37.1 8.1-2.4 16.2-6.1 24.2-11.3 17.1-10.9 28.5-24.2 33.8-39.4 2.9-8.4-1.6-17.5-10-20.4-.1 0-.2-.1-.4-.1-8.6-2.9-17.9 1.6-21 10.1-2.9 8.3-9.8 16-20.6 22.9-10.2 6.6-19.8 10.4-28.4 9.4-.7 0-1.3.3-1.9.4-.6-.1-1.2-.3-1.8-.3C71.2 604.7 62.2 496.3 62.2 463c0-13.2 2-55.3 22.7-90.1 9.2 4.3 19.5 7.5 31.7 8.5 1.3.1 2.5.1 3.8.1-.6 22.5 14.3 38.8 32.9 45.9l3.3 1.2c1.7.6 3.4.9 5 .9 6.4 0 11.9-4.4 14.5-11 3.2-8.3-2.6-18-11-21.2-13.5-5.2-12.9-14.3-11.2-20.3 29.7-10.4 43.7-36.8 46.2-61.6l.5-5.5c.6-9-6.1-16.7-15.1-17.4h-.2c-9-.8-16.9 5.8-17.7 14.8l-.4 5.1c-1.9 18.4-11.3 40-47.8 36.7-12.4-1-21.7-4.5-28.2-9.8-26.8-36.2-29.1-85.1-29.1-99.4 0-33.2 9-141.7 126.6-141.7h.1c31.7-.6 42.6 24.5 46.5 35.5l1.9 5.5c2.8 8.6 12 13.4 20.7 10.7 8.8-2.6 13.6-11.7 10.9-20.2l-2.3-6.6c-8-22.5-26.2-45.5-54.6-53.7 12.2-24.1 33.9-36.9 65.9-36.9 39.5 0 54 40.4 56.8 49.5-.1 7.2-.3 29.4 0 34.9V586c0 6.7-.2 31.8-.3 40.3-3.5 9.3-20.2 44.2-56.3 44.2m395.5-430.7c0-28.2-7.1-166-147.4-173.4C510.3 23.5 474.8 0 424.8 0c-37.2 0-60.3 21.6-73.7 40.5C336.7 19.5 313 0 278 0c-50 0-85.5 23.4-101.3 66.1-140.1 6-147.4 145.3-147.4 173.8 0 16 2.3 68.5 30.3 111.4-27.9 43-30.3 95.6-30.3 111.7 0 28.2 7.1 166 147.4 173.4 15.8 42.9 51.3 66.4 101.4 66.4 37.1 0 60.2-21.6 73.6-40.5 14.4 21 38.2 40.5 73.1 40.5 49.9 0 85.4-23.3 101.3-66.1 140.2-5.9 147.4-145.3 147.4-173.7 0-16-2.3-68.5-30.3-111.5 28-43 30.3-95.6 30.3-111.7" clip-rule="evenodd" style="fill: #019df4;"/></svg>
