<?xml version="1.0" encoding="UTF-8"?>
<svg xmlns="http://www.w3.org/2000/svg" viewBox="0 0 702.8 702.8"><path fill="#019df4" fill-rule="evenodd" d="M329.5 93v516.8c0 7.4.2 31 .1 40.4-2.8 30.4-23 52.6-62.8 52.6-35.3 0-59.2-14.2-72.6-40.9 8.9-2.7 17.8-6.8 26.7-12.5 18.9-12 31.4-26.6 37.3-43.4 3.2-9.3-1.9-19.4-11.4-22.6-9.5-3.1-19.9 1.8-23.1 11.1-3.2 9.2-10.8 17.6-22.7 25.2-11.2 7.2-21.8 11.5-31.4 10.3-.7.1-1.4.4-2.1.5-.6-.1-1.3-.3-1.9-.3-126.5 0-136.4-119.4-136.4-156 0-14.5 2.1-60.9 25-99.2 10.2 4.7 21.5 8.2 34.9 9.3 1.5.1 2.8.1 4.2.2-.5 24.8 15.9 42.7 36.3 50.5.1 0 3.6 1.3 3.7 1.3 1.9.7 3.8 1 5.5 1 7.1 0 13.2-4.8 16-12.1 3.5-9.1-2.8-19.9-12.1-23.4-14.8-5.7-14.2-15.8-12.4-22.2 32.7-11.4 48.1-40.6 50.9-67.8l.5-6.1c.8-9.8-6.7-18.3-16.7-19.1-9.9-.9-18.8 6.5-19.6 16.3l-.5 5.6c-2.1 20.3-12.4 44-52.7 40.4-13.6-1.1-23.8-4.9-31-10.8-29.5-39.9-32-93.7-32-109.5 0-36.6 9.8-156 139.5-156h.1c34.9-.7 46.9 27 51.1 39.1l2.1 6.1c2.4 7.6 9.6 12.5 17.4 12.5 1.8 0 3.6-.3 5.4-.8 9.6-2.9 15-12.9 12-22.2l-2.5-7.3c-8.8-24.7-28.9-50.1-60.1-59.2C207.7 14.3 231.5.2 266.7.2c43.5 0 62.1 33.6 62.6 54.6.1 7.7-.2 32.1.2 38.2zm281 260.9c13.6 1.1 23.9 4.9 31 10.8 29.5 39.8 32 93.6 32 109.5 0 36.6-9.8 156-139.5 156h-.1c-34.9.7-46.9-27-51.2-39l-2.1-6.1c-2.4-7.6-9.6-12.5-17.4-12.5-1.8 0-3.6.3-5.4.8-9.6 2.9-15 12.9-12 22.2l2.5 7.3c8.9 24.7 28.9 50 60.1 59.1-13.4 26.5-37.3 40.7-72.5 40.7-43.5 0-61.4-25.3-62.6-54.6.1-7.9.3-32.4 0-38.5V93 53.2C373.2 26.7 396.2 0 435.9 0c35.3 0 59.2 14.2 72.6 40.9-8.9 2.7-17.8 6.8-26.7 12.5-18.9 12-31.4 26.6-37.3 43.5-3.2 9.3 1.9 19.4 11.4 22.5 9.5 3.1 19.9-1.8 23.1-11.1 3.2-9.2 10.8-17.6 22.7-25.2 11.2-7.2 21.7-11.4 31.3-10.3.7-.1 1.4-.4 2.1-.5.7 0 1.3.3 1.9.3 126.5 0 136.4 119.4 136.4 156.1 0 14.5-2.1 60.9-25 99.2-10.2-4.7-21.5-8.2-34.9-9.3-1.4-.1-2.8-.1-4.2-.2.5-24.8-15.9-42.7-36.4-50.5-.1 0-3.6-1.3-3.7-1.3-1.9-.7-3.8-1-5.5-1-7.1 0-13.2 4.8-16 12.1-3.5 9.1 2.8 19.8 12.1 23.4 14.9 5.7 14.3 15.7 12.4 22.2-32.7 11.4-48.1 40.6-50.9 67.8l-.5 6.1c-.8 9.8 6.7 18.3 16.7 19.1 9.9.9 18.8-6.5 19.6-16.3l.5-5.5c2.2-20.4 12.6-44.2 52.9-40.6z" clip-rule="evenodd" style="fill: #019df4;"/></svg>
