<?xml version="1.0" encoding="UTF-8"?>
<svg xmlns="http://www.w3.org/2000/svg" viewBox="0 0 702.8 702.8"><path fill="#019df4" fill-rule="evenodd" d="M384.7 351.4l311-311.5c9.1-8.5 9.5-22.7 1-31.8-.3-.4-.7-.7-1-1-8.5-9.1-22.7-9.5-31.8-1-.4.3-.7.7-1 1l-311.5 311L39.9 7.1C31.4-2 17.2-2.4 8.1 6.1c-.4.3-.7.7-1 1-9.1 8.5-9.5 22.7-1 31.8.3.4.7.7 1 1l311 311.5-311 311.5c-9.1 8.5-9.5 22.7-1 31.8.3.4.7.7 1 1 4.3 4.5 10.2 7.1 16.4 7 6.2.1 12.2-2.5 16.4-7l311.5-311 311.5 311c8.5 9.1 22.7 9.5 31.8 1 .4-.3.7-.7 1-1 9.1-8.5 9.5-22.7 1-31.8-.3-.4-.7-.7-1-1l-311-311.5z" clip-rule="evenodd" style="fill: #019df4;"/></svg>
