<?xml version="1.0" encoding="UTF-8"?>
<svg xmlns="http://www.w3.org/2000/svg" viewBox="0 0 702.8 702.8"><path fill="#019df4" fill-rule="evenodd" d="M399.5 351.4L692.8 58.1c13.3-13.3 13.3-34.8 0-48.1S658-3.3 644.7 10L351.4 303.3 58.1 10C44.5-3 22.9-2.4 10 11.2-2.5 24.3-2.5 44.9 10 58.1l293.3 293.3L10 644.7c-13.3 13.3-13.3 34.9 0 48.1s34.8 13.2 48.1-.1l293.3-293.3 293.3 293.3c13.2 13.3 34.6 13.4 47.9.2l.2-.2c13.3-13.3 13.3-34.8 0-48L399.5 351.4z" clip-rule="evenodd" style="fill: #019df4;"/></svg>
