<?xml version="1.0" encoding="UTF-8"?>
<svg xmlns="http://www.w3.org/2000/svg" viewBox="0 0 702.8 702.8"><g fill="#019df4"><path d="M574.4 214.9h-446c-5.5 0-10-4.5-10-10s4.5-10 10-10h446c5.5 0 10 4.5 10 10s-4.5 10-10 10zM437.9 370.9H128.4c-5.5 0-10-4.5-10-10s4.5-10 10-10h309.5c5.5 0 10 4.5 10 10s-4.5 10-10 10z" style="fill: #019df4;"/><path d="M105.7 682.5c-14.7 0-27.5-12.2-27.5-26v-111c-20.7-2.1-39.8-11.9-53.6-27.4C9.2 500.9.7 477.4.7 452V114.3c.1-52 42.2-94 94.2-94.1H608c51.9.1 94 42.2 94 94.1V452c-.1 51.9-42.1 94-94.1 94.1H212.2c-14.9 22.2-79.2 117.5-83.1 123.2-7.5 10.9-16.9 13.2-23.4 13.2zM94.9 40.3c-40.9 0-74.1 33.2-74.2 74.1V452c0 42.9 28.3 74.1 67.4 74.1 5.5 0 10 4.5 10 10v120.4c0 2.3 3.5 6 7.5 6 1.9 0 4.2-.5 6.9-4.5 4.3-6.3 85.2-126.3 86-127.5 1.9-2.8 5-4.4 8.3-4.4H608c40.9-.1 74-33.2 74-74.1V114.3c0-40.9-33.2-74-74.1-74.1l-513 .1z" style="fill: #019df4;"/></g></svg>
