<?xml version="1.0" encoding="UTF-8"?>
<svg xmlns="http://www.w3.org/2000/svg" viewBox="0 0 702.8 702.8"><g fill="#019df4"><path d="M115.2 683c-19.5 0-36.7-16.6-36.7-35.5v-83.4C33.4 554.9.4 514.7.4 465.1V120.7C.4 65 46 19.7 102 19.7h499.2c56 0 101.5 45.3 101.5 101v344.5c0 55.7-45.5 101-101.5 101H224.8l-78.6 100.6C134 683 119.8 683 115.2 683zM101.9 59.7c-33.9 0-61.5 27.4-61.5 61v344.5c0 34.8 25 61 58.1 61 11 0 20 9 20 20v91.1L199.3 534c3.8-4.8 9.6-7.7 15.8-7.7h386c33.9 0 61.5-27.4 61.5-61V120.7c0-33.7-27.6-61-61.5-61H101.9z" style="fill: #019df4;"/><path d="M564.4 235.9h-426c-11 0-20-9-20-20s9-20 20-20h426c11 0 20 9 20 20s-9 20-20 20zM427.9 391.9H138.4c-11 0-20-9-20-20s9-20 20-20h289.5c11 0 20 9 20 20s-9 20-20 20z" style="fill: #019df4;"/></g></svg>
