<?xml version="1.0" encoding="UTF-8"?>
<svg xmlns="http://www.w3.org/2000/svg" viewBox="0 0 702.8 702.8"><path fill="#019df4" d="M601.2 20.4H102.1c-55.6 0-100.9 45-100.9 100.4v344.5c0 49.4 33 89.5 78.1 98.5v83.9c0 18.2 17.2 34.8 36 34.8 18.5 0 27.5-12 30.5-16l78.8-100.8h376.6c55.6 0 100.8-45 100.8-100.4V120.7c0-55.3-45.2-100.3-100.8-100.3zm-36.8 215.5h-426c-11 0-20-9-20-20s9-20 20-20h426c11 0 20 9 20 20s-9 20-20 20zm-136.5 156H138.4c-11 0-20-9-20-20s9-20 20-20h289.5c11 0 20 9 20 20s-9 20-20 20z" style="fill: #019df4;"/></svg>
