<?xml version="1.0" encoding="UTF-8"?>
<svg xmlns="http://www.w3.org/2000/svg" viewBox="0 0 702.8 702.8"><path fill="#019df4" fill-rule="evenodd" d="M351.8 177c-54.7 0-87.4-33-87.4-88.3 0-28.2 8-50.4 23.9-66C303.7 7.6 325 0 351.8 0c26.8 0 48.1 7.6 63.5 22.5 16 15.5 24.1 37.8 24.1 66.1 0 55.4-32.8 88.4-87.6 88.4zm187.5 237.4c4.7 14 3.7 28.8-2.6 41.8-6.3 12.9-17.1 22.5-30.5 27-5.6 2.3-11.6 3.4-17.6 3.1l6 22.5c1.7 6.5.4 13.4-3.7 18.7-4 5.3-10.3 8.4-16.9 8.4h-14.3l-.6 112.5c0 17-5.2 31.2-14.9 40.9-6.2 6.1-17.2 13.4-35.1 13.4h-1.3c-27.5-.6-47.5-23.4-47.5-54.4l.5-112.4H344l.6 112.3c0 16.8-5.5 31.4-15.6 41.4-8.8 8.7-20.7 13.4-33.1 13.1h-1.3c-28.5-.7-49.9-24.1-49.9-54.4l-.6-112.3h-14.3c-6.7 0-12.9-3.1-16.9-8.4-4.1-5.3-5.4-12.2-3.7-18.7l6-22.5h-.1c-6.1 0-12.1-1.1-18-3.2-12.9-4.4-23.7-14-30-26.8-6.4-13-7.4-27.9-2.7-41.6L218.9 258c.7-2.3 1.6-4.5 2.9-7.3 15.9-37 52.3-61.1 92.6-61.1h74.9c40.5 0 77 24.4 93 62.1.8 1.6 1.8 4 2.7 6.9.1-.2 54.3 155.8 54.3 155.8z" clip-rule="evenodd" style="fill: #019df4;"/></svg>
