<?xml version="1.0" encoding="UTF-8"?>
<svg xmlns="http://www.w3.org/2000/svg" viewBox="0 0 702.8 702.8"><path fill="#019df4" fill-rule="evenodd" d="M311.6 42.1c-9 8.7-13.6 22.5-13.6 41 0 36.5 17.1 53.6 53.8 53.6 36.9 0 54.1-17 54.1-53.6 0-18.4-4.6-32.3-13.7-41-8.8-8.5-22.4-12.7-40.4-12.7-17.9 0-31.5 4.2-40.2 12.7zM351.8 166c-53 0-83.4-30.2-83.4-82.9 0-26.7 7.6-47.6 22.6-62.1 14.5-14 34.9-21 60.8-21s46.4 7.1 60.9 20.9c15.1 14.5 22.7 35.4 22.7 62.2 0 52.7-30.5 82.9-83.6 82.9zm158.9 276.2c2.2-4.5 2.6-9.6 1-14.3L455.2 268c-9.8-27.1-35.6-45.2-64.4-45.2H313c-27.2 0-51.9 16.2-62.7 41.3-.6 1.2-1.1 2.4-1.6 3.6L192.1 428c-3.3 9.6 1.8 20 11.4 23.4 4.7 1.7 9.7 1.5 14.1-.6 4.5-2.1 8-5.9 9.7-10.6l29.4-87.3c3-7.6 11.5-11.4 19.1-8.4 7 2.7 10.8 10.2 9 17.5l-13.4 41.6-26.9 99.8H262c8.1 0 14.7 6.6 14.8 14.6l.7 136.8c0 10.4 8.3 18.7 18.5 18.7 10.3 0 18.6-8.4 18.5-18.7l-.7-136.7c0-8.1 6.5-14.7 14.6-14.8H375.3c8.1 0 14.7 6.6 14.8 14.7l-.6 136.8c0 10.3 8.3 18.7 18.5 18.7 10.3-.1 18.6-8.4 18.5-18.7l.7-136.8c.1-8.1 6.7-14.6 14.8-14.6h17.6L432.3 403 419 361.9c-2.5-7.7 1.8-16 9.5-18.4 7.7-2.5 16 1.7 18.6 9.4l29.5 87.4c3.5 9.5 13.9 14.4 23.5 11.1 4.6-1.5 8.4-4.8 10.6-9.2zm28.9-24c4.2 12.4 3.3 25.4-2.5 37-5.7 11.4-15.4 19.9-27.4 23.9-8.3 3-17.3 3.6-25.9 1.6l9 33.4c2.1 7.8-2.5 15.9-10.3 18-1.3.4-2.6.5-4 .5h-22.2l-.6 122.1c0 26.4-21.6 48-48.1 48s-48.1-21.6-48.1-48.1l.6-122.1H343l.6 122c0 26.6-21.5 48.2-48 48.2s-48-21.6-48-48.1l-.6-122.1h-22.2c-8.2 0-14.7-6.7-14.7-14.8 0-1.3.2-2.5.5-3.7l9-33.4c-8.7 1.9-17.7 1.3-26.1-1.7-11.9-4-21.6-12.6-27.1-23.8-5.8-11.4-6.7-24.8-2.5-36.9l56.6-160.1c.7-2.1 1.5-4.1 2.7-6.5 15.6-35.5 50.7-58.4 89.5-58.3h77.8c39.1 0 74.4 23.1 89.8 59 .9 1.6 1.7 3.7 2.5 6.2l56.8 159.7z" clip-rule="evenodd" style="fill: #019df4;"/></svg>
