<?xml version="1.0" encoding="UTF-8"?>
<svg xmlns="http://www.w3.org/2000/svg" viewBox="0 0 702.8 702.8"><path fill="#019df4" fill-rule="evenodd" d="M318 53.6c-7.2 7.1-10.9 18.9-10.9 35 0 31.7 13.4 45.2 44.8 45.2 31.5 0 44.9-13.5 44.9-45.2 0-16.1-3.7-27.9-11-35-7.1-6.9-18.5-10.4-33.9-10.4-15.4-.1-26.8 3.4-33.9 10.4zM351.8 177c-54.7 0-87.4-33-87.4-88.4 0-28.2 8-50.4 23.9-66C303.7 7.6 325 0 351.8 0c26.8 0 48.1 7.6 63.5 22.5 15.9 15.6 24.1 37.8 24.1 66.1 0 55.4-32.8 88.4-87.6 88.4zm146.6 260c.7-1.6 1.8-4.8.6-8.6l-54.4-156.3c-.2-.4-1.3-3.1-1.5-3.5-9.3-21.9-30.4-36-53.8-36h-74.9c-23.4 0-44.5 14.1-53.8 36-.1.2-1.4 3.3-1.4 3.5l-54.4 156.6c-.9 2.6-.7 5.7.6 8.4.7 1.5 2.4 4.1 5.9 5.3 3.9 1.4 6.9.4 8.3-.3 1.5-.8 4.3-2.5 5.6-6.3l28.2-85.2c3.6-11.3 15.6-17.6 26.8-13.9 9.1 2.9 14.8 11.4 14.8 20.5 0 2.2-.3 4.4-1 6.6l-13 40.7-23.5 88.4h7.7c11.7 0 21.3 9.6 21.3 21.5l.6 133.9c0 2.7.6 11.2 8.2 11.4 2.6-.3 3.4-.6 3.6-.8 1.4-1.4 2.7-5.1 2.7-10.4l-.7-133.9c0-5.7 2.2-11.2 6.2-15.3 4-4.1 9.4-6.4 15.1-6.4h59.7c5.7 0 11.1 2.3 15.1 6.4 4 4.1 6.3 9.6 6.2 15.3l-.6 134s.1 11 5.7 11.2c3.1-.2 5.3-.6 5.7-1 .7-.7 2.1-3.8 2.1-10.3l.7-134.1c.1-11.9 9.6-21.5 21.3-21.5h7.6l-23.7-89-12.8-40.1c-.7-2.2-1-4.4-1-6.6 0-9.1 5.7-17.6 14.8-20.5 11.1-3.7 23.2 2.6 26.8 13.9l28.3 85.4c1.3 3.6 4 5.4 5.6 6.2 1.5.7 4.4 1.7 7.8.4 4.5-1.4 6.2-4.1 6.9-5.6zm40.9-22.7c4.7 14 3.7 28.8-2.6 41.8-6.3 12.9-17.1 22.5-30.5 27-5.6 2.1-11.5 3.6-17.6 3.1l6 22.5c1.7 6.5.4 13.4-3.7 18.7-4 5.4-10.3 8.5-16.9 8.5h-14.3l-.6 112.5c0 17.1-5.1 31.3-14.9 41-6.2 6.2-17.3 13.3-35.1 13.3h-1.3c-27.5-.5-47.5-23.4-47.5-54.4l.5-112.4H344l.6 112.3c0 16.8-5.5 31.5-15.6 41.4-8.7 8.6-20.1 13.1-33.1 13.1h-1.3c-28.5-.7-49.9-24.1-49.9-54.4l-.5-112.4h-14.3c-6.7 0-12.9-3.1-16.9-8.5-4.1-5.3-5.4-12.2-3.7-18.7l6-22.6h-.1c-6.1 0-12.1-1.1-17.9-3.2-12.9-4.4-23.7-14-30-26.8-6.4-13.1-7.4-27.8-2.7-41.6l54.5-156.8c.7-2.2 1.6-4.5 3-7.2 15.6-36.7 52.1-61.1 92.6-61.1h74.9c40.5 0 77 24.4 93 62.1.8 1.6 1.8 3.9 2.7 6.9l54 155.9z" clip-rule="evenodd" style="fill: #019df4;"/></svg>
