<?xml version="1.0" encoding="UTF-8"?>
<svg xmlns="http://www.w3.org/2000/svg" viewBox="0 0 702.8 702.9"><g fill="#019df4"><path d="M497.6 615H205.1c-11 0-20-9-20-20V287.6c0-11 9-20 20-20h292.5c11 0 20 9 20 20V595c0 11-8.9 20-20 20zm-272.5-40h252.5V307.6H225.1V575z" style="fill: #019df4;"/><path d="M302.4 405.1c-11 0-20-9-20-20v-97.5c0-11 9-20 20-20s20 9 20 20v97.5c0 11.1-9 20-20 20zM399.9 405.1c-11 0-20-9-20-20v-97.5c0-11 9-20 20-20s20 9 20 20v97.5c0 11.1-9 20-20 20zM302.4 615c-11 0-20-9-20-20v-97.5c0-11 9-20 20-20s20 9 20 20V595c0 11-9 20-20 20zM399.9 615c-11 0-20-9-20-20v-97.5c0-11 9-20 20-20s20 9 20 20V595c0 11-9 20-20 20z" style="fill: #019df4;"/><path d="M497.6 405.1H205.1c-11 0-20-9-20-20s9-20 20-20h292.5c11 0 20 9 20 20s-8.9 20-20 20zM497.6 517.5H205.1c-11 0-20-9-20-20s9-20 20-20h292.5c11 0 20 9 20 20s-8.9 20-20 20z" style="fill: #019df4;"/><path d="M517 702.4H185.8c-17.2 0-41.4-3.8-58.8-22.2-12.9-13.7-19.7-33.1-19.7-56.3V146.5c0-5.6 2.3-10.9 6.4-14.7L250.1 5.3c3.7-3.4 8.6-5.3 13.6-5.3H517c17.2 0 41.4 3.8 58.8 22.2 12.9 13.7 19.7 33.1 19.7 56.3v545.4c0 23.2-6.8 42.6-19.7 56.3-9.6 10.1-27.6 22.2-58.8 22.2zM147.3 155.2v468.7c0 26.6 11.9 38.5 38.5 38.5H517c26.6 0 38.5-11.9 38.5-38.5V78.5c0-26.6-11.9-38.5-38.5-38.5H271.6L147.3 155.2z" style="fill: #019df4;"/></g></svg>
