<?xml version="1.0" encoding="UTF-8"?>
<svg xmlns="http://www.w3.org/2000/svg" viewBox="0 0 702.8 702.9"><g fill="#019df4"><path d="M517 702.5H185.8c-22.2 0-39.5-6.4-51.5-19.1-11.3-11.9-17-28.6-17-49.4V146.5c0-2.7 1.1-5.2 2.9-7.1L256.7 2.9c1.9-1.9 4.4-2.9 7.1-2.9H517c22.2 0 39.5 6.4 51.5 19.1 11.3 11.9 17 28.6 17 49.4V634c0 20.8-5.7 37.5-17 49.4-12 12.7-29.3 19.1-51.5 19.1zM137.3 150.6V634c0 32.2 16.3 48.5 48.5 48.5H517c32.2 0 48.5-16.3 48.5-48.5V68.5c0-32.2-16.3-48.5-48.5-48.5H267.9L137.3 150.6z" style="fill: #019df4;"/><path d="M497.6 624.5H205.1c-5.5 0-10-4.5-10-10V307.1c0-5.5 4.5-10 10-10h292.5c5.5 0 10 4.5 10 10v307.4c0 5.5-4.4 10-10 10zm-282.5-20h272.5V317.1H215.1v287.4z" style="fill: #019df4;"/><path d="M302.4 414.6c-5.5 0-10-4.5-10-10v-97.5c0-5.5 4.5-10 10-10s10 4.5 10 10v97.5c0 5.5-4.5 10-10 10zM399.9 414.6c-5.5 0-10-4.5-10-10v-97.5c0-5.5 4.5-10 10-10s10 4.5 10 10v97.5c0 5.5-4.5 10-10 10zM302.4 624.5c-5.5 0-10-4.5-10-10V517c0-5.5 4.5-10 10-10s10 4.5 10 10v97.5c0 5.5-4.5 10-10 10zM399.9 624.5c-5.5 0-10-4.5-10-10V517c0-5.5 4.5-10 10-10s10 4.5 10 10v97.5c0 5.5-4.5 10-10 10z" style="fill: #019df4;"/><path d="M497.6 414.6H205.1c-5.5 0-10-4.5-10-10s4.5-10 10-10h292.5c5.5 0 10 4.5 10 10s-4.4 10-10 10zM497.6 527H205.1c-5.5 0-10-4.5-10-10s4.5-10 10-10h292.5c5.5 0 10 4.5 10 10s-4.4 10-10 10z" style="fill: #019df4;"/></g></svg>
