<?xml version="1.0" encoding="UTF-8"?>
<svg xmlns="http://www.w3.org/2000/svg" viewBox="0 0 702.8 702.9"><path fill="#019df4" d="M575.8 22.2C558.4 3.8 534.2 0 517 0H263.8c-5 0-9.9 1.9-13.6 5.3L113.7 131.8c-4.1 3.8-6.4 9.1-6.4 14.7v477.4c0 23.2 6.8 42.6 19.7 56.3 17.3 18.4 41.5 22.2 58.8 22.2H517c31.2 0 49.2-12.1 58.8-22.2 12.9-13.7 19.7-33.1 19.7-56.3V78.5c0-23.2-6.8-42.6-19.7-56.3zM322.4 317.6c0-5.5 4.5-10 10-10h37.5c5.5 0 10 4.5 10 10v37.5c0 5.5-4.5 10-10 10h-37.5c-5.5 0-10-4.5-10-10v-37.5zm-97.3 0c0-5.5 4.5-10 10-10h37.3c5.5 0 10 4.5 10 10v37.5c0 5.5-4.5 10-10 10h-37.3c-5.5 0-10-4.5-10-10v-37.5zM282.4 565c0 5.5-4.5 10-10 10h-37.3c-5.5 0-10-4.5-10-10v-37.5c0-5.5 4.5-10 10-10h37.3c5.5 0 10 4.5 10 10V565zm97.5 0c0 5.5-4.5 10-10 10h-37.5c-5.5 0-10-4.5-10-10v-37.5c0-5.5 4.5-10 10-10h37.5c5.5 0 10 4.5 10 10V565zm97.7 0c0 5.5-4.5 10-10 10h-37.8c-5.5 0-10-4.5-10-10v-37.5c0-5.5 4.5-10 10-10h37.8c5.5 0 10 4.5 10 10V565zm0-97.5c0 5.5-4.5 10-10 10H235.1c-5.5 0-10-4.5-10-10v-52.4c0-5.5 4.5-10 10-10h232.5c5.5 0 10 4.5 10 10v52.4zm0-112.4c0 5.5-4.5 10-10 10h-37.8c-5.5 0-10-4.5-10-10v-37.5c0-5.5 4.5-10 10-10h37.8c5.5 0 10 4.5 10 10v37.5z" style="fill: #019df4;"/></svg>
