<?xml version="1.0" encoding="UTF-8"?>
<svg xmlns="http://www.w3.org/2000/svg" viewBox="0 0 702.8 702.8"><path fill="#019df4" fill-rule="evenodd" d="M694.2 536.8c11.5 11.5 11.5 30 0 41.5L578.5 694.2c-5.7 5.8-13.2 8.6-20.7 8.6s-15-2.8-20.7-8.6l-60.7-60.8-64.2-3.8c-7.2-.4-13.9-3.5-19-8.5l-87.8-87.9c-11.4-11.5-11.4-30 0-41.5l13.4-13.5-47.9-48c-5.5-5.5-8.6-12.9-8.6-20.8 0-7.8 3.1-15.2 8.6-20.8l115.7-116c11.4-11.5 30-11.5 41.4 0l47.9 48 13.4-13.4c11.4-11.5 30-11.5 41.4 0l87.7 87.9c4.8 4.8 7.8 11.2 8.4 17.9l6 62.4 61.4 61.4zM353.8 233c-.5.6-1 1.1-1.5 1.6L202.4 384.7c-5.7 5.7-13.2 8.6-20.7 8.6s-15-2.9-20.7-8.6l-82.9-83.1c-5-5-8.1-11.7-8.5-18.8l-4-59.6-56.9-57.1c-5.5-5.5-8.6-13-8.6-20.8 0-7.8 3.1-15.3 8.6-20.8l115.7-116c11.4-11.4 30-11.4 41.4 0l56.5 56.6 61.5 1.8c7.5.2 14.6 3.3 19.8 8.6l82.9 83.1c11.5 11.4 11.5 30 0 41.5L353.8 233z" clip-rule="evenodd" style="fill: #019df4;"/></svg>
