<?xml version="1.0" encoding="UTF-8"?>
<svg xmlns="http://www.w3.org/2000/svg" viewBox="0 0 702.8 702.8"><path fill="#019df4" fill-rule="evenodd" d="M562.8 650.8l88.1-88.1-55-55c-3.5-3.5-5.7-8.2-6.2-13.2l-6.5-66.8-69.2-69.2-19.7 19.7c-5.1 5.1-12.3 7.3-19.5 5.9-4.1-.8-8.1-2.9-11.1-5.9l-55-55-88.1 88.1 55 55c8.4 8.4 8.4 22.1 0 30.5l-19.8 19.8 68.9 68.9 69 4c5.3.3 10.2 2.6 13.9 6.3l55.2 55zm133.7-103.3c4.1 4.1 6.3 9.5 6.3 15.2 0 5.7-2.3 11.2-6.3 15.2L578 696.5c-4.2 4.2-9.7 6.3-15.2 6.3s-11-2.1-15.2-6.3l-64.4-64.4-69-4c-5.3-.3-10.2-2.6-14-6.3l-89.9-89.9c-8.4-8.4-8.4-22 0-30.4l19.8-19.8-55-55c-8.4-8.4-8.4-22 0-30.4l118.5-118.5c8.1-8.1 22.4-8.1 30.5 0l55.1 55.1 19.7-19.7c8.4-8.4 22-8.4 30.5 0l89.9 89.9c3.5 3.5 5.7 8.2 6.2 13.1L632 483l64.5 64.5zM315.8 194.7l19.8-19.8-63.6-63.6-66.3-2c-5.5-.1-10.7-2.4-14.6-6.3L140 52l-88 88.1 51 51.1c3.7 3.7 5.9 8.6 6.3 13.8l4.4 64.1 63.9 63.9 19.6-19.6 117.2-117.1c.4-.6.9-1.1 1.4-1.6zm31.9 29.1c-.4.5-.9 1-1.4 1.5L192.8 378.7c-4 4-9.5 6.3-15.2 6.3-5.7 0-11.2-2.3-15.2-6.3l-84.9-84.9c-3.7-3.7-5.9-8.6-6.3-13.8l-4.4-64.2-60.5-60.6c-8.4-8.4-8.4-22 0-30.5L124.8 6.2c8.4-8.4 22-8.4 30.4 0l60.3 60.2 66.3 2c5.5.2 10.7 2.4 14.6 6.3l84.9 84.9c4 4.1 6.3 9.5 6.3 15.2 0 5.7-2.3 11.2-6.3 15.2l-33.6 33.8z" clip-rule="evenodd" style="fill: #019df4;"/></svg>
