<?xml version="1.0" encoding="UTF-8"?>
<svg xmlns="http://www.w3.org/2000/svg" viewBox="0 0 702.8 702.8"><path fill="#019df4" fill-rule="evenodd" d="M567.1 667.4l100.3-100.3-61.3-61.3c-2.4-2.4-3.9-5.6-4.2-8.9L595 426l-77.7-77.7-25.3 25.3c-5.9 5.5-15 5.5-20.8 0L410 312.2 309.7 412.5l61.4 61.4c5.7 5.7 5.7 15 0 20.7L345.7 520l77.4 77.4 73.1 4.3c3.6.2 7 1.7 9.5 4.3l61.4 61.4zm131.4-110.7c5.7 5.7 5.7 15 0 20.7l-120.9 121c-5.7 5.7-15 5.7-20.8 0l-67.6-67.8-73.2-4.3c-3.6-.2-7-1.7-9.5-4.3l-91.7-91.8c-5.7-5.7-5.7-15 0-20.7l25.4-25.4-61.4-61.4c-5.7-5.7-5.7-15 0-20.7l121-121c5.7-5.7 15-5.7 20.7 0l61.3 61.4 25.3-25.3c5.7-5.7 15-5.7 20.7 0l91.7 91.8c2.4 2.4 3.9 5.6 4.2 9l6.8 70.8 68 68zM319.2 197.8c.3-.4.7-.8 1-1.2l25.4-25.4L273.4 99l-70.6-2.1c-3.7-.1-7.3-1.7-10-4.3l-57.3-57.3L35.4 135.5l57.3 57.3c2.5 2.5 4 5.9 4.2 9.4l4.7 68.3 72.4 72.4 25.2-25.2 120-119.9zm22.8 18.4c-.3.4-.7.8-1 1.2L184.3 373.9c-5.7 5.7-14.9 5.8-20.6.1l-.1-.1L77 287.3c-2.5-2.5-4-5.8-4.2-9.4L68 209.6 4.3 145.8c-5.7-5.7-5.7-15 0-20.7l120.9-121c5.8-5.5 14.9-5.5 20.7 0l63.5 63.6 70.6 2.1c3.7.1 7.3 1.6 10 4.3l86.6 86.7c5.7 5.7 5.7 15 0 20.7L342 216.2z" clip-rule="evenodd" style="fill: #019df4;"/></svg>
