<?xml version="1.0" encoding="UTF-8"?>
<svg xmlns="http://www.w3.org/2000/svg" viewBox="0 0 702.8 702.8"><path fill="#019df4" fill-rule="evenodd" d="M485.7 513.9c-33.5 0-49.9-15.8-49.9-48.3s16.3-48.3 49.9-48.3c33.5 0 49.8 15.8 49.8 48.3s-16.3 48.3-49.8 48.3m-305.3-.2c-33.5 0-49.9-15.8-49.9-48.3s16.3-48.4 49.9-48.4 49.9 15.8 49.9 48.4c0 32.5-16.3 48.3-49.9 48.3m500.9-162.8c-39.5-66.4-107.5-82.8-134.5-86.9-21.9-29.2-101.4-117.6-260.8-117.6-100.5 0-167.7 45-206.4 82.8C24.7 282.8.4 346.4.7 384.3c-3.1 51.1 5.3 85.1 5.6 86.6 2.4 9.5 11.2 16.2 21.3 16.2h61.3c8.2 43.1 41.7 69.2 91.6 69.2 49.9 0 83.3-26 91.6-69.2h122.1c8.2 43.3 41.7 69.4 91.6 69.4 50 0 83.4-26.1 91.6-69.4h85.1c5.3 0 10.4-1.9 14.3-5.2 2.2-2 54.4-47.4 4.5-131" clip-rule="evenodd" style="fill: #019df4;"/></svg>
