<?xml version="1.0" encoding="UTF-8"?>
<svg xmlns="http://www.w3.org/2000/svg" viewBox="0 0 702.8 702.8"><path fill="#019df4" fill-rule="evenodd" d="M662.1 455.2h-93.8c-5.6-44.8-37.2-72.2-85.9-72.2-48.6 0-80.3 27.4-85.9 72.2h-136c-5.5-45-37.2-72.5-85.9-72.5s-80.4 27.5-85.9 72.5h-56c-3.2-22.7-4.1-45.7-2.6-68.6-.3-33 23.3-90.3 68.9-135.9 34.1-34.2 93.3-75 182-75 167 0 235 108.8 237.8 113.4 2.5 4.1 6.9 6.8 11.7 7.1.9.1 83.5 6.2 124.7 73.3 31.2 50.9 14.3 77.5 6.9 85.7m-179.7 71.9c-37.7 0-57.6-19.9-57.6-57.4s19.9-57.4 57.6-57.4 57.6 19.9 57.6 57.4-19.9 57.4-57.6 57.4m-307.8-.3c-37.7 0-57.7-19.8-57.7-57.4 0-37.5 20-57.4 57.7-57.4s57.6 19.9 57.6 57.4c0 37.6-19.9 57.4-57.6 57.4m505.8-172.6C638.5 286 564 270.8 540 267.7c-18.3-26-96.3-121.3-258.9-121.3-98.9 0-165 45.4-203 83.6C24.5 283.7.4 349 .7 385.9c-3 51.8 5.1 86 5.5 87.5 1.6 6.6 7.5 11.2 14.3 11.2h68.2c5.9 44.5 37.5 71.6 85.9 71.6 48.4 0 80-27.1 85.9-71.6h136.1c5.7 44.7 37.4 71.9 85.9 71.9 48.5 0 80.1-27.2 85.9-71.9h99.5c3.1 0 6.1-1 8.6-2.8.5-.5 56.3-42.2 3.9-127.6" clip-rule="evenodd" style="fill: #019df4;"/></svg>
