<?xml version="1.0" encoding="UTF-8"?>
<svg xmlns="http://www.w3.org/2000/svg" viewBox="0 0 702.8 702.8"><path fill="#019df4" fill-rule="evenodd" d="M652.2 444.5h-74.8c-8.1-43.5-41.6-69.7-91.7-69.7S402 401 394 444.5H272.2c-8-43.6-41.6-70-91.8-70-50.2 0-83.8 26.4-91.8 70H46.1c-1.7-13.1-3.2-33.6-1.7-59.2-.2-30.4 22.4-83.5 66.2-126.2 32.8-32.1 89.9-70.2 175.3-70.2 161.1 0 226.9 101.8 229.5 106 3.8 6.1 10.4 9.9 17.6 10.3 3 .1 73.4 5 110.3 66.9 23.5 39.4 15.2 62.7 8.9 72.4m-166.5 69.4c-33.6 0-49.8-15.8-49.8-48.3s16.3-48.3 49.8-48.3 49.8 15.8 49.8 48.3-16.3 48.3-49.8 48.3m-305.3-.2c-33.6 0-49.8-15.8-49.8-48.3 0-32.6 16.3-48.4 49.8-48.4s49.9 15.8 49.9 48.4c-.1 32.5-16.4 48.3-49.9 48.3m500.9-162.8C641.8 284.5 573.7 268 546.8 264 524.9 234.8 445.4 146.4 286 146.4c-100.5 0-167.7 45-206.4 82.8C24.6 282.8.3 346.4.7 384.3c-3.1 51.1 5.3 85.1 5.6 86.6 2.6 9.6 11.3 16.3 21.3 16.2h61.3c8.2 43.1 41.7 69.1 91.5 69.1 49.9 0 83.3-26 91.6-69.1h122.1c8.1 43.3 41.7 69.4 91.7 69.4s83.4-26.1 91.6-69.4h85c5.3 0 10.4-1.8 14.3-5.2 2.3-2 54.5-47.4 4.6-131" clip-rule="evenodd" style="fill: #019df4;"/></svg>
