<?xml version="1.0" encoding="UTF-8"?>
<svg xmlns="http://www.w3.org/2000/svg" viewBox="0 0 702.8 702.8"><path fill="#019df4" fill-rule="evenodd" d="M627.4 523.3c22.6-.3 34.1-12.8 34.1-37.2 0-24.3-11.3-36.7-33.5-36.9-.4 0-.7-.2-1.1-.2-1 25.7-3.2 50.6-7.3 74 1.2.1 2.5.2 3.3.2l4.5.1zm-17.8-190c6-5.8 9-14.5 9-25.8s-3-20-9-25.9c-5.8-5.7-14.2-8.6-24.8-8.6-2.5 0-4.7.1-6.9.5-.6.1-.8 0-1.1-.4-.4-.4-.2-.5-.1-1.1.5-3.6.8-7.4.8-11.4 0-16.8-4.5-29.7-13.4-38.5-8.6-8.3-20.9-12.6-36.8-12.6-15.8 0-28.2 4.3-36.7 12.7-4.5 4.6-7.8 10.3-10.1 17-.2.5-.2.9-.6 1.2-.6.3-1.1.1-1.7 0-3.2-.5-6.6-.7-10.2-.7-15.8 0-28.1 4.3-36.7 12.7-2.7 2.6-4.9 5.7-6.8 9.1 0 .1-.1.2-.1.3-.2.6-.4.6-1 .7-.8.1-.9-.2-1.5-.8-7.7-7.6-18.8-11.4-33-11.4-14.3 0-25.4 3.8-33 11.4-3.5 3.3-5.9 7.6-7.8 12.3 0 0-1 .9-2 .7-1-.3-1.3-1.3-1.3-1.3-.6-11.8-3.7-21.4-10.4-27.8-6.8-6.8-16.8-10.2-29.5-10.2s-22.6 3.4-29.5 10.2c-3.8 3.7-6.4 8.5-8.3 14.1-.1.2-.2.4-.4.5-.4.2-.7-.1-.9-.1-5.5-4.4-12.4-6.6-21.6-6.6-10.6 0-18.9 2.9-24.6 8.5-3 3-5.2 6.8-6.6 11.1-.1.5-.2.8-.6 1-.5.3-.9.1-1.5.1-2-.3-4.1-.4-6.4-.4-10.6 0-18.8 2.9-24.5 8.5-1.6 1.5-2.6 3.3-3.6 5.3-.5.8-.6 1.4-1.5 1.7-1 .4-1.9-.1-3-.4-3-1-6.4-1.7-10.3-1.7-8.8 0-15.6 2.4-20.4 7-1.5 1.6-2.8 3.4-3.9 5.5-.6 1-.4 1.9-1.5 2.4s-2.3.2-3.5-.1c-2.5-.5-5.2-.8-8.3-.8-8.7 0-15.6 2.4-20.3 7-4.9 4.8-7.4 12-7.4 21.3v12.3H284c.4-.1.9-.2 1.4-.2h54.5c.4.1.9.1 1.3.2H585c10.6-.2 18.8-2.9 24.6-8.5zm-529.9 190c.6 0 1.5-.1 2.2-.2-4-22.6-6.2-47.3-7.3-73.8-22 .4-33.2 12.7-33.2 36.8 0 24.4 11.5 36.9 34.1 37.2h4.2zm548.6-116.1c34.4.3 74.5 21.2 74.5 79 0 57.7-40.3 78.8-74.8 79.3h-2.4c-3.1 0-10.5-.1-16.4-.7-18.5 56.2-54.5 97.5-124.7 106.6-2.2.9-4.7 1.4-7.1 1.4h-7.8c-4.7.3-10.9.7-17.5.7s-12.7-.4-18.7-.7l-166.6.1c-4.8.3-10.9.7-17.5.7-90 0-135.7-40.5-157.6-109.1-7.8 1-9.9 1-14.3 1h-2.6C40.3 565 0 543.9 0 486.2 0 429 39.4 408 73.6 407.3v-29.5c-2.2-1.5-4.4-3.2-6.3-5.2-7.8-7.8-12.2-18.6-12.2-29.8v-13.3c0-26.3 10.9-42.6 20-51.5 7.9-7.9 21.6-17.1 42.8-18.6 8.9-7 22.3-13.7 41.5-14.2 7.4-5.3 17.4-10.2 30.5-12.3l1.1-1c9.4-9.3 26.3-20.3 53.3-20.3 2.2 0 4.3.1 6.5.2 10.7-9.1 28.1-18.3 54.1-18.3 26.7 0 44.2 9.7 54.9 18.9 8.2-2.5 17.9-4 29-4 10.2 0 19.2 1.3 26.9 3.5 9.9-6.3 23.1-11.7 40.4-13.4 1.8-2.1 3.7-4.3 5.7-6.2 11.3-11.2 31.9-24.5 65.4-24.5 33.5 0 54.1 13.3 65.4 24.4 9 8.8 19.3 23.1 23.8 45 9.6 3.9 16.7 9.4 21.7 14.3 10 9.7 21.7 27.4 21.7 56.2 0 28.9-11.9 46.5-21.8 56.3-2.8 2.7-6.4 5.5-10.4 8.1v35.4h.7zM328.6 73.8c-23.1 6.6-31.8 21.2-26 43.4l1.1 4.1 71-20.4c-.8-1.5-1.7-2.7-2.2-4.3-6.2-21.8-21-29.3-43.9-22.8zM93.1 224.7c-9.1 0-17.4-6.1-19.9-15.3-3.1-11.2 3.3-22.9 14.3-26L264 132.7c-.4-1.5-.9-3.2-1.3-5-8.9-33.6.1-78.9 54.8-94.5 54.8-15.8 85.3 17.9 94.8 51.5.5 1.8.4 3.5.4 5.2l173.5-49.8c11.1-3.1 22.5 3.4 25.5 14.5 3.1 11.2-3.2 22.9-14.2 26L98.7 224c-1.9.5-3.7.7-5.6.7z" clip-rule="evenodd" style="fill: #019df4;"/></svg>
