<?xml version="1.0" encoding="UTF-8"?>
<svg xmlns="http://www.w3.org/2000/svg" viewBox="0 0 702.8 702.8"><path fill="#019df4" fill-rule="evenodd" d="M627.4 524.6c22.6-.3 34.1-12.7 34.1-36.9 0-24.1-11.3-36.4-33.4-36.5-.4 0-.8-.2-1.1-.2-1 25.4-3.2 50.2-7.3 73.4 1.3.1 2.8.2 3.6.3h4.1zm-17.8-188.3c6-5.8 9-14.4 9-25.6 0-11.2-3-19.8-9-25.7-5.9-5.6-14.2-8.4-24.8-8.4-2.6 0-5 .2-7.3.5-.4.1-.5 0-.7-.3-.3-.3-.2-.4-.1-.9.5-3.7.9-7.5.9-11.6 0-16.6-4.5-29.4-13.4-38.1-8.6-8.3-20.9-12.5-36.8-12.5-15.8 0-28.1 4.2-36.7 12.6-4.7 4.7-8.1 10.6-10.3 17.6-.1.2-.2.4-.4.5-.2.1-.4.1-.7.1-3.5-.5-7.3-.9-11.2-.9-15.8 0-28.2 4.2-36.7 12.6-2.7 2.6-4.8 5.5-6.7 8.8-.4.7-.5.8-1.3.9-.8.1-.9 0-1.5-.6-7.6-7.5-18.8-11.3-33-11.3s-25.3 3.8-32.9 11.3c-2.6 2.6-4.6 5.8-6.2 9.2 0 0-2 1.2-3.3.8-1.7-.6-2.3-2.7-2.3-2.7-1.2-9.5-4-17.7-9.6-23.2-6.9-6.7-16.8-10.1-29.5-10.1s-22.5 3.4-29.5 10.1c-3.7 3.7-6.4 8.5-8.3 14.1-.1.2-.2.5-.5.5-.6 0-.9-.4-1.1-.4-5.6-4.3-12.1-6.3-21.3-6.3-10.5 0-18.9 2.8-24.6 8.4-2.9 2.9-5.1 6.6-6.6 10.9-.1.4-.2.8-.7 1.1-.5.3-.9.2-1.6.1-2-.3-4.1-.4-6.3-.4-10.6 0-18.9 2.8-24.5 8.4-1.5 1.5-2.5 3.3-3.5 5.1-.5.9-.7 1.4-1.6 1.8-1 .3-1.8.1-2.8-.3-3-1-6.6-1.7-10.5-1.7-8.8 0-15.6 2.3-20.4 7-1.5 1.5-2.8 3.3-3.8 5.3-.6 1.1-1 1.7-2.1 2.2-1.2.6-2 .3-3.4.1-2.4-.5-5-.7-7.8-.7-8.7 0-15.6 2.4-20.3 7-4.9 4.8-7.4 11.9-7.4 21.1V345H284c.4-.1.9-.2 1.3-.2h54.6c.4 0 .9.1 1.3.2h243.9c10.5-.4 18.7-3.2 24.5-8.7zm-23.3 81.9c0-2 0-17.9.1-31.8h-1.1c-.2 0-.3.1-.5.1H468.2l-48.6.1h-77c-1.1 0-2-.1-3-.2h-53.9c-1 .1-1.9.2-3.1.2h-77.9l-89.9.6v25.9c.7 163.5 34.6 218.7 134.3 218.7 5.6 0 10.9-.3 16.1-.7h169.3c13.2.8 23 .7 33.4 0h3.7c1-.2 1.9-.4 3-.5 81.2-8.4 110.4-64 111.7-212.4zM80.1 524.6c.3 0 1.3-.1 1.8-.1-4-22.4-6.2-46.9-7.3-73.2-21.9.4-33.1 12.6-33.1 36.5 0 24.1 11.4 36.5 34 36.9h4.6zm548.2-115.1c34.4.3 74.5 21 74.5 78.3 0 57.2-40.3 78.1-74.8 78.6h-5.9c-1.9-.1-8.4-.5-13-.9-18.5 55.9-54.5 96.9-124.8 105.9-2.2.9-4.6 1.4-7.1 1.4h-7.8c-4.8.4-10.9.7-17.5.7s-12.7-.4-18.7-.8l-166.6.1c-4.8.4-11 .7-17.5.7-90 0-135.7-40.2-157.6-108.1-5.4.7-8.6.9-10.6 1h-6.2C40.2 565.9-.1 545-.1 487.8c0-56.8 39.4-77.5 73.6-78.2v-29.3c-2.2-1.5-4.4-3.2-6.3-5.1-7.8-7.8-12.2-18.5-12.2-29.6v-13.1c0-26.1 10.9-42.2 20-51.1 7.9-7.8 21.3-17.4 44.5-16.2 8.7-10.7 22.1-17.3 41.2-14.7 6.6-9.4 18.1-14.6 29.1-13.8.3-.4 1.4.6 1.7.2 11.9-16.3 25.6-21.4 52.6-21.4 2.2 0 5.6.6 7.8.8 10.7-9 27.6-21.4 53.7-21.4 26.7 0 43.5 12.3 54.1 21.4 8.3-2.5 17.9-4 29-4 10.2 0 19.2 1.3 26.9 3.5 9.9-6.2 23.1-11.6 40.4-13.3 1.8-2.2 3.7-4.3 5.7-6.2 11.3-11.1 31.9-24.3 65.4-24.3 33.6 0 54.1 13.2 65.5 24.3 9 8.7 19.3 22.9 23.8 44.5 9.6 4 16.7 9.3 21.7 14.2 9.9 9.6 21.7 27.1 21.7 55.7 0 28.7-11.9 46.1-21.8 55.8-2.8 2.6-6.4 5.4-10.4 8v35.1c.1 0 .2-.1.4-.1h.3zM328.6 73.4c-23.1 6.6-31.8 21-26 43l1.1 4.1 71-20.2c-.7-1.4-1.7-2.7-2.2-4.3-6.2-21.5-20.9-29.2-43.9-22.6zM93 223c-9 0-17.4-6-19.9-15.1-3.1-11.1 3.3-22.7 14.3-25.8l176.5-50.3-1.3-4.6c-9-33.7 0-78.5 54.7-94 54.6-15.7 85.3 17.8 94.9 51.1.5 1.7.4 3.4.5 5.1L586.1 40c11.2-3.1 22.5 3.3 25.5 14.4 3.1 11.1-3.3 22.7-14.3 25.8l-498.8 142c-1.7.6-3.6.8-5.5.8z" clip-rule="evenodd" style="fill: #019df4;"/></svg>
