<?xml version="1.0" encoding="UTF-8"?>
<svg xmlns="http://www.w3.org/2000/svg" viewBox="0 0 702.8 702.8"><path fill="#019df4" fill-rule="evenodd" d="M633.2 534.9c15.7-.2 42.1-6.5 42.1-45.6s-26-45.2-41.5-45.3l-8.3-.4c-1.1 33.1-3.8 63.4-9 90.4 2.9.3 10.6.9 11.9.9h4.8zm-43.6-186.7c10.9 0 19.4-2.9 25.3-8.7 6.1-6 9.2-14.9 9.2-26.5 0-11.5-3.1-20.4-9.2-26.5-5.9-5.8-14.4-8.7-25.3-8.7-3.1 0-7.1.4-8-1.3-1.4-2.7.6-6.5.6-11.3 0-17.1-4.6-30.4-13.8-39.3-8.8-8.6-21.3-13-37.5-13s-28.8 4.4-37.4 13c-4.2 4.1-7.3 9.2-9.5 15.1-.4 1.2-.7 2-1.9 2.8-3.3 2.1-7.3.1-11.7.1-16.1 0-28.7 4.3-37.5 12.9-2.7 2.6-4.9 5.8-6.8 9.2-.4.8-.5 1-1.3 1.1-.7 0-1-.2-1.6-.8-7.8-7.7-19.2-11.6-33.7-11.6-14.5 0-25.8 3.9-33.7 11.6-1.9 1.9-3.2 4.6-4.7 7 0 0-1.6 2.1-4.5 1.3-2.2-.5-3.1-3.1-3.1-3.1-1.4-8.8-4.1-16.5-9.5-21.7-7-6.8-17.2-10.4-30.1-10.4-13 0-23.1 3.6-30.1 10.4-2.4 2.4-4.3 5.3-5.9 8.5l-.3.7s-1.5 2.2-4 3c-1.7.6-3.5.5-4.6.2-5.2-1.6-10.2-4.2-17.1-4.2-10.8 0-19.3 2.9-25.1 8.7-3.4 3.3-3.8 7.2-8.2 10-2.2 1.4-4.3 2-7.3 2-10.8 0-19.2 2.9-25.1 8.7-2.2 2.2-4.3 4.5-7.3 5.7-4 1.5-6-.6-11.4-.6-9 0-16 2.4-20.8 7.2-2.4 2.4-2.9 5.6-6.2 7.1-3.3 1.6-6.9-.1-11.4-.1-8.9 0-15.9 2.5-20.7 7.3-5 5-7.6 12.2-7.6 21.7v13.6l110.4-.7H281c1 0 1.8-.4 2.7-.4h55.7c1 .1 1.7.4 2.8.4H421l49.4-.2h119.2zm8.9 69.3c0-2.5 0-25.1.1-40.5h-496v35.2c.7 174.3 37.2 233.3 144.5 233.3 5.9 0 11.4-.4 16.9-.7h172.4c12.8.7 23.7.8 34.6 0h4.3c.9-.3 1.8-.5 2.7-.6 86.5-9.1 119.2-70.5 120.5-226.7zM80.2 534.4c1.8-.1 3.3-.1 5-.4-5.6-27.8-8.3-56.2-9.4-90.4-1.9.2-4.2.3-6.7.3-15.5.1-41.5 6.2-41.5 45.3 0 39.1 26.3 45.4 42 45.6h4.9c1.4 0 3.3-.1 5.7-.4zM633.9 416c31.7.2 68.7 19.7 68.7 73.2s-37.2 73.1-69.1 73.6l-5.8-.1c-1.9 0-13.8-.9-18.2-1.3-18.1 61.6-54.5 101.3-124.4 110-1.6.8-3.4 1.2-5.2 1.2h-8c-5.2.4-11.3.7-17.8.7s-12.6-.4-18.6-.8H264.9c-5.2.4-11.3.7-17.9.7-89.5 0-134.1-41.8-155.1-111.9l-7 .4c-5 .7-8.1.9-10.1.9l-5.8.1c-31.8-.5-69-20.1-69-73.6 0-53.6 37-73 68.7-73.2h.1c2.3 0 4 0 6.3.3 0-1.9-.1-2.2-.1-4.1V371c-1.1-.9-2.4-1.3-3.3-2.3-5.2-5.2-8-12.4-8-19.8v-13.6c0-21.6 8.6-34.7 15.9-41.8 6.8-6.8 19.2-14.8 39-15.1 7.1-6.7 19.5-14.3 39-14.3.8 0 1.7 0 2.7.1 6.9-5.9 17.7-11.9 33.5-13.5 1.3-1.6 2.6-3 4.1-4.5 7.7-7.6 21.5-16.5 44.1-16.5 4 0 7.9.3 11.7.9.4-.4.8-.8 1.1-1.2 8.4-8.3 23.9-18.3 49.1-18.3 25.2 0 40.7 9.9 49.1 18.2 1.1 1 2.1 2.2 3.2 3.5 8.7-3.8 19.6-6.4 33.3-6.4 11.9 0 21.8 2 29.9 5.1 12.4-9.8 28-15.1 46.6-15.8 2.5-3.7 5.3-7 8.3-10.2 14.1-13.7 33-20.8 56.6-20.8 23.5 0 42.5 7 56.5 20.8 8.6 8.5 18.6 23.1 21.4 46.6 11.7 3.2 19.9 9 25.1 14.2 8.1 7.9 17.7 22.4 17.7 46.6 0 24.3-9.6 38.7-17.7 46.7-2.1 2-4.7 4.1-7.8 6.2 0 10.8 0 46.5-.1 49.8l7.8.4h.1zM326.1 60c-37 10.6-35.7 38.2-31.6 53.7l1.3 4.8c.4 1.2 1.4 4.3 2.4 6.5l85.8-24.7s-2.3-6.5-3.8-11.9C375.7 73.3 363 49.3 326.1 60zM87.6 214.2c-6 0-11.4-4-13.2-10.2-2-7.4 2.2-15.2 9.5-17.2l187.8-54c-1-2.5-1.7-4.6-2.2-6.1l-1.6-5.8c-8.3-31.3.1-73.2 50.6-87.8 50.6-14.5 78.8 16.6 87.7 47.5 1.6 5.5 3 12.4 3 12.4l183.7-52.8c7.2-2 14.8 2.2 16.9 9.6 2.1 7.4-2.2 15.1-9.5 17.2L91.2 213.6c-1.1.4-2.4.6-3.6.6z" clip-rule="evenodd" style="fill: #019df4;"/></svg>
