<?xml version="1.0" encoding="UTF-8"?>
<svg xmlns="http://www.w3.org/2000/svg" viewBox="0 0 702.8 702.8"><path fill="#019df4" fill-rule="evenodd" d="M441.5 282.8c20.7 0 28-7.4 28-28.1 0-20.8-7.3-28.1-28-28.1-20.6 0-28 7.4-28 28.1 0 20.7 7.4 28.1 28 28.1zm0-100.5c45 0 71.9 27.1 71.9 72.3 0 45.3-26.9 72.3-71.9 72.3s-71.9-27-71.9-72.3c0-45.2 26.9-72.3 71.9-72.3zM147.8 603c17.5-17.6 17.5-31.2 0-48.8-8.7-8.8-16.5-13.2-24.2-13.2-7.8 0-15.5 4.4-24.3 13.2-17.9 18-46.2 53.4-53.5 102.5 51.1-7.8 87.5-39.1 102-53.7zm-79.6-80c34.7-34.8 76.1-34.9 110.7 0 34.6 34.9 34.6 76.5 0 111.3-20.5 20.6-76.8 68.5-156.9 68.5-12.1 0-22-9.9-22-22.1C0 603.1 42.7 548.6 68.2 523zm453.6-105.7c5.5-4.9 10.6-10 16.3-15.7 38.6-38.8 65.5-86.8 84-134.8L437.6 81.3c-48 18.8-96 46-134.9 85.2-5 5-10.8 10.8-15.8 16.6l-19.2 21.6c-34.8 40.5-69.1 90.2-91.7 132.4l-11.9 24c-11.7 26-12.9 37.9-12.9 41.7L301.6 554c2.9.3 15.4-.8 42-13.3l24.5-11.9c41.2-21.9 89.1-55.5 131.5-92.3l22.2-19.2zm12.9 111.6c2.5-24.4-5-43.6-11.3-54.8-33 28.1-68.8 54.4-102.7 75.3 6.2 13.1 11.9 26.3 17.3 39.2 6.8 16.2 16.4 39.3 23.4 49.1 45.4-36.4 69.6-72.6 73.3-108.8zM121.3 267.4c11.6 4.9 23.4 10.1 35.1 15.6 21.4-35 47.5-71 74.9-103.3-11.5-5.7-28.9-11.7-50.7-9.6-36.3 3.7-72.7 28.6-108.2 73.8 9.8 6.9 32.8 16.7 48.9 23.5zM643.2 45.3c-27.7-3.1-90.2.5-159 20.2L637.8 220c19.9-70 23.4-133.5 20.1-160.2-1-7.5-7.1-13.6-14.7-14.5zm-74 387.5c-4.2 4.3-8.3 8-12.3 11.9 10 15.4 25.5 46.4 21.7 87.5-4.7 50.4-36.3 98.6-93.9 143.3-8.5 7.3-17.2 9.3-23.9 9.3-3.2 0-5.9-.4-8-.9-25.1-5.9-37.7-36.2-55.3-78.1-4.8-11.6-9.9-23.3-15.2-34.7l-19.8 9.7c-25.1 11.7-45.1 17.5-60.7 17.5-12.4 0-22.1-3.7-29.4-11L118.2 432.2c-21.4-19.7-8-58.5 6.2-90l10.3-20.6c-10.1-4.6-20.2-9.1-30.4-13.4-41.7-17.6-71.8-30.4-77.7-55.6-1.6-6.5-2.4-19.5 9-33 43.7-57 91.6-88.8 141.8-93.6 38.5-3.6 67.9 9.9 84.1 19.9 3.5-3.7 7-7.5 10.2-10.7C389.3 16.9 579.5-6.5 648.5 1.4c27.8 3.6 49.4 25.3 53 52.9 7.1 58.4-11 256.5-132.3 378.5z" clip-rule="evenodd" style="fill: #019df4;"/></svg>
