<?xml version="1.0" encoding="UTF-8"?>
<svg xmlns="http://www.w3.org/2000/svg" viewBox="0 0 702.8 702.8"><path fill="#019df4" fill-rule="evenodd" d="M68.2 523C42.7 548.6 0 603.1 0 680.7c0 12.2 9.8 22.1 22 22.1 80.1 0 136.4-47.9 156.9-68.5 34.6-34.8 34.6-76.4 0-111.3-34.7-34.9-76-34.8-110.7 0m466.5 5.9c1.9-19-2-38.1-11.3-54.8-32.3 27.6-66.6 52.8-102.7 75.3 6.1 13.1 11.9 26.3 17.3 39.2 6.8 16.2 16.5 39.3 23.4 49.1 45.4-36.4 69.7-72.6 73.3-108.8zM121.3 267.4c11.6 4.9 23.4 10.1 35.1 15.6 22.3-36.3 47.4-70.8 74.8-103.3-15.7-7.9-33.2-11.3-50.7-9.6-36.3 3.7-72.7 28.6-108.2 73.8 9.9 6.9 32.9 16.7 49 23.5zM643.2 45.3c-27.7-3.1-90.2.5-159 20.2L637.8 220c19.9-70 23.3-133.5 20.1-160.2-1.1-7.6-7.1-13.5-14.7-14.5zm-74 387.5c-4.2 4.3-8.3 8.1-12.3 11.9 10 15.4 25.5 46.4 21.7 87.5-4.7 50.4-36.3 98.6-93.9 143.3-8.6 7.8-20.5 10.9-31.9 8.3-25.1-5.9-37.7-36.2-55.3-78.1-4.8-11.6-10-23.3-15.2-34.7l-19.8 9.7c-25.1 11.7-45 17.5-60.6 17.5-12.4 0-22.1-3.7-29.4-11L118.2 432.1c-21.4-19.7-8-58.5 6.2-90l10.2-20.6c-10.1-4.6-20.2-9.1-30.4-13.4-41.7-17.7-71.8-30.4-77.7-55.6-1.6-6.5-2.4-19.5 9-32.9 43.7-57 91.6-88.8 141.8-93.6 29.5-2.7 59 4.3 84.1 19.9 3.5-3.7 7-7.4 10.2-10.7C389.3 16.9 579.5-6.6 648.4 1.4c27.8 3.6 49.4 25.3 53 52.9 7.2 58.4-10.8 256.5-132.2 378.5zm-127.7-150c-20.6 0-28-7.4-28-28.1 0-20.8 7.3-28.1 28-28.1 20.6 0 28 7.4 28 28.1 0 20.7-7.4 28.1-28 28.1zm0-100.5c-45 0-71.9 27-71.9 72.3s26.9 72.3 71.9 72.3 71.9-27.1 71.9-72.3c0-45.2-26.9-72.3-71.9-72.3z" clip-rule="evenodd" style="fill: #019df4;"/></svg>
