<?xml version="1.0" encoding="UTF-8"?>
<svg xmlns="http://www.w3.org/2000/svg" viewBox="0 0 702.8 702.8"><path fill="#019df4" fill-rule="evenodd" d="M443.5 215.7c-25.6 0-36.5 11-36.5 36.8 0 25.8 10.9 36.8 36.5 36.8s36.5-11 36.5-36.8-10.8-36.8-36.5-36.8zm0 102.8c-41.7 0-65.6-24.1-65.6-66 0-42 23.9-66 65.6-66 41.7 0 65.7 24.1 65.7 66s-23.9 66-65.7 66zM88 553.2C67.8 573.6 34.9 615 29.8 672.9c60-5.5 102.6-42.1 119-58.5 21-21.2 21-40 0-61.2-10.5-10.5-20.4-15.8-30.4-15.8-10-.1-19.9 5.2-30.4 15.8zM14.6 702.8c-8 0-14.6-6.5-14.6-14.6v-.1c0-76.4 42.2-130.3 67.4-155.7 32.4-32.6 69.5-32.6 101.9 0 32.4 32.6 32.4 70 0 102.6-20.2 20.4-75.9 67.8-154.7 67.8zm42.5-462.7l-1.8 2.6c2.9 6.7 35.8 20.8 57.7 30.2 14.1 5.9 28.4 12.1 42.2 18.9 24.4-40.6 52.1-79.1 82.9-115.1l2.7-3.1c-19.2-12.1-41.8-17.6-64.4-15.8-40.4 4.1-80.6 32-119.3 82.3zm222.5-66.2L260 196c-36 42.1-71.5 93.3-94.9 136.9l-12.3 24.8c-17.9 39.9-13.6 50-13.6 50.1l157.6 158.3c.2 0 11.2 4.2 49.9-13.9l25.3-12.4c42.7-22.7 92.2-57.5 136-95.4l22.6-19.6c5.9-5.2 11.2-10.5 17.2-16.5 41.5-41.7 70.1-93.7 89.5-145.5l-195.6-197c-51.7 19.6-103.8 48.6-145.6 90.8-5.3 5.2-11.3 11.3-16.5 17.3zM650.8 30.4c-30.6-3.5-102 .8-178.7 24.9l176 176.8c24.1-78 28.2-150.4 24.5-179.9-1.5-11.3-10.4-20.3-21.8-21.8zm-104 502.5c2.3-24-4-48.1-17.6-67.9l-2 1.8c-36 31.2-74.5 59.3-115.2 84 7.6 15.2 14.3 31 20.7 46.4 9.2 22 23.1 55.2 31 58.2 51.8-41.2 79.3-81.7 83.1-122.5zm-445.2-233c-40.5-17.3-69.5-29.6-74.8-51.5-1.5-6.1-1.2-16.1 7.6-26.6C78 165 125.2 133.7 174.1 129c30.6-2.8 61.3 5.2 86.6 22.6 4.9-5.4 10.1-10.8 14.8-15.6C393.7 17 585.1-6.5 654.3 1.4c24.7 3.2 44 22.6 47.2 47.2 4.2 34.8-.6 118.7-30.3 206.8l.9.9-1.8 1.8c-20.6 60-52.6 121.6-101.7 171-6 6-11.3 11.3-17.2 16.6 18.8 26 27.5 58 24.5 90-4.6 49.2-35.9 96.6-92.9 140.9-5.4 4.9-12.4 7.7-19.6 7.8-2.1 0-4.3-.3-6.4-.8-21.7-5.2-34-34.6-51-75.3-6-14.6-12.4-29-19.2-43.2l-1.2.7-26.2 12.8c-24.6 11.5-43.8 17.2-58.3 17.2-10.5 0-18.7-3-24.7-9L118.5 428.3c-14-13-11.6-39.5 8-83.1l12.7-25.6 1.3-2.3c-12.7-6.3-25.7-12.1-38.9-17.4z" clip-rule="evenodd" style="fill: #019df4;"/></svg>
