<?xml version="1.0" encoding="UTF-8"?>
<svg xmlns="http://www.w3.org/2000/svg" viewBox="0 0 702.8 702.9"><path fill="#019df4" d="M469.2 401c-23.7 0-42.5 6.5-56 19.3-4.8 4.5-8.7 9.8-11.9 15.6l-113-56.5c2.4-8.4 3.6-17.7 3.6-28 0-10.2-1.2-19.5-3.5-27.8l113.1-56.5c2.8 5.1 6.2 9.7 10.2 13.8 13.6 13.9 32.9 20.9 57.6 20.9s44-7 57.6-20.9c13.2-13.5 19.9-32.7 19.9-56.9 0-25.3-7.2-45-21.5-58.5-13.5-12.8-32.3-19.3-56-19.3s-42.5 6.5-56 19.3c-14.3 13.6-21.5 33.3-21.5 58.5 0 8.8.9 16.8 2.6 24.3l-113.9 57c-2.8-4.6-6.2-8.7-10-12.3-13.5-12.8-32.3-19.3-56-19.3s-42.5 6.5-56 19.3c-14.3 13.6-21.5 33.3-21.5 58.5 0 24.2 6.7 43.4 19.9 56.9 13.6 13.9 32.9 20.9 57.6 20.9s44-7 57.6-20.9c3.1-3.2 5.9-6.7 8.3-10.5l114 57c-1.7 7.3-2.6 15.4-2.6 24 0 24.2 6.7 43.4 19.9 56.9 13.6 13.9 32.9 20.9 57.6 20.9s44-7 57.6-20.9c13.2-13.5 19.9-32.7 19.9-56.9 0-25.3-7.2-45-21.5-58.5-13.6-12.9-32.4-19.4-56.1-19.4zm0-234.8c38.2 0 57.5 19.5 57.5 57.8 0 18.8-4.8 33.3-14.2 42.9-9.7 9.9-24.2 14.9-43.3 14.9s-33.6-5-43.3-14.9c-9.4-9.7-14.2-24.1-14.2-42.9 0-38.3 19.4-57.8 57.5-57.8zM214.4 409.3c-19.1 0-33.6-5-43.3-14.9-9.4-9.7-14.2-24.1-14.2-42.9 0-38.4 19.3-57.8 57.5-57.8 26.1 0 43.4 9.1 51.7 27.2.2.8.4 1.6.8 2.4.2.3.4.6.6 1 2.9 7.7 4.4 16.8 4.4 27.3 0 11-1.6 20.4-4.9 28.4 0 .1-.1.1-.1.2-.2.5-.4.9-.6 1.4-2.2 5-5.1 9.4-8.7 13-9.6 9.7-24.1 14.7-43.2 14.7zm298.1 112.5c-9.7 9.9-24.2 14.9-43.3 14.9s-33.6-5-43.3-14.9c-9.4-9.7-14.2-24.1-14.2-42.9 0-9.6 1.2-18 3.6-25.3.2-.5.4-.9.5-1.4 7.5-20.7 25.4-31.2 53.4-31.2 38.2 0 57.5 19.5 57.5 57.8 0 18.9-4.8 33.3-14.2 43z" style="fill: #019df4;"/><path fill="#019df4" d="M351.4 701.4c-112.1 0-198.8-28.8-257.8-85.6-61.2-59-92.2-147.9-92.2-264.4C1.4 235 32.4 146 93.6 87 152.5 30.2 239.3 1.4 351.4 1.4S550.2 30.2 609.2 87c61.2 59 92.2 147.9 92.2 264.4s-31 205.4-92.2 264.4c-59 56.8-145.7 85.6-257.8 85.6zm0-680c-106.8 0-188.8 26.9-243.9 80-57.1 55-86.1 139.2-86.1 250s29 195 86.1 250c55.1 53.1 137.2 80 243.9 80s188.8-26.9 243.9-80c57.1-55 86.1-139.2 86.1-250s-29-195-86.1-250c-55.1-53-137.2-80-243.9-80z" style="fill: #019df4;"/></svg>
