<?xml version="1.0" encoding="UTF-8"?>
<svg xmlns="http://www.w3.org/2000/svg" viewBox="0 0 702.8 702.9"><path fill="#019df4" d="M465.8 389.4c-25.4 0-46.7 7.5-61.5 21.6-3 2.9-5.8 6-8.2 9.3l-94.4-47.2c1.3-6.8 1.9-14 1.9-21.7 0-7.6-.6-14.8-1.9-21.5l94.5-47.3c1.9 2.6 4 5 6.2 7.3 15 15.4 36.9 23.5 63.4 23.5s48.4-8.1 63.4-23.5c14.8-15.1 22.3-36.2 22.3-62.5 0-27.5-8.1-49.2-24.1-64.4-14.9-14.1-36.2-21.6-61.5-21.6-25.4 0-46.7 7.5-61.5 21.6-16 15.2-24.1 36.9-24.1 64.4 0 6.3.4 12.2 1.3 17.9l-96.1 48c-1.8-2.2-3.8-4.4-5.9-6.4-14.9-14.1-36.2-21.6-61.5-21.6s-46.7 7.5-61.5 21.6c-16 15.2-24.1 36.9-24.1 64.4 0 26.4 7.5 47.4 22.3 62.5 15 15.4 36.9 23.5 63.4 23.5s48.4-8.1 63.4-23.5c1.4-1.4 2.6-2.9 3.9-4.4l96.2 48.1c-.8 5.6-1.3 11.5-1.3 17.7 0 26.4 7.5 47.4 22.3 62.5 15 15.4 36.9 23.5 63.4 23.5s48.4-8.1 63.4-23.5c14.8-15.1 22.3-36.2 22.3-62.5 0-27.5-8.1-49.2-24.1-64.4-15.2-13.9-36.5-21.4-61.9-21.4zm0-207.9c31.2 0 45.7 14.6 45.7 46 0 15.5-3.7 27.2-10.9 34.6-7.4 7.6-19.1 11.4-34.8 11.4s-27.4-3.8-34.8-11.4c-7.2-7.4-10.9-19-10.9-34.6 0-31.4 14.5-46 45.7-46zm-248 215.9c-15.7 0-27.4-3.8-34.8-11.4-7.2-7.4-10.9-19-10.9-34.6 0-31.4 14.5-46 45.7-46 20.9 0 34.3 6.6 40.9 20.4.3.9.6 1.8 1.1 2.7.1.2.2.4.3.5 2.3 6.2 3.4 13.6 3.4 22.4 0 9.2-1.3 17-3.8 23.4-.3.6-.6 1.2-.8 1.8-1.7 3.6-3.7 6.8-6.3 9.4-7.4 7.6-19.1 11.4-34.8 11.4zM500.6 510c-7.4 7.6-19.1 11.4-34.8 11.4s-27.4-3.8-34.8-11.4c-7.2-7.4-10.9-19-10.9-34.6 0-31.4 14.5-46 45.7-46s45.7 14.6 45.7 46c0 15.6-3.7 27.2-10.9 34.6z" style="fill: #019df4;"/><path fill="#019df4" d="M351.4 702.3c-111.8 0-198.6-29-258-86.2C31.8 556.7.5 467.7.5 351.4c0-116.2 31.2-205.3 92.9-264.7C152.7 29.5 239.5.5 351.4.5s198.6 29 258 86.2c61.6 59.4 92.9 148.4 92.9 264.7S671 556.7 609.4 616.1c-59.4 57.2-146.2 86.2-258 86.2zm0-661.7c-101.1 0-178.6 25.2-230.2 75-53.5 51.5-80.6 130.9-80.6 235.9s27.1 184.3 80.6 235.9c51.6 49.8 129.1 75 230.2 75s178.6-25.2 230.2-75c53.5-51.5 80.6-130.9 80.6-235.9s-27.1-184.3-80.6-235.9c-51.6-49.8-129.1-75-230.2-75z" style="fill: #019df4;"/></svg>
