<?xml version="1.0" encoding="UTF-8"?>
<svg xmlns="http://www.w3.org/2000/svg" viewBox="0 0 702.8 702.9"><path fill="#019df4" d="M351.4.7C128.9.7.6 111.5.6 351.4s128.3 350.8 350.8 350.8 350.8-110.9 350.8-350.8S573.8.7 351.4.7zm-47.9 350.7c0 7.7-.7 14.9-1.9 21.7l94.4 47.2c2.5-3.3 5.2-6.5 8.2-9.3 14.9-14.1 36.2-21.6 61.5-21.6s46.7 7.5 61.5 21.6c16 15.2 24.1 36.9 24.1 64.4 0 26.4-7.5 47.4-22.3 62.5-15 15.4-36.9 23.5-63.4 23.5s-48.4-8.1-63.4-23.5c-14.8-15.1-22.3-36.2-22.3-62.5 0-6.2.4-12.1 1.3-17.7L285 409.6c-1.2 1.5-2.5 3-3.9 4.4-15 15.4-36.9 23.5-63.4 23.5s-48.4-8.1-63.4-23.5c-14.8-15.1-22.3-36.2-22.3-62.5 0-27.5 8.1-49.2 24.1-64.4 14.9-14.1 36.2-21.6 61.5-21.6s46.7 7.5 61.5 21.6c2.1 2 4.1 4.1 5.9 6.4l96.1-48c-.8-5.7-1.3-11.6-1.3-17.9 0-27.5 8.1-49.2 24.1-64.4 14.9-14.1 36.2-21.6 61.5-21.6s46.7 7.5 61.5 21.6c16 15.2 24.1 36.9 24.1 64.4 0 26.4-7.5 47.4-22.3 62.5-15 15.4-36.9 23.5-63.4 23.5s-48.4-8.1-63.4-23.5c-2.2-2.3-4.3-4.8-6.2-7.3l-94.5 47.3c1.7 6.6 2.3 13.7 2.3 21.3z" style="fill: #019df4;"/></svg>
