<?xml version="1.0" encoding="UTF-8"?>
<svg xmlns="http://www.w3.org/2000/svg" viewBox="0 0 702.8 702.8"><path fill="#019df4" d="M571.5 362.8c-33 .1-64.8 12.8-88.7 35.5l-67.1-59.2c18.9-22.5 29.3-50.9 29.6-80.2-.1-5.4-.5-10.7-1.5-16l100.8-29.6c21.3 39.4 70.5 54 109.8 32.7 33.2-18 49.6-56.5 39.5-92.9-12-43.1-56.7-68.4-99.8-56.4-36.1 10-60.7 43.6-59.3 81.1-.1 2.8-.1 5.5 0 8.3l-99.4 29.6c-24.6-65.5-97.6-98.6-163.1-74-19.7 7.4-37.3 19.6-51.1 35.5l-65.4-58.6c8.5-12.5 13.1-27.2 13-42.3.2-42-33.7-76.2-75.7-76.4s-76 33.8-76.2 75.8c-.2 42 33.7 76.2 75.7 76.4 15.1.1 29.8-4.3 42.4-12.7l69.5 59.2c-24.4 44.2-19.5 98.8 12.4 137.9l-59.1 59.1a91.91 91.91 0 0 0-64.5-26C41.8 369.6 0 411.3 0 462.7c0 24.8 9.9 48.6 27.5 66.1 36.4 36.4 95.3 36.3 131.7 0 17.6-17.6 27.4-41.4 27.3-66.3 0-15-3.8-29.7-11-42.9l63.6-62.4c22 18.7 49.8 29.1 78.7 29.6 27.9-.2 55-9.6 77.2-26.6l68.6 59.2c-14.7 21.7-22.5 47.2-22.5 73.4.1 19.1 4.3 38 12.4 55.3l-73.9 34.3c-24.5-33.9-71.8-41.5-105.7-17.1-26.8 19.3-37.9 53.8-27.6 85.1 12.9 39.8 55.7 61.5 95.4 48.6 31.3-10.2 52.4-39.4 52.3-72.3-.1-6-.8-11.9-2.1-17.7l77.5-35.5c24.5 31.7 62.3 50.2 102.3 50.3 72.4 0 131-58.7 131-131.1 0-72.4-58.7-131-131-131.1.1.1-.2 1.2-.2 1.2zm45-238.5c28.8 0 52 23.4 52 52.1 0 28.8-23.4 52-52.1 52-28.8 0-52-23.4-52-52.1s23.3-52 52.1-52zm-523.6-1.7c-25.6 0-46.4-20.9-46.4-46.5S67.4 29.7 93 29.7s46.4 20.9 46.4 46.5v.2c0 25.5-20.7 46.2-46.2 46.1-.1.1-.2.1-.3.1zM318 674.1c-25.6.2-46.6-20.5-46.8-46.1-.2-25.6 20.5-46.6 46.1-46.8 25.6-.2 46.6 20.5 46.8 46.1v.6c0 25.6-20.6 46.2-46.1 46.2zM92.9 527.7c-35.1 0-63.6-28.5-63.6-63.6s28.5-63.6 63.6-63.6 63.6 28.5 63.6 63.6-28.4 63.6-63.6 63.6zm126.6-268.4c0-54.1 43.8-97.9 97.9-97.9s97.9 43.8 97.9 97.9c0 54.1-43.8 97.9-97.9 97.9-54 0-97.9-43.9-97.9-97.9zm352 336.1c-56 0-101.4-45.5-101.4-101.5s45.5-101.4 101.5-101.4S673 438 673 494c-.1 56-45.5 101.4-101.5 101.4z" style="fill: #019df4;"/></svg>
