<?xml version="1.0" encoding="UTF-8"?>
<svg xmlns="http://www.w3.org/2000/svg" viewBox="0 0 702.8 702.8"><path fill="#019df4" fill-rule="evenodd" d="M566.6 580c-50.1 0-90.8-40.7-90.8-90.8 0-50.1 40.8-90.8 90.8-90.8 50.1 0 90.9 40.7 90.9 90.8 0 50-40.8 90.8-90.9 90.8M230.8 260c.1-48.3 39.2-87.3 87.5-87.4 48.3 0 87.4 39.1 87.5 87.4-.1 48.3-39.2 87.4-87.5 87.4s-87.5-39.1-87.5-87.4M99 513.7c-29.7 0-53.7-24.1-53.7-53.8 1-29.7 25.8-53 55.5-52 28.3.9 51.1 23.7 52 52 0 29.8-24.1 53.8-53.8 53.8m219.7 143.1c-20.4 0-37-16.6-37-37 0-20.5 16.6-37 37.1-37 20.4 0 37 16.6 37 37s-16.6 37-37.1 37M99.1 118.6c-20.4 0-36.9-16.6-37-37 0-20.5 16.6-37 37.1-37 20.4 0 37 16.6 37 37s-16.7 37-37.1 37m511.4 18.1c23.5 0 42.5 19.1 42.5 42.5 0 23.5-19.1 42.5-42.5 42.5-23.5 0-42.5-19-42.5-42.5s19-42.5 42.5-42.5m-43.9 216.4c-33 0-62.9 12.3-86.5 31.9l-54.3-47.7c16.4-22.5 25.3-49.5 25.3-77.3 0-3.4-.8-6.6-1-9.9l85.7-25.3c15.8 26.1 44.1 42.1 74.7 42.2 48.5 0 87.8-39.4 87.8-87.8-1.3-48.5-41.6-86.8-90.1-85.6-46.8 1.2-84.4 38.8-85.6 85.6 0 .7.2 1.4.2 2.2l-83.6 24.7c-21.3-47.8-68.7-78.6-121-78.7-35.4 0-69.3 14.1-94.1 39.2L170.9 121c6.5-11.8 10.6-25.1 10.6-39.5C180.6 36.1 143-.1 97.5.8c-44.3.8-80 36.5-80.8 80.8 0 45.4 37 82.3 82.3 82.3 14.5 0 27.9-4.1 39.7-10.7l59.5 51c-8.4 17.5-12.7 36.6-12.8 55.9 0 28.3 9.1 54.5 24.3 76.1l-48.5 47.4c-17.5-14.5-39.5-22.5-62.3-22.5-54.6 0-99 44.3-99.1 98.9.1 54.7 44.4 99 99.1 99.1 54.7 0 99.1-44.4 99.1-99.1 0-14.4-3.3-28.1-8.8-40.4l52.5-51.3c45.2 32.3 105.9 32.7 151.6 1.1l57 50.1c-12.4 20.4-19.9 44.2-19.9 69.8 0 17.7 3.6 34.4 9.8 49.9l-59.3 27.3c-15.5-18.3-38.2-28.8-62.2-28.9-45.5 0-82.3 36.8-82.4 82.3.1 45.4 36.9 82.3 82.4 82.3 45.4 0 82.3-36.8 82.3-82.3 0-4.2-.6-8.2-1.2-12.2l64.4-29.6c24.9 28.7 61.3 47.3 102.3 47.3 75.1 0 136.1-60.9 136.2-136.1 0-75.2-60.9-136.1-136.1-136.2" clip-rule="evenodd" style="fill: #019df4;"/></svg>
