<?xml version="1.0" encoding="UTF-8"?>
<svg xmlns="http://www.w3.org/2000/svg" viewBox="0 0 702.8 702.8"><path fill="#019df4" fill-rule="evenodd" d="M566.6 353.8c-33.1 0-63 12.3-86.5 31.9L425.7 338c15.7-21.8 25.3-48.4 25.3-77.3 0-3.4-.8-6.6-1-9.9l85.7-25.3c15.4 25.2 43 42.2 74.7 42.2 48.5 0 87.8-39.4 87.8-87.8s-39.4-87.8-87.8-87.8-87.9 39.4-87.9 87.8c0 .8.2 1.4.2 2.2l-83.5 24.6c-20.8-46.2-67.1-78.7-121-78.7-36.8 0-70 15-94.1 39.2l-53.2-45.6c6.5-11.7 10.6-25.1 10.6-39.5 0-45.4-37-82.3-82.4-82.3S16.8 36.7 16.8 82.1s36.9 82.3 82.3 82.3c14.5 0 27.9-4 39.7-10.6l59.5 50.9c-8 17.1-12.8 35.9-12.8 55.9 0 28.3 9.1 54.5 24.3 76.1l-48.4 47.4c-17.1-13.9-38.5-22.6-62.2-22.6-54.6 0-99.1 44.4-99.1 99s44.4 99 99.1 99c54.7 0 99.1-44.4 99.1-99 0-14.4-3.3-28.1-8.9-40.5l52.5-51.3c21.6 15.3 47.9 24.5 76.4 24.5 27.9 0 53.8-8.7 75.2-23.5l57 50c-12.4 20.5-19.9 44.2-19.9 69.9 0 17.7 3.6 34.4 9.8 49.9l-59.3 27.3c-15.1-17.5-37.2-28.9-62.2-28.9-45.4 0-82.4 36.9-82.4 82.3 0 45.3 37 82.3 82.4 82.3 45.4 0 82.3-36.9 82.3-82.3 0-4.2-.6-8.2-1.2-12.2l64.4-29.6c25 28.7 61.4 47.3 102.3 47.3 75.1 0 136.2-61 136.2-136-.1-74.8-61.2-135.9-136.3-135.9" clip-rule="evenodd" style="fill: #019df4;"/></svg>
