<?xml version="1.0" encoding="UTF-8"?>
<svg xmlns="http://www.w3.org/2000/svg" viewBox="0 0 702.8 702.8"><path fill="#019df4" fill-rule="evenodd" d="M614.9 235h-56.6c-.2 0-.4-.1-.6-.1H145.2c-.2 0-.4.1-.7.1H87.9v-48.7h527V235zm-469.7 73.8h412.5v-44.7H145.2v44.7zm75.5 292.3h261.4v-263H220.7v263zm336.2 72.5h-411v-43.3h411v43.3zM271.6 29.2l21 21-34.5 34.3-21-20.9 34.5-34.4zm138.2 20.9l21-21 34.5 34.4-21 20.9-34.5-34.3zm205.1 107H514.8v-38.8c0-3.9-1.6-7.6-4.3-10.3l-24.2-24.1c5.3-5.5 8.4-12.7 8.4-20.3 0-7.7-3.1-15.2-8.6-20.6L451.6 8.6c-5.5-5.5-13-8.6-20.7-8.6-7.8 0-15.2 3.1-20.7 8.6l-21.1 21c-11.4 11.4-11.4 29.9 0 41.3l34.5 34.3c5.7 5.7 13.2 8.6 20.7 8.6s15-2.9 20.7-8.6l.6-.6 19.9 19.8v32.8H217.3v-32.8l19.7-19.6.4.4c5.7 5.7 13.2 8.6 20.7 8.6s15-2.9 20.7-8.6l34.5-34.3c11.4-11.4 11.4-29.9 0-41.3l-21-21c-5.5-5.5-13-8.6-20.7-8.6-7.8 0-15.3 3.1-20.8 8.6L216.3 43c-5.5 5.5-8.6 12.9-8.6 20.6 0 7.7 3.1 15.1 8.5 20.5l-24 23.9c-2.8 2.7-4.3 6.4-4.3 10.3v38.8h-100c-16.2 0-29.3 13-29.3 29.2V235c0 16.1 13.2 29.2 29.3 29.2h28v44.7c0 16.1 13.1 29.2 29.3 29.2h46.3v263.1H146c-16.2 0-29.3 13-29.3 29.2v43.3c0 16.1 13.1 29.2 29.3 29.2h411c16.2 0 29.3-13 29.3-29.2v-43.3c0-16.1-13.1-29.2-29.3-29.2h-45.5v-263-.1h46.3c16.2 0 29.3-13 29.3-29.2v-44.7H615c16.2 0 29.3-13.1 29.3-29.2v-48.7c-.1-16.1-13.2-29.2-29.4-29.2z" clip-rule="evenodd" style="fill: #019df4;"/></svg>
