<?xml version="1.0" encoding="UTF-8"?>
<svg xmlns="http://www.w3.org/2000/svg" viewBox="0 0 702.8 702.8"><path fill="#019df4" fill-rule="evenodd" d="M603.4 227.9h-52.8c-.5 0-1.1-.2-1.6-.2H153.9c-.5 0-1 .2-1.6.2H99.4v-38.8h504v38.8zM548.9 306h-80.4c-.6 0-1.1-.2-1.6-.2h-231c-.5 0-1 .2-1.6.2h-80.5v-34.3h395.1V306zm-313 278.6h231V349.9h-231v234.7zm312.2 74.3H154.6v-30.4h78.6c.9.1 1.7.3 2.6.3h231c.9 0 1.8-.2 2.6-.3H548v30.4zm-277-615l13.5 14.5-23.1 24.8L248 68.7l23.1-24.8zm147.3 14.5l13.5-14.5L455 68.7l-13.5 14.5-23.1-24.8zm185 86.8h-90.9v-21c0-5.8-2.2-11.4-6-15.5l-16.9-18.2c9.2-16.8 7.8-38.5-5.7-52.9l-23.1-24.8C453.1 4.6 442.7 0 431.9 0S410.7 4.6 403 12.8l-13.5 14.5c-15.9 17.1-15.9 44.9 0 62l23.1 24.8c7.7 8.3 18.1 12.9 28.9 12.9 6.8 0 13.3-2 19.2-5.4l10.8 11.7v11.9H231.1v-11.9l10.9-11.7c5.9 3.4 12.5 5.5 19.3 5.5 10.8 0 21.2-4.6 28.9-12.9l23.1-24.8c16-17.1 16-44.9 0-62l-13.5-14.5C292.1 4.7 281.7.1 270.9.1c-10.8 0-21.2 4.6-28.9 12.8l-23.1 24.8c-13.4 14.4-14.9 36-5.7 52.8l-17 18.3c-3.8 4.1-6 9.7-6 15.5v21H99.3c-22.6 0-40.9 19.7-40.9 43.9V228c0 24.3 18.3 43.9 40.9 43.9h13.6v34.3c0 24.3 18.3 43.9 40.9 43.9H195v234.7h-40.4c-22.6 0-40.9 19.7-40.9 43.9v30.4c0 24.2 18.3 43.9 40.9 43.9h393.5c22.6 0 40.9-19.7 40.9-43.9v-30.4c0-24.2-18.3-43.9-40.9-43.9h-40.4V350.1h41.2c22.6 0 40.9-19.6 40.9-43.9v-34.3h13.6c22.6 0 40.9-19.6 40.9-43.9v-38.8c-.1-24.3-18.4-44-40.9-44z" clip-rule="evenodd" style="fill: #019df4;"/></svg>
