<?xml version="1.0" encoding="UTF-8"?>
<svg xmlns="http://www.w3.org/2000/svg" viewBox="0 0 702.8 702.8"><path fill="#019df4" fill-rule="evenodd" d="M603.4 143c22.6 0 40.9 19.7 40.9 44.1V226c0 24.4-18.3 44.1-40.9 44.1h-13.6v.1H113v-.1H99.4c-22.6 0-40.9-19.7-40.9-44.1v-39c0-24.4 18.3-44.1 40.9-44.1h100.2V119c0-3.9 1.4-7.6 4-10.4l22.3-24c-5.1-5.5-7.9-12.9-7.9-20.7 0-7.8 2.8-15.3 8-20.8l32.1-34.6c5.1-5.5 12.1-8.6 19.3-8.6 7.2 0 14.2 3.1 19.3 8.6l19.5 21.1c10.6 11.5 10.6 30 0 41.5l-32.1 34.5c-5.3 5.8-12.3 8.6-19.3 8.6-6.9 0-13.9-2.9-19.3-8.6l-.4-.4-18.3 19.7v17.8H476v-17.8L457.6 105l-.5.5c-5.3 5.8-12.3 8.6-19.3 8.6s-13.9-2.9-19.3-8.6L386.4 71c-10.6-11.5-10.6-30.1 0-41.5L406 8.4c5.1-5.5 12-8.6 19.3-8.6 7.2 0 14.2 3.1 19.3 8.6L476.7 43c5.1 5.5 8 13 8 20.8 0 7.6-2.9 15-7.8 20.4l22.5 24.2c2.6 2.8 4 6.5 4 10.4v23.9h100zM113 304.4v-10.8h476.8v10.8c0 24.3-18.3 44.1-40.9 44.1h-41.2v.1H195v-.1h-41.2c-22.5 0-40.8-19.8-40.8-44.1zm82 256.3V372h312.7v188.7H195zm353.1 23.4c22.6 0 40.9 19.7 40.9 44.1v30.6c0 24.4-18.3 44.1-40.9 44.1H154.6c-22.6 0-40.9-19.7-40.9-44.1v-30.6c0-24.1 17.9-43.6 40.1-44h364.5v-.1h29.8z" clip-rule="evenodd" style="fill: #019df4;"/></svg>
