<?xml version="1.0" encoding="UTF-8"?>
<svg xmlns="http://www.w3.org/2000/svg" viewBox="0 0 702.8 702.8"><g fill="#019df4"><path d="M239.1 216.6c0 12.9 4.4 26.6 33.8 33.3v-68.8c-21.3 3-33.8 15.8-33.8 35.5zM300 292.5v71.3c22.2-4.2 35.4-17.7 35.4-37.1 0-14-4.6-27.6-35.4-34.2z" style="fill: #019df4;"/><path d="M438 127.8c-85.7-85.7-224.6-85.7-310.2 0s-85.7 224.6 0 310.2 224.6 85.7 310.2 0 85.7-224.6 0-310.2zm-88.9 252.7c-12.4 10.7-29.1 17.5-49 20V420c0 7.5-6.1 13.6-13.5 13.6-7.5 0-13.6-6.1-13.6-13.6v-18.7c-24.5-1.8-48-10-68.3-23.9-6-4.2-9-9.8-9-16.6.1-10.4 8.6-18.7 19-18.6 4.4.1 8.6 1.5 12.2 3.9 15.3 10.2 30.7 16.3 46.1 18.3v-76c-58.9-8.7-71.4-42.8-71.4-70.1 0-41.9 27.7-70 71.4-74v-9.5c0-7.5 6.1-13.6 13.6-13.6s13.5 6.1 13.5 13.6v9.9c18.1 2.1 35 7.5 48.5 15.8 9.4 5.8 10.8 13.3 10.8 17.3 0 10.1-8.2 18.3-18.3 18.4h-.1c-3.8-.1-7.5-1.2-10.9-3l-.3-.1c-9.3-5.2-19.4-8.9-29.8-11v72c60.3 8.7 73 43.4 73 71.2.1 22.6-8.2 41.7-23.9 55.2z" style="fill: #019df4;"/><path d="M281 561.1C126.3 561.1.9 435.7.9 281c0-74.3 29.5-145.5 82-198.1C194.1-24.7 371.4-21.8 479 89.3c105.2 108.6 105.2 281.1 0 389.7-52.4 52.7-123.7 82.3-198 82.1zm0-520.2C148.4 40.9 40.9 148.4 40.9 281c0 63.7 25.3 124.7 70.3 169.8 93.4 94.1 245.4 94.7 339.6 1.3s94.7-245.4 1.3-339.6c-.4-.5-.9-.9-1.3-1.3C405.8 66 344.7 40.7 281 40.9z" style="fill: #019df4;"/><path d="M681.9 701.9c-5.3 0-10.4-2.1-14.1-5.9l-217-217c-7.5-8.1-6.9-20.8 1.2-28.3 7.7-7 19.4-7 27.1 0l217 217c7.8 7.8 7.8 20.5 0 28.3-3.9 3.8-8.9 5.9-14.2 5.9z" style="fill: #019df4;"/></g></svg>
