<?xml version="1.0" encoding="UTF-8"?>
<svg xmlns="http://www.w3.org/2000/svg" viewBox="0 0 702.8 702.8"><g fill="#019df4"><path d="M209.9 370.1c-3.4-2.4-5.1-5.1-5.1-9.3.2-5.4 4.6-9.7 10-9.6 2.6.1 5.1.9 7.2 2.4 15.4 10.3 37.1 20.6 62.1 20.6 37.4 0 60.4-19.2 60.4-47.6 0-23.3-13-39.7-56-45.2l-11-1.4c-45.7-5.8-67-27.8-67-61.7 0-40.4 28.9-65.4 73.1-65.4 24.7 0 45.7 6.5 60.1 15.4 4.5 2.7 6.5 6.2 6.5 9.6 0 5.1-4.1 9.2-9.2 9.3h-.1c-2.4-.2-4.8-.9-6.9-2.1-15.8-8.6-32.3-13.7-51.2-13.7-34 0-52.9 18.8-52.9 45.2 0 24 14.8 39.4 54.9 44.5l10.6 1.4c46.5 5.8 68.4 27.7 68.4 62.7 0 39.4-28.2 67.5-82.4 67.5-25.4-.2-50.4-8.1-71.5-22.6z" style="fill: #019df4;"/><path d="M281.6 401.7c-27.5-.2-54.3-8.6-76.9-24.2-6-4.2-9-9.8-9-16.6.1-10.4 8.6-18.7 19-18.6 4.4.1 8.6 1.5 12.2 3.9 19 12.6 38.2 19 57.1 19 31.7 0 51.4-14.8 51.4-38.6 0-15.6-5.8-30.9-48.1-36.3l-11-1.4c-61.9-7.9-74.9-42.8-74.9-70.6 0-45.2 32.3-74.5 82.2-74.5 24.3 0 47.3 6 64.8 16.8 9.4 5.8 10.8 13.3 10.8 17.3 0 10.1-8.2 18.3-18.3 18.3-3.8-.1-7.5-1.2-10.9-3l-.3-.1c-15.8-8.6-30.7-12.6-46.8-12.6-27.5 0-43.9 13.5-43.9 36.2 0 14.6 5.6 30.3 47.1 35.6l10.6 1.4c63 7.9 76.2 43.3 76.2 71.6 0 22.6-8.3 41.8-24 55.4-15.8 13.7-39.2 21-67.3 21zm-66.6-39c9 6.3 33.6 21 66.6 21 23.7 0 43-5.8 55.6-16.8 11.6-10 17.7-24.4 17.7-41.7 0-31-19.8-48.6-60.4-53.7l-10.7-1.4c-42.3-5.4-62.8-22.9-62.8-53.5 0-15.9 5.8-29.5 16.7-39.2s26.6-15 45.2-15c18.9 0 37 4.8 55.3 14.7.8.5 1.8.8 2.7 1h.1l.1-.1c-.6-.8-1.3-1.5-2.2-2-8.5-5.3-27-14.1-55.4-14.1-19.6 0-35.9 5.3-47.2 15.3-11.1 9.8-16.9 24-16.9 41.1 0 30.4 19.3 47.6 59.1 52.7l11 1.4c22.5 2.9 38.5 8.8 49 18.2 10 9 14.9 20.8 14.9 36 0 16.7-7 31.4-19.6 41.5-12.4 9.9-29.6 15.1-49.9 15.1-22.5 0-45.1-7.4-67.2-22.1-.7-.5-1.4-.8-2.2-.9-.4 0-.8.2-.9.6.2.8.2.9 1.4 1.9z" style="fill: #019df4;"/><path d="M286.5 433.6c-7.5 0-13.5-6.1-13.5-13.5V134.9c0-7.5 6.1-13.6 13.5-13.6 7.5 0 13.6 6.1 13.6 13.6v285.2c-.1 7.5-6.1 13.5-13.6 13.5z" style="fill: #019df4;"/><path d="M281 561.1C126.3 561.1.9 435.7.9 281c0-74.3 29.5-145.5 82-198.1C194.1-24.7 371.4-21.8 479 89.3c105.2 108.6 105.2 281.1 0 389.7-52.4 52.7-123.7 82.3-198 82.1zm0-520.2C148.4 40.9 40.9 148.4 40.9 281c0 63.7 25.3 124.7 70.3 169.8 94.1 93.4 246.2 92.8 339.6-1.3 92.9-93.6 92.9-244.6 0-338.2C405.8 66 344.7 40.7 281 40.9z" style="fill: #019df4;"/><path d="M681.9 701.9c-5.3 0-10.4-2.1-14.1-5.9l-217-217c-7.5-8.1-6.9-20.8 1.2-28.3 7.7-7 19.4-7 27.1 0l217 217c7.8 7.8 7.8 20.5 0 28.3-3.9 3.8-8.9 5.9-14.2 5.9z" style="fill: #019df4;"/></g></svg>
