<?xml version="1.0" encoding="UTF-8"?>
<svg xmlns="http://www.w3.org/2000/svg" viewBox="0 0 702.8 702.8"><path fill="#019df4" fill-rule="evenodd" d="M557 283c-5 .1-10 0-15-.2 18.9-51.8 25.6-117.4 26.2-193.2V72.5c33.2 2.8 89.7 20 89.7 104.6 0 94.2-70.6 105.4-100.9 105.9m-411.1 0c-30.4-.4-101-11.6-101-105.9C44.9 102 89.4 80 122.6 74v8.6c.4 78.9 7 146.9 26.6 200.3-1.1 0-2.2.1-3.3.1M568.3 22.3C568.2 9.9 558.2 0 545.8 0H145c-12.3 0-22.4 9.9-22.4 22.2v6.9C59.9 37.2 0 79.1 0 177.1c0 109.3 75 149.3 145.2 150.3 4.2.1 8.3.1 12.5-.1 3.3 0 7.9-.3 12.8-.8 31 48.7 80.7 77.6 158.5 81.3v121.8c-84.5 7.9-131.2 60.4-131.2 151 0 12.3 10.1 22.2 22.5 22.2h262.3c12.4 0 22.5-10 22.5-22.2 0-90.5-46.7-143-131.2-151V407.3c76.7-6.3 118.2-29.6 147.1-82h1.2c7.7 1 18.6 2 22.8 2.1 2.5.1 5.2.1 8.1.1h4.6c70.2-1 145.2-41.1 145.2-150.3 0-104.2-67.7-145-134.5-149.1v-5.8h-.1z" clip-rule="evenodd" style="fill: #019df4;"/></svg>
