<?xml version="1.0" encoding="UTF-8"?>
<svg xmlns="http://www.w3.org/2000/svg" viewBox="0 0 702.8 702.8"><path fill="#019df4" fill-rule="evenodd" d="M551.6 260.8c-1.6 0-2.9-.2-4.4-.2l32.3-37.4c7.2-7.7 11.6-18.2 11.6-29.6 0-24-19.2-43.4-43-43.4h-.4l-104 .5c.5-73.1 34.8-107.3 107.9-107.3 72.7 0 108.1 35.6 108.1 108.8 0 74.1-34.4 108.6-108.1 108.6m-38.9-30H159.5l-33.3-35.3 421.8-2-32.6 37.8c-1 0-1.8-.5-2.7-.5M551.6 0c-97 0-150.5 53.6-151.1 150.9l-185 .9-66.8-67.2c-9.6-9.7-23-15.2-36.7-15.2H21.5C9.6 69.4-.1 79.1-.1 91.1s9.7 21.7 21.6 21.7H112c2.3 0 4.6.9 6.2 2.5l36.5 36.8-28.9.1c-17.2.1-32.7 10.4-39.5 26.4-6.7 15.9-3.4 34.4 8.4 46.9l219.6 232.4c3 3.2 6.5 5.6 10.2 7.7v135.6l-130 60.2c-9.2 4.3-14.2 14.4-12.1 24.4 2.2 9.9 10.9 17 21 17l297.4-.6c10.3 0 19.1-7.3 21.1-17.4 2-10.1-3.4-20.3-12.8-24.3l-141.6-59.8V465c3.9-2.3 7.5-5.1 10.5-8.6l134.4-155.7c12.1 2.2 25 3.5 39 3.5 97.5 0 151.2-54 151.2-152.1C702.8 54 649.1 0 551.6 0" clip-rule="evenodd" style="fill: #019df4;"/></svg>
