<?xml version="1.0" encoding="UTF-8"?>
<svg xmlns="http://www.w3.org/2000/svg" viewBox="0 0 702.8 702.8"><path fill="#019df4" fill-rule="evenodd" d="M551.6 260.9c-1.6 0-2.9-.2-4.4-.2l32.3-37.5c7.2-7.8 11.7-18.2 11.7-29.6 0-24-19.2-43.4-43-43.4h-.5l-104 .5c.5-73.1 34.7-107.3 107.9-107.3 72.7 0 108.1 35.6 108.1 108.8 0 74.1-34.4 108.7-108.1 108.7zm-205.9 167L200.5 274.2h277.8L345.7 427.9zm-43.2 231.3l44.1-20.4 47.8 20.2-91.9.2zM548 193.6l-32.7 37.7c-.9-.1-1.7-.5-2.6-.5H159.5l-33.4-35.3c0 .1 421.9-1.9 421.9-1.9zM551.6 0c-97 0-150.5 53.6-151 150.8l-185 .9-66.8-67.2c-9.7-9.7-22.9-15.2-36.7-15.2H21.6C9.7 69.3 0 79 0 91s9.7 21.7 21.6 21.7h90.5c2.3 0 4.6.9 6.2 2.5l36.5 36.8-28.8.1c-17.2.1-32.7 10.5-39.5 26.4-6.7 15.9-3.4 34.3 8.4 46.9l219.6 232.5c2.9 3.1 6.5 5.6 10.2 7.7v135.6l-130 60.2c-10.9 5.1-15.6 18-10.5 28.9 3.5 7.6 11.1 12.4 19.4 12.5l297.4-.6c10.3 0 19.1-7.3 21.1-17.5 2-10.1-3.4-20.2-12.8-24.2l-141.6-59.9V465c4-2.3 7.5-5.2 10.5-8.6l134.4-155.7c12.1 2.2 25 3.5 38.9 3.5 97.5 0 151.2-54 151.2-152.1C702.8 54.1 649.1 0 551.6 0z" clip-rule="evenodd" style="fill: #019df4;"/></svg>
