<?xml version="1.0" encoding="UTF-8"?>
<svg xmlns="http://www.w3.org/2000/svg" viewBox="0 0 702.8 702.8"><path fill="#019df4" fill-rule="evenodd" d="M555.5 266.1c-10.2 0-19.7-.7-28.6-2.1l46.2-53.6c5-5.3 8.1-12.4 8.1-20.3 0-16.3-13-29.5-29.2-29.5h-.3l-113 .5c-.3-4.4-.6-8.7-.6-13.3 0-79.6 38.4-118.3 117.5-118.3s117.6 38.7 117.6 118.3c0 79.7-38.5 118.3-117.7 118.3zM345.6 429.2L190.5 265H487l-.4.6-141 163.6zm-77.7 243.3l78.5-36.3 85.2 36c-.1.1-163.7.3-163.7.3zm283.9-482.4l-39.1 45.3H172.5c-2.7.1-5.3.9-7.6 2.4L121.7 192c0 .1 430.1-1.9 430.1-1.9zM555.5 0c-94.7 0-146.8 52.5-146.8 147.9 0 4.7.4 9 .6 13.4l-193 .9c-.5-.7-.8-1.5-1.4-2.2l-75.5-75.9c-8.5-8.6-20.1-13.5-32.2-13.5H15C6.9 70.6.3 77.2.3 85.3c0 8.2 6.6 14.8 14.7 14.8h92.4c4.3 0 8.4 1.7 11.4 4.8l57.1 57.4-54.3.3c-11.7 0-22.3 7.1-26.8 17.9-4.6 10.8-2.3 23.4 5.7 31.9l223.9 237c2 2.2 4.6 3.6 7.1 5v156.1l-136.9 63.4c-7.4 3.5-10.6 12.3-7.1 19.7 2.4 5.1 7.6 8.4 13.2 8.5l303.3-.6c7.5 3.2 16.2-.3 19.4-7.8 3.2-7.5-.3-16.2-7.8-19.4-1.9-.8-3.9-1.2-5.9-1.2l-148.9-62.9V453.8c2.5-1.5 5-3 7-5.3l137.5-159.4c15.3 3.9 31.9 6.4 50.3 6.4 94.7 0 146.9-52.5 146.9-147.7C702.5 52.6 650.3 0 555.5 0z" clip-rule="evenodd" style="fill: #019df4;"/></svg>
