<?xml version="1.0" encoding="UTF-8"?>
<svg xmlns="http://www.w3.org/2000/svg" viewBox="0 0 702.8 702.8"><path fill="#019df4" fill-rule="evenodd" d="M561.8 289.4c-3.9.1-8.2 0-11.5-.1-5.2-.2-10.3-.7-15.4-1.6 22.1-53.4 29.5-123 30.3-204.4V57.7c34.2.9 107.8 14.4 107.8 115.4 0 103.4-77.8 115.8-111.2 116.3m-209.2 82.7c-.4-.1-.8-.3-1.3-.3-.6 0-1.2.3-1.8.4-1.5 0-2.8.1-4.2.1-139.4 0-189.1-77.5-190-295.9V29.5h380.2c0 19.2 0 50.5-.1 53.7-2 209.6-50.1 286.2-182.8 288.9m117.6 301.2H232.6c4.7-69.8 43.6-103.8 118.8-103.8 75.1 0 114.1 34 118.8 103.8M141 289.4c-33.5-.5-111.2-12.9-111.2-116.3 0-90.2 58.6-110.7 95.6-114.6v18c.4 86.2 7.5 158.1 29.8 212.4-8 .5-14.1.4-14.2.5M565.2 28.3V14.7c0-8.2-6.7-14.8-14.8-14.7H140.3c-8.2-.1-14.9 6.5-14.9 14.7v14.6C62.4 34.9 0 74.6 0 173.1 0 279 72.6 317.9 140.6 318.9h1.5c4 0 15.1-.2 27.3-1.6 31.2 52.5 83.2 82.2 167.1 84.2V541c-86.4 5.5-134.1 56.8-134.1 147 0 8.2 6.6 14.8 14.9 14.8h268.3c8.2.1 14.8-6.5 14.9-14.7v-.1c0-90.3-47.8-141.6-134.1-147V400.9c77.2-4.7 126-35.3 155.6-86.3.9.4 1.8 1 2.8 1.3 9.1 2.1 20.3 2.8 25 2.9 2.6.1 5.6.1 8.7.1h3.9c67.9-1 140.6-39.9 140.6-145.8-.2-104.9-70.9-143.5-137.8-144.8" clip-rule="evenodd" style="fill: #019df4;"/></svg>
