<?xml version="1.0" encoding="UTF-8"?>
<svg xmlns="http://www.w3.org/2000/svg" viewBox="0 0 702.8 702.8"><path fill="#019df4" fill-rule="evenodd" d="M673.5 658.1c0 8.5-6.9 15.4-15.5 15.5H249.7c-8.5 0-15.4-6.9-15.4-15.5V504.2c0-2.2-.6-4.4-1.6-6.4h220.4c24.7 0 44.7-20 44.7-44.7V233.4c1.4.5 2.9.8 4.4.9h155.9c8.5 0 15.5 6.9 15.5 15.5v408.3zm-644.2-205V44.7c0-8.5 6.9-15.5 15.4-15.5h408.4c8.5 0 15.5 6.9 15.5 15.5V453c0 8.5-6.9 15.4-15.5 15.5H44.7c-8.5 0-15.4-6.9-15.4-15.4zM658.1 205H502.2c-1.5.1-3 .4-4.4.9V44.7c0-24.7-20-44.7-44.7-44.7H44.7C20 0 0 20.1 0 44.7V453c0 24.7 20 44.7 44.7 44.7h161.9c-1 2-1.6 4.2-1.6 6.4V658c0 24.7 20 44.7 44.7 44.7h408.4c24.7 0 44.7-20 44.7-44.7V249.7c0-24.7-20-44.7-44.7-44.7z" clip-rule="evenodd" style="fill: #019df4;"/></svg>
