<?xml version="1.0" encoding="UTF-8"?>
<svg xmlns="http://www.w3.org/2000/svg" viewBox="0 0 702.8 702.8"><path fill="#019df4" fill-rule="evenodd" d="M657.3 650.7c0 3.7-3 6.6-6.6 6.6H252.2c-3.7 0-6.6-3-6.6-6.6v-148h203.3c29.7 0 53.9-24.2 53.9-53.9V245.5h147.9c3.7 0 6.6 2.9 6.6 6.6v398.6zM45.5 448.9v-395c0-4.6 3.8-8.4 8.4-8.4h394.9c4.6 0 8.4 3.8 8.4 8.4v395c0 4.6-3.8 8.4-8.4 8.4h-395c-4.6-.1-8.3-3.8-8.3-8.4-.1 0-.1 0 0 0zM650.7 200h-148V53.9c0-29.8-24.2-53.9-53.9-53.9h-395C24.1 0 0 24.1 0 53.9v395c0 29.7 24.2 53.9 53.9 53.9H200v147.9c0 28.7 23.4 52.1 52.1 52.1h398.5c28.8 0 52.1-23.4 52.1-52.1V252.1c.1-28.7-23.3-52.1-52-52.1z" clip-rule="evenodd" style="fill: #019df4;"/></svg>
