<?xml version="1.0" encoding="UTF-8"?>
<svg xmlns="http://www.w3.org/2000/svg" viewBox="0 0 702.8 702.8"><path fill="#019df4" fill-rule="evenodd" d="M45.5 448.8v-395c0-4.6 3.8-8.4 8.4-8.4h394.9c4.6 0 8.4 3.8 8.4 8.4v395c0 4.6-3.8 8.4-8.4 8.4H53.9c-4.7 0-8.4-3.7-8.4-8.4zM650.7 200H502.8V53.9c0-29.7-24.2-53.9-53.9-53.9H54C24.3 0 .1 24.2.1 53.9v395c0 29.7 24.2 53.9 53.9 53.9h146v147.9c0 28.7 23.4 52.1 52.1 52.1h398.5c28.7 0 52.1-23.4 52.1-52.1V252.1c.1-28.7-23.3-52.1-52-52.1z" clip-rule="evenodd" style="fill: #019df4;"/></svg>
