<?xml version="1.0" encoding="UTF-8"?>
<svg xmlns="http://www.w3.org/2000/svg" viewBox="0 0 800 800"><path fill="#019df4" d="M399.9 750.9c-111.5 0-198.2-29.1-257.7-86.5C80.4 604.9 49.1 516 49.1 400.1s31.3-204.9 93.1-264.5C201.7 78.2 288.5 49 399.9 49c111.5 0 198.2 29.1 257.8 86.5 61.9 59.6 93.2 148.6 93.2 264.5s-31.4 204.8-93.2 264.4c-59.6 57.4-146.3 86.5-257.8 86.5zm0-663c-207 0-312 105-312 312.2 0 207 105 312 312 312 207.1 0 312.2-105 312.2-312C712.1 193 607 87.9 399.9 87.9z" style="fill: #019df4;"/><path fill="#019df4" d="M348.9 554.9c-5.6 0-10.9-2.5-14.4-6.9l-94.2-118.4c-6.3-7.9-5-19.5 2.9-25.8 7.9-6.3 19.5-5 25.8 2.9l79.4 99.8 191.7-256.6c6.1-8.1 17.6-9.8 25.7-3.7 8.1 6.1 9.8 17.6 3.7 25.7L363.7 547.5c-3.4 4.6-8.7 7.3-14.4 7.4h-.4z" style="fill: #019df4;"/></svg>
