<?xml version="1.0" encoding="UTF-8"?>
<svg xmlns="http://www.w3.org/2000/svg" viewBox="0 0 800 800"><path fill="#019df4" d="M400.9 752.3c-229.7 0-351.2-121.4-351.2-351.2 0-229.8 121.4-351.3 351.2-351.3 112.1 0 199 29 258.4 86.3 61.6 59.4 92.9 148.6 92.9 265 .1 229.7-121.4 351.2-351.3 351.2zm0-682.5c-219.7 0-331.2 111.5-331.2 331.3 0 219.7 111.4 331.2 331.2 331.2 219.9 0 331.3-111.4 331.3-331.2.1-219.9-111.4-331.3-331.3-331.3z" style="fill: #019df4;"/><path fill="#019df4" d="M348 555.8c-3 0-5.8-1.4-7.5-3.7l-92.3-120.6c-3.2-4.2-2.4-10.1 1.8-13.3 4.2-3.2 10.1-2.4 13.3 1.8L348 530.7l211.7-273.5c3.2-4.1 9.2-4.9 13.3-1.7 4.1 3.2 4.9 9.2 1.7 13.3L355.5 552.1c-1.8 2.3-4.6 3.7-7.5 3.7z" style="fill: #019df4;"/></svg>
