<?xml version="1.0" encoding="UTF-8"?>
<svg xmlns="http://www.w3.org/2000/svg" viewBox="0 0 800 800"><path fill="#019df4" d="M657.2 135.6c-59.6-57.4-146.3-86.5-257.8-86.5s-198.2 29.1-257.7 86.6c-61.8 59.6-93.1 148.6-93.1 264.5S79.9 605 141.7 664.6c59.5 57.4 146.2 86.5 257.7 86.5s198.2-29.1 257.8-86.5c61.8-59.6 93.2-148.5 93.2-264.4s-31.3-205-93.2-264.6zm-88.1 136.3l-206 275.6c-3.4 4.6-8.7 7.3-14.4 7.4h-.3c-5.6 0-10.9-2.5-14.4-6.9l-94.2-118.5c-6.3-7.9-5-19.5 2.9-25.8 7.9-6.3 19.5-5 25.8 2.9l79.4 99.8 191.7-256.6c6.1-8.1 17.6-9.8 25.7-3.7 8.2 6.2 9.8 17.7 3.8 25.8z" style="fill: #019df4;"/></svg>
