<?xml version="1.0" encoding="UTF-8"?>
<svg xmlns="http://www.w3.org/2000/svg" viewBox="0 0 702.8 702.8"><path fill="#019df4" fill-rule="evenodd" d="M366.7 658.6c87.9-1.6 292.2-34.7 292.2-306.3 0-271.7-205.5-306-293.9-308.1-7.9-.2-17-.3-25.8-.3h-6.1c-87 .8-289.3 32.2-289.3 306.3 0 274.7 204.2 307.3 292 308.5l10.3.1c7.3 0 14.4-.1 20.6-.2zM366.1.4C435 2 702.8 29.2 702.8 352.4c0 323.9-268.3 349-335.3 350.3-6.4.1-13.8.2-21.2.2-3.7 0-7.4-.1-11-.1C264.8 701.7 0 676.2 0 350.3 0 24.8 262.3.6 332.8 0h6.4c9.2 0 18.7.1 26.9.4zm-14.8 475.8c-12.1 0-22-9.8-22-22V150.8c0-12.1 9.8-22 22-22s22 9.8 22 22v303.4c-.1 12.1-9.9 22-22 22zm0 29.9c13.8 0 25 11.2 25.1 25 0 13.8-11.2 25-25 25.1h-.1c-13.8 0-25-11.2-25-25.1 0-13.8 11.2-25 25-25z" clip-rule="evenodd" style="fill: #019df4;"/></svg>
