<?xml version="1.0" encoding="UTF-8"?>
<svg xmlns="http://www.w3.org/2000/svg" viewBox="0 0 702.8 702.8"><path fill="#019df4" fill-rule="evenodd" d="M366.9 673.3c71.9-1.3 306.6-28.4 306.6-321 0-126.7-43.3-218.1-128.8-271.7-69.8-43.8-148.6-50.2-179.3-51-7.9-.2-17-.3-25.8-.3h-6.5c-30.5.3-108.8 5.5-177.6 48.8C71.7 130.8 29.3 222.4 29.3 350.3c0 128.1 42.9 219.9 127.5 273.3 69.4 43.7 148.3 49.5 179 49.9l10.5.1c7.2-.1 14.4-.1 20.6-.3zm-.8-673c68.8 1.6 336.7 28.8 336.7 352 0 323.9-268.2 349.1-335.3 350.3-6.4.1-13.8.2-21.2.2-3.7 0-7.4 0-11-.1C264.7 701.7 0 676.2 0 350.3 0 24.8 262.3.6 332.8 0h6.8c9 0 18.4.1 26.5.3zm-14.8 468.6c-8.1 0-14.6-6.6-14.6-14.6V150.9c0-8.1 6.6-14.6 14.6-14.6s14.6 6.6 14.6 14.6v303.4c0 8.1-6.6 14.6-14.6 14.6zm.1 37.3c12.6 0 22.9 10.2 22.9 22.9 0 12.6-10.2 22.9-22.9 22.9-12.6 0-22.9-10.3-22.9-22.9.1-12.7 10.3-22.9 22.9-22.9z" clip-rule="evenodd" style="fill: #019df4;"/></svg>
