<?xml version="1.0" encoding="UTF-8"?>
<svg xmlns="http://www.w3.org/2000/svg" viewBox="0 0 702.8 702.8"><path fill="#019df4" fill-rule="evenodd" d="M351.3 556.2c-13.8 0-25-11.2-25-25.1 0-13.8 11.2-25.1 25-25.1s25 11.2 25 25.1c0 13.9-11.2 25.1-25 25.1zm-22-405.4c0-12.1 9.8-22 22-22s22 9.8 22 22v303.4c0 12.1-9.8 22-22 22s-22-9.8-22-22V150.8zM366.1.4c-8.2-.2-17.7-.4-26.8-.4h-6.5C262.2.6 0 24.8 0 350.2c0 325.9 264.7 351.5 335.3 352.5 3.6.1 7.3.1 11 .1 7.4 0 14.8-.1 21.2-.2 67.1-1.2 335.3-26.4 335.3-350.3C702.8 29.2 434.9 2 366.1.4z" clip-rule="evenodd" style="fill: #019df4;"/></svg>
