<?xml version="1.0" encoding="UTF-8"?>
<svg xmlns="http://www.w3.org/2000/svg" viewBox="0 0 702.8 702.8"><path fill="#019df4" fill-rule="evenodd" d="M571.3 267.3c-7.4 13.8-29.1 32-69 44-40.1 12-93.4 18.5-150 18.5-56.6 0-109.6-6.4-150-18.4-35.9-10.9-61.9-27.3-69.8-43.7v-130c14.7 11.7 35.1 21.7 61.3 29.4 43 12.9 99.4 19.9 158.6 19.9 59.2 0 115.6-7 158.6-19.9 25.7-7.6 45.7-17 60.4-28.8v129zm0 173.2c-7.4 13.8-29.1 32-69 44-40.1 12-93.4 18.8-150 18.8-56.6 0-109.6-6.7-150-18.8-35.9-10.8-61.9-27-69.8-43.7V310.5c15.6 11.4 36.3 21.4 61.3 28.8 43 12.9 99.4 20 158.6 20 59.6 0 115.8-7.1 158.6-20 24.2-7 44.8-17 60.4-29v130.2h-.1zm0 158.7c0 22.9-23.3 41.6-69.3 55.5-40.4 12-93.7 18.7-150 18.7s-109.6-6.7-150.3-18.7c-46-13.8-69.3-32.6-69.3-55.5V483.6c15.3 11.4 36.3 21.4 61.3 29 43 12.9 99.4 20 158.6 20 59.6 0 115.8-7 158.6-20 24.2-7 44.8-17.3 60.4-29.3v115.9zM201.7 48.1c40.4-12 93.8-18.7 150.3-18.7s109.9 6.7 150 18.7c40.1 12 62.8 27.8 67.8 46.7 0 0-.3.3-.3.6-6.8 17.3-29.7 32.3-67.2 43.4-40.4 12-93.4 18.8-150 18.8-56.6 0-109.6-6.7-150-18.8-38.3-11.5-61.6-27-67.8-44.9 0-.3 0-.3-.3-.6 6.2-17.9 29.5-33.7 67.5-45.2zm308.9-28.2C467.6 7.4 411.3 0 352.1 0c-59.6 0-115.9 7.3-158.6 19.9-50.1 15-79.6 37.3-88.1 66.3-1.5 5.6-2.4 11.4-2.4 17.3v495.6c0 37.5 30.4 65.7 90.5 83.6 43 12.9 99.3 19.9 158.6 19.9 58.9 0 115.3-7 158.5-19.9 59.9-18.2 90.2-46.1 90.2-83.6V103.6c0-37.6-30.3-65.4-90.2-83.7z" clip-rule="evenodd" style="fill: #019df4;"/></svg>
