<?xml version="1.0" encoding="UTF-8"?>
<svg xmlns="http://www.w3.org/2000/svg" viewBox="0 0 702.8 702.8"><path fill="#019df4" fill-rule="evenodd" d="M556.2 266.9c-7 11.4-26.3 27-61 37.6-38.2 11.6-89 17.9-142.9 17.9-53.9 0-104.7-6.3-142.9-17.9-36.4-11.1-55.4-25.9-61.8-36.9V158c13.4 8.2 29.6 15.2 49 21 42.2 12.8 97.5 19.8 155.7 19.8 58.2 0 113.5-7.1 155.7-19.8 19.1-5.8 35.1-12.6 48.3-20.5v108.4zm0 168.8c-6.7 11.4-25.8 27.3-61 38-38.2 11.6-89 17.9-142.9 17.9-53.9 0-104.7-6.4-142.9-18-36.5-11-55.5-25.8-61.8-36.9V326.2c13.8 8.2 30.2 15.4 49 21.1 42.3 12.8 97.6 19.8 155.8 19.8 58.2 0 113.5-7 155.7-19.8 18.3-5.5 34.4-12.8 48.2-21.2v109.6zm0 157.9c0 23-33.4 37.9-61.3 46.4-38.5 11.6-89.3 18-143.1 18-53.7 0-104.5-6.4-142.9-17.9-28-8.5-61.4-23.4-61.4-46.4v-98.1c13.8 8.2 30.2 15.4 49 21 42.3 12.8 97.6 19.9 155.8 19.9 58.2 0 113.5-7 155.7-19.8 18.2-5.5 34.4-12.8 48.2-21.2v98.1zM208.9 62.8c38.3-11.6 89-18 142.9-18 54 0 104.7 6.4 143 17.9 23.9 7.2 51.5 19.2 59.2 36.9-6.2 13.8-26.8 26.7-58.9 36.4-38.2 11.5-88.9 17.9-142.9 17.9s-104.7-6.4-142.9-17.9c-32.4-9.8-53-22.9-59-36.8 6.4-13.8 26.5-26.7 58.6-36.4zm298.8-43C465.4 7 410 0 351.8 0 293.7 0 238.3 7.1 196 19.8c-51.1 15.5-81.5 39.1-90.4 70.2-1.8 6.2-2.7 12.6-2.7 19.2v484.4c0 40.6 31.3 70.6 93.1 89.4 42.5 12.8 97.8 19.8 155.7 19.8 58 0 113.3-7 155.9-19.8 61.7-18.7 93.1-48.8 93.1-89.3V109.3c.1-40.7-31.2-70.8-93-89.5z" clip-rule="evenodd" style="fill: #019df4;"/></svg>
