<?xml version="1.0" encoding="UTF-8"?>
<svg xmlns="http://www.w3.org/2000/svg" viewBox="0 0 702.8 702.8"><path fill="#019df4" fill-rule="evenodd" d="M182.2 119.4c-43.4-12.5-69.9-29.4-76.9-49 0-.3 0-.3-.3-.7 7-19.5 33.4-36.8 76.5-49.3C227.3 7.3 287.8-.1 352-.1s124.7 7.4 170.2 20.5c45.5 13.1 71.2 30.4 76.9 50.9 0 0-.4.3-.4.6-7.7 18.9-33.7 35.2-76.2 47.4-45.8 13.1-106 20.5-170.2 20.5-64.1.1-124.3-7.3-170.1-20.4zm350.1 30.8c29.1-8.3 51.8-18.6 68.5-31.4v140.9c-8.4 15.1-33.1 34.9-78.2 48.1-45.5 13.1-106 20.2-170.2 20.2-64.2 0-124.3-7-170.2-20.2-40.8-11.9-70.2-29.8-79.2-47.7V118.2c16.7 12.8 39.8 23.7 69.6 32 48.8 14.1 112.7 21.8 179.8 21.8 67.2-.1 131.1-7.8 179.9-21.8zM352.4 359.9c67.5 0 131.4-7.7 179.9-21.8 27.4-7.7 50.8-18.6 68.5-31.7v142.2c-8.4 15.1-33.1 34.9-78.2 48-45.5 13.1-106 20.5-170.2 20.5-64.2 0-124.4-7.4-170.2-20.5-40.8-11.8-70.2-29.5-79.2-47.7V306.8c17.8 12.5 41.1 23.4 69.6 31.4 48.8 14 112.6 21.7 179.8 21.7zm0 189.2c67.5 0 131.4-7.7 179.9-21.8 27.4-7.7 50.8-18.9 68.5-32v126.4c0 25-26.4 45.5-78.6 60.5-45.8 13.2-106.3 20.5-170.2 20.5-63.8 0-124.3-7.4-170.5-20.5-52.1-15.1-78.6-35.5-78.6-60.5V495.6c17.4 12.5 41.1 23.3 69.6 31.7 48.9 14.1 112.7 21.8 179.9 21.8z" clip-rule="evenodd" style="fill: #019df4;"/></svg>
