<?xml version="1.0" encoding="UTF-8"?>
<svg xmlns="http://www.w3.org/2000/svg" viewBox="0 0 702.8 702.8"><path fill="#019df4" d="M350.9 702.2c-10 0-19.5-4.4-25.9-12L9.4 363.8c-.4-.4-.7-.8-1.1-1.2-8.9-10.9-10.7-25.9-4.6-38.5 5.6-12.2 17.7-20 31.1-20h140.4V68.6c0-37.5 30.5-68 68-68h215.3c37.6 0 68 30.4 68 68l-.1 235.5h141.4c13.4 0 25.6 7.8 31.2 20 6.1 12.6 4.3 27.7-4.6 38.5-.3.4-.7.8-1.1 1.2L376.9 690.2c-6.5 7.6-16 12-26 12zM43.3 343L351 661.2 659.5 343H522.3c-19.1 0-34.7-16-34.7-35.6l.1-238.7c0-16.1-13-29.2-29.1-29.2H243.3c-16.1 0-29.1 13.1-29.1 29.1v238.7c0 19.6-15.6 35.6-34.7 35.6H43.3zm624.6 0z" style="fill: #019df4;"/></svg>
