<?xml version="1.0" encoding="UTF-8"?>
<svg xmlns="http://www.w3.org/2000/svg" viewBox="0 0 703.4 702.8"><path fill="#019df4" d="M351.4 702.4c-7.5 0-14.5-3.3-19.3-9.1L7 357.1l-.6-.6c-6.7-8.2-8-19.5-3.4-29 4.1-9 13.1-14.8 23-14.8h148.9c3.1 0 5.7-3 5.7-6.6V60.2c0-33.1 26.9-60 60-60h221.7c33.1 0 60 26.9 60 60l-.1 245.8c0 3.7 2.5 6.6 5.7 6.6h149.8c9.9.1 18.9 5.8 23 14.9 4.6 9.5 3.3 20.8-3.5 29l-.6.6-326 336.2c-4.7 5.7-11.7 9-19.2 9.1zM21.8 343.6l325 336.1.6.6c1 1.3 2.5 2 4.1 2.1 1.6 0 3.1-.8 4.1-2.1l.6-.6L682 343.6c1.6-2.2 1.8-5.1.7-7.5-.8-2-2.8-3.4-5-3.4H527.8c-14.2 0-25.7-12-25.7-26.6l.1-245.7c0-22.1-17.9-40-40-40H240.6c-22.1 0-40 17.9-40 40V306c0 14.7-11.5 26.6-25.7 26.6H26.1c-2.2 0-4.2 1.4-5 3.4-1.2 2.5-.9 5.4.7 7.6zm667.7 6.6z" style="fill: #019df4;"/></svg>
