<?xml version="1.0" encoding="UTF-8"?>
<svg xmlns="http://www.w3.org/2000/svg" viewBox="0 0 702.8 702.8"><path fill="#019df4" d="M702.8 47.9h-.3v297c-2.7 15-10 28.7-21 39.3L384.2 679.7c-12.3 13.6-29.4 21.8-47.6 23-11 .4-21.6-3.7-29.6-11.2L11.1 396c-18.2-24.2-13.6-58.6 10.4-77.2L319.1 20.7A74.33 74.33 0 0 1 357 0h297.9c26.4 0 47.9 21.4 47.9 47.9zm-29.6 292.6V47.9c0-10.1-8.2-18.3-18.3-18.3H362.3c-8.5 1.9-16.2 6.4-22.2 12.7l-298.5 297c-13 13-16 29.3-10.1 35.1L327.4 670c5.9 5.9 22.8 2.6 35.5-10l297.9-297.3c6.4-5.9 10.7-13.7 12.4-22.2zM527.7 78c23 1.8 44.5 12.5 59.7 29.9 17.6 15.6 28.2 37.5 29.6 60.9-.6 23.4-10.7 45.5-28.1 61.2-15.3 16.8-36.5 26.8-59.2 28.1-23.5-1.3-45.6-12-61.3-29.6-17.6-15.7-28.2-37.7-29.6-61.2.6-23.4 10.8-45.5 28.1-61.2C482.6 89 504.5 78.9 527.7 78zm41.1 128.9c11.3-9.8 18.2-23.8 18.9-38.7-1.1-15.6-8.3-30.2-20.1-40.5-10.2-11.7-24.7-18.9-40.2-20.1-15.3.9-29.6 7.9-39.7 19.5-11.5 10-18.5 24.1-19.5 39.3 1.1 15.6 8.3 30.2 20.1 40.5 10.4 11.6 25 18.6 40.5 19.5 15.3-1.4 29.5-8.3 40-19.5z" style="fill: #019df4;"/></svg>
