<?xml version="1.0" encoding="UTF-8"?>
<svg xmlns="http://www.w3.org/2000/svg" viewBox="0 0 702.8 702.8"><path fill="#019df4" fill-rule="evenodd" d="M647.8 356.6c5.4-5.4 9.1-11.7 9.9-17l-.3-6.6.3-278.3c0-5.3-4.3-9.6-9.7-9.6H362.1c-3.9.9-10.5 4.7-15.8 10.1L55.5 345.9c-10.4 10.4-11.2 21.2-10 23l288.3 288.2c2 1.5 13.1.4 23.2-9.8l290.8-290.7zm55-301.8l-.2 277.6.2 7.5c0 1-.2 4.3-.3 5.3-2.8 16.5-10.7 31.7-22.7 43.3L388.9 679.2c-15.5 15.5-34.6 23.6-52.2 23.6-13.2 0-25.5-4.5-34.8-13.8L13.6 400.8C2.4 389.6-2.2 373 1 355.3c2.8-14.8 10.7-29.5 22.5-41.3L314.4 23.3c12-12 26.6-20 41.3-22.7.7-.2 3.9-.5 4.5-.5L648 0c30.2 0 54.7 24.6 54.8 54.8zM558.1 205.7c22.3-22.3 22.1-44.2-.6-67-11.5-11.5-22.8-17.3-34-17.3-11 0-22 5.6-33 16.6-22.3 22.3-22.1 44.2.6 67 22.7 22.8 44.6 23.1 67 .7zm-99.6-99.5c40.1-40.1 90.3-39.9 130.8.7 40.6 40.6 40.8 90.7.7 130.8-20 20-42.4 30-64.9 30-22.8 0-45.5-10.2-65.9-30.6-40.6-40.6-40.9-90.8-.7-130.9z" clip-rule="evenodd" style="fill: #019df4;"/></svg>
