<?xml version="1.0" encoding="UTF-8"?>
<svg xmlns="http://www.w3.org/2000/svg" viewBox="0 0 702.8 702.8"><path fill="#019df4" d="M702.8 47.8C702.6 21.5 681.3.1 654.9 0H357c-14.4 3.3-27.6 10.6-37.9 21.3L21.5 318.6c-23.9 18.6-28.5 52.8-10.4 77L307 690.8c7.8 7.8 18.5 12.1 29.6 11.8 3.2.3 6.5.3 9.8 0 14.8-3.6 28.1-11.9 37.9-23.6l297.3-295.2c11-10.6 18.3-24.3 21-39.3V47.9h.2zM468.2 165.9c1.1-15 8.1-29.1 19.5-39 10-11.6 24.3-18.5 39.6-19.2 15.6 1 30.2 8.1 40.5 19.8 11.8 10.3 19 24.8 20.1 40.4-.9 15-7.8 28.9-19.2 38.7-10.1 11.6-24.5 18.6-39.9 19.5-15.6-.9-30.1-7.9-40.5-19.5-11.7-10.1-18.9-24.5-20.1-39.9v-.8z" style="fill: #019df4;"/></svg>
