<?xml version="1.0" encoding="UTF-8"?>
<svg xmlns="http://www.w3.org/2000/svg" viewBox="0 0 702.8 702.8"><path fill="#019df4" fill-rule="evenodd" d="M523 206.3L573.4 51l89.2 155.3H523zm-9.5 29.3h145.7L394.5 603.1l119-367.5zm-324.3 0l119 367.5L43.5 235.6h145.7zm16.1-46.5L153.5 29.3h170.2L205.3 189.1zM379 29.3h170.3l-51.7 159.8L379 29.3zm-149.7 177L351.4 41.6l122.1 164.6H229.3zm253.1 29.3l-131 404.6-131-404.6h262zM129.5 50.9l50.3 155.3H40.2l89.3-155.3zm573.2 170.5l.1-.4c0-2.3-.6-4.6-1.8-6.6-.1-.1-.1-.4-.2-.6L582.4 7.4c-.1-.3-.5-.4-.7-.6-1.4-2.2-3.5-4-5.9-5.1-.6-.3-1.1-.8-1.8-1-1.1-.3-2.1-.2-3.2-.3-.4-.1-.8-.4-1.2-.4H133.2c-.5 0-.8.3-1.3.4-1.1.1-2.1 0-3.2.3-.7.2-1.2.7-1.8 1-2.4 1.1-4.5 2.8-5.9 5.1-.2.2-.5.4-.7.6L1.9 213.7c-.1.2-.1.4-.1.6-1.1 2-1.7 4.3-1.8 6.6l.1.4c0 .4.2.8.3 1.3.2 2.1.9 4.1 2 5.8.2.3.1.7.4 1l336.6 467.2c.6.8 1.6 1.3 2.3 2 .6.6 1.2 1.1 1.8 1.6 2.4 1.5 5 2.5 7.8 2.5 2.9 0 5.5-1 7.9-2.5.7-.5 1.2-1 1.8-1.6.8-.7 1.8-1.2 2.4-2L700 229.4c.2-.3.1-.6.3-1 1.1-1.8 1.8-3.8 2-5.8.2-.4.4-.8.4-1.2z" clip-rule="evenodd" style="fill: #019df4;"/></svg>
