<?xml version="1.0" encoding="UTF-8"?>
<svg xmlns="http://www.w3.org/2000/svg" viewBox="0 0 702.8 702.8"><path fill="#019df4" fill-rule="evenodd" d="M529.4 202.1l41.2-127.3 73 127.3H529.4zm-13.9 43h123.4L414.7 556.3l100.8-311.2zm-328.2 0l100.8 311.2L64 245.1h123.3zm23.6-68.3L167.6 43h142.5l-99.2 133.8zM392.7 43h142.5l-43.3 133.8L392.7 43zM246.1 202.1l105.3-142 105.3 142H246.1zm223.7 43L351.4 610.8 233 245.1h236.8zM132.2 74.8l41.2 127.3H59.1l73.1-127.3zM702.7 224c0-.1.1-.3.1-.4 0-.4-.2-.7-.2-1.1-.1-2-.6-4.1-1.2-6-.2-.7-.5-1.4-.8-2-.2-.5-.3-1-.6-1.4L584 11c-.2-.4-.7-.6-1-1-1.5-2.4-3.5-4.3-5.9-5.9-1-.6-1.9-1.1-2.8-1.6-.9-.5-1.6-1.1-2.6-1.4-1.6-.5-3.1-.4-4.6-.5-.7-.1-1.3-.5-2-.5H137.8c-.7 0-1.3.5-1.9.5-1.6.1-3.1 0-4.7.5-1 .3-1.7 1-2.6 1.4-1 .5-1.9.9-2.8 1.6-2.4 1.6-4.4 3.6-5.9 5.9-.3.3-.8.5-1 1L2.9 213.1c-.3.5-.3 1-.6 1.4-.3.7-.5 1.3-.8 2-.7 1.9-1.1 4-1.2 6 0 .4-.2.8-.2 1.2 0 .1.1.3.1.4.1 2.6.6 5 1.5 7.4.3.6.6 1.1.8 1.6.5 1 .9 2.1 1.6 3.1l329.6 457.7.1.1c1.8 2.4 4.2 4.3 6.8 5.8.7.3 1.3.7 2 1 2.7 1.2 5.7 2.1 8.8 2.1 3.2 0 6.1-.9 8.9-2.1.7-.3 1.3-.6 1.9-1 2.6-1.5 5-3.4 6.8-5.8l.1-.1 329.6-457.7c.7-1 1.1-2.1 1.6-3.1.3-.5.6-1 .8-1.6 1-2.5 1.6-4.9 1.6-7.5z" clip-rule="evenodd" style="fill: #019df4;"/></svg>
