<?xml version="1.0" encoding="UTF-8"?>
<svg xmlns="http://www.w3.org/2000/svg" viewBox="0 0 702.8 702.8"><path fill="#019df4" fill-rule="evenodd" d="M638 169.1h-74.7l33.7-33.4 63.6.6c-.1 0-22.6 32.8-22.6 32.8zM354.1 335.4c-14.9-10.1-35.6-15.1-63.7-15.7-5.4-.1-20.9-.2-20.8-.2-58.1.5-89.6 16.8-89.6 101.5 0 85.7 32.5 102.4 92 103.2l6.6.1 14.2-.1c69.7-1.2 93.3-26.8 93.3-101.5 0-28.4-3.7-49.8-12.2-65.6l43.4-43c19.3 26.4 29.4 62.2 29.4 108.6 0 106.9-50 159.9-152.6 161.6l-15.1.1-7.2-.1c-102.5-1.4-152.3-54.9-152.3-163.3 0-107.8 48.9-160.7 149.5-161.6 1.9 0 17.4.1 23 .2 45.4 1.1 80 12.4 105.3 33.1l-43.2 42.7zm2.6 87.2c0 62.4-13.8 71.5-64.3 72.4l-13.6.1-6.4-.1c-42.5-.6-63-4-63-74.1 0-68.8 18.4-72 60.3-72.3 1.8 0 15.3 0 20.1.1 19 .5 33.2 2.2 43.4 7.4L278.9 410l-.1-23.5c-.1-8-6.6-14.5-14.6-14.5h-.2c-8.1 0-14.6 6.5-14.6 14.5v.1l.1 58.6v.2c0 2.6 1 4.9 2.2 7 2.6 4.5 7.3 7.2 12.4 7.3h.2l58.8-.9c8.1-.1 14.5-6.7 14.5-14.8-.2-8-6.7-14.4-14.7-14.3h-.2l-22.6.4 51.2-50.8c3.6 10.6 5.4 24.3 5.4 43.3zm179.9 0c0 99.3-33.9 170.7-100.9 212-54.7 33.8-116.4 38.5-140.3 38.9-4.9.1-10.5.1-16.2.1l-8.7-.1c-24.2-.3-86.4-4.8-141.1-38.9-66.4-41.5-100-113.4-100-213.7 0-100.1 33.3-171.7 99-212.7 54.1-33.8 115.9-38 140-38.1h5.6c6.9 0 14.1.1 20.2.2 24.2.6 86.5 5.6 141.5 39.9 9.2 5.7 17.6 12.1 25.6 19l-42.8 42.4c-35.7-30.2-82.9-40.1-125.9-41.1-6.1-.1-23.7-.2-23.7-.2C187.2 231 90 264.6 90 421c0 157 98.6 191.3 181.2 192.5l7.4.1 15.7-.2C377.2 612 476 577.7 476 422.7c0-59.3-14.6-100.9-37.2-130l43.1-42.8c36.2 42.1 54.7 99.9 54.7 172.7zm3.6-353.3l31.3-24.6v75.1l-31.3 31V69.3zm160.9 46c-2.5-4.8-7.5-7.7-12.9-7.8l-62.2-.7 3.9-3.9c5.7-5.6 5.7-14.8.1-20.5l-.1-.1c-5.8-5.7-15-5.7-20.8 0l-8.3 8.3v-76c0-5.6-3.2-10.7-8.3-13.1-5.1-2.4-11.1-1.8-15.5 1.7l-60.7 47.6c-3.5 2.8-5.5 7-5.6 11.4v117.7l-29 28.8c-67-58.5-154.5-66.7-187-67.5-7-.2-14-.3-21-.3l-5.7.1c-56.7.5-268 19.8-268 280 0 260.6 213.2 281 270 281.8 3 .1 6.1.1 9.1.1 5.9 0 11.7-.1 16.8-.1 54-1 270-21.1 270-280 0-90.5-26.6-151.5-63.5-193.3l31.4-31.2h111.9c4.9 0 9.4-2.4 12.1-6.4l42.3-61.6c3.2-4.5 3.5-10.2 1-15z" clip-rule="evenodd" style="fill: #019df4;"/></svg>
