<?xml version="1.0" encoding="UTF-8"?>
<svg xmlns="http://www.w3.org/2000/svg" viewBox="0 0 702.8 702.8"><path fill="#019df4" fill-rule="evenodd" d="M431.4 311.5l-18.9 18.9 18.9-18.9 12.6-12.6 52.4-52.3-52.4 52.3 52.4-52.3-29.7-30.9-82.6 82.6c-22.1-16.9-53.9-28.6-99.8-29.7-5.7-.1-22.1-.2-22.1-.2C117 269.7 117 387.6 117 426.3c0 39 0 157.6 147.7 159.7l6.8.1 14.8-.1c148.2-2.6 148.2-119.6 148.2-158 0-20.2-.2-61.8-21.7-97.5l18.6-19zm65-64.9c32.1 40.7 54.8 98.4 54.8 181.3 0 254-210.3 273.8-262.9 274.7-5 .1-10.6.2-16.3.2-3 0-6 0-8.9-.1C207.8 701.9.2 681.9.2 426.2c0-255.3 205.7-274.2 261-274.7h5.7c7 0 14.2.1 20.4.3 31.2.7 114.7 8.5 179.5 63.9l-16.5 16.5 16.5-16.5 34.8-34.8V68.3c0-3.8 1.3-7.2 3-10.4.1-.2.2-.3.3-.5 1.3-2.1 2.7-3.9 4.6-5.5.2-.2.3-.5.6-.7l56-44.7c.5-.4 1.2-.5 1.8-.9 3.8-3.4 8.7-5.6 14.3-5.6 11.8 0 21.5 9.6 21.5 21.5v58.7c8.2-5.1 19-4.4 26.2 2.7 6 6 7.5 14.6 4.9 22.1l46.9.5c11.8.1 21.3 9.8 21.2 21.7 0 1.5-.6 2.7-.9 4.1-.1.7-.3 1.5-.5 2.2-.4 1.3-.9 2.5-1.6 3.7-.5 1-.7 2.1-1.3 3L658 199c-.2.3-.5.3-.7.6-3.9 5.5-10 9.4-17.2 9.4H534l-37.6 37.6-52.4 52.3 52.4-52.3zm126.8-75.1l23.9-29.5-45.6-.5-30 30h51.7zM566 116.2V60.3l-26.9 23.6v59.2l26.9-26.9zm-312.2 252c-11.8 1-20.5 11.4-19.5 23.2l5.4 61.9c.2 2.1.7 4.1 1.4 6l.3.6c.9 2.1 2.2 3.9 3.6 5.6.5.6 1 1 1.6 1.5 1.4 1.3 2.9 2.3 4.6 3.2.6.3 1.1.7 1.7.9.3.1.5.3.8.4 1.8.7 3.7.8 5.6 1 .5 0 .9.3 1.4.3L330 474h.4c11.7 0 21.3-9.4 21.5-21.1.2-11.8-9.2-21.6-21.1-21.8l-18.8-.3 68.9-68.9c7.9 18.2 10.4 40.5 10.4 66 0 67.9-18 113.5-105.7 115.1l-14 .1-6.6-.1c-87.5-1.2-105.4-47.6-105.4-116.8 0-68.4 17.4-114.2 102.4-115 2.2 0 15.9.1 21 .2 31.4.7 53.9 6.9 70.2 17.5l-74.8 74.8-1.4-16c-.9-11.8-10.7-20.2-23.2-19.5z" clip-rule="evenodd" style="fill: #019df4;"/></svg>
