<?xml version="1.0" encoding="UTF-8"?>
<svg xmlns="http://www.w3.org/2000/svg" viewBox="0 0 702.8 702.8"><path fill="#019df4" fill-rule="evenodd" d="M616.5 178.8l-51.4-.8 30.4-30.4 43.7.5-22.7 30.7zM391.4 427.9c0 67.9-18 113.5-105.7 115.1l-14 .2-6.6-.1c-87.5-1.3-105.4-47.6-105.4-116.8 0-68.4 17.4-114.2 102.3-115 2.2 0 15.9.1 21.1.2 31.4.7 53.9 6.9 70.2 17.5l-74.8 74.7-1.4-16c-1-11.8-10.9-20.4-23.3-19.5-11.8 1-20.5 11.4-19.5 23.2l5.4 61.9c.2 2.1.7 4.1 1.5 6l.3.6c.9 2.1 2.1 3.9 3.6 5.6.5.6 1 1.1 1.6 1.5 1.4 1.3 2.9 2.3 4.6 3.2.6.3 1.1.7 1.7.9.3.1.5.3.8.4 1.8.7 3.7.8 5.6 1 .5 0 .9.3 1.4.3l69.3 1.2h.4c11.7 0 21.3-9.4 21.5-21.1.2-11.8-9.2-21.6-21.1-21.8l-18.8-.3 68.9-68.9c7.8 18.2 10.4 40.5 10.4 66zm116.8 0c0 205.6-154.4 230.6-220.8 231.9-4.7.1-10.1.1-15.5.1l-8.3-.1C197.3 658.9 43 634.2 43 426.2c0-207.5 152.8-231.3 218.5-231.8h5.2c6.6 0 13.4.1 19.4.3 36.9.9 100.6 9.4 150.4 51.1L384 298.3c-22.1-16.9-53.9-28.7-99.8-29.7-5.7-.2-22.1-.3-22.1-.3-145.2 1.3-145.2 119.2-145.2 157.9 0 39 0 157.6 147.7 159.7l6.8.1 14.8-.2c148.2-2.6 148.2-119.5 148.2-158 0-20.2-.2-61.8-21.7-97.5l53.1-53.1c25.1 34.4 42.4 82.5 42.4 150.7zm21.1-334.5l31.2-26.1v54.5l-29 29-2.2-57.4zm171.3 24c-3.6-7.2-10.9-11.8-19-11.9l-46.9-.5c2.5-7.5 1-16.1-5-22.1-7.2-7.1-18-7.8-26.2-2.7V21.4c0-8.3-4.8-15.9-12.4-19.5-7.4-3.5-16.4-2.4-22.8 3l-74.5 62.2c-5.1 4.2-8 10.6-7.7 17.3l4.2 107.6-23.6 23.6c-64.8-55.3-148.3-63.1-179.6-63.8-6.2-.2-13.4-.3-20.4-.3H261C205.7 152 0 171 0 426.2c0 255.7 207.6 275.7 263 276.5 2.9.1 5.9.1 8.9.1 5.7 0 11.4-.1 16.3-.2 52.6-.9 263-20.7 263-274.7 0-82.9-22.7-140.6-54.8-181.3l26.5-26.5 104 1.7h.3c6.8 0 13.2-3.2 17.3-8.7l54.1-73.4c4.8-6.5 5.5-15.1 2-22.3z" clip-rule="evenodd" style="fill: #019df4;"/></svg>
