<?xml version="1.0" encoding="UTF-8"?>
<svg xmlns="http://www.w3.org/2000/svg" viewBox="0 0 702.8 702.8"><path fill="#019df4" fill-rule="evenodd" d="M665.7 239.6c-14.3 59.6-40 121.7-76.4 184.7l-3.4 11.4c-1.9 7.8-3.6 14.9-5.2 20.8-7.1 28-15.3 54.1-25 79.7-15.3 41.3-27.5 68-48 105.3l-2 3.4c-3 4.9-7.9 13.6-12.7 19.4-3.4 4.3-7.2 7.4-11.1 9.1l-4-.1c-3.8-1.5-7.6-4.6-11.1-9.1-4.3-5.3-9.7-14-12.7-19.2l-1.9-3.7c-1.9-3.4-7-16.8-11.9-29.8-36.1-95.3-59.8-143.7-89-143.7-29.1 0-52.9 48.4-89 143.7-4.9 13-10 26.4-11.9 29.8l-1.9 3.3v.4c-3 5.2-8.4 14-12.8 19.4-3.4 4.3-7.2 7.4-11.1 9.1l-4-.1c-3.8-1.5-7.6-4.6-11.1-9.1-4.6-5.6-9.6-14.2-12.5-19.2l-1.7-2.8c-20.9-38-33.1-64.7-48.4-106.1-9.7-25.7-17.8-51.7-25-79.9-1.6-5.9-3.3-13.1-5.3-21.2l-1.7-7-1.6-3.9c-36.4-62.9-62.1-125-76.4-184.7C19 164.7 33.2 103.1 76.8 66.1c25.2-21.6 59.7-34.6 97.4-36.5 40.9-2.2 82.5 8.1 121.3 29.6 14.1 7.9 28.5 16.1 44.2 25.3 2.1 1.3 5.9 3.6 11.6 3.6 5.5 0 9.1-2.2 11.3-3.5 15.8-9.4 30.2-17.5 44.2-25.4 39-21.6 81-31.9 121.4-29.6 37.6 1.9 72.2 14.8 97.5 36.5 43.7 37.1 57.8 98.7 40 173.5M645.1 43.9C615 18 574 2.6 529.9.4c-46.2-2.5-93.5 9-137.4 33.3-13 7.3-26.1 14.7-41.2 23.6-14.6-8.6-28-16.2-41.2-23.6C266.3 9.4 219.2-1.9 172.9.4 128.7 2.6 87.8 18.1 57.8 43.9 5.4 88.4-12.2 160.4 8.4 246.5c14.9 61.8 41.3 125.9 78.5 190.7l1.2 4.9c2 8.3 3.8 15.9 5.4 21.7 7.3 29 15.8 56.1 25.8 82.7 15.8 42.8 28.5 70.6 50.6 110.6l1.8 2.9c3.5 5.9 9.3 15.7 14.8 22.5 6.7 8.5 14.6 14.6 24.1 18.4 2.3.8 5.8 1.9 10.3 1.9h4.1c4.2 0 7.7-1.1 10.8-2.2 8.7-3.5 16.6-9.6 23.2-17.9 7-8.6 14.9-22.3 17.2-26.4l1.8-3.3v-.6c2.7-5.7 6.3-15.2 12.2-30.6 11.1-29.4 45-118.7 60.4-124.8 17.3 6.1 51.1 95.4 62.3 124.8 5.8 15.2 9.4 24.6 12 30.3l1.9 4.1c2.2 4.1 10.2 17.7 17 26.2 6.7 8.5 14.6 14.6 24.1 18.4 2.3.8 5.8 1.9 10.3 1.9h4.1c4.2 0 7.7-1.1 10.8-2.2 8.7-3.5 16.6-9.6 23.2-17.9 5.7-7 11.5-16.9 15-22.7l2.2-3.6c21.7-39.4 34.4-67.1 50.2-109.9 10-26.6 18.5-53.6 25.9-82.6 1.6-5.9 3.3-13.3 5.3-21.3l1.3-5.5c37.3-64.8 63.7-128.9 78.5-190.7 20.3-86 2.7-157.9-49.6-202.4" clip-rule="evenodd" style="fill: #019df4;"/></svg>
