<?xml version="1.0" encoding="UTF-8"?>
<svg xmlns="http://www.w3.org/2000/svg" viewBox="0 0 702.8 702.8"><path fill="#019df4" fill-rule="evenodd" d="M459.2 636.8c3 5 7.5 12.2 10.9 16.4 2.7 3.5 5.4 5.8 7.9 6.8l1.2-.4c-.1-.6 2.7-2.9 5.2-6.1 4.5-5.6 9.2-13.7 11.9-18.3l2-3.3c19.7-35.8 31.6-61.8 46.4-101.9 9.4-25 17.3-50.2 24.2-77.4 1.7-6.1 3.4-13.3 5.3-21.2l3.9-12.2c35.3-61 60.2-121.2 74.1-178.9C669 169.8 656 112 615.5 77.6c-23.5-20.2-55.8-32.3-91.1-34.1-38.4-2.1-78.1 7.6-115 28.1-13.7 7.7-27.7 15.6-43.1 24.8-2.5 1.5-7.5 4.5-14.7 4.5-7.5 0-12.6-3.1-15-4.5-15.4-9.1-29.4-17.1-43.1-24.8-36.9-20.5-76.6-30.4-114.9-28.1-35.4 1.8-67.7 13.9-91.1 34-40.6 34.5-53.6 92.2-36.8 162.8 13.9 57.6 38.8 117.8 74.1 178.9l2.3 5.7 1.7 7.1c1.9 7.7 3.6 14.7 5.1 20.4 7 27.5 14.9 52.8 24.2 77.5 14.9 40.2 26.7 66.2 47 102.9l1.5 2.5c2.7 4.6 7.5 12.7 11.7 18 2.7 3.5 5.4 5.8 7.9 6.8l1.2-.4c-.1-.6 2.7-2.9 5.2-6.1 3.5-4.4 8-11.5 11-16.5v-.3l2.7-4.9c1.7-3 6.7-16.4 11.2-28.2 37.4-98.5 61-145.4 93.9-145.4 33 0 56.6 46.9 94 145.4 4.5 11.8 9.5 25.2 11.2 28.2l2.6 4.9zm20.3 66h-4.1c-5.6 0-9.8-1.4-12.4-2.3-10.9-4.3-19.6-11-27-20.4-7.1-8.7-15.1-22.6-17.3-26.7l-2.7-5.9c-2.6-5.8-6-14.7-11.3-28.7-9.4-24.8-36.5-96.1-53.4-114.7-16.9 18.6-43.9 90-53.3 114.7-5.2 13.8-8.6 22.6-11.2 28.4l-.3 1.4-2.6 4.8c-2.2 4.1-10.2 18-17.5 26.9-7.1 9.1-15.8 15.8-25.6 19.7-3.7 1.3-7.9 2.7-13.2 2.7h-4c-5.6 0-9.8-1.4-12.4-2.3-10.9-4.3-19.6-11-26.9-20.4-5.7-7-11.6-17-15.1-23l-1.6-2.7c-22-39.8-34.5-67.2-50.2-109.6-9.8-26.1-18.2-52.8-25.5-81.7-1.5-5.7-3.3-13.1-5.3-21.1l-1-4.1C49 374.1 23.1 310.9 8.5 250-12.3 162.9 5.7 89.8 59.2 44.4 89.8 18.1 131.4 2.4 176.3.1c46.2-2.5 94.2 9 138.3 33.5 11.9 6.7 23.9 13.5 36.8 21.1 13.3-7.8 25.2-14.5 36.8-21C432.3 9.2 480.4-2.4 526.7.1c44.8 2.3 86.4 18 117.1 44.4 53.4 45.4 71.4 118.4 50.6 205.5-14.6 60.9-40.6 124-77.1 187.8l-.9 3.5c-2 8.3-3.8 15.9-5.5 22-7.2 28.4-15.5 55.1-25.5 81.5-15.6 42.2-28.1 69.6-49.6 108.5l-2.1 3.6c-3.5 6-9.4 15.9-15.3 23.2-7.1 9.1-15.8 15.8-25.6 19.7-3.7 1.6-8 3-13.3 3z" clip-rule="evenodd" style="fill: #019df4;"/></svg>
