<?xml version="1.0" encoding="UTF-8"?>
<svg xmlns="http://www.w3.org/2000/svg" viewBox="0 0 702.8 702.8"><path fill="#019df4" fill-rule="evenodd" d="M479.5 702.8h-4.1c-5.6 0-9.8-1.4-12.4-2.3-10.9-4.3-19.6-11-27-20.4-7.1-8.7-15.1-22.6-17.3-26.7l-2.7-5.9c-2.6-5.8-6-14.7-11.3-28.7-9.4-24.8-36.5-96.1-53.4-114.7-16.9 18.6-43.9 90-53.3 114.7-5.2 13.8-8.6 22.6-11.2 28.4l-.3 1.4-2.6 4.8c-2.2 4.1-10.2 18-17.5 26.9-7.1 9.1-15.8 15.8-25.6 19.7-3.7 1.3-7.9 2.7-13.2 2.7h-4c-5.6 0-9.8-1.4-12.4-2.3-10.9-4.3-19.6-11-26.9-20.4-5.7-7-11.6-17-15.1-23l-1.6-2.7c-22-39.8-34.5-67.2-50.2-109.6-9.8-26.1-18.2-52.8-25.5-81.7-1.5-5.7-3.3-13.1-5.3-21.1l-1-4.1C49 374.1 23.1 310.9 8.5 250-12.3 162.9 5.7 89.8 59.2 44.4 89.8 18.1 131.4 2.4 176.3.1c46.2-2.5 94.2 9 138.3 33.5 11.9 6.7 23.9 13.5 36.8 21.1 13.3-7.7 25.2-14.5 36.8-21C432.3 9.2 480.4-2.4 526.7.1c44.8 2.3 86.4 18 117.1 44.4 53.4 45.4 71.4 118.4 50.6 205.5-14.6 60.9-40.6 124-77.1 187.8l-.9 3.5c-2 8.3-3.8 15.9-5.5 22-7.2 28.4-15.5 55.1-25.5 81.5-15.6 42.2-28.1 69.6-49.6 108.5l-2.1 3.6c-3.5 6-9.4 15.9-15.3 23.2-7.1 9.1-15.8 15.8-25.6 19.7-3.7 1.6-8 3-13.3 3z" clip-rule="evenodd" style="fill: #019df4;"/></svg>
