<?xml version="1.0" encoding="UTF-8"?>
<svg xmlns="http://www.w3.org/2000/svg" viewBox="0 0 703 703"><path fill="#019df4" d="M351.5 703c-111.5 0-198.4-29.2-258.1-86.7C31.4 556.5 0 467.4 0 351.5s31.4-205 93.4-264.8C153.1 29.2 240 0 351.5 0s198.4 29.2 258.1 86.7c62 59.7 93.4 148.8 93.4 264.8s-31.4 205-93.4 264.8C549.9 673.8 463 703 351.5 703zm100-343.6c-18.1-17-45.1-28-80-32.7v-114c16.4 2.6 32.4 8.3 49 17.4l.3.2c3.8 1.9 9 4.1 14.6 4.1 13.1 0 23.7-10.6 23.7-23.7 0-9-5.1-17-14.4-22.8-20.3-12.6-45.8-20.6-73.3-23.4v-26.9c0-11-9-20-20-20s-20 9-20 20v26.9c-61 6.8-99.4 47-99.4 106.1 0 38.7 17.5 86.8 99.4 100.3v119.8c-22.4-3.4-44.8-12.5-67.1-27.4-4.8-3.3-10.4-5.1-16.2-5.2-13.6 0-24.8 10.9-24.8 24.3 0 9.1 3.9 16.3 11.9 21.9 27.8 19.5 62.1 31.7 96.2 34.7v26.6c0 11 9 20 20 20s20-9 20-20v-27.2c30.1-3.4 55.3-13.4 73.6-29.3 22.5-19.5 34.4-47 34.4-79.6.1-29.1-9.3-52.7-27.9-70.1zM296 304.1c-10.2-8.8-14.9-20.2-14.9-36 0-16.8 5.9-30.9 17-40.8 8.5-7.6 19.8-12.6 33.4-14.9v107.9c-15.5-3.8-27.4-9.2-35.5-16.2zm75.5 72.5c51.6 10.1 59 33.2 59 54.8 0 31.9-22.1 53.5-59 59.2v-114z" style="fill: #019df4;"/></svg>
