<?xml version="1.0" encoding="UTF-8"?>
<svg xmlns="http://www.w3.org/2000/svg" viewBox="0 0 703 703"><g fill="#019df4"><path d="M241.1 496.1c-5.1-3.6-7.6-7.6-7.6-13.7.2-8 6.8-14.3 14.8-14.3 3.8.2 7.5 1.4 10.7 3.6 22.9 15.3 55 30.5 92.1 30.5 55.5 0 89.5-28.5 89.5-70.7 0-34.6-19.3-59-82.9-67.2l-16.3-2c-67.7-8.6-99.2-41.2-99.2-91.6 0-60 42.7-97.2 108.4-97.2 36.6 0 67.7 9.7 89 22.9 6.6 4.1 9.7 9.2 9.7 14.3 0 7.5-6 13.7-13.6 13.7h-.1c-3.6 0-7.1-1.5-10.2-3.1-23.4-12.8-47.8-20.4-75.8-20.4-50.4 0-78.4 28-78.4 67.2 0 35.6 21.9 58.5 81.4 66.1l15.8 2c68.7 8.7 101.3 41.2 101.3 93.1 0 58.5-41.7 100.2-122.1 100.2-42.9.1-81.1-15.6-106.5-33.4z" style="fill: #019df4;"/><path d="M347.4 539.6c-39.1 0-79.9-12.9-112.1-35.4-8-5.6-11.9-12.8-11.9-21.9 0-13.4 11.1-24.3 24.8-24.3 5.8.2 11.4 2 16.2 5.2 28.7 19.1 57.8 28.9 86.5 28.9 49.1 0 79.5-23.3 79.5-60.7 0-23.6-8.8-48.9-74.2-57.2l-16.3-2c-89.2-11.4-108-61.5-108-101.5 0-65.1 46.5-107.2 118.4-107.2 35.4 0 68.9 8.7 94.3 24.4 9.3 5.7 14.4 13.8 14.4 22.8 0 13.1-10.6 23.7-23.7 23.7-5.7 0-10.8-2.2-14.6-4.1l-.3-.2c-24-13.1-46.6-19.1-71-19.1-21.7 0-39.5 5.6-51.4 16.3-11.1 9.9-17 24-17 40.8 0 15.8 4.7 27.2 14.9 36 11.6 10 31 16.8 57.8 20.2l15.8 2c35.9 4.5 63.5 15.6 82 33s28 41 28 70.1c0 32.6-11.9 60.1-34.4 79.6-23 20-56.8 30.6-97.7 30.6zm-100.6-51.7c13.6 9.5 50.8 31.8 100.6 31.8 70.2 0 112.1-33.7 112.1-90.2 0-23.6-7.1-41.8-21.7-55.5-15.3-14.4-39.1-23.7-70.8-27.7l-15.8-2c-31.1-4-53.5-12.1-68.3-24.9-14.5-12.5-21.9-29.7-21.9-51.1 0-46.9 34.7-77.2 88.4-77.2 27.5 0 53.8 7 80.4 21.5 1.1.6 3.9 1.9 5.6 1.9 2 0 3.7-1.6 3.7-3.6v-.1c0-1.7-1.8-3.8-4.9-5.7-22.3-13.8-52.1-21.4-83.8-21.4-60.7 0-98.4 33.4-98.4 87.2 0 22.6 7.1 40.9 21.1 54.2 15 14.3 38.4 23.5 69.4 27.5l16.3 2c62.6 8 91.7 32.5 91.7 77.1 0 24-9.6 44.4-27.7 59-17.7 14.2-42.5 21.7-71.8 21.7-32.7 0-65.6-10.8-97.6-32.2-1.5-1-3.3-1.7-5.1-1.9-2.4 0-4.5 1.8-4.8 4.3 0 1.9.3 3.1 3.3 5.3z" style="fill: #019df4;"/><path d="M351.5 585.5c-11 0-20-9-20-20l-.1-427.9c0-11 9-20 20-20s20 9 20 20l.1 427.9c0 11-8.9 20-20 20z" style="fill: #019df4;"/><path d="M351.5 703c-111.5 0-198.4-29.2-258.1-86.7C31.4 556.5 0 467.4 0 351.5s31.4-205 93.4-264.8C153.1 29.2 240 0 351.5 0s198.4 29.2 258.1 86.7c62 59.7 93.4 148.8 93.4 264.8s-31.4 205-93.4 264.8C549.9 673.8 463 703 351.5 703zm0-663c-100.8 0-178.3 25.4-230.3 75.5C67.3 167.4 40 246.8 40 351.5s27.3 184 81.2 236c52 50.1 129.5 75.5 230.3 75.5s178.3-25.4 230.3-75.5c53.9-51.9 81.2-131.3 81.2-236s-27.3-184-81.2-236C529.8 65.4 452.3 40 351.5 40z" style="fill: #019df4;"/></g></svg>
