<?xml version="1.0" encoding="UTF-8"?>
<svg xmlns="http://www.w3.org/2000/svg" viewBox="0 0 702.8 702.8"><g fill="#019df4"><path d="M241 495.9c-5.1-3.6-7.6-7.6-7.6-13.7.2-7.9 6.8-14.2 14.7-14.2 3.8.2 7.5 1.4 10.7 3.6 22.9 15.2 55 30.4 92.1 30.4 55.5 0 89.5-28.5 89.5-70.7 0-34.6-19.3-59-82.9-67.2l-16.3-2c-67.7-8.6-99.2-41.2-99.2-91.6 0-60 42.7-97.2 108.4-97.2 36.6 0 67.7 9.7 89 22.9 6.6 4.1 9.7 9.2 9.7 14.3 0 7.5-6 13.7-13.6 13.7h-.1c-3.6 0-7.1-1.5-10.2-3.1-23.4-12.7-47.8-20.4-75.8-20.4-50.3 0-78.3 28-78.3 67.2 0 35.6 21.9 58.5 81.4 66.1l15.8 2c68.7 8.6 101.3 41.2 101.3 93.1 0 58.5-41.7 100.2-122.1 100.2-42.9.2-81.1-15.6-106.5-33.4z" style="fill: #019df4;"/><path d="M351.3 702.6C121.6 702.6.1 581.2.1 351.5S121.6.1 351.3.1c112.1 0 199 29 258.4 86.3 61.6 59.4 92.9 148.6 92.9 265 0 229.8-121.5 351.2-351.3 351.2zm0-682.5c-106.7 0-189 27.2-244.5 80.7-57.5 55.5-86.7 139.8-86.7 250.6S49.3 546.6 106.8 602c55.5 53.5 137.8 80.6 244.5 80.6s189-27.1 244.6-80.6c57.6-55.5 86.8-139.8 86.8-250.5s-29.2-195.1-86.8-250.6C540.3 47.3 458 20.1 351.3 20.1z" style="fill: #019df4;"/><path d="M351.4 575.4c-5.5 0-10-4.5-10-10l-.1-427.9c0-5.5 4.5-10 10-10s10 4.5 10 10l.1 427.9c0 5.5-4.5 10-10 10z" style="fill: #019df4;"/></g></svg>
