<?xml version="1.0" encoding="UTF-8"?>
<svg xmlns="http://www.w3.org/2000/svg" viewBox="0 0 702.8 702.8"><path fill="#019df4" fill-rule="evenodd" d="M658.1 673.5c8.5 0 15.4-6.9 15.4-15.5V486.5l-.3-2.5c-.8-7.8-7.2-13.9-15.1-13.9H44.7c-8.5 0-15.5 7-15.5 15.5V658c0 8.5 6.9 15.5 15.5 15.5h613.4zM87.8 44.8L34.9 441.9c3.2-.7 6.4-1.2 9.8-1.2h613.4c3.4 0 6.7.5 9.8 1.2L618.4 48.5c-2-10.6-9.8-18.6-18.8-18.6l-496.3-.5c-8.6-.1-15.5 6.9-15.5 15.4zm614.9 439.3c0 .5.1.9.1 1.4V658c0 24.7-20 44.8-44.7 44.8H44.7C20 702.8 0 682.7 0 658V485.5c0-.9.2-1.7.2-2.5 0-.6-.2-1.1-.1-1.8L58.6 42.8C58.5 20 78.5-.1 103.2-.1l496.3.5c23.4 0 43 17.9 47.7 43.4l54.4 432c.4 1.6.4 3.3.6 4.9l.3 2.8c.2.3.1.5.2.6zM351.4 208.8c-33.1 0-33.1 13.9-33.1 19.8s0 19.9 33.1 19.9 33.1-13.9 33.1-19.9 0-19.8-33.1-19.8zm0 69c-56.3 0-62.3-34.4-62.3-49.2 0-14.8 6.1-49.2 62.3-49.2 56.3 0 62.4 34.4 62.4 49.2 0 14.8-6.1 49.2-62.4 49.2zm221 324.8c18.6 0 26.2-7.6 26.2-26.2s-7.6-26.2-26.2-26.2c-18.8 0-26.1 7.4-26.1 26.2 0 18.9 7.3 26.2 26.1 26.2zm0-81.7c34.7 0 55.4 20.8 55.4 55.5 0 34.8-20.7 55.5-55.4 55.5S517 611.2 517 576.4s20.7-55.5 55.4-55.5zM139.6 93c-17.2 0-27.3-6.3-27.3-19.7 0-13.5 10.1-19.8 27.3-19.8 17.3 0 27.3 6.3 27.3 19.8 0 13.3-10 19.7-27.3 19.7zm409.7 0c-17.2 0-27.3-6.3-27.3-19.7 0-13.5 10.1-19.8 27.3-19.8 17.3 0 27.3 6.3 27.3 19.8.1 13.3-10 19.7-27.3 19.7zm58.6 322.7c-17.2 0-27.3-6.3-27.3-19.7 0-13.5 10.1-19.8 27.3-19.8 17.3 0 27.3 6.3 27.3 19.8 0 13.4-10.1 19.7-27.3 19.7zM97.7 369.2c-5 4.6-7.7 9.1-7.5 12.3.3 3.6 4.3 8.1 10.9 12.4 11 7.2 27.7 12.5 44.2-2.6 37-33.9 79.7-86.7 76.9-99.9-.5-.1-1.1-.2-1.8-.2-18.8.1-93.5 51.3-122.7 78zm88-96.1c.1.3.1.6.1 1 21.4-9.7 40.9-13.9 53.1-5.9 7.3 4.7 11.7 12.2 12.4 21.1.9 11.1-4.8 25-13.5 39.4l1.6.8c28 13.4 65.7 20.2 112 20.2 114.8 0 172.9-40.7 172.9-121s-58.2-121-172.9-121-172.9 40.7-172.9 121c0 16.4 2.4 31.3 7.2 44.4zM85.2 418.6c-18.6-12.1-23.4-25.6-24.1-34.7-.7-8.9 1.6-22.4 16.9-36.4.7-.6 41.1-35.8 82.7-60.3-1-1.2-1.9-2.5-2.5-4-6-16.3-9-34.7-9-54.6 0-68.6 35.1-150.4 202.2-150.4S553.6 160 553.6 228.6c0 68.6-35.1 150.3-202.2 150.3-50.7 0-92.7-7.8-124.7-23.1l-5.2-2.6c-.2-.1-.3-.3-.6-.5-24 30.8-53.7 58.3-55.8 60.2-12.6 11.6-27.4 17.4-42.5 17.4-12.5.1-25.2-3.8-37.4-11.7z" clip-rule="evenodd" style="fill: #019df4;"/></svg>
