<?xml version="1.0" encoding="UTF-8"?>
<svg xmlns="http://www.w3.org/2000/svg" viewBox="0 0 702.8 702.8"><path fill="#019df4" fill-rule="evenodd" d="M651.2 658.4c4 0 7.2-3.3 7.2-7.3V483.9l-.3-2c-.3-3.7-3.2-6.7-7-6.7H51.4c-4 0-7.2 3.3-7.2 7.3v168.6c0 4 3.3 7.3 7.2 7.3h599.8zM101.5 51.7L51 430.9c.2 0 .3-.1.5-.1h599.7c.2 0 .4.1.6.1L604.6 56.3c-1.1-6-5.7-11.3-10.6-11.3l-485.2-.5c-4-.1-7.3 3.2-7.3 7.2zm601.1 428.7c.1.8.2 1.4.2 2.2v168.6c0 28.5-23.1 51.7-51.6 51.7H51.5c-28.4 0-51.6-23.2-51.6-51.7V482.6c0-1.1.3-2.2.4-3.3 0-.7-.2-1.3-.1-1.9L57.4 48.8C57.2 23.3 80.4 0 108.8 0L594 .5c26.7 0 49.1 20.1 54.4 48.9l53.2 422.2c.3 1.2.3 2.5.5 3.8l.5 4.3c.1.3 0 .4 0 .7zm-351.2-268c-31.9 0-31.9 13.3-31.9 19 0 5.7 0 18.9 31.9 18.9s31.9-13.2 31.9-18.9c0-5.7 0-19-31.9-19zm0 67.5c-55.4 0-61.4-33.9-61.4-48.5 0-14.6 6-48.6 61.4-48.6 55.5 0 61.5 34 61.5 48.6-.1 14.6-6.1 48.5-61.5 48.5zm216.1 316.6c18 0 25.1-7 25.1-25.2 0-18.1-7.1-25.1-25.1-25.1s-25.1 7.1-25.1 25.1c0 18.2 7 25.2 25.1 25.2zm0-79.9c34.2 0 54.6 20.5 54.6 54.7 0 34.3-20.4 54.8-54.6 54.8s-54.6-20.5-54.6-54.8c-.1-34.2 20.4-54.7 54.6-54.7zM144.3 98.7c-16.9 0-26.7-6.2-26.7-19.3 0-13.2 9.8-19.3 26.7-19.3 16.8 0 26.7 6.2 26.7 19.3 0 13.2-9.8 19.3-26.7 19.3zm400.6 0c-16.9 0-26.7-6.2-26.7-19.3 0-13.2 9.8-19.3 26.7-19.3 16.8 0 26.7 6.2 26.7 19.3 0 13.2-9.9 19.3-26.7 19.3zm57.2 315.6c-16.9 0-26.7-6.2-26.7-19.3 0-13.2 9.8-19.3 26.7-19.3s26.7 6.1 26.7 19.3c0 13.2-9.8 19.3-26.7 19.3zm-492.8-55c-4.8 4.4-7.4 8.6-7.2 11.6.3 3.3 4.2 7.7 10.4 11.8 10.6 6.9 26.7 12.1 42.7-2.5 35.8-32.8 77.4-84.1 75-97.2-.4-.1-.9-.1-1.4-.1-17.6 0-91 50.3-119.5 76.4zm80.9-127.9c0 12.4 1.9 23.7 4.8 34 21-9.5 40.3-13.6 52.4-5.7 7.2 4.7 11.6 12.1 12.3 21 .9 11.7-5.5 26.5-15.2 41.7l.7.3c26.3 12.6 62.1 19 106.1 19 161.2 0 161.2-83.1 161.2-110.3 0-27.3 0-110.5-161.2-110.5-161.1.1-161.1 83.2-161.1 110.5zM96.5 407.6c-18.3-11.9-23-25.2-23.8-34.2-.7-8.8 1.6-22.1 16.7-36 .6-.5 30.9-27 65.9-49.8 0-.1-.1-.1-.1-.2-6.1-16.8-9.3-35.7-9.3-56.1 0-57.9 26.7-154.9 205.4-154.9 178.9 0 205.6 97 205.6 154.9 0 57.8-26.7 154.8-205.6 154.8-50.7 0-92.9-7.8-125.3-23.4l-5.3-2.6c-1.2-.6-1.9-1.6-2.9-2.4-20.4 23.7-41 42.7-42.7 44.2-12.4 11.4-26.9 17.2-41.9 17.2-12.2.1-24.7-3.7-36.7-11.5z" clip-rule="evenodd" style="fill: #019df4;"/></svg>
