<?xml version="1.0" encoding="UTF-8"?>
<svg xmlns="http://www.w3.org/2000/svg" viewBox="0 0 702.8 702.8"><path fill="#019df4" fill-rule="evenodd" d="M351.4 248.5c33.1 0 33.1-13.9 33.1-19.8s0-19.9-33.1-19.9-33.1 13.9-33.1 19.9 0 19.8 33.1 19.8zm0-69.1c56.3 0 62.4 34.4 62.4 49.2s-6.1 49.2-62.4 49.2-62.3-34.4-62.3-49.2 6-49.2 62.3-49.2zM139.6 93c-17.3 0-27.3-6.3-27.3-19.7 0-13.5 10.1-19.8 27.3-19.8 17.2 0 27.3 6.3 27.3 19.8 0 13.4-10 19.7-27.3 19.7zm409.8-39.5c17.2 0 27.3 6.3 27.3 19.8 0 13.4-10.1 19.7-27.3 19.7-17.3 0-27.3-6.3-27.3-19.7-.1-13.5 10-19.8 27.3-19.8zM580.6 396c0-13.5 10.1-19.8 27.3-19.8 17.2 0 27.3 6.3 27.3 19.8 0 13.4-10.1 19.7-27.3 19.7-17.3.1-27.3-6.3-27.3-19.7zm-229.2-53.7C517 342.3 517 256.8 517 228.7S517 115 351.4 115s-165.6 85.6-165.6 113.7c0 15.5 2.3 29.7 6.8 41.9.1.1 0 .3.1.4 18.6-7.4 35.4-10 46.3-2.8 7.3 4.7 11.7 12.2 12.4 21.1.8 9.5-3.2 21-9.8 33l.8.4c27.1 13 63.8 19.6 109 19.6zm0-271.4c182.3 0 209.5 98.8 209.5 157.7 0 58.9-27.2 157.6-209.5 157.6-51.8 0-94.9-8-127.9-23.9l-5.4-2.7c-.6-.3-1-.9-1.6-1.3-23.1 28.4-49.5 52.7-51.5 54.5-12.6 11.6-27.3 17.4-42.5 17.4-12.4 0-25.2-3.9-37.4-11.8-18.5-12.1-23.4-25.5-24.1-34.6-.7-8.9 1.6-22.4 16.9-36.4.7-.6 37.1-32.6 76.5-56.8-1.1-1.6-2.4-3-3.1-5-6.3-17.1-9.5-36.4-9.5-57.1.1-58.8 27.3-157.6 209.6-157.6zm306.7 369.8c3.4 0 6.7.5 9.8 1.2L618.4 48.5c-2-10.6-9.8-18.6-18.8-18.6l-496.3-.6c-8.5 0-15.4 7-15.4 15.5L35 441.8c3.2-.7 6.5-1.2 9.8-1.2h613.3zm-75.9 178.1c24.2 0 39.2-15 39.2-39.3 0-24.2-15-39.3-39.2-39.3-24.2 0-39.2 15-39.2 39.3 0 24.2 15 39.3 39.2 39.3zm120.5-134.7c0 .5.1.9.1 1.4v172.4c0 24.7-20 44.9-44.7 44.9H44.7C20 702.8 0 682.7 0 657.9V485.5c0-.9.2-1.6.2-2.5 0-.6-.1-1.1-.1-1.7L58.6 42.9C58.5 20.2 78.5 0 103.2 0l496.3.6c23.4 0 43 17.8 47.7 43.4l54.4 432c.4 1.6.5 3.3.6 4.9l.3 2.8c.2.1.2.3.2.4z" clip-rule="evenodd" style="fill: #019df4;"/></svg>
