<?xml version="1.0" encoding="UTF-8"?>
<svg xmlns="http://www.w3.org/2000/svg" viewBox="0 0 702.8 702.8"><path fill="#019df4" fill-rule="evenodd" d="M505.4 653.8c-5.6-7-13.9-11.7-23.6-11.7-10.4 0-19.2 5.5-24.7 13.4H242.3c-5.6-7.9-14.3-13.4-24.7-13.4-9.5 0-17.7 4.6-23.2 11.3-67.5-10.9-138.1-65.3-138.1-131.1v-94.2h590.4l.1 94.2c-.2 66.8-73 121.8-141.4 131.5M49.6 358.9h603.5c11.1 0 20.1 9 20.1 19.9s-9 20-20.1 20H49.6c-11.1 0-20.1-9-20.1-20s9.1-19.9 20.1-19.9m362.5-39.5c6.4-5.5 18.8-5.3 22.6-4.7 3.8.6 8.1-.4 11.3-2.9 3.2-2.5 5.3-6.1 5.7-10.1.8-8.6 3.6-14.5 8.4-17.9 8.2-5.9 21.9-4.3 26.4-3.2 5.1 1.2 10.4-.2 14.1-3.9 9.4-9.4 18.7-13.6 27.5-12.8 14.7 1.2 28 15.4 31.9 20.7 3 4.4 8.2 6.6 13.6 6.1 18.3-1.8 32.3 1.3 41.5 9.4 10.8 9.7 12.9 24.3 13.4 29.5h-221c.8-6.6 3.5-9.3 4.6-10.2M299.6 150.5l-72.8 1.1v-1.1c0-19.9 16.3-36.1 36.4-36.1 20.1 0 36.4 16.2 36.4 36.1m403.2 228.3c0-25.5-19.7-46.3-44.8-48.7-.3-7.2-2.8-33.3-22.9-51.5-14.1-12.7-33.1-18.8-56.6-17.7-8.3-9.1-25.5-24.4-47.9-26.3-16-1.6-31.2 4-45.4 16.1-10.2-1.1-27.7-1.1-42.2 9.1-6.4 4.5-14 12.3-18.2 25.5-9.5.6-21.9 3.3-32 11.8-6.4 5.5-13.7 15.8-14.9 32.5H100.8V102.4c0-40.3 33.1-73.2 73.8-73.2 35.1 0 64.9 25 72 58.2-28.3 7.3-49.3 32.7-49.3 63v7.1c0 12.8 10.6 23.3 23.5 23.3h84.8c13 0 23.5-10.5 23.5-23.3v-7.1c0-31.6-22.7-58.1-52.9-64.1-7.9-49-50.8-86.5-101.6-86.5-57 0-103.3 45.9-103.3 102.4v227.2H49.6c-27.4 0-49.6 22-49.6 49.2 0 19.1 11 35.4 27 43.6-.1.6-.4 1.2-.4 1.8v98c0 81.5 81.8 146.6 162.3 159.9 4.1 11.9 15.2 20.6 28.6 20.6 12.4 0 23-7.4 27.8-18H454c4.8 10.5 15.4 18 27.8 18 13.2 0 24.3-8.5 28.6-20.1 81.6-12 165.8-77.7 165.8-160.5l-.1-100c15.7-7.8 26.7-24.1 26.7-43.1" clip-rule="evenodd" style="fill: #019df4;"/></svg>
