<?xml version="1.0" encoding="UTF-8"?>
<svg xmlns="http://www.w3.org/2000/svg" viewBox="0 0 702.8 702.8"><path fill="#019df4" fill-rule="evenodd" d="M508.8 638.7c-6.9-6.9-16.4-11.2-27-11.2-11.5 0-21.5 5.4-28.5 13.5H247.6c-7-8.1-17-13.5-28.5-13.5-10.4 0-19.8 4.2-26.7 10.9-63.3-11.8-129-63.8-129-123.4v-75.8H639l.1 75.8c.2 60.1-66.6 112.4-130.3 123.7zM58.9 366.4h585c8.1 0 14.6 6.5 14.6 14.5s-6.5 14.5-14.6 14.5h-585c-8.1 0-14.6-6.5-14.6-14.5 0-8.1 6.6-14.5 14.6-14.5zm334.2-51.2c4.9-4.2 15.9-4.4 20.1-3.8 6.1 1 12.2-.6 16.9-4.4 4.8-3.7 7.9-9.2 8.4-15.2 1.1-11.4 5.4-14.4 6.8-15.4 7.2-5.1 20.3-3.5 24.2-2.7 7.5 1.8 15.6-.3 21.1-5.8 13.3-13.3 22.6-12.8 25.5-12.4 13.9 1.1 26.9 15.1 30.7 20.3 4.6 6.5 12.4 10.1 20.4 9.2 18.5-1.9 32.2 1.1 41 8.8 10.4 9.2 12.4 23.6 12.8 28.6H389.8c.8-4.9 2.5-6.6 3.3-7.2zM224.6 150.4c2.7-14.3 15.3-25.1 30.4-25.1 15.2 0 27.8 10.9 30.5 25.1h-60.9zm478.2 230.4c0-24.8-15.7-45.9-37.7-54.3.1-.6.4-1.2.4-1.8.1-3.9-.3-38.8-27.2-63-16.2-14.5-37.9-21.8-63.7-21-10.3-10.9-29.4-26.7-54.7-28.8-12.8-1-32.1 1.3-52.2 17.5-12.3-1.1-31.6-.1-47.9 11.2-7.2 5-15.7 13.5-20.9 27.3-10.8 1.2-23.8 4.8-34.6 14-8.1 6.9-17.3 19.7-18.5 40.6H108.2V105.9c0-34.2 28.1-62 62.5-62 27.2 0 50.6 17.6 59 42.1-29.1 10.4-50 37.6-50 70v8.1c0 16.7 13.7 30.2 30.6 30.2h89.5c16.8 0 30.5-13.5 30.5-30.2V156c0-34.2-23.5-62.9-55.3-71.6C264.8 36.2 221.7 0 170.8 0 111.9 0 64 47.5 64 105.9v216.6h-5C26.5 322.5.1 348.6.1 380.9c0 17 7.5 32.3 19.3 42.9v91.3c0 84.4 83.4 152.1 166.3 166.8 6.2 12.3 18.8 21 33.6 21 13.5 0 24.8-7.4 31.6-17.9h199.5c6.7 10.5 18 17.9 31.5 17.9 14.7 0 27.2-8.6 33.5-20.7 83.5-14 168.2-81.9 168.2-167.1l-.1-91.1c11.7-10.8 19.3-26.1 19.3-43.2z" clip-rule="evenodd" style="fill: #019df4;"/></svg>
