<?xml version="1.0" encoding="UTF-8"?>
<svg xmlns="http://www.w3.org/2000/svg" viewBox="0 0 702.8 702.8"><path fill="#019df4" fill-rule="evenodd" d="M58.9 358.8h585c8 0 20.3 9.4 20.3 21s-12.3 21-20.3 21h-585c-8 0-19.2-9.4-19.2-21s11.2-21 19.2-21zM393 315.2c4.9-4.2 15.9-4.5 20.1-3.8 6.1.9 12.2-.6 16.9-4.4 4.8-3.7 7.9-9.2 8.5-15.2 1.1-11.4 5.3-14.4 6.7-15.4 7.2-5.1 20.3-3.5 24.2-2.7 7.5 1.8 15.6-.3 21.1-5.9 13.3-13.3 22.6-12.8 25.5-12.4 13.9 1.1 27 15.1 30.7 20.3 4.6 6.6 12.4 10.1 20.4 9.2 18.5-1.9 32.2 1.1 41 8.8 10.4 9.2 12.4 23.6 12.8 28.6H389.7c.8-4.7 2.6-6.5 3.3-7.1zM224.5 150.4c2.7-14.2 15.3-25.1 30.5-25.1 15.1 0 27.8 10.9 30.4 25.1h-60.9zm478.3 230.4c0-24.8-15.7-45.9-37.8-54.4.1-.6.4-1.2.4-1.8.1-3.9-.3-38.7-27.2-63-16.1-14.5-37.6-21.7-63.2-21-.3 0-.5-.1-.7-.3-10.4-10.9-29.4-26.4-54.5-28.5-12.8-1-32.1 1.3-52.2 17.5-12.3-1.1-31.6-.1-47.9 11.2-7.2 5.1-15.7 13.5-20.9 27.3-10.8 1.2-23.8 4.8-34.6 14-8 6.8-17 19.3-18.5 39.6 0 .5-.5 1-1 1H109.3c-.6 0-1.1-.5-1.1-1.1V108.8c0-28.2 17.6-55 45-62.6 33.8-9.4 65.5 9.6 76.1 38.7.2.6-.1 1.2-.7 1.4-28.5 10.6-49 37.7-49 69.6v8.1c0 16.7 13.7 30.2 30.5 30.2h89.5c16.8 0 30.5-13.6 30.5-30.2v-8.1c0-34-23.3-62.5-54.8-71.4-.3-.1-.6-.4-.7-.7C263.3 31.4 213-6.6 156.2.9 101.9 8.1 63.7 58 63.7 112.3v210.2h-1.6c-28.6 0-55.5 18.7-61.1 46.6-4.3 21.6 3.5 41.3 17.7 54.4.2.2.3.4.3.7v90.9c0 84.4 83.4 152 166.3 166.7 6.2 12.3 18.8 21 33.6 21 13.3 0 24.5-7.2 31.2-17.5.2-.3.5-.4.9-.4h198.4c.3 0 .7.1.8.4 6.8 10.3 18 17.5 31.2 17.5 14.7 0 27.2-8.6 33.5-20.7 83.5-14 168.2-82 168.2-167l-.2-90.7c0-.3.1-.5.3-.7 12.2-10.8 19.6-25.9 19.6-42.9z" clip-rule="evenodd" style="fill: #019df4;"/></svg>
