<?xml version="1.0" encoding="UTF-8"?>
<svg xmlns="http://www.w3.org/2000/svg" viewBox="0 0 800 800"><path fill="#019df4" d="M475.2 509.9c-28.9 59.6-51 135.5-65.7 225.8-2.2 10.4-12.4 17.1-22.8 14.9-9.8-2-16.4-11.2-15.2-21.1 16-98.1 42.5-187.3 77.2-252.5" style="fill: #019df4;"/><path fill="#019df4" d="M344.7 388.6c47.1 96.3 57.1 222.1 61.1 293.4 1.1 20.2 2.1 37.6 3.7 47.4 2.2 10.4-4.5 20.6-14.9 22.8-10.4 2.2-20.6-4.5-22.8-14.9-.1-.6-.2-1.1-.3-1.7-1.9-11.8-2.9-29.3-4.2-51.5-3.8-66.8-9.5-177.8-50.4-266.1" style="fill: #019df4;"/><path fill="#019df4" d="M307.5 400.6c-27.7-51.3-65.8-86.5-113.3-104.6-9.9-3.8-14.9-14.9-11.1-24.9 3.8-9.9 14.9-14.9 24.9-11.1 56.4 21.6 101.3 62.7 133.4 122.3l3.3 6.3c17.2-25.8 26.1-59.4 26.1-100.4 0-52.6-14.4-93.2-42.6-120.7-27.4-26.6-66.9-40.1-117.5-40.1H107.1c-32.3 0-58.6 26.2-58.6 58.5V289c0 103.1 57.3 159.9 161.3 159.9 44.7 0 80.7-10.5 107.3-30.8-1.1-1.2-1.9-2.6-2.6-4.1-2.3-4.5-4.6-9-7-13.4zM750.2 283c-.1-32.3-26.3-58.5-58.6-58.5H587.9c-50.6 0-90.1 13.5-117.5 40.1-28.3 27.5-42.6 68.1-42.6 120.7 0 36.5 7.1 67.3 20.9 91.8 43.5-82.3 99.2-130.2 165.7-142.3 10.5-1.9 20.5 5 22.4 15.5 1.9 10.5-5 20.5-15.5 22.4-56.4 10.3-104.5 54.3-143 130.9-1.1 2.1-1.5 4.8-3.1 6.3C502.4 534.2 540 546 588.9 546c104 0 161.3-56.8 161.3-159.9V283z" style="fill: #019df4;"/></svg>
