<?xml version="1.0" encoding="UTF-8"?>
<svg xmlns="http://www.w3.org/2000/svg" viewBox="0 0 800 800"><path fill="#019df4" d="M741.3 398.7c-5.2 0-9.4-4.2-9.4-9.4V274.9c-.1-17.1-14.1-31.1-31.2-31.2H594.9c-5.2 0-9.4-4.2-9.4-9.4s4.2-9.4 9.4-9.4h105.7c27.5.1 50 22.5 50 50v114.5c.1 5.1-4.1 9.3-9.3 9.3z" style="fill: #019df4;"/><path fill="#019df4" d="M594.9 536.2c-49.4 0-87.9-12.9-114.3-38.4-27.4-26.4-41.3-65.9-41.3-117.2 0-51.4 13.9-90.8 41.3-117.3 26.4-25.5 64.9-38.4 114.3-38.4 5.2 0 9.4 4.2 9.4 9.4s-4.2 9.4-9.4 9.4c-90.8 0-136.8 46-136.8 136.9 0 90.8 46 136.8 136.8 136.8 90.8 0 136.8-46 136.8-136.8 0-5.2 4.2-9.4 9.4-9.4s9.4 4.2 9.4 9.4c0 51.4-13.9 90.8-41.4 117.2-26.3 25.5-64.7 38.4-114.2 38.4zM59 301.7c-5.5 0-9.9-4.4-9.9-9.9V177.3c.1-27.7 22.7-50.4 50.4-50.5h105.7c5.5 0 9.9 4.4 9.9 9.9s-4.4 9.9-9.9 9.9H99.5c-16.8.1-30.6 13.9-30.6 30.7v114.4c0 5.6-4.4 10-9.9 10z" style="fill: #019df4;"/><path fill="#019df4" d="M205.2 439.1c-49.5 0-88.1-13-114.6-38.5C63 374.1 49.1 334.5 49.1 283c0-5.5 4.4-9.9 9.9-9.9s9.9 4.4 9.9 9.9c0 90.4 45.8 136.3 136.2 136.3 90.4 0 136.2-45.9 136.2-136.3 0-90.5-45.8-136.4-136.2-136.4-5.5 0-9.9-4.4-9.9-9.9s4.4-9.9 9.9-9.9c49.5 0 88 13 114.5 38.6 27.5 26.6 41.5 66.1 41.5 117.7 0 51.5-13.9 91.1-41.5 117.6-26.4 25.5-64.9 38.4-114.4 38.4zM390.3 750.8c-.5 0-1 0-1.5-.1-5.2-.8-8.7-5.7-7.8-10.9 4.9-30.3 20-122.6 57-211.2 20.4-48.8 44.4-88.9 71.4-119.1 33.2-37.2 71.3-59.9 113.3-67.5 5.2-.9 10.1 2.5 11 7.6.9 5.2-2.5 10.1-7.6 11C478.9 387.4 421 611.5 399.6 742.8c-.7 4.6-4.8 8-9.3 8z" style="fill: #019df4;"/><path fill="#019df4" d="M390.2 750.8c-4.6 0-8.6-3.3-9.4-8-1.9-11.6-2.9-29.4-4.2-51.9-3.2-57.5-8.1-144.4-33.3-224.9-29.7-94.9-80.6-156.7-151.5-183.8-4.9-1.9-7.4-7.4-5.5-12.3 1.9-4.9 7.4-7.4 12.3-5.5 176.9 67.6 190.5 309.3 197 425.4 1.2 22 2.2 39.3 3.9 49.9.8 5.2-2.7 10.1-7.8 10.9-.4.1-1 .2-1.5.2z" style="fill: #019df4;"/></svg>
