<?xml version="1.0" encoding="UTF-8"?>
<svg xmlns="http://www.w3.org/2000/svg" viewBox="0 0 800 800"><path fill="#019df4" d="M731.5 411.7c-10.6 0-19.1-8.6-19.1-19.1V282.9c0-10.9-9.1-19.8-20.3-19.8H589.4c-10.6 0-19.1-8.6-19.1-19.1s8.6-19.1 19.1-19.1H692c32.3 0 58.6 26 58.6 58v109.7c0 10.5-8.5 19.1-19.1 19.1z" style="fill: #019df4;"/><path fill="#019df4" d="M589.4 543.4c-103.9 0-161.1-56.5-161.1-159.2 0-102.7 57.2-159.3 161.1-159.3 10.6 0 19.1 8.6 19.1 19.1s-8.6 19.1-19.1 19.1c-82.7 0-122.9 39.6-122.9 121S506.7 505 589.4 505s123-39.6 123-120.9c0-10.6 8.6-19.1 19.1-19.1s19.1 8.6 19.1 19.1c0 102.7-57.3 159.3-161.2 159.3zM68.7 315.8c-10.6 0-19.2-8.6-19.2-19.2V185.8c.1-32.3 26.4-58.5 58.6-58.5h102.6c10.6 0 19.2 8.6 19.2 19.2s-8.6 19.2-19.2 19.2H108.1c-11.1 0-20.1 9.1-20.2 20.2v110.7c0 10.6-8.6 19.2-19.2 19.2z" style="fill: #019df4;"/><path fill="#019df4" d="M210.8 448.8c-104 0-161.2-57.1-161.2-160.7 0-10.6 8.6-19.2 19.2-19.2S88 277.4 88 288c0 82.3 40.2 122.3 122.8 122.3s122.7-40 122.7-122.3-40.1-122.3-122.7-122.3c-10.6 0-19.2-8.6-19.2-19.2s8.6-19.2 19.2-19.2c103.9 0 161.1 57.1 161.1 160.8 0 103.6-57.2 160.7-161.1 160.7zM390.6 751.9c-1 0-2.1-.1-3.1-.3-10.5-1.7-17.6-11.6-15.9-22.1 4.9-29.8 19.6-120.3 56-207.4 20.2-48.5 44.2-88.3 71.1-118.5 33.8-37.8 72.7-61 115.7-68.8 10.5-1.9 20.5 5 22.4 15.5 1.9 10.5-5 20.5-15.5 22.4-64.3 11.7-117.6 67-158.2 164.2-34.7 83-48.9 170.1-53.5 198.8-1.6 9.5-9.8 16.2-19 16.2z" style="fill: #019df4;"/><path fill="#019df4" d="M390.5 751.9c-9.3 0-17.4-6.7-19-16.2-1.9-11.8-2.9-29.3-4.2-51.5-3.1-55.3-7.8-139-31.9-216.1-27.8-89.1-75.4-147-141.2-172.2-9.9-3.8-14.9-14.9-11.1-24.9 3.8-9.9 14.9-14.9 24.9-11.1 177.9 68 191.4 307.2 197.8 422.1 1.1 20.2 2.1 37.6 3.7 47.4 1.7 10.5-5.4 20.4-15.9 22.1-1 .3-2.1.4-3.1.4z" style="fill: #019df4;"/></svg>
