<?xml version="1.0" encoding="UTF-8"?>
<svg xmlns="http://www.w3.org/2000/svg" viewBox="0 0 702.8 702.8"><path fill="#019df4" fill-rule="evenodd" d="M270.9 659.8V503c0-11.9 9.5-21.5 21.1-21.5h118.8c11.7 0 21.1 9.6 21.1 21.5v156.7h133.7c3.5 0 7-4 7-6.2V49.2c-.2-2.1-4.4-6.2-7-6.2H137.1c-2.7 0-6.9 4-7 6.2v604.3c0 2.2 3.6 6.2 7 6.2l133.8.1zm294.8 43H137.2c-26.3 0-49.3-23-49.3-49.2V49.3C87.9 23.5 111.4.1 137.2.1h428.5C591.5.1 615 23.6 615 49.3v604.3c-.1 26.2-23.1 49.2-49.3 49.2zm-252.5-44.1h76.5V524.5h-76.5v134.2zm-75.3-476.3h47.7v-48.5h-47.7v48.5zm68.9 43h-90c-11.7 0-21.1-9.6-21.1-21.5v-91.5c0-11.9 9.5-21.5 21.1-21.5h90c11.7 0 21.1 9.6 21.1 21.5v91.5c0 11.9-9.5 21.5-21.1 21.5zm108.9-43h47.7v-48.5h-47.7v48.5zm68.9 43h-90c-11.7 0-21.1-9.6-21.1-21.5v-91.5c0-11.9 9.5-21.5 21.1-21.5h90c11.7 0 21.1 9.6 21.1 21.5v91.5c0 11.9-9.5 21.5-21.1 21.5zM237.9 362h47.7v-48.5h-47.7V362zm68.9 43h-90c-11.7 0-21.1-9.6-21.1-21.5V292c0-11.9 9.5-21.5 21.1-21.5h90c11.7 0 21.1 9.6 21.1 21.5v91.5c0 11.9-9.5 21.5-21.1 21.5zm108.9-43h47.7v-48.5h-47.7V362zm68.9 43h-90c-11.7 0-21.1-9.6-21.1-21.5V292c0-11.9 9.5-21.5 21.1-21.5h90c11.7 0 21.1 9.6 21.1 21.5v91.5c0 11.9-9.5 21.5-21.1 21.5z" clip-rule="evenodd" style="fill: #019df4;"/></svg>
