<?xml version="1.0" encoding="UTF-8"?>
<svg xmlns="http://www.w3.org/2000/svg" viewBox="0 0 702.8 702.8"><path fill="#019df4" fill-rule="evenodd" d="M502.7 200.8c0 8.1-6.5 14.6-14.5 14.6h-92.4c-8 0-14.5-6.6-14.5-14.6v-93.4c0-8.1 6.5-14.6 14.5-14.6h92.4c8 0 14.5 6.5 14.5 14.6v93.4zm0 183.4c0 8.1-6.5 14.6-14.5 14.6h-92.4c-8 0-14.5-6.6-14.5-14.6v-93.5c0-8.1 6.5-14.6 14.5-14.6h92.4c8 0 14.5 6.6 14.5 14.6v93.5zM320 200.8c0 8.1-6.5 14.6-14.5 14.6h-92.4c-8 0-14.5-6.6-14.5-14.6v-93.4c0-8.1 6.5-14.6 14.5-14.6h92.4c8 0 14.5 6.5 14.5 14.6v93.4zm0 183.4c0 8.1-6.5 14.6-14.5 14.6h-92.4c-8 0-14.5-6.6-14.5-14.6v-93.5c0-8.1 6.5-14.6 14.5-14.6h92.4c8 0 14.5 6.6 14.5 14.6v93.5zM571.5 0H131.3c-22.7 0-43.4 20.5-43.4 42.9v617c0 22.9 20.3 42.9 43.4 42.9h144.6V506.2c0-8.1 6.5-14.6 14.5-14.6h122.1c8 0 14.5 6.5 14.5 14.6v196.6h144.6c23.1 0 43.4-20.1 43.4-42.9v-617C614.9 20.5 594.2 0 571.5 0z" clip-rule="evenodd" style="fill: #019df4;"/></svg>
