<?xml version="1.0" encoding="UTF-8"?>
<svg xmlns="http://www.w3.org/2000/svg" viewBox="0 0 702.8 702.8"><path fill="#019df4" fill-rule="evenodd" d="M586 659.9V43c0-6.3-7.8-13.7-14.5-13.7H131.3c-6.6 0-14.5 7.4-14.5 13.6v616.9c0 6.7 7.3 13.7 14.5 13.7h144.6V506.2c0-8.1 6.5-14.6 14.5-14.6h122.1c8 0 14.5 6.6 14.5 14.6v167.3h144.6c7.1 0 14.4-6.9 14.4-13.6zm-281.2 12.6H398V520.8h-93.1v151.7zM571.5 0C594.2 0 615 20.5 615 43v616.9c0 22.8-20.3 42.9-43.4 42.9H131.4c-23.1 0-43.4-20.1-43.4-42.9v-617C87.9 20.5 108.6 0 131.3 0h440.2zM227.6 186.2H291v-64.1h-63.5v64.1zm77.9-93.4c8 0 14.5 6.6 14.5 14.6v93.4c0 8.1-6.5 14.6-14.5 14.6H213c-8 0-14.5-6.6-14.5-14.6v-93.4c0-8.1 6.5-14.6 14.5-14.6h92.5zm104.8 93.4h63.5v-64.1h-63.5v64.1zm77.9-93.4c8 0 14.5 6.6 14.5 14.6v93.4c0 8.1-6.4 14.6-14.5 14.6h-92.4c-8 0-14.5-6.6-14.5-14.6v-93.4c0-8.1 6.4-14.6 14.5-14.6h92.4zM227.6 369.6h63.5v-64.1h-63.5v64.1zm77.9-93.4c8 0 14.5 6.5 14.5 14.6v93.4c0 8.1-6.5 14.6-14.5 14.6H213c-8 0-14.5-6.6-14.5-14.6v-93.4c0-8.1 6.5-14.6 14.5-14.6h92.5zm104.8 93.4h63.5v-64.1h-63.5v64.1zm77.9-93.4c8 0 14.5 6.5 14.5 14.6v93.4c0 8.1-6.4 14.6-14.5 14.6h-92.4c-8 0-14.5-6.5-14.5-14.6v-93.5c0-8.1 6.4-14.6 14.5-14.6l92.4.1z" clip-rule="evenodd" style="fill: #019df4;"/></svg>
