<?xml version="1.0" encoding="UTF-8"?>
<svg xmlns="http://www.w3.org/2000/svg" viewBox="0 0 702.8 702.8"><path fill="#019df4" fill-rule="evenodd" d="M629.3 134.9c-11 10.8-186.6 166.1-218.2 194.9L316.5 361l30.9-92.1c21.4-18.9 208-183.3 220.2-195.4 22.5-22.4 49.9-11.9 61.8 0 8.1 8.2 13.2 20.2 13.1 31.6 0 11.3-4.8 22.1-13.2 29.8zm-58.4 423.8c0 26.5-7.1 46.3-21.9 60.6-16 15.5-40.6 23.3-73 23.3H155.1c-32.4 0-57-7.8-73-23.3-14.7-14.2-21.9-34-21.9-60.5V190.2c0-70.7 51.6-85.6 94.9-85.6h287.4c-39.8 35.3-89.1 78.8-136.6 120.6-6.8 6-11.9 13.7-14.8 22.4L254 357.9c-9.2 26.9 5.1 56.3 32.1 65.5 10.8 3.7 22.4 3.7 33.2.1l111.1-36.6c6.6-2.2 12.7-5.7 17.7-10.2 1.1-1 64-56.5 122.9-108.7-.1-.1-.1 290.7-.1 290.7zm131.9-453.5c-.2-27.9-11.2-54.5-30.8-74.4-36.1-36.1-100.9-45.9-147 0-1.5 1.5-7 6.5-15.5 14.1-11.2-.4-22.3-.6-33.5-.6H155.1C60.9 44.4 0 101.6 0 190.2v368.5c0 43.1 13.5 78.1 40.3 103.8 27.7 26.8 66.3 40.3 114.9 40.3h320.9c48.5 0 87.2-13.5 114.9-40.2 26.7-25.8 40.3-60.7 40.3-103.9l-.3-344.3c21.4-19.1 37-33.1 40.6-36.6 19.9-18.9 31.1-45.1 31.2-72.6z" clip-rule="evenodd" style="fill: #019df4;"/></svg>
