<?xml version="1.0" encoding="UTF-8"?>
<svg xmlns="http://www.w3.org/2000/svg" viewBox="0 0 702.8 702.8"><path fill="#019df4" d="M702.8 98c-.3-25.9-10.5-50.8-28.5-69.4-17.5-17-40.5-27.1-64.9-28.5-26.9-.9-53 9.4-71.9 28.5l-19.4 17.7H148.9C57.2 45.5.2 99.2.2 185.2v379.4c-1.9 37.1 12.1 73.3 38.4 99.6 30.3 27 70.2 40.8 110.8 38.4H480c40.7 2.5 80.7-11.4 111.2-38.4 26.4-26.3 40.3-62.5 38.5-99.6V206.7l44.2-41.3c18.2-17.7 28.6-42 28.9-67.4zM587.9 564.5c1.5 25.8-7.8 51.1-25.6 69.8-23 19.3-52.7 29-82.7 26.8H148.9c-30 2.2-59.7-7.4-82.7-26.8-17.5-18.9-26.5-44.1-24.8-69.8V185.2c0-61.1 38.4-98.4 107.9-98.4h323.2L311.4 229c-5.5 5.1-9.8 11.5-12.4 18.6l-38 113.6c-5.5 15.4-1.5 32.5 10.3 43.8 7.9 8.3 18.8 12.9 30.2 12.8 4.5.6 9.1.6 13.6 0l114.1-37.6c5.5-1.9 10.5-4.8 14.9-8.7 0 0 78.9-69.4 143.4-127.2l.4 320.2zM298.6 374.4L337.1 260c61.6-53.3 218.6-191.3 229.8-202 10-10.5 23.9-16.5 38.4-16.5h2.5c30 1.5 53.5 26.2 53.7 56.2-.1 14.5-6.1 28.3-16.5 38.4C632.6 147.7 445.8 313 416.4 339l-114.1 37.6c0-.1-3.7-2.2-3.7-2.2z" style="fill: #019df4;"/></svg>
