<?xml version="1.0" encoding="UTF-8"?>
<svg xmlns="http://www.w3.org/2000/svg" viewBox="0 0 702.8 702.8"><path fill="#019df4" fill-rule="evenodd" d="M628.7 641.2c15.8 0 28.7 13.4 28.7 29.9 0 16.6-12.9 30-28.7 30H74.1c-15.8 0-28.7-13.4-28.7-30 0-16.5 12.9-29.9 28.7-29.9h554.6zM158.5 384.6l-53 169.1 1.6 4.1h.2l156.1-55.6c75.4-71.7 297.4-283.8 312.4-299.7 14.8-15.2 23.1-35.6 23-56.9-.1-22-8.2-43.2-22.8-59.7-13.9-15.1-33.4-23.8-53.9-24.2-19.2 0-37.2 8.4-51.8 24.2-17.2 18.4-299.8 287.3-311.8 298.7zM107 617.7c-15.7 0-31.1-6.9-42.2-18.8-15.7-17.2-21-41.5-13.9-63.7l52.3-167.9c3.2-10.4 9-19.8 16.8-27.1 141.9-135.1 298.5-284.8 308.9-296C454.3 16.8 487.3 1.7 522 1.7c35.4 0 70.1 15.5 95.1 42.4 25.1 27.9 39 64 39 101.5.1 36.8-14.1 72.1-39.5 98.7-19.7 21-311.2 298.9-314.1 301.6-5.9 5.8-12.9 10.1-20.6 12.8l-156.1 55.6c-6 2.3-12.3 3.4-18.8 3.4z" clip-rule="evenodd" style="fill: #019df4;"/></svg>
