<?xml version="1.0" encoding="UTF-8"?>
<svg xmlns="http://www.w3.org/2000/svg" viewBox="0 0 702.8 702.8"><path fill="#019df4" fill-rule="evenodd" d="M548.5 451.7c-37.1 57.1-66.6 93.8-116.8 145.3l-.3.2-.9 1.1c-9.6 9.8-23.6 23-33.9 30.4-9.7 6.9-20.5 11.7-31.8 14.1-2.5.6-5.3 1-8.1 1.1h-.8l-3.3.1-2.3-.1h-.5c-2.9-.2-5.9-.6-8.8-1.3-11.2-2.5-21.8-7.3-31.1-14.1-13.5-9.6-30.7-26.9-34-30.4-51-52.2-80.8-89.2-118.1-146.6-9.9-15.4-19.3-31-28.2-47h28.9c6.5 0 12.3-4.2 14.2-10.4l55.1-176.3 62.9 312c1.4 6.9 7.5 11.9 14.6 11.9 6.5 0 12.3-4.2 14.3-10.5l38-123.6h42.9c6.6 0 12.4-4.3 14.3-10.6l29.4-99.3 35.4 100c2.1 5.9 7.7 9.9 14 9.9H575c-8.5 14.7-17 29.4-26.5 44.1M63.3 242c-15.8-65.9-4-119.7 33.4-151.5 21.9-18.6 52.1-29.8 85.2-31.5 3-.1 6-.2 9-.2 33.2 0 67.8 9.4 99.9 27 13.4 7.4 27.1 15.2 42.7 24.4 5.9 3.3 12.7 5.1 19.7 5.1 6.7 0 13.3-1.6 20.1-5.3 14-8.3 28-16.3 42.2-24.1 32.1-17.6 66.6-27 99.9-27 3 0 6 .1 9 .2 33 1.7 63.3 12.9 85.1 31.5 37.3 31.7 49.2 85.5 33.4 151.5-10.7 44.3-28.6 90-52.3 136.2h-86.5l-47.2-133.4c-2-6.2-7.9-10.3-14.4-9.9-6.4.2-12.1 4.4-13.9 10.6l-39.3 132.7h-42.8c-6.5 0-12.3 4.2-14.3 10.5l-24 78-62.8-311.5c-1.4-6.7-7.1-11.5-13.9-11.8-6.4-1.1-12.9 3.9-14.9 10.4l-69.1 221.4h-33.4C91.2 330 73.8 285.4 63.3 242m624.6 136.2h-64.2c21.4-43.8 37.9-87.1 48.1-129.3 18.5-77.2 3.3-141.4-42.9-180.7-26.8-22.8-63.4-36.5-103-38.5-3.5-.2-7.1-.3-10.6-.3-38.4 0-77.7 10.5-114.3 30.7-14.5 8-28.8 16.2-43 24.6-1.5.8-3.2 1.2-4.9 1.2-1.7 0-3.5-.4-5-1.2-14.1-8.6-28.5-16.8-42.9-24.7-36.7-20.1-76-30.7-114.4-30.7-3.5 0-7 .1-10.5.3-39.5 2-76.1 15.6-103 38.5-46.2 39.3-61.5 103.5-43 180.7 10 41.3 25.9 83.6 46.5 126.3h-66c-8.2 0-14.8 6.6-14.9 14.8 0 8.2 6.7 14.8 14.9 14.8h80.8c11.2 20.9 23.3 41.9 37 63 38.4 59.2 69.2 97.4 121.7 151.1 5.1 5.2 22.9 23 38 33.8 13 9.3 27.7 15.8 42.3 18.9 4.2 1 8.7 1.6 13.3 1.9h.3l.3.1 3.9.1h1.2c1.5 0 2.8 0 4-.1l.3-.1h.3c4.6-.3 9.1-.9 13.3-1.9 14.7-3 29.3-9.6 42.3-18.9 15.1-10.8 32.9-28.6 38-33.8.4-.4.8-.9 1.2-1.3 51.8-53.1 82.3-91.1 120.5-149.8 13-20.1 24.7-40.1 35.5-60h78.9c8.2 0 14.9-6.6 14.9-14.8 0-8.2-6.7-14.8-14.9-14.7" clip-rule="evenodd" style="fill: #019df4;"/></svg>
