<?xml version="1.0" encoding="UTF-8"?>
<svg xmlns="http://www.w3.org/2000/svg" viewBox="0 0 702.8 702.8"><path fill="#019df4" fill-rule="evenodd" d="M212.4 151.5l-66.1 216.2H82.9C64.5 327.5 50.1 287.8 41 248.8c-18.2-77.2-3.2-141.4 42-180.7 26.3-22.8 62.1-36.5 100.8-38.5 3.5-.2 6.9-.3 10.3-.3 37.6 0 76 10.5 112 30.7 13.3 7.5 27.1 15.5 42.1 24.5 3 1.7 6.6 1.7 9.7.1 15-9 28.8-17 42.2-24.6C436 39.9 474.5 29.3 512 29.3c3.5 0 6.9.1 10.4.3 38.7 2 74.5 15.7 100.8 38.5 45.3 39.3 60.2 103.5 42 180.7-9.4 40-24.3 80.8-43.5 122.1H506l-44.5-128.6c-3-8.8-11.3-14.8-20.6-14.8h-.6c-9.5.3-17.8 6.7-20.4 15.9l-37 127.4h-36.5c-9.7 0-18.2 6.4-20.9 15.7l-15.1 50-55.8-282.8c-1.9-9.9-10.3-17.2-20.3-17.7-9.9-.6-19.1 5.8-21.9 15.5zm257.5 248.8c3 8.8 11.3 14.8 20.6 14.8h109.2c-9.7 17.9-20 35.4-30.8 52.5-37.4 58.8-67.3 96.8-118 149.8-.4.5-.8.9-1.2 1.3-5 5.2-22.4 23-37.2 33.8-12.7 9.3-27.1 15.8-41.4 18.9-4.1 1-8.5 1.6-13 1.9h-.6c-1.3.1-2.6.1-3.9.1h-1.2c-1.4 0-2.6-.1-3.8-.1h-.6c-4.4-.2-8.7-.9-13-1.9-15-3.4-29.1-9.8-41.4-18.9-14.8-10.7-32.2-28.6-37.2-33.8-51.5-53.7-81.6-91.9-119.2-151.1-11.6-18.1-22.5-36.7-32.7-55.6h57.9c9.6 0 18.1-6.4 20.9-15.6l45.4-148.6 55.9 283.5c2 10.3 11 17.7 21.4 17.8 9.7 0 18.2-6.4 20.9-15.7L362.6 415h36.6c9.8 0 18.3-6.5 21-15.9l22.4-77.3 27.3 78.5zm-448-32.6h61l21.7 44.3H21.9c-12.2-.1-22-10-21.9-22.2 0-12.2 9.8-22.1 21.9-22.1zm659 3.1c12.1 0 21.9 9.9 21.9 22.1.1 12.2-9.7 22.1-21.9 22.1h-81.2l22-44.3c0 .1 59.2.1 59.2.1z" clip-rule="evenodd" style="fill: #019df4;"/></svg>
