<?xml version="1.0" encoding="UTF-8"?>
<svg xmlns="http://www.w3.org/2000/svg" viewBox="0 0 702.8 702.8"><path fill="#019df4" fill-rule="evenodd" d="M532.1 443.6c-35.7 56.2-64.1 92.3-112.6 143l-1.5 1.5-.6.7c-8.6 8.9-21.3 21.1-30.5 27.7-7.7 5.7-16.5 9.7-25.9 11.8-1.6.4-3.3.6-5 .7h-2.4l-1.3.1-1.6-.1h-.4c-2.1-.1-4.2-.5-6.3-.9-9.1-2.1-17.6-6.1-25.1-11.6-9.5-6.9-22.8-19.7-31.3-28.6-48.9-51.3-77.6-87.7-113.6-144.3-6.7-10.5-12.5-21.1-18.6-31.6h7.1c9.7 0 18.1-6.4 20.9-15.6l45.4-148.5 55.9 283.5c2 10 10.3 17.3 20.4 17.8h1.1c9.7 0 18.1-6.4 20.9-15.7l35.7-118.4h36.6c9.7 0 18.2-6.4 21-15.9l22.4-77.3 27.1 78.4c3 8.8 11.3 14.8 20.6 14.8h58.4c-5.5 9.5-10.6 19-16.8 28.5M83.5 238.5c-8.2-34.9-15.5-99.1 28-136.8 19-16.5 45.5-26.4 74.6-27.9 2.7-.1 5.3-.2 8-.2 30.2 0 61.6 8.7 90.8 25.1 13 7.3 26.4 15.1 41.7 24.4 16.6 9.5 37.1 9.3 53.6-.4 14.6-8.8 28-16.6 41-24 29.3-16.4 60.7-25.1 90.8-25.1 2.6 0 5.4.1 8 .2 29.1 1.5 55.6 11.4 74.6 27.9 43.5 37.7 36.2 102 27.9 136.8-10.1 43-27.1 87.4-49.7 132.3h-66.9l-44.5-128.5c-2.8-9.3-11.5-15.4-21.2-14.8-9.5.3-17.8 6.7-20.4 15.9L383 370.8h-36.5c-9.7 0-18.2 6.4-20.9 15.7l-15.1 50-55.8-282.8c-1.9-9.9-10.2-17.2-20.3-17.8-10.1-.8-19.4 5.8-22.1 15.6l-66.1 216.2h-14.7c-21.5-43.9-38.1-87-48-129.2m597.4 132.3h-59.2c19.2-41.2 34.1-82.1 43.5-122 18.2-77.2 3.2-141.4-42-180.7-26.3-22.8-62.1-36.5-100.8-38.5-3.4-.2-6.9-.3-10.3-.3-37.6 0-76.1 10.5-112 30.7-14.2 8-28.2 16.1-42.1 24.5-3 1.7-6.7 1.7-9.7 0-14.9-9-28.7-17-42-24.5-35.9-20.2-74.5-30.7-112.1-30.7-3.4 0-6.8.1-10.2.3-38.7 2-74.6 15.7-100.8 38.5C37.8 107.4 22.8 171.6 41 248.8c9.2 39 23.5 78.8 41.9 118.9h-61c-12.2.1-22 10-21.9 22.2C0 402.1 9.8 412 21.9 412h82.7c10 18.5 20.8 37 32.7 55.6C175 526.9 205 565 256.5 618.8c5 5.2 22.4 23 37.2 33.8 12.7 9.3 27 15.8 41.4 18.9 4.3 1 8.7 1.6 13.1 1.9h.6c1.2.1 2.5.1 3.8.1h1.2c1.4 0 2.6-.1 3.9-.1h.5c4.4-.2 8.8-.9 13.1-1.9 14.3-3.1 28.7-9.6 41.4-18.9 14.8-10.7 32.2-28.6 37.2-33.8l1.2-1.3c50.7-53.1 80.6-91.1 118-149.9 11.2-17.5 21.4-35.1 30.9-52.6h81.1c12.1-.1 21.9-10 21.9-22.1-.1-12.1-9.9-22-22.1-22.1" clip-rule="evenodd" style="fill: #019df4;"/></svg>
