<?xml version="1.0" encoding="UTF-8"?>
<svg xmlns="http://www.w3.org/2000/svg" viewBox="0 0 702.8 702.8"><path fill="#019df4" fill-rule="evenodd" d="M476.5 146.7H226.2V82c0-15.1 3.3-26 9.9-32.1 8.3-7.6 20.3-6.9 22.4-6.8l185.2-.1c10.7 0 18.4 2.6 23.6 8.1 8.4 8.9 9.5 24.6 9.2 31.3v64.3zm-30.3 388.2c0 11.9-9.6 21.5-21.5 21.5-11.8 0-21.5-9.6-21.5-21.5v-220c0-11.9 9.6-21.5 21.5-21.5 11.8 0 21.5 9.6 21.5 21.5v220zm-146.7 0c0 11.9-9.6 21.5-21.5 21.5s-21.5-9.6-21.5-21.5v-220c0-11.9 9.6-21.5 21.5-21.5s21.5 9.6 21.5 21.5v220zm381.8-388.2H519.4V83.8c.3-3.8 1.9-37.8-20.6-61.9-9.3-10-26.4-21.9-55.1-21.9L260.6.2c-3.1-.5-30.9-2.5-53 17.6C191.5 32.4 183.3 54 183.3 82v64.7H21.5C9.6 146.7 0 156.3 0 168.2s9.6 21.5 21.5 21.5h52l.1 395.8c-.1 2-3 49.9 29.1 84.2 20.5 21.9 49.7 33.1 86.7 33.1h322.8c.2 0 1 .1 2.3.1 10.4 0 52-1.9 82.5-31.1 21.5-20.6 32.4-49.3 32.4-85.3V189.7h52c11.8 0 21.5-9.6 21.5-21.5-.1-11.8-9.7-21.5-21.6-21.5z" clip-rule="evenodd" style="fill: #019df4;"/></svg>
