<?xml version="1.0" encoding="UTF-8"?>
<svg xmlns="http://www.w3.org/2000/svg" viewBox="0 0 702.8 702.8"><path fill="#019df4" fill-rule="evenodd" d="M598.8 591.1V178.9H104.3v412.8c0 1.5-2 36.5 20.1 59.6 13.8 14.6 34.5 22.2 61.4 22.2h330.5c1.2 0 37.1 1.2 60.8-21.9 14.4-13.7 21.7-34.2 21.7-60.5zM216.6 76.4v73.3h270V76.6c0-1.2 1.2-23.4-11.4-36.8-6.7-7.3-16.4-10.5-29.5-10.5H256.6c-1.5 0-16.7-1.2-27.5 8.8-8.5 7.6-12.6 20.4-12.5 38.3zm471.6 73.3c8.1.5 14.2 7.5 13.7 15.5-.5 7.4-6.3 13.2-13.7 13.7H628v412.2c0 34.8-10.5 62.3-31 81.8-28.9 28.1-69 29.8-78.9 29.8H185.9c-35.7 0-63.4-10.5-83-31.6-30.7-32.7-27.8-78.6-27.8-80.4V178.9H14.6C6.5 178.4.4 171.4.9 163.4c.5-7.4 6.3-13.2 13.7-13.7h172.7V76.4c0-26.6 7.3-46.8 22.2-60.2C230.3-2.2 256.9.1 258 .1h187.6c21.6 0 38.6 6.7 50.9 19.9 21.3 22.8 19.3 56.4 19.3 57.8v71.9h172.4zM276.6 553.3c-8.1 0-14.6-6.5-14.6-14.6V314.1c.5-8.1 7.5-14.2 15.5-13.7 7.4.5 13.2 6.3 13.7 13.7v224.6c0 8.1-6.5 14.6-14.6 14.6zm149.7 0c-8.1 0-14.6-6.5-14.6-14.6V314.1c.5-8.1 7.5-14.2 15.5-13.7 7.4.5 13.2 6.3 13.7 13.7v224.6c0 8.1-6.5 14.6-14.6 14.6z" clip-rule="evenodd" style="fill: #019df4;"/></svg>
