<?xml version="1.0" encoding="UTF-8"?>
<svg xmlns="http://www.w3.org/2000/svg" viewBox="0 0 702.8 702.8"><path fill="#019df4" fill-rule="evenodd" d="M586.4 586.4V189.7h-470V587c-.1 1.6-1.6 33.1 17.8 53.6 12.1 12.8 30.6 19.2 55.1 19.2h323.8c1.2 0 33.5.9 54.4-19.3 12.6-12.2 18.9-30.4 18.9-54.1zM226.2 82v64.7h250.3V82.3c.3-6.6-.7-22.4-9.2-31.2-5.1-5.5-12.8-8.1-23.5-8.1l-185.2.1c-2-.1-14.1-.8-22.4 6.8-6.6 6.2-10 17-10 32.1zm455.1 64.8c11.9 0 21.5 9.6 21.5 21.5s-9.6 21.5-21.5 21.5h-52v396.7c0 36-10.9 64.7-32.4 85.3-30.5 29.2-72.1 31.1-82.5 31.1-1.3 0-2.1 0-2.3-.1H189.3c-37 0-66.2-11.1-86.6-33.1-32.1-34.3-29.2-82.2-29.1-84.2l-.1-395.8h-52C9.6 189.7 0 180.1 0 168.2s9.6-21.5 21.5-21.5h161.8V82c0-28 8.2-49.6 24.4-64.2 22.1-20 49.9-18 53-17.6L443.8 0c28.7 0 45.8 11.9 55 21.9C521.3 46 519.6 80 519.4 83.8l.1 62.9h161.8zM278.1 556.4c-11.9 0-21.5-9.6-21.5-21.5v-220c0-11.9 9.6-21.5 21.5-21.5 11.8 0 21.5 9.6 21.5 21.5v220c-.1 11.9-9.7 21.5-21.5 21.5zm146.6 0c-11.9 0-21.5-9.6-21.5-21.5v-220c0-11.9 9.6-21.5 21.5-21.5 11.8 0 21.5 9.6 21.5 21.5v220c0 11.9-9.6 21.5-21.5 21.5z" clip-rule="evenodd" style="fill: #019df4;"/></svg>
