<?xml version="1.0" encoding="UTF-8"?>
<svg xmlns="http://www.w3.org/2000/svg" viewBox="0 0 702.8 702.8"><path fill="#019df4" fill-rule="evenodd" d="M366.6 658.7c87.9-1.6 292.2-34.7 292.2-306.3 0-271.7-205.5-306-293.8-308.1-7.9-.2-17.1-.4-25.9-.4l-6 .1c-86.9.7-289.2 32.2-289.2 306.3 0 274.7 204.2 307.3 292 308.5 3.5.1 7.2.1 10.8.1 7 0 13.9-.1 19.9-.2zM366.1.4c68.8 1.6 336.7 28.8 336.7 352 0 323.8-268.2 349-335.3 350.2-6.3.2-13.5.2-20.7.2-3.8 0-7.7 0-11.4-.1C264.8 701.7.1 676.2.1 350.3.1 24.9 262.4.7 332.9.1c2.1 0 4.1-.1 6.3-.1 9.1 0 18.7.2 26.9.4zm173.3 402.3c5 0 9.1-3.7 9.6-5.3l-.1-91.2c-.6-1.7-4.7-5.2-9.5-5.2h-115c-12.1 0-22-9.8-22-22V164.3c0-5-3.7-9.1-5.3-9.6l-91.3.1c-1.3.4-4.9 4.5-4.9 9.5v115c0 12.1-9.8 22-22 22h-115c-5.4 0-9 3.7-9.3 5v91.6c.1 1.2 3.7 4.9 9.3 4.9h115c12.1 0 22 9.8 22 22v115c0 5.4 3.7 9 5 9.2h91.9c1.2-.3 4.9-3.8 4.9-9.2l-.3-114.9c0-5.8 2.3-11.4 6.4-15.5 4.1-4.2 9.7-6.5 15.6-6.5h115zm0-145.6c28.5 0 53.5 22.8 53.5 48.8v92c0 26-25 48.8-53.5 48.8h-93l.2 92.9c0 28.9-22.4 53.2-48.8 53.2h-92c-26.5 0-48.8-24.3-48.8-53.1v-93h-93c-28.9 0-53.2-22.3-53.2-48.8v-91.7c0-26.4 24.3-48.8 53.2-48.8h93v-93c0-29 22.4-53.4 48.8-53.4h91.7c26 0 48.8 25 48.8 53.4v92.7h93.1z" clip-rule="evenodd" style="fill: #019df4;"/></svg>
