<?xml version="1.0" encoding="UTF-8"?>
<svg xmlns="http://www.w3.org/2000/svg" viewBox="0 0 702.8 702.8"><path fill="#019df4" fill-rule="evenodd" d="M366.1.4c68.8 1.6 336.7 28.8 336.7 352 0 323.8-268.2 349-335.3 350.2-6.3.2-13.5.2-20.7.2-3.8 0-7.7 0-11.4-.1C264.8 701.7.1 676.2.1 350.3.1 24.9 262.4.7 332.9.1c2.1 0 4.1-.1 6.3-.1 9.1 0 18.7.2 26.9.4zm173.3 402.3h-115c-5.8 0-11.4 2.3-15.6 6.5-4.1 4.1-6.4 9.7-6.4 15.5l.3 114.9c0 5.4-3.7 9-4.9 9.2h-91.9c-1.3-.3-5-3.8-5-9.2v-115c0-12.1-9.8-22-22-22h-115c-5.6 0-9.1-3.7-9.3-4.9v-91.6c.3-1.3 3.8-5 9.3-5h115c12.1 0 22-9.8 22-22v-115c0-5 3.6-9.1 4.9-9.5l91.3-.1c1.6.5 5.3 4.6 5.3 9.6V279c0 12.1 9.8 22 22 22h115c4.8 0 8.9 3.5 9.5 5.2l.1 91.2c-.5 1.6-4.6 5.3-9.6 5.3zm0-145.6h-93.1v-92.7c0-28.5-22.8-53.4-48.8-53.4h-91.7c-26.5 0-48.8 24.5-48.8 53.4v93h-93c-28.9 0-53.2 22.3-53.2 48.8v91.7c0 26.4 24.3 48.8 53.2 48.8h93v93c0 28.8 22.4 53.1 48.8 53.1h92c26.5 0 48.8-24.3 48.8-53.2l-.2-92.9h93c28.5 0 53.5-22.8 53.5-48.8v-92c0-26-25-48.8-53.5-48.8z" clip-rule="evenodd" style="fill: #019df4;"/></svg>
