<?xml version="1.0" encoding="UTF-8"?>
<svg xmlns="http://www.w3.org/2000/svg" viewBox="0 0 702.8 702.8"><path fill="#019df4" fill-rule="evenodd" d="M646.3 429.7l-194.9.1c-5.7 0-11.2 2.3-15.2 6.3s-6.3 9.5-6.3 15.2l.1 195c0 7.5-4.8 12.9-6.3 13.5H279.8c-2-.6-6.7-6-6.7-13.5l-.1-194.9c0-5.7-2.3-11.2-6.3-15.2s-9.5-6.3-15.2-6.3l-195 .1c-7.4 0-12.9-4.8-13.4-6.2v-144c.6-1.9 6.1-6.7 13.5-6.7l194.8-.1c11.9 0 21.5-9.6 21.5-21.5l-.1-195c0-6.7 5-12.8 6.3-13.5l143.4-.1c2.2.7 7.2 6.8 7.2 13.5l.1 194.8c0 5.7 2.3 11.2 6.3 15.2s9.5 6.3 15.2 6.3l195.1-.1c6.7 0 12.8 5 13.5 6.3l.1 143.4c-.9 2.3-7 7.4-13.7 7.4m0-199.9l-173.5.1-.1-173.3c0-29.5-23.5-56.5-49.3-56.5H279c-25.8 0-49.3 26.9-49.3 56.5l.1 173.5-173.3.1C25.9 230.2 0 252.8 0 279.5l-.1 144.4c0 26.7 25.8 49.3 56.5 49.3l173.5-.1.1 173.4c0 30.6 22.6 56.5 49.3 56.5h144.4c26.7 0 49.3-25.9 49.3-56.5l-.1-173.5 173.4-.1c29.5 0 56.5-23.5 56.5-49.3V279.2c0-25.9-26.9-49.4-56.5-49.4" clip-rule="evenodd" style="fill: #019df4;"/></svg>
