<?xml version="1.0" encoding="UTF-8"?>
<svg xmlns="http://www.w3.org/2000/svg" viewBox="0 0 702.8 702.8"><path fill="#019df4" fill-rule="evenodd" d="M249.4 438.8c8.1 0 14.6 6.6 14.6 14.6l.1 199c0 11.6 8.3 21 13.7 21l147.4.1c5.4 0 13.7-9.5 13.7-21.1l-.1-199.1c0-8.1 6.6-14.6 14.6-14.6l199-.1c11.5 0 21-9 21-13.7V277.5c0-4.6-9.5-13.7-21-13.7l-199.1.1c-8.1 0-14.6-6.6-14.6-14.6l-.1-198.9c0-11.5-9.1-21-13.7-21H277.6c-4.6 0-13.8 9.5-13.8 21l.1 199.1c0 8.1-6.6 14.6-14.6 14.6l-199 .1c-11.6 0-21.1 8.3-21.1 13.7v147.4c0 5.4 9.5 13.8 21.1 13.8l199.1-.3zm175.9 264l-147.4-.1c-22.9 0-43-23.5-43-50.3l-.1-184.3-184.4.1c-26.8 0-50.3-20.1-50.3-43l.1-147.3c0-22.9 23.5-43 50.4-43l184.2-.1-.1-184.4c0-26.3 20.5-50.3 43-50.3h147.4c22.5 0 43 24 43 50.3v184.3l184.5-.1c26.3 0 50.3 20.5 50.3 43V425c0 22.5-24 43-50.3 43H468.2l.1 184.5c0 26.8-20.1 50.3-43 50.3z" clip-rule="evenodd" style="fill: #019df4;"/></svg>
