<?xml version="1.0" encoding="UTF-8"?>
<svg xmlns="http://www.w3.org/2000/svg" viewBox="0 0 702.8 702.8"><path fill="#019df4" fill-rule="evenodd" d="M367 673.3c71.9-1.3 306.5-28.4 306.5-321 0-126.7-43.4-218.2-128.8-271.8-69.8-43.8-148.6-50.2-179.3-51-8-.2-17.3-.3-26.3-.3H333c-30.4.3-108.7 5.5-177.5 48.8C71.7 130.7 29.2 222.3 29.2 350.2c0 128.1 42.9 220 127.5 273.3 69.4 43.7 148.3 49.5 179 49.9 3.5.1 7 .1 10.6.1 7.3 0 14.4-.1 20.7-.2zM366.1.4c68.8 1.6 336.7 28.8 336.7 352 0 323.9-268.3 349-335.3 350.3-6.4.1-13.7.2-21.2.2-3.7 0-7.4 0-11-.1C264.7 701.8 0 676.3 0 350.4 0 25 262.3.7 332.8.2h6.3c9.2-.2 18.7-.1 27 .2zm205 400.2v-98.4c0-6.2-9-14-19-14H429c-8.1 0-14.6-6.5-14.6-14.6V150.9c0-10.1-7.9-19.1-14.1-19.1h-98.1c-6.3 0-14.1 8.8-14.1 19.1v123c0 8.1-6.6 14.6-14.6 14.6h-123c-10.4 0-18.7 7.7-18.7 14v98.1c0 6.5 8.2 14 18.7 14h123c8.1 0 14.6 6.6 14.6 14.6v123c0 10.4 7.7 18.7 14.1 18.7h98.4c6.4 0 14.1-8.3 14.1-18.7l-.3-123c0-3.9 1.5-7.6 4.3-10.4 2.8-2.8 6.5-4.3 10.3-4.3h123c10.1.1 19.1-7.7 19.1-13.9zm-19-141.7c25.8 0 48.3 20.3 48.3 43.3v98.4c0 23.1-22.6 43.3-48.3 43.3H443.7l.3 108.3c0 26-19.9 48-43.4 48h-98.4c-23.5 0-43.4-22-43.4-48V443.9H150.4c-26 0-48-19.8-48-43.3v-98.1c0-23.4 22-43.3 48-43.3h108.4V150.9c0-25.7 20.2-48.3 43.4-48.3h98.1c23.1 0 43.4 22.6 43.4 48.3v108h108.4z" clip-rule="evenodd" style="fill: #019df4;"/></svg>
