<?xml version="1.0" encoding="UTF-8"?>
<svg xmlns="http://www.w3.org/2000/svg" viewBox="0 0 702.8 702.8"><path fill="#019df4" fill-rule="evenodd" d="M652.5 234.6l-184.5.1-.1-184.3c0-26.3-20.5-50.3-43-50.3L277.5 0c-22.5 0-43 24-43 50.3l.1 184.4-184.3.1c-26.8 0-50.3 20.1-50.3 43v147.4c0 22.9 23.5 43 50.3 43l184.5-.1.1 184.3c0 26.8 20.1 50.3 43 50.3h147.4c22.9 0 43-23.5 43-50.3l-.1-184.5 184.3-.1c26.3 0 50.3-20.5 50.3-43V277.4c0-22.4-24-42.8-50.3-42.8" clip-rule="evenodd" style="fill: #019df4;"/></svg>
