<?xml version="1.0" encoding="UTF-8"?>
<svg xmlns="http://www.w3.org/2000/svg" viewBox="0 0 702.8 702.8"><path fill="#019df4" fill-rule="evenodd" d="M527.9 231.9c0 69.4-23.6 119.4-70.3 148.4-6.4 4-10.3 11-10.3 18.5v52.5c0 11.8-2.8 20.4-8.4 25.5-7.1 6.5-19.2 7.9-28.1 7.9H293.7c-13 0-22.6-2.7-28.7-8.3-5.7-5-8.6-13.4-8.6-25.1V399c0-7.6-3.9-14.6-10.4-18.6-46.2-28.6-69.8-78.2-70.3-149.1l351.9.2v.4zm-197 427.3H373V528.5h-42.1v130.7zm-97-602.1c0-7.3 6.2-13.5 13.6-13.5 7.3 0 13.5 6.2 13.5 13.5v130.7h-27.1V57.1zm203.7 0c0-7.3 6.2-13.5 13.6-13.5 7.3 0 13.5 6.2 13.5 13.5V188h-27.1V57.1zM530.1 188h-21.7V57.1c0-31.5-25.7-57.1-57.2-57.1C419.7 0 394 25.7 394 57.1v130.8l-89.3-.1V57.1C304.7 25.6 279 0 247.5 0c-31.5 0-57.2 25.7-57.2 57.1v130.7h-16.4c-22.8 0-41.5 18.6-41.5 43 0 99.1 41.7 152.1 80.6 179.9v40.7c0 30.9 12.7 48.5 23.1 57.6 12.7 11.7 30.1 17.9 51.3 19v141c0 18.6 15.2 33.8 33.9 33.8H383c18.6 0 33.8-15.1 33.8-33.8V528c21.4-1 39-7.2 51.7-19 10.3-9.3 22.6-26.9 22.6-57.6v-40.9c38.9-28 80.6-80.8 80.6-178.6v-2.5c-.2-22.8-18.8-41.4-41.6-41.4z" clip-rule="evenodd" style="fill: #019df4;"/></svg>
