<?xml version="1.0" encoding="UTF-8"?>
<svg xmlns="http://www.w3.org/2000/svg" viewBox="0 0 702.8 702.8"><path fill="#019df4" fill-rule="evenodd" d="M541.4 229.4c0 73.6-25.7 126.8-76.3 157.9-4.4 2.7-7.1 7.4-7.1 12.6v53.7c0 14.3-3.7 24.8-11.1 31.5-7.3 6.7-18.8 10.1-34.1 10.1h-121c-15.4 0-26.9-3.4-34.6-10.3-7.6-6.6-11.4-17.1-11.4-31.2v-53.5c0-5.2-2.7-10-7.1-12.6-50.5-30.9-76.2-84.5-76.2-160.8 0-2.8 2.3-5.2 5.3-5.2l368.5.2c2.9 0 5.3 2.3 5.3 5.2-.2-.1-.2 2.4-.2 2.4zM322.6 673.1h58.6V524.8h-58.6v148.3zM222.3 51c0-11.7 9.7-21.3 21.5-21.3 11.9 0 21.6 9.6 21.6 21.3v140.9h-43.1V51zM433 51c0-11.7 9.7-21.3 21.5-21.3 11.9 0 21.6 9.6 21.6 21.3v141h-43L433 51zm103.2 141h-30V51c0-28.1-23.1-51-51.7-51-28.4 0-51.6 22.8-51.6 51v141l-107.4-.1V51c0-28.1-23.1-51-51.7-51-28.5 0-51.6 22.8-51.6 51v140.9h-24.5c-19.5 0-35.4 15.6-35.4 36.4 0 100.7 43.8 153.1 83.4 179.9v45.4c0 22.8 7.5 41.3 21.4 53.3 13.1 11.9 31.5 17.9 54.8 17.9h.7v150.9c0 14.9 12.3 27.1 27.5 27.1h63.8c15.1.1 27.4-12 27.5-27.1V524.8h1.6c23.1 0 41.4-6 54.4-17.9 13.7-12.2 20.9-30.7 20.9-53.4v-45.7c39.6-26.9 83.4-79 83.4-178.5v-2.5c-.2-19.1-16-34.8-35.5-34.8z" clip-rule="evenodd" style="fill: #019df4;"/></svg>
