<?xml version="1.0" encoding="UTF-8"?>
<svg xmlns="http://www.w3.org/2000/svg" viewBox="0 0 702.8 702.8"><path fill="#019df4" fill-rule="evenodd" d="M330.2 659.2h43.5V528.5h-43.5v130.7zm-100.4-602c0-7.4 6.4-13.5 14-13.5 7.7 0 14 6.1 14 13.5v138h-28v-138zm210.7 0c0-7.4 6.4-13.5 14-13.5 7.7 0 14 6.1 14 13.5v138.1h-28V57.2zm95.7 138.1h-22.5V57.1c0-31.5-26.5-57.2-59.2-57.2-32.6 0-59.2 25.6-59.2 57.2v138.1l-92.4-.1v-138c0-31.5-26.6-57.2-59.2-57.2s-59.2 25.6-59.2 57.2v138h-17c-19.5 0-35.4 15.3-35.4 35.7 0 98.6 43.8 149.9 83.4 176.2v44.5c0 22.3 7.5 40.4 21.4 52.2 11.7 10.5 28 16 48 17.1V669c0 18.7 15.7 33.8 35 33.8h63.8c19.3 0 35-15.1 35-33.8V520.8c20.2-1 36.6-6.5 48.5-17.1 13.9-12.1 20.9-29.7 20.9-52.3v-44.7c39.6-26.3 83.4-77.5 83.4-174.8v-2.5c0-18.8-15.8-34.1-35.3-34.1z" clip-rule="evenodd" style="fill: #019df4;"/></svg>
