<?xml version="1.0" encoding="UTF-8"?>
<svg xmlns="http://www.w3.org/2000/svg" viewBox="0 0 702.9 702.8"><g fill="#019df4"><path d="M196.3 575.9c-49.8 0-77.2-27.4-77.2-77.2s27.4-77.2 77.2-77.2 77.2 27.4 77.2 77.2-27.4 77.2-77.2 77.2zm0-134.4c-18.9 0-33.3 4.6-42.6 13.6-9.7 9.3-14.6 24-14.6 43.6s4.9 34.3 14.6 43.6c9.4 9 23.7 13.6 42.6 13.6s33.3-4.6 42.6-13.6c9.7-9.3 14.6-24 14.6-43.6s-4.9-34.3-14.6-43.6c-9.3-9.1-23.7-13.6-42.6-13.6zM547.3 575.9c-49.8 0-77.2-27.4-77.2-77.2s27.4-77.2 77.2-77.2 77.2 27.4 77.2 77.2-27.4 77.2-77.2 77.2zm0-134.4c-18.9 0-33.3 4.6-42.6 13.6-9.7 9.3-14.6 24-14.6 43.6s4.9 34.3 14.6 43.6c9.4 9 23.7 13.6 42.6 13.6s33.3-4.6 42.6-13.6c9.7-9.3 14.6-24 14.6-43.6s-4.9-34.3-14.6-43.6c-9.3-9.1-23.7-13.6-42.6-13.6z" style="fill: #019df4;"/><path d="M471 517.4H272.1c-5.5 0-10-4.5-10-10s4.5-10 10-10H471c5.5 0 10 4.5 10 10s-4.5 10-10 10z" style="fill: #019df4;"/><path d="M653.5 517.4H620c-5.5 0-10-4.5-10-10s4.5-10 10-10h33.5c14.1 0 29-14.9 29-29v-117c0-10.2-11.3-25-17.4-32.9-11.7-15.3-101.7-134.7-117.2-156.3-6.4-8.9-19.4-15.3-30.9-15.3H107.5c-14.1 0-29 14.9-29 29v292.5c0 14.1 14.9 29 29 29H127c5.5 0 10 4.5 10 10s-4.5 10-10 10h-19.5c-25.2 0-49-23.8-49-49V175.9c0-25.2 23.8-49 49-49H517c18 0 36.9 9.5 47.1 23.7 15.5 21.5 105.1 140.5 116.8 155.7 8.1 10.5 21.6 28.1 21.6 45.1v117c0 25.2-23.8 49-49 49z" style="fill: #019df4;"/><path d="M68.5 224.9H10c-5.5 0-10-4.5-10-10s4.5-10 10-10h58.5c5.5 0 10 4.5 10 10s-4.5 10-10 10zM68.5 322.4H10c-5.5 0-10-4.5-10-10s4.5-10 10-10h58.5c5.5 0 10 4.5 10 10s-4.5 10-10 10zM68.5 419.9H10c-5.5 0-10-4.5-10-10s4.5-10 10-10h58.5c5.5 0 10 4.5 10 10s-4.5 10-10 10z" style="fill: #019df4;"/></g></svg>
