<?xml version="1.0" encoding="UTF-8"?>
<svg xmlns="http://www.w3.org/2000/svg" viewBox="0 0 702.9 702.8"><path fill="#019df4" d="M679.3 300.2c-11.7-15.2-101.2-134-116.6-155.5-12-16.6-34.2-27.8-55.2-27.8h-390c-14.6 0-29.5 6.6-41 18s-18 26.4-18 41v19H20c-11 0-20 9-20 20s9 20 20 20h38.5v57.5H20c-11 0-20 9-20 20s9 20 20 20h38.5v57.5H20c-11 0-20 9-20 20s9 20 20 20h38.5v38.5c0 14.6 6.6 29.5 18 41s26.4 18 41 18h5c9.5 37.5 38.9 58.5 83.9 58.5s74.4-21 83.8-58.5h163.7c9.5 37.5 38.9 58.5 83.9 58.5s74.4-21 83.9-58.5H644c14.6 0 29.5-6.6 41-18s18-26.4 18-41v-117c-.1-20.4-14.9-39.7-23.7-51.2zm-473 245.7c-33.1 0-47.2-14.1-47.2-47.2s14.1-47.2 47.2-47.2 47.2 14.1 47.2 47.2-14.1 47.2-47.2 47.2zm331.4 0c-33.1 0-47.2-14.1-47.2-47.2s14.1-47.2 47.2-47.2 47.2 14.1 47.2 47.2-14.1 47.2-47.2 47.2z" style="fill: #019df4;"/></svg>
