<?xml version="1.0" encoding="UTF-8"?>
<svg xmlns="http://www.w3.org/2000/svg" viewBox="0 0 702.9 702.8"><g fill="#019df4"><path d="M206.3 585.9c-55.4 0-87.2-31.8-87.2-87.2s31.8-87.2 87.2-87.2 87.2 31.8 87.2 87.2-31.8 87.2-87.2 87.2zm0-134.4c-33.1 0-47.2 14.1-47.2 47.2s14.1 47.2 47.2 47.2 47.2-14.1 47.2-47.2-14.1-47.2-47.2-47.2zM537.8 585.9c-55.4 0-87.2-31.8-87.2-87.2s31.8-87.2 87.2-87.2 87.2 31.8 87.2 87.2-31.8 87.2-87.2 87.2zm0-134.4c-33.1 0-47.2 14.1-47.2 47.2s14.1 47.2 47.2 47.2 47.2-14.1 47.2-47.2-14.2-47.2-47.2-47.2z" style="fill: #019df4;"/><path d="M461.4 527.4H282.1c-11 0-20-9-20-20s9-20 20-20h179.3c11 0 20 9 20 20s-8.9 20-20 20z" style="fill: #019df4;"/><path d="M643.9 527.4h-33.5c-11 0-20-9-20-20s9-20 20-20h33.5c8.5 0 19-10.5 19-19v-117c0-6.8-11.6-21.9-15.4-26.8-11.8-15.3-101.8-134.9-117.4-156.5-4.5-6.3-14.5-11.2-22.8-11.2H117.5c-8.5 0-19 10.5-19 19v292.5c0 8.5 10.5 19 19 19H137c11 0 20 9 20 20s-9 20-20 20h-19.5c-14.6 0-29.5-6.6-41-18s-18-26.4-18-41V175.9c0-14.6 6.6-29.5 18-41s26.4-18 41-18h389.9c21.1 0 43.3 11.2 55.2 27.8 15.4 21.4 105 140.3 116.6 155.5 8.8 11.5 23.6 30.8 23.6 51.2v117c0 14.6-6.6 29.5-18 41s-26.3 18-40.9 18z" style="fill: #019df4;"/><path d="M78.5 234.9H20c-11 0-20-9-20-20s9-20 20-20h58.5c11 0 20 9 20 20s-9 20-20 20zM78.5 332.4H20c-11 0-20-9-20-20s9-20 20-20h58.5c11 0 20 9 20 20s-9 20-20 20zM78.5 429.9H20c-11 0-20-9-20-20s9-20 20-20h58.5c11 0 20 9 20 20s-9 20-20 20z" style="fill: #019df4;"/></g></svg>
