<?xml version="1.0" encoding="UTF-8"?>
<svg xmlns="http://www.w3.org/2000/svg" viewBox="0 0 702.8 702.8"><path fill="#019df4" fill-rule="evenodd" d="M373.6 645.2V363.6h235.2c-2.1 28.8-4.7 55.1-8.1 75.1-13.3 77.1-148.4 164.2-227.1 206.5M103.4 438.7c-3.5-20-6.2-46.3-8.3-75.1h235.1v281.6c-78.6-42.3-213.5-129.4-226.8-206.5m117.9-348c31.4-21.1 61.3-41.1 109-45.8v274.8H92.5c-3.6-70.2-4.4-145.2-4.7-182.8 59.9 3.1 97.4-22 133.5-46.2M616 136.9c-.2 37.6-1 112.6-4.6 182.8H373.6V44.9c47.6 4.7 77.5 24.8 109 45.8 36 24.2 73.2 49.4 133.4 46.2m43.4-24.5c0-6.4-3.4-12.3-8.2-16.4-4.8-4.1-11.8-5.9-18-4.9-57.9 9.1-88.4-11.2-126.8-37C468.6 28.7 425.7 0 352 0h-.3C278 0 235.1 28.7 197.2 54.1c-38.4 25.8-68.7 46.1-125.9 37.1-6.4-1.6-13.3-.2-18.6 3.9-5.2 4.2-8.3 10.5-8.4 17.2 0 9.6-.6 236 16.3 333.8 21.8 126.8 255.3 241.8 281.9 254.5.1.1.2 0 .3.1 2.7 1.3 5.7 2 8.9 2 3.1 0 6.1-.8 8.8-2 .1-.1.3 0 .4-.1 26.6-12.7 260.4-127.7 282.2-254.5 16.9-97.8 16.3-324.1 16.3-333.7" clip-rule="evenodd" style="fill: #019df4;"/></svg>
