<?xml version="1.0" encoding="UTF-8"?>
<svg xmlns="http://www.w3.org/2000/svg" viewBox="0 0 702.8 702.8"><path fill="#019df4" fill-rule="evenodd" d="M366.7 663.6V356.4h256.1c-2.2 32.8-5.1 63-9 85.4-16 93.3-187 190.3-247.1 221.8M90.2 441.8c-3.9-22.5-6.8-52.6-9.1-85.4h256v307.2C277 632.1 106.3 535.1 90.2 441.8M214 78.9c33.2-22.2 67.7-44.8 123.1-48.4v296H79.2c-4.2-79.3-5-166.2-5.2-202.1 63.7 5.5 102.6-20.4 140-45.5m415.8 45.3c-.1 35.7-.9 122.9-5.1 202.3h-258V30.6c55.4 3.5 89.9 26.2 123 48.4 37.2 24.8 75.7 50.4 140.1 45.2m29.6-16.8c-.3-4.4-2.4-8.4-5.8-11.1-3.5-2.8-8-4-12.5-3.3-62.3 9.9-96-12.8-135-38.9C468.3 28.8 425.3.1 352 0h-.2c-73.3 0-116.2 28.7-154.1 54.1-39.1 26.1-72.8 48.9-135.2 38.8-4.4-1-9 .1-12.5 2.9s-5.5 7.1-5.6 11.6c0 9.8-.6 240.3 16.6 339.6 22 127.9 273.8 249.3 284.5 254.4.1.1.2 0 .3.1 1.9.9 3.9 1.4 6 1.4s4.2-.5 6.1-1.4c.1-.1.1 0 .2-.1C368.9 696.3 621 574.9 643 447c17-99.4 16.4-329.9 16.4-339.6" clip-rule="evenodd" style="fill: #019df4;"/></svg>
