<?xml version="1.0" encoding="UTF-8"?>
<svg xmlns="http://www.w3.org/2000/svg" viewBox="0 0 702.8 702.8"><path fill="#019df4" fill-rule="evenodd" d="M71.4 91.4c57.2 9.2 87.6-11.5 125.9-37.6 34-23.1 72.2-48.7 132.9-53.8v322.9H49.1c-5-98.5-4.7-203.6-4.7-210.1 0-6.8 3.1-13.2 8.3-17.5 5.3-4.1 12.2-5.5 18.7-3.9zm588 21.5c0 6.5.3 111.6-4.6 210.1H373.6V0c60.7 5.1 98.9 30.7 132.9 53.8 38.4 26.1 69 46.5 126.8 37.4 12.4-1.9 24 6.6 25.9 18.9 0 1 .1 1.9.2 2.8zM373.6 702.8V367.4h278.6c-2.2 31.8-5 61.2-8.8 83.7v.1C623.5 568 428.7 674.8 373.6 702.8zM60.8 451.1c-3.9-22.5-6.7-51.9-9-83.8h278.5v335.4C275.2 674.8 80.6 568 60.8 451.1z" clip-rule="evenodd" style="fill: #019df4;"/></svg>
