<?xml version="1.0" encoding="UTF-8"?>
<svg xmlns="http://www.w3.org/2000/svg" viewBox="0 0 702.8 702.8"><path fill="#019df4" fill-rule="evenodd" d="M351.9 702.8c-3.1 0-6.3-.7-9.2-2.1C316.1 688 82.6 573 60.8 446.2 43.9 348.3 44.5 122 44.5 112.4c0-6.8 3.1-13.1 8.4-17.3 5.3-4.1 12.2-5.5 18.6-3.9 57.2 9.2 87.4-11.3 125.8-37.1C235.2 28.7 278.1 0 351.8 0h.3c73.7.1 116.6 28.8 154.4 54.2 38.4 25.8 68.8 46 126.8 36.9 6.2-1 13.1.7 17.9 4.9 4.8 4.2 8.1 10.1 8.2 16.5 0 9.6.6 235.9-16 333.8-21.8 126.8-255.6 241.8-282.2 254.5-3 1.3-6.2 2-9.3 2z" clip-rule="evenodd" style="fill: #019df4;"/></svg>
