<?xml version="1.0" encoding="UTF-8"?>
<svg xmlns="http://www.w3.org/2000/svg" viewBox="0 0 702.8 702.8"><path fill="#019df4" fill-rule="evenodd" d="M74.1 124.4c.2 55.9 1.9 235.9 16.1 317.4 17.7 102.7 222.8 210 261.7 229.4 38.9-19.5 244.3-126.8 262-229.4 13.9-81.7 15.6-262.1 15.8-317.7-64.9 5.1-102.9-20.4-140-45.1-36-24.1-73.4-49-137.7-49.1h-.2C287.4 29.9 250.1 54.8 214 79c-37.5 25-76.2 50.7-139.9 45.4zm277.8 578.4c-2.2 0-4.4-.5-6.4-1.4C334.9 696.3 83.1 574.9 61 447c-17.3-99.3-16.6-329.8-16.6-339.6-.1-8.2 6.5-14.8 14.7-14.9 1.2 0 2.5.1 3.7.4 62.1 9.9 95.8-12.7 134.9-38.8C235.6 28.7 278.5 0 351.8 0h.3c73.3.1 116.2 28.8 154 54.1 39 26.1 72.6 48.6 135.1 38.9 4.4-.7 8.9.5 12.4 3.3 3.4 2.7 5.5 6.8 5.8 11.1 0 9.8.6 240.3-16.3 339.6-22 128-274.1 249.3-284.8 254.4-2.1.9-4.2 1.4-6.4 1.4z" clip-rule="evenodd" style="fill: #019df4;"/></svg>
