<?xml version="1.0" encoding="UTF-8"?>
<svg xmlns="http://www.w3.org/2000/svg" viewBox="0 0 702.8 702.8"><path fill="#019df4" fill-rule="evenodd" d="M187.2 477.8c3.7 0 7.6.4 11.7 1.4 17.2 4.2 45 20 36.7 78.8-2.9 20.8-1.5 39.2 4.2 54.6 5.8 15.8 14.4 26.3 25.4 31.1 73.9 32.4 175.8 9.6 265.8-59.5 65.6-50.7 108.1-119.7 119.9-194.4.3-1.7.7-3.4 1.4-5 1.9-7.6 3.5-15.5 4.5-23.5 14.1-107.4-64.6-132.3-99.1-138-3.1-.3-8.4-1.1-13.2-1.8-4.8-.6-16.1-1.6-29.2-.5-6.5.4-12.6-1.7-17.1-6.1-10.8-10.4-20.2-22.8-27.8-36.9-20-36.8-24.5-79.4-12.8-119.9.2-.7.5-1.5.7-2.2.3-1 .7-3.1.1-4.3-.6-1.3-3.2-3.4-8.6-5.3-4-1.3-16.3-5.5-20.8 5.1-13.5 46.3-8.1 96.9 15.7 140.7 4.1 7.6 8.8 14.8 13.8 21.7 7 9.5 5.3 22.8-3.7 30.4-21 17.5-34.1 45.5-39.2 83.2-1.1 6.9-1.6 13.1-1.6 18.5 0 1.3-.1 2.6-.3 3.8-1.2 7.1.2 17 1.5 26.7 2.7 19.6 6.2 43.9-10.6 62.7-14.1 15.7-38.3 22.2-76.1 20.8-2.1-.1-4.2-.5-6.2-1.2-5-1.7-10.7-3.3-16.9-5-21.4-4.7-55.1-9.5-74.4-8.7-.9.1-1.8 0-2.7 0-.5.1-1 0-1.5 0-28.9-1.7-58.1 4.1-85.2 16.6-45.1 20.9-79.3 58.2-96.5 105-3 8 3.1 11.5 6 13.2 8.8 5.1 13.7 5.9 24-8.3 3.5-4.8 6.9-9.7 10.3-14.6 17.8-25.5 36.1-51.9 67.5-68l3.5-1.8c7.3-3.7 17.6-9.3 30.8-9.3m151 225c-32.2 0-62.9-5.9-90.5-18.1-22.2-9.8-39.2-29.3-49.2-56.4-8.3-22.5-10.5-48.2-6.6-76.5 2.2-16.2.9-28.2-3.2-29.2-2.3-.5-4.1.1-11.1 4l-4.5 2.4c-21.5 11.1-35.4 30.9-51.4 53.8-3.5 5.1-7.1 10.2-10.8 15.3-30.3 41.8-64.4 30.8-81.9 20.7C-3.4 600-3.6 567.4 4.1 550c20.7-56.6 63.2-102.8 119.1-128.7 33.5-15.4 70.1-22.5 105.8-20.6h.7c24.8-.9 61.5 4.5 86.2 10 6.7 1.8 12.3 3.3 17.3 4.9 31.5.9 37.8-5.4 38.5-6.2 2.9-3.3 1-16.7-.4-26.5-1.7-11.8-3.6-25.2-1.7-38.6.1-7.1.9-15 2.1-23.1 5.3-40.2 18.8-72.7 40.1-96.9-2.2-3.5-4.2-6.9-6.1-10.4-29.5-54.4-36.1-117.1-18.7-176.5 7.7-22 34.1-47.8 76.9-33.1 21.4 7.3 30.8 20.1 34.9 29.6 7.3 16.7 2.9 32.1.9 37.8-8.1 28.8-4.8 59 9.4 85.1 3.9 7.1 8.3 13.6 13.2 19.3 11.5-.3 21.2.5 28.1 1.3 4.7.7 9.1 1.4 12.8 1.8 77.4 12.7 153 68.7 137.3 188-1.4 10.7-3.5 21.4-6.2 31.5-.1.3-.1.5-.2.8-14.1 85-62.4 163.1-136.3 220.2-70.5 54.4-148.8 83.1-219.6 83.1" clip-rule="evenodd" style="fill: #019df4;"/></svg>
