<?xml version="1.0" encoding="UTF-8"?>
<svg xmlns="http://www.w3.org/2000/svg" viewBox="0 0 702.8 702.8"><path fill="#019df4" fill-rule="evenodd" d="M183.8 488.1c3.2 0 6.6.4 10.2 1.2 18.5 4.5 39 20.6 31.8 72.1-3.2 22.6-1.6 42.6 4.7 59.5 6.7 18.1 16.8 30.3 30 36.1 78.1 34.3 185 10.6 279-61.7 68.5-52.9 113-125.2 125.3-203.5.2-1.5.7-2.9 1.3-4.3 2.2-9 3.7-17 4.7-25 15.3-116.3-70.1-143.3-107.5-149.5-3.5-.3-8.8-1.1-13.5-1.8-5.4-.6-17.4-1.7-31.6-.5-4.2.4-8.6-1.2-11.7-4.2-10.5-10.2-19.6-22.2-27-35.8-19.4-35.8-23.8-77.3-12.4-116.7.2-.5.4-1.1.6-1.6.2-.5 2-5.7-.1-10.3-2.2-4.8-8.4-7.7-13.3-9.4-23.3-8-29.5 6.4-30.5 9.4-14.7 50.2-9 103.9 16.2 150.5 4.4 8 9.3 15.7 14.6 23 4.7 6.5 3.6 15.5-2.5 20.7-22.9 19.1-37.3 49.4-42.7 89.8-1.1 7.2-1.7 14-1.7 19.9-1.7 11.1-.2 21.8 1.3 32.2 2.7 19.4 5.9 41.4-8.9 57.9-12.7 14.3-35.6 20.4-71.8 18.8-1.4-.1-2.9-.3-4.2-.8-5.2-1.8-11.2-3.5-17.7-5.2-23.2-5.2-57.8-10-78.3-9.2-.8 0-1.5 0-2.3-.1h-1.3c-30.7-1.7-61.8 4.4-90.5 17.6C86.1 479.4 49.7 519 31.4 568.8c-1.9 4.7-4.1 14.8 9.5 22.7 13.9 8 22.8 5.3 34.4-10.6 3.6-5 7.2-10.1 10.7-15.1 17.6-25.3 35.8-51.4 66.1-66.9l3.7-2c7.2-3.8 16.3-8.8 28-8.8M338 702.8c-31.9 0-62.1-5.8-89.5-17.8-21-9.3-36.5-27.2-46.2-53.3-8-21.7-10.2-46.7-6.3-74.4 3.3-23.2.2-36-9-38.3-5.2-1.3-9.3.8-16.6 4.7l-4.4 2.4c-23.6 12.1-38.9 34.1-55.1 57.3-3.6 5.2-7.2 10.4-11 15.6-26.1 36-54.5 30.2-73.7 19-31-18-28.2-47.5-22.3-60.5 20.7-56.4 62.7-102.1 117.9-127.7 33.1-15.2 69.2-22.2 104.6-20.3.3 0 .7 0 1 .1 23.7-1.1 61.6 4.4 86.5 10 6.8 1.8 12.7 3.5 18.1 5.2 32.8 1.1 42.9-5.1 46.2-8.8 5.4-6 3.5-19.2 1.5-33.3-1.7-12.2-3.7-25.9-1.4-39.1-.2-4.7.5-13.1 1.8-21.6 5.6-42.1 20.1-75.5 43-99.4-3.2-4.9-6.2-9.9-9.1-15.1-29.1-53.8-35.7-115.8-18.5-174.5 6.7-19.3 30.2-42 68.9-28.8 19.2 6.6 27.6 17.8 31.2 26.1 6.5 14.8 2.2 28.8.6 33.2-8.9 31.5-5.3 64.5 10.1 93 4.8 8.7 10.5 16.8 16.9 23.8 12.8-.6 23.7.3 31 1.2 4.7.7 9.3 1.5 13.2 1.8 75.1 12.4 148.9 67 133.6 183.6-1.4 10.6-3.5 21.2-6.2 31.2-.1.4-.2.7-.3 1.1-14 85.1-62.4 163.4-136.4 220.7C487 674 408.7 702.8 338 702.8" clip-rule="evenodd" style="fill: #019df4;"/></svg>
