<?xml version="1.0" encoding="UTF-8"?>
<svg xmlns="http://www.w3.org/2000/svg" viewBox="0 0 702.8 702.9"><g fill="#019df4"><path d="M497.6 585.5H205.1c-5.5 0-10-4.5-10-10s4.5-10 10-10h292.5c5.5 0 10 4.5 10 10s-4.4 10-10 10zM497.6 478.3H205.1c-5.5 0-10-4.5-10-10s4.5-10 10-10h292.5c5.5 0 10 4.5 10 10s-4.4 10-10 10zM497.6 371H205.1c-5.5 0-10-4.5-10-10s4.5-10 10-10h292.5c5.5 0 10 4.5 10 10s-4.4 10-10 10z" style="fill: #019df4;"/><path d="M575.6 702.5H127.1c-15.4 0-29.5-14.1-29.5-29.5V29.5C97.6 14.6 112.2 0 127.1 0h273c2.7 0 5.2 1.1 7.1 2.9l195 195c1.9 1.9 2.9 4.4 2.9 7.1v468c0 15.7-13.8 29.5-29.5 29.5zM127.1 20c-3.8 0-9.5 5.7-9.5 9.5V673c0 4.3 5.2 9.5 9.5 9.5h448.5c4.6 0 9.5-4.9 9.5-9.5V209.1L396 20H127.1z" style="fill: #019df4;"/><path d="M595.1 215h-97.5c-31.4 0-58.3-10.3-77.8-29.7s-29.7-46.3-29.7-77.8V10c0-5.5 4.5-10 10-10s10 4.5 10 10v97.5c0 53.1 34.4 87.5 87.5 87.5h97.5c5.5 0 10 4.5 10 10s-4.4 10-10 10z" style="fill: #019df4;"/></g></svg>
