<?xml version="1.0" encoding="UTF-8"?>
<svg xmlns="http://www.w3.org/2000/svg" viewBox="0 0 702.8 703"><path fill="#019df4" d="M604.1 190.5l-195-185C405.4 2 400.5 0 395.4 0H131.9c-20.3 0-39.5 19.2-39.5 39.5v624c0 21 18.5 39.5 39.5 39.5h439c21 0 39.5-18.5 39.5-39.5V205c0-5.5-2.3-10.7-6.3-14.5zm-126.2 405H224.4c-11 0-20-9-20-20s9-20 20-20h253.5c11 0 20 9 20 20s-9 20-20 20zm0-107.3H224.4c-11 0-20-9-20-20s9-20 20-20h253.5c11 0 20 9 20 20s-9 20-20 20zm0-107.2H224.4c-11 0-20-9-20-20s9-20 20-20h253.5c11 0 20 9 20 20s-9 20-20 20zm5-176.5c-23.3 0-42.8-7.3-56.5-21s-21-33.3-21-56.5V57.1l155.4 147.4h-77.9z" style="fill: #019df4;"/></svg>
