<?xml version="1.0" encoding="UTF-8"?>
<svg xmlns="http://www.w3.org/2000/svg" viewBox="0 0 702.8 703"><g fill="#019df4"><path d="M580.4 244.5h-97.5c-34.1 0-63.5-11.3-84.8-32.7s-32.7-50.7-32.7-84.8V29.5c0-11 9-20 20-20s20 9 20 20V127c0 23.3 7.3 42.8 21 56.5s33.3 21 56.5 21h97.5c11 0 20 9 20 20s-8.9 20-20 20z" style="fill: #019df4;"/><path d="M570.9 703h-439c-21 0-39.5-18.5-39.5-39.5v-624C92.4 19.2 111.6 0 131.9 0h263.5c5.1 0 10.1 2 13.8 5.5l195 185c4 3.8 6.2 9 6.2 14.5v458.5c0 21-18.5 39.5-39.5 39.5zm-438-40h437.3l.2-.2V213.6L387.4 40H133.2c-.3.2-.6.5-.8.8v621.8c.1.1.3.3.5.4z" style="fill: #019df4;"/><path d="M477.9 595.5H224.4c-11 0-20-9-20-20s9-20 20-20h253.5c11 0 20 9 20 20s-9 20-20 20zM477.9 488.3H224.4c-11 0-20-9-20-20s9-20 20-20h253.5c11 0 20 9 20 20s-9 20-20 20zM477.9 381H224.4c-11 0-20-9-20-20s9-20 20-20h253.5c11 0 20 9 20 20s-9 20-20 20z" style="fill: #019df4;"/></g></svg>
