<?xml version="1.0" encoding="UTF-8"?>
<svg xmlns="http://www.w3.org/2000/svg" viewBox="0 0 702.8 702.8"><path fill="#019df4" fill-rule="evenodd" d="M538.6 534.9c-20 14.6-45.2 22.3-69.2 26.1 50.3-25.7 75-59.3 75-101.6 0-41.3-40.4-65.6-69.8-77.9 7.9-6.2 15.2-13.2 21.9-20.8 3.3 1.9 6.5 3.7 9.3 5.4 5.2 3.1 9.9 5.9 14.8 8.4 26.9 13.7 46.9 47.1 49.9 82.9 2.5 32.6-9 60.8-31.9 77.5M379 562.4c-2.7.8-5.2 2.3-7.1 4.3V420.5c24.6-1.7 48.7-8.2 70.9-19.1 27.1 7.7 71.5 27.9 71.5 58 0 46.1-44.2 79.7-135.3 103m32 111.1H307.8c4.2-25.5 20.6-37 51.6-37s47.4 11.5 51.6 37M197.4 250.3v-14.8h309v17.8c-1.5 90.8-75.1 138.4-147.1 138.4-77.7.1-161.1-37.1-161.9-141.4m-62.1-94c7.1-38.8 33.8-74.5 73.4-98.1C309.6-1.9 402.8 50 407.2 52.5c.4.2 34.8 19.5 40 50 2.8 16.8-3.7 34.9-19.3 53.8-9.7-4.7-27.1-19.6-29.6-66.1-.3-4.5-2.6-8.6-6.2-11.1-3.1-2.2-76.6-52.1-160.9-1.9-36 21.4-58.9 51-64.8 83.3-2.7 14.8-4.9 36.3 1.5 58-.1.8-.5 1.6-.5 2.4v29.5c.1 7.9.7 15.5 1.6 22.9-29.1-33.4-41.4-74.5-33.7-117m465 298.8c-3.8-46.2-29.7-88-66-106.5-4.3-2.2-8.4-4.7-13-7.4-2.3-1.5-4.9-2.9-7.5-4.5 13.6-23.1 22.1-50.8 22.5-82.9l.1-32.9c0-8.1-6.7-14.6-15-14.6H195.3c-2.5-11.2-2.4-24.3.6-40.6 5.9-32.3 34.3-53.6 50.9-63.4 55.7-33.3 105.5-11.8 122-2.7 7.6 83.4 60.7 88 63 88.1 4.4.3 9.1-1.4 12.2-4.7 26.5-28.4 37.6-57 32.7-85.2-7.5-45-53.1-70-54.7-70.8-4.5-2.6-112.3-63.3-229.1 6.2-46.9 27.9-78.7 71-87.2 118-11.9 65.4 14.6 127.9 72.7 171.6 1.4 1 3.1 1 4.7 1.5 25.9 56.2 82.4 91.5 158.7 96.1v188c-41.7 6-65.2 34.3-65.2 79.7 0 8.1 6.7 14.7 15 14.7H427c8.2.1 14.9-6.5 15-14.6 0-47.2-25.5-75.6-70.2-80.1v-21.5c2.3 2.4 5.3 4 8.6 4.5 1.8.3 19.1 2.8 43.6 2.8 37.7 0 92.2-6 132.5-35.4 31.4-23 47.3-60.6 43.8-103.4" clip-rule="evenodd" style="fill: #019df4;"/></svg>
