<?xml version="1.0" encoding="UTF-8"?>
<svg xmlns="http://www.w3.org/2000/svg" viewBox="0 0 702.8 702.8"><path fill="#019df4" fill-rule="evenodd" d="M531.5 531.8c-14.6 11.6-31.7 18.8-48.9 23 34.3-21.4 52.9-48 52.9-87.3 0-37.9-28.7-63.3-55-78.1 4.9-4.5 9.6-9.3 14-14.3 4.1 1.8 7.6 4 11.1 6.6 3 2.2 5.8 4.2 8.7 5.9 26.3 15.3 44 44.3 46.3 75.6.9 16.2-1.3 46.5-29.1 68.6M380.6 556V433.3c21.7-2.3 42.8-8.5 62.3-18.3 18.7 6.8 53.4 26.1 53.4 52.6-.1 33.5-18.1 56.5-115.7 88.4M145.9 166.1c6.6-37.8 31.5-72.7 68.5-95.8 94.6-59 182.2-8.2 186.8-5.5.2.1 26.3 14.6 30.7 39.2 2.7 14.9-3.2 31.8-17.6 50.2-5.7-4.9-12-19.7-13.5-47.9-.3-6.1-3.3-11.8-8.2-15.5-2.6-1.9-63-47.1-152.9-3.5-31.5 15.2-53.6 33.7-66.5 79.1-6.4 23.3-5.3 48 3 70.6v28c0 5 .4 9.8.8 14.6-30.6-34.5-36.9-79.7-31.1-113.5m453.6 294.5c-3.2-44-28.3-84.8-65.5-106.6-1.8-1-3.4-2.3-5.2-3.6-3.9-3-8.1-5.7-12.4-8.2 10.5-21.2 16.9-45.9 17.3-73.9l.1-31.4c0-11.6-9.4-20.9-20.9-20.9H213.8c-3.4-12.5-3.5-25.7-.1-38.2 9.6-33.9 24.4-43.2 44.3-52.9 50.6-24.4 87-12.4 101.8-5.2 3.4 33.8 13.9 57 31.1 69.2 13.8 9.7 29.2 10.1 38.2 7.4 3.8-1.1 7.1-3.2 9.7-6.1 28.3-31.7 39.9-63.1 34.4-93.6-8-44.7-50.5-67.8-51.2-68.2-4.6-2.8-112.9-66.5-229.8 6.3-47.1 29.3-79 74.6-87.6 124.2-10 57.2 6.6 139.9 85.8 184.7 1.6.9 3.3.8 4.9 1.3 25.9 49.8 76.9 82.2 143.3 88.3v167c-38.7 8-60.7 36.5-60.7 81.6 0 11.6 9.4 20.9 21 20.9H425c11.6 0 21-9.4 21-20.9 0-46.9-23.5-76.2-65.4-82.7v-4.2c4.5.9 24.9 4.8 52.2 4.8 36.4 0 84.9-6.9 123-37.2 30.7-24.4 46.6-61.5 43.7-101.9" clip-rule="evenodd" style="fill: #019df4;"/></svg>
