<?xml version="1.0" encoding="UTF-8"?>
<svg xmlns="http://www.w3.org/2000/svg" viewBox="0 0 702.8 702.8"><path fill="#019df4" fill-rule="evenodd" d="M529.4 530.7c-12 9.5-25.7 16.1-39.7 20.4 29.8-20.8 45.9-46.6 45.9-83.5 0-38.3-28.8-64-55.2-79 4.2-3.8 8.2-7.9 12-12.3 4.1 1.8 7.5 3.9 11.2 6.6 3 2.2 5.8 4.3 8.8 6 25.8 15.1 43.2 43.7 45.4 74.6 1.1 15.7-1.1 45.5-28.4 67.2m-149.5 23.8V433.4c21-2.2 41.4-8.1 60.3-17.4 17.9 6.1 53.6 25.1 53.6 51.6 0 32.8-17.9 55.4-113.9 86.9m20.4 106.4h-78c5.2-14.9 17.5-21.3 39-21.3s33.8 6.4 39 21.3m-182.5-396v-7h272.9v9.8c-1.3 82-66.1 124.9-129.6 124.9-68.7 0-142.5-33.6-143.3-127.7m-72-98.8c6.6-37.8 31.5-72.7 68.3-95.8 94.3-59 181.7-8.2 186.2-5.6.3.1 26.5 14.8 30.7 39.4 2.6 14.9-3.3 31.7-17.5 50-2.8-2.4-11.7-12.7-13.5-47.9-.3-6.1-3.3-11.8-8.1-15.5-2.5-1.9-63-47-152.6-3.6-31.4 15.2-53.4 33.7-66.2 79.1-6.4 22.7-5.4 47.7 2.9 70.6l.1.1v28c0 5 .4 9.8.8 14.6-30.6-34.4-36.9-79.6-31.1-113.4m453.7 294.4c-3.2-44.4-28.5-85.7-66-107.7-1.7-1-3.3-2.3-5-3.5-4-3-8.2-5.8-12.5-8.3 10.8-22.7 16.5-47.5 16.6-72.7l.1-31.4c0-11.6-9.4-20.9-20.9-20.9H213.4c-3.4-12.5-3.5-25.7-.1-38.2 9.6-33.8 24.4-43.2 44.2-52.9 50.5-24.4 86.8-12.4 101.6-5.2 3.4 33.8 13.8 57 31 69.1 13.7 9.7 29.1 10.1 38.1 7.4 3.8-1.1 7.1-3.2 9.8-6.1 28.2-31.6 39.7-63.1 34.3-93.6-8-44.7-50.4-67.8-51.2-68.2-4.5-2.8-112.4-66.5-229.1 6.4-47 29.4-78.8 74.6-87.4 124.2-9.9 57.2 6.6 139.9 85.6 184.7 1.6.9 3.3.8 5 1.3 25.8 49.8 76.7 82.1 142.9 88.3v166.9c-38.7 8-60.5 36.6-60.5 81.6 0 11.6 9.4 20.9 20.9 20.9h125.7c11.6 0 20.9-9.4 20.9-20.9 0-46.9-23.5-76.2-65.2-82.8v-2.8c17.1 3.2 34.6 4.8 52 4.7 36.6 0 85.3-7 123.6-37.5 30.8-24.4 46.9-62 44-102.8" clip-rule="evenodd" style="fill: #019df4;"/></svg>
