<?xml version="1.0" encoding="UTF-8"?>
<svg xmlns="http://www.w3.org/2000/svg" viewBox="0 0 800 800"><path fill="#019df4" d="M569.7 751c-12.6 0-24.9-3.2-35.9-9.3L406.7 672c-4.9-2.3-9-2.9-13.9.3l-126.6 69.4c-25.1 13.8-55.8 12.1-79.1-4.6-24.9-17.6-37.1-47.6-32.1-78.2l23.7-143.8c2.3-11.3.4-14-6.4-21.1L71.9 392c-21.2-21.6-28.4-53.2-18.6-81.8 9.3-28 32.8-48.1 61.2-52.4l139.1-21.1c8.5-1.6 11-2.8 16.3-13.6l61.5-129.8C344.2 66 370.5 49.1 400 49.1s55.8 17 68.7 44.2l61.8 130.5c5 9.4 6.6 11.5 17.5 13.1l137.7 20.9c28.4 4.3 51.8 24.4 61.2 52.4 9.7 28.6 2.5 60.3-18.6 81.8l-96.8 97.5c-11.1 11.1-11.5 12.1-9.7 25.5L645 658.9c5 30.6-7.3 60.6-32.1 78.2-12.6 9-27.7 13.9-43.2 13.9z" style="fill: #019df4;"/></svg>
