<?xml version="1.0" encoding="UTF-8"?>
<svg xmlns="http://www.w3.org/2000/svg" viewBox="0 0 800 800"><path fill="#019df4" d="M569.6 750.8c-12.3 0-24.6-3.1-35.9-9.3l-133.1-72.9c-.4-.2-.9-.2-1.3 0l-133.1 72.9c-25.2 13.8-55.6 12.1-79.1-4.6-24.9-17.6-37.2-47.6-32.1-78.2l25.4-154.4c.2-1.2-.2-2.3-.9-3.1L71.9 391.9c-21.2-21.5-28.3-52.8-18.6-81.8 9.3-28 32.8-48 61.2-52.3l148.7-22.5c.7-.1 1.3-.6 1.6-1.2 0-.1 0-.1.1-.2l66.5-140.5C344.2 66 370.6 49.1 400 49.1c29.4 0 55.8 16.9 68.7 44.2l66.5 140.5c0 .1 0 .1.1.2.3.6.9 1.1 1.6 1.2l148.7 22.5c28.4 4.3 51.9 24.4 61.2 52.4 9.6 29 2.5 60.3-18.7 81.8L620.5 501.2c-.8.8-1.1 1.9-.9 3.1L645 658.8c5 30.6-7.3 60.6-32.1 78.2-13 9.2-28.1 13.8-43.3 13.8zM400 629.6c6.7 0 13.3 1.7 19.4 5l133 72.9c17.7 9.7 32.5 1.7 38-2.2 9.9-7 19.3-21.2 16.2-40.2l-25.4-154.4c-2.2-13.2 2-26.9 11.4-36.5l.1-.1 107.7-109.4c13-13.2 13.4-30.5 9.5-42.3-4.8-14.3-16-24.1-30.1-26.2L531 273.6h-.2c-13.5-2.2-25-10.8-30.7-23.2L433.6 110c-6.5-13.8-19.1-22-33.6-22s-27 8.2-33.5 22L300 250.4c-5.8 12.4-17.2 21-30.7 23.2h-.2l-148.8 22.5c-14.1 2.1-25.4 11.9-30.1 26.2-3.9 11.8-3.5 29.1 9.5 42.3L207.3 474l.1.1c9.4 9.6 13.6 23.3 11.4 36.6l-25.4 154.4c-3.1 18.9 6.3 33.2 16.2 40.2 5.5 3.9 20.2 11.9 38 2.2l133.1-72.9c6-3.3 12.6-5 19.3-5z" style="fill: #019df4;"/></svg>
