<?xml version="1.0" encoding="UTF-8"?>
<svg xmlns="http://www.w3.org/2000/svg" viewBox="0 0 800 800"><path fill="#019df4" d="M574.8 751.3c-11 0-22-2.8-32.3-8.5l-137-75.1c-3.4-1.9-7.5-1.9-11 0l-137 75.1c-22.9 12.6-49.4 11-70.8-4.1-22.5-15.9-33.6-43-29-70.7l26.2-159c.7-4.3-.7-8.7-3.7-11.8L69.4 384.6c-19.1-19.4-25.6-47.8-16.8-74 8.5-25.6 29.1-43.3 55-47.2l153.2-23.2c4-.6 7.4-3.2 9.1-6.9l68.5-144.7C350 64 373.6 48.8 400 48.8s50 15.3 61.7 39.8l68.5 144.7c1.8 3.8 5.2 6.4 9.2 7l153.1 23.2c25.9 3.9 46.5 21.6 55 47.2 8.7 26.2 2.3 54.6-16.8 74L619.8 497.2c-3 3.1-4.4 7.5-3.6 11.8l26.2 159c4.6 27.7-6.5 54.9-29 70.7-11.9 8.4-25.2 12.6-38.6 12.6zM400 646.3c5.2 0 10.4 1.3 15.1 3.9l137 75.1c16.1 8.8 34.7 7.7 49.7-2.9 16.1-11.4 24.1-31 20.8-51.2l-26.2-159c-1.8-10.5 1.6-21.4 9.1-29l110.9-112.6c13.8-14 18.5-34.6 12.1-53.7-6.1-18.3-20.7-30.9-39-33.7L536.3 260c-10.7-1.7-19.7-8.5-24.2-18.3L443.6 97.1c-8.4-17.8-24.7-28.4-43.6-28.4-18.9 0-35.2 10.6-43.6 28.4l-68.5 144.7c-4.5 9.7-13.5 16.5-24.1 18.2l-153.2 23.2c-18.3 2.8-32.9 15.4-39 33.7-6.3 19.1-1.7 39.6 12.1 53.7l110.8 112.5c7.5 7.7 10.9 18.6 9.1 29.1l-26.2 159c-3.3 20.1 4.7 39.7 20.8 51.2 15 10.6 33.6 11.7 49.6 2.9l137-75.1c4.8-2.6 10-3.9 15.2-3.9z" style="fill: #019df4;"/></svg>
