<?xml version="1.0" encoding="UTF-8"?>
<svg xmlns="http://www.w3.org/2000/svg" viewBox="0 0 702.8 702.8"><path fill="#019df4" fill-rule="evenodd" d="M540.9 419.5c5.4-6 14.7-6.5 20.7-1.1s6.5 14.7 1.1 20.7c-3.2 3.5-78.8 85.9-209 87.4-1.8.1-3.6.1-5.4.1-25.9 0-135.6-5-208.2-86.2-5.4-6-4.8-15.3 1.2-20.7 6-5.4 15.3-4.8 20.7 1.2 72 80.6 189.7 76.5 190.9 76.3 117.3-1.3 187.3-77 188-77.7zm-189.6 254c213.8 0 322.2-108.3 322.2-322 0-213.8-108.4-322.2-322.2-322.2-213.7 0-322 108.4-322 322.2 0 213.7 108.3 322 322 322zm0-673.5c222 0 351.5 112.1 351.5 351.5S573.3 702.8 351.3 702.8 0 590.9 0 351.5 129.3 0 351.3 0zM244.8 295.9c-11.7 0-21.4-3.6-28.1-10.4-6.6-6.7-9.9-16-9.9-27.7 0-23.8 14.2-38.1 38-38.1s38 14.3 38 38.1c0 11.7-3.3 20.9-9.9 27.7-6.7 6.8-16.4 10.4-28.1 10.4zm213.2 0c-11.7 0-21.4-3.6-28.1-10.4-6.6-6.7-9.9-16-9.9-27.7 0-23.8 14.2-38.1 38-38.1s38 14.3 38 38.1c0 11.7-3.3 20.9-9.9 27.7-6.7 6.8-16.4 10.4-28.1 10.4z" clip-rule="evenodd" style="fill: #019df4;"/></svg>
