<?xml version="1.0" encoding="UTF-8"?>
<svg xmlns="http://www.w3.org/2000/svg" viewBox="0 0 702.8 702.8"><path fill="#019df4" fill-rule="evenodd" d="M535.5 414.6c8.1-9 22-9.7 31-1.5 8.9 8.1 9.7 21.9 1.6 30.9-3.3 3.6-81 88.3-214.3 89.8-.5 0-2.4.1-5.5.1-26.3 0-139-5.1-213.6-88.6-8.1-9.1-7.3-22.9 1.7-31 9.1-8.1 22.9-7.3 31 1.8C237.1 494 351.5 490 352.6 490c114.1-1.4 182.2-74.7 182.9-75.4zM351.3 658.9c206.9 0 307.6-100.6 307.6-307.4C658.9 144.6 558.3 44 351.3 44 144.5 44 43.9 144.6 43.9 351.5c0 206.8 100.6 307.4 307.4 307.4zm0-658.9c222 0 351.5 112.1 351.5 351.5S573.3 702.8 351.3 702.8 0 590.9 0 351.5 129.3 0 351.3 0zM244.8 299.6c-12.7 0-23.3-4-30.7-11.5-7.3-7.4-10.9-17.6-10.9-30.2 0-25.8 16-41.8 41.6-41.8 25.7 0 41.6 16 41.6 41.8 0 12.7-3.7 22.8-10.9 30.2-7.4 7.4-18 11.5-30.7 11.5zm213.2 0c-12.7 0-23.3-4-30.7-11.5-7.3-7.4-11-17.6-11-30.2 0-25.8 16-41.8 41.6-41.8 25.7 0 41.6 16 41.6 41.8 0 12.6-3.7 22.8-10.9 30.2-7.3 7.4-17.9 11.5-30.6 11.5z" clip-rule="evenodd" style="fill: #019df4;"/></svg>
