<?xml version="1.0" encoding="UTF-8"?>
<svg xmlns="http://www.w3.org/2000/svg" viewBox="0 0 702.8 702.8"><path fill="#019df4" fill-rule="evenodd" d="M351.3 0c222 0 351.5 112.1 351.5 351.5S573.3 702.8 351.3 702.8 0 590.9 0 351.5 129.3 0 351.3 0zm184.2 414.6c-.7.7-68.8 74.1-182.9 75.3-1.1 0-115.5 4.1-185.2-73.9-8.1-9.1-22-9.9-31-1.8s-9.8 22-1.7 31c74.6 83.5 187.3 88.6 213.6 88.6 3.1 0 5-.1 5.5-.1 133.3-1.5 211.1-86.2 214.3-89.8 8.1-9 7.3-22.8-1.6-30.9-9-8.1-22.9-7.5-31 1.6zm-290.7-115c12.7 0 23.3-4 30.7-11.5 7.3-7.4 10.9-17.6 10.9-30.2 0-25.8-16-41.8-41.6-41.8-25.7 0-41.6 16-41.6 41.8 0 12.6 3.7 22.8 10.9 30.2 7.4 7.4 18 11.5 30.7 11.5zm213.2 0c12.7 0 23.3-4 30.7-11.6 7.2-7.4 10.9-17.6 10.9-30.2 0-25.8-16-41.8-41.6-41.8-25.7 0-41.6 16-41.6 41.8 0 12.6 3.7 22.8 11 30.2 7.3 7.5 17.9 11.6 30.6 11.6z" clip-rule="evenodd" style="fill: #019df4;"/></svg>
