<?xml version="1.0" encoding="UTF-8"?>
<svg xmlns="http://www.w3.org/2000/svg" viewBox="0 0 703 703"><g fill="#019df4"><path d="M609.6 86.7C549.9 29.2 463 0 351.5 0S153.1 29.2 93.4 86.7C31.4 146.5 0 235.6 0 351.5c0 81.6 15.6 149.9 46.4 204l130.3-133.7c3.8-3.8 8.9-6 14.3-6 5.3 0 10.5 2.1 14.2 6l6.9 7c24.1-47.9 49.1-118.6 55.9-212.5-6.1-2.6-11.7-6.5-16.3-11.3-9.7-10.1-14.6-23.4-14.6-39.6s4.9-29.4 14.6-39.6c9.7-10.1 23-15.6 38.1-15.6s28.3 5.4 38.1 15.6 14.6 23.5 14.6 39.6-4.9 29.4-14.6 39.6c-5.5 5.8-12.4 10.2-20 12.7-5.4 76-22 138.1-41.1 186.2l173.6-171.4c-2.9-6.7-4.4-13.9-4.1-21.2.4-14 6.4-26.8 18-38.2s24.4-17.3 38.4-17.6c14.2-.4 27.4 5 38.1 15.6s16.3 23.8 15.9 38c-.4 14-6.4 26.8-18 38.2s-24.4 17.2-38.4 17.6c-7.4.2-14.8-1.2-21.6-4.2l-170.2 168c47.5-18.2 107.9-34 181.3-39.2 2.6-7.6 6.9-14.5 12.7-20 10.1-9.7 23.4-14.6 39.6-14.6s29.5 5 39.6 14.7 15.6 23 15.6 38.1-5.4 28.3-15.6 38.2-23.4 14.6-39.6 14.6-29.4-5-39.6-14.6c-4.8-4.6-8.7-10.2-11.3-16.3-94.2 6.8-165 32-213 56.2l8 8.1c7.6 7.8 7.7 20.2.1 28L146.1 655.7c54.4 31.4 123.2 47.3 205.4 47.3 111.5 0 198.4-29.2 258.1-86.7 62-59.7 93.4-148.8 93.4-264.8s-31.4-205-93.4-264.8z" style="fill: #019df4;"/><path d="M520.5 417.1c.9.9 3.7 3.5 11.9 3.5s11-2.6 11.9-3.5c1.6-1.6 3.3-3.9 3.3-9.3s-1.7-7.7-3.3-9.3c-.9-.9-3.7-3.5-11.9-3.5s-11 2.6-11.9 3.5c-1.6 1.6-3.3 3.9-3.3 9.2v.5c.1 5.2 1.8 7.4 3.3 8.9zM489.4 225c1.3 0 5.3-.1 11.3-6.1s6-9.6 6.1-10.8c.1-2.1-.4-4.8-4-8.4s-6.6-4.2-8.9-4.1c-1.3 0-5.3.1-11.3 6.1s-6 9.6-6.1 10.8c-.1 2.1.4 4.8 4 8.4l.1.1c3.7 3.7 6.5 4.1 8.8 4zM289.5 180.6h.6c5.3 0 7.6-1.7 9.2-3.3.9-.9 3.5-3.6 3.5-11.9s-2.6-11-3.5-11.9c-1.6-1.6-3.9-3.3-9.3-3.3s-7.7 1.7-9.3 3.3c-.9.9-3.5 3.6-3.5 11.9s2.6 11 3.5 11.9c1.5 1.6 3.7 3.2 8.8 3.3z" style="fill: #019df4;"/></g></svg>
