<svg xmlns="http://www.w3.org/2000/svg" viewBox="0 0 702.8 702.8"><path fill="#fff" d="M72.2 552.9zM139.3 629.2z"/><path fill="#019df4" d="M140.3 639.2c-5.5 0-10-4.5-10-10 0-2.7 1.1-5.2 3-7.1l115.8-114.3-28.6-29-9.7-9.8-18.9-19.2L80.2 560c-8.7 8.7-10.2 4-14.1.1-3.9-3.9-4-10.2-.1-14.1l.2-.2 118.7-117.2c3.9-3.9 10.3-3.8 14.1.1l16.6 16.8c27-49.9 57.3-128.5 63.9-236.3-7.5-1.8-14.3-5.7-19.6-11.2-7.9-8.2-11.9-19.2-11.9-32.6s4-24.4 11.9-32.6 18.4-12.5 30.9-12.5 22.9 4.2 30.9 12.5 11.9 19.2 11.9 32.6-4 24.4-11.9 32.6c-5.9 6.3-13.7 10.4-22.3 11.8-6.5 107.5-36 187.2-63.2 239.3l217.5-214.7c-4.5-6.7-6.8-14.7-6.5-22.8.3-11.3 5.4-21.9 15-31.4s20.2-14.4 31.6-14.7c11.6-.3 22 4 30.8 12.7s13.3 19.1 13 30.6c-.3 11.3-5.4 21.9-15 31.4s-20.2 14.4-31.6 14.7c-8.2.3-16.2-2-23.1-6.5L253.6 460.1c52.2-26.6 130.5-54.7 235.2-61 1.4-8.5 5.6-16.3 11.8-22.3 8.2-7.9 19.2-11.9 32.6-11.9s24.5 4 32.7 11.9 12.5 18.4 12.5 30.9-4.2 22.9-12.5 30.9-19.2 11.9-32.7 11.9-24.5-4-32.6-11.9c-5.6-5.3-9.5-12.1-11.2-19.7-108 6.6-186.6 37-236.6 64.1l17.5 17.7c3.9 3.9 3.8 10.3-.1 14.1L147.3 636.3c-1.8 1.9-4.4 2.9-7 2.9zm367.8-230.9v.1c.1 6.7 2.2 11.8 6.4 15.8 4.4 4.2 10.6 6.3 18.8 6.3s14.4-2.1 18.8-6.3 6.4-9.4 6.4-16.5-2-12.3-6.4-16.5-10.6-6.3-18.8-6.3-14.4 2.1-18.8 6.3-6.4 9.4-6.4 16.5v.6zM474.4 228c5 4.9 10.1 7.1 16.2 7s12.1-3.1 18.1-9c6-5.9 8.9-11.6 9-17.7s-2.1-10.9-7-15.8-10.2-7.1-16.2-7-12.1 3.1-18.1 9-8.9 11.6-9 17.7c-.2 5.9 2 10.9 7 15.8zm-184.1-37.6h.5c7.1 0 12.3-2 16.5-6.4s6.3-10.6 6.3-18.8-2.1-14.4-6.3-18.8-9.4-6.4-16.5-6.4-12.3 2-16.5 6.4-6.3 10.6-6.3 18.8 2.1 14.4 6.3 18.8c4 4.1 9.1 6.2 15.8 6.4h.2z"/><path fill="#019df4" d="M532.3 452.3c-14 0-25.4-4.2-33.9-12.4s-12.8-18.6-13.1-31.2v-.2-.9c0-13.1 4.4-23.9 13.1-32.3s20-12.4 33.9-12.4 25.4 4.2 33.9 12.4 13.1 19.2 13.1 32.3-4.4 23.9-13.1 32.3-19.9 12.4-33.9 12.4zm-23.3-44c.1 6.2 2 10.9 5.8 14.5 4 3.9 9.8 5.8 17.5 5.8s13.5-1.9 17.5-5.8 5.8-8.6 5.8-15.1-1.8-11.4-5.8-15.1-9.8-5.8-17.5-5.8-13.5 1.9-17.5 5.8-5.8 8.6-5.8 15.2v.5zM289.9 212.3h-1.1c-12.6-.3-23.1-4.6-31.2-13.1s-12.4-20-12.4-33.9 4.2-25.4 12.4-33.9 19.2-13.1 32.3-13.1 23.9 4.4 32.3 13.1 12.4 20 12.4 33.9-4.2 25.4-12.4 33.9-19.3 13.1-32.3 13.1zm0-70.4c-6.5 0-11.4 1.9-15.1 5.8s-5.8 9.8-5.8 17.5 1.9 13.5 5.8 17.5c3.7 3.8 8.3 5.7 14.5 5.8h.6c6.5 0 11.3-1.9 15.1-5.8s5.8-9.8 5.8-17.5-1.9-13.5-5.8-17.5-8.6-5.8-15.1-5.8zM488.9 256.8c-11.6 0-21.9-4.4-30.8-13.2l-.1-.1c-9.3-9.2-13.8-19.9-13.5-32 .3-11.8 5.5-22.8 15.5-32.6s21-15 32.9-15.3c12.1-.3 22.9 4.1 32.2 13.3s13.8 19.9 13.5 32c-.3 11.8-5.6 22.8-15.5 32.6s-21 15-32.9 15.3h-1.3zm-14.3-30.2c4.6 4.5 9.3 6.6 14.9 6.4 5.7-.1 11.2-2.9 16.8-8.4s8.4-10.9 8.5-16.4c.2-5.4-1.9-10-6.5-14.5s-9.3-6.6-14.9-6.4c-5.7.1-11.2 2.9-16.9 8.4s-8.4 10.9-8.5 16.4c0 5.4 2 10 6.6 14.5z"/><path fill="#019df4" d="M351.3 702.6C121.6 702.6.1 581.2.1 351.5S121.6.1 351.3.1c112.1 0 199 29 258.4 86.3 61.6 59.4 92.9 148.6 92.9 265 0 229.8-121.5 351.2-351.3 351.2zm0-682.5c-106.7 0-189 27.2-244.5 80.7-57.5 55.5-86.7 139.8-86.7 250.6S49.3 546.6 106.8 602c55.5 53.5 137.8 80.6 244.5 80.6s189-27.1 244.6-80.6c57.6-55.5 86.8-139.8 86.8-250.5s-29.2-195.1-86.8-250.6C540.3 47.3 458 20.1 351.3 20.1z"/></svg>