<?xml version="1.0" encoding="UTF-8"?>
<svg xmlns="http://www.w3.org/2000/svg" viewBox="0 0 702.8 702.8"><path fill="#019df4" fill-rule="evenodd" d="M100.3 83.4c-10.4 16.1-13.8 35.3-9.5 54 4.3 18.6 15.8 34.5 32.2 44.7 16.5 10.2 36 13.5 55 9.3 19-4.2 35.2-15.5 45.6-31.6 10.4-16.1 13.7-35.3 9.5-54-4.3-18.6-15.8-34.5-32.2-44.7-11.8-7.3-25.2-11.1-38.7-11.1-5.4 0-10.9.6-16.3 1.8-19 4.2-35.2 15.5-45.6 31.6zM16.9 136c-8.1 0-14.6-6.4-14.6-14.3s6.5-14.3 14.6-14.3h44.3c2-13.7 6.8-27.1 14.5-39.2 14.6-22.6 37.2-38.3 63.8-44.2 26.6-6 53.9-1.3 77 13s39.1 36.5 45.1 62.6c.6 2.6.6 5.2 1 7.8h425.3c8.1 0 14.6 6.4 14.6 14.3S696 136 687.9 136h-425c-2 13.7-6.7 27-14.5 39.1-14.5 22.6-37.2 38.4-63.8 44.3-7.6 1.7-15.2 2.5-22.8 2.5-19.1 0-37.8-5.3-54.3-15.5-23.1-14.3-39.1-36.5-45.1-62.6-.6-2.5-.6-5.2-1-7.8H16.9zm523.6 287.2c40.2 0 72.9-32.1 72.9-71.6S580.7 280 540.5 280s-73 32.1-73 71.6 32.8 71.6 73 71.6zM687 337.3c8.1 0 14.6 6.4 14.6 14.3s-6.5 14.3-14.6 14.3h-45.9c-7.1 48.4-49.3 85.9-100.6 85.9s-93.5-37.5-100.6-85.9H16c-8.1 0-14.6-6.4-14.6-14.3s6.5-14.3 14.6-14.3h423.9c7.1-48.4 49.3-85.9 100.6-85.9s93.5 37.5 100.6 85.9H687zM259.9 652.8c40.2 0 72.9-32.1 72.9-71.6 0-39.5-32.7-71.6-72.9-71.6s-73 32.1-73 71.6c.1 39.5 32.8 71.6 73 71.6zm427-85.9c8.1 0 14.6 6.4 14.6 14.3s-6.5 14.3-14.6 14.3H360.5c-7.1 48.4-49.3 85.9-100.6 85.9s-93.5-37.5-100.6-85.9H15.9c-8.1 0-14.6-6.4-14.6-14.3s6.5-14.3 14.6-14.3h143.4c7.1-48.4 49.3-85.9 100.6-85.9s93.5 37.5 100.6 85.9h326.4z" clip-rule="evenodd" style="fill: #019df4;"/></svg>
