<?xml version="1.0" encoding="UTF-8"?>
<svg xmlns="http://www.w3.org/2000/svg" viewBox="0 0 702.8 702.8"><path fill="#019df4" fill-rule="evenodd" d="M111.3 92.7c-9.1 14.1-12.1 31.3-8.3 47.6 3.8 16.4 13.9 30.4 28.4 39.4 14.6 9.1 31.9 12 48.5 8.2 16.8-3.7 31-13.6 40.3-27.9 9.1-14.2 12.1-31.1 8.3-47.6-3.8-16.4-14-30.6-28.4-39.4-14.5-9-31.9-11.9-48.5-8.2-16.6 3.6-31.1 13.6-40.3 27.9zm-87.9 54.7c-11.7.1-21.4-9.3-21.5-21.1 0-11.6 9.6-21 21.5-21h37.5C63.4 93 68 81.2 75 70.2c15.3-23.7 39.5-40.4 67.1-46.4 27.7-6.3 56.8-1.4 80.9 13.6 24.3 14.9 41.1 38.3 47.4 65.7.2.7.1 1.5.2 2.2h410.7c11.8 0 21.5 9.5 21.5 21.1s-9.6 21.1-21.5 21.1H270.7c-2.5 12.5-7.3 24.3-14.2 35-15.3 23.8-39.1 40.3-67.1 46.4-27.7 6.3-56.8 1.4-80.9-13.6-24-14.7-41-38.3-47.4-65.7-.2-.7-.2-1.4-.3-2.2H23.4zm513.4 267.4c35.5 0 64.4-28.3 64.4-63.1s-28.9-63.1-64.4-63.1c-35.5 0-64.4 28.3-64.4 63.1 0 34.7 28.9 63.1 64.4 63.1zm143.7-84.2c11.9 0 21.5 9.4 21.5 21.1 0 11.6-9.6 21-21.5 21h-38.6c-9.9 47.9-53.3 84.1-105.1 84.1s-95.1-36.2-105.1-84.1H22.5c-11.7.1-21.4-9.3-21.5-21.1 0-11.6 9.6-21.1 21.5-21.1h409.1c10-47.9 53.3-84.1 105.1-84.1s95.2 36.2 105.1 84.1h38.7v.1zM261.8 639.5c35.5 0 64.4-28.3 64.4-63.1s-28.9-63.1-64.4-63.1-64.4 28.3-64.4 63.1 28.9 63.1 64.4 63.1zm418.6-84.1c11.9 0 21.5 9.4 21.5 21.1 0 11.6-9.6 21.1-21.5 21.1H366.9c-10 47.9-53.3 84.1-105.1 84.1s-95.1-36.2-105.1-84.1H22.5c-11.7.1-21.4-9.3-21.5-21.1 0-11.6 9.6-21 21.5-21h134.2c10-47.9 53.3-84.1 105.1-84.1s95.1 36.2 105.1 84.1l313.5-.1z" clip-rule="evenodd" style="fill: #019df4;"/></svg>
