<?xml version="1.0" encoding="UTF-8"?>
<svg xmlns="http://www.w3.org/2000/svg" viewBox="0 0 702.8 702.8"><path fill="#019df4" fill-rule="evenodd" d="M700 359.9c3-7.3 3-15.4 0-22.7-.7-1.8-2-3.1-2.9-4.6-1-1.6-1.7-3.3-3.1-4.8L393.1 9.4c-11.4-12.1-30.5-12.6-42.6-1.2s-12.6 30.5-1.2 42.6l252.9 267.5H29.6C13 319 0 333 .6 349.7c.6 15.7 13.2 28.4 29 29h572.6L343.8 651.9c-11.4 12.1-10.9 31.2 1.1 42.6 12.1 11.4 31.2 10.9 42.6-1.1L694 369.2c1.4-1.4 2-3.2 3.1-4.8.9-1.5 2.2-2.8 2.9-4.5" clip-rule="evenodd" style="fill: #019df4;"/></svg>
