<?xml version="1.0" encoding="UTF-8"?>
<svg xmlns="http://www.w3.org/2000/svg" viewBox="0 0 800 800"><path fill="#019df4" d="M752.3 398.5c0 5.4-1 10.7-3 15.7-6.3 15.5-21.5 25-39.5 24.8l-130.3.1c-.7.4-1.4.8-2 1.4l-.7 245.7c.3 22-5.2 38.2-16.7 49.4s-27.7 16.4-49.7 15.8H294.7c-15 .3-36.6-1.1-51.6-15.6s-17.1-36-17.4-50.9v-.3l.1-239.6c-.3-2-.9-3.8-1.9-5.6l-127.2.2h-.2c-30.6-.2-41-14.8-44.5-23.5-6-14.9-.5-32.1 15-47.2L378 59.8c3-3.1 11.8-12 24.6-11.9 5.4 0 13.5 1.8 21.2 9.8l310.7 302.8c11.6 10.7 17.8 24.6 17.8 38zm-173.8 40.6zm-1.1-1.1z" style="fill: #019df4;"/></svg>
