<?xml version="1.0" encoding="UTF-8"?>
<svg xmlns="http://www.w3.org/2000/svg" viewBox="0 0 800 800"><path fill="#019df4" d="M402.2 750.9c-5.4 0-10.7-1-15.7-3-15.5-6.3-25-21.5-24.8-39.5l-.1-130.3c-.4-.7-.8-1.4-1.4-2l-245.7-.7c-22 .3-38.2-5.2-49.4-16.7S48.7 531 49.3 509V293.4c-.3-15 1.1-36.6 15.6-51.6s36-17.1 50.9-17.4h.3l239.6.1c2-.3 3.8-.9 5.6-1.9L361 95.5v-.2c.2-30.6 14.8-41 23.5-44.5 14.9-6 32.1-.5 47.2 15l309.1 311c3.1 3 12 11.8 11.9 24.6 0 5.4-1.8 13.5-9.8 21.2L440.3 733.4c-10.9 11.4-24.7 17.5-38.1 17.5zm-40.7-173.7zm1.2-1.1z" style="fill: #019df4;"/></svg>
