<?xml version="1.0" encoding="UTF-8"?>
<svg xmlns="http://www.w3.org/2000/svg" viewBox="0 0 800 800"><path fill="#019df4" d="M322.5 711.6c-14.1 0-28.3-6.6-41.6-19.9L100.6 512.3l-.6-.6c-11.4-12.4-15.7-25.3-12.9-38.5 2.6-12 10.8-21.6 18.6-29.4l.5-.5 182.6-171.8-92.1-92.1-.3-.3c-11.3-11.8-14.6-31.9-7.8-47.8 6.4-14.8 20.3-23.6 37.3-23.5h431.5c10-.7 19 2.5 25.6 9.1 6.6 6.6 9.8 15.6 9 25.6l-.2 433.6c.1 15.2-8 27.9-21.9 34.1-16.3 7.3-37.4 4-50.2-7.7-.2-.2-.4-.4-.6-.5l-84.8-85-171 175.1-.2.2c-12.8 12.9-26.7 19.3-40.6 19.3zM128.1 485.4L308 664.5c5.6 5.6 10.7 8.7 14.3 8.8h.1c4.5 0 9.8-4.4 13.5-8.1l173.3-177.5.2-.2c13.7-13.7 35.7-14 49.1-.6l87.4 87.4c1.5 1.1 5.3 1.6 7.6 1.1l.2-429.2h-428c-.9 0-1.5.1-1.8.2-.7 1.3-.6 4.9.3 6.3l94.7 94.7c6.5 6.5 10.1 15.6 9.8 25-.3 9.1-4 17.6-10.5 24.1l-.4.4-185.1 174.2c-6 6.1-7.5 8.8-7.9 9.8.3.6 1.1 2.1 3.3 4.5zm96.3-332.6z" style="fill: #019df4;"/></svg>
