<?xml version="1.0" encoding="UTF-8"?>
<svg xmlns="http://www.w3.org/2000/svg" viewBox="0 0 702.8 702.8"><path fill="#019df4" fill-rule="evenodd" d="M672.7 323.9H100L358.5 50.5c11.1-12.4 10.2-31.4-2.2-42.6-12-10.8-30.3-10.3-41.6 1.2L8.2 333.3c-1.3 1.4-2 3.2-3.1 4.8-1 1.5-2.2 2.9-2.9 4.6C.8 346.3 0 350.1 0 354v.2c.1 3.8.9 7.5 2.3 11.1.7 1.8 1.9 3.2 3 4.7 1 1.5 1.6 3.3 2.9 4.7l301 318.4c11.4 12.1 30.4 12.7 42.5 1.3 0 0 .1 0 .1-.1 12.1-11.4 12.6-30.5 1.2-42.6L100 384.1h572.7c16.6 0 30.1-13.5 30.1-30.2 0-16.6-13.5-30.1-30.1-30" clip-rule="evenodd" style="fill: #019df4;"/></svg>
