<?xml version="1.0" encoding="UTF-8"?>
<svg xmlns="http://www.w3.org/2000/svg" viewBox="0 0 800 800"><path fill="#019df4" d="M514.1 751.5c-1.2 0-2.4 0-3.6-.1H294.7c-15 .3-36.6-1.1-51.6-15.6-15.1-14.6-17.1-36-17.4-50.9v-.3l.1-239.6c-.1-1.4-.9-3.7-1.9-5.6l-127.2.2h-.2c-30.6-.2-41-14.8-44.5-23.5-6-14.9-.5-32.1 15-47.2L378 59.8c3-3.1 11.7-11.9 24.5-11.9h.2c5.4 0 13.5 1.8 21.2 9.8l310.7 302.8c15.9 15.2 21.7 36.3 14.5 53.7-6.3 15.5-21.4 25.1-39.5 24.8l-130.3.1c-.6.3-1.4.8-2 1.3l-.7 245.7c.3 22-5.2 38.1-16.7 49.4-10.6 10.8-25.7 16-45.8 16zm-3.4-39h.6c7.4.2 17.1-.4 21.5-4.6 4.3-4.3 5.1-13.9 5-21.3v-.3l.7-248.3c0-20.9 21.9-37.7 40-37.7l131.3-.2h.3c1.9 0 2.8-.4 3-.5.5-.7.6-5.4-5.3-11l-.2-.2L402.2 90.8 94.5 396.6l-.2.2c-1.4 1.3-2.4 2.5-3.2 3.5 1.5.2 3.4.4 5.8.4l132.5-.2c23.3 0 35.5 28.9 35.5 44.5l-.1 239.5c.2 12 2.1 20.1 5.5 23.4 3.4 3.3 11.7 4.9 24 4.6h216.4zm67.8-273.3zm-1-1.2zM407.4 85.7z" style="fill: #019df4;"/></svg>
