<?xml version="1.0" encoding="UTF-8"?>
<svg xmlns="http://www.w3.org/2000/svg" viewBox="0 0 800 800"><path fill="#019df4" d="M488.6 712.1c-14.2 0-25.1-10.9-31.6-17.2l-.1-.1-184.5-187c-1.3-1.3-3-2.1-4.8-2.1-.9 0-2.6.1-3.9 1.5l-99 99-.2.2c-9.4 9-26.1 11.6-38.9 6.1-11.8-5.1-18.6-15.9-18.5-29.6V133c-.6-7.6 1.7-14.4 6.5-19.2 4.8-4.8 11.7-7.1 19.2-6.5l452.2.2h.4c11.7 0 21.2 6.2 26 16.9 5.9 13.3 3.2 31.1-6.3 41.4l-.3.3-91.5 91.5c-1.3 1.3-1.5 3-1.5 3.9.1 1.8.8 3.5 2.2 4.8l181.1 181.8c23.2 23.2 23 48-.6 71.6L514.3 700.2l-.3.3c-9.3 8.5-17.8 11.6-25.4 11.6zm18.6-18.9zm-36-12.4c14.5 14.4 19.3 14.1 29.1 5.2l180.2-180.3c7.9-7.9 11.9-15.2 12-21.8.1-6.7-3.6-13.7-11.4-21.5L499.9 280.5c-4.9-4.9-7.8-11.5-8-18.3-.2-7.1 2.4-13.7 7.3-18.7l91.4-91.4c4-4.5 5.3-13.6 2.6-19.6-2-4.5-5.3-5.1-7.9-5.1h-.1l-452.7-.2c-.3 0-.7 0-1-.1-1.7-.2-3 .1-3.6.7-.6.6-.9 2-.7 3.6 0 .3.1.7.1 1v450.3c0 5.8 2 9.3 6.4 11.2 6 2.6 13.8.9 17.1-2.2l98.9-98.9c4.9-4.9 11.6-7.5 18.7-7.3 6.9.2 13.4 3 18.3 8l184.5 187.3z" style="fill: #019df4;"/></svg>
