<?xml version="1.0" encoding="UTF-8"?>
<svg xmlns="http://www.w3.org/2000/svg" viewBox="0 0 800 800"><path fill="#019df4" d="M288.7 751.8c-22 0-37.3-4.9-48-15.2-10.3-10-15.5-24.4-15.8-44.2v-.2l.1-246.4c0-3.4-2.3-6.2-5.2-6.2l-125.6.8c-18.7.6-35.4-8.7-41.6-23.3-5.9-13.7-1.6-29.2 11.8-42.3L384.3 57c6.2-6.3 12.2-9.4 18.4-9.4h.1c5.5 0 10.6 2.5 15.2 7.3L736.8 375c13.5 12.9 18.5 30.5 12.7 44.8-5 12.3-16.6 19.6-31.2 19.6h-.6l-134.9.2c-2.9 0-5.2 2.8-5.2 6.2v246.3c.3 18.7-5 33.4-15.7 43.9-11.1 10.9-27.8 16.3-48.3 15.7h-222c-.9 0-1.9.1-2.9.1zM246 692.1c.2 13.8 3.3 23.4 9.4 29.3 6.8 6.6 18.6 9.6 36 9.3H514.2c10.2.3 24.2-1.1 33-9.7 6.4-6.3 9.6-15.9 9.4-28.6V445.8c0-15 11.8-27.2 26.3-27.2l135-.2h.5c5.8 0 9.9-2.3 11.7-6.5 1.9-4.8 1.1-13.3-7.8-21.7-.1-.1-.2-.1-.2-.2L403 69.6l-.2-.2c-.1-.2-.3-.3-.4-.4-.6.4-1.7 1.2-3.1 2.7l-.1.1-319.9 318c-4.1 4-10.4 11.8-7.3 19 2.8 6.5 11.9 10.9 21.7 10.5h.3l125.8-.8c14.5 0 26.3 12.2 26.3 27.2l-.1 246.4z" style="fill: #019df4;"/></svg>
