<?xml version="1.0" encoding="UTF-8"?>
<svg xmlns="http://www.w3.org/2000/svg" viewBox="0 0 800 800"><path fill="#019df4" d="M670.4 692.7c-.8 0-1.6 0-2.5-.1l-452.2-.2h-.4c-11.7 0-21.2-6.2-26-16.9-5.9-13.3-3.2-31.1 6.3-41.4l.3-.3 91.5-91.5c1.3-1.3 1.5-3 1.5-3.9-.1-1.8-.8-3.5-2.2-4.8L105.8 351.7c-11.6-11.6-17.4-23.7-17.3-35.9.2-12.1 6-23.8 17.9-35.6L286.6 99.7l.3-.3c26.6-24.4 47.1-4.1 56.9 5.6l.1.1 184.5 187c1.3 1.3 3 2.1 4.8 2.1.9 0 2.6-.1 3.9-1.5l99-99 .2-.2c9.4-9 26.1-11.6 38.9-6.1 11.8 5.1 18.6 15.9 18.5 29.6v449.8c.6 7.6-1.7 14.4-6.5 19.2-4.4 4.5-10.2 6.7-16.8 6.7zm-454.7-20.2l452.7.2c.3 0 .7 0 1 .1 1.7.2 3-.1 3.6-.7.6-.6.9-2 .7-3.6 0-.3-.1-.7-.1-1V217.1c0-5.8-2-9.3-6.4-11.2-6-2.6-13.8-.9-17.1 2.1l-98.9 98.9c-4.9 4.9-11.6 7.5-18.7 7.3-6.9-.2-13.4-3-18.3-8l-184.5-187c-14.5-14.4-19.3-14.1-29.1-5.2L120.5 294.3c-7.9 7.9-11.9 15.2-12 21.8-.1 6.7 3.6 13.7 11.4 21.5L301 519.4c4.9 4.9 7.8 11.4 8 18.3.2 7.1-2.4 13.7-7.3 18.7l-91.4 91.4c-4 4.5-5.3 13.6-2.6 19.6 2 4.5 5.2 5.1 7.9 5.1h.1z" style="fill: #019df4;"/></svg>
