<?xml version="1.0" encoding="UTF-8"?>
<svg xmlns="http://www.w3.org/2000/svg" viewBox="0 0 800 800"><path fill="#019df4" d="M130.6 692.9c-6.6 0-12.5-2.3-16.8-6.6-4.8-4.8-7.1-11.7-6.5-19.2l.2-452.2c-.1-11.9 6-21.5 16.9-26.3 13.3-5.9 31.1-3.2 41.4 6.3l.3.3 91.5 91.5c1.3 1.3 3 1.5 3.9 1.5 1.8-.1 3.5-.8 4.8-2.2l181.8-181.1c11.6-11.6 23.7-17.5 35.9-17.3 12.1.2 23.8 6 35.6 17.9l180.5 180.3.3.3c24.4 26.6 4.1 47.1-5.6 56.9l-.1.1-187 184.5c-2.5 2.5-2.9 6.5-.6 8.7l99 99 .2.2c9 9.4 11.6 26.1 6.1 38.9-5.1 11.8-15.8 18.5-29.5 18.5H133.1c-.8-.1-1.7 0-2.5 0zm9.3-487.6c-2.6 0-5.2.5-7.3 1.4-4.5 2-5.1 5.3-5.1 7.9v.1l-.2 452.7c0 .3 0 .7-.1 1-.2 1.7.1 3 .7 3.6.6.6 2 .9 3.6.7.3 0 .7-.1 1-.1h450.3c5.8 0 9.3-2 11.2-6.4 2.6-6 .9-13.8-2.2-17.1l-98.9-98.9c-4.9-4.9-7.5-11.6-7.3-18.7.2-6.9 3-13.4 8-18.3l187-184.5c14.4-14.5 14.1-19.3 5.2-29.1l-180.1-180c-7.9-7.9-15.2-11.9-21.8-12-6.7-.1-13.7 3.6-21.5 11.4L280.6 300.1c-4.9 4.9-11.5 7.8-18.3 8-7.1.2-13.7-2.4-18.7-7.3l-91.4-91.4c-2.9-2.6-7.6-4.1-12.3-4.1z" style="fill: #019df4;"/></svg>
