<?xml version="1.0" encoding="UTF-8"?>
<svg xmlns="http://www.w3.org/2000/svg" viewBox="0 0 800 800"><path fill="#019df4" d="M88.3 323.4v-.8c.2-14.1 6.9-27.8 20-40.8l179.4-180.2.6-.6c12.4-11.4 25.3-15.7 38.5-12.9 12 2.6 21.6 10.8 29.4 18.6l.5.5 171.8 182.6 92.1-92.1.3-.3c11.8-11.3 31.9-14.6 47.8-7.8 14.8 6.3 23.6 20.2 23.6 37.1V658.3c.7 10-2.5 19-9.1 25.6s-15.7 9.8-25.6 9l-433.6-.2c-14.8.4-28.3-8.3-34.1-21.9-7.3-16.3-4-37.5 7.7-50.2l.5-.6 84.9-84.9-175.1-171-.2-.2c-12.9-12.6-19.4-26.3-19.4-40.5zm558.9-98z" style="fill: #019df4;"/></svg>
