<?xml version="1.0" encoding="UTF-8"?>
<svg xmlns="http://www.w3.org/2000/svg" viewBox="0 0 800 800"><path fill="#019df4" d="M406.1 750.6c-10.2 0-20.6-4.9-29.9-14.4L58.3 416.4c-6.4-6.2-9.5-12.3-9.4-18.5 0-5.5 2.5-10.6 7.3-15.2L376.4 63.9c12.9-13.5 30.5-18.5 44.8-12.7 12.5 5.1 19.8 17 19.6 31.7l.2 134.9c0 2.9 2.8 5.2 6.2 5.2h246.3c18.7-.3 33.4 5 43.9 15.7 10.9 11.1 16.3 27.8 15.7 48.3v222c.4 23.6-4.4 39.7-15.2 50.9-10 10.3-24.4 15.5-44.2 15.8h-.2l-246.4-.1c-3.4 0-6.2 2.3-6.2 5.2l.8 125.6c.6 18.7-8.7 35.4-23.3 41.6-3.9 1.8-8.1 2.6-12.3 2.6zM70.3 398.3c.4.6 1.2 1.7 2.7 3.1l.1.1 318 319.9c4 4.1 11.8 10.4 19 7.3 6.5-2.8 10.9-11.9 10.5-21.7v-.3l-.8-125.8c0-14.5 12.2-26.3 27.2-26.3l246.3.1c13.8-.2 23.4-3.3 29.3-9.4 6.6-6.8 9.6-18.6 9.3-36V286.9v-.4c.3-10.2-1.1-24.2-9.7-33-6.3-6.4-15.9-9.6-28.6-9.4H447.1c-15 0-27.2-11.8-27.2-26.3l-.2-135v-.2c.1-6-2.2-10.3-6.5-12-4.8-1.9-13.3-1.1-21.7 7.8l-.2.2-320.4 319-.2.2c-.1.2-.2.4-.4.5z" style="fill: #019df4;"/></svg>
