<?xml version="1.0" encoding="UTF-8"?>
<svg xmlns="http://www.w3.org/2000/svg" viewBox="0 0 800 800"><path fill="#019df4" d="M49.7 400.9c0-5.4 1-10.7 3-15.7 6.3-15.5 21.5-25 39.5-24.8l130.3-.1c.7-.4 1.4-.8 2-1.4l.7-245.7c-.3-22 5.2-38.2 16.7-49.4s27.8-16.5 49.7-15.8h215.7c15-.3 36.6 1.1 51.6 15.6s17.2 36 17.4 50.9v.3l-.1 239.6c.3 2 .9 3.8 1.9 5.6l127.2-.2h.2c30.6.2 41 14.8 44.5 23.5 6 14.9.5 32.1-15 47.2L424 739.6c-3 3.1-11.8 12-24.6 11.9-5.4 0-13.5-1.8-21.2-9.8L67.3 439c-11.4-10.9-17.6-24.7-17.6-38.1zm173.8-40.7zm1.1 1.2z" style="fill: #019df4;"/></svg>
