<?xml version="1.0" encoding="UTF-8"?>
<svg xmlns="http://www.w3.org/2000/svg" viewBox="0 0 800 800"><path fill="#019df4" d="M405.2 751c-11.6 0-23.8-6-34.9-17.4l-309.1-311c-3.1-3-12-11.8-11.9-24.7 0-5.4 1.8-13.5 9.8-21.2L361.7 66c15.2-15.9 36.3-21.7 53.7-14.5 15.5 6.3 25 21.4 24.8 39.5l.2 130.3c.3.6.8 1.4 1.4 2l245.7.7c22-.2 38.2 5.2 49.4 16.7 11.3 11.5 16.4 27.7 15.8 49.6v215.8c.3 15-1.1 36.6-15.6 51.6-14.6 15.1-36 17.2-50.9 17.4h-.3l-239.6-.1c-1.4.1-3.7.9-5.6 1.9l.2 127.2v.2c-.2 30.6-14.8 41-23.5 44.5-3.9 1.4-8 2.2-12.2 2.2zM92.1 398.6L398 706.3l.2.2c1.3 1.4 2.5 2.4 3.5 3.2.2-1.5.4-3.4.4-5.8l-.2-132.5c0-23.3 28.9-35.5 44.5-35.5l239.5.1c12-.2 20-2.1 23.3-5.5 3.3-3.4 4.9-11.7 4.6-24V290v-.6c.2-7.4-.4-17.1-4.6-21.4-4.3-4.4-14-5.2-21.3-5.1h-.3l-248.3-.7c-20.9 0-37.7-21.9-37.7-40l-.2-131.3v-.3c0-1.9-.4-2.8-.5-3-.7-.5-5.4-.6-11 5.3l-.2.2L92.1 398.6zm347.2-175.3zm1.2-1.1z" style="fill: #019df4;"/></svg>
