<?xml version="1.0" encoding="UTF-8"?>
<svg xmlns="http://www.w3.org/2000/svg" viewBox="0 0 800 800"><path fill="#019df4" d="M139.8 692.2c-8.9 0-16.9-3.2-22.9-9.2-6.6-6.6-9.8-15.6-9-25.6l.2-433.6c-.1-15.2 8-27.9 21.9-34.1 16.3-7.3 37.4-4 50.2 7.7.2.2.4.4.6.5l84.9 84.9 171-175.1.2-.2c26-26 56-25.7 82.3.6l180.3 179.4.6.6c11.4 12.4 15.7 25.3 12.9 38.5-2.6 12-10.8 21.6-18.6 29.4l-.5.5-182.8 171.9 92.1 92 .3.3c11.3 11.8 14.6 31.9 7.8 47.8-6.3 14.8-20.2 23.6-37.2 23.6H142.6c-1 .1-1.9.1-2.8.1zm6.5-38.5h427.8c1 0 1.6-.1 1.9-.2.8-1.3.6-4.9-.3-6.3L481 552.5c-6.5-6.5-10.1-15.6-9.8-25 .3-9.1 4-17.6 10.5-24.1l.4-.4 185.2-174.1c6-6.1 7.5-8.8 7.9-9.8-.3-.6-1.1-2.1-3.3-4.6L492 135.4c-5.6-5.6-10.7-8.7-14.3-8.8-4.5 0-9.9 4.3-13.6 8.1L290.7 312.2l-.2.2c-13.7 13.7-35.7 14-49.1.6L154 225.6c-1.5-1.1-5.3-1.6-7.6-1.1l-.1 429.2zm429.3-6.6z" style="fill: #019df4;"/></svg>
