<?xml version="1.0" encoding="UTF-8"?>
<svg xmlns="http://www.w3.org/2000/svg" viewBox="0 0 800 800"><path fill="#019df4" d="M573.1 459.8c-2.7 0-5.4-.6-8-1.8-6.3-3-10.1-9-10.1-15.8l-.7-80.1-121 .2c-18.9 0-34.3-15.4-34.3-34.3v-87.8c0-18.9 15.4-34.3 34.3-34.3l121.1-.1.7-80.2c0-6.7 3.9-12.7 10.1-15.7 6.5-3.1 14-2.2 19.6 2.3.3.2.5.4.7.7L745.1 271c3.3 2.8 5.4 6.8 6 11.1.5 4.6-.7 9.1-3.6 12.8-.7.9-1.5 1.7-2.4 2.5L585.4 455c-.2.2-.5.4-.7.6-3.4 2.7-7.5 4.2-11.6 4.2zM575 442zm-18.6-100.1c9.6 0 17.6 7.7 17.9 17.3v.2l.6 77.7 155-153-155-153.8-.6 77.7v.2c-.3 9.6-8.3 17.3-17.9 17.3h-.3l-122.8.1c-7.9 0-14.3 6.4-14.3 14.3v87.8c0 7.9 6.4 14.3 14.3 14.3l122.8-.2c.1.1.2.1.3.1zM575 125.5zM226 693.6c-4.1 0-8.2-1.4-11.5-4.1-.3-.2-.5-.4-.7-.7L54.1 530.4c-3.3-2.8-5.4-6.8-6-11.1-.5-4.6.7-9.1 3.6-12.8.7-.9 1.5-1.7 2.4-2.5l159.7-157.6c.2-.2.5-.4.7-.6 5.6-4.5 13-5.4 19.6-2.3 6.3 3 10.1 9 10.1 15.8l.7 80.1 121-.2c18.9 0 34.3 15.4 34.3 34.3v87.8c0 18.9-15.4 34.3-34.3 34.3l-121.1.1-.7 80.3c0 6.7-3.9 12.7-10.1 15.7-2.5 1.3-5.3 1.9-8 1.9zm-1.8-17.6zm-155-158.8l155 153.8.6-77.7v-.2c.3-9.8 8.5-17.5 18.2-17.3l122.8-.1c7.9 0 14.3-6.4 14.3-14.3v-87.8c0-7.9-6.4-14.3-14.3-14.3l-122.8.2c-9.7.2-17.9-7.5-18.2-17.3v-.2l-.6-77.7-155 152.9zm155-157.8s0 .1 0 0z" style="fill: #019df4;"/></svg>
