<?xml version="1.0" encoding="UTF-8"?>
<svg xmlns="http://www.w3.org/2000/svg" viewBox="0 0 800 800"><path fill="#019df4" d="M399.4 751.5h-.2c-5.4 0-13.5-1.8-21.2-9.8L67.3 439c-16-15.2-21.7-36.3-14.5-53.8 6.3-15.4 21.1-24.8 38.9-24.8h.6l130.3-.1c.6-.3 1.4-.8 2-1.4l.7-245.7c-.3-22 5.2-38.2 16.7-49.5 11.5-11.3 27.7-16.4 49.7-15.8h215.7c15-.3 36.6 1.1 51.6 15.6 15.1 14.6 17.1 36 17.4 50.9v.3l-.1 239.6c.1 1.4.9 3.7 1.9 5.6l127.2-.2h.2c30.6.2 41 14.8 44.5 23.5 6 14.9.5 32.1-15 47.2l-311 309.1c-3.2 3.2-11.9 12-24.7 12zm-4.8-37.8zm-303-314.3c-1.8 0-2.6.4-2.8.5-.5.7-.6 5.4 5.3 11l.2.2 305.5 297.6 307.7-305.8.2-.2c1.4-1.3 2.4-2.5 3.2-3.5-1.5-.2-3.4-.4-5.7-.4l-132.5.2c-23.3 0-35.5-28.9-35.5-44.5l.1-239.5c-.2-12-2.1-20.1-5.5-23.4-3.4-3.3-11.7-4.9-24-4.6H290.6c-7.4-.2-17.1.4-21.5 4.6-4.3 4.3-5.1 13.9-5 21.3v.3l-.7 248.3c0 20.9-21.9 37.7-40 37.7l-131.3.1h-.3c0 .1-.1.1-.2.1zm133-38zm-1.1-1.1zm284-292.8z" style="fill: #019df4;"/></svg>
