<?xml version="1.0" encoding="UTF-8"?>
<svg xmlns="http://www.w3.org/2000/svg" viewBox="0 0 800 800"><path fill="#019df4" d="M516 752.3c-3.8 0-7.5-1.2-10.7-3.7-.9-.7-1.7-1.5-2.5-2.4L345.3 586.5c-.2-.2-.4-.5-.6-.7-4.5-5.6-5.4-13-2.3-19.6 3-6.3 9-10.1 15.8-10.1l80.1-.7-.2-121c0-18.9 15.4-34.3 34.3-34.3h87.8c18.9 0 34.3 15.4 34.3 34.3l.1 121.1 80.2.7c6.7 0 12.7 3.9 15.7 10.1 3.1 6.5 2.2 14-2.3 19.6-.2.3-.4.5-.7.7L529.2 746.2c-3.4 4-8.2 6.1-13.2 6.1zM363.1 576.1l153 155 153.8-155-77.7-.6h-.2c-9.8-.3-17.5-8.4-17.3-18.2l-.2-122.8c0-7.9-6.4-14.3-14.3-14.3h-87.8c-7.9 0-14.3 6.4-14.3 14.3l.2 122.8c.2 9.8-7.5 17.9-17.3 18.2h-.2l-77.7.6zm-4.8 0zm316.5 0zM238.9 401.3c-18.9 0-34.3-15.4-34.3-34.3l-.1-121-80.2-.7c-6.7 0-12.7-3.9-15.7-10.1-3.1-6.5-2.2-14 2.3-19.6.2-.3.4-.5.7-.7L269.9 55.3c2.8-3.3 6.8-5.4 11.1-6 4.6-.5 9.1.7 12.8 3.6.9.7 1.7 1.5 2.5 2.4L453.8 215c.2.2.4.5.6.7 4.5 5.6 5.4 13 2.3 19.6-3 6.3-9 10.1-15.8 10.1l-80.1.7.2 120.9c0 18.9-15.4 34.3-34.3 34.3h-87.8zm-14.4-157.1l.1 122.8c0 7.9 6.4 14.3 14.3 14.3h87.8c7.9 0 14.3-6.4 14.3-14.3l-.2-122.7c-.2-9.7 7.5-17.9 17.3-18.2h.2l77.7-.6-153-155-153.8 154.8 77.7.6h.2c9.8.4 17.5 8.5 17.4 18.3zm216.4-18.8s-.1 0 0 0zm-316.6-.1z" style="fill: #019df4;"/></svg>
