<?xml version="1.0" encoding="UTF-8"?>
<svg xmlns="http://www.w3.org/2000/svg" viewBox="0 0 800 800"><path fill="#019df4" d="M516.1 752.8c-7.7 0-15-3.3-20.1-9.1L347.5 593.3c-.4-.5-.9-.9-1.3-1.4-6.8-8.4-8.2-19.9-3.5-29.7 4.4-9.5 13.9-15.6 24.4-15.6l65.1-.5-.2-103.6c0-23.7 19.2-42.9 42.9-43h82.8c23.7 0 42.9 19.2 42.9 42.9l.1 103.7 65.2.5c10.5 0 20 6.1 24.4 15.6 4.6 9.8 3.3 21.3-3.5 29.7-.4.5-.8 1-1.3 1.4L536.2 743.8c-5.1 5.7-12.4 9-20.1 9zm84.7-194.4zM324.1 401.7h-82.7c-23.7 0-42.9-19.2-42.9-42.9l-.1-103.6-65.1-.5c-10.5 0-19.9-6.1-24.3-15.6-4.6-9.8-3.2-21.3 3.6-29.7.4-.5.8-1 1.3-1.4l149-150.2c5.1-5.7 12.4-9 20.1-9 7.7 0 15 3.3 20.1 9l148.3 150.3c.4.5.9.9 1.3 1.4 6.8 8.4 8.2 19.9 3.5 29.6a26.88 26.88 0 0 1-24.4 15.6l-65 .5.1 103.6c.1 23.7-19.1 42.9-42.8 42.9zM198.4 243z" style="fill: #019df4;"/></svg>
