<?xml version="1.0" encoding="UTF-8"?>
<svg xmlns="http://www.w3.org/2000/svg" viewBox="0 0 800 800"><path fill="#019df4" d="M476.6 88.5h.8c14.1.2 27.8 6.9 40.8 20l180.2 179.4.6.6c11.4 12.4 15.7 25.3 12.9 38.5-2.6 12-10.8 21.6-18.6 29.4l-.5.5-182.6 171.8 92.1 92.1.3.3c11.3 11.8 14.6 31.9 7.8 47.8-6.3 14.8-20.2 23.6-37.1 23.6H141.6c-10 .7-19-2.5-25.6-9.1s-9.8-15.7-9-25.6l.2-433.6c-.4-14.8 8.3-28.3 21.9-34.1 16.3-7.3 37.4-4 50.2 7.7l.6.5 84.9 84.9 171-175.1.2-.2c12.7-12.9 26.4-19.4 40.6-19.4zm98 558.9z" style="fill: #019df4;"/></svg>
