<?xml version="1.0" encoding="UTF-8"?>
<svg xmlns="http://www.w3.org/2000/svg" viewBox="0 0 800 800"><path fill="#019df4" d="M751.6 284.3c0 7.7-3.3 15-9.1 20.1L592.2 452.9c-.5.4-.9.9-1.4 1.3-8.4 6.8-19.9 8.2-29.7 3.5a26.88 26.88 0 0 1-15.6-24.4l-.5-65.1-103.6.2c-23.7 0-42.9-19.2-43-42.9v-82.8c0-23.7 19.2-42.9 42.9-42.9l103.7-.1.5-65.1c0-10.5 6.1-20 15.6-24.4 9.8-4.6 21.3-3.2 29.7 3.6.5.4 1 .8 1.4 1.3l150.4 149.2c5.8 5 9 12.3 9 20zm-194.4-84.7zM400.6 476.2V559c0 23.7-19.2 42.9-42.9 42.9l-103.6.1-.5 65.1c0 10.5-6.1 19.9-15.6 24.3-9.8 4.6-21.3 3.2-29.7-3.6-.5-.4-1-.8-1.4-1.3l-150.3-149c-5.7-5.1-9-12.4-9-20.1 0-7.7 3.3-15 9-20.1L206.9 349c.5-.4.9-.9 1.4-1.3 8.4-6.8 19.9-8.2 29.7-3.5 9.5 4.4 15.6 13.9 15.6 24.4l.5 65 103.5-.2c23.8 0 43 19.2 43 42.8zM241.9 602z" style="fill: #019df4;"/></svg>
