<?xml version="1.0" encoding="UTF-8"?>
<svg xmlns="http://www.w3.org/2000/svg" viewBox="0 0 800 800"><path fill="#019df4" d="M711.7 476.6v.8c-.2 14.1-7 27.8-20 40.8L512.3 698.3l-.6.6c-12.4 11.4-25.3 15.7-38.5 12.9-12-2.6-21.6-10.8-29.4-18.6l-.5-.5-171.7-182.5-92.1 92.1-.3.3c-11.8 11.3-31.9 14.6-47.8 7.8-14.8-6.3-23.6-20.2-23.6-37.1V141.6c-.7-10 2.5-19 9.1-25.6s15.7-9.8 25.6-9l433.6.2c14.8-.4 28.3 8.3 34.1 21.9 7.3 16.3 4 37.4-7.7 50.2l-.5.6-85 84.9 175.1 171 .2.2c12.9 12.7 19.4 26.4 19.4 40.6zm-558.9 98z" style="fill: #019df4;"/></svg>
