<?xml version="1.0" encoding="UTF-8"?>
<svg xmlns="http://www.w3.org/2000/svg" viewBox="0 0 800 800"><path fill="#019df4" d="M322.4 711.7h-.8c-14.1-.2-27.8-7-40.8-20L100.6 512.3l-.6-.6c-11.4-12.4-15.7-25.3-12.9-38.5 2.6-12 10.8-21.6 18.6-29.4l.5-.5 182.7-171.8-92.1-92.1-.3-.3c-11.3-11.8-14.6-31.9-7.8-47.8 6.3-14.8 20.2-23.6 37.1-23.6h431.6c10-.7 19 2.5 25.6 9.1s9.8 15.7 9 25.6l-.2 433.6c.4 14.8-8.3 28.3-21.9 34.1-16.3 7.3-37.5 4-50.2-7.7l-.6-.5-84.8-84.9-171 175.1-.2.2c-12.8 12.9-26.5 19.4-40.7 19.4zm-98-558.9z" style="fill: #019df4;"/></svg>
