<?xml version="1.0" encoding="UTF-8"?>
<svg xmlns="http://www.w3.org/2000/svg" viewBox="0 0 800 800"><path fill="#019df4" d="M660.2 692.2c-.9 0-1.8 0-2.8-.1l-433.6-.2h-.4c-15 0-27.5-8.2-33.7-21.9-7.3-16.3-4-37.4 7.7-50.2.2-.2.4-.4.5-.6l84.9-84.9-175-171-.2-.2c-26-26-25.7-56 .6-82.3l179.4-180.2.6-.6c12.4-11.4 25.3-15.7 38.5-12.9 12 2.6 21.6 10.8 29.4 18.6l.5.5 171.8 182.6 92.1-92.1.3-.3c11.8-11.3 31.9-14.6 47.8-7.8 14.8 6.4 23.6 20.3 23.5 37.3v431.5c.7 10-2.5 19-9.1 25.6-5.9 6-13.9 9.2-22.8 9.2zm-435.7-38.7l429.2.2V226v-.1c0-.9-.1-1.5-.2-1.8-1.3-.7-4.9-.6-6.3.3L552.6 319c-13.4 13.4-35.4 13.1-49.1-.7l-.4-.4-174.2-185.1c-6.1-6-8.8-7.5-9.8-7.9-.6.3-2.1 1.1-4.6 3.3L135.4 308c-5.6 5.6-8.7 10.7-8.8 14.3-.1 4.5 4.3 9.9 8.1 13.6l177.5 173.4.2.2c13.7 13.7 14 35.7.6 49.1L225.6 646c-1.1 1.4-1.6 5.3-1.1 7.5zm-1.2 0zm423.9-429.1z" style="fill: #019df4;"/></svg>
