<?xml version="1.0" encoding="UTF-8"?>
<svg xmlns="http://www.w3.org/2000/svg" viewBox="0 0 800 800"><path fill="#019df4" d="M316.4 712.4c-12.1 0-24.3-6-36.3-17.9L99.7 514.3l-.3-.3c-24.4-26.6-4.1-47.1 5.6-56.9l.1-.1 187-184.5c2.5-2.5 2.9-6.5.6-8.7l-99-99-.2-.2c-9-9.4-11.6-26.1-6.1-38.9 5.1-11.8 15.8-18.5 29.5-18.5h450c7.6-.6 14.4 1.7 19.2 6.5 4.8 4.8 7.1 11.7 6.5 19.2l-.2 452.2c.1 11.9-6 21.5-16.9 26.3-13.3 5.9-31.1 3.2-41.4-6.3l-.3-.3-91.5-91.5c-1.3-1.3-3-1.5-3.9-1.5-1.8.1-3.5.8-4.8 2.2L351.7 695.2c-11.4 11.5-23.3 17.2-35.3 17.2zM114 500.3l180.3 180.1c15.8 15.8 27.9 16 43.3.6l181.8-181c4.9-4.9 11.4-7.8 18.3-8 7.1-.2 13.7 2.4 18.7 7.3l91.4 91.4c4.5 4 13.6 5.3 19.6 2.6 4.5-2 5.1-5.3 5.1-7.9v-.1l.2-452.7c0-.3 0-.7.1-1 .2-1.7-.1-3-.7-3.6-.6-.6-2-.9-3.6-.7-.3 0-.7.1-1 .1H217.1c-5.8 0-9.3 2-11.2 6.4-2.6 6-.9 13.8 2.2 17.1l98.9 98.9c4.9 4.9 7.5 11.6 7.3 18.7-.2 6.9-3 13.4-8 18.3l-187 184.5c-14.5 14.5-14.2 19.3-5.3 29z" style="fill: #019df4;"/></svg>
