<?xml version="1.0" encoding="UTF-8"?>
<svg xmlns="http://www.w3.org/2000/svg" viewBox="0 0 800 800"><path fill="#019df4" d="M573.1 460.4c-4.1 0-8.2-.9-12.1-2.7-9.6-4.6-15.5-13.9-15.6-24.3l-.5-65.1-103.6.2c-23.7 0-42.9-19.2-42.9-42.9v-82.8c0-23.7 19.2-42.9 42.9-42.9l103.7-.1.5-65.1c0-10.5 6-19.8 15.6-24.4 9.7-4.6 21.4-3.2 29.7 3.6.5.4 1 .8 1.4 1.3l150.3 149.2c10.6 9.4 12.2 25.6 3.3 36.9-1 1.3-2.1 2.4-3.3 3.5L592.2 452.9c-.5.5-1 .9-1.5 1.3-5 4.1-11.3 6.2-17.6 6.2zm-15.6-132.2c14.7 0 26.9 11.8 27.4 26.6v.4l.4 48.3 120.8-119.2-120.8-119.9-.4 48.2v.4c-.5 14.8-12.7 26.6-27.4 26.6h-.4l-115.7.1c-1.6 0-2.9 1.3-2.9 2.9v82.8c0 1.6 1.3 2.9 2.9 2.9l115.7-.2c.1.1.2.1.4.1zm159.1-33.6zM226 694.1c-6.4 0-12.6-2.1-17.7-6.3-.5-.4-1-.8-1.4-1.3l-150.2-149c-10.6-9.4-12.2-25.6-3.3-36.8 1-1.3 2.1-2.5 3.3-3.5L207 348.9c.5-.5 1-.9 1.5-1.3 8.3-6.7 20-8.1 29.7-3.5 9.6 4.6 15.5 13.9 15.6 24.3l.5 65 103.6-.2c23.7 0 42.9 19.2 42.9 42.9v82.8c0 23.7-19.2 42.9-42.9 42.9l-103.8.2-.5 65.1c0 10.5-6 19.8-15.6 24.4-3.8 1.7-7.9 2.6-12 2.6zM93.2 517.4l120.6 119.7.4-48.1v-.4c.5-15 12.9-26.8 27.8-26.6l115.6-.1c1.6 0 2.9-1.3 2.9-2.9v-82.8c0-1.6-1.3-2.9-2.9-2.9l-115.6.2c-14.9.2-27.4-11.6-27.8-26.6v-.4l-.4-48.2L93.2 517.4zm-10.6-10.3z" style="fill: #019df4;"/></svg>
