<?xml version="1.0" encoding="UTF-8"?>
<svg xmlns="http://www.w3.org/2000/svg" viewBox="0 0 702.8 702.8"><path fill="#019df4" fill-rule="evenodd" d="M682.1 334.7H66.7l283.2-298c8.9-7 10.4-20 3.4-28.9-3.1-3.9-7.6-6.6-12.5-7.5-8-1.5-16.1 1.8-20.8 8.3L3.7 341.3c-1 .7-1.7 1.7-2.1 2.9-.1 1.1-.1 2.2 0 3.3-2.1 5-2.1 10.7 0 15.7-.1 1.1-.1 2.2 0 3.3.5 1.2 1.2 2.3 2.1 3.3l310.5 326.4c3.9 4.3 9.5 6.8 15.4 6.6 11.1.3 20.4-8.5 20.7-19.6.2-5.7-2.1-11.1-6.2-15.1L66.7 375.9h615.4c11.4 0 20.7-9.2 20.7-20.6 0-11.3-9.3-20.6-20.7-20.6 0 .1 0 .1 0 0z" clip-rule="evenodd" style="fill: #019df4;"/></svg>
