<?xml version="1.0" encoding="UTF-8"?>
<svg xmlns="http://www.w3.org/2000/svg" viewBox="0 0 800 800"><path fill="#019df4" d="M481 712.7c-2.6 0-5.1-.3-7.7-.8-12-2.6-21.6-10.8-29.4-18.6l-.5-.5-171.8-182.6-92.1 92.1-.3.3c-11.8 11.3-31.9 14.6-47.8 7.8-14.8-6.4-23.6-20.3-23.5-37.3V141.6c-.7-10 2.5-19 9.1-25.6 6.6-6.6 15.6-9.8 25.6-9l433.6.2c15.2-.1 27.9 8 34.1 21.9 7.3 16.3 4 37.4-7.7 50.2-.2.2-.4.4-.5.6L517 264.7l175.1 171 .2.2c13.1 13.1 19.6 27 19.4 41.5-.2 14.1-6.9 27.8-20 40.8L512.3 698.4l-.6.6c-9.9 9.1-20.3 13.7-30.7 13.7zm17.7-27.9zm-27.6-18.5c6.1 6 8.8 7.5 9.8 7.9.6-.3 2.1-1.1 4.6-3.3L664.6 491c5.6-5.6 8.7-10.7 8.8-14.3.1-4.5-4.3-9.9-8.1-13.6L487.8 289.7l-.2-.2c-13.7-13.7-14-35.7-.6-49.1l87.4-87.4c1.1-1.5 1.6-5.3 1.1-7.6l-429.2-.2V573.1c0 .9.1 1.5.2 1.8 1.3.7 4.9.6 6.3-.3l94.7-94.7c6.5-6.5 15.7-10.1 25-9.8 9.1.3 17.6 4 24.1 10.5l.4.4 174.1 185.3zm-318.3-91.7z" style="fill: #019df4;"/></svg>
