<?xml version="1.0" encoding="UTF-8"?>
<svg xmlns="http://www.w3.org/2000/svg" viewBox="0 0 800 800"><path fill="#019df4" d="M399.8 48.4c5.4 0 10.7 1 15.7 3 15.5 6.3 25 21.5 24.8 39.5l.1 130.3c.4.7.8 1.4 1.4 2l245.7.7c22-.3 38.2 5.2 49.4 16.7s16.4 27.7 15.8 49.7V506c.3 15-1.1 36.6-15.6 51.6s-36 17.2-50.9 17.4h-.3l-239.6-.1c-2 .3-3.8.9-5.6 1.9l.2 127.2v.1c-.2 30.6-14.8 41-23.5 44.5-14.9 6-32.1.5-47.2-15l-309.1-311c-3.1-3-12-11.8-11.9-24.6 0-5.4 1.8-13.5 9.8-21.2L361.7 66c10.8-11.4 24.7-17.6 38.1-17.6zm40.6 173.7zm-1.1 1.1z" style="fill: #019df4;"/></svg>
