<?xml version="1.0" encoding="UTF-8"?>
<svg xmlns="http://www.w3.org/2000/svg" viewBox="0 0 702.8 702.8"><path fill="#019df4" fill-rule="evenodd" d="M456.5 382.1c1.1-12.2.8-24.4-.8-36.5-.3-2-.7-4-1-6-.7-4-1.6-8.1-2.7-12-.6-2-1.1-4.1-1.8-6-1.1-3.2-2.4-6.3-3.8-9.4-1.8-4-3.9-7.9-6.3-11.5l-1.8-2.9c-.6-.8-1.1-1.9-1.8-2.7 38.7-44 75.1-73 101.5-80.5 59.2-16.9 99.2 6.1 115.7 66.2 16.5 60.3-6.1 101.1-65.3 118-26.8 7.5-74.3 1.5-131.9-16.7m123.7 194.4c-4.2 22.5-19.2 42.7-44.5 60.2C485 671.8 440 663 405.5 611.2c-16.6-24.9-26.1-75.1-26.6-139.2 1-.2 1.8-.6 2.7-.8 5.2-1.1 10.3-2.6 15.3-4.5 1.8-.7 3.5-1.5 5.3-2.2 4.3-1.9 8.4-4.1 12.2-6.5 1.3-.9 2.7-1.6 3.9-2.4 4.8-3.5 9.2-7.3 13.2-11.6.8-.9 1.5-2 2.3-3 3-3.6 5.7-7.5 8.2-11.6.5-.8 1.1-1.4 1.6-2.2 58.3 24.2 100.4 51.6 117.1 76.5 17.1 25.8 23.7 50.3 19.5 72.8M300 611.8c-17.2 25.8-37.1 41-59.2 45.3-22.1 4.1-45.9-2.5-71.2-20.1-50.7-35-59.3-80.9-24.9-132.8 16.2-24.4 57.7-51.5 115.3-75.6.5.9 1.3 1.6 1.8 2.5 2.4 3.8 5 7.4 7.9 10.8 1.1 1.2 2 2.5 3.1 3.7 4 4.2 8.4 8 13.3 11.3 1.3.8 2.8 1.5 4.1 2.3 9.8 6 20.6 10.1 31.9 12.2 1.5.3 2.8.9 4.3 1.2-.4 64.2-9.9 114.3-26.4 139.2M114.2 399.2c-29.5-8.4-50-22.7-61-42.6-11-19.9-12.4-45.2-4.2-75.3 8.2-30 22.3-51 41.8-62.2 11.7-6.5 25-9.8 38.4-9.5 10.9 0 22.7 1.8 35.4 5.5 26.4 7.6 62.6 36.5 101 80.4-3.9 5.3-7 11.2-9.8 17.6-.8 1.8-1.4 3.7-2.1 5.6-1.9 5.3-3.5 10.8-4.7 16.3-.4 2.2-.9 4.4-1.3 6.7-1.3 8.3-2 16.6-2 25 0 5.5.2 10.8.7 16-57.5 18.2-105 24.4-132.2 16.5M351.6 44.5c61.4.3 93.7 33.5 93.5 96.1 0 28.3-18.4 73-51.1 124.2-1-.4-2.2-.5-3.2-.8-4.6-1.4-9.3-2.5-14-3.3-1.6-.3-3.2-.6-4.8-.8-6.8-1-13.7-1.4-20.6-1.5-7.4 0-14.3.6-21 1.6-1.3.2-2.5.4-3.8.6-5.6 1-10.8 2.2-15.8 3.8-.8.2-1.7.3-2.4.6-32.5-51.1-50.9-96-50.7-124.9 0-62.5 32.5-95.6 93.9-95.6m4.8 385.3c-1.7 0-3.3.1-5 .3h-2.7c-41.3-.9-51.7-21.1-55.9-36.2-.2-.8-.5-1.6-.8-2.3-.6-2.3-.9-4.8-1.3-7.3-.2-1.5-.6-2.9-.8-4.5-.4-4.4-.7-8.9-.7-13.4 0-24.8 6.4-42.3 19-52.2.8-.6 1.8-1.1 3.6-2.2 9.8-6.1 23.1-9.2 39.5-9.2 16.5 0 29.6 3 39.2 8.9.5.4 2.8 1.9 3.4 2.2 12.9 9.7 19.5 27.3 19.5 52.5.2 8.8-.8 17.5-3 26.1v.1c-4.3 16.6-14.4 35.7-54 37.2m339.5-161c-23.2-84.4-86.5-120.6-169.5-97.2-16.2 4.6-32.7 13.9-48.9 25.4 6.8-19.5 11.3-38.7 11.3-56.2C489.1 53 437.9.4 351.8 0h-.1C265.5 0 214 52.4 214 139.9c-.1 18.1 4.4 37.8 11.4 57.7-16.2-11.5-32.7-20.8-49-25.5-40.4-11.6-77.4-8.8-107 8.1-29.6 17-51.3 47.8-62.5 89.1-23.1 84.6 12.6 149.2 95.6 172.7 11 3.2 23.4 4.6 36.2 4.8-12 10-22.5 20.8-30.1 32.3C60.3 552 74 624.8 145.1 673.8c27.5 19.2 55.8 29 83 29 7 0 14-.6 20.8-2 33.4-6.4 63.5-28.6 87.1-64 6.9-10.4 12.3-23 16.8-36.4 4.4 13.2 9.7 25.6 16.5 35.8 29.3 43.9 66.9 66.4 107.9 66.4 26.7 0 54.9-9.6 83-29.1 34.8-24 56.6-54.6 62.9-88.7 6.3-33.9-2.8-70.7-26.4-106.2v-.1c-7.7-11.6-18.4-22.4-30.6-32.5 11.5-.1 22.9-1.6 34-4.5 83.1-23.5 118.9-88.1 95.8-172.7" clip-rule="evenodd" style="fill: #019df4;"/></svg>
