<?xml version="1.0" encoding="UTF-8"?>
<svg xmlns="http://www.w3.org/2000/svg" viewBox="0 0 702.8 702.8"><path fill="#019df4" fill-rule="evenodd" d="M662.9 360c-12.3 22.2-34.8 38.1-67.1 47.3-30.3 8.7-81.7 1.9-145.4-19 .1-.4 0-.9.1-1.3.8-6.3 1.3-13 1.3-20.1 0-8.1-.7-15.3-1.7-22.2-.2-1.7-.5-3.5-.8-5.1-1.1-6-2.5-11.6-4.2-16.7-.5-1.3-1-2.5-1.5-3.7-1.5-3.7-3.1-7.1-4.8-10.3-1.1-2.1-2.2-4-3.4-5.8-1.1-1.7-2.2-3.2-3.4-4.6-1.2-1.6-2.3-3.4-3.5-4.8 42.6-49.5 82-81.2 111.8-89.7 64.4-18.2 109.7 7.7 127.7 73.2 8.9 32.7 7.2 60.6-5.1 82.8m-91.2 142.6c37.5 56.6 27.7 108.8-27.6 146.9-55.1 38.3-106.2 28.2-143.8-28.1-18.4-27.6-28.6-83-28.4-153.4 1.4-.2 2.7-.5 4.1-.8 1.9-.4 3.7-.7 5.5-1.1 4.2-1 8.3-2.1 12.1-3.4 1.2-.4 2.4-.7 3.5-1.2 4.7-1.8 9-3.9 12.9-6.3.9-.5 1.6-1.1 2.4-1.6 3.1-2 5.9-4.1 8.5-6.3 1-.8 1.9-1.6 2.8-2.5 2.5-2.3 4.7-4.8 6.8-7.3.5-.6 1.1-1.1 1.5-1.8 2.4-3.1 4.5-6.4 6.4-9.7.5-.8.8-1.7 1.3-2.5.8-1.6 1.7-3.1 2.4-4.7 64.3 26.2 111.2 56.3 129.6 83.8M305.2 622c-18.7 28.2-40.7 44.9-65.3 49.7-24.6 4.5-51-2.6-78.5-21.8-27.6-19.1-44-41.4-48.7-66.4-4.7-25 2.5-52 21.2-80.2 18-27.1 64.2-57 127.8-82.8.9 1.9 1.9 3.8 3 5.7.4.6.7 1.3 1.1 1.9 1.9 3.3 4.1 6.4 6.6 9.5.6.7 1.2 1.3 1.8 2 2.1 2.4 4.4 4.7 6.9 7 .8.8 1.7 1.5 2.6 2.2 3 2.4 6.2 4.7 9.7 6.8.5.3.8.6 1.3.9 4.1 2.4 8.7 4.4 13.7 6.2.9.3 1.9.6 2.9.9 4.1 1.3 8.6 2.5 13.3 3.4 1.6.3 3.1.6 4.7.8 1.5.2 2.9.6 4.5.8 0 70.3-10.2 125.8-28.6 153.4M106.9 407.9c-64.4-18.3-90-64.6-72.1-130.2 9-32.8 24.6-55.8 46.4-68.3 12.5-7.2 26.9-10.8 42.9-10.8 11.9 0 24.7 2 38.3 5.9 29.3 8.4 69.4 40.8 111.3 89.5-.7.8-1.2 1.8-1.9 2.7-1.4 1.7-2.6 3.7-3.9 5.6-2.4 3.7-4.7 7.5-6.6 11.6-1.1 2.3-2.1 4.6-3 7-1.6 4.5-3 9.4-4 14.4-.5 2.4-1.2 4.6-1.6 7-1.2 7.7-2 15.7-2 24.4 0 7 .5 13.7 1.3 20.1 0 .5 0 1.2.1 1.7-63.2 21.3-114.6 28.1-145.2 19.4m244.8-378c66.8.3 103.5 38 103.2 106.1 0 31.9-20.1 80.1-56.8 136.4-.1 0-.2-.1-.3-.1-6.1-2.5-12.8-4.2-19.8-5.5-1.4-.3-2.7-.5-4.1-.7-7.1-1.1-14.5-1.9-22.5-1.9-8.2 0-15.8.8-23 2-1.1.2-2.1.4-3.1.6-7.5 1.4-14.6 3.3-20.9 5.9-36.2-55.7-56.7-105.2-56.5-137.2 0-68.1 36.9-105.6 103.8-105.6m3.3 409.7c-1.1.2-2.4.1-3.6.1h-2.9c-35.5-.8-56.6-14.7-65.1-44.8-2.1-8.2-3.1-17.6-3.1-28.1 0-28 7.6-48.1 22.6-59.7 1-.7 2.1-1.4 4.2-2.5 11.2-7 26.2-10.5 44.3-10.5 18.3 0 33.1 3.4 44 10.2.4.2 3.7 2.4 4 2.7 15.3 11.4 23.1 31.5 23.1 59.9 0 10.6-1 19.9-3.1 27.6 0 .3-.1.6-.1.9 0 .1-.1.2-.1.3-7.6 28.4-27.4 42.4-64.2 43.9M696.2 269c-22.4-81.5-83.4-116.7-163.8-93.9-23.1 6.6-47.1 22.5-69.8 41.9 12.7-27.9 21.6-56.3 21.6-81.1C484.5 51.1 435 .2 351.8-.1h-.1c-83.3 0-133.1 50.6-133.1 135.3-.1 25.3 8.8 54.2 21.6 82.5-22.6-19.4-46.6-35.4-69.8-42.1-39.3-11.3-75.1-8.7-103.6 7.6-28.4 16.3-49.3 46.2-60.3 86.3-22.3 81.7 12.2 144.2 92.4 166.9 11.7 3.4 24.9 4.8 38.8 4.8 7 0 14.4-.9 21.6-1.6-20.4 13.8-38.5 29.4-49.9 46.6-22.9 34.6-31.8 70-25.7 102.6 6.1 32.6 27.2 62.2 61 85.4 26.8 18.7 54.3 28.3 80.5 28.3 6.7 0 13.3-.6 19.8-1.9 32.1-6.2 61.2-27.7 84.2-62.2 11-16.5 18.3-38.2 23.4-61.4 5.1 23 12.4 44.5 23.3 60.8 28.3 42.4 64.7 64.1 104.2 64.1 25.8 0 53-9.3 80.2-28.1 68.9-47.5 82.1-117.9 35.4-188.4v-.1c-11.4-17.1-29.4-32.6-49.7-46.4 6.3.5 12.8 1.4 18.9 1.4 13.9 0 27-1.4 38.6-4.8 39.4-11.2 68.7-32.4 84.7-61.4 16.3-28.4 18.9-64.9 8-105.1" clip-rule="evenodd" style="fill: #019df4;"/></svg>
