<?xml version="1.0" encoding="UTF-8"?>
<svg xmlns="http://www.w3.org/2000/svg" viewBox="0 0 702.8 702.8"><path fill="#019df4" fill-rule="evenodd" d="M352 440.5c-1.2-.4-2.3-.8-3.6-.8-35.5-.8-56.6-14.8-64.3-42.7-.1-.6-.6-1-.8-1.5v-.6c-2-8.1-3.1-17.5-3.1-28.1 0-28 7.6-48.2 22.7-59.8.6-.5 1-1.2 1.5-1.8.9-.3 1.8-.2 2.6-.7 11.2-7 26.2-10.5 44.3-10.5 18.3 0 33.1 3.4 44 10.2.8.5 1.7.6 2.5 1 .5.5.9 1.2 1.5 1.6 15.3 11.4 23.1 31.6 23.1 60 0 10.6-1 19.9-3 27.6-.1.2 0 .5-.1.7 0 .2-.2.3-.2.5-7.6 28.5-27.4 42.5-62.4 43.7-1.6.1-3.2.6-4.7 1.2m251.8-4.5c80.2-22.8 114.7-85.2 92.4-167-22.4-81.6-83.6-116.6-163.8-93.9-23.1 6.6-47.1 22.5-69.8 41.9 12.7-27.9 21.6-56.3 21.6-81 .2-41.6-11.9-76.1-34.9-99.7-23-23.6-56.7-36.2-97.5-36.4h-.1c-83.3 0-133 50.6-133 135.2-.2 25.4 8.8 54.3 21.7 82.7-22.7-19.5-46.7-35.5-69.8-42.1-39.3-11.3-75.1-8.7-103.6 7.6-28.4 16.3-49.3 46.1-60.3 86.3-11 40.1-8.3 76.7 7.7 105.6 16 29 45.3 50.2 84.6 61.4 11.8 3.4 25 4.8 38.9 4.8 6.9 0 14.3-.9 21.5-1.6-20.4 13.8-38.5 29.5-49.9 46.6-22.9 34.5-31.8 70-25.7 102.6 6.1 32.6 27.2 62.2 61 85.5 26.8 18.7 54.3 28.3 80.6 28.3 6.7 0 13.3-.6 19.8-1.9 32-6.2 61.1-27.7 84.1-62.1 11-16.5 18.4-38.2 23.4-61.5 5.1 23 12.4 44.5 23.3 60.9 22.9 34.4 52 55.9 84 62.1 6.6 1.3 13.3 2 20.1 2 26.2 0 53.6-9.5 80.4-28.1 68.9-47.5 82.1-117.9 35.4-188.3-11.4-17.1-29.4-32.6-49.7-46.4 6.3.5 12.8 1.3 18.9 1.3 13.9 0 27-1.4 38.7-4.8" clip-rule="evenodd" style="fill: #019df4;"/></svg>
