<?xml version="1.0" encoding="UTF-8"?>
<svg xmlns="http://www.w3.org/2000/svg" viewBox="0 0 702.8 702.8"><path fill="#019df4" fill-rule="evenodd" d="M451 662.2L427.8 550c45.8-14.1 99.2-46.5 121.8-119.6l112.6 23.2C629.3 591.2 529.8 643 451 662.2m-84 11.2c-10.4.2-20.8.2-31.2.1-18.5-.4-37-2.1-55.3-5.1l23-111.3c14.9 2.6 29.9 3.9 45 3.9 4.4 0 8.8-.1 12.6-.1 12.9-.3 25.7-1.7 38.4-4l23 111.4c-22.6 3.6-42 4.8-55.5 5.1M40.9 453.6l111.9-23.1c20.1 65.5 64.6 98.4 106.5 114.6 5.3 2 10.4 3.5 15.6 5l-23.2 112.4c-30-7.3-63.4-19-94.9-38.9-59.7-37.6-98.1-94.8-115.9-170m-6.6-171.3l111.2 23c-2.1 14.1-3.6 28.9-3.6 45.4 0 18.9 2 35.5 4.7 51.2l-111.2 23c-4-24.7-6-49.7-6-74.7-.1-24 1.9-46.4 4.9-67.9M155.6 78.1c31.6-19.9 65-31.5 95.1-38.5L274 152c-46.7 14.1-101 47.4-122.4 124.7L39.2 253.5c16.9-78.2 55.6-137.1 116.4-175.4m177.5-48.8h6c8.9 0 18.2.1 26.2.3 12.5.3 33.2 1.8 57.7 6.1l-22.9 110.9c-13.2-2.5-26.6-4-40.1-4.5-4.9-.1-10.5-.2-15.9-.2h-3.9c-12.7.2-25.4 1.4-38 3.5l-23-111.6c22.9-3.5 42-4.4 53.9-4.5m27.3 502.2c-3.6.1-7.8.1-12 .1h-6.1c-24.7-.4-49.2-5.1-72.3-13.8-65.5-25.4-98.8-81.6-98.8-167.1 0-160.7 118.5-179.2 169.5-179.6h3.7c5.2 0 10.6.1 15.2.1 51.8 1.3 172.2 21.4 172.2 180.7-.2 159.3-119.9 178.7-171.4 179.6m302.3-277.8l-112.1 23.1c-21.8-74.9-75.6-108.4-122.1-123.1L451.6 42c29.5 7.5 62 19.3 93 38.7 61.4 38.3 100.6 96.5 118.1 173M557 305.4l111-23c3.3 22.1 5.5 45.1 5.5 69.9 0 26.6-2.5 50.2-6.1 72.6l-111-22.9c3-16.5 4.5-33.3 4.5-50 0-17.1-1.6-32.3-3.9-46.6M366.1.4c-8.3-.2-17.8-.4-27-.4h-6.3C262.3.6 0 24.8 0 350.3c0 325.9 264.7 351.5 335.3 352.5 10.7.1 21.4.1 32.2-.1 67.1-1.2 335.4-26.4 335.4-350.3C702.8 29.2 434.9 2 366.1.4" clip-rule="evenodd" style="fill: #019df4;"/></svg>
