<?xml version="1.0" encoding="UTF-8"?>
<svg xmlns="http://www.w3.org/2000/svg" viewBox="0 0 702.8 702.8"><path fill="#019df4" fill-rule="evenodd" d="M455.3 646.7l-20.5-99c42.7-14.6 90.2-45.5 112.7-110.2l98.4 20.3c-31.4 120.3-116.2 169.6-190.6 188.9m-88.6 12c-6.2.1-13.2.2-20.4.2-3.5 0-7 0-10.4-.1-12.9-.2-28.5-1.2-45.4-3.4l20.1-97.1c12.8 1.8 23.8 2.5 31.1 2.6 2.1.1 4.4.1 6.6.1 4.4 0 8.8-.1 12.6-.1 7.1-.1 18-.8 31.1-2.7l20 97c-16.8 2.1-32.4 3.2-45.3 3.5M57.1 457.8l98.5-20.3c21 60.6 63.5 92 103.8 107.6 2.9 1.1 5.7 1.8 8.6 2.8l-20.5 99.2c-74.3-19.2-158.8-68.5-190.4-189.3M43.9 350.3c0-20.7 1.5-39.6 3.7-57.7l96.7 20c-1.5 11.9-2.4 24.5-2.4 38.2 0 15.9 1.2 30.5 3.1 44.1l-96.4 19.9c-2.7-20.1-4.7-41.1-4.7-64.5M246.3 54.9l20.5 99.4C223.2 169 175.1 201 153.5 269.5l-98.2-20.3c30-125.5 116-175.4 191-194.3M333.2 44l6.3-.1c8.7 0 17.7.2 25.5.4 13.6.4 30.1 1.6 48 4.2l-20 96.7c-13.8-2.2-25.3-2.9-32.8-3.1-4.9-.1-10.5-.2-15.9-.2h-3.9c-7.2.1-18 .6-30.7 2.4L289.6 47c16.2-2.1 31.1-2.9 43.6-3m26.9 472.9c-3.5.1-7.6.1-11.7.1l-6-.1c-10.6-.1-38.5-1.7-67.2-12.8-60.2-23.3-89.4-73.5-89.4-153.5 0-142.3 97-164.4 154.9-164.9h3.5c5.1 0 10.3.1 14.9.2 142.5 3.4 157.9 117.2 157.9 166s-15.3 162.5-156.9 165m286.5-267.4l-98.1 20.2c-21.9-66.4-69.6-98.5-113-113.7l20.4-98.7C531 77.5 615.8 128 646.6 249.5m12.3 102.8c0 22.6-1.8 43-4.5 62.4l-96.7-19.9c2-13.3 3.3-27.3 3.3-42.8 0-14.2-1.1-27.1-2.7-39.4l96.5-19.9c2.4 18.6 4.1 38.1 4.1 59.6M366.1.4C358 .2 348.5 0 339.5 0c-2.3 0-4.5 0-6.7.1C262.3.7 0 24.9 0 350.3c0 325.9 264.8 351.4 335.3 352.4 3.6.1 7.3.1 11 .1 7.4 0 14.7-.1 21.2-.2 67.1-1.2 335.3-26.4 335.3-350.3C702.8 29.2 434.9 2 366.1.4" clip-rule="evenodd" style="fill: #019df4;"/></svg>
