<?xml version="1.0" encoding="UTF-8"?>
<svg xmlns="http://www.w3.org/2000/svg" viewBox="0 0 702.8 702.8"><path fill="#019df4" fill-rule="evenodd" d="M455.3 646.7l-20.4-99c42.7-14.6 90.1-45.5 112.7-110.2l98.4 20.3c-31.5 120.3-116.2 169.7-190.7 188.9zm-95.2-129.8c-3.5.1-7.6.1-11.7.1h-6c-23-.4-45.7-4.8-67.2-12.8-60.2-23.4-89.4-73.6-89.4-153.4 0-142.4 97-164.5 154.9-165h3.5c5.1 0 10.4.1 14.9.2C501.6 189.4 517 303.2 517 352s-15.2 162.4-156.9 164.9zM247.5 647.1C173.2 628 88.8 578.6 57.1 457.8l98.5-20.3c21.1 60.6 63.5 92 103.8 107.6 2.9 1.2 5.7 1.8 8.6 2.8l-20.5 99.2zM246.3 55l20.6 99.4C223.3 169 175.1 201 153.5 269.6l-98.2-20.3c30.1-125.6 116-175.5 191-194.3zM456 57.3c75 20.2 159.8 70.7 190.6 192.2l-98 20.2c-22-66.4-69.7-98.4-113-113.7L456 57.3zM366.1.4C358 .1 348.6 0 339.5 0h-6.6C262.3.6 0 24.8 0 350.3c0 325.9 264.8 351.4 335.3 352.5 10.7.1 21.5.1 32.2-.1 67.1-1.3 335.3-26.4 335.3-350.3C702.8 29.2 435 2 366.1.4z" clip-rule="evenodd" style="fill: #019df4;"/></svg>
