<?xml version="1.0" encoding="UTF-8"?>
<svg xmlns="http://www.w3.org/2000/svg" viewBox="0 0 702.8 702.8"><path fill="#019df4" fill-rule="evenodd" d="M368 598v-85.3c0-8.1-6.6-14.6-14.7-14.6s-14.7 6.5-14.7 14.6v85.5C282.4 596.9 117.8 575 104.9 374H191c8.1 0 14.7-6.5 14.7-14.6s-6.6-14.6-14.7-14.6h-87.2c2.3-222.8 179-242.8 234.8-243.5v88.8c0 8.1 6.6 14.6 14.7 14.6s14.7-6.5 14.7-14.6v-88.5c59.4 2.2 231.5 27.6 234.7 243.1h-90.9c-8.1 0-14.7 6.6-14.7 14.6 0 8.1 6.6 14.6 14.7 14.6h90C589.5 574.1 424.5 596.5 368 598m320.1-253.3H632c-3.4-248-213.9-270.5-264.1-272.4V14.6c0-8.1-6.6-14.6-14.7-14.6s-14.7 6.5-14.7 14.6V72c-45.1.4-261.7 16.5-264.2 272.7H14.5c-8.1 0-14.7 6.6-14.7 14.6s6.6 14.6 14.7 14.6h60.9c13.9 233.3 215.9 252.3 263 253.5v60.7c0 8.1 6.6 14.6 14.7 14.6s14.7-6.5 14.7-14.6v-60.9c47.2-1.3 249.9-20.9 263.1-253.4h57c8.1 0 14.7-6.5 14.7-14.6.2-7.9-6.4-14.5-14.5-14.5" clip-rule="evenodd" style="fill: #019df4;"/></svg>
