<?xml version="1.0" encoding="UTF-8"?>
<svg xmlns="http://www.w3.org/2000/svg" viewBox="0 0 702.8 702.8"><path fill="#019df4" fill-rule="evenodd" d="M374.8 585.6v-76.2c0-11.9-9.7-21.5-21.6-21.5s-21.6 9.6-21.6 21.5v76.3c-58.4-3-199-29.1-214.2-205h76.8c11.9 0 21.6-9.6 21.6-21.5s-9.7-21.5-21.6-21.5h-77.8c5.8-196.2 156.6-221.7 215.3-224v79.7c0 11.9 9.7 21.5 21.6 21.5s21.6-9.6 21.6-21.5v-79.2c61.6 4.1 208.6 34.2 215.1 223.5h-81.4c-11.9 0-21.6 9.6-21.6 21.5s9.7 21.5 21.6 21.5h80.6c-14.8 175-155.8 201.6-214.4 204.9m306.4-247.9h-48.1C626 105.9 435.2 75 374.8 71.2V21.5c0-11.9-9.7-21.5-21.6-21.5s-21.6 9.6-21.6 21.5v49.2C275.2 72.9 79.4 98 73.2 337.7H21.5c-11.9 0-21.6 9.6-21.6 21.5s9.7 21.5 21.6 21.5h52.8c16.5 218.2 199.8 245.2 257.3 248v52.6c0 11.9 9.7 21.5 21.6 21.5s21.6-9.6 21.6-21.5v-52.7c57.5-3.1 241.4-30.6 257.3-247.9h49.1c11.9 0 21.6-9.6 21.6-21.5s-9.6-21.5-21.6-21.5" clip-rule="evenodd" style="fill: #019df4;"/></svg>
