<?xml version="1.0" encoding="UTF-8"?>
<svg xmlns="http://www.w3.org/2000/svg" viewBox="0 0 702.8 702.8"><path fill="#019df4" fill-rule="evenodd" d="M627.8 447.4c30.3-.6 45.7-16.9 45.7-48.5 0-31.7-15.5-48.2-46.1-48.9l-5.1-.1H621c-29.8.3-44.9 16.5-44.9 48.5 0 32.1 15.3 48.5 45.5 49h6.2zm-470.7-15v28.1h42V432c-7.7.7-15.4 1.1-23.1 1.1-6.3.1-12.6-.2-18.9-.7zM29.6 247.1C33.7 351.2 82.9 403.9 176 403.9c93 0 142.2-52.7 146.4-156.8h-28.5c-4.5 79.1-47 124.2-117.9 124.2-71 0-113.3-45-117.9-124.2H29.6zM639.9 322c22.7 3.4 62.9 17.7 62.9 77 0 71.9-59.5 77.5-74.3 77.8h-7.2c-15.6-.2-74.3-5.9-74.3-78.3 0-61.1 41.3-74.3 63.6-77v-61.2c0-69.8-52.6-78.6-75.2-79.1-2.6-.1-5.7 0-8.3-.1-22.3.2-74 8.3-74 78.7l.1 2.8V558c0 135.3-115.5 144.3-138.7 144.7-2.3.1-5.1.1-7.8.1h-4.6c-67.1-1-138.8-39.8-138.8-145.6v-67.3h-16.7c-10.2 0-18.8-9.1-18.8-19.8v-41.9C45.1 409.9 0 342.1 0 232.4c0-8.1 6.6-14.6 14.6-14.6h13.8v-122c-.1-4-.8-44.5 21.7-67.7C60 17.9 73.6 12.2 87.9 12.4c5.7-11.2 18-12.4 22-12.4h2.5c5.2.1 25.4 2.2 25.4 26.6 0 24.4-20.2 26.4-25.3 26.4h-2.4c-3.9-.1-15.6-1.2-21.7-11.5-.1 0-.2.1-.4.1-6.4-.3-12.6 2.2-17 6.8-11.7 12.4-13.6 38.7-13.3 46.9v122.4h14.6c8.1 0 14.6 6.6 14.6 14.6 0 50 15.4 109.5 89.1 109.5 73.6 0 89.1-59.6 89.1-109.5 0-8.1 6.6-14.6 14.6-14.6h16.6V95.8c.3-9.4-1.7-35.2-13.5-47.4-4.4-4.6-10.6-7-17-6.7l-.4-.1c-6 10.2-17.7 11.4-21.6 11.4h-2.4c-5-.1-25.3-2-25.3-26.4C216.1 2.1 236.3.1 241.5 0h2.5c4 0 16.3 1.2 22.1 12.4 14.8.1 27.9 5.5 37.8 15.7 22.5 23.3 21.8 63.7 21.7 68.2v121.4h11.7c8.1 0 14.6 6.6 14.6 14.6 0 107.9-43.5 175.2-123.5 194.7v43c0 10.7-8.6 19.8-18.8 19.8h-17v67.3c0 103.5 76.8 115.8 109.9 116.3 3.8.1 7.9 0 11.4-.1 25.8-.5 110-10.2 110-115.4l-.1-297.8c0-79.3 53.2-107.9 103-108.3 3 .1 6.6 0 9.4.1 50.1 1.2 103.7 30.3 103.7 108.4V322zm-13 56.9c3.9.1 18.9 1.6 18.9 19.8 0 18.3-15.1 19.7-18.8 19.8h-1.8c-4-.1-18.9-1.5-18.9-19.9 0-18.3 14.8-19.7 18.7-19.7h1.9z" clip-rule="evenodd" style="fill: #019df4;"/></svg>
