<?xml version="1.0" encoding="UTF-8"?>
<svg xmlns="http://www.w3.org/2000/svg" viewBox="0 0 702.8 702.8"><path fill="#019df4" fill-rule="evenodd" d="M625.1 442.5c22.3-.4 33.6-12.3 33.6-35.3 0-23.1-11.4-35.1-34-35.5l-4.9-.1c-32.9.4-32.9 26.6-32.9 35.3 0 23.4 11.3 35.3 33.5 35.7.1-.1 4.7-.1 4.7-.1zM187 440.3c-4.2 0-8.1-.3-12.2-.5v22.7h27.4v-22.8c-4.9.3-9.9.6-15.2.6zM44.7 252.2c5.9 97.2 52.6 144.5 142.4 144.5 89.7 0 136.3-47.3 142.3-144.5h-15.2c-7 79-53.5 125.4-127.1 125.4-73.7 0-120.1-46.4-127.2-125.4H44.7zm603.1 79.2c28.7 7.8 55 30.3 55 75.7 0 57.2-41.4 78.3-76.9 78.9h-6c-35.5-.5-76.9-21.6-76.9-79.2 0-49.2 30-71.5 60.8-77.2v-62c0-58.5-41.4-68.2-66.1-68.8l-7.9-.1c-24.2.2-64.7 9.4-64.7 68.4l.1 2.7v285.4c0 106.9-77.1 146.3-143.2 147.5-2.6 0-5.6.1-8.6.1h-3.8c-69.3-1-143.3-40.5-143.3-148.3V506H157c-14.4 0-26.2-12.6-26.2-28.2v-44.1C46 413.2 0 342.9 0 230.4c0-12 9.9-21.8 22-21.8h6.5V95c-.1-4.1-.9-47 23.9-72.2C63.5 11.4 78.1 5.4 94.7 5.1 101.1.7 108.5 0 111.6 0h2.7C120 .1 142 2.4 142 28.7c0 26.4-22.1 28.4-27.6 28.5h-2.6c-3.6 0-13.4-.9-20.3-7.8-2.8.4-5.5 1.8-7.5 3.8-9.4 9.5-11.7 31.8-11.5 41.1v114.4H81c12.2 0 22 9.8 22 21.8 0 68.8 28.3 103.7 84 103.7s84-34.9 84-103.7c0-12 9.9-21.8 22-21.8h9.1V95c.2-8.1-1.5-31.8-11.5-41.9a14.7 14.7 0 0 0-10.8-4.3c-6.9 7.4-17 8.4-20.7 8.4h-2.6C251 57.1 229 55 229 28.7S251 .2 256.6.1h2.7c3.1 0 10.8.8 17.3 5.5.8-.1 1.5-.5 2.3-.5 17 0 32.1 6.1 43.5 17.8 24.7 25.2 24 68.1 23.8 72.9v112.9h5.8c12.2 0 22 9.8 22 21.8 0 111.1-44.8 181.2-127.7 202.6v44.8c0 15.6-11.7 28.2-26.2 28.2h-9.9v48.3c0 93.3 69.9 104.3 99.9 104.8 3.7.1 7.7 0 11-.1 30-.6 99.9-11.8 99.9-104V267.5c0-82.3 58.4-111.9 108.3-112.4 3 0 6.5 0 9.4.1 50.3 1.2 109.1 31.3 109.1 112.4v63.8zm-22.4 59.2c3 .1 14.5 1.3 14.5 15.1 0 13.8-11.6 14.9-14.5 15H624c-3.1 0-14.5-1.1-14.5-15.1 0-13.9 11.3-14.9 14.3-14.9l1.6-.1z" clip-rule="evenodd" style="fill: #019df4;"/></svg>
