<?xml version="1.0" encoding="UTF-8"?>
<svg xmlns="http://www.w3.org/2000/svg" viewBox="0 0 702.8 702.8"><path fill="#019df4" fill-rule="evenodd" d="M627 415.3h-1.8c-4-.1-18.9-1.5-18.9-19.6s14.8-19.4 18.7-19.4h1.9c3.9.1 18.9 1.6 18.9 19.6.1 17.9-15 19.3-18.8 19.4m20.2-93.8v-62.1c0-82.2-59.7-112.9-111-114.1-2.9 0-6.3 0-9.5-.1-50.9.4-110.2 30.4-110.2 114.2l.1 293.4c0 94.5-71.9 106.1-102.9 106.6-3.3.1-7.4.1-11.1.1-30.9-.5-102.7-11.8-102.7-107.5v-66.3h9.6c10.2 0 18.8-9 18.8-19.6v-42.3c80.1-19.3 123.6-85.6 123.6-192-.1-8-6.6-14.5-14.6-14.4h-4.4V97.9c.1-4.8.9-47.4-23.7-72.5-11.4-11.6-27.1-18-43.3-17.7-.4 0-.7.2-1.2.2C257.8.8 247.9 0 244.2 0h-2.8c-5.7.1-28 2.3-28 28.9 0 26.6 22.3 28.7 27.9 28.8h2.7c3.5-.1 12.7-.9 19.6-7.2.8.1 1.5.5 2.3.5 5.1 0 8.6 1.3 11.7 4.4 10 10.1 11.6 33.6 11.4 41.7v120.4c-7.7.3-13.8 6.6-13.9 14.3 0 72.2-44.2 128.8-100.7 128.8-55.9 0-96.5-54.2-96.5-128.8-.1-7.3-5.6-13.3-12.9-14.1V96.5c-.2-7.4 1.5-30.9 11.4-41 3-3.1 6.6-4.5 11.7-4.5.8 0 1.5-.4 2.3-.5 6.9 6.3 16 7.1 19.5 7.2h2.7c5.6-.1 27.9-2.2 27.9-28.8S118.2.1 112.4 0h-2.8c-3.7.1-13.6.8-20.5 7.9-.4 0-.8-.2-1.2-.2-17 0-31.9 6.1-43.3 17.7C20.3 50.5 21 93.2 21.1 97.2v120.2h-6.5c-8.1 0-14.6 6.4-14.6 14.4 0 108.2 45 175 127.8 192.9V466c0 10.7 8.6 19.6 18.8 19.6h9.4V552c0 109.7 75.4 149.8 146 150.8h4.7c2.8 0 5.6 0 7.9-.1 67.3-1.2 145.9-41.2 145.9-149.9V261.4l-.1-2.6c0-60.7 41.8-70.1 66.8-70.3l8.1.1c25.4.6 68.1 10.7 68.1 70.8v61.4c-23 4.7-56.3 20.8-56.3 74.8 0 71.4 58.7 77 74.3 77.2h2.6c1.6 0 3.1 0 4.5-.1 14.8-.2 74.3-5.8 74.3-76.7 0-52.4-32.5-69.2-55.6-74.5" clip-rule="evenodd" style="fill: #019df4;"/></svg>
