<?xml version="1.0" encoding="UTF-8"?>
<svg xmlns="http://www.w3.org/2000/svg" viewBox="0 0 702.8 702.8"><path fill="#019df4" fill-rule="evenodd" d="M570.8 326.8c-15.2-16.2-32.3-31.1-50.8-44.2C373.3 175.9 436.2 27 438.9 20.7c2.2-5.1 1.4-11.1-2.1-15.4-3.6-4.4-9.3-6.2-14.7-4.9C356.3 16 288.7 50.2 231.8 96.7 43.7 250.5 43.3 491.2 125.9 596.2c37.1 47.2 90.1 80.5 148.4 97.3-8.7-5.2-17.9-11.8-27-20.7-45.5-44.8-48-117.6-5.8-165.9 7.4-8.5 15.8-16.3 25-23.3 56.6-44.2 31.6-107.3 31.3-107.9-3.2-7.7-1.8-16.6 3.7-22.9 5.5-6.3 14.1-8.9 22.1-7 31.7 8.1 64.2 25.6 91.4 49.5 60.9 53.4 109.1 177.8 49.5 259.1-16.2 22.1-38.5 38.5-63.3 48.4 8-1.2 16-2.2 24-4.1 2.9-.4 71.8-10.4 134.6-68 42.9-39.3 67.7-92.4 69.8-149.4 2-57-18.9-111.9-58.8-154.5" clip-rule="evenodd" style="fill: #019df4;"/></svg>
