<?xml version="1.0" encoding="UTF-8"?>
<svg xmlns="http://www.w3.org/2000/svg" viewBox="0 0 702.8 702.8"><path fill="#019df4" fill-rule="evenodd" d="M531.1 595.5c-18.7 17.2-40.1 31.2-63.3 41.5 49.2-79.2 3.9-194.1-53.2-244.4-26.4-23.3-57.9-40.4-88.6-48.3-11.5-2.9-23.2 4.2-26 15.7-1.1 4.5-.7 9.2 1 13.4.2.6 24.6 62.1-30.4 105.2-8.9 6.8-17 14.4-24.2 22.7-28.5 32.9-36.7 78.9-21.2 119.6-24-14.6-45.6-32.8-62.9-54.9-103.8-132.7-11.7-347.3 97.3-436.8 40-33 85.3-58.7 134.1-76.2-12.2 59.7-15.3 173 102.2 259 16.1 11.5 31 24.5 44 38.5 32.2 34.4 48.9 78.7 47.3 124.6-1.7 45.9-21.6 88.6-56.1 120.4m-206 60.9c-.2 0-22.8-4-43.2-24.2-27.9-27.5-29.3-72.5-3.4-102.3 5.3-6.1 11.4-11.8 18.2-17 43.4-34.1 54.1-78.5 52.5-113.6 13.4 7.1 25.9 15.7 37.3 25.8 44.5 39.2 83.8 136.8 41.7 194.5-17.2 23.3-43.9 37.7-72.8 39.4-1.3 0-2.7.1-4 0-2.3.1-4.7 0-7.1-.1-5.8-.4-11.4-1.4-17.1-2.1-.6-.2-1.4-.2-2.1-.4m246-335.5c-15.3-16.3-32.1-31-50.3-44C383.4 176.5 442 36.2 444.5 30.3c3.3-7.5 2.1-16.2-3.1-22.5-5.2-6.3-13.5-9.1-21.4-7.2C355.2 16 288.6 49.9 232.5 95.9 107.3 198.8 7.2 437.7 128.7 593c48.1 61.5 122.6 99.9 200.8 108.1 6.6.9 13.1 1.6 19.6 1.6 1.5 0 2.9-.2 4.3-.3 2.5.1 5 .4 7.5.4 21.7 0 43.3-2.3 64.6-7.2 2.9-.4 71.9-10.5 134.4-68.2 43-39.6 67.9-93.1 70-150.6 2.2-57.6-18.7-113-58.8-155.9" clip-rule="evenodd" style="fill: #019df4;"/></svg>
