<?xml version="1.0" encoding="UTF-8"?>
<svg xmlns="http://www.w3.org/2000/svg" viewBox="0 0 702.8 702.8"><path fill="#019df4" fill-rule="evenodd" d="M540.4 606.1c-26.5 24-57.7 42.1-91.7 53.2 3.6-3.9 7-7.9 10.2-12.2 57.1-77.6 10.3-196.7-48.4-248-26.4-23-57.8-39.9-88.4-47.7-3.1-7.5-11.7-11-19.2-7.9s-11 11.7-7.9 19.2c1.8 4.2 5.4 7.4 9.8 8.5.3.7 27.4 68.6-33.6 116.1-8.7 6.6-16.7 14.1-23.9 22.3-33.3 37.8-37.4 93.1-10.2 135.4-34.2-16.6-64.5-40.1-87.9-69.7-109.6-138.8-13.1-362.9 101.6-456.2 46.1-37.6 99.6-66.5 153-83.1-13.9 54-27.4 177.3 99.6 269.2 17.1 12.1 32.8 25.6 46.6 40.3 34.5 36.5 52.5 83.6 50.7 132.5-1.9 48.8-23.3 94.3-60.3 128.1m-218.6 64c-.2 0-25.7-4.4-48.5-26.6-31.5-31.1-33.2-81.4-3.8-114.6 5.9-6.6 12.4-12.8 19.7-18.3 47.8-37.2 55.1-87 50.2-122.3 18.8 8.3 36.3 19.4 51.8 32.9 49.1 42.8 90.6 145.3 44.1 208.5-18.7 25.3-48.2 40.7-79.5 43-3.1-.1-6.2.2-9.3.1-1 0-2 0-3-.1-7.2-.4-14.3-1.7-21.4-2.6h-.3m249.5-344.7c-15.5-16.3-32.5-31-50.8-44-146.7-106.3-83.8-254.5-81.1-260.8 2.3-5.1 1.4-11-2.1-15.3C433.8.9 428.1-1 422.7.4 356.8 16 289.1 50 232.2 96.3 44 249.4 43.7 489 126.2 593.5c48.3 61.1 123.1 99.4 201.9 107.6 6.6 1 13.1 1.6 19.7 1.6 1.6 0 9.6.1 12.1.1 21.9 0 44-2.4 65.6-7.3 2.9-.4 71.8-10.4 134.6-67.7 42.9-39.2 67.7-92 69.8-148.6 2.2-56.9-18.7-111.5-58.6-153.8" clip-rule="evenodd" style="fill: #019df4;"/></svg>
