<?xml version="1.0" encoding="UTF-8"?>
<svg xmlns="http://www.w3.org/2000/svg" viewBox="0 0 702.8 702.8"><path fill="#019df4" fill-rule="evenodd" d="M612.2 500.8h-97.5c-8.9 0-17.7 1.7-26.1 4.6l-21.3-34.7c4-6.1 7.5-12.7 9.9-20l29.8-91.6c3.1-9.4 4.2-19.1 3.9-28.6l41.9-17.6c5.2 7.6 11.6 14.3 18.9 19.4l77.9 56.7c2.3 1.7 5 2.7 7.4 4.2-3.5 43.4-12.7 79.6-25.8 110-6.3-1.4-12.6-2.4-19-2.4zm-174.3 56.3l-29.8 91.6c-.8 2.6-1 5.4-1.6 8.1-13.7 1.4-26.2 2-37 2.1h-6.6c-8.6 0-17.5-.1-25.2-.3-13.1-.3-28.9-1.5-46.1-3.9-.6-2.4-.7-4.9-1.5-7.3l-29.7-91.5c-3-9.5-8-18.3-14.3-26.1l20.8-31.4c10.7 5.4 22.5 8.8 35.1 8.8H399.6c12 0 23.4-2.8 33.8-7.5l19.1 31.2c-6.5 7.8-11.7 16.7-14.6 26.2zm-227.5-52.9c-8.8-3.2-18.1-5-27.4-4.9H86.1c-4.7 0-9.3.5-13.8 1.3-13.5-30.7-22.9-67.1-26.5-110.7 1.9-1.1 3.9-2 5.7-3.2l77.7-56.5c7.3-5.1 13.6-11.7 18.8-19l43.9 20.3c-.3 9.2.9 18.5 3.9 27.6l34.8 107.2h1.8c.5.8 1.1 1.4 1.6 2.2l-23.6 35.7zm2.8-437.1c3.8 4.3 7.6 8.6 12.3 12l77.7 56.4c7.8 5.9 16.7 10 26.2 12.6v51c-9.5 2.5-18.4 6.4-25.9 12.1l-77.9 56.6c-8.3 5.9-15 13.3-20.4 21.4l-42.6-19.7c.8-10.5-.3-21-3.6-30.6l-29.7-91.6c-2.2-6.9-5.6-13.3-9.5-19.3 28-29.1 60.7-48.3 93.4-60.9zm160.2 81.1c9.4-2.6 18.3-6.7 25.9-12.4l77.9-56.6c4.9-3.5 8.8-8 12.7-12.3 32.6 12.5 65.1 31.8 93 61-4.7 6.6-8.6 13.9-11.1 21.8l-29.7 91.4c-3.3 9.7-4.4 20-3.7 30.4l-41.2 17.3c-5.3-7.9-11.8-15-19.9-20.7l-77.8-56.5c-7.7-5.8-16.7-9.7-26.1-12.2v-51.2zM367.5.1c-3.6 0-7.2-.1-10.9-.1-7.4 0-14.8.1-21.3.2C268.3 1.4 0 26.6 0 350.5c0 323.1 267.8 350.3 336.7 352 8 .2 17.3.3 26.2.3h7.1c70.5-.6 332.8-24.8 332.8-350.2C702.8 26.6 438 1.1 367.5.1z" clip-rule="evenodd" style="fill: #019df4;"/></svg>
