<?xml version="1.0" encoding="UTF-8"?>
<svg xmlns="http://www.w3.org/2000/svg" viewBox="0 0 702.8 702.8"><path fill="#019df4" fill-rule="evenodd" d="M547.2 624.7c-35.2 22.2-72.9 34.3-105.5 41 .4-1.8.6-3.7 1.2-5.5l29.9-91.9c2.7-8.7 8.4-16.6 16.3-22.2 7.7-5.6 16.7-8 26.4-8.5h96.7c5.7 0 11.2 1.4 16.4 3.5-20 33.9-47.9 62.6-81.4 83.6zm-177.5 48.8H363c-8.7 0-17.8-.1-25.6-.3-11.3-.3-29.3-1.4-50.8-4.8-.3-6.4-1.5-12.7-3.4-18.8l-29.8-91.5c-3.3-10.4-8.9-19.9-16.5-27.8l27.3-41.3c11.2 6.9 24.1 10.8 37.8 10.8h97.5c13.1 0 25.6-3.6 36.5-9.8l25.4 41.4c-7.6 7.9-13.3 17.5-16.7 28L415.1 651c-2 6.3-3.1 12.9-3.4 19.5-17.5 2.1-32.3 2.9-42 3zm-294.8-136c3.5-.9 7.2-1.6 11.6-1.6h96.6c8.9.8 18.4 2.9 26.2 8.5 7.8 5.6 13.5 13.6 16.3 22.5l29.9 91.8c.4 1.1.4 2.3.7 3.5-30.8-7.4-65.4-19.5-98-40-34.1-21.2-62.6-50.3-83.3-84.7zm12.4-392.6c3.1 4.1 5.5 8.6 7.1 13.6l29.9 91.9c2.9 8.6 2.9 18.4 0 27.5-2.9 9-8.6 16.9-16.3 22.4L29.9 357c-.1.1-.2.1-.3.2 0-2.3-.3-4.5-.3-6.9 0-92.5 23.6-158.4 58-205.4zM211.4 53c5 7.7 10.8 14.7 18.4 20.1l77.9 56.6c8.5 6.3 18.5 10.5 29.1 12.7V205c-10.5 1.8-20.4 5.9-29 12.2l-78 56.6c-9 6.5-16.5 15-21.8 24.8l-53-24.5c1.5-11.2.6-22.5-2.9-32.9l-29.8-91.7c-3.3-10.2-8.9-19.6-16.2-27.4 31.5-33.8 69-55.4 105.3-69.1zm124.4-23.5c10.4-.2 20.8-.2 31.2-.1 18.4.3 54.5 2.6 95.3 13.8-2.1 2.2-4 4.5-6.5 6.3l-78.2 56.8c-14.6 11-37.6 11.1-52.6-.1l-78.1-56.8c-2.3-1.7-4.2-3.8-6.1-5.9 31-8.6 62.9-13.3 95-14zm261.5 92.7c-8.4 8.3-14.8 18.5-18.4 29.7l-29.8 91.5c-3.5 10.5-4.5 21.7-3 32.7l-51.8 21.8c-5.2-9.5-12.5-17.6-21.2-24l-77.8-56.5c-8.6-6.3-18.6-10.5-29.1-12.3v-62.6c10.5-2.1 20.6-6.3 28.9-12.6L473 73.3c7.8-5.5 13.7-12.8 18.7-20.6 18.1 6.8 36.5 15.4 54.4 26.7 19.3 12 36.2 26.5 51.2 42.8zM260.5 439.7l-3.3-10.1h-.1l-26.5-81.9c-6.1-18.5.5-38.9 16.4-50.2l78.2-56.8c14.5-11 37.5-11.1 52.6.1l78.1 56.7c15.9 11.4 22.5 31.6 16.4 50.2l-29.9 91.6c-6 18.5-23.2 31.1-42.7 31.1H303c-18.7 1.1-36.3-12-42.5-30.7zm-47.3 73.5c-9.8-4.6-20.4-7.1-30.3-6.5H86.6c-8.8.2-17.5 2-25.8 5.1-16.4-35.3-26.3-76.2-29.8-122.2 5.7-2.3 11.2-5.2 16.2-8.8l77.8-56.6c8.2-5.8 15-13.6 20.2-22.3l54.4 25.1c-1 10 .1 20.2 3.2 29.8L236 458.9h.9c1.7 3.4 4.1 6.1 6.2 9.2-.1 0-29.9 45.1-29.9 45.1zm272.4 1.5l-27.1-44.2c5-6.5 9-13.9 11.7-22.1l29.8-91.6c3.4-10.2 4.2-20.8 3.1-31l52.5-22.1c5.3 9 12.1 16.9 20.3 22.7l78 56.6c5.5 4 11.6 7 18 9.4-3.5 46.2-13.2 87.1-29.2 122.3-9.6-4.4-19.9-6.7-30.4-6.7H515.7c-10.4.6-20.6 2.8-30.1 6.7zm187.6-154.1c-.7-.4-1.4-.7-2-1.2L593 302.7c-7.7-5.5-13.3-13.3-16.2-22.3-3-9-3-18.7 0-27.7l29.8-91.8c1.9-5.9 5.2-11 9.2-15.6 38.1 52.6 57.7 121.6 57.7 207.3 0 2.7-.2 5.3-.3 8zM367.5.1c-10.7-.1-21.4-.1-32.1.1C268.3 1.4 0 26.6 0 350.5c0 323.1 267.9 350.3 336.7 352 8 .2 17.3.3 26.3.3h7c70.6-.6 332.8-24.8 332.8-350.3C702.8 26.6 438.1 1.1 367.5.1z" clip-rule="evenodd" style="fill: #019df4;"/></svg>
