<?xml version="1.0" encoding="UTF-8"?>
<svg xmlns="http://www.w3.org/2000/svg" viewBox="0 0 702.8 702.8"><path fill="#019df4" fill-rule="evenodd" d="M658.9 344.8c-1.9 4.8-7.9 10.3-18.2 10.3h-40.4c-11.9 0-21.5 9.6-21.5 21.5v268.8c0 7.8-8.7 14.3-19 14.3h-26.9V379.6c0-11.9-9.6-21.5-21.5-21.5h-321c-11.9 0-21.5 9.6-21.5 21.5v280.1h-30c-10.3 0-19-6.5-19-14.3V376.6c0-11.9-9.6-21.5-21.5-21.5H62.1c-10.4 0-16.3-5.6-18.2-10.3-1.9-4.5-.8-8.7 3.2-12.6L336.4 48.6c7.7-7.6 22.3-7.6 30 0l289.3 283.6c4 3.9 5 8.2 3.2 12.6zM211.9 459h278v-57.8h-278V459zm0 200.7h278v-57.4h-278v57.4zm0-100.3h278V502h-278v57.4zm473.9-257.9L396.5 18c-24.4-23.9-65.8-23.9-90.2 0L16.9 301.6C.5 317.7-4.4 340.5 4 361.2c9.2 22.5 32 37.1 58 37.1h14.8v247.3c0 31.6 27.8 57.3 62 57.3h51.5c.2 0 .3-.1.5-.1.1 0 .2.1.3.1h318.5c.3 0 .5-.1.7-.1.3 0 .6.1.9.1h48.4c34.2 0 62-25.7 62-57.3V398.3h18.9c26 0 48.8-14.5 58-37.1 8.7-20.8 3.7-43.6-12.7-59.7z" clip-rule="evenodd" style="fill: #019df4;"/></svg>
