<?xml version="1.0" encoding="UTF-8"?>
<svg xmlns="http://www.w3.org/2000/svg" viewBox="0 0 702.8 702.8"><path fill="#019df4" fill-rule="evenodd" d="M672.1 347.5c-2.9 6.9-11.2 15.1-25.4 15.1h-41.3c-8.1 0-14.6 6.5-14.6 14.6v274.3c0 12.1-12 22-26.7 22h-34.8V380.3c0-8.1-6.6-14.6-14.6-14.6H187.1c-8.1 0-14.6 6.6-14.6 14.6v293.2h-37.9c-14.7 0-26.7-9.8-26.7-21.9V377.3c0-8.1-6.6-14.6-14.6-14.6H56c-14.1 0-22.5-8.2-25.3-15.1-1.8-4.2-3.4-12.7 4.9-20.8L331 37.2c10.7-10.5 30.2-10.5 40.9 0l295.3 289.4c8.3 8.2 6.7 16.6 4.9 20.9zm-470.4 121H500v-73.6H201.7v73.6zm0 204.9H500v-73.2H201.7v73.2zm0-102.4H500v-73.2H201.7V571zm485.9-265.3L392.3 16.3c-22.2-21.7-59.7-21.7-81.8 0L15.2 305.7C.6 320-3.9 340.3 3.6 358.6c8.3 20.2 28.8 33.3 52.4 33.3h22.5v259.7c0 28.2 25.1 51.2 56 51.2h52.6c.2 0 .3-.1.5-.1l.4.1h325.1c.3 0 .5-.1.8-.1.3 0 .5.2.8.2h49.4c30.9 0 56-23 56-51.2V391.9h26.6c23.6 0 44.2-13.1 52.5-33.3 7.5-18.3 3-38.5-11.6-52.9z" clip-rule="evenodd" style="fill: #019df4;"/></svg>
