<?xml version="1.0" encoding="UTF-8"?>
<svg xmlns="http://www.w3.org/2000/svg" viewBox="0 0 702.8 702.8"><path fill="#019df4" fill-rule="evenodd" d="M209 702.8v-73.2h283.8v73.2H209zm0-111.8v-73.3h283.7V591H209zm0-116.3v-73.3h283.7v73.3H209zm478.7-169c14.6 14.3 19 34.6 11.6 52.8-8.3 20.2-28.9 33.3-52.5 33.3h-26.6v259.7c0 28.3-25.1 51.2-56 51.2h-27.5V380.3c0-12.1-9.8-22-22-22H187c-12.1 0-22 9.8-22 22v322.5h-30.6c-30.9 0-56-23-56-51.2V391.9H56.1c-23.6 0-44.2-13.1-52.5-33.3-7.5-18.3-3.1-38.6 11.5-52.9L310.5 16.3c22.1-21.7 59.7-21.7 81.8 0l295.4 289.4z" clip-rule="evenodd" style="fill: #019df4;"/></svg>
