<?xml version="1.0" encoding="UTF-8"?>
<svg xmlns="http://www.w3.org/2000/svg" viewBox="0 0 702.8 702.8"><g fill="#019df4" fill-rule="evenodd" clip-rule="evenodd"><path d="M612.6 281.9c40.2-.7 45.9-27 46.8-43.1v-5.1c0-.3.2-.6.2-.9v-1.2c0-8.2-.1-24.8-10.9-36.7l-1.8-1.8c-7-6.8-17.9-11.8-35-12.2l-5.9-.1h-1.6c-46.1.4-46.1 36.6-46.1 50.2 0 13.7 0 50.2 46.9 50.8h1.9l5.5.1zM386 653.6V49.9c-.2-2.1-4.4-6.1-7.1-6.1H50.3c-2.7 0-6.9 4-7.1 6.2v603.7c0 2.2 3.6 6.1 7.1 6.1h328.6c3.5 0 7.1-4 7.1-6.2zm316.5-418.3l.3 367.2c0 72.7-52.1 99.5-96.8 100.4h-5.1c-47.4-.6-99.6-27.4-99.6-100.8V463.9c-.1-30.3-24.7-54.8-55-54.8h-17.2v244.7c0 26.2-23.5 49.2-50.3 49.2H50.2C23.4 703-.1 680-.1 653.8v-604C0 24.1 24 .7 50.3.7h328.6c26.3 0 50.3 23.5 50.3 49.2v316h17.2c54.1 0 98 43.8 98.1 97.9l.1 138.2c0 49.6 34 57.5 54.3 57.8h6.5c20.3-.4 54.4-8.3 54.4-57.3l-.2-289c-14.3 7.2-30.1 11.1-46.2 11.5l-6 .1h-2.5c-18.9-.3-89.5-7.1-89.5-93.9 0-74.1 51.1-89.5 77.6-92.5l-100.9-102c-8.4-8.5-8.3-22.1.2-30.5 8.5-8.4 22.1-8.3 30.5.2l154.7 156.3c.9.9 1.9 1.8 2.8 2.8l.2.3.1.2c12.8 13.9 22.1 34.6 22.1 65.6 0 1.3-.1 2.4-.2 3.7zm-402.6 5.8l.2-107.1H133.9l-.3 107 166.3.1zM306.2 91c19.8 0 37.1 19.3 37.1 41.4v110.3c0 22.4-17 41.4-37.1 41.4H127.7c-20.1 0-37.2-19-37.2-41.4V132.4c0-22.1 17.4-41.4 37.2-41.4h178.5z" style="fill: #019df4;"/><path d="M612.6 281.9c40.2-.7 45.9-27 46.8-43.1v-5.1c0-.3.2-.6.2-.9v-1.2c0-8.2-.1-24.8-10.9-36.7l-1.8-1.8c-7-6.8-17.9-11.8-35-12.2l-5.9-.1h-1.6c-46.1.4-46.1 36.6-46.1 50.2 0 13.7 0 50.2 46.9 50.8h1.9l5.5.1zM386 653.6V49.9c-.2-2.1-4.4-6.1-7.1-6.1H50.3c-2.7 0-6.9 4-7.1 6.2v603.7c0 2.2 3.6 6.1 7.1 6.1h328.6c3.5 0 7.1-4 7.1-6.2zm316.5-418.3l.3 367.2c0 72.7-52.1 99.5-96.8 100.4h-5.1c-47.4-.6-99.6-27.4-99.6-100.8V463.9c-.1-30.3-24.7-54.8-55-54.8h-17.2v244.7c0 26.2-23.5 49.2-50.3 49.2H50.2C23.4 703-.1 680-.1 653.8v-604C0 24.1 24 .7 50.3.7h328.6c26.3 0 50.3 23.5 50.3 49.2v316h17.2c54.1 0 98 43.8 98.1 97.9l.1 138.2c0 49.6 34 57.5 54.3 57.8h6.5c20.3-.4 54.4-8.3 54.4-57.3l-.2-289c-14.3 7.2-30.1 11.1-46.2 11.5l-6 .1h-2.5c-18.9-.3-89.5-7.1-89.5-93.9 0-74.1 51.1-89.5 77.6-92.5l-100.9-102c-8.4-8.5-8.3-22.1.2-30.5 8.5-8.4 22.1-8.3 30.5.2l154.7 156.3c.9.9 1.9 1.8 2.8 2.8l.2.3.1.2c12.8 13.9 22.1 34.6 22.1 65.6 0 1.3-.1 2.4-.2 3.7zm-402.6 5.8l.2-107.1H133.9l-.3 107 166.3.1zM306.2 91c19.8 0 37.1 19.3 37.1 41.4v110.3c0 22.4-17 41.4-37.1 41.4H127.7c-20.1 0-37.2-19-37.2-41.4V132.4c0-22.1 17.4-41.4 37.2-41.4h178.5z" style="fill: #019df4;"/></g></svg>
