<?xml version="1.0" encoding="UTF-8"?>
<svg xmlns="http://www.w3.org/2000/svg" viewBox="0 0 702.8 702.8"><path fill="#019df4" fill-rule="evenodd" d="M610.6 295.1c28.5-.6 62.5-12.4 62.5-66s-34.3-65.7-63-66.4l-6.7-.1H602c-28.1.3-61.6 11.9-61.6 65.9 0 54.3 33.9 66.1 62.4 66.5l7.8.1zM394.1 659.9V43.6c0-6.2-7.9-13.6-14.6-13.6H44c-6.7 0-14.6 7.3-14.6 13.6v616.3c0 6.8 7.4 13.6 14.6 13.6l335.5.1c7.2-.1 14.6-6.9 14.6-13.7zm308.4-428.7l.3 376.5c0 68.9-49.3 94.3-91.5 95l-5.1.1h-3.1c-44-.6-91.3-26.1-91.3-95.6V466.1c-.1-35-28.5-63.3-63.5-63.2h-24.9V660c0 22.8-20.5 42.9-43.9 42.9H44c-23.4 0-44-20.1-44-42.9V43.6C0 21.1 21 .7 44 .7h335.5c23 0 44 20.4 44 42.9v329.9h24.9c51.2 0 92.7 41.4 92.8 92.6v141.1c0 59 43.8 66 62.7 66.3h6.9c18.9-.4 62.7-7.5 62.7-65.8l-.2-305.2c-22.5 19.2-51.6 21.7-62.2 21.9h-8.8c-19.2-.3-91.4-7.2-91.4-95.8 0-88.5 71.4-95.1 90.7-95.3h1.7l5.6.1L500.3 25c-5.7-5.7-5.7-15 0-20.7 5.7-5.7 15-5.7 20.7 0l147.3 147c.4.3.5.8.8 1.1 18.2 13.6 33.3 36.8 33.3 76.7l-.1 1c.1.4.2.7.2 1.1zm-396.1 9.3V127.9c0-2.7-1.8-5.4-2.8-6l-180.6.3c.6.3-1.2 2.9-1.2 5.7v112.6c0 2.8 1.4 4.9 2.2 5.7h181.3c-.7-.3 1.1-2.6 1.1-5.7zm-1.2-147.6c16.3 0 30.6 16.3 30.6 35v112.6c0 18.9-14 35-30.6 35H123c-16.6 0-30.6-16-30.6-35V127.8c0-18.6 14.3-35 30.6-35l182.2.1z" clip-rule="evenodd" style="fill: #019df4;"/></svg>
