<?xml version="1.0" encoding="UTF-8"?>
<svg xmlns="http://www.w3.org/2000/svg" viewBox="0 0 702.8 702.8"><path fill="#019df4" fill-rule="evenodd" d="M343.3 242.7c0 22.4-17 41.4-37.1 41.4H127.7c-20.1 0-37.2-19-37.2-41.4V132.4c0-22 17.3-41.4 37.2-41.4h178.5c19.8 0 37.1 19.4 37.1 41.4v110.3zm316.3-9.9c0 .3-.2.6-.2.9v5.1c-.8 16.1-6.6 42.4-46.8 43.1l-5.3.1h-2c-46.9-.7-46.9-37.1-46.9-50.8 0-13.7 0-49.9 46-50.2h1.6l5.8.1c17.2.4 28 5.4 35.1 12.2l1.7 1.8c10.8 12 10.9 28.5 10.9 36.7.1.1.1.6.1 1zm42.9 2.4c0-1.3.2-2.4.2-3.7 0-31.1-9.4-51.7-22.1-65.7-.1-.1-.1-.1-.1-.2l-.3-.3c-.9-1-1.8-1.9-2.8-2.8L522.7 6.2c-8.3-8.4-22-8.6-30.5-.2s-8.5 22-.2 30.4l100.8 101.8c-26.6 3-77.6 18.5-77.6 92.6 0 86.8 70.6 93.6 89.4 93.9h2.6c2.1 0 4.2 0 6-.1 8.2-.2 27.5-1.7 46.1-11.5l.2 289.1c0 48.9-34.1 56.9-54.4 57.3h-6.5c-20.3-.3-54.3-8.2-54.3-57.7V463.5c0-54-44-97.9-98.1-97.9h-17.1v-316c0-25.7-24-49.2-50.3-49.2H50.2C23.9.4-.1 23.9-.1 49.6v603.8c0 26.2 23.5 49.2 50.3 49.2h328.6c26.8 0 50.3-23 50.3-49.2V408.7h17.1c30.3 0 55 24.6 55 54.8v138.3c0 73.4 52.2 100.2 99.6 100.8h5.1c44.6-.8 96.7-27.6 96.7-100.4l-.1-367z" clip-rule="evenodd" style="fill: #019df4;"/></svg>
