<?xml version="1.0" encoding="UTF-8"?>
<svg xmlns="http://www.w3.org/2000/svg" viewBox="0 0 702.8 702.8"><path fill="#019df4" fill-rule="evenodd" d="M0 216.7C0 190.3 20.4 169 45.7 169H55v365h-9.3C20.5 534 0 512.6 0 486.3V216.7zm657.1-47.8c25.2 0 45.7 21.4 45.7 47.7v269.5c0 26.4-20.5 47.7-45.7 47.7h-8.6v-365h8.6zm-441.3-4v100.5h.5v172.1h-.5V538c0 26.4-20.4 47.7-45.7 47.7h-39.2c-24.7 0-44.8-20.6-45.5-46.2v-376c.7-25.7 20.8-46.3 45.5-46.3h39.2c25.2-.1 45.7 21.3 45.7 47.7zm30.9 258.6V279.3h210.4v144.2H246.7zM618 164.9v4h.1v365h-.1v4c0 26.4-20.5 47.7-45.7 47.7h-39.2c-25.2 0-45.7-21.4-45.7-47.7v-373c0-26.4 20.4-47.7 45.7-47.7h39.2c25.3-.1 45.7 21.3 45.7 47.7z" clip-rule="evenodd" style="fill: #019df4;"/></svg>
