<?xml version="1.0" encoding="UTF-8"?>
<svg xmlns="http://www.w3.org/2000/svg" viewBox="0 0 702.8 702.8"><path fill="#019df4" fill-rule="evenodd" d="M618.1 486.1h39.1V216.6h-39.1v269.5zm-84.9 51.8V390.4c0-.3.1-.4.1-.7v-76.6c0-.3-.1-.4-.1-.7V164.9h39.2v50.9c0 .3-.1.5-.1.9v269.5c0 .3.1.6.1.9V538h-39.2zM215.8 389.7h271.8v-76.6H215.8v76.6zm-84.9 148.2v-373h39.2v142.9c-.2 1.8-.5 3.5-.5 5.3v76.6c0 1.8.3 3.6.5 5.3v142.8h-39.2zm-85.2-51.8h39.2V216.6H45.7v269.5zm611.4-317.2H618v-4c0-26.4-20.5-47.7-45.7-47.7h-39.2c-25.2 0-45.7 21.4-45.7 47.7v100.5H215.6V164.9c0-26.4-20.5-47.7-45.7-47.7h-39.2c-25.2 0-45.7 21.4-45.7 47.7v4.1c-.2 0-.3-.1-.4-.1H45.4c-25.2 0-45.7 21.4-45.7 47.7v269.5c0 26.4 20.4 47.7 45.7 47.7h39.2c.2 0 .3-.1.4-.1v4.1c0 26.4 20.5 47.7 45.7 47.7h39.2c25.2 0 45.7-21.4 45.7-47.7V437.4h271.8v100.4c0 26.4 20.4 47.7 45.7 47.7h39.2c25.2 0 45.7-21.4 45.7-47.7v-4h39.1c25.2 0 45.7-21.4 45.7-47.7V216.6c0-26.3-20.5-47.7-45.7-47.7z" clip-rule="evenodd" style="fill: #019df4;"/></svg>
