<?xml version="1.0" encoding="UTF-8"?>
<svg xmlns="http://www.w3.org/2000/svg" viewBox="0 0 702.8 702.8"><path fill="#019df4" fill-rule="evenodd" d="M626.4 496h43V206.9h-43V496zM593 551.5h-43V392.6v-82.3-159h43v400.2zm-403.9-159h324.6v-82.2H189.1v82.2zm-36.4 159h-43v-55c0-.2.1-.4.1-.6V206.8c0-.2-.1-.4-.1-.5v-55h43v400.2zM33.4 496h42.9V206.9H33.4V496zm636-323.3h-43-.1v-21.4c0-18.8-15-34.2-33.4-34.2h-43c-18.4 0-33.4 15.3-33.4 34.2v125.4c-1-.1-1.8-.6-2.8-.6H189.1c-1.1 0-1.9.5-3 .6V151.3c0-18.8-15-34.2-33.4-34.2h-43c-18.4 0-33.4 15.3-33.4 34.2v21.4H33.4C14.9 172.7 0 188 0 206.8V496c0 18.9 14.9 34.1 33.4 34.1h42.9v21.4c0 18.9 15 34.2 33.4 34.2h43c18.4 0 33.4-15.3 33.4-34.2V426.1c1.1.1 1.9.6 3 .6h324.6c1 0 1.9-.5 2.8-.6v125.4c0 18.9 15 34.2 33.4 34.2h43c18.4 0 33.4-15.3 33.4-34.2v-21.4h43.1c18.5 0 33.4-15.3 33.4-34.1V206.9c0-18.9-14.9-34.2-33.4-34.2z" clip-rule="evenodd" style="fill: #019df4;"/></svg>
