<?xml version="1.0" encoding="UTF-8"?>
<svg xmlns="http://www.w3.org/2000/svg" viewBox="0 0 702.8 702.8"><path fill="#019df4" fill-rule="evenodd" d="M659.8 488.9c0 9.2-4.4 18.9-12.2 26.6-7.4 7.3-16.5 11.5-25.3 11.9.1-2.6.6-5 .6-7.7 0-68.1-42.5-110.3-110.8-110.3s-110.8 42.3-110.8 110.3c0 2.8.5 5.2.6 7.8H283c.1-2.6.6-5.1.6-7.8 0-68.1-42.5-110.3-110.8-110.3S62 451.7 62 519.7v.2c-2.3-1.5-4.9-2.5-6.9-4.5-7.8-7.7-12.2-17.4-12.2-26.6V353.2h284.5c11.9 0 21.5-9.6 21.5-21.4V151.9H481c14.7 0 30.8 8 39.1 19.5 15.9 21.8 107.9 143.5 120 159 7.4 9.6 19.7 25.6 19.7 39.1v119.4zm-147.6 98.4c-44.9 0-67.7-22.7-67.7-67.5s22.8-67.5 67.7-67.5S580 475 580 519.8s-22.9 67.5-67.8 67.5zm-339.3 0c-44.9 0-67.7-22.7-67.7-67.5s22.8-67.5 67.7-67.5 67.7 22.7 67.7 67.5c.1 44.8-22.7 67.5-67.7 67.5zM127 116.9L260.3 310l-42.8-.1-95.9-193.1c.1 0 5.4.1 5.4.1zm547.2 187.4c-12-15.5-103.4-136.4-119-158-16.4-22.7-45.4-37.3-74-37.3H327.6c-11.9 0-21.5 9.6-21.5 21.4v170l-149.9-217c-4-5.8-10.5-9.3-17.6-9.3l-51.5-.4h-.2c-2 0-3.7.9-5.6 1.4-1.6.3-3.2.5-4.7 1.2-.1 0-.2.1-.4.2C68.8 80 64 87.4 64 95.5l-.2 149.8c.1 1.5-.4 8.2-3 11.1-1.2 1.3-3.6 1.9-7.1 2-3.4-1.1-6.3-.3-7.9-2-2.3-2.5-3-8.8-2.7-12.2 1.4-11.8-7.1-22.5-18.9-23.9-11.8-1.4-22.5 7.1-23.9 18.9-.3 2.9-2.7 27.9 13.4 45.8 6.7 7.4 19 16.3 39.8 16.3h.5c19.8-.1 31.8-8.7 38.4-15.8 15.8-17 14.5-40.6 14.3-41.6l.1-60.4 63 126.8H21.6C9.7 310.3.1 319.9.1 331.7v157.1c0 20.5 9 41.2 24.8 56.9 12.7 12.6 28.6 20.4 46.6 23.3 15.9 38.4 51.7 61 101.4 61 49.1 0 84.5-22.1 100.7-59.7h137.9c16.2 37.6 51.6 59.7 100.7 59.7s84.5-22.1 100.7-59.7h8c20.5 0 41.3-9 57.1-24.7 15.8-15.7 24.8-36.4 24.8-56.9V369.6c0-28.2-18.7-52.3-28.6-65.3z" clip-rule="evenodd" style="fill: #019df4;"/></svg>
