<?xml version="1.0" encoding="UTF-8"?>
<svg xmlns="http://www.w3.org/2000/svg" viewBox="0 0 702.8 702.8"><path fill="#019df4" fill-rule="evenodd" d="M673.5 493.9c0 11.2-5.3 23-14.6 32.1-9.3 9.2-21.1 14.5-32.4 14.5h-6.4c.5-5 1.2-9.9 1.2-15.2 0-65.7-39.5-104.8-105.8-104.8-66.2 0-105.8 39.2-105.8 104.8 0 5.4.7 10.2 1.2 15.2H273.7c.5-5 1.2-9.9 1.2-15.2 0-65.7-39.5-104.8-105.8-104.8-66.2 0-105.7 39.2-105.7 104.8 0 4.4.6 8.5 1 12.7-7.7-2.2-14.8-6.3-20.5-11.9-9.2-9.2-14.6-20.9-14.6-32.1V348.8H327c8.1 0 14.6-6.5 14.6-14.5v-190h142.2c17.3 0 36.1 9.4 45.9 22.8 16.1 22.1 109.9 145.6 122.2 161.5 8.1 10.4 21.7 27.9 21.7 44.2-.1-.1-.1 121.1-.1 121.1zm-158 107.2c-50 0-76.5-26.2-76.5-75.8s26.5-75.8 76.5-75.8 76.5 26.2 76.5 75.8-26.5 75.8-76.5 75.8zm-346.4 0c-50 0-76.4-26.2-76.4-75.8s26.4-75.8 76.4-75.8c50.1 0 76.5 26.2 76.5 75.8s-26.4 75.8-76.5 75.8zm-42-498l146.2 210.7-62.1-.1-105.3-210.8 21.2.2zm548 207.7C662.9 295 569.4 172.1 553.5 150.1c-15.3-21.2-42.7-34.8-69.6-34.8H327c-8.1 0-14.6 6.5-14.6 14.5v189L146.9 80.4c-2.7-3.9-7.2-6.3-12-6.3l-52.5-.4h-.1c-2 .1-4 .6-5.8 1.5-6 1.8-10.2 7.3-10.2 13.6L66 240.4c.2 2-.2 11.5-5 16.7-1 1-4 4.2-12.6 4.3h-.2c-9.3 0-12.3-3.3-13.3-4.4-4.7-5.2-4.9-15.1-4.6-18 .9-8-4.7-15.2-12.7-16.1h-.1c-7.9-1-15.2 4.5-16.2 12.5v.2c-.3 2.5-2.5 24.9 11.8 40.7 5.9 6.5 16.7 14.1 35.2 14.1h.4c17.6-.1 28.1-7.5 33.9-13.6 14-15.1 12.9-36.2 12.7-37.4l.2-92.1 86.1 172.5h-167c-8.1 0-14.6 6.5-14.6 14.5v159.6c0 18.9 8.4 38.1 23.1 52.7 12.6 12.5 28.8 19.8 47.2 22 14.1 39.2 48.8 61.6 98.7 61.6 49.6 0 84.2-22 98.5-60.6H417c14.3 38.7 48.9 60.6 98.5 60.6s84.2-22 98.5-60.6h12.5c19.1 0 38.5-8.3 53.1-22.9 14.7-14.6 23.2-33.8 23.2-52.7V372.7c0-26.1-17.4-48.5-27.7-61.9z" clip-rule="evenodd" style="fill: #019df4;"/></svg>
