<?xml version="1.0" encoding="UTF-8"?>
<svg xmlns="http://www.w3.org/2000/svg" viewBox="0 0 702.8 702.8"><path fill="#019df4" fill-rule="evenodd" d="M512.2 587.2c-44.9 0-67.7-22.7-67.7-67.5s22.8-67.5 67.7-67.5c44.9 0 67.7 22.7 67.7 67.5s-22.8 67.5-67.7 67.5m-339.3 0c-44.9 0-67.7-22.7-67.7-67.5s22.8-67.5 67.7-67.5c44.9 0 67.7 22.7 67.7 67.5s-22.8 67.5-67.7 67.5m501.2-282.8c-12-15.5-103.4-136.4-119-158-16.3-22.7-45.4-37.3-74-37.3H327.5c-11.9 0-21.5 9.6-21.5 21.4v169.9l-149.9-217c-4-5.8-10.5-9.2-17.6-9.3L87 73.7h-.2c-2 0-3.7.9-5.6 1.4-1.6.3-3.2.6-4.7 1.2-.1.1-.2.2-.4.3-7.1 3.5-12.2 10.6-12.2 19.1l-.3 149.8c.1 1.5-.3 8.2-3 11.1-1.2 1.3-3.6 1.9-7.1 1.9-3.4-1-6.3-.3-7.9-2-2.3-2.5-3-8.8-2.7-12.1 1.3-11.7-7.1-22.4-18.9-23.8-11.9-1.2-22.5 7-23.9 18.8-.3 2.8-2.7 27.8 13.4 45.7 6.7 7.5 19 16.3 39.8 16.3h.5c19.8-.1 31.9-8.7 38.4-15.8 15.7-17 14.5-40.6 14.3-41.6l.1-60.3 63 126.8H21.3c-11.9 0-21.5 9.6-21.5 21.4V489c0 20.5 9 41.2 24.8 56.9 12.6 12.6 28.6 20.4 46.7 23.3 15.9 38.5 51.7 61 101.4 61 49.1 0 84.5-22.1 100.7-59.6h137.8c16.2 37.6 51.6 59.6 100.7 59.6s84.5-22.1 100.7-59.6h8c20.5 0 41.4-9 57.1-24.7 15.8-15.7 24.8-36.5 24.8-56.9V369.7c.3-28.2-18.4-52.4-28.4-65.3" clip-rule="evenodd" style="fill: #019df4;"/></svg>
