<?xml version="1.0" encoding="UTF-8"?>
<svg xmlns="http://www.w3.org/2000/svg" viewBox="0 0 702.8 702.8"><path fill="#019df4" fill-rule="evenodd" d="M586 662.4V92.5c0-2.9-9.3-11.8-22.5-11.8H458.4c.5 3.5.9 6.9 1.1 10.5l.3 6.8-.1 3.3c-1.6 46.6-44.4 56.2-108.1 56.2s-106.5-9.7-108.2-56.8v-6.9l.2-3.3c.1-3.5.8-6.6 1.2-9.8H139.5c-13.2 0-22.5 9-22.5 11.8v569.9c0 4 9.8 11.8 22.5 11.8h424c12.7 0 22.5-7.9 22.5-11.8zM351.4 28.6c-52 0-77 20.3-79.1 63.9l-.2 5.5c.5 14 1.1 30.9 79.2 30.9s78.8-16.9 79.2-29.2V95c-.2-8.4-1.5-16.7-3.9-24.7-8.8-28.1-33.4-41.7-75.2-41.7zm212 23.5c27 0 51.5 19.3 51.5 40.4v569.9c0 22-23.6 40.4-51.5 40.4h-424c-27.9 0-51.5-18.5-51.5-40.4V92.5c0-21.2 24.6-40.5 51.5-40.5H252c15-33.7 49.1-52 99.5-52 61.3 0 87.9 26.5 99.3 52.1h112.6zm-244.2 52.6c-7.9 0-14.4-6.3-14.5-14.3 0-7.9 6.5-14.3 14.5-14.3h64.3c8 0 14.5 6.4 14.5 14.3s-6.5 14.3-14.5 14.3h-64.3zm236.7 309.5c8 0 14.5 6.4 14.5 14.3s-6.5 14.3-14.5 14.3H453.7c-6.1 0-11.6-3.8-13.7-9.5l-17.6-49.5-14.5 48.8c-1.9 6.1-7.5 10.3-13.9 10.2h-23.8l-23.3 75.4c-1.9 6-7.5 10.1-13.9 10.1h-.7c-6.6-.3-12.2-5-13.5-11.5l-36.5-180-29.5 94c-1.9 6-7.5 10.1-13.9 10.1h-92c-7.9.1-14.4-6.3-14.5-14.3 0-7.9 6.4-14.3 14.5-14.3h81.3l43.2-137.7c1.9-6.4 8-10.6 14.6-10 6.6.3 12.2 5 13.5 11.5l36.4 179.5 9.6-31.2c1.9-6 7.6-10.1 13.9-10.1h23.7l24.1-81.1c1.8-6 7.3-10.1 13.5-10.2 6.3-.2 12 3.6 14.1 9.5l29.1 81.8 92-.1z" clip-rule="evenodd" style="fill: #019df4;"/></svg>
