<?xml version="1.0" encoding="UTF-8"?>
<svg xmlns="http://www.w3.org/2000/svg" viewBox="0 0 702.8 702.8"><path fill="#019df4" fill-rule="evenodd" d="M418 77.8c-2.8-8.9-11.3-35.8-66.6-35.8-59.7 0-68.7 29.9-69.9 56l-.2 13.8c.4 9.5.8 23.3 70.1 23.3s69.8-13.8 70-21.9v-12.9c-.1-7.6-1.3-15.2-3.4-22.5zm139.8-26.7c30.5 0 57.2 21.8 57.2 46.6v558.5c0 25.3-26.2 46.6-57.2 46.6H145.1c-31 0-57.2-21.4-57.2-46.6V97.6C87.9 72.8 114.6 51 145 51h105.5C267.3 18.4 302 0 351.4 0c60.2 0 88.1 25.3 101 51.1h105.4zm-26.1 361h-55.8l-27-76.4c-2.9-8-10.6-13.2-19.1-13.1-8.6.2-16 5.9-18.5 14.1L389 412.2h-18.9c-7.8 0-14.8 4.5-18 11.6l-12.5 27.7-34.2-170.4c-1.8-8.8-9.4-15.3-18.4-15.7-9.1-.7-17.4 5.1-19.9 13.8l-40.8 131.1H171c-10.9 0-19.8 8.8-19.8 19.6s8.8 19.6 19.8 19.6h69.8c8.6 0 16.3-5.6 18.9-13.8l22.1-71L313 519.5c1.9 9.2 10 15.8 19.4 15.8 7.7 0 14.8-4.5 18-11.6l32.5-72.2h20.9c8.7 0 16.4-5.7 18.9-14.1l9.2-31 11.3 32c2.8 7.8 10.2 13.1 18.6 13.1h69.8c10.9 0 19.7-8.8 19.7-19.6s-8.7-19.7-19.6-19.8zM326.6 111.9c-10.9 0-19.7-8.7-19.8-19.6 0-10.8 8.8-19.6 19.8-19.6h49.7c10.9 0 19.7 8.8 19.7 19.6s-8.8 19.6-19.7 19.6h-49.7z" clip-rule="evenodd" style="fill: #019df4;"/></svg>
