<?xml version="1.0" encoding="UTF-8"?>
<svg xmlns="http://www.w3.org/2000/svg" viewBox="0 0 702.8 702.8"><path fill="#019df4" fill-rule="evenodd" d="M557.8 660.7c8.3 0 14.3-4.4 15.1-6.1l-.3-556.9c-.7 0-7.2-4.6-14.8-4.6h-94.5c.1 1.1.3 2 .3 3l.3 6.9-.1 3.8c-1.9 53.9-55.1 61.5-112.3 61.5-57.2 0-110.4-7.6-112.4-62.5l-.1-2.8.1-4.5.3-3.6c0-.6.2-1.3.2-1.9H145c-7.7 0-14.2 4.7-15.3 6.6l.4 556.5c.6.1 6.6 4.6 14.9 4.6h412.8zM351.4 42.1c-59.7 0-68.7 29.9-69.9 56l-.2 5c.4 9.6.8 23.3 70.1 23.3s69.8-13.8 70-21.9v-4.2c-.2-7.6-1.3-15.1-3.5-22.4-2.7-8.9-11.2-35.8-66.5-35.8zm206.4 9c30.5 0 57.2 21.8 57.2 46.6v558.5c0 25.3-26.2 46.6-57.2 46.6H145.1c-31 0-57.2-21.4-57.2-46.6V97.6C87.9 72.8 114.6 51 145 51h105.5C267.3 18.4 302 0 351.4 0c60.2 0 88.1 25.3 101 51.1h105.4zm-231.2 60.7c-10.9 0-19.7-8.7-19.8-19.6 0-10.8 8.8-19.6 19.8-19.6h49.7c10.9 0 19.7 8.8 19.7 19.6s-8.8 19.6-19.7 19.6h-49.7zm205.1 300.4c10.9 0 19.7 8.8 19.7 19.6s-8.8 19.6-19.7 19.6h-69.8c-8.4 0-15.8-5.2-18.6-13.1l-11.3-32-9.2 31a19.71 19.71 0 0 1-18.9 14.1H383l-32.5 72.2c-4.5 10-16.2 14.4-26.1 9.9-5.8-2.6-10-7.8-11.3-14.1l-31.2-154.8-22.1 71c-2.6 8.2-10.2 13.8-18.9 13.8h-69.8c-10.9 0-19.7-8.7-19.8-19.6 0-10.8 8.8-19.6 19.8-19.6h55.3l40.8-131c2.6-8.7 10.9-14.4 19.9-13.8 9 .4 16.5 6.9 18.3 15.7l34.3 170.3 12.5-27.7c3.2-7.1 10.2-11.6 18-11.6h18.9l22.3-75.5c2.5-8.2 9.9-13.9 18.5-14.1 8.5-.1 16.2 5.1 19.1 13.1l27 76.4c-.1.2 55.7.2 55.7.2z" clip-rule="evenodd" style="fill: #019df4;"/></svg>
