<?xml version="1.0" encoding="UTF-8"?>
<svg xmlns="http://www.w3.org/2000/svg" viewBox="0 0 702.8 702.8"><path fill="#019df4" fill-rule="evenodd" d="M366.1.3c68.8 1.6 336.7 28.8 336.7 352 0 323.8-268.2 349-335.3 350.3-9.6.1-21.4.3-32.2.1C264.7 701.7 0 676.2 0 350.3 0 24.8 262.3.7 332.8 0c11 0 23.1.1 33.3.3zm121.8 167.6h-77.1c-8.1 0-14.6 6.6-14.6 14.6v123.2h-89.8V182.5c0-8.1-6.6-14.6-14.6-14.6h-77.1c-8.1 0-14.6 6.6-14.6 14.6v338c0 8.1 6.6 14.6 14.6 14.6h77.1c8.1 0 14.6-6.6 14.6-14.6V392.8h89.8v127.7c0 8.1 6.6 14.6 14.6 14.6h77.1c8.1 0 14.6-6.6 14.6-14.6v-338c0-8.1-6.5-14.6-14.6-14.6z" clip-rule="evenodd" style="fill: #019df4;"/></svg>
