<?xml version="1.0" encoding="UTF-8"?>
<svg xmlns="http://www.w3.org/2000/svg" viewBox="0 0 702.8 702.8"><path fill="#019df4" fill-rule="evenodd" d="M366.9 673.3c71.9-1.3 306.6-28.3 306.6-320.9 0-126.7-43.4-218.2-128.8-271.8-69.8-43.8-148.6-50.2-179.3-51-8.8-.2-17.5-.3-26.3-.3H333c-30.5.3-108.7 5.6-177.5 48.8C71.7 130.8 29.3 222.4 29.3 350.3c0 128 42.9 219.9 127.5 273.3 69.4 43.7 148.3 49.4 179 49.9 3.5.1 7 .1 10.5.1 7.3-.1 14.4-.2 20.6-.3zM366.1.4c68.8 1.6 336.7 28.8 336.7 352 0 323.9-268.2 349-335.3 350.3-6.4.1-13.8.2-21.2.2-3.7 0-7.4 0-11-.1C264.7 701.7 0 676.2 0 350.3 0 24.9 262.3.6 332.8 0h6.3c9.2 0 18.7.1 27 .4zm139.3 541.3V161.1h-86.9v155.2H284.3V161.1h-86.9v380.6h86.9V381.5h134.2v160.3l86.9-.1zm0-409.8c16.2 0 29.3 13.1 29.3 29.3v380.6c0 16.2-13.1 29.3-29.3 29.3h-86.9c-16.2 0-29.3-13.1-29.3-29.3v-131h-75.6v131c0 16.2-13.1 29.3-29.3 29.3h-86.8c-16.2 0-29.3-13.1-29.3-29.3V161.1c0-16.2 13.1-29.3 29.3-29.3h86.9c16.2 0 29.3 13.1 29.3 29.3V287h75.6V161.1c0-16.2 13.1-29.3 29.3-29.3-.1.1 86.8.1 86.8.1z" clip-rule="evenodd" style="fill: #019df4;"/></svg>
