<?xml version="1.0" encoding="UTF-8"?>
<svg xmlns="http://www.w3.org/2000/svg" viewBox="0 0 702.8 702.8"><path fill="#019df4" fill-rule="evenodd" d="M339.8 0c9 0 18.3.1 26.3.4 68.8 1.6 336.7 28.8 336.7 352 0 323.9-268.3 349-335.3 350.3-7 .1-14.1.2-21.1.2-3.7 0-7.4 0-11-.1C264.8 701.7 0 676.2 0 350.3 0 24.9 262.3.6 332.8 0h7zm0 43.9h-6.6C246.2 44.7 44 76.1 44 350.3 44 625 248.2 657.6 336 658.8c3.4.1 6.9.1 10.4.1 7.2 0 14.2-.1 20.4-.2 87.8-1.6 292.1-34.7 292.1-306.4C658.8 80.6 453.4 46.4 365 44.2c-8.4-.2-16.8-.3-25.2-.3zm148.3 100.5c21 0 38.1 17 38.1 38.1v337.9c0 21-17 38.1-38.1 38.1H411c-21 0-38.1-17-38.1-38.1V416.1h-43v104.2c0 21-17.1 38.1-38.1 38h-77.1c-21 0-38.1-17-38.1-38.1V182.5c0-21 17-38.1 38.1-38.1h77.1c21 0 38.1 17 38.1 38V282.3h42.9v-99.8c0-21 17-38.1 38.1-38.1h77.2zm0 38.1H411v137.8H291.8V182.5h-77.1v337.9h77.1V378.1H411v142.3h77.1V182.5z" clip-rule="evenodd" style="fill: #019df4;"/></svg>
