<?xml version="1.0" encoding="UTF-8"?>
<svg xmlns="http://www.w3.org/2000/svg" viewBox="0 0 702.8 702.8"><path fill="#019df4" fill-rule="evenodd" d="M615.7 166.1c-4.8 0-9.2-2.4-11.9-6.3-36.1-53.2-95.3-96.9-158.4-116.8C351.3 13.1 249 32.5 165.1 96.2c-24 18.4-46.2 39.1-66.2 61.8-5.2 5.9-14.2 6.5-20.1 1.4l-.3-.3c-6-5.4-6.4-14.6-1.1-20.7 21.3-24.1 44.8-46.2 70.3-65.7C239.2 3.4 350.9-17.6 454 15c69.1 21.9 133.9 69.8 173.6 128.1 4.5 6.7 2.9 15.7-3.7 20.4-2.5 1.7-5.3 2.6-8.2 2.6zM404.2 702.8c-1.1 0-2.3-.1-3.4-.4-56.6-13.9-114.7-44.2-163.7-85.5-109-91.9-196.2-305-90.9-443.2 58.7-77 163-113.6 259.1-91.1.4 0 148.9 23.2 190 195.7.5 1.7 15.5 56-12.4 94.1-16.5 22.4-43.5 33.9-80.2 34.3.6.1-25.3 3.2-49.4-16.4-21.8-17.6-34.8-47.3-38.7-88.1-1.4-14.4-7.3-25.8-17.6-33.9-13.6-10.5-34.4-14.6-55.8-10.9-6.5.6-53.4 6.5-57.5 60.2-4.8 62.8 43.8 169.5 163.1 198.9 7.7 2.4 12 10.7 9.6 18.4-2.2 7-9.2 11.2-16.4 10C304.6 511.3 249.6 388 255.1 315.2c4.8-63.9 56.2-84.9 82.7-87 28.3-5 56.7 1.1 76.9 16.7 16.7 13 26.7 31.7 28.8 54.3 3 31.9 12.5 55.3 27.5 67.7 8.3 7.1 19.1 10.9 30 10.4 28.8-.4 48.1-7.9 58.9-22.6 19.2-26.1 7.8-68.7 7.7-69.1-36.8-154.1-166.1-174.3-167.4-174.4-86.9-20.2-179.1 12-231 80.2C75.7 314.1 158 512 255.7 594.5c45.6 38.4 99.6 66.7 151.9 79.5 7.8 2 12.5 9.8 10.7 17.6-1.5 6.5-7.4 11.2-14.1 11.2zm23.9-75.6c-1.3 0-2.6-.2-3.9-.6-91-25.6-173.5-92.2-215.2-173.7-32.7-64-38.1-131.7-15.4-196 23.9-72.6 102.8-118.1 182.9-105.5 82.1 12.8 146 83.9 145.3 161.9 0 8-6.4 14.5-14.4 14.6h-.1c-8-.1-14.4-6.7-14.3-14.8.5-63.8-52.6-122.2-120.8-132.8-66.5-10.2-131.6 26.7-151.2 86.1-20 56.7-15.2 116.4 13.8 173 38 74.6 113.6 135.6 197.1 159.1 7.7 2.2 12.2 10.3 10 18-1.6 6.2-7.3 10.6-13.8 10.7zm72.8-146.3c-41.9 0-77.2-11.6-105.4-34.8-61.6-50.6-65.6-137.1-65.8-140.8-.3-8 5.9-14.8 13.9-15.2 8-.2 14.6 6 15 14 0 .8 3.8 77.2 55.2 119.3 31.2 25.5 74.4 33.8 128 24.4 7.9-1.7 15.7 3.4 17.4 11.3 1.7 7.9-3.4 15.7-11.3 17.4-.4.1-.8.1-1.1.2-15.3 2.7-30.6 4.1-45.9 4.2z" clip-rule="evenodd" style="fill: #019df4;"/></svg>
