<?xml version="1.0" encoding="UTF-8"?>
<svg xmlns="http://www.w3.org/2000/svg" viewBox="0 0 702.8 702.8"><path fill="#019df4" d="M612.9 177c-6.8 0-13.5-3.3-17.7-9.3-34.9-50.8-92.2-92.5-153.3-111.6-91.2-28.5-190.2-9.9-271.6 51.1-22.4 16.7-44.1 36.7-64.6 59.6-7.9 8.8-21.5 9.6-30.3 1.6-8.8-7.9-9.5-21.5-1.6-30.3 22.4-25 46.3-46.9 70.9-65.3 92.6-69.3 205.6-90.3 310.2-57.7 70 21.9 135.7 69.8 175.9 128.2 6.7 9.8 4.3 23.1-5.5 29.9-3.9 2.5-8.2 3.8-12.4 3.8z" style="fill: #019df4;"/><path fill="#019df4" d="M403.2 702.3c-1.7 0-3.4-.2-5.1-.6-57.2-13.8-115.9-44.1-165.3-85.1-58.1-48.3-105.5-125-126.9-205-24.7-92.2-12-177 35.7-238.8 59.7-77.4 165.6-114.3 263.6-91.9 6.7 1.1 42.2 7.9 81.7 32.9 39.4 25 91 73.6 112.9 163.7 1.7 6.4 15.1 60-13.5 98.4-17.6 23.6-46 35.9-84.3 36.4-6.9.6-31.2 1-54.5-17.5-23.2-18.6-37.1-49.3-41.1-91.3-1.1-12.1-6.1-21.5-14.7-28.1-11.9-9.1-30.5-12.6-49.8-9.4l-1.1.2h-.7c-1.2.1-13 1.6-24.7 8.8-15 9.2-23.1 23.4-24.6 43.4-1.9 24.7 5.8 65.1 33.2 104.4 20.2 29 57.9 66.9 123.2 82.8 11.5 2.8 18.6 14.4 15.8 26-2.8 11.5-14.4 18.6-26 15.8-78.3-19.1-123.8-64.9-148.3-99.9-28.7-41.3-44-90.7-40.8-132.3 3.4-43.8 27.4-66.6 47-78 18.2-10.6 35.6-13.1 40.5-13.7 31-5.1 61 1.4 82.4 17.8 18.2 14 29 34.1 31.3 58.1 2.8 29.5 11.5 50.9 25.1 61.7 11.6 9.3 23.7 8.4 23.8 8.4l1.3-.2h1.3c24.7-.2 41.9-6.7 51.2-19.1 14.3-19.1 9.4-51.5 6.5-61.4l-.2-.9c-35.2-145.5-158.7-164.5-160-164.7l-.9-.1-.9-.2c-82.2-19-170.8 11.6-220.7 76.1-39.3 50.9-49.3 122.4-28.2 201.4 18.9 70.7 62.2 140.8 112.9 183 44.4 36.9 96.9 64.1 147.9 76.4 11.5 2.8 18.6 14.4 15.8 25.9-2.3 10-11.1 16.6-20.8 16.6z" style="fill: #019df4;"/><path fill="#019df4" d="M426.8 628.3c-1.9 0-3.8-.3-5.8-.8-92.1-25.6-175.6-92.1-217.9-173.7-33.4-64.3-38.8-132.5-15.7-197.3 12.3-36.8 38.6-67.9 74.1-87.7 34.6-19.3 75.5-26.5 115.3-20.4 40.1 6.2 77.6 25.9 105.5 55.6 29.2 31 45 70.1 44.7 110-.1 11.8-9.7 21.3-21.5 21.3h-.2c-11.9-.1-21.4-9.8-21.3-21.7.5-59-49.5-112.9-113.8-122.8-62.7-9.6-123.8 24.5-142.1 79.5l-.2.4c-19 53.3-14.4 109.8 13.3 163.3 36.4 70.2 111.5 129.9 191.3 152.1 11.4 3.2 18.1 15 15 26.4-2.6 9.5-11.2 15.8-20.7 15.8z" style="fill: #019df4;"/><path fill="#019df4" d="M499 485.2c-43.2 0-79.7-11.9-109.1-35.7-63.6-51.6-67.7-139.3-67.8-143-.5-11.9 8.8-21.8 20.6-22.3 11.9-.5 21.8 8.8 22.3 20.6.1 1.1 3.8 72.6 52.2 111.6 29.3 23.6 70.1 31.1 121.1 22.4 11.7-2 22.8 5.8 24.8 17.5s-5.8 22.8-17.5 24.8c-16.3 2.7-31.8 4.1-46.6 4.1z" style="fill: #019df4;"/></svg>
