<?xml version="1.0" encoding="UTF-8"?>
<svg xmlns="http://www.w3.org/2000/svg" viewBox="0 0 702.8 702.8"><path fill="#019df4" fill-rule="evenodd" d="M631.6 405c7.4-9.7 5.5-23.6-4.1-31.1l-115.9-89.5c-7.9-6.2-19.1-6-27 .3L352.1 391l-32-30.5c-8-7.7-20.6-8.1-29.1-.9L102.6 518.1c-9.3 7.8-10.6 21.8-2.8 31.3 4.3 5.3 10.6 8 16.9 8 5 0 10-1.7 14-5.1l173.5-145.9 120.6 114.7c8.8 8.4 22.7 8 31-.9s7.9-23-.9-31.4l-70.3-66.9 114.1-91.6 102.3 79c9.4 7.3 23.2 5.4 30.6-4.3zM174.9 162.2c-44.4 0-80.5 36.5-80.5 81.3 0 44.9 36.1 81.3 80.5 81.3s80.5-36.5 80.5-81.3-36.1-81.3-80.5-81.3zm477.2-74.4c26.5 0 50.7 20.8 50.7 43.7v439.7c0 22.9-24.2 43.7-50.7 43.7H50.7c-27 0-50.6-20.5-50.6-43.7l.1-439.7c0-23.3 23.7-43.7 50.6-43.7h601.3zM174.9 280.5c-20.2 0-36.6-16.6-36.6-36.9 0-20.4 16.4-36.9 36.6-36.9s36.6 16.5 36.6 36.9c-.1 20.3-16.5 36.9-36.6 36.9z" clip-rule="evenodd" style="fill: #019df4;"/></svg>
