<?xml version="1.0" encoding="UTF-8"?>
<svg xmlns="http://www.w3.org/2000/svg" viewBox="0 0 702.8 702.8"><path fill="#019df4" fill-rule="evenodd" d="M646 571.8c6.9 0 13.1-5.2 13.9-7.4l-.1-426.8c-.7-1.3-6.9-6.5-13.7-6.5H56.8c-7.5 0-13 4.7-13.8 6.8v427.4c.5 1.6 6.1 6.5 13.8 6.5H646zm0-484c29.7 0 56.8 23.7 56.8 49.7v427.7c0 26-27.1 49.7-56.8 49.7H56.8C26 614.9 0 592.1 0 565.2V137.5c0-26.9 26-49.7 56.8-49.7H646zM178.5 210.6c-19.7 0-35.8 16.1-35.8 35.9 0 19.8 16.1 35.9 35.8 35.9 19.7 0 35.8-16.1 35.8-35.9 0-19.8-16-35.9-35.8-35.9zm0 115c-43.5 0-78.9-35.5-78.9-79.1s35.4-79.1 78.9-79.1c43.5 0 78.8 35.5 78.8 79.1s-35.3 79.1-78.8 79.1zm329.9-39.4l113.5 87.1c9.4 7.3 11.2 20.8 4 30.3-7.2 9.4-20.7 11.3-30.2 4l-100.2-76.9-111.8 89.1 69 65.1c8.6 8.1 9.1 21.8.9 30.5-8.1 8.8-21.8 9.1-30.4.9L305.1 404.8 135.2 546.7c-4 3.4-8.9 5-13.7 5-6.2 0-12.3-2.6-16.6-7.8-7.6-9.2-6.3-22.8 2.8-30.4l184.5-154.1c8.3-7 20.6-6.6 28.5.9l31.4 29.6 129.8-103.5c7.7-6.1 18.6-6.2 26.5-.2z" clip-rule="evenodd" style="fill: #019df4;"/></svg>
