<?xml version="1.0" encoding="UTF-8"?>
<svg xmlns="http://www.w3.org/2000/svg" viewBox="0 0 702.8 702.8"><path fill="#019df4" fill-rule="evenodd" d="M673.5 571.2V131.6c0-4.8-9.7-14.1-21.4-14.1H50.7c-11.8 0-21.3 8.5-21.3 14.1l-.1 439.7c0 5.6 9.6 14.1 21.4 14.1h601.5c11.6-.1 21.3-9.4 21.3-14.2zM652.1 87.8c26.6 0 50.7 20.8 50.7 43.7v439.7c0 22.8-24.2 43.7-50.7 43.7H50.6C23.7 615 0 594.5 0 571.2l.1-439.7c0-23.3 23.7-43.7 50.7-43.7h601.3zM174.9 199.2c-24.2 0-43.9 19.9-43.9 44.3 0 24.5 19.7 44.3 43.9 44.3s43.9-19.9 43.9-44.3-19.7-44.3-43.9-44.3zm0 118.3c-40.4 0-73.2-33.2-73.2-73.9s32.8-73.9 73.2-73.9 73.2 33.2 73.2 73.9-32.8 73.9-73.2 73.9zm332.3-27.3l115.9 89.5c6.4 5 7.7 14.3 2.8 20.8-4.8 6.4-14 7.7-20.4 2.8l-.1-.1-106.9-82.5-125.2 100.6 76.5 72.8c5.9 5.6 6.2 15 .6 20.9-5.5 5.9-14.6 6.2-20.5.8l-.2-.2-125.2-119.1-178.5 150c-6.2 5.2-15.4 4.4-20.5-1.8l-.1-.1c-5.2-6.3-4.3-15.6 1.9-20.8l188.4-158.5c5.7-4.8 14.1-4.5 19.4.6l36.6 34.8 137.5-110.3c5.2-4.2 12.6-4.3 18-.2z" clip-rule="evenodd" style="fill: #019df4;"/></svg>
