<?xml version="1.0" encoding="UTF-8"?>
<svg xmlns="http://www.w3.org/2000/svg" viewBox="0 0 702.8 702.8"><path fill="#019df4" fill-rule="evenodd" d="M149.4 264.7c-16.6 0-30.1-13.4-30.1-30 0-8 3.2-15.7 8.8-21.4L332.2 8.8C344-2.9 363-2.9 374.8 8.8l201.7 201.9c12 11.6 12.3 30.6.8 42.6-11.6 12-30.6 12.3-42.6.8-.3-.2-.5-.5-.8-.8L383.6 102.9v394.5c-.6 16.6-14.6 29.6-31.3 29-15.7-.6-28.4-13.2-29-29V102.9L170.6 255.8c-5.6 5.7-13.3 8.9-21.2 8.9zm523.3 232c16.6 0 30.1 13.5 30.1 30.1v145.9c0 16.6-13.5 30.1-30.1 30.1H30.1C13.5 702.8 0 689.3 0 672.7V526.8c.6-16.6 14.6-29.6 31.3-29 15.7.6 28.4 13.2 29 29v115.8h582.4V526.8c-.1-16.6 13.4-30.1 30-30.1z" clip-rule="evenodd" style="fill: #019df4;"/></svg>
