<?xml version="1.0" encoding="UTF-8"?>
<svg xmlns="http://www.w3.org/2000/svg" viewBox="0 0 702.8 702.8"><path fill="#019df4" fill-rule="evenodd" d="M570.3 465.2h-.6c-58.1-.2-157-76.6-196.4-113.8 39.5-37.2 138.7-113.8 196.8-113.8h.2c33.2.1 59 10 76.5 29.5 17.6 19.5 26.4 47.9 26.3 84.6-.1 73.2-36.7 113.5-102.8 113.5m-437.3 0h-.6c-33 0-58.6-9.8-76.1-29-17.7-19.3-26.7-47.7-26.8-84.4-.1-36.6 8.7-65.1 26.3-84.6s43.3-29.4 76.5-29.5h.2c58.1 0 157.3 76.5 196.8 113.8C290 388.5 191.2 465 133 465.2m534.9-221.1c-23-25.5-56.6-39-97.4-39.1h-.3c-75.1 0-183.1 90.8-218.7 124.5C315.8 295.8 207.9 205 132.8 205h-.3c-40.8.1-74.5 13.7-97.4 39.1C12.2 269.6.1 306.8.2 351.8c.1 45 12.4 82.2 35.5 107.5 23 25.2 56.5 38.5 97 38.5h.6c75.2-.3 182.7-90.9 218.3-124.5 35.6 33.6 143.2 124.2 218.2 124.5h.7c82.7 0 132.2-54.5 132.5-146-.1-44.9-12.2-82.2-35.1-107.7" clip-rule="evenodd" style="fill: #019df4;"/></svg>
