<?xml version="1.0" encoding="UTF-8"?>
<svg xmlns="http://www.w3.org/2000/svg" viewBox="0 0 702.8 702.8"><path fill="#019df4" fill-rule="evenodd" d="M565.8 451.4h-.5c-52.2-.2-139.9-64-181.1-100 41.3-36.1 129.2-100.1 181.5-100.1h.2c30.5.1 54 8.7 69.8 25.7 15.8 17 23.7 42.1 23.7 74.6-.3 65.4-32.6 99.8-93.6 99.8m-428.3 0h-.5c-61 0-93.3-34.5-93.5-99.7-.1-32.6 7.9-57.7 23.7-74.6 15.8-17 39.2-25.6 69.8-25.7h.2c52.4 0 140.3 64 181.5 100.1-41.2 35.9-128.9 99.7-181.2 99.9m529-207c-23.9-25.6-58.7-39.2-100.6-39.4h-.3C493 205 391 285.4 351.4 320.6 311.8 285.4 209.9 205 137.1 205h-.3c-41.9.1-76.7 13.8-100.6 39.4C12.4 270-.1 307.1 0 351.8c.3 91.4 51.5 146 137 146h.6c72.6-.2 174.2-80.4 213.8-115.6 39.6 35.1 141.2 115.4 213.8 115.6h.6c85.6 0 136.8-54.5 137-146 .1-44.7-12.4-81.8-36.3-107.4" clip-rule="evenodd" style="fill: #019df4;"/></svg>
