<?xml version="1.0" encoding="UTF-8"?>
<svg xmlns="http://www.w3.org/2000/svg" viewBox="0 0 702.8 702.8"><path fill="#019df4" fill-rule="evenodd" d="M547.2 624.7C631 572 673.5 480.4 673.5 352.6c0-128-42.9-220-127.5-273.3-69.4-43.7-148.3-49.5-179-49.9-10.4-.1-20.8-.1-31.2.1-71.9 1.3-306.5 28.4-306.5 321 0 126.7 43.3 218.2 128.8 271.7 69.8 43.8 148.7 50.2 179.3 51 7.9.2 17 .3 25.8.3h6.5c30.5-.3 108.8-5.6 177.5-48.8zM367.4.1c70.6 1 335.4 26.5 335.4 352.5 0 325.4-262.3 349.6-332.8 350.2h-6.7c-9 0-18.4-.1-26.5-.3C267.9 700.8 0 673.6 0 350.5 0 26.6 268.2 1.4 335.3.2 346 0 356.7 0 367.4.1zm-15.8 271.3c8.1 0 14.6 6.6 14.6 14.6v228.4c0 8.1-6.6 14.6-14.6 14.6s-14.6-6.6-14.6-14.6V286.1c-.1-8.1 6.5-14.7 14.6-14.7zm-.2-83c12.6 0 22.8 10.2 22.8 22.8 0 12.6-10.2 22.8-22.8 22.8s-22.8-10.2-22.8-22.8c0-12.6 10.2-22.8 22.8-22.8z" clip-rule="evenodd" style="fill: #019df4;"/></svg>
