<?xml version="1.0" encoding="UTF-8"?>
<svg xmlns="http://www.w3.org/2000/svg" viewBox="0 0 702.8 702.8"><path fill="#019df4" fill-rule="evenodd" d="M351.8 235c-12.9 0-23.4-10.5-23.4-23.4 0-12.9 10.5-23.4 23.4-23.4 12.9 0 23.4 10.5 23.4 23.4-.1 12.9-10.5 23.4-23.4 23.4zm21.7 279.5c0 12.1-9.8 22-22 22-12.1 0-22-9.8-22-22V286c0-12.1 9.8-22 22-22 12.1 0 22 9.8 22 22v228.5zM367.5.1c-3.6-.1-7.3-.1-11-.1-7.4 0-14.8.1-21.2.2C268.3 1.4 0 26.6 0 350.5c0 323.1 267.9 350.3 336.7 352 8.1.2 17.5.4 26.6.4h6.7c70.5-.6 332.8-24.8 332.8-350.2C702.8 26.6 438 1.1 367.5.1z" clip-rule="evenodd" style="fill: #019df4;"/></svg>
