<?xml version="1.0" encoding="UTF-8"?>
<svg xmlns="http://www.w3.org/2000/svg" viewBox="0 0 702.8 702.8"><path fill="#019df4" fill-rule="evenodd" d="M351.7 73.4c-97.9 0-115.1 21.4-115.1 66.4 0 11.9 1.5 20.7 3.8 27.5 29-14.2 65.6-21.3 111-21.3 45.6 0 82.2 7.2 111.2 21.5 2.3-6.8 4.1-15.4 4.1-27.7.1-45-17.1-66.4-115-66.4zm270.8 280.9c12 0 21.8 9.8 21.8 22V435c.1 12.1-9.7 21.9-21.8 22-12.1-.1-21.8-9.9-21.7-22v-36.7h-43.7c0 2.2.1 4.1.1 6.4 0 56.6-4.5 105.4-17.8 145l70.5 21.7c9.6 3 15.9 12.2 15.4 22.2l-4.7 88.4c-.5 11.6-10.1 20.7-21.7 20.8h-1.2c-12.1-.7-21.3-11.1-20.6-23.1l3.8-71.2-60.2-18.5c-29.7 47-81.4 73.2-169.3 73.2-88.3 0-140-26.4-169.6-73.6l-61.6 18.9 3.8 71.2c.7 12.1-8.5 22.4-20.6 23.1h-1.2c-11.6-.1-21.1-9.2-21.7-20.8l-4.7-88.4c-.6-10.1 5.8-19.2 15.4-22.3l71.9-22.1c-13.1-39.5-17.6-88.2-17.6-144.6l.1-6.4H102V435c.1 12.1-9.7 21.9-21.7 22-12.1-.1-21.8-9.9-21.8-22v-58.7c0-12.2 9.8-22 21.8-22h66.8c2.8-46 10.5-91.2 30.8-127.5l-86.7-26.6c-9.6-3-16-12.2-15.4-22.3l4.7-88.4c.6-12 10.8-21.4 22.8-20.8 12 .7 21.2 11 20.6 23.1l-3.8 71.2 81.6 25.1c-5.7-13.7-8.7-29.6-8.7-48.3 0-65.6 34.8-92.9 82.9-103.8-7.3-8.7-6.8-21.5 1.1-29.6 8.3-8.5 21.9-8.6 30.4-.3l.3.3 23 23.3c13.7-.5 27.3-.6 41-.1l23-23.3c8.4-8.5 22-8.6 30.5-.2l.2.2c7.9 8.1 8.3 20.8 1.1 29.4 48.4 10.7 83.6 38 83.6 103.9 0 18.4-2.9 34.1-8.4 47.6l79.1-24.3-3.8-71.2c-.7-12.1 8.5-22.4 20.6-23.1 11.5-.9 22.3 8.6 22.9 20.8l4.7 88.4c.6 10.1-5.8 19.2-15.4 22.2l-85.3 26.1C542 256.9 552 298 555.4 354c.2.3 67.1.3 67.1.3zM349.1 236.7c-12.1.1-21.8 9.9-21.7 22v283.2c0 12.1 9.7 22 21.7 22s21.8-9.9 21.8-22V258.7c0-12.1-9.7-21.9-21.8-22z" clip-rule="evenodd" style="fill: #019df4;"/></svg>
