<?xml version="1.0" encoding="UTF-8"?>
<svg xmlns="http://www.w3.org/2000/svg" viewBox="0 0 702.8 702.8"><path fill="#019df4" fill-rule="evenodd" d="M351.4 619.1c124.4 0 162.3-50.1 162.3-214.5 0-102.9-15.9-159-53.1-187.3-24.1-18.4-59.8-27.3-109.2-27.3-49.8 0-85.8 9.1-109.9 27.8-36.8 28.5-52.4 84.3-52.4 186.8 0 164.4 37.9 214.5 162.3 214.5zm.3-545.7c-97.9 0-115.1 21.4-115.1 66.4 0 11.9 1.5 20.7 3.8 27.6 29-14.3 65.6-21.3 111-21.3 45.6 0 82.2 7.2 111.2 21.5 2.3-6.8 4.1-15.4 4.1-27.7.1-45.1-17.1-66.5-115-66.5zm270.8 280.9c12 0 21.7 9.9 21.7 22V435c0 12.1-9.7 22-21.7 22s-21.7-9.9-21.7-22v-36.7h-43.7c0 2.2.1 4.1.1 6.3 0 56.6-4.5 105.4-17.8 145l70.5 21.7c9.6 3 15.9 12.1 15.4 22.2l-4.7 88.4c-.6 11.7-10.2 20.8-21.7 20.8h-1.2c-12-.7-21.2-11-20.6-23.1l3.8-71.2-60.2-18.5c-29.7 47-81.4 73.2-169.4 73.2-88.3 0-140-26.4-169.6-73.6l-61.6 18.9 3.8 71.2c.7 12.1-8.6 22.5-20.6 23.1h-1.2c-11.4 0-21-9.1-21.7-20.8l-4.7-88.4c-.5-10.1 5.8-19.3 15.4-22.2l72-22.1c-13.1-39.5-17.6-88.2-17.6-144.6 0-2.1.1-4.3.1-6.3H102V435c0 12.1-9.7 22-21.7 22s-21.7-9.9-21.7-22v-58.7c0-12.1 9.7-22 21.7-22h66.8c2.8-45.9 10.6-91.2 30.8-127.4l-86.7-26.6c-9.6-3-15.9-12.1-15.4-22.2l4.7-88.4c.7-12.1 11-21.6 22.9-20.8 12 .7 21.2 11 20.6 23.1l-3.8 71.2 81.6 25.1c-5.7-13.7-8.7-29.6-8.7-48.4C193.1 74.3 228 47 276 36.1c-7.2-8.6-7-21.4 1-29.6 8.5-8.6 22.2-8.6 30.7 0l23 23.3c6.9-.3 13.9-.4 20.9-.4 6.8 0 13.5.1 20.1.4l23-23.3c8.5-8.6 22.3-8.6 30.8 0 8 8.1 8.2 20.8 1.1 29.4 48.4 10.7 83.6 38 83.6 103.9 0 18.4-2.9 34.1-8.4 47.6l79.1-24.3-3.8-71.2c-.6-12.1 8.6-22.5 20.6-23.1 11.5-.9 22.3 8.7 22.9 20.8l4.7 88.4c.6 10.1-5.8 19.3-15.4 22.2l-85.3 26.2c17.5 30.8 27.5 71.9 30.9 127.9h67zM349.1 236.7c12 0 21.7 9.9 21.7 22v283.2c0 12.1-9.7 22-21.7 22s-21.7-9.9-21.7-22V258.7c-.1-12.1 9.7-22 21.7-22z" clip-rule="evenodd" style="fill: #019df4;"/></svg>
