<?xml version="1.0" encoding="UTF-8"?>
<svg xmlns="http://www.w3.org/2000/svg" viewBox="0 0 702.8 702.8"><path fill="#019df4" fill-rule="evenodd" d="M351.9 632.3c138.2 0 182.5-55 182.5-226.6 0-107.7-18-166.7-60.3-197.2-27.3-19.8-67.3-29.4-122.2-29.4-55.3 0-95.6 9.8-123 29.9-41.7 30.7-59.5 89.5-59.5 196.7 0 171.6 44.3 226.6 182.5 226.6zm.3-572.3c-111.4 0-131.7 25.4-131.7 75.3 0 16.3 3 28.8 8.5 38.8 31.2-16.5 71.3-25 122.9-25 52 0 92.2 8.7 123.4 25.3 5.6-10.1 8.6-22.7 8.6-39.1 0-50-20.4-75.3-131.7-75.3zm291.5 301.8c8.6 0 15.6 6.6 15.6 14.9v59.9c-.2 8.4-7.2 15.2-15.6 15-8.4.2-15.4-6.5-15.6-15v-44.9h-62.8c.1 4.7.4 9 .4 13.9 0 60.5-5.3 112.1-21.7 153l84 24.5c6.8 2 11.4 8.3 11 15.1l-5 90.3c-.6 8.1-7.4 14.3-15.6 14.2h-.8c-8.4-.3-15-7.3-14.8-15.7v-.1l4.4-78.6L530 586c-30.4 48.9-84.4 76.4-178.2 76.4-94 0-148-27.6-178.4-76.8l-78.6 22.8 4.3 78.6c.3 8.4-6.2 15.4-14.6 15.7h-1c-8.1.1-14.9-6.1-15.5-14.2l-5-90.3c-.3-7 4.3-13.3 11.1-15.1l85.5-24.9c-16.3-40.7-21.5-92.2-21.5-152.5 0-4.9.3-9.2.4-13.9H75.7v44.9c-.2 8.4-7.1 15.2-15.6 15-8.4.2-15.4-6.5-15.6-15v-59.9c0-8.3 7-15 15.6-15h79.3C143 298 154.9 252.3 177 219.7l-102.8-30c-6.8-1.8-11.4-8.1-11.1-15.1l5-90.3c.5-8.3 8.3-15.1 16.4-14.2 8.6.4 15.2 7.5 14.8 15.8L95 164.5 196.2 194c.8.2 1.5.8 2.2 1.2l4.7-4.2c-9-14.9-13.9-33.1-13.9-55.8 0-65.8 37-92.2 96.9-101.2l-8.9-8.5c-5.9-5.5-6.1-14.8-.6-20.6l.6-.6c6.2-5.8 15.9-5.8 22.1 0l27.4 26.3c8.3-.3 16.6-.7 25.4-.7 8.6 0 16.5.4 24.6.6l27.4-26.2c6.2-5.8 15.9-5.8 22.1 0 6.1 5.9 6.1 15.3 0 21.2l-8.8 8.4c60.4 8.9 97.6 35.3 97.6 101.3 0 22.8-4.9 41.1-14.1 56.1 1.2 1.1 2.5 2.1 3.7 3.2.4-.2.7-.5 1.2-.6l101.3-29.5-4.4-78.6c-.3-8.4 6.3-15.5 14.7-15.8h.1c8.2-.8 15.5 5.2 16.3 13.4 0 .3 0 .5.1.8l5 90.3c.3 7-4.3 13.3-11 15.1l-101.2 29.5c22.4 32.5 34.3 77.8 37.7 142.5l79.3.2zM349.4 241.7c8.6 0 15.6 6.7 15.6 15v289.2c-.2 8.4-7.1 15.2-15.6 15-8.4.2-15.4-6.5-15.6-15V256.7c0-8.3 7-15 15.6-15z" clip-rule="evenodd" style="fill: #019df4;"/></svg>
