<?xml version="1.0" encoding="UTF-8"?>
<svg xmlns="http://www.w3.org/2000/svg" viewBox="0 0 800 800"><path fill="#019df4" d="M400.5 751.5c-111.8 0-198.8-29.2-258.6-86.8-62-59.8-93.4-149-93.4-265.2C48.5 283.3 80 194 142 134.2c59.8-57.6 146.7-86.9 258.5-86.9 111.8 0 198.8 29.2 258.6 86.8 62.1 59.8 93.5 149.1 93.5 265.3 0 116.2-31.5 205.5-93.5 265.2-59.7 57.7-146.7 86.9-258.6 86.9zm0-664.2c-207 0-312 105-312 312.2 0 207 105 312 312 312 207.1 0 312.2-105 312.2-312 0-207.1-105-312.2-312.2-312.2z" style="fill: #019df4;"/><path fill="#019df4" d="M398.7 748.3c-11 0-20-9-20-20V68.6c0-11 9-20 20-20s20 9 20 20v659.8c0 11-8.9 19.9-20 19.9z" style="fill: #019df4;"/><path fill="#019df4" d="M713 303H85.1c-11 0-20-9-20-20s9-20 20-20H713c11 0 20 9 20 20s-8.9 20-20 20z" style="fill: #019df4;"/><path fill="#019df4" d="M394.9 748.2c-29.4 0-57.7-10.1-84-29.9-24.3-18.3-45.9-44.1-64.2-76.8-36.6-65.2-56.8-151.4-56.8-242.7s20.2-177.6 56.8-242.7c18.4-32.7 40-58.5 64.2-76.8 26.4-19.8 54.6-29.9 84-29.9s57.7 10.1 84 29.9c24.3 18.3 45.9 44.1 64.2 76.8 36.6 65.2 56.8 151.4 56.8 242.7s-20.2 177.6-56.8 242.7c-18.4 32.7-40 58.5-64.2 76.8-26.3 19.8-54.6 29.9-84 29.9zm0-658.8c-41.9 0-82.1 30.6-113.4 86.3-33.3 59.3-51.6 138.5-51.6 223.1s18.3 163.8 51.6 223.1c31.2 55.6 71.5 86.3 113.4 86.3s82.1-30.6 113.4-86.3c33.3-59.3 51.6-138.5 51.6-223.1S541.6 235 508.3 175.7C477 120 436.8 89.4 394.9 89.4z" style="fill: #019df4;"/><path fill="#019df4" d="M713.1 556.7H89.4c-11 0-20-9-20-20s9-20 20-20h623.8c11 0 20 9 20 20s-9 20-20.1 20z" style="fill: #019df4;"/></svg>
