<?xml version="1.0" encoding="UTF-8"?>
<svg xmlns="http://www.w3.org/2000/svg" viewBox="0 0 800 800"><path fill="#019df4" d="M400.5 750.7c-229.7 0-351.2-121.4-351.2-351.2 0-229.8 121.4-351.3 351.2-351.3 112.1 0 199 29 258.5 86.3 61.6 59.4 92.9 148.6 92.9 265.1 0 229.6-121.5 351.1-351.4 351.1zm0-682.5c-219.7 0-331.2 111.5-331.2 331.3 0 219.7 111.4 331.2 331.2 331.2 219.9 0 331.3-111.4 331.3-331.2.1-219.9-111.4-331.3-331.3-331.3z" style="fill: #019df4;"/><path fill="#019df4" d="M398.7 747.9c-5.8 0-10.5-4.7-10.5-10.5v-678c0-5.8 4.7-10.5 10.5-10.5s10.5 4.7 10.5 10.5v678c0 5.8-4.7 10.5-10.5 10.5z" style="fill: #019df4;"/><path fill="#019df4" d="M721.7 283.6H76.4c-5.5 0-10-4.5-10-10s4.5-10 10-10h645.2c5.5 0 10 4.5 10 10s-4.4 10-9.9 10z" style="fill: #019df4;"/><path fill="#019df4" d="M394.7 747.2c-54.6 0-105.4-37-143.2-104.2-36.7-65.4-57-152.1-57-244.2s20.2-178.8 57-244.2c37.8-67.2 88.6-104.2 143.2-104.2s105.4 37 143.2 104.2c36.7 65.4 57 152.1 57 244.2s-20.2 178.8-57 244.2c-37.8 67.2-88.6 104.2-143.2 104.2zm0-676.9c-47 0-91.7 33.4-125.7 94-35.1 62.5-54.4 145.7-54.4 234.5 0 88.7 19.3 172 54.4 234.5 34.1 60.6 78.7 94 125.7 94s91.7-33.4 125.7-94c35.1-62.5 54.4-145.7 54.4-234.5 0-88.7-19.3-172-54.4-234.5-34-60.7-78.6-94-125.7-94z" style="fill: #019df4;"/><path fill="#019df4" d="M721.8 555.6h-641c-5.5 0-10-4.5-10-10s4.5-10 10-10h641c5.5 0 10 4.5 10 10s-4.5 10-10 10z" style="fill: #019df4;"/></svg>
