<?xml version="1.0" encoding="UTF-8"?>
<svg xmlns="http://www.w3.org/2000/svg" viewBox="0 0 800 800"><g fill="#019df4"><path d="M281.5 174.6c-14.5 26-26.2 55.9-34.7 88.4h131.9V89.2c-36 6.9-70 36.6-97.2 85.4zM508.3 624.3c11.6-21.1 21-43.2 28.3-66.1H418.7v149.7c33.2-9.5 64.3-38.3 89.6-83.6zM378.7 709.6V558.1H253.3c7.2 22.9 16.7 45.1 28.3 66.1 27.1 48.8 61.1 78.6 97.1 85.4zM189.9 399.4c0-32.3 2.5-64.6 7.6-96.5H56.9c-5.5 29.8-8.3 61.9-8.4 96.6 0 42.2 4.1 80.8 12.4 115.8H201c-7.5-38.2-11.2-77-11.1-115.9zM378.7 303H238.1c-5.5 31.9-8.2 64.1-8.2 96.5-.1 38.9 3.9 77.8 12 115.9h136.8V303zM508.3 174.6c-25.3-45.3-56.4-74.2-89.6-83.6v172H543c-8.5-32.5-20.2-62.4-34.7-88.4zM551.7 303h-133v212.3h129.2c8.1-38.1 12.1-76.9 12-115.9.1-32.3-2.7-64.6-8.2-96.4zM378.7 750.5c-23.6-3-46.4-12.8-67.9-29.1-24.2-18.4-45.8-44.5-64.2-77.4-14.3-25.7-26.1-54.6-35.2-85.9H73.8c15.6 42.2 38.3 77.9 68.2 106.6 55.8 53.8 135.4 82.8 236.7 86.4v-.6zM578.3 558.1c-9.1 31.2-20.8 60.2-35.2 85.9-18.3 32.9-40 59-64.2 77.4-19.2 14.5-39.3 23.9-60.2 27.9v2c103.1-3 183.9-32.1 240.4-86.5 29.8-28.8 52.7-64.4 68.3-106.6H578.3z" style="fill: #019df4;"/><path d="M205.6 263c9.6-39.8 23.4-76.4 41.1-108.1 18.4-32.9 40-59 64.2-77.4 21.5-16.3 44.3-26 67.9-29.1v-.7c-101.4 3.6-181 32.7-236.8 86.5C107 167.9 81.8 211 66.4 263h139.2zM418.7 49.6c20.9 4 41.1 13.3 60.2 27.9 24.3 18.4 45.9 44.4 64.2 77.4 17.7 31.7 31.5 68.3 41.1 108.1h150.5c-15.4-52-40.7-95-75.6-128.8-56.5-54.5-137.4-83.5-240.5-86.6v2zM740.3 515.3c8.3-35 12.4-73.6 12.4-115.8 0-34.6-2.8-66.8-8.4-96.6h-152c5.1 31.9 7.7 64.2 7.7 96.5.1 38.9-3.6 77.7-11.1 115.9h151.4z" style="fill: #019df4;"/></g></svg>
