<?xml version="1.0" encoding="UTF-8"?>
<svg xmlns="http://www.w3.org/2000/svg" viewBox="0 0 702.8 702.8"><path fill="#019df4" fill-rule="evenodd" d="M563.6 193.5l-53.3-53.6 91.6-92.5 53.3 53.9-91.6 92.2zm-277.7 355l-125.1-126 20.9-21.1 71.8 72.6c3 3 6.9 4.5 10.8 4.5s7.5-1.5 10.5-4.5c6-6 6-15.4 0-21.4l-72.2-72.3 52.7-53 49.4 48.8c3 3 6.6 4.5 10.5 4.5 3.9 0 7.8-1.5 10.8-4.5 5.7-6 5.7-15.7-.3-21.4l-49.1-48.9 52.7-53c.3.3.6.9.9 1.2l78.7 79.2c3 3 6.6 4.5 10.5 4.5 3.9 0 7.8-1.5 10.8-4.5 5.7-5.7 5.7-15.4 0-21.4l-79-79.3c-.3-.3-.6-.6-1.2-.9l53-53 46.4 46.1c3 2.7 6.6 4.2 10.5 4.2 3.9 0 7.8-1.5 10.8-4.5 5.7-5.7 5.7-15.4-.3-21.1L424 157.5l30.8-31 125.1 126-294 296zm-104.8 5.7l-31.4-31.3 34.1-34.7 31.4 31.6-34.1 34.4zm517.4-452.3l-97-97.6c-6-5.7-15.6-5.7-21.2 0-6 6-6 15.7 0 21.4l.3.6-91.6 92.2-45.5-45.8c-5.7-5.7-15.3-5.7-20.9 0-6 6-6 15.7 0 21.4l11.1 11.2L129 411.7c-5.7 6-5.7 15.7 0 21.4l33.8 34.1L118 512c-2.7 3-4.5 6.6-4.5 10.9 0 3.9 1.8 7.8 4.5 10.5l14.4 14.5L4.3 677.2c-5.7 5.7-5.7 15.4 0 21.1 3 3 6.9 4.5 10.4 4.5 3.9 0 7.8-1.5 10.8-4.5l128.1-129 16.8 16.9c3 3 6.6 4.5 10.8 4.5 3.9 0 7.8-1.5 10.5-4.5l44.9-44.9 38.9 39.2c3 3 6.6 4.5 10.5 4.5 3.9 0 7.8-1.5 10.8-4.5l304.3-306.8 12 12.1c2.7 3 6.6 4.5 10.5 4.5 3.9 0 7.5-1.5 10.5-4.5 6-6 6-15.4 0-21.4L585 215l91.6-92.5.9.9c3 3 6.6 4.5 10.5 4.5 3.9 0 7.8-1.5 10.8-4.5 5.4-5.8 5.4-15.4-.3-21.5z" clip-rule="evenodd" style="fill: #019df4;"/></svg>
