<?xml version="1.0" encoding="UTF-8"?>
<svg xmlns="http://www.w3.org/2000/svg" viewBox="0 0 702.8 702.8"><path fill="#019df4" fill-rule="evenodd" d="M559 186.4l-41.9-42.2 79.4-80 41.9 42.2-79.4 80zm-88.1 44c-3.5 3.8-8.5 5.6-13.5 5.6-4.7 0-9.7-1.8-13.5-5.3L383 169.9l26.9-27.1 60.9 60.5c7.4 7.3 7.7 19.7.1 27.1zm-39.3 106.5c-3.8 3.5-8.8 5.6-13.5 5.6-5 0-9.9-2.1-13.5-5.6l-93.7-94.4 26.9-27.1 93.7 94.4c7.4 7.3 7.4 19.4.1 27.1zm-102.2 41.6c-3.5 3.8-8.5 5.9-13.5 5.9-4.7 0-9.7-2.1-13.5-5.6l-63.6-63.7 27-27.1 63.6 63.4c7.3 7.6 7.6 19.7 0 27.1zm-39.9 85.9c-3.8 3.8-8.5 5.6-13.4 5.6-4.7 0-9.7-1.8-13.5-5.6l-86.1-86.5 26.9-27.2 86.1 86.8c7.7 7.4 7.7 19.5 0 26.9zm-82.6 52.8l-22.3 22.4-20.2-20.4 22.3-22.7c.3-.3.3-.6.6-.9l20.5 20.9c-.3.4-.6.4-.9.7zM696.4 102L601.5 6.4c-8.8-8.6-22.5-8.6-31.3 0-6.7 6.8-7.9 17.1-3.8 25.4L486.2 113l-39.3-39.5c-8.5-8.9-22.3-8.9-31.1 0-8.5 8.6-8.5 22.7 0 31.3l5.6 5.6-21.7 21.8v.3L166.2 367.4l-37.5 38.1c-4.1 4.1-6.4 9.7-6.4 15.6s2.3 11.5 6.4 15.6l27.8 28c-.3.3-.6.3-.9.6l-37.8 38.4c-8.8 8.6-8.8 22.7 0 31.3l8.8 8.9L6.6 665c-8.8 8.6-8.8 22.7 0 31.3 4.1 4.4 9.6 6.5 15.5 6.5 5.6 0 11.1-2.1 15.5-6.5L157.7 575l11.4 11.5c4.4 4.4 10 6.5 15.5 6.5 5.6 0 11.2-2.1 15.5-6.5l37.8-38.1c.3-.3.3-.6.6-.9l33.1 33.3c4.4 4.1 10 6.5 15.5 6.5 5.9 0 11.4-2.4 15.5-6.5l292.9-295.1 6.4 6.5c4.4 4.1 10 6.5 15.5 6.5 5.6 0 11.1-2.4 15.5-6.5 8.5-8.9 8.5-22.7 0-31.3l-43-43.4 80.2-80.9c3.2 1.8 6.7 2.9 10.3 2.9 5.9 0 11.4-2.1 15.8-6.5 8.7-8.3 8.7-22.4.2-31z" clip-rule="evenodd" style="fill: #019df4;"/></svg>
