<?xml version="1.0" encoding="UTF-8"?>
<svg xmlns="http://www.w3.org/2000/svg" viewBox="0 0 702.8 702.8"><path fill="#019df4" fill-rule="evenodd" d="M559.1 186.4l-41.9-42.2 79.4-80 41.9 42.2-79.4 80zM287.3 534L175.4 421l22-22.4 65.4 65.8c3.8 3.8 8.5 5.6 13.5 5.6s9.7-1.8 13.5-5.6c7.3-7.4 7.3-19.5 0-26.9l-65.4-65.8 35.2-35.7 43.1 42.8c3.8 3.5 8.8 5.6 13.4 5.6 5 0 10-2.1 13.5-5.9 7.6-7.4 7.3-19.5 0-27.1l-43.1-42.5 45.4-45.4 72.6 73.5c3.8 3.5 8.8 5.6 13.5 5.6 5 0 10-2.1 13.5-5.6 7.6-7.7 7.6-19.8 0-27.1l-73-73.5 45.4-45.7 40.1 40.1c3.8 3.5 8.8 5.3 13.5 5.3 5 0 10-1.8 13.5-5.6 7.6-7.7 7.3-19.8 0-27.2l-40.2-39.5 21.7-22.1 112.2 113L287.3 534zM207 517.2l-22.2 22.4-20.2-20.4 22.3-22.7c.3-.3.3-.6.6-.9l20.5 20.9c-.4.4-.7.4-1 .7zM696.2 102L601.3 6.4c-8.5-8.6-22.2-8.6-31 0-6.8 6.8-7.9 17.1-3.8 25.4L486.2 113l-39.3-39.5c-8.5-8.9-22.6-8.9-31.1 0-8.5 8.6-8.5 22.7 0 31.3l5.6 5.6-292.6 295.1c-8.8 8.6-8.8 22.7 0 31.3l27.8 28c-.3.3-.6.3-.9.6l-37.8 38.4c-8.8 8.6-8.8 22.7 0 31.3l8.8 8.9L6.4 665c-8.5 8.6-8.5 22.7 0 31.3 4.4 4.4 10 6.5 15.5 6.5 5.8 0 11.4-2.1 15.5-6.5L157.8 575l11.4 11.5c4.1 4.4 10 6.5 15.6 6.5s11.1-2.1 15.5-6.5l37.8-38.1c.3-.3.3-.6.6-.9l33.1 33.3c4.4 4.1 10 6.5 15.6 6.5s11.4-2.4 15.5-6.5l292.9-295.1 6.4 6.5c4.4 4.1 10 6.5 15.5 6.5s11.1-2.4 15.5-6.5c8.5-8.9 8.5-22.7 0-31.3l-43-43.4 80.3-80.9c3.2 1.8 6.7 2.9 10.2 2.9 5.9 0 11.5-2.1 15.6-6.5 8.7-8.3 8.7-22.4-.1-31z" clip-rule="evenodd" style="fill: #019df4;"/></svg>
