<?xml version="1.0" encoding="UTF-8"?>
<svg xmlns="http://www.w3.org/2000/svg" viewBox="0 0 702.8 702.8"><path fill="#019df4" fill-rule="evenodd" d="M672.9 613.2V193.3c0-8.6-7.1-15.6-15.8-15.6H45.7c-8.7 0-15.8 7-15.8 15.6v419.9c0 8.6 7.1 15.6 15.8 15.6h611.4c8.7 0 15.8-7 15.8-15.6zm-457-533.3v68.2h271V79.9c0-1.8-5.4-6.9-15.8-6.9H231.7c-10.4 0-15.8 5.1-15.8 6.9zm441.2 68.2c25.2 0 45.7 20.3 45.7 45.2v419.9c0 24.9-20.5 45.2-45.7 45.2H45.7C20.5 658.4 0 638.1 0 613.2V193.3c0-24.9 20.5-45.2 45.7-45.2H186V79.9c0-20.5 20.1-36.5 45.7-36.5h239.4c25.6 0 45.7 16 45.7 36.5v68.2h140.3zM486.6 370.7c0 1.8.6 2.9.8 3.1l-1.8-15.6V373l-88.8.1c-4 0-7.8-1.6-10.6-4.3-2.8-2.8-4.4-6.5-4.4-10.5v-87.7c-.2-.5-.2-.8-.1-1h-60.2l-.8 88.7c0 8.2-6.7 14.8-15 14.8l-88.7.1c-.6.1-.8.1-1 0V433l89.7.6c8.3 0 15 6.6 15 14.8l.1 87.7c.1.5.1.8 0 .9h60.4l.6-88.7c0-3.9 1.6-7.7 4.4-10.4 2.8-2.8 6.6-4.3 10.6-4.3h88.7c.5-.2.8-.2 1-.1v-62.8zm-1-27.3c16.4 0 30.9 12.8 30.9 27.3v65c0 14.5-14.4 27.3-30.9 27.3h-73.7l.1 73c0 16.5-12.7 30.5-27.6 30.5h-65.7c-15 0-27.6-14-27.6-30.5l-.1-73-73.8.1c-16.7 0-30.9-12.5-30.9-27.3v-65c0-14.8 14.1-27.3 30.9-27.3l73.7-.1v-73c0-16.3 12.9-30.5 27.6-30.5h65.7c14.7 0 27.6 14.3 27.6 30.5v72.9l73.8.1z" clip-rule="evenodd" style="fill: #019df4;"/></svg>
