<?xml version="1.0" encoding="UTF-8"?>
<svg xmlns="http://www.w3.org/2000/svg" viewBox="0 0 702.8 702.8"><path fill="#019df4" fill-rule="evenodd" d="M226.1 88.7v57h250.7v-57c-1.4-.9-4.2-1.9-8.1-1.9H234.3c-4-.1-6.8 1-8.2 1.9zm424.7 57c28.7 0 52 23 52 51.4v410c0 28.3-23.3 51.3-52 51.3H52c-28.7 0-52-23-52-51.3v-410c0-28.3 23.3-51.4 52-51.4h130.1V86.4c0-24 22.8-42.9 52-42.9h234.4c29.2 0 52.1 18.9 52.1 42.9v59.3h130.2zm-168 190.7h-65v-64c0-19.7-16.1-37-34.4-37h-64.3c-18.3 0-34.3 17.3-34.3 37v64.1h-64.9c-20.4 0-37.5 15.5-37.5 33.9v63.4c0 18.4 17.2 33.9 37.6 33.9h65v64c0 20.1 15.7 37 34.3 37h64.4c18.6 0 34.3-17 34.3-37.1v-64.1h64.9c20 0 37.5-15.8 37.5-33.9v-63.4c0-18-17.6-33.8-37.6-33.8z" clip-rule="evenodd" style="fill: #019df4;"/></svg>
