<?xml version="1.0" encoding="UTF-8"?>
<svg xmlns="http://www.w3.org/2000/svg" viewBox="0 0 702.8 702.8"><path fill="#019df4" fill-rule="evenodd" d="M658.9 607V197c0-4.5-3.6-8.1-8.1-8.1H52c-4.5 0-8.1 3.6-8.1 8.1v410c0 4.4 3.6 8 8.1 8h598.7c4.5.1 8.1-3.5 8.2-8zM226.1 88.7v57h250.7v-57c-2.5-1.3-5.3-2-8.1-1.9H234.2c-2.8-.1-5.6.5-8.1 1.9zm424.7 57c28.7 0 52 23 52 51.4v410c0 28.3-23.3 51.3-52 51.3H52c-28.7 0-52-23-52-51.3V197c0-28.3 23.3-51.4 52-51.4h130.1V86.3c0-24 22.8-42.9 52-42.9h234.4c29.2 0 52.1 18.9 52.1 42.9v59.4h130.2zM476.4 424.2v-44.5h-80.5c-12 .1-21.8-9.6-22-21.6v-79.4h-45.2v79.4c0 11.9-9.8 21.7-21.9 21.7l-80.5.1v44.5l80.5-.1c12.2 0 22 9.7 22 21.6l.1 79.4 45.2.1-.1-79.4c0-5.7 2.3-11.3 6.4-15.3 4.1-4.1 9.7-6.4 15.5-6.4l80.5-.1zm6.5-87.8c19.9 0 37.5 15.8 37.5 33.9v63.5c0 18-17.6 33.9-37.5 33.9H418v64.1c0 20.1-15.7 37-34.3 37h-64.3c-18.6 0-34.3-17-34.3-37v-64h-65c-20.4 0-37.6-15.5-37.6-33.9v-63.5c0-18.4 17.2-33.9 37.5-33.9h64.9v-64.1c0-19.7 16-37 34.3-37h64.3c18.3 0 34.3 17.3 34.3 37v64h65.1z" clip-rule="evenodd" style="fill: #019df4;"/></svg>
