<?xml version="1.0" encoding="UTF-8"?>
<svg xmlns="http://www.w3.org/2000/svg" viewBox="0 0 702.9 702.8"><g fill="#019df4"><path d="M327.4 540.7c-8 0-15.6-3.1-21.2-8.7L170.5 396.3c-11.7-11.7-11.7-30.7 0-42.4L443.7 80.6l-46.2-46.1c-7.8-7.8-7.8-20.5 0-28.3 3.8-3.8 8.8-5.9 14.1-5.9h270.8c11 0 20 9 20 20v270.8c0 11-9 20-20 20-5.3 0-10.4-2.1-14.1-5.9l-46.6-46.6L348.6 532c-5.6 5.6-13.3 8.8-21.2 8.7zm84.3-520.3l46.1 46.1c7.8 7.8 7.8 20.5 0 28.3L184.6 368c-3.9 3.9-3.9 10.2 0 14.1l135.7 135.7c3.9 3.9 10.2 3.9 14.1 0l273.2-273.2c3.7-3.8 8.8-5.9 14.1-5.9 5.3 0 10.4 2.1 14.1 5.9l46.5 46.5V20.4H411.7zM10 702.4c-5.5 0-10-4.5-10-10 0-2.7 1.1-5.2 2.9-7.1l175.5-175.5c4-3.8 10.3-3.7 14.1.2 3.7 3.9 3.7 10 0 13.9L17.1 699.5c-1.9 1.8-4.4 2.9-7.1 2.9zM189.8 702.5c-5.5 0-10-4.5-10-10 0-2.7 1.1-5.2 2.9-7.1 37.3-37.3 91.3-93.3 91.9-93.9 3.7-4.1 10-4.5 14.1-.8s4.5 10 .8 14.1c-.2.2-.3.4-.5.5-.5.6-54.7 56.7-92.1 94.2-1.9 1.9-4.5 3-7.1 3zM11.8 524.5c-5.5 0-10-4.5-10-10 0-2.7 1.1-5.2 2.9-7.1C42 470.1 96 414 96.6 413.5c4.1-3.7 10.4-3.5 14.1.6 3.4 3.7 3.5 9.4.2 13.3-.5.6-54.7 56.7-92.1 94.2-1.8 1.8-4.3 2.9-7 2.9z" style="fill: #019df4;"/></g></svg>
