<?xml version="1.0" encoding="UTF-8"?>
<svg xmlns="http://www.w3.org/2000/svg" viewBox="0 0 703.3 703.4"><g fill="#019df4"><path d="M20 702.9c-11 0-20-8.9-20-20 0-5.3 2.1-10.4 5.9-14.2l165.4-165.4c7.8-7.8 20.5-7.8 28.3 0 7.8 7.8 7.8 20.5 0 28.3L34.1 697c-3.7 3.8-8.8 5.9-14.1 5.9zM199.8 703c-11 0-20-8.9-20-20 0-5.2 2-10.3 5.7-14l81.9-83.9c7.5-8.1 20.1-8.7 28.3-1.2 8.1 7.5 8.7 20.1 1.2 28.3-.3.3-.5.6-.8.8l-81.9 84c-3.8 3.9-9 6-14.4 6zM21.8 525c-11 0-20-8.9-20-20 0-5.2 2-10.3 5.7-14l81.9-83.9c7.7-7.9 20.4-8 28.3-.3 7.9 7.7 8 20.4.3 28.3L36.1 519c-3.7 3.9-8.9 6-14.3 6zM653.3 0H382.5c-27.6 0-50 22.4-50 50 0 13.3 5.3 26 14.6 35.4l24.9 24.9-222.1 222.1c-19.5 19.5-19.5 51.2 0 70.7L299.7 553c19.5 19.5 51.2 19.5 70.7 0l222.1-222.2 25.3 25.4c9.3 9.4 22 14.7 35.3 14.7 27.6 0 50-22.4 50.1-50V50c0-27.6-22.3-50-49.9-50z" style="fill: #019df4;"/></g></svg>
