<?xml version="1.0" encoding="UTF-8"?>
<svg xmlns="http://www.w3.org/2000/svg" viewBox="0 0 703.3 703.4"><g fill="#019df4"><path d="M653.3 40c5.5 0 10 4.5 10 10v270.8c0 5.5-4.5 10-10 10h-.1c-2.6 0-5.2-1.1-7-3l-46.1-46.1-7.3-7.3c-2.5 2.2-5 4.4-7.3 6.9L342.2 524.7c-3.9 3.9-10.2 3.9-14.1 0L178.2 374.8c-3.9-3.9-3.9-10.2 0-14.1l243.3-243.3c3.9-3.9 3.9-10.2 0-14.1l-46.1-46.1c-3.9-3.9-3.9-10.2 0-14.1 1.9-1.9 4.4-2.9 7.1-2.9h270.8m0-40.2H382.5c-27.6 0-50 22.4-50 50 0 13.3 5.3 26 14.6 35.4l24.9 24.9-222.1 222.1c-19.5 19.5-19.5 51.2 0 70.7L299.7 553c19.5 19.5 51.2 19.5 70.7 0l222.1-222.2 25.3 25.4c9.3 9.4 22 14.7 35.3 14.7 27.6 0 50-22.4 50.1-50V50c0-27.6-22.3-50-49.9-50zM20 702.9c-11 0-20-8.9-20-20 0-5.3 2.1-10.4 5.9-14.2l165.4-165.4c7.7-7.9 20.3-8.2 28.3-.5 7.9 7.7 8.2 20.3.5 28.3l-.5.5L34.1 697c-3.7 3.8-8.8 5.9-14.1 5.9zM199.8 703c-11 0-20-9-20-20 0-5.3 2.1-10.4 5.9-14.1 37.2-37.2 81.1-83.1 81.6-83.6 7.5-8.1 20.2-8.5 28.3-1s8.5 20.2 1 28.3c-.1.1-.2.2-.3.4-.4.5-44.7 46.7-82.2 84.2-3.9 3.7-9 5.8-14.3 5.8zM21.8 525c-11 0-20-9-20-20 0-5.3 2.1-10.4 5.8-14.1 37.2-37.2 81.1-83.1 81.6-83.6 7.5-8.1 20.2-8.5 28.3-1 8.1 7.5 8.5 20.2 1 28.3-.1.1-.2.2-.3.4-.4.5-44.7 46.7-82.2 84.2-3.8 3.7-8.9 5.8-14.2 5.8z" style="fill: #019df4;"/></g></svg>
