<?xml version="1.0" encoding="UTF-8"?>
<svg xmlns="http://www.w3.org/2000/svg" viewBox="0 0 702.8 702.8"><path fill="#019df4" fill-rule="evenodd" d="M623.2 227.5l-23.8 23.7-149.3-147.7 24.4-24.2C541 13.4 597.6 54.3 619 75c2.6 2.6 5.5 5.5 7.9 8 20.8 21.7 62.3 79.2-3.7 144.5zM54.2 613l34.5 34.2-41 7.5 6.5-41.7zm92-89.8L86 463.7l333.4-329.8 60.1 59.5-333.3 329.8zm-5.7 114.5l-78.2-77.4 7.9-51.4L191 628.4c.1 0-50.5 9.3-50.5 9.3zm95.7-25.4l-59.4-58.7 333.3-329.8 58.5 57.9c.1 0-332.4 330.6-332.4 330.6zm422-559c-2.9-3-5.9-6-8.9-8.9-49-47.6-128.7-71.5-205.6 4.6L40 448.5c-1.9 1.8-3.4 4-4.4 6.4-.3.8-.5 1.6-.7 2.4-.3 1-.8 2-1 3L.3 678.1C-.8 685 1.6 692 6.7 696.8c5.1 4.8 12.2 6.9 19 5.7L235.2 664c.4 0 .7.2 1.1.2 3.9-.1 7.6-1.3 10.9-3.4.4-.2.8-.6 1.3-.8 1.1-.7 2.3-1.2 3.2-2.1.1-.1.2-.3.3-.4.2-.2.5-.4.7-.6l401.4-399c75.9-75.3 51.9-155 4.1-204.6z" clip-rule="evenodd" style="fill: #019df4;"/></svg>
