<?xml version="1.0" encoding="UTF-8"?>
<svg xmlns="http://www.w3.org/2000/svg" viewBox="0 0 702.8 702.8"><path fill="#019df4" fill-rule="evenodd" d="M634.4 230l-29.6 29.4-163-161.2L472 68.3c72.7-71.8 134.6-27.1 157.9-4.5 2.8 2.8 5.8 5.9 8.3 8.4 22.8 23.7 68.2 86.5-3.8 157.8zM39.7 623.8L78 661.7 32.6 670l7.1-46.2zm102.2-86.7L70 465.9l350.9-347.1 71.9 71.2-350.9 347.1zm-28.7 118.1l-68-67.4 14.1-91.2L203 638.7l-89.8 16.5zm120.7-27.1l-71.1-70.3 350.9-347.1 70.3 69.5-350.1 347.9zM659.6 52c-3-3-5.9-6-9-9C603.1-3.2 525.7-26.2 451 47.7l-412.5 408c-2 2-3.3 4.6-3.7 7.3-.1.3-.4.5-.4.8L.2 686c-.7 4.7.9 9.4 4.3 12.7 3.5 3.3 8.3 4.7 13 3.9l214.9-39.4c.5 0 1 .3 1.5.3 3.9 0 7.7-1.5 10.5-4.3.2-.2.3-.5.5-.8.1-.1.4-.1.5-.2l410-407.5c95.3-94.4 20.2-182.1 4.2-198.7z" clip-rule="evenodd" style="fill: #019df4;"/></svg>
