<?xml version="1.0" encoding="UTF-8"?>
<svg xmlns="http://www.w3.org/2000/svg" viewBox="0 0 702.8 702.8"><path fill="#019df4" fill-rule="evenodd" d="M236.2 612.3l-59.4-58.7 333.4-329.8 58.5 57.9-332.5 330.6zm-130.7 32.8l-49-47.9 13.8-88.3 120.8 119.5-85.6 16.7zm313.8-511.2l60.2 59.6-333.3 329.8L86 463.8l333.3-329.9zm238.9-80.6c-2.7-2.8-6-6.1-8.9-8.9C600.4-3.3 520.6-27.1 443.7 49L39.9 448.5c-1.9 1.9-3.3 4.1-4.4 6.5-.3.8-.5 1.6-.8 2.4-.3 1-.8 1.9-1 3L.1 678c-1.1 6.9 1.3 13.8 6.3 18.7 4.1 3.9 9.5 6 15.1 6 1.3 0 2.6-.1 4-.4l209.4-38.4c.4 0 .8.2 1.2.2 3.9 0 7.6-1.4 11-3.4.3-.1.5-.3.8-.5 1.2-.8 2.5-1.3 3.6-2.4.2-.2.2-.4.4-.5.2-.2.5-.3.7-.5l401.3-399C730 182.7 706 103 658.2 53.3z" clip-rule="evenodd" style="fill: #019df4;"/></svg>
