<?xml version="1.0" encoding="UTF-8"?>
<svg xmlns="http://www.w3.org/2000/svg" viewBox="0 0 702.8 702.8"><path fill="#019df4" fill-rule="evenodd" d="M556.2 291c0 239-53.5 323.6-204.3 323.6-150.9 0-204.3-84.7-204.3-323.6 0-34.4 1.1-64.3 3.2-91.6 52.5 21.3 114.5 32.7 185.4 34.2l1.4 265.2c0 8.2 6.7 14.7 15 14.7h.1c8.2-.1 14.9-6.7 14.9-14.9l-1.4-265.1c71.6-1.4 134-12.9 186.8-34.4 2.1 27.3 3.2 57.3 3.2 91.9M696.1 61.3c-6.9-4.5-16.2-2.6-20.8 4.2-61.7 92.3-170.7 139.1-323.7 139.1-153.2 0-262.3-46.9-324-139.5-4.6-6.9-14-8.8-20.8-4.2-7 4.5-8.8 13.7-4.3 20.5 30 45 70.5 79.6 119.8 104.7-.3.9-.7 1.7-.8 2.7-2.7 30.1-4 63.5-4 102.1 0 218 39.2 353.2 234.3 353.2 195.1 0 234.3-135.2 234.3-353.2 0-37.1-1.2-69.3-3.6-98.3-.2-2.3-1.1-4.4-2.2-6.3 49.4-25.2 89.9-59.7 120-104.6 4.6-6.7 2.7-15.9-4.2-20.4" clip-rule="evenodd" style="fill: #019df4;"/></svg>
