<?xml version="1.0" encoding="UTF-8"?>
<svg xmlns="http://www.w3.org/2000/svg" viewBox="0 0 702.8 702.8"><path fill="#019df4" fill-rule="evenodd" d="M374.8 495c.1 11.9-9.8 21.7-21.9 21.7h-.1c-12.1 0-22-9.6-22-21.5l-1.4-252c7.5.2 14.6 1 22.4 1 7.5 0 14.4-.7 21.7-.9l1.3 251.7zM699.6 92.3c2.6-3.8 3.3-8.1 3.2-12.4-.1-4.1-.9-8.1-3.3-11.5-1.6-2.4-3.7-4.4-6.2-6.1-8.8-5.7-20-4.1-27.3 2.9-1.1 1-2.4 1.9-3.3 3.2-19.4 28.9-44.2 52.6-73.3 72.1-59.6 39.8-138.8 60.4-237.7 60.4-79.2 0-146.7-13-200.7-38.6-38.4-18.2-70.1-43.5-95.5-74.6C50.3 81.3 45 75 40.4 68.1c-1.4-1.9-3.1-3.3-4.9-4.7C28.2 57.7 18 56.7 9.8 62c-2.1 1.4-3.6 3.1-5.1 5-5.6 7-6.5 17.1-1.4 25.1 7.7 11.3 16.1 22 25.1 32.1 2.9 3.4 6.3 6.3 9.4 9.5 6.1 6.3 12.2 12.6 18.8 18.4 4.6 4 9.5 7.6 14.4 11.3 5.9 4.6 11.8 9.3 18.2 13.5 4.9 3.3 10.1 6.2 15.2 9.3 4.7 2.8 9.1 5.9 14 8.5-2.4 29.1-3.5 61.2-3.5 97.8 0 131.9 15.7 236.3 75.6 296.1 35.9 35.9 87.7 55.6 161.4 55.6 12.3 0 24-.6 35.2-1.6 1.6-.1 2.9-.5 4.4-.7 9.4-1.1 18.5-2.3 27.1-4.1C558 608 588.9 477.2 588.9 292.5c0-36.6-1.2-68-3.5-96.6 0-.6 0-.9-.3-1.4 2.8-1.5 5.3-3.3 8.1-4.8 5.8-3.3 11.6-6.7 17.2-10.3 7-4.5 13.7-9.4 20.2-14.4 4.4-3.3 8.8-6.7 13-10.2 7.2-6.2 14-12.8 20.6-19.6 3.1-3.2 6.4-6.2 9.4-9.5 9.2-10.4 17.9-21.3 25.8-33l.2-.4z" clip-rule="evenodd" style="fill: #019df4;"/></svg>
