<?xml version="1.0" encoding="UTF-8"?>
<svg xmlns="http://www.w3.org/2000/svg" viewBox="0 0 702.8 702.8"><path fill="#019df4" fill-rule="evenodd" d="M544.6 292.5C544.6 523.1 496 601 351.9 601s-192.7-77.9-192.7-308.5c0-29.4.8-55.4 2.4-79.2 48.4 18.1 104.3 28.2 167.6 30.1l1.4 251.9c.1 11.9 9.9 21.5 22 21.5h.1c12.2-.1 22-9.8 21.9-21.7l-1.4-251.6c63.9-1.9 120.2-12 168.9-30.4 1.7 23.9 2.5 50 2.5 79.4M692.9 62.4c-10.2-6.6-23.9-3.8-30.5 6.1-59 87.9-163.6 132.5-310.8 132.5-147.4 0-252.1-44.7-311.1-132.8-6.7-10-20.3-12.7-30.5-6.2C-.2 68.5-3 82 3.7 91.9 32.9 135.4 71.8 169.1 119 194c-2.5 29.1-3.8 61.3-3.8 98.3C115.2 503.4 155.5 644 352 644s236.7-140.6 236.7-351.7c0-36.2-1.2-67.7-3.6-96.5-.1-.7-.4-1.3-.6-2 46.9-24.8 85.6-58.4 114.7-101.6 6.7-9.8 3.8-23.2-6.3-29.8" clip-rule="evenodd" style="fill: #019df4;"/></svg>
