<?xml version="1.0" encoding="UTF-8"?>
<svg xmlns="http://www.w3.org/2000/svg" viewBox="0 0 702.8 702.8"><path fill="#019df4" fill-rule="evenodd" d="M357.5 515.4c10.8-11.6 29.1-12.3 40.7-1.4 11.6 10.9 12.3 29.2 1.4 40.9-9.8 10.6-20.1 21.5-28.7 30-70.2 70.5-134.1 117.9-197.9 117.9-38.6 0-77-17.3-116.8-57.2-48.8-49-65.6-99.4-51.6-154 12-46.4 46.5-96.5 112-162.3 112.6-113.1 209.1-166.8 314.6-60.7 26.3 26.4 42.9 52.6 50.9 79.9 4.5 15.4-4.3 31.4-19.6 35.9-15.2 4.6-31.3-4.3-35.8-19.6-5.2-17.8-17.1-35.9-36.4-55.3-57.2-57.6-109-64-233.1 60.7S39.5 547 96.8 604.6c57.3 57.6 109.1 64 233.2-60.7 8.4-8.1 18.2-18.4 27.5-28.5zm289-458.8c48.7 49 65.6 99.4 51.6 154-12 46.4-46.5 96.5-112 162.3-65.4 65.8-115.3 100.5-161.4 112.5-12.3 3.2-24.4 4.8-36.3 4.8-40.7 0-79.2-18.7-116.9-56.6-23.9-24-39.7-47.7-48.5-72.4-5.3-15.1 2.5-31.7 17.5-37 14.9-5.3 31.5 2.5 36.8 17.6 5.8 16.4 17.2 33 34.9 50.9 43.5 43.7 75.2 42.6 98 36.7 35.2-9.1 78.1-40.1 135.1-97.4 57-57.3 87.8-100.5 96.9-135.9 5.9-22.9 7.1-54.7-36.5-98.5-43.5-43.8-75.2-42.7-98-36.7-35.2 9.2-78.1 40.1-135.2 97.4-10.8 10.9-20.8 21.4-30.1 31.6-10.7 11.9-28.9 12.7-40.7 1.9-11.8-10.7-12.6-29.1-1.9-40.9 9.8-10.8 20.5-22 32-33.6C397.3 51.5 447.1 16.8 493.3 4.8c54.3-14.2 104.4 2.8 153.2 51.8z" clip-rule="evenodd" style="fill: #019df4;"/></svg>
