<?xml version="1.0" encoding="UTF-8"?>
<svg xmlns="http://www.w3.org/2000/svg" viewBox="0 0 702.8 702.8"><path fill="#019df4" fill-rule="evenodd" d="M386.5 498.3c8-9.3 21.9-10.4 31.1-2.3 9.2 8 10.2 22 2.3 31.3-13.6 15.9-37.2 41.3-53.6 57.8-65.9 66.2-115.7 101.1-161.5 113-11.9 3.1-23.5 4.6-35 4.6-39.7 0-77.3-18.4-114.4-55.7C-48 543 5.3 446.8 117.1 334.3c111.8-112.4 207.5-166 310.8-62 33.7 34 51.7 67.8 54.8 103.5 1.1 12.2-7.9 23-20 24.1-11.9.7-22.9-8-23.9-20.2-2.2-24.9-15.9-49.8-42-76-36.7-37-69.7-49.1-107.1-39.5-37.3 9.7-82.2 41.9-141.4 101.5S57.1 470.4 47.5 507.9c-9.7 37.6 2.4 70.8 39.2 107.8 36.8 37 69.8 49.1 107.1 39.4 37.3-9.7 82.2-41.9 141.4-101.5 15.4-15.5 38.5-40.4 51.3-55.3zm261-442.6c47.8 48.1 64.4 97.2 50.7 150.3-11.9 46.1-46.5 96.2-112.4 162.5-70 70.4-133.7 117.8-196.9 117.8-37.7 0-75.3-16.9-114-55.8-32.4-32.5-50.1-64.9-54.4-99.1-1.5-12.2 7.1-23.3 19.2-24.7 12-1.2 23.1 7.1 24.6 19.3 2.9 23.9 16.6 47.9 41.7 73.2 70.8 71.1 131.1 56 248.5-62 117.4-118.1 132.4-178.8 61.7-250-70.6-71.1-131.1-56.1-248.4 62-20.6 20.8-37.3 39.1-51.1 56-7.8 9.4-21.7 10.8-31.1 3-9.4-7.8-10.8-21.8-3-31.2 14.7-18 32.3-37.3 54-59.1C448.4 5.3 544.1-48.3 647.5 55.7z" clip-rule="evenodd" style="fill: #019df4;"/></svg>
