<?xml version="1.0" encoding="UTF-8"?>
<svg xmlns="http://www.w3.org/2000/svg" viewBox="0 0 702.8 702.8"><path fill="#019df4" fill-rule="evenodd" d="M145.8 197.8c-15.7 0-28.5-11.8-28.5-26.4S130 145 145.8 145h528.5c15.7 0 28.5 11.8 28.5 26.4s-12.7 26.4-28.5 26.4H145.8zm-104.6-66c22.7 0 41.1 17.8 41.1 39.7s-18.4 39.7-41.1 39.7C18.4 211.1 0 193.4 0 171.5s18.4-39.7 41.2-39.7zM674.3 325c15.7 0 28.5 11.8 28.5 26.4s-12.7 26.4-28.5 26.4H145.8c-15.7 0-28.5-11.8-28.5-26.4S130 325 145.8 325h528.5zM41.2 311.7c22.7 0 41.1 17.8 41.1 39.7s-18.4 39.7-41.1 39.7C18.4 391.1 0 373.3 0 351.4s18.4-39.7 41.2-39.7zM674.3 505c15.7 0 28.5 11.8 28.5 26.4 0 14.5-12.7 26.4-28.5 26.4H145.8c-15.7 0-28.5-11.9-28.5-26.4 0-14.5 12.7-26.4 28.5-26.4h528.5zM41.2 491.7c22.7 0 41.1 17.8 41.1 39.7 0 21.8-18.4 39.7-41.1 39.7C18.4 571 0 553.2 0 531.4c0-22 18.4-39.7 41.2-39.7z" clip-rule="evenodd" style="fill: #019df4;"/></svg>
