<?xml version="1.0" encoding="UTF-8"?>
<svg xmlns="http://www.w3.org/2000/svg" viewBox="0 0 702.8 702.8"><path fill="#019df4" fill-rule="evenodd" d="M120.7 185.3c-11.4 0-20.7-8.9-20.7-20 .2-10.9 9.3-19.8 20.7-20h561.4c11.4 0 20.7 8.9 20.7 20 0 11-9.3 20-20.7 20H120.7zm-86.8 13.6c-18.7 0-33.9-15-33.9-33.5s15.2-33.5 33.9-33.5 33.9 15 33.9 33.5c0 18.4-15.2 33.5-33.9 33.5zm648.2 132.5c11.4 0 20.7 8.9 20.7 20s-9.3 20-20.7 20H120.7c-11.4 0-20.7-8.9-20.7-20s9.3-20 20.7-20h561.4zM33.9 384.9c-18.7 0-33.9-15-33.9-33.5s15.2-33.5 33.9-33.5 33.9 15 33.9 33.5-15.2 33.5-33.9 33.5zm648.2 132.6c5.5 0 10.7 2.1 14.6 5.8 3.9 3.7 6.1 8.8 6.1 14.1 0 11-9.3 20-20.7 20H120.7c-11.3-.2-20.5-9-20.7-20 0-11 9.3-20 20.7-20h561.4zM33.9 571C15.2 571 0 556 0 537.5S15.2 504 33.9 504s33.9 15 33.9 33.5S52.6 571 33.9 571z" clip-rule="evenodd" style="fill: #019df4;"/></svg>
