<?xml version="1.0" encoding="UTF-8"?>
<svg xmlns="http://www.w3.org/2000/svg" viewBox="0 0 702.8 702.8"><path fill="#019df4" fill-rule="evenodd" d="M698.1 339.1c3 2.8 4.7 6.7 4.7 10.8 0 4.1-1.6 8.1-4.6 11l-69.3 66.4c-5.9 5.6-15.1 5.5-20.8-.3l-44.6-44.8-26.1 42.1c-2.6 4.2-7 6.8-11.9 7-5.4.6-9.6-1.9-12.5-5.8l-32.2-41.9-28.6 41.3c-2.8 4-7.3 6.4-12.2 6.4H274c-.9 2-1.7 3.8-2.2 4.9-20.1 40.2-63.7 61.5-126.1 61.5-94 0-145.7-52-145.7-146.4s51.7-146.4 145.7-146.4c75.1 0 110.7 32.9 127.5 63.9h344.1c3.8 0 7.4 1.4 10.2 4l70.6 66.3zm-570.3 37.3c-17.9 0-24.9-7-24.9-25s6.9-25 24.9-25 24.9 7 24.9 25-7 25-24.9 25zm0-79.9c-34.2 0-54.7 20.6-54.7 54.9 0 34.4 20.5 54.9 54.7 54.9s54.7-20.5 54.7-54.9-20.4-54.9-54.7-54.9z" clip-rule="evenodd" style="fill: #019df4;"/></svg>
