<?xml version="1.0" encoding="UTF-8"?>
<svg xmlns="http://www.w3.org/2000/svg" viewBox="0 0 702.8 702.8"><path fill="#019df4" fill-rule="evenodd" d="M136.9 372.4c16.4 0 21.5-4.9 21.5-20.9 0-16.1-5-21-21.5-21s-21.5 4.9-21.5 21c0 15.9 5.1 20.9 21.5 20.9zm0-84.7c40.8 0 65.2 23.8 65.2 63.7 0 39.3-25 63.7-65.2 63.7-40.3 0-65.3-24.4-65.3-63.7.1-39.9 24.5-63.7 65.3-63.7zm476.5 95.6l35.6-33.1-45.8-41.7H265.8c-8.6 0-16.5-5-20-12.7-14.7-32.4-46.1-48.1-95.8-48.1-72.4 0-106.2 32.9-106.2 103.7 0 70.7 33.8 103.7 106.2 103.7 47 0 77.6-13.1 90.9-39 1.4-2.7 4.6-10.7 4.6-10.8 3.3-8.2 11.4-13.5 20.3-13.5h160.8l32.8-46.1c4-5.6 10.5-9 17.4-9.2 6.5-.2 13.6 2.9 17.9 8.3l24.4 30.9 18.6-29.2c3.5-5.5 9.5-9.2 16.1-9.9 6.6-.7 13.2 1.5 17.9 6.1l41.7 40.6zm82.4-48.9c4.4 4 6.9 9.6 7 15.5 0 5.9-2.5 11.5-6.8 15.6l-67.9 63.1c-8.6 8-22.2 7.8-30.6-.4L560.4 392l-20.7 32.4c-3.8 6-10.4 9.7-17.5 10.1-7.4.6-14-2.7-18.4-8.3l-25.4-32.1-22.3 31.3c-4.1 5.8-10.8 9.2-18 9.2H280.3c-.1.3-.3.5-.4.8-14.7 28.5-49.1 62.5-130 62.5-96.7 0-150-52-150-146.4s53.3-146.4 150-146.4c74.1 0 110.9 30.7 129.1 60.8h332.7c5.5 0 10.9 2.1 14.9 5.7l69.2 62.8z" clip-rule="evenodd" style="fill: #019df4;"/></svg>
