<?xml version="1.0" encoding="UTF-8"?>
<svg xmlns="http://www.w3.org/2000/svg" viewBox="0 0 702.8 702.8"><path fill="#019df4" fill-rule="evenodd" d="M127.8 376.4c17.9 0 24.9-7 24.9-25s-7-25-24.9-25-24.9 7-24.9 25 7 25 24.9 25zm0-80c34.2 0 54.7 20.6 54.7 55s-20.4 54.9-54.7 54.9c-34.2 0-54.7-20.6-54.7-54.9 0-34.4 20.5-54.9 54.7-55zm491 99l47.3-45.3-54.7-51.3H264c-5.9 0-11.2-3.5-13.6-8.9-16.4-37-50.7-55-104.7-55-78 0-115.9 38.1-115.9 116.4 0 78.4 37.9 116.5 115.9 116.5 51 0 84.5-15.2 99.5-45.1 1.5-2.9 5-11.9 5-11.9 2.2-5.7 7.7-9.5 13.9-9.5h168.1l35.7-51.6c2.7-3.9 7.1-6.3 11.9-6.4 4.9-.8 9.3 2 12.2 5.8l31.5 41 24.7-39.8c4.3-7 13.5-9.1 20.4-4.8 1 .6 1.9 1.3 2.7 2.1-.1.1 47.5 47.8 47.5 47.8zm79.2-56.3c6.1 5.6 6.4 15.1.7 21.2l-.6.6-69.3 66.4c-5.9 5.6-15.1 5.4-20.8-.3l-44.6-44.7-26.1 42.1c-2.6 4.1-7 6.8-11.9 7-4.9.5-9.7-1.7-12.5-5.8l-32.2-41.9-28.6 41.3c-2.8 4-7.3 6.4-12.2 6.4H274c-.9 2-1.7 3.8-2.2 4.9-20.1 40.2-63.7 61.5-126.1 61.5-94 0-145.7-52-145.7-146.4S51.7 205 145.7 205c75.1 0 110.7 32.9 127.5 63.9h344.1c3.8 0 7.4 1.5 10.2 4l70.5 66.2z" clip-rule="evenodd" style="fill: #019df4;"/></svg>
