<?xml version="1.0" encoding="UTF-8"?>
<svg xmlns="http://www.w3.org/2000/svg" viewBox="0 0 702.8 702.8"><path fill="#019df4" fill-rule="evenodd" d="M604.7 350.2c-46 39.6-120.4 69.1-221.1 87.7-39.6 7.3-76.1 11.4-109.4 12.7-5.6-38.6-37.4-59.9-89.7-65-6.7-.7-13.1-1-19.2-1-29.5 0-52.2 7.8-67 23.6-27-21.6-44.2-50.8-51.4-89.7-10.7-58.3 5.9-105.5 51-144.3 46-39.6 120.3-69.1 220.9-87.7 100.6-18.6 180.5-17.6 237.7 3 55.9 20.2 88.4 58.3 99.1 116.5 10.9 58.2-5.8 105.4-50.9 144.2M173.6 498.6c-54.3-5.3-52.4-25.3-51-39.9 1.4-14.2 2.9-30.3 42.7-30.3 4.8 0 9.7.3 14.9.8 54.4 5.3 52.5 25.3 51 40-1.4 14.2-2.9 30.2-42.7 30.2-4.6 0-9.7-.3-14.9-.8M698.8 198c-13.6-73.9-56.4-124.3-127.3-149.9-64.5-23.2-152.1-24.9-260.4-4.8-108.3 20-189.6 52.8-241.5 97.6C12.5 190-9.5 252.4 4.1 326.4c9.8 53.4 35.5 94.7 75.9 123.2-.2 1.7-.7 3.2-.8 4.9-5.1 53.4 28.5 81.8 90.3 87.8 6.7.7 13.1 1 19.2 1 9.5 0 18.1-1 26.2-2.6 6.6 11.8 12.6 27.7 8.3 42.9-6.5 22.8-34.4 38.5-56.7 47.7-11.2 4.6-16.5 17.4-11.9 28.6 3.5 8.5 11.6 13.6 20.2 13.6 2.8 0 5.6-.5 8.3-1.7 45.5-18.7 73.1-44.4 82.1-76.3 6.6-23.1 2.2-48.8-11.3-74 7.3-7.2 12.9-16.1 16.6-27.1 36.9-1 77.4-5.4 121.2-13.5 108.3-20 189.6-52.8 241.6-97.5 57-49.1 79.1-111.5 65.5-185.4" clip-rule="evenodd" style="fill: #019df4;"/></svg>
