<?xml version="1.0" encoding="UTF-8"?>
<svg xmlns="http://www.w3.org/2000/svg" viewBox="0 0 702.8 702.8"><path fill="#019df4" fill-rule="evenodd" d="M385.6 447.1c-41.6 7.7-80 11.9-115 13-2.8-40.8-33.9-63-86.4-68.1-6.4-.6-12.5-.9-18.3-.9-32.5 0-56.3 9.9-70 30.1C63 397.8 42 363.6 33.8 319.1 11 195.1 106.3 112.4 317 73.4c103.9-19.2 186.7-18.1 246.2 3.3 59.8 21.6 94.4 62.4 105.9 124.8 22.7 124-72.7 206.7-283.5 245.6m-197.5 66.4c-5 0-10.1-.3-15.6-.8-64.3-6.2-61.3-37.1-59.9-51.9 2-20.9 9.8-40.3 53.2-40.3 4.9 0 10.1.3 15.5.8 23.1 2.2 40.3 8.2 49.9 17.2 5.3 4.9 12 13.9 10 34.8-1.9 20.9-9.7 40.2-53.1 40.2m509.7-317.3C684.5 123.6 642.5 74.1 573 49.1c-64.5-23.3-152.4-24.7-261.4-4.6C25.4 97.4-13.1 225.9 4.9 324.4c9.8 53.5 35.5 94.8 76.3 122.7 1.2.8 2.5 1.2 3.8 1.6-.6 3-1.3 5.9-1.6 9.2-4.9 51.1 27.2 78.3 86.3 84 6.4.6 12.5.9 18.3.9 11 0 21-1.3 29.9-3.5 8 13.7 15.7 33.4 9.4 52.9-6.7 20.2-27.4 37.7-61.6 51.8-7.5 3.1-11 11.7-8 19.2 2.3 5.6 7.8 9.1 13.5 9.1 1.9 0 3.8-.3 5.6-1.1 42.5-17.5 68.8-41 78.3-69.8 7.5-22.9 3.6-48.5-10.6-74.1 11.6-8.7 19.5-21.2 23.5-37.6 37.3-1 78.5-5.4 122.9-13.7 286.4-52.9 325-181.4 306.9-279.8" clip-rule="evenodd" style="fill: #019df4;"/></svg>
