<?xml version="1.0" encoding="UTF-8"?>
<svg xmlns="http://www.w3.org/2000/svg" viewBox="0 0 702.8 702.8"><path fill="#019df4" fill-rule="evenodd" d="M382.2 672.4c-9.1.3-20.2.3-30.2.3-72.2-1.2-307.6-28-307.6-322.3C44.4 56.7 278 31 349.4 30.1l22.5.2c-68.3 33.3-139.4 104-139.4 254 0 267.8 227.8 285 273.7 285.7 8.6 0 17.8 0 25.1-.3 23.2-.6 62.9-4 105.1-19.2-75.6 109.7-210.9 121.1-254.2 121.9m300.3-165.5c-4.8-4.4-11.9-5.2-17.6-2-51 28.9-105.9 34.3-134.4 35-7.2.3-16 .3-24 .3-57.2-.9-243.9-22.1-243.9-255.9 0-172.5 99.6-230 183.2-247.8 7-1.5 12-7.7 11.9-14.8-.1-7.1-5.3-13.2-12.3-14.5C424.2 3.3 402.8 1 381.3.5l-32-.3c-78.6 1-334.9 29.1-334.9 350.1 0 57.8 16.2 346.7 337.3 352.1 10.6 0 22 0 31.2-.3C435.1 701.2 611 685.8 686 524c2.8-5.8 1.3-12.8-3.5-17.1" clip-rule="evenodd" style="fill: #019df4;"/></svg>
