<?xml version="1.0" encoding="UTF-8"?>
<svg xmlns="http://www.w3.org/2000/svg" viewBox="0 0 702.8 702.8"><path fill="#019df4" fill-rule="evenodd" d="M682.8 507c-4.8-4.4-11.9-5.2-17.6-2-51.1 29-106.1 34.3-134.6 35-7.1.3-16 .3-24 .3-57.3-.8-244.1-22-244.1-256 0-172.6 99.7-230.1 183.3-248 8.1-1.7 13.2-9.7 11.5-17.8-1.3-5.9-6-10.5-11.9-11.6C416.6 1.6 393 .5 381.3.2l-32-.3C270.7 1 14.1 29.2 14.1 350.4c0 57.9 16.3 347.1 337.6 352.4 10.6 0 22 0 31.2-.3 52.2-.8 228.3-16.3 303.3-178.2 2.8-5.9 1.4-12.9-3.4-17.3" clip-rule="evenodd" style="fill: #019df4;"/></svg>
