<?xml version="1.0" encoding="UTF-8"?>
<svg xmlns="http://www.w3.org/2000/svg" viewBox="0 0 702.8 702.8"><path fill="#019df4" fill-rule="evenodd" d="M343.3 44.1c-74.5 2.3-285 33.4-285 306.4 0 281.6 224.9 307.3 293.9 308.4 9.6 0 20.3 0 29.3-.3 38.9-.7 155.4-10.3 229.2-98-33.6 9.3-63.8 11.7-82.9 12.1-7 .3-16.2.3-24.7.3-133.3-2.1-275.3-78.6-275.3-287.3C227.7 153 283.1 82 343.3 44.1m8.4 658.7C188.3 700 14.1 606.1 14.1 350.5 14.1 95.2 187.2 2.1 349.2 0l31.4.3c11.9.2 35.3 1.4 64.1 6.7 10.4 1.9 17.9 10.8 18.1 21.3.1 10.5-7.1 19.6-17.4 21.8-79.2 16.9-173.6 71.5-173.6 235.7 0 222.5 177.3 242.5 231.5 243.4 7.6 0 16.1 0 23.1-.2 27.3-.6 79.7-5.8 128.3-33.4 8.3-4.8 18.8-3.5 25.8 2.9 7.1 6.4 9.1 16.7 5.1 25.4-75.2 162.5-251.1 177.9-303.2 178.8-9 .1-20.2.1-30.7.1" clip-rule="evenodd" style="fill: #019df4;"/></svg>
