<?xml version="1.0" encoding="UTF-8"?>
<svg xmlns="http://www.w3.org/2000/svg" viewBox="0 0 702.8 702.8"><path fill="#019df4" fill-rule="evenodd" d="M666.8 560c-6 7.1-16.5 10.9-31.2 11.1-55.1.9-574.5 0-580 0-6-.5-11.7-3-16.1-7.1-6.7-6.6-10.1-17.4-10.1-32.2V198.2L290 363.5c1.5 1 24.3 17.4 56 17.4 16 0 34.4-4.2 53.3-16.7l274.1-166.5-.3 336.5c0 .1 2.4 15.5-6.3 25.8m-611-427.7l592.1.1c3.7.1 21.2 2.3 24.7 31.5l-289 175.6c-39.6 25.9-74.9 1.4-77.1-.1L29.6 163.7c.7-7.8 2.9-18.6 9.1-25.1 4.1-4.2 9.7-6.3 17.1-6.3m646.4 399.5l.5-360.5c-1.5-54.9-36.1-67.4-54.8-68.1L55.8 103c-15.5 0-28.9 5.4-38.5 15.6C-1.4 138.4-.1 169 .1 171.6v360.1c0 23 6.4 40.9 18.9 53.1 9.9 9.6 23.1 15.2 36.9 15.5 3.5 0 234 .4 404.6.4 86.2 0 157-.1 175.6-.4 23.8-.4 41.8-7.8 53.4-21.9 16.9-20.4 13-46.3 12.7-46.6" clip-rule="evenodd" style="fill: #019df4;"/></svg>
