<?xml version="1.0" encoding="UTF-8"?>
<svg xmlns="http://www.w3.org/2000/svg" viewBox="0 0 702.8 702.8"><path fill="#019df4" fill-rule="evenodd" d="M654.9 549.5c-5.5 6.5-16.8 8-25.2 8.2-54 .9-562.7-.1-568.3 0-4-.5-7.7-2.2-10.6-4.9-6.4-6.2-7.7-17.7-7.7-26.2v-311L287 368.9c1.5 1.1 25.8 18.3 59.3 18.3 16.8 0 36-4.4 55.8-17.3l257.6-155.2-.4 311.9.3 3.4c-.1.1 1.6 12.2-4.7 19.5M61.8 145.7l580.6.1c.5 0 12.2.4 16.1 19.7L379.1 333.9c-34.5 22.5-65.5 1.4-67.8-.3L43.9 165.5c.9-5.8 2.8-12.2 6.4-16 1.8-1.7 4.7-3.8 11.5-3.8m640.5 379.5l.5-349c-1.6-61.1-43.7-74.1-60.9-73.1l-580-.1c-17.2 0-32.1 6-42.9 17.4C-1.4 141.8 0 174.3.2 176.7v349.8c0 24.3 6.9 43.4 20.6 56.7 17.5 17 39.4 17.6 41.1 17.1 13.8 0 232.7.5 396 .5 84.5 0 154.1-.1 172.6-.5 31.8-.5 49-13.3 57.8-23.8 16.2-19.6 15-43.6 14-51.3" clip-rule="evenodd" style="fill: #019df4;"/></svg>
