<?xml version="1.0" encoding="UTF-8"?>
<svg xmlns="http://www.w3.org/2000/svg" viewBox="0 0 702.8 702.8"><path fill="#019df4" fill-rule="evenodd" d="M701.7 524.9c.9 7.7 2.3 31.7-14 51.3-8.8 10.6-26 23.3-57.7 23.9-18.5.3-88 .4-172.4.4-163 0-381.6-.4-395.4-.4-2.2.1-23.6-.1-41.1-17.1C7.5 569.7.5 550.7.5 526.4v-338L287 369c1.5 1.1 25.7 18.2 59.2 18.2 16.8 0 36-4.3 55.8-17.3L702.2 187l-.5 337.9zM379 333.9c-34.5 22.5-65.4 1.4-67.7-.2L6.6 141.6c2.8-7.2 6.8-14.5 12.8-20.8 10.8-11.4 25.6-17.4 42.9-17.4l579.1.1c13.1.1 40.7 7.2 53.7 37.9L379 333.9z" clip-rule="evenodd" style="fill: #019df4;"/></svg>
