<?xml version="1.0" encoding="UTF-8"?>
<svg xmlns="http://www.w3.org/2000/svg" viewBox="0 0 702.8 702.8"><path fill="#019df4" fill-rule="evenodd" d="M262.4 77.8l51.3-8.9 7.7 49.3c.9 3.9 2.9 7.5 6 9.9 2.3 1.8 5.2 2.7 8.3 2.7.9 0 1.4 0 2.3-.3l51.6-9c7.8-1.2 12.9-8.9 11.8-17l-8-49.3 51.3-9 26.1 161.7-182.7 31.7-25.7-161.8zM479.2 342c7.7-1.5 13.2-9 11.8-17l-11.8-73.2 75.4-12.9 32.1 200.9-259 45.1L295.6 284l86.4-15.2 11.7 72.9c.6 3.9 2.6 7.5 5.7 9.9 2.3 1.8 5.5 2.7 8.3 2.7.9 0 1.5 0 2.3-.3l69.2-12zm155.2 159.3l-274.2 47.5c-2.3-8.1-4.9-15.5-8-22.7l244.9-42.4c10-1.8 18.9-7.7 25-16.7 6.6-9.6 9.2-21.8 7.5-34.1l-32.4-202c-2-12-8.3-22.7-17.5-29.6-8.6-6.5-18.9-9-28.9-7.2l-37.3 6.6-27-168c-1.7-9.9-6.3-18.5-13.5-24.5-7.8-6.5-17.8-9.2-27.5-7.7L247.6 34.8c-18.9 3.6-31.8 23.3-28.4 44.5L247 253c1.1 6.5 4 12 7.4 17-2 6.5-2.6 13.4-1.4 20.9l28.1 175.8c-8.3-1.8-17.5-2.4-26.9-2.1l-64-398.4c-1.4-9.3-8.3-16.8-17.2-18.5l-103-20c-11.5-2.4-23 5.7-25.3 17.9-2 12.3 5.7 23.9 17.2 26L150.3 89l61.3 383.2c-55.1 18.2-82.6 66.6-72.2 130.9 5.7 35.6 20.6 63.4 43.6 80.4 17.2 12.8 38.4 19.4 62.2 19.4 8 0 16.3-.9 25-2.4 59.4-10.5 93.8-50.2 95.2-107l276.2-48.1c11.8-1.8 19.5-13.4 17.5-25.7-1.8-12.4-12.9-20.8-24.7-18.4z" clip-rule="evenodd" style="fill: #019df4;"/></svg>
