<?xml version="1.0" encoding="UTF-8"?>
<svg xmlns="http://www.w3.org/2000/svg" viewBox="0 0 702.8 702.8"><path fill="#019df4" fill-rule="evenodd" d="M416.2 517.6v-50.7c111-7.8 217.9-35.7 286.6-74.5v258c0 28.9-23.3 52.4-52 52.4H52c-28.7 0-52-23.5-52-52.4V385.6c68.4 41.8 175.4 71.9 286.5 80.7v51.3c0 12.4 5.6 22.7 15.5 29.2 7.3 4.7 16.4 7.1 28.1 7.1h42.8c11.4 0 20.8-2.4 27.8-7.1 10-6.5 15.5-16.8 15.5-29.2zm67.2-338.4v-12.5c0-67.5-57.8-122.4-128.7-122.4h-6.6c-71 0-128.7 54.9-128.7 122.4v12.5h264zm167.4 0c28.7 0 52 23.5 52 52.4v108.7c-68.2 49.4-212.6 84.8-348.7 84.8-138.7 0-286.3-38.9-354.1-92.8V231.6c0-28.9 23.3-52.4 52.1-52.4h123.4v-12.5C175.5 74.8 253 .1 348.2.1h6.6c95.2 0 172.7 74.8 172.7 166.6v12.5h123.3zM330.4 509.7v-40.4h41.9v40.4h-41.9z" clip-rule="evenodd" style="fill: #019df4;"/></svg>
