<?xml version="1.0" encoding="UTF-8"?>
<svg xmlns="http://www.w3.org/2000/svg" viewBox="0 0 702.8 702.8"><path fill="#019df4" fill-rule="evenodd" d="M262.3 670.4c-25.5 4.6-46.4.9-61.9-10.7-15.6-11.5-25.5-30.8-30-57.3-8.5-53.5 14.1-86.5 65.5-95.6 7-1.2 13.8-1.5 19.9-1.5 16.8 0 30.8 4 42 12.5 15.5 11.6 25.5 30.9 30 57.4 8.5 53.4-14.2 86.4-65.5 95.2zm24.6-386.9c-.8-4.3 1.2-7.6 2.9-8l91.7-15.8 13.2 82.1c1.2 7.3 7.3 12.8 14.4 12.8.9 0 1.8-.3 2.3-.3l70.8-12.2c3.9-.9 7.3-3.2 9.7-6.4 2.4-3.2 3.3-7.4 2.3-11.3l-12.9-82.2 79.9-13.7h.6c2.3 0 4.4 3.6 4.7 6.1L599.9 441c.6 4.3-1.5 7.6-3.2 8l-271.3 47c-2.6.9-5-3.4-5.2-6.1l-33.3-206.4zm176.2 30.8l-42 7.3-10.5-66.9 41.7-7.3c-.1 0 10.8 66.9 10.8 66.9zm-212-248.6l60.5-10.1 9.4 57.7c.6 4 2.6 7.6 5.9 9.8 2.5 1.8 5.5 2.7 8.5 2.8h2.3l52.9-9.2c8.1-1.7 13.5-9.5 12-17.7l-9.1-56.8 59.9-10.1 28.2 179-201.2 33.6-29.3-179zm113.3-18.9l6.7 42.2-23.8 4.3-6.7-42.5c0-.1 23.8-4 23.8-4zm277.8 465.4L354.7 562c-2.9-13.7-7-26.9-13.2-37.9l260.1-45.2c18.2-3 30.2-22.3 27-42.8l-33.1-206.5c-1.4-9.3-6.1-17.9-13.2-24.1-7.3-6.1-16.7-9.2-25.8-7.3l-45.8 7.9c0-.6.3-1.2 0-1.5L482.2 26.9c-1.1-7.9-5.1-15-11.2-20.1-6.1-5.4-14.3-7.7-22.3-6.4L246.4 35.8c-7.3 1.2-13.8 5.4-17.9 11.6-5 7-6.8 15.9-5.3 24.7l28.5 177.5c.8 6.7 4.4 12.9 9.1 17.4-2.6 6.7-4.1 13.7-2.9 21.4l30.8 191.9c-12.9-4.3-27.6-5.9-43.1-4.9L179.2 61.1c-1.1-6.1-5.7-11-11.7-12.5L61.7 28.1c-8-1.4-15.6 4-17 12v.2c-1.5 8.1 3.7 16 11.7 17.7l95.4 18.6 64.9 403.8c-57.5 15.9-85.7 62.3-75.1 127.1 5.3 34.2 19.9 60.8 41.7 77 16.1 12.2 36.4 18.3 59.3 18.3 8 0 16.2-.6 24.4-2.2 33.2-5.8 58.7-20.7 74.3-43.6 12.1-17.5 18-39.7 17.3-64.5l288.6-50.4c8-1.2 13.3-9.2 12.1-17.5-1.6-8.4-9.2-14.2-17.1-12.4z" clip-rule="evenodd" style="fill: #019df4;"/></svg>
