<?xml version="1.0" encoding="UTF-8"?>
<svg xmlns="http://www.w3.org/2000/svg" viewBox="0 0 702.8 702.8"><path fill="#019df4" fill-rule="evenodd" d="M658.9 361.6C599.5 405.2 505.2 425 354.1 425c-154.9 0-251-20.9-310.1-67.5V231.6c0-4.4 3.8-8 8.2-8H651c4.4 0 7.9 3.6 7.9 8v130zm-328.3 148h41.9v-40.4h-41.9v40.4zm328.3 140.7c0 4.7-3.5 8.2-7.9 8.2H52.1c-4.4 0-8.2-3.5-8.2-8.2V411.1c56.5 33.6 132.9 51.6 242.7 56.6v49.8c0 12.4 5.6 22.7 15.3 29.2 7.3 4.7 16.7 7.1 28.1 7.1h42.7c11.7 0 20.8-2.4 28.1-7.1 10-6.5 15.5-16.8 15.5-29.2v-49.6c109.2-4.4 185.7-21.5 242.5-54v236.4zM219.3 166.6c0-67.2 58-122.4 128.9-122.4h6.7c70.9 0 128.6 55.2 128.6 122.4v12.7H219.3v-12.7zm431.6 12.7H527.4v-12.7C527.4 74.9 450.1 0 354.9 0h-6.7C253 0 175.4 74.9 175.4 166.6v12.7H52.1C23.4 179.3 0 202.6 0 231.5v418.8c0 28.9 23.4 52.5 52.1 52.5h598.8c28.7 0 51.9-23.5 51.9-52.5V231.5c0-28.9-23.1-52.2-51.9-52.2z" clip-rule="evenodd" style="fill: #019df4;"/></svg>
