<?xml version="1.0" encoding="UTF-8"?>
<svg xmlns="http://www.w3.org/2000/svg" viewBox="0 0 702.8 702.8"><path fill="#019df4" fill-rule="evenodd" d="M672.9 656.7c.1 8.7-6.9 15.9-15.7 16H45.7c-8.7 0-15.8-7.1-15.8-15.8V398.8c61 40.7 147.4 60.9 278.1 64.5l-.3.3v57.5c0 9 2.7 16.3 8.1 21.7 5.4 5.1 12.5 7.8 21.2 7.8h28.7c9 0 16.2-2.7 21.2-7.8 5.4-5.4 8.1-12.7 8.1-21.7v-57.5c129.8-3.3 216.5-22.3 277.8-61.5.1 0 .1 254.6.1 254.6zM344.8 463.9l20.4-.3v.3l-.3 56.6-27.2.6-.6-56.9 7.7-.3zM29.9 229.3c-.1-8.7 6.9-15.9 15.6-16H657c8.7 0 15.8 7 15.9 15.8V366c-60.4 45.8-155.5 66.8-307.2 68.1h-11.6c-162.7 0-262.6-22.6-324.2-72.6V229.3zm179.2-66.6c0-72.9 62.5-132.6 139.1-132.6h6.5c76.9 0 139.1 59.7 139.1 132.6v20.5H209.1v-20.5zm448 20.5H523.7v-20.5C523.7 73.2 448 0 354.6 0h-6.5c-93.1 0-169 73.2-169 162.7v20.5H45.7C20.6 183.2 0 203.7 0 229.3v427.4c0 25.7 20.6 46.1 45.7 46.1H657c25.4 0 45.8-20.4 45.8-46.1V229.3c0-25.6-20.3-46.1-45.7-46.1z" clip-rule="evenodd" style="fill: #019df4;"/></svg>
