<?xml version="1.0" encoding="UTF-8"?>
<svg xmlns="http://www.w3.org/2000/svg" viewBox="0 0 702.8 702.8"><path fill="#019df4" fill-rule="evenodd" d="M615.2 589.7c0 26.7-6.9 47.5-20.7 61.7-13.8 14.2-36.3 22.1-63.5 22.1H253c-6.8 0-12.2-5.9-19.1-20.9-5.3-11.4-23.8-49.2-43.5-89.1-32.8-66.6-73.6-149.5-97.8-201.2-8.4-17.9-6-35.3 6.4-45.2 6.3-5.1 14.1-7.8 22.3-7.8 8.9 0 17.8 3.2 25.1 9.1 9.3 7.4 18 18.6 29 37.4 6.6 11.3 20 16.8 32.7 13.3 12.6-3.5 21.4-15.1 21.4-28.3V77.5c2.8-43.2 28.1-48.1 47-48.1 30.8 0 47.1 16.5 47.1 47.8v103.6c0 16.1 12.9 29.2 29 29.3 2.6 0 5.3-.4 7.8-1.1 4.9-1.4 10.5-2.1 16.6-2.1 22.4 0 36.4 9.1 41.5 27.1 3.5 12.5 14.9 21.2 27.9 21.3 3.1 0 6.2-.5 9.2-1.5 5.4-1.8 11.7-2.7 18.6-2.7 22.5 0 36.5 9.2 41.6 27.4 2.1 7.7 7.3 14.2 14.3 18 7 3.8 15.2 4.5 22.8 2 5.4-1.8 11.7-2.7 18.5-2.7 29 0 43.7 14.9 43.7 44.3l.1 249.6zm-43.7-323.4c-10.1 0-19.4 1.4-27.6 4.2-8.5-30.6-33.6-48.8-69.5-48.8-10.1 0-19.4 1.5-27.7 4.2-8.6-30.3-33.6-48.3-69.4-48.3-8.8 0-17 1.1-24.4 3.2V77.1c0-47.6-29.2-77.1-76.2-77.1-45.2 0-72.9 27.5-76 75.6v1.5l-.1 263.7c-12.1-20.6-23-35-36-45.4-12.2-9.9-27.4-15.3-43.1-15.4-14.4 0-28.7 4.7-40.4 14.2-23.2 18.6-28.9 50.3-14.6 80.8 24.3 51.7 65.2 134.8 98 201.6 20.5 41.6 38.2 77.5 43.2 88.4 5.2 11.3 17.5 37.9 45.4 37.9h278c35.1 0 65-11 84.3-30.9 19.2-19.8 28.9-47.5 28.9-82.1V340c-.1-45.5-27.9-73.7-72.8-73.7z" clip-rule="evenodd" style="fill: #019df4;"/></svg>
