<?xml version="1.0" encoding="UTF-8"?>
<svg xmlns="http://www.w3.org/2000/svg" viewBox="0 0 702.8 702.8"><path fill="#019df4" fill-rule="evenodd" d="M113.1 600.7c-23.1 0-40-5.4-51.4-16.5C50.5 573.3 44.1 554 44.1 531V254.2c2.7-2.7 9.9-6 12.4-7.1 11-5.1 44-21.3 89.4-43.6l2-1c66-32.5 148.1-72.9 199-96.7 5.6-2.6 19.5-7.7 27.5 2.3 3.8 4.7 4.6 9.8 4.6 13.3 0 5.6-2.1 11.4-5.9 16.1-6.2 7.8-16.2 15.5-33.4 25.6a43.5 43.5 0 0 0-21.5 37.5c0 3.8.5 7.7 1.6 11.5 5.3 18.9 22.6 32 42.4 32h262.4c28.7 1.8 34.4 13.7 34.4 32.5 0 22.9-9.9 32.7-33.2 32.7H522c-13.7 0-26.8 6.4-35.1 17.3-5.8 7.6-8.9 16.9-8.9 26.3 0 3.9.6 7.9 1.7 11.8 1 3.7 1.6 7.9 1.6 12.7 0 22.8-11.6 26.1-16.5 27.5-11.5 3.3-21.1 11-26.7 21.5-3.4 6.4-5.1 13.3-5.1 20.4 0 4.6.7 9.2 2.2 13.7 1.3 4 2 8.7 2 14.1 0 22.9-11.2 26.1-16.7 27.6-11.6 3.2-21.3 11-26.9 21.5-3.5 6.4-5.2 13.4-5.2 20.5 0 4.6.7 9.2 2.2 13.7 1.3 3.9 2 8.6 2 13.9 0 20.7-8.6 29.2-29.6 29.2H113.1zm323.4-29.2c0-10.1-1.4-19.3-4.2-27.6 30.6-8.5 48.8-33.6 48.8-69.6 0-10.1-1.4-19.5-4.2-27.7 30.4-8.6 48.3-33.6 48.3-69.4 0-8.8-1.1-17-3.2-24.4h103.6c47.6 0 77.2-29.2 77.2-76.2 0-45.2-27.5-72.9-75.6-76h-1.6c-9.2 0-184.2-.1-263.6 0 20.6-12.1 35-23 45.4-36.1 10.2-12.8 15.4-28.1 15.4-43.1 0-14.4-4.7-28.6-14.2-40.4-18.6-23.2-50.3-28.9-80.8-14.6-51.7 24.3-134.8 65.2-201.6 98.1-41.6 20.5-77.5 38.2-88.4 43.2C26.5 212.9 0 225.2 0 253.1v278c0 35.1 11 65 30.9 84.3 19.9 19.2 47.5 28.9 82.2 28.9h249.8c45.4-.1 73.6-28 73.6-72.8z" clip-rule="evenodd" style="fill: #019df4;"/></svg>
