<?xml version="1.0" encoding="UTF-8"?>
<svg xmlns="http://www.w3.org/2000/svg" viewBox="0 0 702.8 702.8"><path fill="#019df4" fill-rule="evenodd" d="M600.7 589.7c0 23.1-5.4 39.9-16.5 51.4-10.9 11.2-30.2 17.6-53.2 17.6H254.2c-2.7-2.7-6-9.9-7.1-12.4-5.1-11-21.3-44-43.6-89.4l-1-2c-32.5-66-72.9-148.1-96.7-199-2.6-5.6-7.7-19.5 2.3-27.5 4.7-3.8 9.8-4.6 13.3-4.6 5.6 0 11.4 2.1 16.1 5.9 7.8 6.2 15.5 16.2 25.6 33.4a43.5 43.5 0 0 0 37.5 21.5c3.8 0 7.7-.5 11.5-1.6 18.9-5.3 32-22.6 32-42.4V78.2c1.8-28.7 13.7-34.4 32.5-34.4 22.9 0 32.7 9.9 32.7 33.2v103.6c0 13.7 6.4 26.8 17.3 35.1 7.6 5.8 16.9 8.9 26.3 8.9 4 0 7.9-.6 11.8-1.7 3.7-1 7.9-1.6 12.7-1.6 22.8 0 26.1 11.6 27.5 16.5 3.3 11.5 11 21.1 21.5 26.7 6.4 3.4 13.3 5.1 20.4 5.1 4.6 0 9.2-.7 13.7-2.2 4-1.3 8.7-2 14.1-2 22.9 0 26.1 11.2 27.6 16.7 3.2 11.6 11 21.3 21.5 26.9 6.4 3.5 13.4 5.2 20.5 5.2 4.6 0 9.2-.7 13.7-2.2 3.9-1.3 8.6-2 13.9-2 20.7 0 29.2 8.6 29.2 29.6v250.1zm-29.2-323.4c-10.1 0-19.3 1.4-27.6 4.2-8.5-30.6-33.6-48.8-69.6-48.8-10.1 0-19.5 1.4-27.7 4.2-8.6-30.4-33.6-48.3-69.4-48.3-8.8 0-17 1.1-24.4 3.2V77.2c0-47.6-29.2-77.2-76.2-77.2-45.2 0-72.9 27.5-76 75.6v1.6c0 9.2-.1 184.2 0 263.6-12.1-20.6-23-35-36.1-45.4-12.8-10.2-28.1-15.4-43.1-15.4-14.4 0-28.6 4.7-40.4 14.2-23.2 18.6-28.9 50.3-14.6 80.8 24.3 51.7 65.2 134.8 98.1 201.6 20.5 41.6 38.2 77.5 43.2 88.4 5.2 11.3 17.5 37.8 45.4 37.8h278c35.1 0 65-11 84.3-30.9 19.2-19.9 28.9-47.5 28.9-82.2V339.9c-.1-45.4-28-73.6-72.8-73.6z" clip-rule="evenodd" style="fill: #019df4;"/></svg>
