<?xml version="1.0" encoding="UTF-8"?>
<svg xmlns="http://www.w3.org/2000/svg" viewBox="0 0 702.8 702.8"><path fill="#019df4" fill-rule="evenodd" d="M436.5 571.5c0-10.1-1.4-19.3-4.2-27.6 30.6-8.5 48.8-33.6 48.8-69.6 0-10.1-1.5-19.4-4.2-27.7 30.3-8.6 48.3-33.6 48.3-69.4 0-8.8-1.1-17-3.2-24.4h103.6c47.6 0 77.2-29.2 77.2-76.2 0-45.2-27.5-72.9-75.6-76H362c20.6-12.1 35-23 45.4-36 10.3-12.8 15.4-28.1 15.4-43.1 0-14.4-4.7-28.6-14.2-40.4-18.6-23.2-50.3-28.9-80.8-14.6-51.7 24.3-134.8 65.2-201.6 98.1-41.6 20.5-77.6 38.2-88.4 43.2C26.4 213-.1 225.3-.1 253.2v278c0 35.1 11 65 30.9 84.3 19.8 19.2 47.5 28.9 82.2 28.9h249.8c45.5-.2 73.7-28 73.7-72.9z" clip-rule="evenodd" style="fill: #019df4;"/></svg>
