<?xml version="1.0" encoding="UTF-8"?>
<svg xmlns="http://www.w3.org/2000/svg" viewBox="0 0 702.8 702.8"><path fill="#019df4" fill-rule="evenodd" d="M449.5 1H172.3c-35 0-64.9 11-84.1 30.9C69 51.6 59.4 79.2 59.4 113.7v249.1c0 45.3 27.8 73.4 72.5 73.4 10.1 0 19.3-1.5 27.6-4.2 8.5 30.5 33.5 48.6 69.3 48.6 10.1 0 19.4-1.5 27.7-4.2 8.6 30.2 33.5 48.1 69.2 48.1 8.8 0 17-1.1 24.3-3.2v103.3c0 47.5 29.1 77 76 77 45.1 0 72.7-27.5 75.8-75.4 0-.5.1-1.1.1-1.6V361.8c12.1 20.5 22.9 34.9 35.9 45.3 12.8 10.2 28 15.3 43 15.3 14.4 0 28.6-4.7 40.3-14.1 23.1-18.5 28.8-50.2 14.5-80.5-24.2-51.6-65-134.5-97.8-201.1-20.4-41.5-38-77.3-43.1-88.1C489.6 27.4 477.4 1 449.5 1m0 29.3c6.7 0 12.1 5.8 19 20.9 5.2 11.2 22.9 47.2 43.4 88.8 32.7 66.5 73.4 149.3 97.5 200.5 8.4 17.9 6 35.2-6.4 45.1-6.3 5.1-14 7.8-22.3 7.8-8.8 0-17.8-3.2-25.1-9.1-9.2-7.4-17.9-18.5-29-37.3-6.6-11.3-20-16.7-32.6-13.3-12.6 3.5-21.3 15.1-21.3 28.2v262.5c-2.7 43.1-28.1 48.1-46.9 48.1-30.8 0-47.1-16.5-47.1-47.7V521.5c0-9.2-4.2-17.8-11.4-23.3s-16.6-7.3-25.3-4.8c-5.4 1.4-10.9 2.1-16.5 2-22.4 0-36.3-9.1-41.4-27-2.2-7.6-7.3-14-14.3-17.8-7-3.7-15.2-4.4-22.7-1.9-6 1.9-12.3 2.8-18.6 2.7-22.5 0-36.4-9.2-41.4-27.3-2.1-7.7-7.3-14.1-14.3-17.9-7-3.7-15.2-4.5-22.7-2-6 1.9-12.2 2.8-18.5 2.7-28.9 0-43.5-14.9-43.5-44.2v-249c0-26.7 6.9-47.4 20.6-61.5 13.7-14.2 36.2-22 63.4-22l277.4.1" clip-rule="evenodd" style="fill: #019df4;"/></svg>
