<?xml version="1.0" encoding="UTF-8"?>
<svg xmlns="http://www.w3.org/2000/svg" viewBox="0 0 702.8 702.8"><path fill="#019df4" fill-rule="evenodd" d="M449.8 0H171.9c-35.1 0-65.1 11-84.4 30.9C68.3 50.7 58.6 78.4 58.6 113v249.8c0 45.4 27.9 73.6 72.7 73.6 10.1 0 19.3-1.4 27.6-4.2 8.5 30.6 33.6 48.8 69.5 48.8 10.2 0 19.5-1.4 27.7-4.2 8.7 30.3 33.6 48.3 69.4 48.3 8.8 0 17-1.1 24.4-3.2v103.6c0 47.6 29.2 77.2 76.2 77.2 45.2 0 72.9-27.6 76-75.6 0-.5.1-1.1.1-1.6V361.9c12.1 20.6 22.9 35 36 45.4 12.8 10.2 28.1 15.4 43.1 15.4 14.4 0 28.6-4.7 40.4-14.2 23.2-18.6 28.9-50.3 14.6-80.7-24.3-51.7-65.2-134.9-98-201.6-20.5-41.6-38.2-77.5-43.2-88.4C490 26.5 477.7 0 449.8 0" clip-rule="evenodd" style="fill: #019df4;"/></svg>
