<?xml version="1.0" encoding="UTF-8"?>
<svg xmlns="http://www.w3.org/2000/svg" viewBox="0 0 702.8 702.8"><path fill="#019df4" fill-rule="evenodd" d="M113.1 615.2c-26.7 0-47.5-6.9-61.7-20.7-14.2-13.8-22.1-36.3-22.1-63.5V253c0-6.8 5.9-12.2 20.9-19.1 11.4-5.3 49.2-23.8 89.1-43.5 66.6-32.8 149.5-73.6 201.2-97.8 17.9-8.4 35.3-6 45.2 6.4 5.1 6.3 7.8 14.1 7.8 22.3 0 8.9-3.2 17.8-9.1 25.1-7.4 9.3-18.6 18-37.4 29-11.3 6.6-16.8 20-13.3 32.7 3.5 12.6 15.1 21.4 28.3 21.4h263.3c43.2 2.8 48.1 28.1 48.1 47 0 30.8-16.5 47.1-47.8 47.1H522c-16.1 0-29.2 12.9-29.3 29 0 2.6.4 5.3 1.1 7.8 1.4 4.9 2.1 10.5 2.1 16.6 0 22.4-9.1 36.4-27.1 41.5-12.5 3.5-21.2 14.9-21.3 27.9 0 3.1.5 6.1 1.5 9.2 1.8 5.4 2.7 11.7 2.7 18.6 0 22.5-9.2 36.5-27.4 41.6-7.7 2.1-14.2 7.3-18 14.3-3.8 7-4.5 15.2-2 22.8 1.8 5.4 2.7 11.7 2.7 18.5 0 29-14.9 43.7-44.3 43.7l-249.6.1zm323.4-43.7c0-10.1-1.4-19.4-4.2-27.6 30.6-8.5 48.8-33.6 48.8-69.5 0-10.1-1.5-19.4-4.2-27.7 30.3-8.6 48.3-33.6 48.3-69.4 0-8.8-1.1-17-3.2-24.4h103.6c47.6 0 77.2-29.2 77.2-76.2 0-45.2-27.5-72.9-75.6-76h-1.5l-263.7-.2c20.6-12.1 35-23 45.4-36 10.2-12.9 15.4-28.1 15.4-43.1 0-14.4-4.7-28.7-14.2-40.4-18.6-23.2-50.3-29-80.7-14.6-51.7 24.3-134.8 65.2-201.6 98-41.6 20.5-77.5 38.2-88.4 43.2C26.5 212.8 0 225.1 0 253v278c0 35.1 11 65 30.9 84.3 19.8 19.2 47.5 28.9 82.1 28.9h249.8c45.5 0 73.7-27.8 73.7-72.7z" clip-rule="evenodd" style="fill: #019df4;"/></svg>
