<?xml version="1.0" encoding="UTF-8"?>
<svg xmlns="http://www.w3.org/2000/svg" viewBox="0 0 702.8 702.8"><path fill="#019df4" fill-rule="evenodd" d="M571.5 266.3c-10.1 0-19.3 1.4-27.6 4.2-8.5-30.6-33.6-48.8-69.6-48.8-10.1 0-19.4 1.5-27.7 4.2-8.6-30.3-33.6-48.3-69.4-48.3-8.8 0-17 1.1-24.4 3.2V77.2c0-47.6-29.2-77.2-76.2-77.2-45.2 0-72.9 27.5-76 75.6v265.2c-12.1-20.6-23-35-36-45.4-12.8-10.3-28.1-15.4-43.1-15.4-14.4 0-28.6 4.7-40.4 14.2-23.2 18.6-28.9 50.3-14.6 80.8 24.3 51.7 65.2 134.8 98.1 201.6 20.5 41.6 38.2 77.6 43.2 88.4 5.2 11.4 17.5 37.9 45.4 37.9h278c35.1 0 65-11 84.3-30.9 19.2-19.8 28.9-47.5 28.9-82.2V340c-.2-45.5-28-73.7-72.9-73.7z" clip-rule="evenodd" style="fill: #019df4;"/></svg>
