<?xml version="1.0" encoding="UTF-8"?>
<svg xmlns="http://www.w3.org/2000/svg" viewBox="0 0 702.8 702.8"><path fill="#019df4" fill-rule="evenodd" d="M449.8 0h-278c-35.1 0-65.1 11-84.4 30.9-19.2 19.8-28.9 47.5-28.9 82.2v249.7c0 45.4 27.9 73.7 72.7 73.7 10.1 0 19.3-1.4 27.6-4.2 8.5 30.6 33.6 48.8 69.6 48.8 10.1 0 19.5-1.4 27.7-4.2 8.6 30.3 33.6 48.3 69.4 48.3 8.8 0 17-1.1 24.4-3.2v103.6c0 47.6 29.2 77.2 76.2 77.2 45.2 0 72.9-27.6 76-75.6.1-.5.1-1 .1-1.6 0-9.2.1-184.1 0-263.6 12.1 20.6 22.9 35 36 45.4 12.8 10.2 28.1 15.4 43.2 15.4 14.4 0 28.6-4.7 40.4-14.1 23.2-18.6 28.8-50.3 14.6-80.8-24.3-51.7-65.2-134.8-98.1-201.6-20.5-41.6-38.2-77.6-43.2-88.4C490 26.5 477.7 0 449.8 0m-1.2 44c2.7 2.8 6 9.9 7.1 12.5 5.3 11.5 23.1 47.6 43.6 89.4 32.8 66.6 73.6 149.5 97.7 200.9 2.6 5.6 7.7 19.5-2.3 27.5-4.7 3.8-9.8 4.6-13.2 4.6-5.6 0-11.4-2.1-16.1-5.9-7.8-6.2-15.5-16.2-25.6-33.4-8-13.6-22.4-21.5-37.4-21.5-3.8 0-7.7.5-11.6 1.6-18.9 5.2-32 22.6-32 42.4v243.1l.1 19.2c-1.9 28.7-13.8 34.5-32.5 34.5-22.9 0-32.6-9.9-32.6-33.2V522c0-13.8-6.4-26.7-17.2-35-7.7-5.9-16.9-9-26.4-9-3.9 0-7.9.5-11.7 1.6-3.7 1-7.9 1.6-12.7 1.6-22.9 0-26.1-11.5-27.5-16.5-3.3-11.5-11-21.2-21.5-26.8-6.3-3.4-13.3-5.1-20.3-5.1-4.6 0-9.2.7-13.7 2.2-4 1.3-8.7 2-14 2-23 0-26.2-11.7-27.6-16.7-3.2-11.6-11-21.3-21.5-27-6.4-3.4-13.4-5.2-20.5-5.2-4.6 0-9.2.7-13.6 2.2-4 1.3-8.7 2-14 2-20.7 0-29.1-8.6-29.1-29.7V112.9c0-23.1 5.4-39.9 16.5-51.4 10.9-11.2 30.2-17.7 53.2-17.7h276.4" clip-rule="evenodd" style="fill: #019df4;"/></svg>
