<?xml version="1.0" encoding="UTF-8"?>
<svg xmlns="http://www.w3.org/2000/svg" viewBox="0 0 702.8 702.8"><path fill="#019df4" fill-rule="evenodd" d="M657.9 627.6l-115-18.9V48.8l115 18.9v559.9zm-329 21.9l-117.4-38.1V53.2l117.4 38.1v558.2zM684 26.6L524.2.3c-.5-.1-1.1.1-1.6.1-.7-.1-1.3-.4-2.1-.4-1.5 0-2.8.5-4.2.8-.8.2-1.7-.1-2.5.2L351.5 51.5 196 1c-.8-.2-1.7 0-2.6-.2-1.4-.3-2.8-.9-4.3-.9-.7 0-1.3.3-1.9.3-.5.1-1-.2-1.6-.1L18.9 26.4C8 28.1 0 37.5 0 48.6V654c0 6.6 2.9 12.8 7.8 17 5 4.3 11.6 6.1 18.1 5.1l161.4-25.5 157.2 51.1c2.2.7 4.5 1 6.9 1 2.3 0 4.5-.4 6.7-1l164.1-51.1 154.5 25.5c6.5 1 13.1-.7 18.2-5 5-4.3 8-10.5 8-17.1V48.7c-.1-11-8.1-20.3-18.9-22.1z" clip-rule="evenodd" style="fill: #019df4;"/></svg>
