<?xml version="1.0" encoding="UTF-8"?>
<svg xmlns="http://www.w3.org/2000/svg" viewBox="0 0 702.8 702.8"><path fill="#019df4" fill-rule="evenodd" d="M673.5 644l-134.3-22.1v-590L673.5 54v590zM29.3 54.1l141.3-22.3v590L29.3 644.1v-590zM366 79.3l143.9-44.8v589L366 668.2V79.3zM199.9 34.8l136.9 44.4V668l-136.9-44.4V34.8zm490.6-7.7L526.9.2c-.4-.1-.7.1-1 .1-.5 0-.8-.3-1.3-.3-1 0-1.8.4-2.7.5-.5.1-1.1-.1-1.6.1L351.5 53.1 189.7.7c-.5-.2-1.1 0-1.6-.1-1-.2-1.9-.6-2.9-.6-.4 0-.8.2-1.3.3-.3 0-.7-.1-1-.1L12.4 27.1C5.2 28.2 0 34.4 0 41.6v619.6c0 8.1 6.6 14.6 14.6 14.6.8 0 1.5-.1 2.3-.2L184 649.3 346.8 702c2.9 1 6 1 8.8.1l169.9-52.8 160.2 26.4c7.9 1.3 15.5-4 16.8-11.9.1-.8.2-1.7.2-2.5V41.6c.1-7.2-5.1-13.3-12.2-14.5z" clip-rule="evenodd" style="fill: #019df4;"/></svg>
