<?xml version="1.0" encoding="UTF-8"?>
<svg xmlns="http://www.w3.org/2000/svg" viewBox="0 0 702.8 702.8"><path fill="#019df4" fill-rule="evenodd" d="M657.9 627.6L543 608.7V48.9l114.9 18.9v559.8zM44.9 67.9l121.8-19.2v559.9L44.9 627.9v-560zm328.9 23.7l124.3-38.7v558.4L373.8 650V91.6zM211.5 53.3L329 91.4v558.1l-117.5-38.1V53.3zM684 26.6L524.2.3c-.5-.1-1.1.1-1.6.1-.7-.1-1.3-.4-2-.4-1.5 0-2.8.5-4.2.8-.8.2-1.7-.1-2.5.2L351.5 51.5 196 1.1c-.9-.3-1.7 0-2.6-.2-1.5-.3-2.8-.9-4.4-.9-.7 0-1.3.3-1.9.4-.5.1-1-.2-1.6-.1L18.8 26.6C7.9 28.3-.1 37.8-.1 48.8V654c0 6.6 2.9 12.8 7.9 17 5 4.3 11.6 6.1 18.1 5.1l161.4-25.5 157.2 51c2.2.7 4.6 1.1 6.9 1.1 2.2 0 4.5-.4 6.7-1l164.1-51.1 154.5 25.5c6.5 1 13.1-.8 18.2-5 5-4.3 7.9-10.5 7.9-17.1V48.7c0-11-8-20.3-18.8-22.1z" clip-rule="evenodd" style="fill: #019df4;"/></svg>
