<?xml version="1.0" encoding="UTF-8"?>
<svg xmlns="http://www.w3.org/2000/svg" viewBox="0 0 702.8 702.8"><path fill="#019df4" fill-rule="evenodd" d="M541.2 656.8c0 6.2-3.4 11.5-9.1 14.3-5.6 2.8-12 2.1-15.4-.3L385.1 541c-9-8.8-20.8-13.3-32.8-13.3-11.8 0-23.8 4.4-32.9 13.3L188.6 669.6c-5 3.7-11.3 4.3-16.9 1.6-5.7-2.8-9-8.1-9-14.3v-611c0-8.8 7.2-15.9 16.1-15.9h346.4c8.9 0 16.1 7.1 16.1 15.9v610.9zM525.1 0H178.7c-25.6 0-46.4 20.6-46.4 45.8v611c0 17.6 9.9 33.4 25.9 41.2 16 7.8 34.7 6 50.3-6l132.2-129.7c6.5-6.3 16.8-6.3 23-.2l133.2 131.1c8.3 6.3 18.2 9.5 28.2 9.5 7 0 14-1.6 20.7-4.8 16-7.8 25.9-23.6 25.9-41.2v-611c-.2-25.1-21-45.7-46.6-45.7z" clip-rule="evenodd" style="fill: #019df4;"/></svg>
