<?xml version="1.0" encoding="UTF-8"?>
<svg xmlns="http://www.w3.org/2000/svg" viewBox="0 0 702.8 702.8"><path fill="#019df4" fill-rule="evenodd" d="M352.3 515.6c13.6 0 27 5.1 37.2 15.4l126.8 126.7c1.1.7 4.1-.4 5.6-1.2 2.6-1.2 4.3-3.8 4.2-6.7v-597c0-4.1-3.2-7.4-7.3-7.5H185c-4.1 0-7.4 3.2-7.4 7.3v597.2c0 4 2.6 6 4.2 6.7 1.6.8 4.7 1.8 7.8-.7l125.2-124.9c10.1-9.8 23.5-15.3 37.5-15.3m166.3 187.2c-11.3 0-22.5-3.7-32-11L357.5 563.1c-3-3-7.7-2.9-10.8.2L219.4 689.9c-18.2 14.2-39.5 16.3-57.7 7.3-18.1-8.9-29.5-27.3-29.4-47.4v-597C132.3 23.7 155.9 0 185 0h333.8c29 0 52.7 23.7 52.7 52.9v596.9c0 20.3-11.3 38.4-29.5 47.4-7.5 3.8-15.4 5.6-23.4 5.6" clip-rule="evenodd" style="fill: #019df4;"/></svg>
