<?xml version="1.0" encoding="UTF-8"?>
<svg xmlns="http://www.w3.org/2000/svg" viewBox="0 0 704.4 702.8"><path fill="#019df4" d="M351.6 701.4c-1.4 0-2.7 0-3.9-.1h-.5c-4.4-.2-8.8-.9-13.1-1.9-15.5-3.5-30.2-10.1-43.1-19.5-12.8-9.2-29.4-24.9-40.8-36.6-57.9-59.7-91.7-102-134-167.8-53-82-89.3-163.5-108-242-19.6-82.5-3.9-150.7 44.4-192C80.6 17.4 119 3 160.7.8 205-1.4 251 9.9 293.8 33.7 308.9 42 324.4 51 341.4 61c6.7 3.7 14.9 3.8 21.6.1 16.9-10.1 32.5-19 47.7-27.4C453.4 9.9 499.5-1.4 543.8.8c41.7 2.1 80 16.6 108.1 40.6 48.2 41.3 63.9 109.5 44.3 192.1-18.7 78.4-55 159.8-107.9 242-42.1 65.4-75.8 107.6-133 166.7-.3.4-.6.7-.9 1.1-11.3 11.7-28 27.5-40.8 36.6-12.9 9.4-27.6 16-43.1 19.5-4.3 1-8.7 1.6-13.1 1.9h-.5c-1.4.1-2.9.1-4.6.1h-.7zM171.9 20.6c-3.4 0-6.8.1-10.2.3-37.2 1.9-71.4 14.6-96.1 35.8C44.2 75 30.2 99.4 23.9 129.1c-6.2 29.2-4.9 62.8 3.9 99.8C46 305.2 81.4 384.5 133 464.7 175 530 207 570 264.5 629.4c10.7 11.1 26.4 25.9 38.1 34.3 10.7 7.8 22.8 13.3 35.7 16.1l.3.1c3.2.8 6.5 1.2 9.8 1.4H348.7c.9 0 2.1.1 3.4.1h.1c1.3 0 2.4 0 3.4-.1h.4c3.3-.2 6.6-.6 9.8-1.4l.3-.1c12.9-2.9 25-8.4 35.7-16.1 11.3-8.2 26.4-22.3 37.1-33.3.3-.4.6-.7.9-1 57.6-59.4 89.5-99.4 131.6-164.7 51.7-80.3 87.1-159.6 105.3-235.8 8.8-37 10.1-70.6 3.9-99.8-6.3-29.7-20.4-54.1-41.8-72.4-24.7-21.2-58.8-33.9-96.1-35.8-40.6-2.1-82.9 8.4-122.4 30.3-15 8.3-30.5 17.2-47.3 27.2l-.2.1c-12.9 7.3-28.8 7.2-41.6-.1l-.1-.1c-16.8-10-32.2-18.8-47.1-27.1-36.1-20.1-74.7-30.6-112.1-30.6z" style="fill: #019df4;"/></svg>
