<?xml version="1.0" encoding="UTF-8"?>
<svg xmlns="http://www.w3.org/2000/svg" viewBox="0 0 703.8 702.8"><path fill="#019df4" d="M352.6 701.4h-.6c-1.8 0-3.4 0-4.9-.1h-.6c-4.8-.3-9.6-.9-14.3-2-16.4-3.7-32-10.6-45.6-20.5-16.3-11.8-35.5-31.2-41-36.8-56.7-58.5-89.8-100-131.3-164.4-51.9-80.6-87.6-160.7-106-238-20-84-3.5-153.7 46.3-196.5C83.5 18.4 123 3.5 165.6 1.3c44.9-2.3 91.5 9.1 134.7 33.1 14.7 8.1 29.8 16.9 46.3 26.6 3.3 1.8 7.3 1.8 10.7 0 16.4-9.8 31.6-18.5 46.4-26.7 43.1-23.9 89.7-35.3 134.6-33 42.7 2.2 82.1 17.1 111 41.9 49.8 42.7 66.3 112.5 46.3 196.5-18.4 77.2-54 157.2-106 237.9-41.1 63.9-74 105.2-129.9 162.9-.4.5-.8 1-1.3 1.5-5.5 5.7-24.6 25-40.9 36.7-13.6 9.9-29.2 16.9-45.6 20.5-4.7 1.1-9.5 1.8-14.3 2h-.6c-1.5.2-2.9.2-4.4.2zm-.6-40H355.1c2.6-.1 5.1-.5 7.6-1.1l.6-.1c11.1-2.5 21.6-7.2 30.8-14 10.3-7.4 24.5-20.8 34.2-30.7.4-.5.8-1 1.2-1.4 55.3-57 86-95.5 126.4-158.2 49.5-77 83.4-152.9 100.8-225.6 8.2-34.4 9.5-65.5 3.8-92.3-5.7-26.6-18.2-48.3-37.1-64.6-22.3-19.1-53.2-30.5-87-32.3-37.6-1.8-76.8 7.9-113.4 28.3-14.5 8-29.4 16.6-45.6 26.2l-.4.2c-15.7 8.8-34.9 8.8-50.6-.2l-.2-.1c-16.2-9.6-31-18.2-45.4-26.1-36.5-20.4-75.7-30.1-113.1-28.2-33.9 1.7-64.8 13.2-87 32.3-19 16.3-31.5 38-37.2 64.6-5.7 26.8-4.5 57.9 3.7 92.3C64.6 303.2 98.4 379.1 147.9 456c40.4 62.7 71.1 101.1 126.4 158.2 9.6 10 24.8 24.3 35.6 32.1 9.2 6.7 19.7 11.5 30.8 14l.6.1c2.5.6 5.1.9 7.6 1.1h3.1v-.1z" style="fill: #019df4;"/></svg>
