<?xml version="1.0" encoding="UTF-8"?>
<svg xmlns="http://www.w3.org/2000/svg" viewBox="0 0 702.8 702.8"><path fill="#019df4" fill-rule="evenodd" d="M20.7 128.4C9.3 128.4 0 119.3 0 108.1c0-11.2 9.3-20.3 20.7-20.3h661.5c11.4 0 20.7 9.1 20.7 20.3 0 11.2-9.3 20.3-20.7 20.3H20.7zm661.4 202.7c11.4 0 20.7 9.1 20.7 20.3 0 11.2-9.3 20.3-20.7 20.3H20.7C9.3 371.7 0 362.6 0 351.4c0-11.2 9.3-20.3 20.7-20.3h661.4zm0 243.3c11.4 0 20.7 9.1 20.7 20.3 0 11.2-9.3 20.3-20.7 20.3H20.7C9.3 615 0 605.9 0 594.7c0-11.2 9.3-20.3 20.7-20.3h661.4z" clip-rule="evenodd" style="fill: #019df4;"/></svg>
