<?xml version="1.0" encoding="UTF-8"?>
<svg xmlns="http://www.w3.org/2000/svg" viewBox="0 0 702.8 702.8"><path fill="#019df4" fill-rule="evenodd" d="M30.1 146.4C13.7 146.6.3 133.5 0 117.1 0 101 13.5 87.8 30.1 87.8h642.5c16.6 0 30.1 13.1 30.1 29.3-.3 16.4-13.7 29.5-30.1 29.3H30.1zm642.6 175.7c16.6 0 30.1 13.1 30.1 29.3-.2 16.4-13.7 29.5-30.1 29.3H30.1C13.7 380.9.2 367.8 0 351.4c0-16.2 13.5-29.3 30.1-29.3h642.6zm0 234.3c16.6 0 30.1 13.1 30.1 29.3-.2 16.4-13.7 29.5-30.1 29.3H30.1C13.7 615.2.2 602.1 0 585.7c0-16.2 13.5-29.3 30.1-29.3h642.6z" clip-rule="evenodd" style="fill: #019df4;"/></svg>
