<?xml version="1.0" encoding="UTF-8"?>
<svg xmlns="http://www.w3.org/2000/svg" viewBox="0 0 702.8 702.8"><path fill="#019df4" fill-rule="evenodd" d="M384.9 161H43v26h295.5c11.9 0 21.5 9.8 21.5 22v120.1c0 12.1-9.6 22-21.5 22H43v44.6h611.5c2.4-6.4 4.2-12.9 4.9-19.8.7-7.3.4-14.8-1.1-22.3H406.4c-11.9 0-21.5-9.8-21.5-22V161zm253.4 148.6c-5.9-8.4-12.8-16.8-21.1-25.3C538.5 204 468.5 176 428 166.3v143.3h210.3zm-45.7 157.2c8-5.3 20.6-14.8 32.7-27.3H43v31.6c375 0 497.2.6 532.5.9h.3c6 0 11.7-1.7 16.8-5.2zM105.2 307.2V231H43v76.2h62.2zm43 0H215V231h-66.8v76.2zm109.8 0h59V231h-59v76.2zM6.3 508.6c-4-4.1-6.3-9.7-6.3-15.5V209 139.1c0-12.1 9.6-22 21.5-22h368.9c4.1-.1 121-3 257.1 136.1 40.5 41.4 58.9 84.2 54.6 127.1-6.1 61.1-56.5 103.4-85.9 123.2-12.1 8.1-26.1 12.4-40.4 12.4h-.6c-36-.3-162-.9-553.7-.9-5.7 0-11.1-2.3-15.2-6.4zm674.9 33.2c11.9 0 21.5 9.8 21.5 22s-9.6 22-21.5 22H21.5C9.6 585.8 0 576 0 563.8s9.6-22 21.5-22h659.7z" clip-rule="evenodd" style="fill: #019df4;"/></svg>
