<?xml version="1.0" encoding="UTF-8"?>
<svg xmlns="http://www.w3.org/2000/svg" viewBox="0 0 702.8 702.8"><path fill="#019df4" fill-rule="evenodd" d="M638.3 309.6c-5.9-8.4-12.8-16.8-21.1-25.3C538.5 204 468.5 176 428 166.2v143.4h210.3zm-45.7 157.2c8-5.4 20.6-14.9 32.8-27.3H43v31.6c375 0 497.2.6 532.5.9h.3c6 0 11.7-1.7 16.8-5.2zM43 307.2h71.5V205.5H43v101.7zm121.1 0H241V205.5h-76.9v101.7zm121.9 0h77V205.5h-77v101.7zM6.3 508.6c-4-4.1-6.3-9.7-6.3-15.5V139.1c0-12.1 9.6-22 21.5-22h368.9c4.1-.1 121-3 257.1 136.1 40.5 41.4 58.9 84.2 54.6 127.1-6.1 61.1-56.5 103.4-85.9 123.2-12.1 8.1-26.1 12.4-40.4 12.4h-.6c-36-.3-162-.9-553.7-.9-5.7 0-11.1-2.3-15.2-6.4zm674.9 33.2c11.9 0 21.5 9.8 21.5 22s-9.6 22-21.5 22H21.5C9.6 585.8 0 576 0 563.8s9.6-22 21.5-22h659.7z" clip-rule="evenodd" style="fill: #019df4;"/></svg>
