<?xml version="1.0" encoding="UTF-8"?>
<svg xmlns="http://www.w3.org/2000/svg" viewBox="0 0 702.8 702.8"><path fill="#019df4" fill-rule="evenodd" d="M391 121.5H29.2v34.6H348c8.1 0 14.6 7.9 14.6 17.6v158.7c0 9.8-6.5 17.6-14.6 17.6H29.3v71.2h634.5c.2 0 .4.1.6.1 3.7-10.1 6.5-20.6 7.5-31.9 1.1-12 0-24.2-2.7-36.5H406.8c-8.1 0-14.6-7.8-14.6-17.6V121.5c-.6.1-1.1.1-1.2 0zm265.7 196.2c-7.4-15-17.4-30.2-30.1-45.5-87.1-104.9-164.4-136.7-205.2-146.4v191.8h235.3zm-56.3 187.6c11-8.7 30-25.9 45.8-49H29.3v55.5c384.3 0 512.3.8 549.8 1.1 7.3.4 14.9-2.3 21.3-7.6zM29.3 314.8h85.1V191.3H29.3v123.5zm114.2 0H225V191.3h-81.4v123.5zm110.7 0h79.2V191.3h-79.2v123.5zM0 438.8c0-.1.1-.3.1-.4V332.7c0-.1-.1-.2-.1-.3V173.7v-69.8c0-4.7 1.5-9.2 4.3-12.5 2.7-3.3 6.4-5.1 10.3-5.1h375.9c4 0 120.4-3.3 256.8 161C687 295.1 705 344.1 700.9 393c-5.9 69.8-55.4 118.8-84.3 141.7-11.1 8.8-23.9 13.5-37.2 13.5h-.5c-37.9-.4-168.7-1.1-564.2-1.1-8.1 0-14.6-7.9-14.6-17.6v-90.4s-.1-.2-.1-.3zm688.2 142.5c8.1 0 14.6 7.9 14.6 17.6 0 9.7-6.5 17.6-14.6 17.6H14.6c-8.1 0-14.6-7.9-14.6-17.6 0-9.7 6.5-17.6 14.6-17.6h673.6z" clip-rule="evenodd" style="fill: #019df4;"/></svg>
