<?xml version="1.0" encoding="UTF-8"?>
<svg xmlns="http://www.w3.org/2000/svg" viewBox="0 0 702.8 702.8"><path fill="#019df4" fill-rule="evenodd" d="M542.7 546.5H160.3c-1.6 0-3.2-1.4-3.4-1.5V438.2v-.2V351.9c0-.1.1-.2.1-.4 0-.1-.1-.2-.1-.3l-.1-85.6c0-.2.1-.3.1-.5s-.1-.3-.1-.5V160c.4-1.1 2.5-2.7 3.6-2.7h382.4c1 .1 2.9 1.4 3.5 2.5v191.5c0 .1-.1.2-.1.3s.1.2.1.3v85.9c0 .1-.1.2-.1.4 0 .1.1.3.1.4v105.8c-.4.7-2.2 2.1-3.6 2.1zm138.5-173.4c11.9 0 21.6-9.7 21.6-21.6s-9.7-21.6-21.6-21.6h-91.7v-43.3h91.7c11.9 0 21.6-9.7 21.6-21.6 0-11.9-9.7-21.6-21.6-21.6h-91.7v-84.5c0-24-21.8-45-46.7-45h-83.1V21.6C459.7 9.7 450 0 438.1 0c-11.9 0-21.6 9.7-21.6 21.6v92.3h-43.3V21.6c0-11.9-9.7-21.6-21.6-21.6C339.7 0 330 9.7 330 21.6v92.3h-43.3V21.6C286.7 9.7 277 0 265.1 0c-11.9 0-21.6 9.7-21.6 21.6v92.3h-83.1c-24.9 0-46.7 21-46.7 45v84.5h-92C9.8 243.4.1 253.1.1 265c0 11.9 9.7 21.6 21.6 21.6h92v43.3h-92C9.8 329.9.1 339.6.1 351.5s9.7 21.6 21.6 21.6h92v43.3h-92C9.8 416.4.1 426.1.1 438c0 11.9 9.7 21.6 21.6 21.6h92V545c0 24.3 21.4 44.7 46.7 44.7h83.1v91.4c0 11.9 9.7 21.6 21.6 21.6 11.9 0 21.6-9.7 21.6-21.6v-91.4H330v91.4c0 11.9 9.7 21.6 21.6 21.6 11.9 0 21.6-9.7 21.6-21.6v-91.4h43.3v91.4c0 11.9 9.7 21.6 21.6 21.6 11.9 0 21.6-9.7 21.6-21.6v-91.4h83.1c24.9 0 46.7-20.9 46.7-44.7v-85.4h91.7c11.9 0 21.6-9.7 21.6-21.6 0-11.9-9.7-21.6-21.6-21.6h-91.7v-43.3h91.7z" clip-rule="evenodd" style="fill: #019df4;"/></svg>
