<?xml version="1.0" encoding="UTF-8"?>
<svg xmlns="http://www.w3.org/2000/svg" viewBox="0 0 702.8 702.8"><path fill="#019df4" fill-rule="evenodd" d="M681.1 373.2c11.9-.4 21.3-10.5 20.8-22.4-.4-11.3-9.5-20.4-20.8-20.8h-98.9v-43.2h98.9c12 0 21.6-9.7 21.6-21.7 0-11.9-9.7-21.6-21.6-21.6h-98.9V159c0-19.8-18.8-37.8-39.5-37.8h-83V21.6C459.7 9.7 450 0 438 0c-11.9 0-21.6 9.7-21.6 21.6V121h-43.2V21.7c0-12-9.7-21.6-21.6-21.6-12 0-21.6 9.7-21.6 21.6v99.4h-43.2V21.7c0-11.9-9.7-21.6-21.6-21.6-11.9 0-21.6 9.7-21.6 21.6v99.4h-83.1c-20.7 0-39.5 18-39.5 37.8v84.5H21.7c-12 0-21.6 9.7-21.6 21.7 0 11.9 9.7 21.6 21.6 21.6h99.2v43.2H21.7C9.8 330.3.4 340.4.9 352.3c.4 11.3 9.5 20.4 20.8 20.8h99.2v43.2H21.7C9.7 416.3.1 426 .1 438c0 11.9 9.7 21.6 21.6 21.6h99.2V545c0 19.9 18.4 37.5 39.5 37.5h83.1v98.6c.4 11.9 10.5 21.3 22.4 20.8 11.3-.4 20.4-9.5 20.8-20.8v-98.6h43.2v98.6c0 12 9.7 21.6 21.7 21.6 11.9 0 21.6-9.7 21.6-21.6v-98.6h43.2v98.6c.4 11.9 10.5 21.3 22.4 20.8 11.3-.4 20.4-9.5 20.8-20.8v-98.6h83c21.1 0 39.5-17.5 39.5-37.5v-85.4H681c12 0 21.6-9.7 21.6-21.7 0-11.9-9.7-21.6-21.6-21.6h-98.9v-43.2l99 .1z" clip-rule="evenodd" style="fill: #019df4;"/></svg>
