<?xml version="1.0" encoding="UTF-8"?>
<svg xmlns="http://www.w3.org/2000/svg" viewBox="0 0 702.8 702.8"><path fill="#019df4" fill-rule="evenodd" d="M470 401.7V161.8c0-79.5-38.6-118.2-118.1-118.2S233.8 82.2 233.8 161.8v239.9c0 79.5 38.6 118.2 118.1 118.2S470 481.2 470 401.7zM351.9 0c104.3 0 161.7 57.5 161.7 161.8v239.9c0 104.3-57.4 161.8-161.7 161.8-104.3 0-161.7-57.5-161.7-161.8V161.8C190.2 57.5 247.6 0 351.9 0zm.8 634.5c18.8 0 34.1 15.3 34.1 34.2 0 18.8-15.3 34.1-34.1 34.1s-34.1-15.3-34.1-34.1c0-18.9 15.3-34.2 34.1-34.2zm118.8-34.1c18.8 0 34.1 15.3 34.1 34.1 0 18.9-15.3 34.2-34.1 34.2s-34.1-15.3-34.1-34.2c0-18.8 15.3-34.1 34.1-34.1zm95.4-81.4c18.8 0 34.1 15.3 34.1 34.1 0 18.9-15.3 34.1-34.1 34.1s-34.1-15.3-34.1-34.1 15.3-34.1 34.1-34.1zM601 402.8c16.1 0 29.1 13 29.1 29.1S617.1 461 601 461s-29.1-13-29.1-29.1c0-16 13-29.1 29.1-29.1zM232.3 600.4c18.8 0 34.1 15.3 34.1 34.1 0 18.9-15.3 34.2-34.1 34.2s-34.1-15.3-34.1-34.2c-.1-18.8 15.3-34.1 34.1-34.1zM136.9 519c18.8 0 34.1 15.3 34.1 34.1 0 18.9-15.3 34.1-34.1 34.1s-34.1-15.3-34.1-34.1 15.3-34.1 34.1-34.1zm-5-87c0 16.1-13 29.1-29.1 29.1s-29.1-13-29.1-29.1 13-29.1 29.1-29.1c16.1-.1 29.1 13 29.1 29.1z" clip-rule="evenodd" style="fill: #019df4;"/></svg>
