<?xml version="1.0" encoding="UTF-8"?>
<svg xmlns="http://www.w3.org/2000/svg" viewBox="0 0 702.8 702.8"><path fill="#019df4" fill-rule="evenodd" d="M350.9 0c99.6 0 154.4 55.5 154.4 156.2v242.4c0 100.7-54.8 156.2-154.5 156.2-99.6 0-154.4-55.5-154.4-156.2V156.2C196.4 55.5 251.3 0 350.9 0zm.8 633.8c18.8 0 34.1 15.4 34.1 34.5 0 19-15.3 34.5-34.1 34.5-18.9-.1-34.2-15.6-34.1-34.5 0-19.1 15.3-34.5 34.1-34.5zm118.8-34.5c18.8 0 34.1 15.4 34.1 34.5 0 19-15.3 34.5-34.1 34.5-18.9-.1-34.2-15.5-34.1-34.5 0-19.1 15.3-34.5 34.1-34.5zm95.4-82.2c18.8 0 34.1 15.4 34.1 34.5 0 19-15.3 34.5-34.1 34.5-18.9-.1-34.2-15.6-34.1-34.5 0-19 15.2-34.5 34.1-34.5zM600 399.7c16.2.1 29.2 13.3 29.1 29.4.1 16.2-12.9 29.4-29.1 29.5-16.2-.1-29.2-13.3-29.1-29.5-.1-16.2 12.9-29.3 29.1-29.4zM231.3 599.3c18.8 0 34.1 15.4 34.1 34.5 0 19-15.3 34.5-34.1 34.5-18.9-.1-34.2-15.5-34.1-34.5-.1-19.1 15.2-34.5 34.1-34.5zm-95.4-82.2c18.8 0 34.1 15.4 34.1 34.5 0 19-15.3 34.5-34.1 34.5-18.9-.1-34.2-15.6-34.1-34.5 0-19 15.2-34.5 34.1-34.5zm-5-88c.1 16.2-12.9 29.4-29.1 29.5-16.2-.1-29.2-13.3-29.1-29.5-.1-16.2 12.9-29.3 29.1-29.4 16.2.1 29.2 13.2 29.1 29.4z" clip-rule="evenodd" style="fill: #019df4;"/></svg>
