<?xml version="1.0" encoding="UTF-8"?>
<svg xmlns="http://www.w3.org/2000/svg" viewBox="0 0 702.8 702.8"><path fill="#019df4" fill-rule="evenodd" d="M557.6 549.1c0 3.8-5.4 8.8-10.9 8.8H156.4c-5.8 0-10.9-4.9-10.9-8.8V154.9c0-3.6 5.8-9.1 10.9-9.1h390.3c5.1 0 10.9 5.5 10.9 9.1v394.2zM688 366.2c8.1 0 14.7-6.6 14.7-14.7s-6.6-14.7-14.7-14.7H587.1v-58.9h101c8.1 0 14.7-6.6 14.7-14.7s-6.6-14.7-14.7-14.7h-101v-93.6c0-20.2-19.2-38.6-40.4-38.6h-92.2V14.7C454.6 6.6 448 0 439.9 0s-14.7 6.6-14.7 14.7v101.5h-58.9V14.7c0-8.1-6.6-14.7-14.7-14.7s-14.7 6.6-14.7 14.7v101.5H278V14.7C278 6.6 271.4 0 263.2 0c-8.1 0-14.7 6.6-14.7 14.7v101.5h-92.2c-21.1 0-40.4 18.4-40.4 38.6v93.6H14.7C6.6 248.4 0 255 0 263.2c0 8.1 6.6 14.7 14.7 14.7H116v58.9H14.7c-8.1 0-14.7 6.6-14.7 14.7s6.6 14.7 14.7 14.7H116v58.9H14.7c-8.1 0-14.7 6.6-14.7 14.7s6.6 14.7 14.7 14.7H116V549c0 20.4 18.9 38.3 40.4 38.3h92.2V688c.4 8.1 7.2 14.4 15.4 14.1 7.6-.3 13.7-6.4 14.1-14.1V587.3H337V688c0 8.1 6.6 14.7 14.7 14.7s14.7-6.6 14.7-14.7V587.3h58.9V688c0 8.1 6.6 14.7 14.7 14.7s14.7-6.6 14.7-14.7V587.3h92.2c21.5 0 40.4-17.9 40.4-38.3v-94.5h101c8.1-.4 14.4-7.2 14.1-15.4-.3-7.6-6.4-13.7-14.1-14.1H587.1v-58.9l100.9.1z" clip-rule="evenodd" style="fill: #019df4;"/></svg>
