<?xml version="1.0" encoding="UTF-8"?>
<svg xmlns="http://www.w3.org/2000/svg" viewBox="0 0 702.8 702.8"><path fill="#019df4" fill-rule="evenodd" d="M191.1 160.7c-8.4 0-15.2-6.7-15.2-15V15c0-8.2 6.8-15 15.2-15h67c8.4 0 15.2 6.7 15.2 15v41.1h32.3V15c0-8.2 6.8-15 15.2-15h58.1c8.4 0 15.2 6.7 15.2 15v43.8l33.5-.5V15c0-8.2 6.8-15 15.2-15h69.7c8.4 0 15.2 6.7 15.2 15v130.8c0 8.3-6.8 15-15.2 15h-10.3v-.2H210.9v.2h-19.8zm7 347.6c0-8.3 6.8-15 15.2-15h27.9c-.4-1.7-.6-3.4-.5-5.3l29-247.8h-15.6c-8.4 0-15.2-6.7-15.2-15v-40.8h228.2v40.8c0 8.2-6.8 15-15.2 15h-15.6l29 247.8c.2 1.8 0 3.6-.5 5.3h24.6c8.4 0 15.2 6.7 15.2 15v74.6H198v-74.6zm343 98.5c8.4 0 15.2 6.7 15.2 15v66c0 8.3-6.8 15-15.2 15H161.6c-8.4 0-15.2-6.7-15.2-15v-66c0-8.2 6.8-15 15.2-15h379.5z" clip-rule="evenodd" style="fill: #019df4;"/></svg>
