<?xml version="1.0" encoding="UTF-8"?>
<svg xmlns="http://www.w3.org/2000/svg" viewBox="0 0 702.8 702.8"><path fill="#019df4" fill-rule="evenodd" d="M176.9 672.9h349v-66h-349v66zm51.7-96h245.7v-53.7H228.6v53.7zm42.5-85.4l29.4-251.3h105.2l29.4 251.3c.1.7.4 1.2.6 1.8H270.5c.2-.6.5-1.2.6-1.8zm-1.6-281.2h167.2v-49.5H269.5v49.5zM206.3 29.9h36.5V71c0 8.3 6.8 15 15.2 15h62.7c8.4 0 15.2-6.7 15.2-15V29.9h27.7v44c0 4 1.6 7.9 4.5 10.7 2.9 2.8 6.3 4 10.9 4.3l63.9-1c8.3-.1 15-6.8 15-15V29.8h39.3v100.9H206.3V29.9zm334.8 547h-36.4v-68.7c0-8.3-6.8-15-15.2-15h-24.6c.5-1.7.7-3.4.5-5.2l-29-247.9h15.5c8.4 0 15.2-6.7 15.2-15v-64.5h45.5c8.4 0 15.2-6.7 15.2-15V15c0-8.3-6.8-15-15.2-15h-69.8c-8.4 0-15.2 6.7-15.2 15v43.3l-33.4.5V15c0-8.3-6.8-15-15.2-15h-58.1c-8.4 0-15.2 6.7-15.2 15v41.2h-32.3V15c0-8.3-6.8-15-15.2-15h-67C182.8 0 176 6.7 176 15v130.8c0 8.3 6.8 15 15.2 15H239v64.5c0 8.3 6.8 15 15.2 15h15.6l-29 247.9c-.2 1.8 0 3.6.4 5.2h-27.9c-8.4 0-15.2 6.7-15.2 15v68.7h-36.4c-8.4 0-15.2 6.7-15.2 15v96c0 8.3 6.8 15 15.2 15h379.5c8.4 0 15.2-6.7 15.2-15v-96c0-8.5-6.8-15.2-15.3-15.2z" clip-rule="evenodd" style="fill: #019df4;"/></svg>
