<?xml version="1.0" encoding="UTF-8"?>
<svg xmlns="http://www.w3.org/2000/svg" viewBox="0 0 702.8 702.8"><path fill="#019df4" fill-rule="evenodd" d="M190.5 658.8h321.8v-50H190.5v50zm49.8-93.9h222.2V527H240.3v37.9zm68.6-315.1h88.3L424 483H282l26.9-233.2zm-29.2-43.9h146.6v-33.8H279.7v33.8zM218.9 44h20.5v33c0 12.1 9.9 22 22 22h60.5c12.2 0 22-9.8 22-22V44h12v35.8c0 5.9 2.4 11.5 6.6 15.6 4.2 4.1 9.9 6.4 15.8 6.3l61.6-.9c12-.2 21.7-10 21.7-22V44h23.2v84.2h-266V44zm315.4 520.9h-27.8V505c0-12.1-9.9-22-22-22h-16.1l-26.9-233.2h6.8c12.2 0 22-9.8 22-22V172h36.5c12.2 0 22-9.8 22-22V22c0-12.1-9.9-22-22-22h-67.3c-12.2 0-22 9.8-22 22v35.2l-17.6.3V22c0-12.1-9.9-22-22-22h-56c-12.2 0-22 9.8-22 22v33h-16.5V22c0-12.1-9.9-22-22-22h-64.6c-12.2 0-22 9.8-22 22v128.1c0 12.1 9.9 22 22 22h38.8v55.8c0 12.1 9.9 22 22 22h6.8l-26.9 233.2h-19.4c-12.2 0-22 9.8-22 22V565h-27.8c-12.2 0-22 9.8-22 22v94c0 12.1 9.9 22 22 22h365.9c12.2 0 22-9.8 22-22v-94c.2-12.3-9.7-22.1-21.9-22.1z" clip-rule="evenodd" style="fill: #019df4;"/></svg>
