<?xml version="1.0" encoding="UTF-8"?>
<svg xmlns="http://www.w3.org/2000/svg" viewBox="0 0 702.8 703"><g fill="#019df4"><path d="M468.4 703h-234c-39.5 0-68.3-9.5-88-29-19.9-19.7-29.5-48.7-29.5-88.5v-468c0-38.8 9.6-67.3 29.4-87.4C166.3 9.9 195.1 0 234.4 0h234c39.6 0 68.4 9.6 88.2 29.5s29.3 48.6 29.3 88v468c0 39.8-9.7 68.8-29.5 88.5-19.8 19.5-48.5 29-88 29zm-234-663c-55 0-77.5 22.5-77.5 77.5v468c0 56.5 21 77.5 77.5 77.5h234c56.5 0 77.5-21 77.5-77.5v-468c0-28.3-5.8-47.9-17.6-59.8S496.8 40 468.4 40h-234z" style="fill: #019df4;"/><path d="M351.4 550c-18 0-29.7 9.5-29.7 29.8 0 9.8 2.7 17 7.5 21.9 5.2 5.3 12.8 7.9 22.2 7.9s17-2.6 22.2-7.9c4.8-4.9 7.5-12.2 7.5-21.9-.1-20.3-11.7-29.8-29.7-29.8z" style="fill: #019df4;"/><path d="M351.4 619.7c-12.2 0-22.4-3.8-29.3-10.9s-10.3-16.8-10.3-28.9c0-24.9 14.8-39.8 39.7-39.8s39.6 14.9 39.6 39.8c0 12.2-3.5 21.9-10.3 28.9s-17.2 10.9-29.4 10.9zm0-59.6c-13.6 0-19.7 6.1-19.7 19.8 0 6.8 1.6 11.8 4.6 14.9s8.2 4.9 15 4.9 11.9-1.6 15-4.9 4.6-8.2 4.6-14.9c.1-13.7-5.9-19.9-19.5-19.8z" style="fill: #019df4;"/></g></svg>
