<?xml version="1.0" encoding="UTF-8"?>
<svg xmlns="http://www.w3.org/2000/svg" viewBox="0 0 702.8 702.9"><g fill="#019df4"><path d="M477.9 702.5H224.4c-36.7 0-63.2-8.5-80.9-26.1-17.9-17.7-26.6-44.4-26.6-81.4V107.5c0-36 8.7-62.3 26.5-80.3C161.5 8.9 188 0 224.4 0h253.5c36.8 0 63.3 8.7 81.1 26.6s26.4 44.3 26.4 80.9V595c0 37-8.7 63.6-26.6 81.4-17.7 17.6-44.2 26.1-80.9 26.1zM224.4 20c-30.8 0-52.6 6.9-66.8 21.2-14 14.1-20.8 35.8-20.8 66.3V595c0 62.2 25.4 87.5 87.5 87.5h253.5c62.2 0 87.5-25.3 87.5-87.5V107.5c0-31.1-6.7-53-20.5-66.8S509.1 20 477.9 20H224.4z" style="fill: #019df4;"/><path d="M351.4 559.4c-18 0-29.7 9.5-29.7 29.8 0 9.8 2.7 17 7.5 21.9 5.2 5.3 12.8 7.9 22.2 7.9s17-2.6 22.2-7.9c4.8-4.9 7.4-12.1 7.4-21.9 0-20.3-11.6-29.8-29.6-29.8z" style="fill: #019df4;"/></g></svg>
