<?xml version="1.0" encoding="UTF-8"?>
<svg xmlns="http://www.w3.org/2000/svg" viewBox="0 0 702.8 702.8"><path fill="#019df4" fill-rule="evenodd" d="M31.7 672.9H671v-77.2H31.7v77.2zm87.2-107.2h57.7V264.4h-57.7v301.3zM351.4 33.2l288.8 201.2h-40c-.1 0-.2-.1-.3-.1-.1 0-.2.1-.3.1h-86.9c-.1 0-.2-.1-.3-.1-.1 0-.2.1-.3.1H396c-.1 0-.2-.1-.3-.1-.1 0-.2.1-.3.1h-86.9c-.1 0-.2-.1-.3-.1-.1 0-.2.1-.3.1H191.8c-.1 0-.2-.1-.3-.1-.1 0-.2.1-.3.1h-86.9c-.1 0-.2-.1-.3-.1-.1 0-.2.1-.3.1H62.5L351.4 33.2zm59.3 532.5h86.9V264.4h-86.9v301.3zm-87.5 0h57.7V264.4h-57.7v301.3zm-116.8 0h86.9V264.4h-86.9v301.3zm321 0h57.7V264.4h-57.7v301.3zm158.6 0h-71.1V264.4h73c6.5 0 12.3-4.2 14.2-10.5 1.9-6.3-.4-13.1-5.7-16.8L359.9 2.6c-5.1-3.6-11.9-3.6-17 0L6.4 237.1C1 240.8-1.3 247.6.6 253.9c2 6.3 7.7 10.5 14.3 10.5h74.2v301.3H16.8c-8.3 0-14.9 6.7-14.9 15v107.2c0 8.3 6.7 15 14.9 15H686c8.3 0 14.9-6.7 14.9-15V580.7c0-8.3-6.7-15-14.9-15z" clip-rule="evenodd" style="fill: #019df4;"/></svg>
