<?xml version="1.0" encoding="UTF-8"?>
<svg xmlns="http://www.w3.org/2000/svg" viewBox="0 0 702.8 702.8"><path fill="#019df4" fill-rule="evenodd" d="M216.8 553.9h70.5V273.6h-70.5v280.3zm199.9 0h70.5V273.6h-70.5v280.3zm264.2-280.3c9.6 0 18.1-6.2 20.9-15.4 2.8-9.2-.6-19.1-8.4-24.7L363.9 3.9c-7.5-5.2-17.4-5.2-25 0L9.4 233.5C1.5 239-1.8 249 1 258.1c2.9 9.2 11.3 15.4 20.9 15.4h65.3v280.3H23.7c-12.1 0-21.9 9.9-21.9 22v104.9c0 12.1 9.8 22 21.9 22H679c12.1 0 21.9-9.9 21.9-22V575.8c0-12.1-9.8-22-21.9-22h-62.3V273.5h64.2z" clip-rule="evenodd" style="fill: #019df4;"/></svg>
