<?xml version="1.0" encoding="UTF-8"?>
<svg xmlns="http://www.w3.org/2000/svg" viewBox="0 0 702.8 702.8"><path fill="#019df4" fill-rule="evenodd" d="M538.2 657.5l-8.5.1c-28.1-.4-75.1-11.1-75.1-78.7 0-67.3 46.4-77.8 74.1-78.1l9.1.1c28.3.7 75.8 11.8 75.8 78.5-.1 66.8-47.2 77.6-75.4 78.1zM294.8 100.4V48l318.7 85.2v52.4l-318.7-85.2zM174 509.4c-2.6.1-5.6.1-8.6 0-28.1-.4-75.1-11.2-75.1-78.7 0-67.4 46.6-77.9 74.3-78.1l8.9.1c27.8.6 74 11.7 75.5 75.7v5.8c-1.5 63.9-47.3 74.6-75 75.2zM659.4 127c0-19.6-15.3-35.8-34.7-37.7L293.4.8l-6-.8C266.2 0 249 17 249 37.9v293.9c-22.2-16.1-49.1-23.7-74.5-24.3-3.2-.1-7.1-.1-10.4-.1-55.2.4-119.7 33-119.7 123.3 0 90.2 64.8 123.1 120.2 123.9h10.2c53.2-1 114.2-31.8 119.3-112.9h.7v-7.5c0-1 .3-1.9.3-2.9s-.3-1.8-.3-2.8V147.3l318.7 85.2v247.7c-22.3-16.2-49.3-23.9-74.7-24.5l-10.4-.1c-55.2.4-119.7 33-119.7 123.3 0 90.2 64.8 123.2 120.4 124h2.8l7.2-.1c55.5-1 120.2-33.9 120.2-123.3 0-1.8-.4-3.2-.5-4.9h.5V127z" clip-rule="evenodd" style="fill: #019df4;"/></svg>
