<?xml version="1.0" encoding="UTF-8"?>
<svg xmlns="http://www.w3.org/2000/svg" viewBox="0 0 702.8 702.8"><path fill="#019df4" fill-rule="evenodd" d="M285.8 90.5l.1-59.6L624 121l4.5.9v59.9L285.8 90.5zM169.4 520.6c-2.7 0-6 .1-9.1 0-25.5-.3-85-9.7-85-88.4 0-78.5 58.9-87.6 84.2-87.8 3.1 0 6.5 0 9.5.1 25.7.6 85.5 10.4 85.5 88.3 0 77.9-59.5 87.3-85.1 87.8zm374 151.7l-9.1.1c-25.5-.3-85-9.7-85-88.4 0-78.5 58.9-87.5 84.2-87.7l9.5.1c25.7.6 85.6 10.4 85.6 88.3-.1 77.7-59.6 87.2-85.2 87.6zm116-550.3c-.1-16.2-12.8-29.6-29-30.7L289.9.6l-4-.6c-17.3 0-31.3 13.9-31.3 30.8v317.5c-22.5-23-54.1-33.4-84.7-34.1-3.2-.1-7 0-10.5-.1-55.6.4-114.8 31.7-114.8 118.1S104.3 550.2 160 551c3.4.1 6.8.1 10.2 0 18.6-.3 108.6-7.5 114.8-107.3h.6L286 122l342.7 91.4v286.8c-22.5-23-54.1-33.5-84.9-34.2l-10.4-.1c-55.5.5-114.8 31.7-114.8 118.1 0 86.4 59.7 118 115.5 118.8l10-.1c19.3-.3 115.4-7.7 115.4-118.1 0-1.8-.4-3.2-.5-5h.5V122h-.1z" clip-rule="evenodd" style="fill: #019df4;"/></svg>
