<?xml version="1.0" encoding="UTF-8"?>
<svg xmlns="http://www.w3.org/2000/svg" viewBox="0 0 702.8 702.8"><path fill="#019df4" fill-rule="evenodd" d="M654.3 365h10.9c8.7 0 15.7-7 15.7-15.7s-7-15.7-15.7-15.7h-6.7l39.7-39.7c6.2-6.1 6.2-16.1 0-22.2-6.1-6.1-16.1-6.1-22.2 0l-62 62h-41.6l20.9-20.9c6.1-6.1 6.1-16.1 0-22.2-6.2-6.1-16.1-6.1-22.2 0L528 333.7H391l131.3-131.3h80.9c8.7 0 15.7-7 15.7-15.7s-7-15.7-15.7-15.7h-49.4l3.3-3.3c6.2-6.2 6.2-16.1 0-22.2-6.1-6.2-16.1-6.2-22.2 0l-.7.7V102c0-8.7-7-15.7-15.7-15.7s-15.7 7-15.7 15.7v75.7L367.1 313V178.6l46-46c6.1-6.1 6.1-16.1 0-22.2-6.1-6.1-16.1-6.1-22.2 0l-23.8 23.8V91l64.1-64.1c6.2-6.1 6.2-16.1 0-22.2-6.1-6.1-16.1-6.1-22.2 0l-41.8 41.8V35.6c0-8.7-7-15.7-15.7-15.7s-15.7 7-15.7 15.7v10.9L294 4.7c-6.1-6.1-16.1-6.1-22.2 0-6.1 6.1-6.1 16.1 0 22.2L335.9 91v39l-19.6-19.6c-6.1-6.1-16.1-6.1-22.2 0-6.1 6.2-6.1 16.1 0 22.2l41.8 41.9v137L204.6 180.2v-78.3c0-8.7-7-15.7-15.7-15.7s-15.7 7-15.7 15.7v46.8l-3.3-3.3c-6.1-6.2-16.1-6.2-22.2 0-6.1 6.1-6.1 16.1 0 22.2l3.3 3.3h-46.8c-8.7 0-15.7 7-15.7 15.7s7 15.7 15.7 15.7h78.3l131.3 131.3H179.1L136 290.5c-6.2-6.1-16.1-6.1-22.2 0-6.2 6.1-6.2 16.1 0 22.2l20.9 20.9H88.9l-62-62c-6.1-6.1-16.1-6.1-22.2 0-6.2 6.2-6.2 16.1 0 22.2l39.7 39.7h-6.7c-8.7 0-15.7 7-15.7 15.7s7 15.7 15.7 15.7h10.8L4.6 408.8c-6.2 6.2-6.2 16.1 0 22.3 3.1 3.1 7.1 4.6 11.1 4.6s8.1-1.5 11.1-4.6L93 365h43.2l-22.5 22.5c-6.2 6.1-6.2 16.1 0 22.2 3.1 3.1 7.1 4.6 11.1 4.6s8.1-1.5 11.1-4.6l44.7-44.7H315L179.5 500.5h-75.7c-8.7 0-15.7 7-15.7 15.7s7 15.7 15.7 15.7H148l-.7.7c-6.1 6.1-6.1 16.1 0 22.2 3.1 3.1 7.1 4.6 11.1 4.6s8.1-1.5 11.1-4.6l3.3-3.3v49.4c0 8.7 7 15.7 15.7 15.7s15.7-7 15.7-15.7V520l131.3-131.3v137l-41.8 41.8c-6.1 6.2-6.1 16.1 0 22.2 6.1 6.2 16.1 6.2 22.2 0l19.6-19.6v41.6l-64.1 64.1c-6.1 6.1-6.1 16.1 0 22.2 6.1 6.1 16.1 6.1 22.2 0l41.8-41.8v6.7c0 8.7 7 15.7 15.7 15.7s15.7-7 15.7-15.7v-6.7l41.8 41.8c3.1 3 7.1 4.6 11.1 4.6s8.1-1.5 11.1-4.6c6.2-6.2 6.2-16.1 0-22.2l-64.1-64.1v-45.8l23.8 23.7c3.1 3.1 7.1 4.6 11.1 4.6s8-1.5 11.1-4.6c6.1-6.1 6.1-16.1 0-22.2l-46-46V387l135.5 135.5v78.2c0 8.7 7 15.7 15.7 15.7s15.7-7 15.7-15.7v-46.8l.7.7c3.1 3.1 7.1 4.6 11.1 4.6s8.1-1.5 11.1-4.6c6.2-6.1 6.2-16.1 0-22.2l-.7-.7h46.8c8.7 0 15.7-7 15.7-15.7s-7-15.7-15.7-15.7h-78.2L389.4 365h137l44.7 44.7c3.1 3.1 7.1 4.6 11.1 4.6s8.1-1.5 11.1-4.6c6.1-6.1 6.1-16.1 0-22.2L570.8 365h39l66.1 66.2c3.1 3.1 7.1 4.6 11.1 4.6s8.1-1.5 11.1-4.6c6.2-6.2 6.2-16.1 0-22.3L654.3 365z" clip-rule="evenodd" style="fill: #019df4;"/></svg>
