<?xml version="1.0" encoding="UTF-8"?>
<svg xmlns="http://www.w3.org/2000/svg" viewBox="0 0 702.8 702.8"><path fill="#019df4" fill-rule="evenodd" d="M664.9 371.1c9.4-2.9 16.5-11.3 16.5-21.7 0-9.2-5.5-17.1-13.3-20.8l28-28c9-9 9-23.6 0-32.6s-23.6-9-32.6 0l-58.4 58.4h-18.9l7.3-7.3c9-9 9-23.6 0-32.6s-23.6-9-32.6 0L521 326.4H408.8l113-113h75.9c12.8 0 23.1-10.3 23.1-23.1 0-12.7-10.3-23.1-23.1-23.1h-34.1c2.3-7.8.7-16.6-5.5-22.7-5.5-5.5-13-7.2-20.2-6v-31.1c0-12.7-10.3-23.1-23.1-23.1s-23.1 10.3-23.1 23.1v70.8L374.6 295.3V185.6l42.7-42.8c9-9 9-23.6 0-32.6s-23.6-9-32.6 0l-10.1 10.1V99.8L435 39.4c9-9 9-23.6 0-32.6s-23.6-9-32.6 0L373.3 36c-2.9-9.5-11.4-16.5-21.7-16.5-10.4 0-18.9 7-21.7 16.5L300.8 6.8c-9-9-23.6-9-32.6 0s-9 23.6 0 32.6l60.4 60.4v16.4l-6.1-6c-9-9-23.6-9-32.6 0s-9 23.6 0 32.6l38.7 38.7v112.2l-113-113v-73.4c0-12.7-10.3-23.1-23.1-23.1s-23.1 10.3-23.1 23.1v31.6c-7.8-2.3-16.5-.6-22.7 5.5-6.2 6.2-7.8 14.9-5.5 22.7h-31.6c-12.8 0-23.1 10.3-23.1 23.1 0 12.7 10.3 23.1 23.1 23.1H183l113 113H186l-39.9-39.9c-9-9-23.6-9-32.6 0s-9 23.6 0 32.6l7.3 7.3h-23l-58.4-58.4c-9-9-23.6-9-32.6 0s-9 23.6 0 32.6l28.1 28c-7.8 3.7-13.4 11.5-13.4 20.8 0 10.4 7 18.9 16.5 21.7L6.8 402.2c-9 9-9 23.6 0 32.6 4.5 4.5 10.4 6.8 16.3 6.8s11.8-2.3 16.3-6.8l62.4-62.4h20.5l-8.9 8.9c-9 9-9 23.6 0 32.6 4.5 4.5 10.4 6.7 16.3 6.7s11.8-2.2 16.3-6.7l41.5-41.5h109.7L180 489.6h-70.8c-12.8 0-23.1 10.3-23.1 23.1 0 12.7 10.3 23.1 23.1 23.1h31.1c-1.2 7.1.5 14.7 6 20.2 4.5 4.5 10.4 6.8 16.3 6.8 2.2 0 4.3-.6 6.4-1.3v34.2c0 12.7 10.3 23.1 23.1 23.1s23.1-10.3 23.1-23.1v-75.9l113-113V519l-38.7 38.7c-9 9-9 23.6 0 32.6s23.6 9 32.6 0l6.1-6v18.9l-60.4 60.4c-9 9-9 23.6 0 32.6s23.6 9 32.6 0l30.1-30.1c3.7 7.8 11.5 13.3 20.8 13.3 9.2 0 17-5.5 20.7-13.3l30.1 30.1c4.5 4.5 10.4 6.8 16.3 6.8s11.8-2.2 16.3-6.8c9-9 9-23.6 0-32.6l-60.4-60.4v-23l10.1 10.1c4.5 4.5 10.4 6.8 16.3 6.8s11.8-2.2 16.3-6.8c9-9 9-23.6 0-32.6l-42.7-42.8V405l117.1 117.2v73.4c0 12.7 10.3 23.1 23.1 23.1s23.1-10.3 23.1-23.1v-33.7c1.3.2 2.6.8 3.9.8 5.9 0 11.8-2.3 16.3-6.8 5.5-5.5 7.3-13.1 6-20.2h33.6c12.8 0 23.1-10.3 23.1-23.1s-10.3-23.1-23.1-23.1h-73.3L406.9 372.3h112.2l41.5 41.5c4.5 4.5 10.4 6.7 16.3 6.7s11.8-2.2 16.3-6.7c9-9 9-23.6 0-32.6l-8.9-8.9h16.4l62.4 62.4c4.5 4.5 10.4 6.8 16.3 6.8s11.8-2.3 16.3-6.8c9-9 9-23.6 0-32.6l-30.8-31z" clip-rule="evenodd" style="fill: #019df4;"/></svg>
