<?xml version="1.0" encoding="UTF-8"?>
<svg xmlns="http://www.w3.org/2000/svg" viewBox="0 0 702.8 702.8"><path fill="#019df4" fill-rule="evenodd" d="M388.1 539.3c8.3-8.2 21.7-8.2 29.9 0 8.3 8.2 8.3 21.5 0 29.6-20.2 19.9-42 30.3-64.9 30.6h-1.3c-23.2 0-45.5-10.3-66.1-30.7-8.3-8.2-8.3-21.4 0-29.6 8.3-8.2 21.7-8.2 29.9 0 12.6 12.5 25.1 18.5 36.8 18.5 11.6-.2 23.6-6.4 35.7-18.4zm238.8-40.4c22.2-.3 33.5-12.3 33.5-35.6 0-23.1-11-34.8-32.7-35.2l-1.4 12.4c-.1 3.2-.5 5.7-.6 8.9-.9 14.8-2.5 31.7-5.4 49.3.8 0 1.4.1 1.9.1l4.7.1zm-41.5-120.8v-30.3c-.2-1.2-.4-2.4-.4-3.7-.1-3.8-.4-7.1-.5-10.8H116.1l-.3 75.2c.3 1.2.4 2.4.4 3.6 4.1 153.8 44 219.5 133.2 219.5 5.6 0 10.9-.3 16-.6l169.2-.1c13 .8 22.9.8 33.3.1h3.6c1-.2 2-.4 3-.5 45.1-4.5 105.6-32.1 110.5-218.3 0-1.3.1-2.5.4-3.7v-30.4zm-336-253.4c-90 0-125.1 42.7-132.1 166.8h93.8c5.8-62 27.2-111.5 64.4-147.1 6.3-6 13.1-11.4 20.2-16.6-12-1.4-24.2-2.8-37.4-2.8l-8.9-.3zm106.9 18.1c-19.6 8-37.2 18.1-51.4 31.6-28.9 27.7-45.9 67-51.3 117h205.3c-5.4-50-22.4-89.4-51.3-117-14.1-13.5-31.7-23.6-51.3-31.6zm96.8-17.9c-13.2 0-24.2 1.5-36.2 2.9 7.1 5.2 13.9 10.6 20.1 16.6 37.2 35.6 58.7 85.1 64.4 147.1h80.1C567.4 152.9 514.8 130 474.4 125.9l-5.2-.5c-5.6-.4-10.3-.5-15-.5h-1.1zm-372.7 374c.2 0 .5-.1.7-.1-2.5-16.4-4.3-32.8-5.4-49 0-3.4-.6-5.5-.6-8.8l-1.5-12.7c-20.5.9-31.2 12.5-31.2 35 0 23.3 11.2 35.3 33.5 35.6h4.5zm547.5-112.8c34.6.3 74.9 20.7 74.9 77.1 0 56.4-40.5 77-75.3 77.5h-5.9c-2.3 0-5.5-.2-9.4-.7-.2 0-.3-.1-.5-.2C595.1 601.2 560 661 484.4 671.3c-2.3.9-4.8 1.4-7.4 1.4h-7.7c-4.7.4-10.9.7-17.4.7-6.5 0-12.6-.4-18.6-.7H266.9c-4.7.4-10.9.7-17.5.7-96.4 0-139.9-60.6-159.6-133.4-3.6.4-6.6.6-8.7.6h-5.9C40.5 540.1 0 519.5 0 463.1c0-55.7 39.4-76.2 73.6-77l.2-52.9H21.2C9.5 333.2 0 323.8 0 312.3c0-11.6 9.5-20.9 21.2-20.9h53.6c6-111.3 35.7-208.6 174.6-208.6 6.6 0 12.8.3 18.9.8h50.4c-2.2-5.1-3.7-10.8-3.7-17.8 0-11.9 3.3-21.2 9.8-27.4 6.3-6 15.4-9 27-9s20.7 3 27 9c6.5 6.3 9.9 15.5 9.9 27.4 0 6.9-1.4 12.7-3.6 17.8h49.5c9.3-.7 24-.7 36.2.1l6.4.4c2.7.3 5 .6 7.6 1C599.4 101 622.1 230.6 627 306.8c.1 3.2.6 5.6.9 9.1l-.1 62.5.1 7.7zm-340.6 76.1c0 11.6-9.5 20.9-21.2 20.9s-21.2-9.4-21.2-20.9v-65.4c0-11.6 9.5-20.9 21.2-20.9s21.2 9.4 21.2 20.9v65.4zm147.6-86.3c11.7 0 21.2 9.4 21.2 20.9v65.4c0 11.6-9.5 20.9-21.2 20.9s-21.2-9.4-21.2-20.9v-65.4c0-11.5 9.5-20.9 21.2-20.9z" clip-rule="evenodd" style="fill: #019df4;"/></svg>
