<?xml version="1.0" encoding="UTF-8"?>
<svg xmlns="http://www.w3.org/2000/svg" viewBox="0 0 702.8 702.8"><path fill="#019df4" fill-rule="evenodd" d="M394 549.9c5.6-5.5 14.7-5.5 20.4 0 5.6 5.5 5.6 14.4 0 20-19.2 18.8-39.8 28.6-61.2 28.9H352c-21.8 0-42.8-9.7-62.4-29-5.6-5.5-5.6-14.4 0-20 5.6-5.5 14.7-5.5 20.4 0 14.3 14 29.3 20.3 42.8 20.7 13.5-.2 27.4-7.1 41.2-20.6zm238.7-38.8c15.4-.2 41.3-6.1 41.3-43 0-36.8-25.6-42.6-40.8-42.7-2.9 0-4.8 0-7.7.1-.9 28.1-2.9 54.9-7.9 84.6 1.2.4 2 .5 3.2.5 3.8.5 5.7.5 7 .6l4.9-.1zM597 416.5V347c-.2-6-.5-11.7-.8-17.4H104l-.2 17.7.4 69.4c4.3 160.3 47.2 228.6 143.1 228.6 5.9 0 11.4-.3 16.9-.7h172.2c12.6.7 23.5.8 34.5 0h4.2c.9-.3 1.8-.5 2.8-.6 77.3-7.7 115.1-80 119.1-227.5zM247.2 118.9c-97.4 0-135.7 48.2-142.3 182.5h109.6c4.8-64.1 26.3-114.7 64.3-150.7 10.6-10.1 22.4-18.9 35.4-26.4-17.9-3.2-37.1-5-57.9-5l-2.3-.1c-2.9-.2-3.8-.3-6.8-.3zm109.2 16.9c-22.2 8.5-41.5 20.1-57.4 35.2-32.3 30.6-50.8 74.5-55.3 130.4h225.5c-4.6-56-23.1-99.8-55.3-130.4-15.9-15.1-35.2-26.8-57.5-35.2zm100-16.6c-20.8 0-40 1.8-57.9 5 12.9 7.6 24.7 16.3 35.4 26.4 37.9 36 59.5 86.6 64.3 150.7h96.2c-10.3-116.4-47.8-174.5-116.6-181.5-.9-.1-2.2-.2-3.5-.3l-2.6-.3c-5.5-.3-8.6-.1-13.5-.2h-1.8zM75 511.1c1.2 0 6.1-.3 8.8-.6-5-28.6-7.1-57.9-8-85.3-2.5.1-3.9.1-6.1.1-15.2.1-40.8 5.9-40.8 42.7 0 36.9 25.9 42.8 41.3 43l4.8.1zm558.5-114c32 .3 69.3 19.1 69.3 70.9 0 51.8-37.5 70.8-69.7 71.3h-5.8c-2 0-5.1-.2-8.8-.6-2.3-.3-4.1-.9-6.5-1.4-16.2 67.4-50.8 124.7-126.8 134.4-1.7.8-3.6 1.2-5.6 1.2h-7.9c-5.1.4-11.3.7-17.8.7s-12.6-.3-18.6-.7H265.1c-5.1.4-11.3.7-17.8.7-96.5 0-138.9-61.8-157.5-135.3-4.3.5-12.4 1-14.3 1.1h-5.8C37.6 538.9.1 520 .1 468.1s37.3-70.6 69.3-70.9h.1c2.1 0 3.5.1 5.8.2l-.3-50.2.2-17.5H14.4c-8 0-14.4-6.3-14.4-14.1s6.5-14.1 14.4-14.1h61.7C82 174.2 115.6 90.6 247.3 90.6c6.6 0 12.7.3 18.8.3l56.5.5c-5.2-6.2-8.3-14.3-8.3-25 0-12.1 3.3-21.4 10-27.7 6.4-6.1 15.7-9.1 27.5-9.1s21.1 3.1 27.6 9.1c6.7 6.3 10.1 15.7 10.1 27.7 0 10.7-3.1 18.8-8.3 25h55.1c10.1-.8 24.3-.8 36.4 0l6.5.4c2 .2 4.3.5 6.3.8C605.3 108.2 623 244.9 625.7 346.9v50.4c3.5-.1 4.7 0 7.8-.2zm-369.1-10.4c7.9 0 14.4 6.3 14.4 14.1v66.1c0 7.8-6.5 14.1-14.4 14.1-8 0-14.4-6.3-14.4-14.1v-66.1c0-7.7 6.4-14.1 14.4-14.1zm172.2 0c7.9 0 14.4 6.3 14.4 14.1v66.1c0 7.8-6.5 14.1-14.4 14.1-8 0-14.4-6.3-14.4-14.1v-66.1c0-7.7 6.4-14.1 14.4-14.1z" clip-rule="evenodd" style="fill: #019df4;"/></svg>
