<?xml version="1.0" encoding="UTF-8"?>
<svg xmlns="http://www.w3.org/2000/svg" viewBox="0 0 702.8 702.8"><path fill="#019df4" fill-rule="evenodd" d="M388.1 539.3c8.3-8.2 21.7-8.2 30 0s8.3 21.5 0 29.6c-20.2 19.9-42 30.3-64.9 30.6h-1.3c-23.2 0-45.5-10.3-66.1-30.7-8.3-8.2-8.3-21.4 0-29.6 8.3-8.2 21.7-8.2 30 0 12.6 12.5 25.1 18.5 36.8 18.5 11.4-.2 23.4-6.4 35.5-18.4zm-100.8-77.1c0 11.6-9.5 20.9-21.2 20.9s-21.2-9.4-21.2-20.9v-65.4c0-11.6 9.5-20.9 21.2-20.9s21.2 9.4 21.2 20.9v65.4zm147.6-86.3c11.7 0 21.2 9.4 21.2 20.9v65.4c0 11.6-9.5 20.9-21.2 20.9s-21.2-9.4-21.2-20.9v-65.4c0-11.5 9.5-20.9 21.2-20.9zm192 123c22.2-.3 33.5-12.3 33.5-35.6 0-23.1-11-34.8-32.7-35.2l-1.4 12.6c0 3.1-.5 5.9-.5 8.8-1 14.8-2.6 31.7-5.4 49.3.8.1 1.5.1 1.9.1h4.6zm-41.5-120.8v-30.3c-.3-1.2-.4-2.4-.4-3.7-.1-3.8-.4-7.1-.5-10.8H116.1l-.3 75.2c.2 1.2.4 2.4.4 3.6 4.1 153.8 44 219.4 133.2 219.4 5.6 0 10.9-.3 16-.6l169.2-.1c13 .8 22.9.8 33.3.1h3.6c1-.2 2-.4 3-.5 45.1-4.5 105.5-32.1 110.5-218.2 0-1.3.1-2.5.4-3.7v-30.4zM275.5 144.3c-37.2 35.6-58.7 85.1-64.4 147.1h42.5c5.4-50 22.4-89.3 51.3-117 14.1-13.5 31.8-23.7 51.4-31.6 19.6 8 37.2 18.1 51.3 31.6 28.9 27.6 46 67 51.3 117h42.6c-5.8-62-27.2-111.5-64.4-147.1-6.2-6-13.1-11.4-20.1-16.6l-3.6-2.4-114.2.1-3.5 2.3c-7.1 5.2-14 10.6-20.2 16.6zM80.4 498.9c.2 0 .5 0 .7-.1-2.6-16.3-4.4-32.8-5.5-49-.3-3-.9-5.9-1.1-9.1l-1-12.3c-20.5.9-31.1 12.5-31.1 35 0 23.3 11.2 35.3 33.5 35.6l4.5-.1zm547.5-112.8c34.6.3 74.9 20.7 74.9 77.1 0 56.4-40.5 77-75.3 77.5h-5.9c-2.2 0-5.4-.2-9.4-.7-.1 0-.3-.1-.5-.1-16.6 61.4-51.7 121.2-127.3 131.5-2.3.9-4.8 1.4-7.4 1.4h-7.7c-4.7.4-10.9.7-17.4.7-6.5 0-12.6-.4-18.6-.7H266.9c-4.7.4-10.9.7-17.5.7-96.4 0-139.9-60.6-159.6-133.4-3.6.4-6.6.6-8.6.6h-5.9C40.7 540.2.1 519.6.1 463.2c0-55.7 39.4-76.2 73.6-77l.2-52.9H21.3C9.6 333.3.1 323.9.1 312.4c0-11.6 9.5-20.9 21.2-20.9h53.6c6-111.3 35.7-208.6 174.6-208.6 6.5 0 12.8.3 18.9.8h50.4c-2.2-5.1-3.7-10.8-3.7-17.8 0-11.9 3.3-21.2 9.9-27.4 6.2-6 15.4-9 27-9s20.7 3 27 9c6.5 6.3 9.8 15.5 9.8 27.4 0 6.9-1.4 12.7-3.6 17.8h49.5c9.2-.7 24-.7 36.2.1l6.8.6c2.6.2 4.5.3 7.2.7C599.5 101 621.1 230.9 626 307.1c.4 3.3.4 6.3.4 9.4l1.5 61.9v7.7z" clip-rule="evenodd" style="fill: #019df4;"/></svg>
