<?xml version="1.0" encoding="UTF-8"?>
<svg xmlns="http://www.w3.org/2000/svg" viewBox="0 0 702.8 702.8"><path fill="#019df4" fill-rule="evenodd" d="M97.4 317.6c16 0 27.2-11.2 27.2-27.2s-11.2-27.2-27.2-27.2-27.2 11.2-27.2 27.2c0 16.1 11.1 27.2 27.2 27.2zm548.6 1.7c-8.9 8.3-9.4 22.3-1.1 31.2l1.2 1.2c8.3 7.6 12.8 20.6 12.8 37.5 0 33.9-29.7 39.2-42.5 39.9H495.3l-95.9 2.8c-11.9.3-21.4 10.1-21.3 22.1 0 50.6.1 101.3.3 151.9l.2 4.3c.1 34.8-13.5 48.7-45.3 48.7-11.7 0-27.5-2-36.7-12-6.8-7.3-9.7-18.4-8.7-33.1l.6-6.8c.3-3 .6-5.9.8-9.4.1-.8.2-1.6.2-2.4.9-41.3 1.5-94.3-2.6-137.5-6.2-65-63.6-102.1-90.7-116v-.3c0-.6.2-1.1.2-1.7V71.2l88.4-1.2c11.7 0 23.3-3.3 37.9-7.5l7.7-2.2C356.5 52.7 386 44 460.3 44c122.8 0 130.5 11.9 139.3 35.6 3 19.5.1 28.2-2.9 33.6-5.8 10.7-1.8 24 8.8 29.8.7.4 1.3.7 2 1 14.8 6.1 32.5 17.8 32.5 37.9 0 14.1-3.2 25.2-9.1 32.2-4 4.7-5.9 11-5.1 17.1.8 6.1 4.2 11.7 9.3 15.3 15.7 10.8 23.7 24.1 23.7 39.4.2 14.2-4.2 25.4-12.8 33.4zM144.4 60.5c4.3 0 7.7 3.5 8 7.7v272c-.2 4.3-3.7 7.7-8 7.7H51.9c-4.5 0-8.1-3.7-8.1-8.2v-271c0-4.5 3.7-8.1 8.1-8.1l92.5-.1zm544.8 275c7.6-11.9 13.6-28.1 13.6-49.7 0-23.4-9.4-45.1-26.7-62.4 4.5-10.5 7.9-24.2 7.9-41.7 0-28.1-14.7-52.4-41-68.9 2.5-12.4 2.3-26.4-.4-42.7-.2-1.3-.6-2.7-1.1-3.9C621.4 11.8 589.3 0 460.3 0 379.7 0 345.5 10 318 18.1l-7.4 2.1c-11.3 3.3-20.4 5.9-26.1 5.9l-100.1 1.3c-2.4 0-4.6.9-6.9 1.4-9.3-7.8-21-12.1-33.1-12.2H51.9C23.3 16.6 0 39.9 0 68.6v271.1c0 28.7 23.3 52 51.9 52h92.5c11.9 0 22.8-4.2 31.6-11 19.6 10 63.1 37.2 67.3 81.2 3.9 40.1 3.4 90.2 2.5 129.9l-.1 1.5c-.1 3.7-.4 6.4-.7 9.3l-.7 8.2c-2.4 33.9 9.8 54.6 20.3 66 15.8 17 39.6 26 68.8 26 55.8 0 89.2-33.8 89.2-90.5l-.1-3.5-.2-4.7c0-44.9-.1-99.5-.2-129l73.9-2.2h121.8c43-2.3 85.1-29.2 85.1-83.8-.1-23.9-6.2-41.2-13.7-53.6z" clip-rule="evenodd" style="fill: #019df4;"/></svg>
