<?xml version="1.0" encoding="UTF-8"?>
<svg xmlns="http://www.w3.org/2000/svg" viewBox="0 0 702.8 702.8"><path fill="#019df4" fill-rule="evenodd" d="M91.7 316.5c16.1 0 27.4-11.2 27.4-27.4s-11.2-27.4-27.4-27.4c-16.1 0-27.4 11.3-27.4 27.4 0 16.1 11.2 27.4 27.4 27.4zm566.3 7.8c-5.9 5.5-6.3 14.7-.8 20.7l.8.8c10.2 9.3 15.6 24.6 15.6 44.2 0 42.6-38.9 48-50.9 48.7H498.4l-97.8 2.9c-7.9.3-14.2 6.7-14.1 14.6 0 51.6.1 103.2.3 154.9l.2 4.4c0 40.5-17.2 58.2-54.2 58.2-19.3 0-34.3-5.1-43.3-14.8-8.5-9.1-12.2-22.4-10.9-39.7l.6-7.3c.4-3.1.6-6 .8-9.6.1-.6.2-1.2.2-1.8.9-41.9 1.5-95.7-2.6-139.6-6.4-66.4-68.8-102.8-92.8-114.5V342c0-.6.2-1.1.2-1.7V61.5c0-.6-.1-1.1-.2-1.7v-2.7l98.3-1.3c10.8 0 22.2-3.2 36.4-7.3l8-2.3c27.2-8 58-17 135.2-17 134.5 0 139.9 14.5 150.6 43.5 2.4 15.9 1.3 28.7-4.2 38.9-3.8 7.1-1.1 16 6 19.8l1.2.6c17.4 7.3 38.1 21.1 38.1 46.1 0 16.3-3.8 29.5-11.2 38-5.3 6.1-4.6 15.2 1.5 20.5.4.4.9.7 1.3 1 12.6 8.6 27.6 23.8 27.6 46.9.1 16.8-5.1 30.2-15.6 39.8zM140.6 46.1c8.2 0 14.8 6.5 15.2 14.6v280.5c-.4 8.1-7.1 14.5-15.2 14.5H44.4c-8.5 0-15.3-6.9-15.3-15.4V61.5c0-8.5 6.9-15.4 15.3-15.4h96.2zm546.7 289c8.3-11.3 15.5-27.8 15.5-50.7 0-23.5-10.2-45.2-29-62 5.4-10.3 9.8-24.7 9.8-44.3 0-27.9-15.2-51.2-43-66.6 3.7-13 3.9-27.8.8-46.1C622.7 14.1 597.2 0 462.8 0 381.3 0 347 10.1 319.4 18.2l-7.5 2.2C299.1 24 290 26.6 283 26.6L180.7 28c-3.1.1-6.1.7-8.9 1.9-8.3-8.3-19.5-12.9-31.2-12.9H44.4C19.9 17 0 36.9 0 61.5v278.8c0 24.5 19.9 44.5 44.4 44.5h96.2c12 0 22.8-4.8 30.8-12.5 18.6 9 72.3 39.3 77.3 91.4 4 41.7 3.5 93.3 2.6 134.1-.1 3.7-.4 7.4-.9 11.1l-.7 8.3c-1.8 25.2 4.7 46.5 18.7 61.5 14.6 15.8 37 24.1 64.5 24.1 52.9 0 83.3-30.9 83.3-84.6l-.1-3.4-.1-4.8c0-50.2-.2-112.2-.2-139.7l83.2-2.5h124.7c37-2 79.2-23.6 79.2-77.8-.1-25.7-7.3-43.3-15.6-54.9z" clip-rule="evenodd" style="fill: #019df4;"/></svg>
