<?xml version="1.0" encoding="UTF-8"?>
<svg xmlns="http://www.w3.org/2000/svg" viewBox="0 0 702.8 702.8"><path fill="#019df4" fill-rule="evenodd" d="M646 319.3c8.6-7.9 12.9-19.2 12.9-33.5 0-15.4-8-28.7-23.7-39.4-5.1-3.5-8.5-9.1-9.3-15.3-.8-6.2 1-12.4 5.1-17.1 6-7 9.1-18.1 9.1-32.2 0-20.1-17.7-31.7-32.5-37.9-5.8-2.4-10.2-7.1-12.2-12.9-2.1-5.9-1.6-12.3 1.4-17.8 3-5.4 5.9-14.1 2.9-33.6C590.8 55.9 583.2 44 460.4 44c-74.3 0-103.8 8.7-129.9 16.3l-7.7 2.2c-14.6 4.2-26.2 7.5-37.9 7.5l-88.4 1.2v268.6c0 .6-.1 1.1-.2 1.7v.3c27.1 14 84.5 51.1 90.7 116 4.2 43.2 3.6 96.2 2.7 137.5 0 .8-.1 1.6-.2 2.4-.2 3.5-.5 6.4-.8 9.4l-.6 6.8c-1 14.6 1.9 25.7 8.7 33 9.3 9.9 25.1 12 36.7 12 31.8 0 45.3-13.9 45.3-48.7l-.2-4.3v-1.2c0-65.1-.3-150.7-.3-150.7 0-11.9 9.4-21.7 21.3-22l95.9-2.9h121.2c12.8-.7 42.5-6 42.5-39.9 0-17-4.4-30-12.8-37.5-4.6-4.1-7.2-10-7.2-16.2-.3-6.1 2.3-12 6.8-16.2M97.4 263.2c-16 0-27.2 11.2-27.2 27.2s11.2 27.2 27.2 27.2 27.1-11.1 27.1-27.2c0-16-11.1-27.2-27.1-27.2m591.8 72.3c7.6 12.3 13.6 29.7 13.6 53.7 0 54.6-42.1 81.4-85.1 83.8H495.9l-73.9 2.2c.1 29.5.2 84 .2 129l.2 4.7c0 .1.1 3.4.1 3.5 0 56.6-33.3 90.5-89.2 90.5-29.2 0-53-9-68.8-26-10.5-11.4-22.7-32.1-20.3-66l.7-8.2c.3-2.9.6-5.6.7-9.2 0-.5.1-1 .1-1.5.9-39.7 1.4-89.8-2.5-129.9-4.2-44-47.7-71.1-67.3-81.2-8.8 6.8-19.7 11-31.6 11H52c-28.7 0-52-23.3-52-52.1V68.6c0-28.7 23.3-52 52-52h92.5c12.6 0 24.1 4.7 33.1 12.2 2.3-.5 4.4-1.4 6.8-1.4l100.2-1.3c5.8 0 14.8-2.5 26.1-5.9l7.5-2.1C345.7 10.1 379.9 0 460.4 0c128.9 0 161.1 11.8 181.2 66.3.5 1.3.8 2.6 1.1 3.9 2.7 16.3 2.9 30.3.4 42.7 26.3 16.5 41 40.8 41 68.9 0 17.5-3.4 31.2-7.9 41.7 17.4 17.3 26.7 38.9 26.7 62.4-.1 21.5-6.1 37.7-13.7 49.6" clip-rule="evenodd" style="fill: #019df4;"/></svg>
