<?xml version="1.0" encoding="UTF-8"?>
<svg xmlns="http://www.w3.org/2000/svg" viewBox="0 0 702.8 702.8"><path fill="#019df4" fill-rule="evenodd" d="M585.9 659.9V235.6h-91c-34.6 0-64.5-11.5-86.3-32.6-22.1-21.4-33.7-51.1-33.7-85.2V29.4H131.1c-6.4 0-14.2 7.3-14.2 13.8v616.7c0 6.7 7.3 13.5 14.2 13.5h440.2c7.6 0 14.6-6.4 14.6-13.5zm-182-624.1v82c0 26.1 8.7 48.2 24.7 64 16.6 15.9 39.2 24.4 66.3 24.4h83.4L403.9 35.8zm203.8 158.1c4.7 4.7 7.3 10.9 7.3 17.3v448.7c0 23.2-20.1 42.9-43.6 42.9H131.1c-22.9 0-43.3-20-43.3-42.9V43.2C87.8 20.6 108.4 0 131.1 0h268.1c6.4 0 12.2 2.6 16.9 7.1l191.6 186.8zm-97.7 206c8.7-8.8 13.7-19.7 13.7-31.4 0-11.8-5.2-24.4-13.7-32.9-8.1-8.3-19.2-13.3-30.5-13.8h-2c-8.7 0-20.3 2.6-31.4 13.8-7.8 7.9-120.7 108.7-179.1 161l-31.1 91.6c-.3 1.2 0 2.4.9 3l2 1.2c.3 0 .6-.3.9-.3l89.8-30 5.5-4.7c144.2-129 171.5-154 175-157.5zm20.6-85.2c14 14.1 22.1 34.1 22.1 53.8-.3 19.9-7.8 37.9-22.4 52.6-6.7 6.4-65.7 59.6-176.2 158.3l-4.4 4.1c-3.5 3-7.3 5.3-11.3 6.5l-89.5 29.9c-3.5 1.2-6.7 1.8-10.2 1.8-.8 0-1.7-.6-2.9-.6-.6 0-1.4.3-2.3.3h-58.1c-7.8 0-14.5-6.5-14.5-14.7 0-7.9 6.7-14.7 14.5-14.7H207c-.3-4.4-.3-8.8 1.2-13.2l15.7-46.4h-48.6c-7.8 0-14.5-6.8-14.5-14.7 0-8.3 6.7-14.7 14.5-14.7h58.1l4.9-14.7c1.7-5.3 4.9-10.3 9-13.8 11.9-10.6 23.5-21.2 35.2-31.4H175.4c-7.8 0-14.5-6.8-14.5-14.7 0-8.3 6.7-14.7 14.5-14.7h140.7c25-22.6 47.7-43.2 66.3-59.9h-207c-7.8 0-14.5-6.5-14.5-14.7 0-8.3 6.7-14.7 14.5-14.7H415c5.8-5.3 9.6-8.5 10.5-9.7 33-33.2 79.3-26.2 105.1 0z" clip-rule="evenodd" style="fill: #019df4;"/></svg>
