<?xml version="1.0" encoding="UTF-8"?>
<svg xmlns="http://www.w3.org/2000/svg" viewBox="0 0 702.8 702.8"><path fill="#019df4" fill-rule="evenodd" d="M572.5 653.6V245.2H491c-35.7 0-66.2-11.8-89.1-34.2-22.6-22.2-34.8-53-34.8-88.4V43.2H137c-2.5 0-6.5 4-6.8 6v604.4c0 2 3.4 6.1 6.8 6.1h428.4c3.7-.1 7.1-3.5 7.1-6.1zM555 202L409.6 59v63.6c0 23.3 7.6 43.5 22.1 57.6 14.4 14.1 35.1 21.9 59.4 21.9H555zm50.6-10c5.9 5.7 9.3 13.8 9.3 22.1v439.5c0 26.8-22.6 49.2-49.5 49.2H137c-26.3 0-49.2-23.1-49.2-49.2V49.2C87.8 23.6 111.3 0 137 0h260.9c8.2 0 15.8 3.1 21.5 8.9L605.6 192zM489 403.5c6.5-6.6 9.9-14.1 9.9-22.7s-3.7-17.8-9.9-23.9c-5.9-6-13.9-9.8-22.1-10.1-6.5-.6-15.6 1.2-24.1 9.8-9.1 9.2-146.8 133-160.7 145.3l-23.2 70.2 71-24.7c94.3-84.9 153.8-138.7 159.1-143.9zm30-77.4c14.1 14.4 22.4 34.8 22.4 54.7 0 20.4-7.9 38.9-22.7 53.5-7.6 7.5-91.4 83.2-160.4 145.3l-2.5 2.3c-4 3.5-8.2 6-13 7.5l-80.7 27.3c-3.9 1.2-7.9 1.7-11.6 1.7-1.1 0-2.3 0-3.1-.3-.6.3-1.1.3-1.7.3h-52.3c-11.6 0-21.2-9.8-21.2-21.6s9.6-21.6 21.2-21.6h20.7c.3-2 .6-4.3 1.4-6.3l10.2-31.4h-32.3c-11.6 0-21.2-9.8-21.2-21.6 0-12.1 9.6-21.6 21.2-21.6h46.4l2.5-7.5c2.3-6.3 5.9-12.1 10.8-16.4l15.3-13.8h-75c-11.6 0-21.2-9.8-21.2-21.6 0-12.1 9.6-21.6 21.2-21.6h123.1c15.3-13.5 29.4-26.5 42.4-38H193.4c-11.6 0-21.2-9.5-21.2-21.6 0-11.8 9.6-21.6 21.2-21.6h213c3.4-3.5 5.7-5.5 6.5-6.3 33.4-33.5 80.1-26.3 106.1.2z" clip-rule="evenodd" style="fill: #019df4;"/></svg>
