<?xml version="1.0" encoding="UTF-8"?>
<svg xmlns="http://www.w3.org/2000/svg" viewBox="0 0 702.8 702.8"><path fill="#019df4" fill-rule="evenodd" d="M555 202L409.6 59v63.6c0 23.3 7.6 43.5 22.1 57.6 14.4 14.1 35.1 21.9 59.4 21.9H555zm50.6-10c5.9 5.7 9.3 13.8 9.3 22.1v439.5c0 26.8-22.6 49.2-49.5 49.2H137c-26.3 0-49.2-23.1-49.2-49.2V49.2C87.8 23.6 111.3 0 137 0h260.9c8.2 0 15.8 3.1 21.5 8.9L605.6 192zM489 403.5c-5.4 5.2-64.8 59-159 143.9l-71 24.7 23.2-70.2c13.9-12.4 151.7-136.2 160.7-145.3 8.5-8.6 17.5-10.4 24.1-9.8 8.2.3 16.1 4 22.1 10.1 6.2 6 9.9 15.3 9.9 23.9 0 8.6-3.5 16.1-10 22.7zm30-77.4c-26-26.5-72.7-33.7-106.1 0-.9.8-3.1 2.8-6.5 6.3h-213c-11.6 0-21.2 9.8-21.2 21.6 0 12.1 9.6 21.6 21.2 21.6h165.5c-13 11.5-27.2 24.5-42.4 38H193.4c-11.6 0-21.2 9.5-21.2 21.6 0 11.8 9.6 21.6 21.2 21.6h75l-15.3 13.8c-4.8 4.3-8.5 10.1-10.8 16.4l-2.5 7.5h-46.4c-11.6 0-21.2 9.5-21.2 21.6 0 11.8 9.6 21.6 21.2 21.6h32.3l-10.2 31.4c-.8 2-1.1 4.3-1.4 6.3h-20.7c-11.6 0-21.2 9.8-21.2 21.6s9.6 21.6 21.2 21.6h52.3c.6 0 1.1 0 1.7-.3.8.3 2 .3 3.1.3 3.7 0 7.6-.6 11.6-1.7l80.7-27.3c4.8-1.4 9.1-4 13-7.5l2.5-2.3c69-62.2 152.8-137.9 160.4-145.3 14.7-14.6 22.7-33.1 22.7-53.5 0-20.1-8.2-40.5-22.4-54.9z" clip-rule="evenodd" style="fill: #019df4;"/></svg>
