<?xml version="1.0" encoding="UTF-8"?>
<svg xmlns="http://www.w3.org/2000/svg" viewBox="0 0 800 800"><path fill="#019df4" d="M541.9 633.6c-3.1 0-6.3-.5-9.4-1.4L73.2 493.9c-14.1-4.3-24-18-24-33.3V337.4c0-15.5 9.6-28.8 23.9-33.3h.1l459.3-138.3c9.8-3 20.3-1.1 28.6 5.1 8.8 6.5 14 17 14 28.2V599c0 11.1-5.2 21.7-13.9 28.1-5.8 4.3-12.5 6.5-19.3 6.5zm1.6-38zM87.4 458.3l449.5 135.4V204.4L87.4 339.7v118.6zm456.1-255.9z" style="fill: #019df4;"/><path fill="#019df4" d="M67.1 512.4c-10.6 0-19.1-8.6-19.1-19.1V304.7c0-10.6 8.6-19.1 19.1-19.1s19.1 8.6 19.1 19.1v188.6c0 10.6-8.5 19.1-19.1 19.1zM731.5 410.2h-78c-10.8 0-19.5-8.7-19.5-19.5s8.7-19.5 19.5-19.5h78c10.8 0 19.5 8.7 19.5 19.5s-8.7 19.5-19.5 19.5zM302.7 616.7c-2.9 0-5.9-.4-8.8-1.4l-81-25.4c-15.4-4.8-24-21.3-19.2-36.7l8.4-26.7c4.8-15.4 21.3-24 36.7-19.2l81 25.4c7.5 2.3 13.6 7.4 17.2 14.4 3.6 6.9 4.3 14.9 2 22.3l-8.4 26.7c-2.3 7.5-7.4 13.6-14.4 17.2-4.2 2.3-8.8 3.4-13.5 3.4zm-68.8-61l62.4 19.6 2.5-8-62.4-19.6-2.5 8zM706 609.8c-5 0-10-1.9-13.8-5.7l-53.8-53.8c-7.6-7.6-7.6-20 0-27.6s20-7.6 27.6 0l53.8 53.8c7.6 7.6 7.6 20 0 27.6-3.8 3.8-8.8 5.7-13.8 5.7zM651.1 263.5c-5 0-10-1.9-13.8-5.7-7.6-7.6-7.6-20 0-27.6l55.2-55.2c7.6-7.6 20-7.6 27.6 0 7.6 7.6 7.6 20 0 27.6l-55.2 55.2c-3.8 3.8-8.8 5.7-13.8 5.7z" style="fill: #019df4;"/></svg>
