<?xml version="1.0" encoding="UTF-8"?>
<svg xmlns="http://www.w3.org/2000/svg" viewBox="0 0 800 800"><path fill="#019df4" d="M551.1 634.2c-2.3 0-4.6-.3-6.8-1l-476.1-144c-10.5-3.2-17.9-13.5-17.9-25.1V335.9c0-11.6 7.3-21.9 17.9-25.1l476.1-144c7.2-2.2 14.8-.8 21 3.7 6.6 4.9 10.5 12.9 10.5 21.3V608c0 8.5-4 16.5-10.5 21.4-4.3 3.2-9.3 4.8-14.2 4.8zm0-448.6c-.4 0-.7.1-1.1.2l-476.1 144c-2.2.7-3.8 3.2-3.8 6.1v128.3c0 2.9 1.6 5.4 3.8 6.1l476.1 144c1.2.4 2.3.1 3.4-.7 1.6-1.2 2.5-3.2 2.5-5.4V191.9c0-2.2-.9-4.3-2.5-5.4-.8-.6-1.5-.9-2.3-.9z" style="fill: #019df4;"/><path fill="#019df4" d="M58.9 517.2c-5.5 0-9.9-4.4-9.9-9.9V292.8c0-5.5 4.4-9.9 9.9-9.9s9.9 4.4 9.9 9.9v214.5c.1 5.4-4.4 9.9-9.9 9.9zM739.7 400.4h-99.2c-5.5 0-10-4.5-10-10s4.5-10 10-10h99.2c5.5 0 10 4.5 10 10s-4.5 10-10 10zM300.3 612.1c-2 0-4-.3-6-.9l-83-26c-10.5-3.3-16.4-14.5-13.1-25.1l8.6-27.3c3.3-10.5 14.5-16.4 25.1-13.1l83 26c5.1 1.6 9.3 5.1 11.7 9.8 2.5 4.7 3 10.2 1.4 15.2l-8.6 27.3c-1.6 5.1-5.1 9.3-9.8 11.7-2.9 1.6-6.1 2.4-9.3 2.4zm-83-46.1c0 .1 0 .1 0 0l83 26 8.6-27.3-83-26-8.6 27.3zM713.6 605c-2.6 0-5.1-1-7.1-2.9L636.4 532c-3.9-3.9-3.9-10.2 0-14.1 3.9-3.9 10.2-3.9 14.1 0l70.1 70.1c3.9 3.9 3.9 10.2 0 14.1-1.9 1.9-4.5 2.9-7 2.9zM643.8 263.8c-2.6 0-5.1-1-7.1-2.9-3.9-3.9-3.9-10.2 0-14.1l70.1-70.1c3.9-3.9 10.2-3.9 14.1 0 3.9 3.9 3.9 10.2 0 14.1l-70.1 70.1c-1.9 1.9-4.5 2.9-7 2.9z" style="fill: #019df4;"/></svg>
