<?xml version="1.0" encoding="UTF-8"?>
<svg xmlns="http://www.w3.org/2000/svg" viewBox="0 0 800 800"><path fill="#019df4" d="M542 634c-3.2 0-6.5-.5-9.5-1.4L72.9 494.5c-14.2-4.3-24.1-17.8-24.1-33v-123c0-15.1 9.9-28.7 24.1-32.9l459.6-138.1c9.8-3 20.5-1.2 28.8 4.8 9 6.5 14.3 17 14.3 28.1v399.3c0 11.1-5.3 21.6-14.3 28.1-5.7 4-12.4 6.2-19.3 6.2zm1.9-37.4z" style="fill: #019df4;"/><path fill="#019df4" d="M67.1 517c-10.8 0-19.5-8.2-19.5-18.4V301.9c0-10.1 8.7-18.4 19.5-18.4s19.5 8.2 19.5 18.4v196.7c0 10.2-8.7 18.4-19.5 18.4zM731.5 410.2h-78c-10.8 0-19.5-8.7-19.5-19.5s8.7-19.5 19.5-19.5h78c10.8 0 19.5 8.7 19.5 19.5s-8.7 19.5-19.5 19.5zM302.7 616.7c-2.9 0-5.9-.4-8.8-1.4l-81-25.4c-15.4-4.8-24-21.3-19.2-36.7l8.4-26.7c4.8-15.4 21.3-24 36.7-19.2l81 25.4c7.5 2.3 13.6 7.4 17.2 14.4 3.6 6.9 4.3 14.9 2 22.3l-8.4 26.7c-2.3 7.5-7.4 13.6-14.4 17.2-4.2 2.3-8.8 3.4-13.5 3.4zm-68.8-61l62.4 19.6 2.5-8-62.4-19.6-2.5 8zM706 609.8c-5 0-10-1.9-13.8-5.7l-53.8-53.8c-7.6-7.6-7.6-20 0-27.6s20-7.6 27.6 0l53.8 53.8c7.6 7.6 7.6 20 0 27.6-3.8 3.8-8.8 5.7-13.8 5.7zM651.1 263.5c-5 0-10-1.9-13.8-5.7-7.6-7.6-7.6-20 0-27.6l55.2-55.2c7.6-7.6 20-7.6 27.6 0 7.6 7.6 7.6 20 0 27.6l-55.2 55.2c-3.8 3.8-8.8 5.7-13.8 5.7z" style="fill: #019df4;"/></svg>
