<?xml version="1.0" encoding="UTF-8"?>
<svg xmlns="http://www.w3.org/2000/svg" viewBox="0 0 702.8 702.8"><path fill="#019df4" d="M516.7 604.2h-372C64.9 604.2 0 539.2 0 459.5c0-32.3 11.2-63.2 32.4-89.4 19.1-23.7 45-41.3 73-49.8 1.9-58.1 22.4-111 58.3-149.6 38.3-41.3 92.1-64 151.3-64 85 .1 162.6 48.7 199.7 125.3h2.1C619.5 232 703 315.5 703 418.2s-83.7 186-186.3 186zM314.9 146.6c-24.5 0-47.7 4.6-68.8 13.7-20.2 8.7-38.3 21.5-53.2 37.6-30.8 33.2-47.7 79.7-47.7 131.1 0 9.9-4.6 22.9-26.4 29-21.1 6-40.8 19.2-55.4 37.2C52.8 408.4 40 430.4 40 459.5c.1 57.8 46.9 104.6 104.7 104.7h372c80.6 0 146.2-65.6 146.2-146.2s-65.6-146.2-146.2-146.2c-1.8 0-3.9.1-6 .2-1.5.1-2.9.1-4.4.2-5.4.2-18.8-1.2-25.4-17.9l-.1-.3c-29.3-65.3-94.2-107.3-165.9-107.4z" style="fill: #019df4;"/></svg>
