<?xml version="1.0" encoding="UTF-8"?>
<svg xmlns="http://www.w3.org/2000/svg" viewBox="0 0 702.8 702.8"><path fill="#019df4" d="M351.4 699.7c-20.3 0-33.3-23.8-46-46.8-7.6-13.8-18-32.7-25.6-34.7-8.2-2.2-27.3 9.3-41.1 17.7-23 13.9-44.7 27-61.6 17.2-17.2-9.9-16.6-35.5-16-62.6.3-16 .8-38-5-43.8s-27.8-5.4-43.8-5c-27.1.6-52.7 1.1-62.6-16-9.8-17 3.3-38.7 17.1-61.7 8.4-13.9 19.9-32.9 17.7-41.1-2-7.6-20.9-18-34.7-25.6C26.8 384.7 3 371.6 3 351.4s23.8-33.3 46.8-46c13.8-7.6 32.7-18 34.7-25.6 2.2-8.2-9.3-27.3-17.7-41.1-13.9-23-27-44.7-17.2-61.6 9.9-17.2 35.5-16.6 62.6-16 16 .3 38 .8 43.8-5s5.4-27.8 5-43.8c-.6-27.1-1.1-52.7 16-62.6 16.9-9.8 38.6 3.3 61.6 17.2 13.9 8.4 32.9 19.9 41.1 17.7 7.6-2 18-20.9 25.6-34.7C318.1 26.8 331.1 3 351.4 3s33.3 23.8 45.9 46.8c7.6 13.8 18 32.7 25.6 34.7 8.3 2.2 27.3-9.3 41.1-17.7 23-13.9 44.7-27 61.6-17.2 17.2 9.9 16.6 35.5 16 62.6-.3 16-.8 38 5 43.8s27.8 5.4 43.8 5c27.1-.6 52.7-1.1 62.6 16 9.8 16.9-3.3 38.6-17.2 61.6-8.4 13.9-19.9 32.9-17.7 41.1 2 7.6 20.9 18 34.7 25.6 23 12.6 46.8 25.7 46.8 46s-23.7 33.4-46.7 46c-13.8 7.6-32.7 18-34.7 25.6-2.2 8.3 9.3 27.3 17.7 41.1 13.9 23 27 44.7 17.2 61.6-9.9 17.2-35.5 16.6-62.6 16-16-.3-38-.8-43.8 5s-5.4 27.8-5 43.8c.6 27.1 1.1 52.7-16 62.6-16.9 9.8-38.6-3.3-61.6-17.2-13.9-8.4-32.9-19.9-41.1-17.7-7.6 2-18 20.9-25.6 34.7-12.7 23.2-25.8 46.9-46 46.9zM277.6 598c2.5 0 5 .3 7.4.9 15.9 4.2 26.6 23.8 37.9 44.4 8 14.5 20 36.4 28.4 36.4s20.5-21.9 28.4-36.4c11.4-20.7 22.1-40.2 37.9-44.4 16.5-4.4 36 7.4 56.6 19.9 13.8 8.3 34.5 20.9 41.2 17 6.9-4 6.4-28.6 6.1-44.9-.5-23.9-1-46.5 10.9-58.4s34.5-11.4 58.4-10.9c16.3.3 40.9.9 44.9-6.1 3.9-6.7-8.7-27.5-17-41.2-12.5-20.7-24.3-40.2-19.9-56.6 4.2-15.9 23.8-26.6 44.4-37.9 14.5-8 36.4-20 36.4-28.4s-21.9-20.5-36.4-28.4c-20.7-11.4-40.2-22.1-44.4-37.9-4.4-16.5 7.4-36 19.9-56.6 8.3-13.8 20.9-34.6 17-41.2-4-6.9-28.6-6.4-44.9-6.1-23.9.5-46.5 1-58.4-10.9s-11.4-34.4-10.9-58.4c.3-16.3.9-40.8-6.1-44.8-6.7-3.9-27.5 8.7-41.2 17-20.7 12.5-40.2 24.3-56.6 19.9-15.9-4.2-26.6-23.8-37.9-44.4-8-14.5-20-36.4-28.4-36.4S330.9 44.9 323 59.4c-11.4 20.7-22.1 40.2-38 44.4-16.5 4.4-36-7.4-56.6-19.9-13.8-8.3-34.6-20.9-41.2-17-6.9 4-6.4 28.6-6.1 44.9.5 23.9 1 46.5-10.9 58.4s-34.4 11.4-58.4 10.9c-16.3-.4-40.9-.9-44.9 6.1-3.9 6.7 8.7 27.5 17 41.2 12.5 20.6 24.3 40.2 19.9 56.6-4.2 15.9-23.8 26.6-44.4 38-14.5 8-36.4 20-36.4 28.4s21.9 20.5 36.4 28.4c20.7 11.4 40.2 22.1 44.4 37.9 4.4 16.5-7.4 36-19.9 56.6-8.3 13.8-20.9 34.5-17 41.2 4 6.9 28.6 6.4 44.9 6.1 23.9-.5 46.5-1 58.4 10.9s11.4 34.4 10.9 58.3c-.4 16.3-.9 40.9 6.1 44.9 6.7 3.9 27.5-8.7 41.2-17 17.6-10.6 34.4-20.7 49.2-20.7z" style="fill: #019df4;"/></svg>
