<?xml version="1.0" encoding="UTF-8"?>
<svg xmlns="http://www.w3.org/2000/svg" viewBox="0 0 702.8 702.8"><path fill="#019df4" d="M351.4 701.7c-19.1 0-31.1-15.4-35-20.5-6.9-8.9-13-19.9-18.8-30.5-4.9-8.9-13.8-25.2-18.8-28.8-6.4.5-23 10.5-32.1 16-24 14.5-48.8 29.5-70.5 16.9-22-12.7-21.4-41.9-20.8-70.2.2-10.4.6-29.5-2-35.2-5.7-2.6-24.8-2.2-35.2-2-28.3.6-57.5 1.2-70.2-20.8-12.5-21.8 2.4-46.6 16.9-70.6 5.5-9.1 15.5-25.7 16-32.1-3.7-5-19.9-13.9-28.9-18.8-10.6-5.8-21.6-11.9-30.5-18.8C1 370.5 1 356.1 1 351.4c0-19.1 15.4-31.1 20.5-35 8.9-6.9 19.9-13 30.5-18.8 8.9-4.9 25.2-13.8 28.8-18.8-.5-6.4-10.5-23-16-32.1-14.5-24-29.5-48.8-16.9-70.5 12.7-22 41.9-21.4 70.2-20.8 10.4.2 29.5.6 35.2-2 2.6-5.7 2.2-24.8 2-35.2-.6-28.3-1.2-57.5 20.8-70.2 21.8-12.6 46.6 2.4 70.5 16.9 9.1 5.5 25.7 15.5 32 16 5-3.7 13.9-19.9 18.8-28.8 5.8-10.6 11.9-21.6 18.8-30.5 15.9-20.5 30.3-20.5 35-20.5 19.1 0 31.1 15.4 35 20.5 6.9 8.9 13 19.9 18.8 30.5 5 8.9 13.9 25.1 18.9 28.8 6.4-.5 23-10.5 32.1-16 24-14.5 48.8-29.5 70.6-16.9 22 12.7 21.4 41.9 20.8 70.2-.2 10.4-.6 29.5 2 35.2 5.7 2.6 24.8 2.2 35.2 2 28.3-.6 57.5-1.2 70.2 20.8 12.6 21.8-2.4 46.6-16.9 70.5-5.5 9.1-15.5 25.7-16 32.1 3.7 5 19.9 13.9 28.8 18.8 10.6 5.8 21.6 11.9 30.5 18.8 20.5 15.9 20.5 30.3 20.5 35 0 19.1-15.4 31.1-20.5 35-8.9 6.9-19.9 13-30.5 18.8-8.9 4.9-25.2 13.8-28.8 18.8.5 6.4 10.5 23 16 32 14.5 24 29.5 48.8 16.9 70.5-12.7 22-42 21.4-70.2 20.8-10.4-.2-29.5-.6-35.2 2-2.6 5.7-2.2 24.8-2 35.2.6 28.3 1.2 57.5-20.8 70.2-21.8 12.6-46.5-2.4-70.5-16.9-9.1-5.5-25.7-15.5-32-16-5 3.7-13.9 19.9-18.8 28.8-5.8 10.6-11.9 21.6-18.8 30.5-16 20.6-30.4 20.6-35.1 20.6zm71.9-79.9zm-143.8 0zm342.3-198.5zm-540.9 0zM662 353.2zM80.9 279.4zm541 0zm-73.1-126.3zM423.3 80.9z" style="fill: #019df4;"/></svg>
