<?xml version="1.0" encoding="UTF-8"?>
<svg xmlns="http://www.w3.org/2000/svg" viewBox="0 0 702.8 702.8"><path fill="#019df4" d="M351.4 701.7c-19.1 0-31.1-15.4-35-20.5-6.9-8.9-13-19.9-18.8-30.5-4.9-8.9-13.8-25.2-18.8-28.8-6.4.5-23 10.5-32.1 16-24 14.5-48.8 29.5-70.5 16.9-22-12.7-21.4-41.9-20.8-70.2.2-10.4.6-29.5-2-35.2-5.7-2.6-24.8-2.2-35.2-2-28.3.6-57.5 1.2-70.2-20.8-12.6-21.8 2.4-46.5 16.9-70.5 5.5-9.1 15.5-25.7 16-32.1-3.7-5-19.9-13.9-28.9-18.8-10.6-5.8-21.6-11.9-30.5-18.8C1 370.5 1 356.1 1 351.4c0-19.1 15.4-31.1 20.5-35 8.9-6.9 19.9-13 30.5-18.8 8.9-4.9 25.2-13.8 28.8-18.8-.5-6.4-10.5-23-16-32.1-14.5-24-29.5-48.8-16.9-70.5 12.7-22 41.9-21.4 70.2-20.8 10.4.2 29.5.6 35.2-2 2.6-5.7 2.2-24.8 2-35.2-.6-28.3-1.2-57.5 20.8-70.2 21.8-12.6 46.6 2.4 70.5 16.9 9.1 5.5 25.7 15.5 32.1 16 5-3.7 13.9-19.9 18.8-28.8 5.8-10.6 11.9-21.6 18.8-30.5 15.9-20.5 30.3-20.5 35-20.5 19.1 0 31.1 15.4 35 20.5 6.9 8.9 13 19.9 18.8 30.5 5 8.9 13.9 25.1 18.9 28.8 6.4-.5 23-10.5 32-16 24-14.5 48.8-29.5 70.5-16.9 22 12.7 21.4 41.9 20.8 70.2-.2 10.4-.6 29.5 2 35.2 5.7 2.6 24.8 2.2 35.2 2 28.3-.6 57.5-1.2 70.2 20.8 12.6 21.8-2.4 46.6-16.9 70.5-5.5 9.1-15.5 25.7-16 32.1 3.7 5 19.9 13.9 28.8 18.8 10.6 5.8 21.6 11.9 30.5 18.8 20.5 15.9 20.5 30.3 20.5 35 0 19.1-15.4 31.1-20.5 35-8.9 6.9-19.9 13-30.5 18.8-8.9 4.9-25.2 13.8-28.8 18.8.5 6.4 10.5 23 16 32 14.5 24 29.5 48.8 16.9 70.5-12.7 22-42 21.4-70.2 20.8-10.4-.2-29.5-.6-35.2 2-2.6 5.7-2.2 24.8-2 35.2.6 28.3 1.2 57.5-20.8 70.2-21.8 12.6-46.5-2.4-70.5-16.9-9.1-5.5-25.7-15.5-32.1-16-5 3.7-13.9 19.9-18.8 28.8-5.8 10.6-11.9 21.6-18.8 30.5-15.8 20.6-30.2 20.6-34.9 20.6zm-71.9-119.9c3.3 0 6.6.4 9.8 1.3 19.7 5.3 31.2 26.2 43.4 48.3 4.8 8.7 13.3 24.2 18.8 29.2 5.5-5 14-20.5 18.8-29.2 12.2-22.2 23.7-43.1 43.4-48.3 20.3-5.4 42.1 7.8 63.2 20.5 8 4.8 22 13.3 29.2 15.3 1.9-7.3 1.6-24 1.4-33.5-.5-25.6-1.1-49.8 13.6-64.4 14.7-14.7 38.8-14.1 64.4-13.6 9.5.2 26.3.6 33.5-1.4-2-7.2-10.5-21.2-15.3-29.2-12.8-21.1-26-43-20.5-63.2 5.3-19.7 26.2-31.2 48.3-43.4 8.7-4.8 24.2-13.3 29.2-18.8-5-5.5-20.5-14-29.2-18.8-22.2-12.2-43.1-23.7-48.3-43.4-5.4-20.3 7.8-42.1 20.5-63.2 4.8-8 13.3-22 15.3-29.2-7.3-1.9-24-1.6-33.5-1.4-25.6.5-49.8 1.1-64.4-13.6S507 143 507.5 117.4c.2-9.5.6-26.3-1.4-33.6-7.2 2-21.2 10.5-29.2 15.3-21.1 12.8-43 25.9-63.2 20.5-19.7-5.3-31.2-26.2-43.4-48.3-4.8-8.7-13.3-24.2-18.8-29.2-5.5 5-14 20.5-18.8 29.2-12.2 22.2-23.7 43.1-43.4 48.3-3.2.8-6.5 1.3-9.8 1.3-17.4 0-35.7-11-53.5-21.8-8-4.8-22-13.3-29.2-15.3-1.9 7.3-1.6 24-1.4 33.6.5 25.6 1.1 49.8-13.6 64.4s-38.8 14.1-64.4 13.6c-9.5-.2-26.3-.6-33.6 1.4 2 7.2 10.5 21.2 15.3 29.2 12.8 21.1 26 43 20.5 63.2-5.3 19.7-26.2 31.2-48.3 43.4-8.7 4.8-24.2 13.3-29.2 18.8 5 5.5 20.5 14 29.2 18.8 22.2 12.2 43.1 23.7 48.3 43.4 5.4 20.3-7.8 42.1-20.5 63.2-4.8 8-13.3 22-15.3 29.2 7.3 1.9 24 1.6 33.6 1.4 25.6-.5 49.8-1.1 64.4 13.6 14.7 14.7 14.1 38.8 13.6 64.4-.2 9.5-.6 26.3 1.4 33.5 7.2-2 21.2-10.5 29.2-15.3 17.8-10.7 36.1-21.8 53.5-21.8zm143.8 40zm-143.9 0zm269.3-72.1zm-395.6-.9zm468.7-125.5zm-540.9 0zM662 353.2zM80.9 279.4zm541 0zM154 153.1zm269.3-72.2z" style="fill: #019df4;"/></svg>
