<?xml version="1.0" encoding="UTF-8"?>
<svg xmlns="http://www.w3.org/2000/svg" viewBox="0 0 702.8 702.8"><path fill="none" d="M242.8 248.3c-29.3 0-64.1 11.7-64.1 103.7s34.3 102.8 64.1 102.8c29.9 0 63.8-11.7 63.8-102.8s-34.3-103.7-63.8-103.7z"/><path fill="none" d="M365.5 29.3h-31.6c-70.3 0-304.5 25.8-304.5 322.1s234.3 322.1 307.2 322.1h29.3c73.5 0 307.8-29.3 307.8-322.1S439.3 31.3 365.5 29.3zM242.8 487.6c-64.7 0-96.3-45.7-96.3-136.2 0-111.9 51.8-135.6 96.3-135.6s96.9 23.7 96.9 135.6-52.7 136.2-96.9 136.2zm315-16.1c.2 6-4.6 11-10.5 11.1h-8.5c-3.7 0-7.1-1.9-9.1-5L405.3 289v182.4c0 6.1-5 11.1-11.1 11.1h-10c-6-.2-10.8-5.1-10.8-11.1V231.3c0-6 4.9-10.8 10.8-10.8h7.9c3.6-.1 7 1.7 9.1 4.7l125.9 188.9V231.3c0-6 4.9-10.8 10.8-10.8h10c5.8-.2 10.7 4.4 10.8 10.2v.6l-.9 240.2z"/><path fill="#019df4" d="M366 0h-32.5C16.1 2.9 0 292.8 0 351.4s16.1 347.3 335.9 351.4h31.3c56.2 0 335.6-22.5 335.6-351.4S422.3 1.8 366 0zm0 673.5h-29.3c-73.2 0-307.5-26.9-307.5-322.1S263.5 29.3 333.8 29.3h31.6c73.8 2 308.1 29.3 308.1 322.1S439.3 673.5 366.9 673.5h-.9z" style="fill: #019df4;"/><path fill="#019df4" d="M242.8 215.8c-44.5 0-96.3 23.7-96.3 135.6 0 89.9 32.8 135.6 97.5 135.6 44.2 0 96.9-23.7 96.9-135.6S287 215.8 242.8 215.8zm0 239c-29.3 0-64.1-11.7-64.1-102.8s34.3-103.7 64.1-103.7c29.9 0 63.8 11.7 63.8 103.7s-34.3 102.8-63.8 102.8z" style="fill: #019df4;"/><path fill="#019df4" fill-rule="evenodd" d="M547 220.5h-10c-5.6.5-10 5.2-10 10.8V414L401.2 225.2c-2.1-3-5.5-4.7-9.1-4.7h-7.9c-6 0-10.8 4.9-10.8 10.8v240.1c0 6 4.8 11 10.8 11.1h10c6.1 0 11.1-5 11.1-11.1V289l124.5 188.6c2 3.1 5.4 5 9.1 5h8.2c6 0 10.8-4.8 10.8-10.8V231.3c.2-5.8-4.4-10.7-10.2-10.8h-.7z" clip-rule="evenodd" style="fill: #019df4;"/></svg>
