<?xml version="1.0" encoding="UTF-8"?>
<svg xmlns="http://www.w3.org/2000/svg" viewBox="0 0 702.8 702.8"><path fill="#019df4" fill-rule="evenodd" d="M366.1 659.6c68.9-1.3 293.7-27.2 293.7-307.3S433.9 45 364.7 43.4c-9.4-.3-20.6-.5-30.5-.3-68.3.6-291.1 24.6-291.1 307.3 0 283.2 224.7 308.4 293.6 309.4 9.8.1 20.6 0 29.4-.2zM365.7.3c56.2 1.3 337.1 24.6 337.1 351.9 0 327.5-279.8 349.3-335.9 350.3-6 .1-12.8.2-19.7.2-3.8 0-7.5 0-11.2-.1C279.9 701.8 0 681 0 350.2 0 292.2 16.1 2.7 333.7-.1c10.6 0 22.3.2 32 .4zm-135.6 459c29.1 0 58.9-11.5 58.9-97.1 0-86.6-31.5-97.7-58.9-97.7-29.3 0-59.2 11.6-59.2 97.7 0 85.6 29.9 97.1 59.2 97.1zm0-233.8c44.9 0 98.6 23.7 98.6 136.7 0 112.7-53.6 136.4-98.6 136.4-45.1 0-98.9-23.6-98.9-136.4 0-113 53.8-136.7 98.9-136.7zm297.8 4.5c7.9 0 14.3 6.4 14.3 14.3v235.1c0 7.9-6.4 14.3-14.3 14.3H520c-4.8 0-9.3-2.4-12-6.4L392.6 312.6v166.8c0 7.9-6.4 14.3-14.3 14.3h-9.6c-7.9 0-14.3-6.4-14.3-14.3V244.3c0-7.9 6.4-14.3 14.3-14.3h7.6c4.8 0 9.3 2.4 12 6.4L504 411.2V244.3c0-7.9 6.4-14.3 14.3-14.3h9.6z" clip-rule="evenodd" style="fill: #019df4;"/></svg>
