<?xml version="1.0" encoding="UTF-8"?>
<svg xmlns="http://www.w3.org/2000/svg" viewBox="0 0 702.8 702.8"><path fill="#019df4" fill-rule="evenodd" d="M546.3 482.1v-240c0-8.1-6.6-14.6-14.6-14.6h-9.8c-8.1 0-14.6 6.6-14.6 14.6v170.4L389 234c-2.7-4.1-7.3-6.6-12.2-6.6H369c-8 0-14.6 6.6-14.6 14.6v240c0 8.1 6.6 14.6 14.6 14.6h9.8c8.1 0 14.6-6.6 14.6-14.6V311.9l117.8 178.3c2.7 4.1 7.3 6.6 12.2 6.6h8.1c8.2 0 14.8-6.6 14.8-14.7zm-318.7 19.6c45.9 0 100.6-24.1 100.6-139.2 0-115.4-54.7-139.6-100.6-139.6-46.1 0-101 24.2-101 139.6 0 115 54.9 139.2 101 139.2zM365.8.3c56.2 1.3 337 24.6 337 352 0 327.6-279.7 349.3-335.7 350.3-6.1.1-13 .2-20.1.2-3.7 0-7.6 0-11.2-.1C16.2 698.1 0 408.3 0 350.3S16.1 2.7 333.4 0c10.7-.1 22.5.1 32.4.3zM227.6 262.7c28 0 60.1 11.4 60.1 99.8 0 87.3-30.4 99.1-60.1 99.1-29.9 0-60.5-11.8-60.5-99.1 0-88 30.6-99.8 60.5-99.8z" clip-rule="evenodd" style="fill: #019df4;"/></svg>
