<?xml version="1.0" encoding="UTF-8"?>
<svg xmlns="http://www.w3.org/2000/svg" viewBox="0 0 702.8 702.8"><path fill="#019df4" fill-rule="evenodd" d="M231.9 181.4c-4.2-3.9-6.2-9.5-6.2-16.9 0-7.5 2.1-13.2 6.2-17 4-3.7 9.8-5.6 17.2-5.6 7.4 0 13.2 1.8 17.2 5.6 4.1 3.9 6.3 9.6 6.3 17s-2.2 13.1-6.3 16.9c-4 3.7-9.8 5.6-17.2 5.6-7.4 0-13.2-1.9-17.2-5.6zm394.8 375.5c1.7-14.2-3.8-25.1-10.9-31.7-7.1-6.6-18.6-10.1-34-10.1-15.4 0-26.8 3.4-34 10.1-7.4 6.9-11.2 18.1-11.2 33.5 0 .5-.3 1-.3 1.6l-6.3 59.9c.1 13.1 3.3 22.9 9.7 28.8 6.2 5.7 16.4 8.7 30.1 8.7 13.6 0 23.7-3 30-8.7 1.5-1.5 2.7-3.3 3.9-5.1 0-.1 20.3-64.8 23-87zm-463.5 92c6.4-5.9 9.5-15.6 9.7-28.8l-6.3-59.9c0-.5-.3-1-.3-1.6 0-15.3-3.8-26.6-11.1-33.5-7.3-6.7-18.7-10.1-34.1-10.1s-26.8 3.4-34 10.1c-7.1 6.6-12.5 17.5-10.9 31.7 2.6 22.3 23 86.9 23 86.9 1.1 1.9 2.3 3.7 3.9 5.1 6.3 5.7 16.3 8.7 30 8.7 13.7.2 23.8-2.8 30.1-8.6zM98.3 370.5c-39 44.1-13.8 76.9 4.7 92.5l5.8 4.8c1 .8 2.6 1.9 4 2.8.8 0 1.7-.2 2.5-.2-.5-7-1.4-13.8-1.4-21.1 0-40.6 7.4-75.8 20.5-106.3-13.1 7.7-27.3 17.7-36.1 27.5zm62.1-257.2c9.2-24.7 22.9-45.6 41.1-62.8-14.1-5.6-27.9-1.3-40.9 13.4-15.8 18-15.5 34.5-.2 49.4zm191-68.2c-51 0-90.2 12.5-116.6 37.1-27.3 25.4-41.2 64.2-41.2 115.2s13.9 89.6 41.2 114.9c22.1 20.5 53.8 32 93.4 35.4V235.9c-5.5-2.3-10.5-5.2-14.7-9.1-5.5-5.1-8.6-9.9-11.2-17.3 0 0-1.6-5.4-1.6-9.5 0-3.5 2-8.5 2-8.5 2.6-5.3 5.3-9.1 9.5-13.1 9.7-8.9 22.9-13.5 39.1-13.8 16.3.3 29.5 4.9 39.1 13.8 4.3 3.9 7 7.8 9.5 13.1 0 0 2 5.1 2 8.5 0 4-1.5 9.5-1.5 9.5-2.6 7.5-5.7 12.2-11.2 17.3-4.2 3.9-9.2 6.9-14.7 9.1v111.8c39.6-3.3 71.3-14.8 93.5-35.4 27.3-25.3 41.1-64 41.1-114.9 0-51-13.8-89.8-41.1-115.2-26.4-24.6-65.6-37.1-116.6-37.1zm190.8 18.8c-13-14.7-26.8-19-40.9-13.4 18.2 17.2 32 38.1 41.2 62.8 15.3-14.9 15.6-31.4-.3-49.4zm62.3 306.6c-8.7-9.8-22.9-19.8-36.1-27.4 13.1 30.5 20.4 65.7 20.4 106.3 0 7.3-.9 14.1-1.4 21.1.8 0 1.7.2 2.5.2 1.4-.9 3.1-2.1 4-2.8l5.9-4.8c18.5-15.7 43.7-48.5 4.7-92.6zm43.9 122.3c16.1 15 24.4 34.3 25.1 60.7 0 1.1-.2 5.3-.6 7.8-.3 2.8-1.5 9.6-1.5 9.6l-23.2 87.7c-.2 1-.9 1.8-1.3 2.8-.2.7-.2 1.4-.6 2-.2.4-.6.7-.8 1.1-.7 1-1.3 1.9-2.2 2.7-3.2 5.1-6.6 10.2-11 14.3-15.3 14.1-36.3 21.3-62.6 21.3-26.3 0-47.4-7.2-62.6-21.3-10-9.2-16.6-21.1-20.4-34.8-35.5 19.5-79.6 29.2-133.6 29.2-.7 0-1.1-.1-1.8-.1-.6 0-1.2.1-1.8.1-54 0-98-9.7-133.6-29.2-3.8 13.8-10.3 25.6-20.3 34.8-15.4 14.1-36.5 21.3-62.6 21.3-26.3 0-47.3-7.2-62.6-21.3-4.5-4.1-7.8-9.2-11.1-14.3-.7-.8-1.5-1.7-2.1-2.7-.3-.4-.7-.7-.9-1.1-.3-.6-.3-1.4-.6-2-.4-1-1-1.8-1.3-2.8l-23.2-87.7s-1.2-6.7-1.6-9.6c-.4-2.5-.6-6.6-.6-7.8.8-26.3 8.9-45.6 25.1-60.7 2.3-2.1 4.9-3.7 7.5-5.5-32.7-34.3-49.5-89.4.8-146.1 21.6-24.4 68.3-52 94.3-55.8 1.9-.3 2.7-1 4.8-1.4-.4-.8 0 0-.3-.8-9.6-24.9-14.7-53.4-14.7-85.8 0-12.5 1.3-24.2 2.8-35.6-.7-.4-1.6-.2-2.3-.6-5.3-3.3-8.2-5.4-10-6.9l-5-4c-28.9-24.4-48.1-69.3-7.1-115.5 40.7-45.9 89.1-35.2 118.6-12C273.5 8.2 309.2.1 351.4.1s77.9 8.1 107.9 22.7c29.5-23.2 78-33.9 118.6 12 41 46.2 21.8 91.1-7.2 115.5l-4.9 4c-1.9 1.5-4.8 3.6-10.1 6.9-.7.4-1.5.3-2.4.6 1.5 11.5 2.8 23.1 2.8 35.6 0 32.4-5.1 60.9-14.7 85.8l-.3.8c2 .4 2.8 1.1 4.7 1.4 26 3.8 72.7 31.4 94.4 55.8 50.2 56.7 33.4 111.7.7 146.1 2.5 1.7 5.2 3.4 7.5 5.5zM453.7 187c-7.4 0-13.2-1.9-17.2-5.6-4.2-3.8-6.3-9.5-6.3-16.9 0-7.4 2.1-13.2 6.3-16.9 4-3.8 9.9-5.7 17.2-5.7 7.4 0 13.2 1.9 17.2 5.7 4.2 3.8 6.2 9.5 6.2 16.9 0 7.4-2.1 13.1-6.2 16.9-4 3.7-9.8 5.6-17.2 5.6z" clip-rule="evenodd" style="fill: #019df4;"/></svg>
