<?xml version="1.0" encoding="UTF-8"?>
<svg xmlns="http://www.w3.org/2000/svg" viewBox="0 0 702.8 702.8"><path fill="#019df4" fill-rule="evenodd" d="M229.4 177.3c-4.2-3.9-6.4-9.7-6.4-17.3 0-7.6 2.1-13.5 6.4-17.4 4.1-3.8 10-5.7 17.7-5.7 7.6 0 13.6 1.9 17.7 5.7 4.2 3.9 6.4 9.8 6.4 17.4 0 7.6-2.2 13.4-6.4 17.3-4.1 3.8-10.1 5.7-17.7 5.7s-13.5-2-17.7-5.7zm226.3 5.7c-7.6 0-13.6-1.9-17.7-5.7-4.3-3.9-6.4-9.7-6.4-17.3s2.1-13.4 6.4-17.3c4.1-3.8 10.1-5.8 17.7-5.8s13.6 1.9 17.7 5.8c4.3 3.9 6.4 9.7 6.4 17.3s-2.2 13.4-6.4 17.3c-4.2 3.8-10.2 5.7-17.7 5.7zM641 561.5c.2-2 0-4.6-.1-5.6-1.2-15-5.3-24.9-13.5-32.5-8.9-8.3-22.5-12.4-40.4-12.4s-31.6 4.2-40.5 12.5c-6.6 6.1-10.8 14.7-12.7 25.6l-.8 7.9c-.2 2.1-.5 4-.5 6.2 0 .7-.4 1.4-.5 2.1l-6.4 60.4c.1 15.8 4.2 27.7 12.5 35.2 7.9 7.3 20.3 11.1 36.5 11.1s28.4-3.7 36.3-11.1c2.4-2.2 4.2-4.8 5.9-7.6 0 0 16.6-64.1 22.8-85.9.5-1 1.3-4 1.4-5.9zm-137.1-24.4c3.7-14.3 10.3-26.5 20.4-35.8 7.7-7 17-12.3 27.6-15.9 1.2-10.9 2.2-22.1 2.2-34 0-55.2-13.4-99.2-39.6-131.3-5.2 6.6-10.1 13.3-16.3 19.1-34.5 31.8-83.8 47.9-146 48.2v.1c-.3 0-.5-.1-.8-.1-.2 0-.4.1-.7.1v-.1c-62.4-.3-111.5-16.4-146.1-48.2-6.1-5.7-11.1-12.5-16.3-19.1-26.2 32.1-39.6 76.1-39.6 131.3 0 11.9.9 23.1 2.2 34 10.7 3.5 19.9 8.9 27.6 15.9 10.1 9.3 16.6 21.5 20.3 35.8.8 1.5 1.4 3.1 1.6 4.8l.2 1.7c.4 1.8.4 3.8.7 5.7l5.4 51.6C240 630 287 644.4 350.5 644.4h.2v-.1h1.5v.1h.2c63.5 0 110.5-14.4 143.8-43.5l5.5-51.6c.3-1.9.3-3.9.7-5.7l.2-1.7c-.1-1.7.6-3.3 1.3-4.8zM164.6 660.9c8.2-7.5 12.4-19.4 12.5-35.2l-6.5-60.4c-.1-.7-.4-1.4-.4-2.1 0-2.2-.3-4.2-.5-6.2l-.8-7.9c-2-10.9-6.1-19.5-12.7-25.6-9-8.3-22.6-12.5-40.5-12.5s-31.5 4.2-40.4 12.4C67.1 531 63 541 61.8 555.9c-.1.9-.3 3.6-.1 5.6.1 1.9 1 4.9 1.3 5.8 6.1 21.8 22.8 85.9 22.8 85.9 1.7 2.9 3.6 5.5 5.9 7.6 8 7.4 20.2 11.1 36.4 11.1s28.5-3.7 36.5-11zm-78.3-295c-46.3 52-11.5 90.9 5.6 105.3 2.2 1.8 4.4 3.6 6.3 5 1.5 1.3 4 3 6.8 4.8 3.6-.3 6.9-.8 10.6-.8 1 0 1.8.2 2.8.2-.8-9.5-1.8-18.9-1.8-29 0-51.3 11.1-94.2 31.9-128.8-20.6 10.4-49.1 28.6-62.2 43.3zm74.3-243.5c8.9-29.3 23.2-54.3 44-73.6 2.4-2.2 5.5-3.8 8.1-5.9-13.8-9.6-37.6-18-62.3 9.9-27.3 30.6-9.7 53.4 3.2 64.2l4.1 3.4c.7.5 1.9 1.3 2.9 2zm190.8-91.5c-54 .2-95.9 13.6-124.5 40-29.6 27.5-44.7 68.9-44.7 123.2s15.1 95.6 44.7 123c25.7 23.7 62.9 36.3 109.6 38.7V236c-9-2.2-16.8-6-23-11.8-5.7-5.2-10.2-11.8-12.3-19.5-.5-2.1-.8-4.6-.9-8.4-.1-3.7.8-5.5 1.6-7.3 2.5-5.4 5.8-10.3 10.2-14.3 9.6-8.8 22.7-13.3 38.6-13.9v-.2c.3 0 .5.1.7.1.3 0 .5-.1.8-.1v.2c15.8.6 28.9 5 38.6 13.9 4.4 4.1 7.6 8.9 10.2 14.3.8 1.8 1.7 3.6 1.6 7.3-.1 3.8-.4 6.3-.9 8.4-2.1 7.7-6.5 14.3-12.2 19.5-6.2 5.8-14 9.6-23 11.8v119.8c46.6-2.5 83.9-15.1 109.5-38.7 29.7-27.4 44.8-68.7 44.8-123S505.7 98.4 476 70.9c-28.7-26.4-70.6-39.9-124.6-40zm201.1 21.8c-24.8-27.9-48.5-19.5-62.3-9.9 2.6 2.1 5.6 3.7 8 5.9 20.8 19.3 35.1 44.3 44 73.6 1-.7 2.2-1.5 3-2l4.1-3.4c12.8-10.7 30.5-33.5 3.2-64.2zm63.9 313.2c-13-14.7-41.5-32.9-62.1-43.2 20.9 34.6 31.9 77.5 31.9 128.8 0 10.1-1 19.5-1.9 29 1 0 1.8-.2 2.8-.2 3.8 0 7.1.5 10.6.8 2.7-1.8 5.2-3.5 6.8-4.8 1.9-1.5 4.2-3.3 6.4-5 17.1-14.5 51.8-53.5 5.5-105.4zm56.9 192.8s0 2.2.1 2.2c0 0-.1 3-.5 4.9-.4 2.8-1.8 8.2-1.9 8.9l-23.6 88.6c-.1.3-.4.5-.5.8-.3.8-.3 1.7-.8 2.5-3.3 6.2-7.7 11.8-12.7 16.4-14.2 13.1-33.9 19.7-58.7 19.7-24.9 0-44.6-6.6-58.8-19.6-11.5-10.5-18.5-24.7-21.1-42.1v-.1c-36.7 22.9-83.6 34.3-142.5 34.3h-1.9c-58.9 0-105.7-11.4-142.5-34.3v.1c-2.7 17.3-9.6 31.5-21.2 42.1-14.1 13-33.9 19.6-58.7 19.6-24.8 0-44.6-6.6-58.7-19.7-5-4.7-9.4-10.2-12.7-16.4-.5-.8-.5-1.7-.8-2.5-.1-.3-.5-.5-.5-.8l-23.6-88.6c-.2-.6-1.4-6.1-1.9-8.9-.4-2-.5-4.9-.5-4.9v-2.2c.5-25.3 8.3-43.2 23.4-57.4 4.4-4 9.3-7.3 14.7-10.2-36.9-33-57.1-87.4-5.6-145.2 21.5-24.1 77.8-56.6 101.8-61.5.7-.1 3.1-.8 3.1-.8-10.7-25.5-16.7-55.5-16.7-89.5 0-14.8 1.2-28.6 3.2-41.8-1.9-.2-3.9-.4-5.6-1.3-.9-.5-2.6-1.4-3.3-2-2.6-1.6-5.3-3.6-7.1-5l-4.9-4c-27-22.6-44.8-64.3-6.6-107.3C164.1-10.4 209.6 0 237 21.9c1 .9 1.7 1.9 2.4 2.9C269.7 8.8 306.8.3 350.6.1V0h1.5v.1c43.8.2 80.8 8.8 111.2 24.7.7-1 1.4-2.1 2.4-2.9C493.1 0 538.6-10.3 577 32.7c38.3 43 20.4 84.6-6.5 107.3l-4.9 4c-1.7 1.4-4.4 3.4-7 5-.8.6-2.4 1.5-3.3 2-1.7.8-3.7 1-5.6 1.3 2 13.2 3.2 27 3.2 41.8 0 34-6.1 64-16.7 89.5 0 0 2.3.7 3.1.8 23.9 5 80.3 37.4 101.8 61.5 51.5 57.8 31.3 112.2-5.6 145.2 5.3 2.9 10.4 6.2 14.7 10.2 14.9 14.2 22.6 32.2 23.1 57.4z" clip-rule="evenodd" style="fill: #019df4;"/></svg>
