<?xml version="1.0" encoding="UTF-8"?>
<svg xmlns="http://www.w3.org/2000/svg" viewBox="0 0 702.8 702.8"><path fill="#019df4" fill-rule="evenodd" d="M231.9 181.5c-4.2-3.9-6.2-9.5-6.2-16.9 0-7.5 2-13.2 6.2-17.1 4-3.7 9.8-5.6 17.2-5.6 7.4 0 13.2 1.9 17.2 5.6 4.1 3.9 6.3 9.6 6.3 17s-2.2 13.1-6.3 16.9c-4 3.7-9.9 5.6-17.2 5.6-7.4.1-13.1-1.8-17.2-5.5zm394.7 375.3c1.7-14.2-3.8-25.1-10.9-31.6-7.1-6.6-18.5-10-33.9-10-15.4 0-26.8 3.4-34 10.1-7.4 6.9-11.2 18.1-11.2 33.4 0 .5-.3 1-.3 1.6l-6.3 59.8c.1 13.2 3.3 22.9 9.7 28.8 6.2 5.7 16.4 8.7 30.1 8.7 13.6 0 23.7-2.9 30-8.7 1.5-1.5 2.7-3.3 3.9-5.1-.1-.1 20.2-64.7 22.9-87zm-133.9-23.3c3.7-16.4 11-30.2 22.5-40.8 7.1-6.6 15.5-11.4 24.8-15.1.9-9.1 1.8-18.3 1.8-28.2 0-48-11-86.6-31.6-115.9-3.3 3.7-5.9 8-9.6 11.4-35.4 32.8-85.6 49.4-149.2 49.4-63.5 0-113.8-16.6-149.1-49.4-3.7-3.4-6.4-7.6-9.7-11.4-20.5 29.3-31.6 67.8-31.6 115.9 0 9.9.9 19.1 1.8 28.2 9.3 3.7 17.7 8.6 24.8 15.1 11.4 10.6 18.8 24.4 22.5 40.8.4 1.2 1.1 2.3 1.2 3.6l.1 1c.2 1.3.3 2.8.4 4.1l5.2 49.4c30.8 26 73.9 39 132.6 39 .6 0 1.2-.1 1.8-.1.7 0 1.1.1 1.8.1 58.6 0 101.8-13.1 132.5-39l5.2-49.4c.2-1.3.3-2.8.5-4.1l.1-1c.1-1.3.8-2.3 1.2-3.6zM163.2 648.9c6.4-5.9 9.5-15.6 9.7-28.8l-6.3-59.8c0-.5-.4-1.1-.4-1.6 0-15.3-3.8-26.6-11.1-33.4-7.3-6.7-18.7-10.1-34.1-10.1s-26.8 3.4-33.9 10c-7.1 6.6-12.5 17.4-10.9 31.6 2.7 22.3 23 86.9 23 86.9 1.1 1.9 2.3 3.7 3.9 5.1 6.3 5.7 16.3 8.7 30 8.7 13.8.1 23.9-2.9 30.1-8.6zM98.4 370.5c-39 44.1-13.8 76.9 4.7 92.5l5.8 4.8c1 .8 2.7 1.9 4 2.8.8-.1 1.7-.2 2.5-.2-.4-7.1-1.4-13.7-1.4-21.1 0-40.7 7.4-75.8 20.5-106.3-13.1 7.6-27.3 17.7-36.1 27.5zm62.1-257.1c9.1-24.6 22.8-45.6 41-62.7-14.1-5.6-27.9-1.3-40.9 13.4-15.7 17.8-15.5 34.4-.1 49.3zm190.9-68.2c-51 0-90.2 12.4-116.6 37.1-27.3 25.4-41.2 64.2-41.2 115.2s13.9 89.6 41.2 114.9c22.1 20.5 53.7 32 93.4 35.3V235.9c-5.5-2.3-10.5-5.2-14.7-9.1-5.5-5.1-8.6-9.9-11.2-17.3 0 0-1.6-5.4-1.6-9.5 0-3.5 2-8.5 2-8.5 2.6-5.3 5.3-9.1 9.5-13.1 9.7-8.9 22.9-13.5 39.1-13.8 16.3.3 29.5 4.9 39.1 13.8 4.3 3.9 7 7.8 9.6 13.1 0 0 2 5 2 8.5 0 4-1.5 9.5-1.5 9.5-2.6 7.5-5.7 12.2-11.2 17.3-4.2 3.9-9.2 6.8-14.7 9.1v111.8c39.6-3.3 71.3-14.8 93.4-35.3 27.3-25.3 41.1-63.9 41.1-114.9 0-51-13.8-89.8-41.1-115.2-26.4-24.6-65.6-37.1-116.6-37.1zM542.2 64c-13-14.7-26.8-18.9-40.9-13.4 18.2 17.1 32 38.1 41.1 62.7 15.3-14.8 15.6-31.4-.2-49.3zm62.2 306.5c-8.7-9.8-22.9-19.8-36.1-27.4 13.1 30.5 20.4 65.6 20.4 106.3 0 7.3-.9 14-1.4 21.1.8 0 1.7.1 2.5.2 1.4-.9 3.1-2.1 4-2.8l5.9-4.8c18.5-15.8 43.7-48.5 4.7-92.6zm43.9 122.2c16.2 15 24.4 34.3 25.1 60.6 0 1.1-.2 5.3-.6 7.8-.3 2.8-1.5 9.6-1.5 9.6l-23.2 87.7c-.2 1-.9 1.8-1.3 2.8-.2.7-.2 1.4-.6 2-.3.4-.7.7-.8 1.1-.7 1-1.3 1.8-2.2 2.7-3.2 5.1-6.6 10.2-11 14.3-15.3 14.1-36.3 21.3-62.6 21.3-26.2 0-47.4-7.2-62.6-21.3-10-9.2-16.6-21-20.4-34.8-35.5 19.5-79.6 29.2-133.5 29.2-.7 0-1.1-.1-1.8-.1-.6 0-1.1.1-1.8.1-54 0-98-9.7-133.6-29.2-3.8 13.8-10.3 25.6-20.3 34.8-15.4 14.1-36.4 21.3-62.6 21.3-26.2 0-47.3-7.2-62.6-21.3-4.5-4.1-7.8-9.1-11.1-14.3-.7-.9-1.5-1.7-2.1-2.7-.2-.4-.7-.7-.9-1.1-.3-.7-.3-1.4-.6-2-.4-1-1-1.8-1.3-2.8l-23.1-87.7s-1.3-6.7-1.6-9.6c-.4-2.5-.6-6.6-.6-7.8.8-26.3 8.9-45.6 25.1-60.6 2.3-2.1 4.9-3.8 7.4-5.5-32.7-34.3-49.5-89.3.8-146 21.6-24.4 68.3-52 94.2-55.8 1.9-.3 2.7-1 4.8-1.4l-.3-.8c-9.6-24.9-14.8-53.4-14.8-85.7 0-12.6 1.3-24.1 2.8-35.6-.7-.4-1.6-.2-2.3-.6-5.3-3.3-8.2-5.4-10-6.9l-5-4c-28.9-24.4-48.1-69.3-7.1-115.5 40.7-45.9 89.1-35.2 118.6-12C273.3 8.3 309 .2 351.2.2s77.9 8.1 107.9 22.7C488.6-.3 537-11 577.6 34.9c40.9 46.2 21.8 91.1-7.1 115.5l-4.9 4c-1.9 1.5-4.8 3.6-10.1 6.9-.7.4-1.5.3-2.3.6 1.4 11.5 2.8 23 2.8 35.6 0 32.4-5.1 60.8-14.7 85.7l-.3.8c2 .4 2.8 1.1 4.7 1.4 26 3.8 72.7 31.4 94.3 55.8 50.2 56.7 33.4 111.7.7 146 2.6 1.8 5.3 3.4 7.6 5.5zM453.7 187c-7.4 0-13.2-1.9-17.2-5.6-4.2-3.8-6.3-9.5-6.3-17 0-7.4 2.1-13.1 6.3-16.9 4-3.8 9.9-5.7 17.2-5.7 7.4 0 13.2 1.9 17.2 5.7 4.2 3.8 6.2 9.5 6.2 17 0 7.4-2 13.1-6.2 16.9-4 3.8-9.8 5.6-17.2 5.6z" clip-rule="evenodd" style="fill: #019df4;"/></svg>
