<?xml version="1.0" encoding="UTF-8"?>
<svg xmlns="http://www.w3.org/2000/svg" viewBox="0 0 702.8 702.8"><path fill="#019df4" fill-rule="evenodd" d="M585.7 659.7V235.8h-90.9c-34.8 0-64.6-11.5-86.5-32.8-21.9-21.6-33.6-50.8-33.6-85.1V29.6H131.4c-6.4 0-14.3 7.4-14.3 13.6v205.6l1.5 291-1.5 120.2c0 6.5 7.3 13.3 14.3 13.3h440c7.3 0 14.3-6.5 14.3-13.6zM404 36v81.8c0 26 8.5 48.2 24.9 63.8 16.1 15.9 39.2 24.5 66 24.5h82.9L404 36zm209.8 169.3c.6 2.1 1.2 3.8 1.2 5.9v448.4c0 23.3-20.2 43.1-43.5 43.1h-440c-23.1 0-43.5-20.1-43.5-43.1l1.5-119.9L88 249V43.1C88 20.6 108.8 0 131.5 0h267.9c6.2 0 12.6 2.7 16.9 7.1l191.4 186.7c3.1 3.2 4.9 7.4 6.1 11.5zM466.2 475c0 15.7-11.1 26.9-26 26.9-15.5 0-26.6-11.2-26.6-26.3v-.6c0-14.8 11.4-26.6 26-26.6 15.2.1 26.6 11.9 26.6 26.6zm-97.9 0c0 15.7-11.4 26.9-26.3 26.9-15.2 0-26.6-11.2-26.6-26.3v-.6c0-14.8 11.4-26.6 26.3-26.6 15 .1 26.6 11.9 26.6 26.6zm-98.1 0c0 15.7-11.4 26.9-26.3 26.9-15.2 0-26.6-11.2-26.6-26.3v-.6c0-14.8 11.7-26.6 26.3-26.6 15.2.1 26.6 11.9 26.6 26.6z" clip-rule="evenodd" style="fill: #019df4;"/></svg>
