<?xml version="1.0" encoding="UTF-8"?>
<svg xmlns="http://www.w3.org/2000/svg" viewBox="0 0 702.8 702.8"><path fill="#019df4" fill-rule="evenodd" d="M409.9 59.6v62.8c0 23.8 7.4 43.4 21.9 57.6 14.5 14.2 35 21.7 59.5 21.7h63.1L409.9 59.6zm203.3 145.9c1.1 2.6 1.7 5.5 1.7 8.7v439.4c0 26.6-22.5 49.2-49.5 49.2H137.3c-26.2 0-49.5-22.9-49.5-49.2l1.5-117.8L87.8 251V49.2C87.8 23.4 111.4 0 137.3 0h260.6c8.3 0 16.2 3.2 21.9 9l186 182.9c3.7 3.8 6 8.4 7.4 13.6zM378.6 468.9c0-18.5-14.2-33.3-32.7-33.3-18.5 0-32.7 14.7-32.7 33.3v.6c0 18.5 14.2 33 33 33 18.2 0 32.4-14.5 32.4-33.6zm110.9 0c0-18.5-14.2-33.3-32.7-33.3-18.5 0-32.7 14.7-32.7 33.3v.6c0 18.5 14.2 33 33 33 18.2 0 32.4-14.5 32.4-33.6zm-221.9 0c0-18.5-14.2-33.3-33-33.3-18.2 0-32.4 14.7-32.4 33.3v.6c0 18.5 14.2 33 32.7 33 18.5 0 32.7-14.5 32.7-33.6z" clip-rule="evenodd" style="fill: #019df4;"/></svg>
