<?xml version="1.0" encoding="UTF-8"?>
<svg xmlns="http://www.w3.org/2000/svg" viewBox="0 0 702.8 702.8"><path fill="#019df4" fill-rule="evenodd" d="M378.6 468.9c0 19.1-14.2 33.6-32.5 33.6-18.8 0-33-14.5-33-33v-.6c0-18.5 14.2-33.3 32.7-33.3 18.6.1 32.8 14.8 32.8 33.3zm193.7 184.7V245.2h-81.1c-35.8 0-66.6-11.6-89-33.9-23.1-22.6-35-53.3-35-88.9v-79H137.4c-2.6 0-6.6 3.8-6.8 6.1V251l1.5 285.1-1.5 117.8c0 1.7 3.4 5.5 6.8 5.5h428.1c3.7 0 6.8-3.2 6.8-5.8zm-162.4-594v62.8c0 23.8 7.4 43.4 21.9 57.6 14.5 14.2 35 21.7 59.5 21.7h63.1L409.9 59.6zm203.3 145.9c1.1 2.6 1.7 5.5 1.7 8.7v439.4c0 26.6-22.5 49.2-49.5 49.2H137.3c-26.2 0-49.5-22.9-49.5-49.2l1.5-117.8L87.8 251V49.2C87.8 23.4 111.4 0 137.3 0h260.6c8.2 0 16.2 3.2 21.9 9l186 182.9c3.7 3.8 6 8.4 7.4 13.6zM489.5 468.9c0 19.1-14.2 33.6-32.4 33.6-18.8 0-33-14.5-33-33v-.6c0-18.5 14.2-33.3 32.7-33.3 18.5.1 32.7 14.8 32.7 33.3zm-221.9 0c0 19.1-14.2 33.6-32.7 33.6s-32.7-14.5-32.7-33v-.6c0-18.5 14.2-33.3 32.4-33.3 18.8.1 33 14.8 33 33.3z" clip-rule="evenodd" style="fill: #019df4;"/></svg>
