<?xml version="1.0" encoding="UTF-8"?>
<svg xmlns="http://www.w3.org/2000/svg" viewBox="0 0 702.8 702.8"><path fill="#019df4" fill-rule="evenodd" d="M30.1 251.3C13.5 251.3 0 237.8 0 221.2V30.1C0 13.5 13.5 0 30.1 0h191.2c16.6.6 29.6 14.6 29 31.3-.6 15.7-13.2 28.4-29 29H60.2v161c0 16.5-13.5 30-30.1 30zm191.5 391.3c16.6.6 29.6 14.6 29 31.3-.6 15.7-13.2 28.4-29 29H30.3C13.7 702.9.2 689.4.2 672.8V481.6c0-16.6 13.5-30.1 30.1-30.1s30.1 13.5 30.1 30.1v161h161.2zM672.5 451c16.6 0 30.1 13.5 30.1 30.1v191.1c0 16.6-13.5 30.1-30.1 30.1H481.2c-16.6-.9-29.4-15.1-28.5-31.7.8-15.4 13.1-27.6 28.5-28.5h161.1v-161c.1-16.6 13.5-30.1 30.2-30.1zM672.7.8c16.6 0 30.1 13.4 30.1 30.1V222c-.6 16.6-14.6 29.6-31.3 29-15.7-.6-28.4-13.2-29-29V61.1H481.4c-16.6 0-30.1-13.5-30.1-30.1S464.8.9 481.4.9h191.3z" clip-rule="evenodd" style="fill: #019df4;"/></svg>
