<?xml version="1.0" encoding="UTF-8"?>
<svg xmlns="http://www.w3.org/2000/svg" viewBox="0 0 702.8 702.8"><path fill="#019df4" fill-rule="evenodd" d="M20.7 238.1C9.3 238.1 0 228.9 0 217.5V20.7C0 9.3 9.3 0 20.7 0h196.8c11.4 0 20.7 9.3 20.7 20.7s-9.3 20.7-20.7 20.7H41.4v176.1c0 11.4-9.3 20.6-20.7 20.6zm197.2 423.4c11.4 0 20.7 9.3 20.7 20.7 0 11.4-9.3 20.7-20.7 20.7H20.7C9.3 702.8 0 693.6 0 682.2V485.4c0-11.4 9.2-20.7 20.6-20.7 11.3.2 20.5 9.3 20.7 20.6v176.1c.1.1 176.6.1 176.6.1zm464.2-197.2c11.3.2 20.4 9.4 20.6 20.7v197.2c0 11.4-9.2 20.6-20.6 20.6H484.9c-11.4 0-20.7-9.3-20.7-20.7 0-11.4 9.3-20.7 20.7-20.7h176.6V484.9c0-11.4 9.2-20.6 20.6-20.6zm0-464.3c11.4 0 20.7 9.2 20.7 20.6V218.3c0 11.4-9.2 20.6-20.6 20.6-11.4 0-20.6-9.2-20.6-20.6v-177H485.3c-11.4 0-20.7-9.3-20.7-20.7S473.9 0 485.3 0h196.8z" clip-rule="evenodd" style="fill: #019df4;"/></svg>
