<?xml version="1.0" encoding="UTF-8"?>
<svg xmlns="http://www.w3.org/2000/svg" viewBox="0 0 702.8 702.8"><path fill="#019df4" fill-rule="evenodd" d="M668.7 330.4c-3.6 4.2-8.7 6.5-14.4 6.5l-72.3-.2c-24.6-147.1-98-221.8-154.9-258.2 71.2 10.9 128.5 37.6 170.5 80.4 38.6 39.4 63.7 92.3 74.9 157.2.8 5-.7 10.3-3.8 14.3zM369.4 81.8c45.3 18.2 150.8 79.1 181.9 254.8l-181.9-.5V81.8zm-218 253.8c29.8-170.1 144-235.4 187.9-254.4V336l-187.9-.4zm-112.5-3.2c-1.4-.9-3-2.3-4.4-3.8-3.5-4.3-5-9.6-4.2-14.6 11.5-64.8 37.2-117.5 76.2-156.5 43.6-44 103.6-70.7 178.5-80.3-58.7 37.4-140.5 114.5-164.2 258.3l-71.9-.2c-3.4-.1-7.1-1.1-10-2.9zm663.2-21.3c-12.1-70.8-40-128.9-82.9-172.8-58.5-59.7-142.4-91.6-249.8-94.9V14.9c0-8.2-6.7-14.9-15.1-14.9-8.3 0-15.1 6.7-15.1 14.9v28.7C230.1 45.5 144.4 76.7 85 136.8 41.6 180.1 13.2 238.1.6 308.9c-2.4 13.4 1.4 27.4 10.8 38.9 3.8 4.2 7.5 7.4 11.5 9.9 7.5 4.6 16.6 7.2 25.7 7.3l290.6.7V629.1c.3 40.7 34 73.7 75.4 73.7 41.5 0 75.3-33.3 75.3-74.2 0-8.2-6.7-14.9-15.1-14.9-8.3 0-15.1 6.7-15.1 14.9 0 24.5-20.3 44.5-45.2 44.5-24.9 0-45.2-20-45.2-44.5V365.9l284.8.8c14.6 0 28.3-6.3 37.8-17.5 8.9-11 12.6-24.9 10.2-38.1z" clip-rule="evenodd" style="fill: #019df4;"/></svg>
