<?xml version="1.0" encoding="UTF-8"?>
<svg xmlns="http://www.w3.org/2000/svg" viewBox="0 0 702.8 702.8"><path fill="#019df4" fill-rule="evenodd" d="M375.9 89.8C425.4 112 527 189.1 550 371.7c.1.5.4.9.4 1.3l-174.7-.5c.1.1.2-282.7.2-282.7zM146.9 372c27.3-170.4 132.5-254.9 184-281.1l.2 281.6-184.2-.5zM702 310.4c2.6 14.9-1.5 30.7-11.3 43-11 12.8-26.4 19.8-42.8 19.9l-54.5-.1c.5-2.2.7-4.5.5-6.8C565.2 138.6 425.9 60 376 42.7c104 4.5 185.5 36.1 242.9 94.7 43 43.9 71 102.2 83.1 173zM330.7 42.8c-48.4 20.5-196.6 111-228.7 328.9v.2l-46.9-.1c-10.3-.2-20.3-3-29.1-8.3-4.9-3-9.2-6.8-12.9-11.1C2.3 339.3-2 323.4.8 308.1c12.6-70.8 41.1-128.8 84.6-172.3 58-58.5 140.6-89.6 245.3-93zM471.4 601c12.1-.1 22 9.7 22.1 21.8 0 44.1-36.4 80-81.1 80-44.1 0-80.2-34.9-81.1-78.2l-.1-1.5V372.5h44.2V622.8c0 20 16.5 36.4 36.9 36.4 20.3 0 36.8-16.3 36.8-36.4.3-12.1 10.2-21.9 22.3-21.8zM375.3 42.7h-43.8c0-.4-.2-.8-.2-1.2V21.8c.1-12.1 10-21.9 22.1-21.8 12.1-.1 22 9.7 22.1 21.8v19.6c.1.5-.1.8-.2 1.3z" clip-rule="evenodd" style="fill: #019df4;"/></svg>
