<?xml version="1.0" encoding="UTF-8"?>
<svg xmlns="http://www.w3.org/2000/svg" viewBox="0 0 702.8 702.8"><path fill="#019df4" fill-rule="evenodd" d="M656.4 326.1c-2.7 3.1-6.1 3.8-8.4 3.8l-64.7-.2c-21.5-120.5-76.2-191.4-126.7-232.1 53.3 12.9 97.2 36.2 130.6 70.3 36.7 37.5 60.7 88 71.3 150.2.4 2.8-.5 6-2.1 8zM376.5 98.6C422.6 120 509 179.5 538.4 329.7l-161.9-.4V98.6zM164.3 328.7c28.5-145.1 121.6-207.8 167.9-230.4v230.9l-167.9-.5zm-114.9-2c-.4-.3-1.4-1-2.5-2.2-2.1-2.6-3-5.6-2.5-8.4 11-62 35.4-112.3 72.6-149.5 34.9-35.2 81.1-58.8 137.4-70.9-53.3 41.3-113.6 113.2-134.9 232.8l-64.1-.2c-2 0-4.4-.6-6-1.6zm652.6-16c-12.1-70.8-40.1-129.1-83.1-173C561.6 79.2 480.2 47.6 376.5 43V21.8c0-12-9.9-21.8-22.1-21.8-12.2 0-22.1 9.8-22.1 21.8V43c-105.4 3.1-188.6 34.3-246.8 93.1C42 179.7 13.5 237.7.9 308.5c-2.7 15.2 1.5 31 12.3 44.2 4.2 4.7 8.4 8.3 12.9 11 8.5 5.2 18.7 8.2 29.1 8.3l277.1.8v250.4c0 .5 0 1 .1 1.5.9 43.3 37 78.2 81.1 78.2 44.7 0 81.1-35.9 81.1-80 0-12-9.9-21.8-22.1-21.8-12.2 0-22.1 9.8-22.1 21.8 0 20-16.6 36.3-36.9 36.3-20.3 0-36.9-16.3-36.9-36.3v-250l271.5.7c16.4-.1 31.9-7.1 42.7-19.9 9.8-12.4 13.9-28.1 11.2-43z" clip-rule="evenodd" style="fill: #019df4;"/></svg>
