<?xml version="1.0" encoding="UTF-8"?>
<svg xmlns="http://www.w3.org/2000/svg" viewBox="0 0 702.8 702.8"><path fill="#019df4" fill-rule="evenodd" d="M529.2 375.8c28.8-32.5 43.3-81.6 43.3-145.9 0-63.5-15.3-110.2-45.6-138.6-17.6-16.7-41.5-28.9-71.1-36.4-31.5-7.8-72.9-11.9-123-11.9H130.3v616.8h106.1V453.6c-.1-11.8 9.5-21.4 21.3-21.5h104.7c40.7 0 75.2-4.8 102.6-14.3 26.2-9 47.8-23.1 64.2-42zm26.7-315.9c39.2 36.8 59.1 94 59.1 170 0 75.2-18.2 133.9-54 174.5-21.3 24.5-49 42.8-82.3 54.2-31.9 11-71 16.6-116.3 16.6h-83.5v206.1c.1 11.8-9.4 21.4-21.2 21.5H109.1c-11.8-.1-21.3-9.7-21.2-21.5V21.5C87.8 9.7 97.3.1 109.1 0h223.7c53.6 0 98.4 4.5 133.2 13.1 36.8 9.3 67 25 89.9 46.8zM402.6 300.5c12.9-13.1 19.5-36.2 19.5-68.8 0-29.7-6.1-50.8-18.3-62.6-5.9-5.5-14.5-9.8-25.4-12.4-13-3.1-30.3-4.7-51.2-4.7h-48.3v167.3H331c26.7 0 40.9-2.4 48-4.5 8.9-2.6 16.6-7.2 23.6-14.3zm-14.4-185.6c18.2 4.4 33.2 12.1 44.7 23 21 20.6 31.6 52.1 31.6 93.9 0 44.4-10.7 77.7-31.9 99.2a95.748 95.748 0 0 1-42.1 25.2c-14.3 4.1-33.8 6.1-59.6 6.1h-73.3c-11.8-.1-21.3-9.7-21.2-21.5V130.5c-.1-11.8 9.4-21.4 21.2-21.5h69.5c24.4 0 44.9 2 61.1 5.9z" clip-rule="evenodd" style="fill: #019df4;"/></svg>
