<?xml version="1.0" encoding="UTF-8"?>
<svg xmlns="http://www.w3.org/2000/svg" viewBox="0 0 702.8 702.8"><path fill="#019df4" d="M556.5 58.6c38.7 36.6 58.5 93.4 57.9 168.7 4.1 62.4-15.1 124.2-53.8 173.3-22 24.6-50.1 43-81.5 53.3-37.7 11.7-77 17.2-116.4 16.4h-93.1v217.8c0 8.1-6.5 14.6-14.6 14.6H102.4c-8.1 0-14.6-6.6-14.6-14.6V14.8c0-8 6.5-14.6 14.6-14.6h229.8c45-.9 89.9 3.5 133.8 13.2 33.6 6.9 64.8 22.5 90.5 45.2zm-16.9 322.1c33.7-43.9 50.1-98.6 46.3-153.7 0-66.5-16.6-117.1-49.2-146.4-21.8-19.3-48.1-32.7-76.5-38.9-42-9.1-85-13.2-128-12.3H116.9v644.2h123.7V455.4c0-8.1 6.5-14.6 14.5-14.6h107.6c36.5.9 72.8-4.1 107.6-14.9 26.8-8.7 50.7-24.2 69.3-45.2zM387.5 117.2c16.2 3.2 31.2 10.7 43.6 21.7 21.6 24.9 32.1 57.6 29.1 90.5 2.6 34.9-8.8 69.5-31.7 96-11.1 11.3-24.9 19.6-40.1 24-19.1 4.4-38.6 6.3-58.2 5.9h-75.1c-8.1 0-14.6-6.6-14.5-14.6V126c0-8.1 6.5-14.6 14.5-14.6h71.3c20.5-.4 41 1.6 61.1 5.8zm20.4 187.4c17-20.9 25.2-47.6 23-74.4 2.5-24.9-5-49.8-20.9-69.1-8.2-7.4-18.3-12.5-29.1-14.6-17.9-3.9-36.1-5.9-54.4-5.9h-56.7V326H329c17.3.5 34.6-1.1 51.5-5 10.5-2.9 19.9-8.6 27.4-16.4z" style="fill: #019df4;"/></svg>
