<?xml version="1.0" encoding="UTF-8"?>
<svg xmlns="http://www.w3.org/2000/svg" viewBox="0 0 702.8 702.8"><path fill="#019df4" fill-rule="evenodd" d="M417.8 307.9c-7 7.1-14.6 11.7-23.4 14.3-7.8 2.3-23.5 4.9-53.7 4.9h-51.1V149.5h46.6c24 0 43.5 1.8 57.9 5.3 11.1 2.7 19.8 7 25.3 12.1 15.2 14.9 18.3 44.5 18.3 66.8 0 35.2-6.8 60.9-19.9 74.2M555.1 60.7c-23.2-22.2-53.7-38.2-90.7-47.6C430 4.4 386 0 333.5 0H116.9c-16 0-29 13.2-29 29.6v643.6c0 16.3 13 29.6 29 29.6h143.8c16 0 29-13.3 29-29.6V480.7h72.4c44.8 0 83.6-5.6 115.3-16.7 33.6-11.7 61.7-30.3 83.2-55.3 36.1-41.1 54.4-100.3 54.4-175.9-.1-76.6-20.2-134.6-59.9-172.1" clip-rule="evenodd" style="fill: #019df4;"/></svg>
