<?xml version="1.0" encoding="UTF-8"?>
<svg xmlns="http://www.w3.org/2000/svg" viewBox="0 0 702.8 702.8"><path fill="#019df4" fill-rule="evenodd" d="M498.1 445.4c-1.6-.1-3.2.1-4.8.5-46.2 14.7-100.9-9-162.6-70.8-61.4-61.4-83.2-129-68.8-175 .7-2.4 32.1-33.8 94.1-94.2 3.2-3.7 6.8-7 10.4-10.5l6.1-6c40-39.9 80.2-59.9 120.4-59.9s80.4 20 120.3 59.9c78.7 78.7 79.9 158.4 3.8 237l-118.9 119zm-168 168l-2.9 2.9c-1.4 1.6-3 3.1-4.6 4.5-77.2 72.3-155.6 69.8-233.1-7.6-79.9-79.9-80-160.8-.3-240.5l6.1-6.4c3.4-3.6 6.7-7.1 11.1-10.9l119.8-119.8c-1.9 49.3 25.6 103.1 83.2 160.7 54.9 55 106.6 82.9 154 83.7L330.1 613.4zm21.3-545l-5.7 5.4c-4.3 4.2-8.6 8.2-11.6 11.8L86.4 333.4c-4.2 3.7-8.3 7.9-12.5 12.3l-5.7 5.8c-91.1 91.1-91 191.5.2 282.7 45.7 45.8 93.9 68.6 141.9 68.6 44.9 0 89.6-19.9 132.1-59.7 2.3-1.9 4.3-4 6.4-6.3l289.4-289.4c87.3-90.1 85.9-189.2-4-278.9-91.1-91.3-191.5-91.3-282.8-.1z" clip-rule="evenodd" style="fill: #019df4;"/></svg>
