<?xml version="1.0" encoding="UTF-8"?>
<svg xmlns="http://www.w3.org/2000/svg" viewBox="0 0 702.8 702.8"><path fill="#019df4" fill-rule="evenodd" d="M606.2 321.8L491.5 436.5c-1.1.2-2.2 0-3.4.4-52.8 16.9-111.6-27.4-151.7-67.5-59.5-59.5-80.7-112.1-64.8-160.9.3-1 .2-2 .4-2.9l89.5-89.5c3-3.4 6.3-6.6 9.6-9.7l6.2-6c36.9-36.9 74.1-56 110.6-56.6h2c37.1 0 75 19.1 112.6 56.7 74.6 74.5 75.7 147 3.7 221.3zM325.5 602.5l-3 3.1c-1.1 1.2-2.1 2.3-4.1 4.1-73.2 68.6-144.4 66.1-217.9-7.3-38.3-38.3-57.4-76.8-56.7-114.5.6-36.4 19.7-73.6 56.6-110.5l6-6.2c3.2-3.4 6.4-6.7 10.9-10.7l106.4-106.4c4.1 47.2 30.9 95.5 81.8 146.4 49 49 95.7 76.7 139.3 82.8L325.5 602.5zm307.9-533C586.4 22.5 536.2-.9 487 .1c-48.2.9-95.5 24.3-140.7 69.4l-5.5 5.2c-4.4 4.2-8.7 8.3-11.5 11.7l-241.9 242c-4.4 3.8-8.6 8.1-12.9 12.6l-5.2 5.4C24.1 391.6.8 438.9-.1 487c-.8 50 22.5 99.2 69.6 146.2 46.4 46.4 95.3 69.6 144 69.6 45.5 0 90.8-20.2 133.9-60.5 2.4-2 4.6-4.2 6.8-6.6l283.1-283.2c88.7-91.4 87.3-191.9-3.9-283z" clip-rule="evenodd" style="fill: #019df4;"/></svg>
