<?xml version="1.0" encoding="UTF-8"?>
<svg xmlns="http://www.w3.org/2000/svg" viewBox="0 0 800 800"><path fill="#019df4" d="M400.9 752.3c-229.7 0-351.2-121.4-351.2-351.2 0-229.8 121.4-351.3 351.2-351.3 112.1 0 199 29 258.4 86.3 61.6 59.4 92.9 148.6 92.9 265 .1 229.7-121.4 351.2-351.3 351.2zm0-682.5c-219.7 0-331.2 111.5-331.2 331.3 0 219.7 111.4 331.2 331.2 331.2 219.9 0 331.3-111.4 331.3-331.2.1-219.9-111.4-331.3-331.3-331.3z" style="fill: #019df4;"/><path fill="#019df4" d="M292.2 560c-5.5 0-10-4.5-10-10V252.5c0-5.5 4.5-10 10-10s10 4.5 10 10V550c0 5.5-4.5 10-10 10zM508 559c-5.5 0-10-4.5-10-10V251.5c0-5.5 4.5-10 10-10s10 4.5 10 10V549c0 5.5-4.5 10-10 10z" style="fill: #019df4;"/></svg>
