<?xml version="1.0" encoding="UTF-8"?>
<svg xmlns="http://www.w3.org/2000/svg" viewBox="0 0 800 800"><path fill="#019df4" d="M399.9 750.9c-111.5 0-198.2-29.1-257.7-86.5C80.4 604.9 49.1 516 49.1 400.1s31.3-204.9 93.1-264.5C201.7 78.2 288.5 49 399.9 49c111.5 0 198.2 29.1 257.8 86.5 61.9 59.6 93.2 148.6 93.2 264.5s-31.4 204.8-93.2 264.4c-59.6 57.4-146.3 86.5-257.8 86.5zm0-663c-207 0-312 105-312 312.2 0 207 105 312 312 312 207.1 0 312.2-105 312.2-312C712.1 193 607 87.9 399.9 87.9z" style="fill: #019df4;"/><path fill="#019df4" d="M302.5 556.5c-11 0-20-9-20-20v-273c0-11 9-20 20-20s20 9 20 20v273c0 11-9 20-20 20zM497.5 556.5c-11 0-20-9-20-20v-273c0-11 9-20 20-20s20 9 20 20v273c0 11-9 20-20 20z" style="fill: #019df4;"/></svg>
