<?xml version="1.0" encoding="UTF-8"?>
<svg xmlns="http://www.w3.org/2000/svg" viewBox="0 0 800 800"><path fill="#019df4" d="M657.5 135.9c-59.6-57.4-146.3-86.5-257.8-86.5S201.5 78.5 142 136c-61.8 59.6-93.1 148.6-93.1 264.5S80.2 605.3 142 664.9c59.5 57.4 146.2 86.5 257.7 86.5s198.2-29.1 257.8-86.5c61.8-59.6 93.2-148.5 93.2-264.4s-31.4-205-93.2-264.6zM321 536.5c0 11-8.5 20-19 20s-19-9-19-20v-273c0-11 8.5-20 19-20s19 9 19 20v273zm196 .3c0 11-8.5 20-18.9 20s-18.9-9-18.9-20v-273c0-11 8.5-20 18.9-20s18.9 9 18.9 20v273z" style="fill: #019df4;"/></svg>
