<?xml version="1.0" encoding="UTF-8"?>
<svg xmlns="http://www.w3.org/2000/svg" viewBox="0 0 800 800"><path fill="#019df4" d="M132 536.6c-53.8 0-83.4-30-83.4-84.6V289.3c0-26.6 7-47.3 20.7-61.6 14.2-14.8 35.3-22.3 62.7-22.3l340.7-.2c27.4 0 48.5 7.5 62.7 22.3 13.7 14.3 20.7 35 20.7 61.6v162.8c0 54.5-29.6 84.6-83.4 84.6l-340.7.1zm340.7-311.5l-340.7.2c-21.8 0-38.1 5.5-48.5 16.2-10.1 10.5-15.2 26.6-15.2 47.8v162.8c0 43.6 20.8 64.8 63.6 64.8l340.7-.2c42.8 0 63.6-21.2 63.6-64.8V289.1c0-21.3-5.1-37.4-15.2-47.8-10.2-10.8-26.5-16.2-48.3-16.2zM58.5 595.2c-5.5 0-9.9-4.4-9.9-9.9s4.4-9.9 9.9-9.9l487.7-.2c5.5 0 9.9 4.4 9.9 9.9s-4.4 9.9-9.9 9.9l-487.7.2z" style="fill: #019df4;"/><path fill="#019df4" d="M191.1 593.2c-2.5 0-5-.9-6.9-2.8-3.9-3.8-4-10.1-.2-14l53.9-55.3c3.8-3.9 10.1-4 14-.2s4 10.1.2 14l-53.9 55.3c-2 2-4.5 3-7.1 3zM412.5 595.2c-2.6 0-5.1-1-7.1-3l-54.2-55c-3.8-3.9-3.8-10.2.1-14 3.9-3.8 10.2-3.8 14 .1l54.2 55c3.8 3.9 3.8 10.2-.1 14-1.9 2-4.4 2.9-6.9 2.9zM703.9 595.3h-81.5c-17.6 0-47-8.5-47-65.8l-.1-258.5c0-57.2 29.4-65.8 47-65.8h81.5c17.7 0 47.4 8.5 47.4 65.8l.1 258.5c0 57.3-29.7 65.8-47.4 65.8zm-81.6-370.1c-7.4 0-27 0-27 45.8l.1 258.5c0 45.8 19.6 45.8 27 45.8h81.5c6.8 0 27.4 0 27.4-45.8l-.2-258.5c0-45.8-20.6-45.8-27.4-45.8h-81.4z" style="fill: #019df4;"/></svg>
