<?xml version="1.0" encoding="UTF-8"?>
<svg xmlns="http://www.w3.org/2000/svg" viewBox="0 0 800 800"><path fill="#019df4" d="M139 536.2c-57 0-89.7-32.5-89.7-89.3V294.1c0-27.7 7.6-49.5 22.7-64.8 15.5-15.8 38.1-23.8 67-23.8l327-.2c28.9 0 51.5 8 67 23.8 15.1 15.3 22.7 37.1 22.7 64.8v152.8c0 56.7-32.7 89.3-89.7 89.3l-327 .2zm327-292.5l-327 .2c-36 0-51.3 15-51.3 50.2v152.8c0 35.7 15.4 50.9 51.3 50.9l327-.2c36 0 51.3-15.2 51.3-50.9V293.9c0-35.2-15.3-50.2-51.3-50.2zM68.5 595.9c-10.8 0-19.6-8.8-19.6-19.6s8.8-19.6 19.6-19.6l468-.2c10.8 0 19.6 8.8 19.6 19.6s-8.8 19.6-19.6 19.6l-468 .2z" style="fill: #019df4;"/><path fill="#019df4" d="M208.7 589.9c-4.9 0-9.7-1.8-13.5-5.4-7.8-7.5-8.1-19.9-.6-27.7l46.9-49.1c7.5-7.8 19.9-8.1 27.7-.6 7.8 7.5 8.1 19.9.6 27.7l-46.9 49.1c-3.8 3.9-9 6-14.2 6zM395.7 592.4c-5.1 0-10.2-2-14.1-6l-51.4-53c-7.5-7.8-7.3-20.2.4-27.7 7.8-7.5 20.2-7.3 27.7.4l51.4 53c7.5 7.8 7.3 20.2-.4 27.7-3.8 3.8-8.7 5.6-13.6 5.6zM698.8 595.1h-71.3c-16.9 0-31.1-7.7-40-21.8-7.6-12.1-11.3-28.5-11.3-50.2l-.2-245.6c0-21.7 3.7-38.1 11.4-50.2 8.9-14 23.1-21.8 40-21.8h71.3c15.5 0 51.7 7 51.7 72l.1 245.6c0 65-36.2 72-51.7 72zm-71.4-351.7c-4.5 0-6.3 1.4-7.9 4.1-2.1 3.3-5.5 11.5-5.5 30l.1 245.6c0 18.5 3.4 26.7 5.5 30 1.7 2.7 3.4 4.1 7.9 4.1h71.3c4.6 0 6.4-1.5 8.2-4.2 2.1-3.3 5.6-11.5 5.6-29.8l-.1-245.6c0-18.4-3.5-26.6-5.6-29.9-1.7-2.7-3.6-4.2-8.2-4.2h-71.3z" style="fill: #019df4;"/></svg>
