<?xml version="1.0" encoding="UTF-8"?>
<svg xmlns="http://www.w3.org/2000/svg" viewBox="0 0 800 800"><path fill="#019df4" d="M139 536.2c-57 0-89.7-32.5-89.7-89.3V294.1c0-27.7 7.6-49.5 22.7-64.8 15.5-15.8 38.1-23.8 67-23.8l327-.2c28.9 0 51.5 8 67 23.8 15.1 15.3 22.7 37.1 22.7 64.8v152.8c0 56.8-32.7 89.3-89.7 89.3l-327 .2zM68.5 595.9c-10.8 0-19.6-8.8-19.6-19.6s8.8-19.6 19.6-19.6l468-.2c10.8 0 19.6 8.8 19.6 19.6s-8.8 19.6-19.6 19.6l-468 .2z" style="fill: #019df4;"/><path fill="#019df4" d="M208.7 589.9c-10.8 0-19.6-8.8-19.6-19.6 0-5.1 1.9-9.9 5.4-13.6l46.9-49.1c7.5-7.8 19.9-8.1 27.7-.6s8.1 19.9.6 27.7l-46.9 49.1c-3.6 3.9-8.7 6.1-14.1 6.1zM395.7 592.4c-5.3 0-10.4-2.2-14.1-6l-51.4-53c-7.5-7.8-7.3-20.2.4-27.7 7.8-7.5 20.2-7.3 27.7.4l51.4 53c7.5 7.8 7.3 20.2-.4 27.7-3.6 3.6-8.5 5.6-13.6 5.6zM698.8 595.1h-71.3c-16.9 0-31.1-7.7-40-21.8-7.6-12.1-11.3-28.5-11.3-50.2l-.2-245.6c0-21.7 3.7-38.1 11.3-50.2 8.9-14 23.1-21.8 40-21.8h71.3c15.5 0 51.7 7 51.7 71.9l.1 245.6c.1 65.1-36.1 72.1-51.6 72.1z" style="fill: #019df4;"/></svg>
