<?xml version="1.0" encoding="UTF-8"?>
<svg xmlns="http://www.w3.org/2000/svg" viewBox="0 0 702.8 702.8"><path fill="#019df4" fill-rule="evenodd" d="M155.6 322c19.9 0 32.8 10.5 32.8 33.1 0 10.9-3 18.9-8.3 24.4-5.8 5.9-14.2 8.8-24.5 8.8s-18.8-2.9-24.5-8.8c-5.3-5.5-8.3-13.5-8.3-24.4 0-22.6 13-33.1 32.8-33.1zm504.1 109.9V269.4c-.2-10.4-8.2-19.3-18.2-20.2h-54.1v203h52.9c10.7-.1 19.4-9.2 19.4-20.3zm-145.4 80.7c16.8 0 30.4-14.1 30.4-31.4v-7.1h-.5V221.7c0-17.3-13.6-31.4-30.4-31.4H190.5c-97.6 3.1-147.4 57.3-147.4 160.9 0 103.6 49.8 157.9 148.1 161.4h323.1zm125.5-307.4c34 0 62.3 28.5 63 63.6v163c0 35.3-28 64.1-62.5 64.1h-53.9c-6.7 34.4-36.5 60.5-72.1 60.5H190.5C67.4 551.9 0 479 0 351.1 0 223 67.4 150.3 189.8 146.4h324c35.1 0 64.5 25.3 71.8 58.9h24.2v-.1h30z" clip-rule="evenodd" style="fill: #019df4;"/></svg>
