<?xml version="1.0" encoding="UTF-8"?>
<svg xmlns="http://www.w3.org/2000/svg" viewBox="0 0 702.8 702.8"><path fill="#019df4" fill-rule="evenodd" d="M147.7 328.9c18 0 29.6 9.6 29.6 30.3 0 10-2.7 17.3-7.5 22.3-5.2 5.4-12.8 8-22.2 8-9.3 0-17-2.6-22.1-8-4.8-5-7.5-12.4-7.5-22.3 0-20.7 11.8-30.3 29.7-30.3zm525.8 105.9V266.3c-.3-14.9-11.6-27.4-25.6-28.5H585v225.6h61.3c15 0 27.2-12.8 27.2-28.6zm-117.4 51.1v-7.4h-.5V216.8c0-22.2-17.2-40.1-38.4-40.1H187.1C82.6 180.1 29.3 238.8 29.3 351.1c0 112.2 53.2 171.1 158.3 175h330.1c21.2 0 38.4-18 38.4-40.2zm89.7-278.5c30.8 0 56.4 26.2 57 58.6v168.8c0 32.4-25.4 58.9-56.5 58.9h-61.2c-3.7 35.2-32.5 62.7-67.4 62.7H187.1C66.3 551.9 0 479 0 351.1 0 223 66.3 150.3 186.7 146.4h330.6c34.3 0 62.7 26.6 67.1 61.1h34l-.1-.1h27.5z" clip-rule="evenodd" style="fill: #019df4;"/></svg>
