<?xml version="1.0" encoding="UTF-8"?>
<svg xmlns="http://www.w3.org/2000/svg" viewBox="0 0 702.8 702.8"><path fill="#019df4" fill-rule="evenodd" d="M510.4 659.8c4.3 0 7.8-3.5 7.8-7.9s-3.5-7.9-7.8-7.9H193.5c-4.3 0-7.9 3.6-7.9 7.9 0 4.3 3.5 7.9 7.9 7.9h316.9zm-409-240c0 81.7 35.1 144.3 101.5 181.3h300c64.4-36.2 98.6-98.7 98.6-181.3 0-148.2-119-194-170.3-206.9h-.1c-25.6-6.3-52.4-9.6-79.8-9.6-29.8 0-60.2 4.2-89.1 12.7-.3.1-.6.1-.9.2-87.1 26.1-159.9 92.1-159.9 203.6zM275.2 75.2v93.3c25.1-5.4 50.7-8.1 76.1-8.1 21.8 0 43.1 2.5 64 6.1V75.2c0-17.8-14.4-32.2-32.1-32.2h-76c-17.6 0-32 14.4-32 32.2zm369 344.6c0 87.2-32.3 156.2-93.7 201.6 6.5 8.5 10.5 19.1 10.5 30.6 0 28-22.7 50.8-50.6 50.8H193.5c-27.9 0-50.7-22.8-50.7-50.8 0-11.9 4.3-22.7 11.1-31.4-61.8-46-95.4-116-95.4-200.8 0-127.6 77.9-205.2 173.9-239.2V75.2C232.4 33.7 266 0 307.2 0h76C424.5 0 458 33.7 458 75.2V176c117 35.5 186.2 125.4 186.2 243.8zm-402.7-47.6v101.6c0 14.1 11.4 25.6 25.5 25.6h160c14.1 0 25.5-11.5 25.5-25.6V372.2c0-14.1-11.4-25.6-25.5-25.6H267c-14.1 0-25.5 11.5-25.5 25.6zM267 542.3c-37.7 0-68.3-30.7-68.3-68.5V372.2c0-37.8 30.6-68.6 68.3-68.6h160c37.6 0 68.3 30.8 68.3 68.6v101.6c0 37.8-30.6 68.5-68.3 68.5H267zm87.3-440.2c0 6.8 5.1 12.4 11.3 12.4 6.2 0 11.3-5.6 11.3-12.4 0-6.8-5.1-12.5-11.3-12.5-6.2 0-11.3 5.6-11.3 12.5zm51.1 0c0 22.6-17.9 41.1-39.8 41.1-22 0-39.8-18.5-39.8-41.1 0-22.7 17.9-41.1 39.8-41.1 22-.1 39.8 18.4 39.8 41.1zm95.5-27.5c-5.5 0-11-2.1-15.1-6.3-8.4-8.4-8.4-22 0-30.4l25.4-25.6c8.4-8.4 21.9-8.4 30.3 0 8.4 8.4 8.4 22 0 30.4l-25.4 25.5c-4.2 4.3-9.7 6.4-15.2 6.4zm6.4 21.6c0-11.9 9.6-21.5 21.4-21.5h46.6c11.8 0 21.4 9.6 21.4 21.5s-9.6 21.5-21.4 21.5h-46.6c-11.9-.1-21.4-9.7-21.4-21.5zm-19.7 28c8.4-8.4 21.9-8.4 30.3 0l26.9 27c8.4 8.4 8.4 22 0 30.4-4.2 4.2-9.6 6.3-15.1 6.3s-11-2.1-15.1-6.3l-26.9-27c-8.4-8.4-8.4-22-.1-30.4zM316.4 407.1c-7.9 0-14.3-6.4-14.3-14.3s6.4-14.3 14.3-14.3h59.7c7.9 0 14.3 6.4 14.3 14.3s-6.4 14.3-14.3 14.3h-59.7zm-22.5 56.8c-7.9 0-14.3-6.4-14.3-14.3s6.4-14.3 14.3-14.3h104.5c7.9 0 14.3 6.4 14.3 14.3s-6.4 14.3-14.3 14.3H293.9z" clip-rule="evenodd" style="fill: #019df4;"/></svg>
