<?xml version="1.0" encoding="UTF-8"?>
<svg xmlns="http://www.w3.org/2000/svg" viewBox="0 0 702.8 702.8"><path fill="#019df4" fill-rule="evenodd" d="M508.6 613.6C578.2 575.4 615 509 615 421.2c0-156.6-126-204.8-180.2-218.2-26.7-6.6-54.7-10-83.5-10-31.5 0-63.5 4.4-93.9 13.4-.5.2-1.1.3-1.6.5-91.6 27.6-168 97.1-168 214.3 0 86.5 37.5 152.8 108.4 191.9.2.2.4.4.6.5h311.8zm5.8 60c8.4 0 15.3-6.9 15.3-15.4s-6.9-15.3-15.3-15.3H189.5c-8.5 0-15.3 6.9-15.3 15.3 0 8.5 6.9 15.4 15.3 15.4h324.9zM266 69.4v104.4c28-6.7 56.9-10.1 85.3-10.1 25 0 49.3 3 72.9 7.6V69.4c0-22.2-18-40.2-40.2-40.2h-77.9C284 29.2 266 47.3 266 69.4zm378.2 351.8c0 89.5-34.5 159.5-99.7 204.4 8.8 8.1 14.4 19.7 14.4 32.6 0 24.6-20 44.6-44.6 44.6H189.5c-24.6 0-44.6-20-44.6-44.6 0-13.2 5.9-24.9 15-33.1-50.4-34.6-101.4-96.2-101.4-203.9 0-128.6 80.3-206 178.2-238.9V69.4c0-38.3 31.2-69.4 69.4-69.4H384c38.3 0 69.4 31.1 69.4 69.4v108.4C573.1 212 644.2 302.1 644.2 421.2zm-181.9 55.1V372.6c0-18.4-15-33.4-33.4-33.4h-164c-18.4 0-33.4 15-33.4 33.4v103.7c0 18.5 15 33.5 33.4 33.5h164c18.4 0 33.4-15 33.4-33.5zm-33.4-166.4c34.6 0 62.7 28.1 62.7 62.6v103.7c0 34.6-28.1 62.7-62.7 62.7h-164c-34.6 0-62.7-28.1-62.7-62.7V372.5c0-34.6 28.1-62.6 62.7-62.6h164zm-76.4-207.3c0 9.2 7.5 16.6 16.6 16.6 9.2 0 16.6-7.5 16.6-16.6 0-9.2-7.5-16.6-16.6-16.6-9.1 0-16.6 7.5-16.6 16.6zm62.5 0c0 25.3-20.6 45.9-45.9 45.9-25.3 0-45.8-20.6-45.8-45.9 0-25.3 20.6-45.9 45.8-45.9 25.4.1 45.9 20.6 45.9 45.9zm89.6-19.1c-3.7 0-7.5-1.4-10.3-4.3-5.7-5.7-5.7-15 0-20.7l29.2-29.2c5.7-5.7 14.9-5.7 20.7 0 5.7 5.7 5.7 15 0 20.7L515 79.2c-2.9 2.9-6.6 4.3-10.4 4.3zm-3.1 18.3c0-8.1 6.5-14.6 14.6-14.6h53.4c8.1 0 14.6 6.5 14.6 14.6s-6.5 14.6-14.6 14.6h-53.4c-8 0-14.6-6.5-14.6-14.6zM496 126c5.7-5.7 15-5.7 20.7 0l30.8 30.9c5.7 5.7 5.7 14.9 0 20.7-2.9 2.8-6.6 4.3-10.3 4.3s-7.5-1.4-10.3-4.3l-30.8-30.9c-5.8-5.7-5.8-15-.1-20.7zM300 408.3c-8.1 0-14.6-6.6-14.6-14.6s6.5-14.6 14.6-14.6h93.7c8.1 0 14.6 6.5 14.6 14.6s-6.5 14.6-14.6 14.6H300zM429 437c8.1 0 14.6 6.5 14.6 14.6s-6.5 14.6-14.6 14.6H264.8c-8.1 0-14.6-6.5-14.6-14.6s6.5-14.6 14.6-14.6H429z" clip-rule="evenodd" style="fill: #019df4;"/></svg>
