<?xml version="1.0" encoding="UTF-8"?>
<svg xmlns="http://www.w3.org/2000/svg" viewBox="0 0 702.8 702.8"><path fill="#019df4" fill-rule="evenodd" d="M510.4 659.8H193.5c-4.3 0-7.9-3.5-7.9-7.9s3.5-7.9 7.9-7.9h316.9c4.3 0 7.8 3.6 7.8 7.9 0 4.4-3.5 7.9-7.8 7.9zM275.2 75.2c0-17.8 14.4-32.2 32.1-32.2h76c17.7 0 32.1 14.4 32.1 32.2v91.3c-20.9-3.6-42.2-6.1-64-6.1-25.4 0-51 2.7-76.1 8.1V75.2zm369 344.6c0-118.4-69.3-208.3-186.1-243.8V75.2c0-41.5-33.6-75.2-74.8-75.2h-76c-41.3 0-74.8 33.7-74.8 75.2v105.4c-96 34-173.9 111.5-173.9 239.2 0 84.8 33.6 154.8 95.4 200.8-6.8 8.7-11.1 19.5-11.1 31.4 0 28 22.7 50.8 50.7 50.8h316.9c27.9 0 50.6-22.8 50.6-50.8 0-11.5-4-22.1-10.5-30.6 61.3-45.5 93.6-114.4 93.6-201.6zm-402.7-47.6v101.6c0 14.1 11.4 25.6 25.5 25.6h160c14.1 0 25.5-11.5 25.5-25.6V372.2c0-14.1-11.4-25.6-25.5-25.6H267c-14.1 0-25.5 11.5-25.5 25.6zM267 542.3c-37.7 0-68.3-30.7-68.3-68.5V372.2c0-37.8 30.6-68.6 68.3-68.6h160c37.6 0 68.3 30.8 68.3 68.6v101.6c0 37.8-30.6 68.5-68.3 68.5H267zm49.4-135.2c-7.9 0-14.3-6.4-14.3-14.3s6.4-14.3 14.3-14.3h59.7c7.9 0 14.3 6.4 14.3 14.3s-6.4 14.3-14.3 14.3h-59.7zm-22.5 56.8c-7.9 0-14.3-6.4-14.3-14.3s6.4-14.3 14.3-14.3h104.5c7.9 0 14.3 6.4 14.3 14.3s-6.4 14.3-14.3 14.3H293.9zm60.4-361.8c0 6.8 5.1 12.4 11.3 12.4 6.2 0 11.3-5.6 11.3-12.4 0-6.8-5.1-12.5-11.3-12.5-6.2 0-11.3 5.6-11.3 12.5zm51.1 0c0 22.6-17.9 41.1-39.8 41.1-22 0-39.8-18.5-39.8-41.1 0-22.7 17.9-41.1 39.8-41.1 22-.1 39.8 18.4 39.8 41.1zm95.5-27.5c-5.5 0-11-2.1-15.1-6.3-8.4-8.4-8.4-22 0-30.4l25.4-25.6c8.4-8.4 21.9-8.4 30.3 0 8.4 8.4 8.4 22 0 30.4l-25.4 25.5c-4.2 4.3-9.7 6.4-15.2 6.4zm6.4 21.6c0-11.9 9.6-21.5 21.4-21.5h46.6c11.8 0 21.4 9.6 21.4 21.5s-9.6 21.5-21.4 21.5h-46.6c-11.9-.1-21.4-9.7-21.4-21.5zm-19.7 28c8.4-8.4 21.9-8.4 30.3 0l26.9 27c8.4 8.4 8.4 22 0 30.4-4.2 4.2-9.6 6.3-15.1 6.3s-11-2.1-15.1-6.3l-26.9-27c-8.4-8.4-8.4-22-.1-30.4z" clip-rule="evenodd" style="fill: #019df4;"/></svg>
