<?xml version="1.0" encoding="UTF-8"?>
<svg xmlns="http://www.w3.org/2000/svg" viewBox="0 0 702.8 702.8"><path fill="#019df4" fill-rule="evenodd" d="M301.6 42c-9.3 8.7-13.9 22.5-13.9 41.1 0 36.5 17.5 53.6 55.1 53.6 37.7 0 55.3-17 55.3-53.6 0-18.5-4.7-32.3-14-41-9-8.5-22.8-12.8-41.2-12.8-18.5 0-32.3 4.3-41.3 12.7zm41.2 123.9c-54.1 0-85.2-30.2-85.2-82.8 0-26.8 7.8-47.7 23.1-62.1 14.7-13.9 35.6-21 62.1-21 26.4 0 47.3 7.1 62.1 21 15.4 14.4 23.2 35.3 23.2 62.1 0 52.6-31.1 82.8-85.3 82.8zm155.1 292.3c10-2.5 16.1-12.6 13.7-22.6 0-.1 0-.2-.1-.3l-42.7-153.1c-.6-1.3-1.1-2.7-1.5-4.1-.2-.7-.4-1.4-.6-2-6.4-30.9-34.8-53.3-67.4-53.3h-95.1c-32.5 0-60.9 22.4-67.4 53.3-.1.5-.3.9-.4 1.3-.2 1.1-.6 2.2-1.2 3.3L192 435.5c-2.6 9.9 3.4 20.1 13.3 22.7h.2c4.9 1.4 10.1.8 14.5-1.8 4.3-2.3 7.5-6.3 8.8-11l19-102.3c1.4-7.5 8-12.4 16.2-12 7.7.6 13.6 6.9 13.7 14.6v309c0 10.3 8.5 18.8 18.9 18.8 10.4 0 18.9-8.4 19-18.8V470.6c0-8.1 6.7-14.6 15-14.6H373c8.3 0 15.1 6.6 15.1 14.6v184.2c0 10.4 8.5 18.8 19 18.8 10.4 0 18.9-8.4 18.9-18.8v-309c0-7.6 6-13.9 13.7-14.6 8.1-.3 14.7 4.5 16.1 12L475 446.5c1 3.5 4.2 7.4 8.6 9.9 4.3 2.5 9.5 3.1 14.3 1.8zm42.7-30.5c6.8 25.6-8.5 51.9-34.1 58.6-.2 0-.3.1-.5.1-18.1 4.9-37.4-.7-50-14.6v182.9c0 26.5-22 48.1-49 48.1-27.1 0-49-21.6-49-48.1V485.2h-12v169.6c0 26.5-22 48.1-49 48.1s-49-21.6-49-48.1v-183c-12.6 14-32 19.6-50.1 14.6-25.6-6.5-41.1-32.5-34.6-58.2 0-.1.1-.2.1-.3l42.8-153.3c.4-1.7 1-3.4 1.7-5 9.6-44.2 50.2-76.1 96.7-76.1h95.1c46.5 0 87 31.9 96.6 75.9.9 2.1 1.6 4.1 2 6.1l42.3 152.2z" clip-rule="evenodd" style="fill: #019df4;"/></svg>
