<?xml version="1.0" encoding="UTF-8"?>
<svg xmlns="http://www.w3.org/2000/svg" viewBox="0 0 702.8 702.8"><path fill="#019df4" fill-rule="evenodd" d="M490.4 449.2c6.1-1.6 9.6-7.8 8-13.7l-41-149.9c-.8-1.6-1.3-3.2-1.7-5-.1-.5-.3-1-.4-1.5-5.6-26.9-29.8-46.5-57.7-46.5h-91.5c-27.9 0-52.2 19.6-57.8 46.5-.1.6-.2 1.1-.4 1.6-.4 1.6-.9 3.2-1.6 4.7l-41.1 150.3c-1.5 5.8 1.9 11.9 7.8 13.5 4 1.1 7-.1 8.5-1 1.5-.8 4.1-2.8 5.1-6.5l18.1-99.5c2-11 11.9-18.6 23.3-17.6 11.2 1 19.8 10.3 19.8 21.4v302.8c0 4.7 1.4 10.3 8.2 10.3 2 0 7.1 0 7.1-10.3V468.3c0-11.9 9.7-21.5 21.7-21.5h53.4c12 0 21.7 9.6 21.7 21.5v180.5c0 2.6.6 11 7.8 11 7.4 0 8-8.5 8-11V346c0-11.1 8.6-20.4 19.7-21.4 11.3-.6 21.3 6.7 23.3 17.6l18.5 101.3c.6 2 3.2 3.9 4.7 4.8 1.8.7 4.8 1.9 8.5.9zm50-24.8c7.7 29-9.6 58.7-38.5 66.3-13.7 3.9-28.5 2.1-41.3-5.2-.5-.3-1-.5-1.4-.8v164c0 30.8-22.1 54.1-51.4 54.1-29.2 0-51.2-23.3-51.2-54.1v-159h-10v159c0 30.9-21.2 53.3-50.5 53.3-29.4 0-51.6-22.9-51.6-53.3v-164c-.5.3-.9.6-1.4.9-12.8 7.2-27.5 9-41.5 5.1-28.6-7.6-45.9-37.2-38.3-66.1l41.1-150.3c.2-1.1.8-3.1 1.7-5.2 10.2-46.2 52.1-79.5 100-79.5h91.5c47.9 0 89.7 33.3 99.9 79.4 1 2.3 1.6 4.5 2.1 6.7l40.8 148.7zM308.6 53.5c-7.4 7.1-11.2 18.9-11.2 35.1 0 31.7 13.7 45.3 45.7 45.3 32.2 0 45.9-13.6 45.9-45.3 0-16.1-3.8-27.9-11.2-35.1-7.3-7-19-10.5-34.7-10.5s-27.3 3.5-34.5 10.5zm34.5 123.4c-55.8 0-89.2-33.1-89.2-88.4 0-28.3 8.2-50.4 24.4-66C293.9 7.5 315.7-.1 343-.1c27.4 0 49.2 7.6 64.8 22.6 16.2 15.5 24.5 37.7 24.5 66 .1 55.4-33.2 88.4-89.2 88.4z" clip-rule="evenodd" style="fill: #019df4;"/></svg>
