<?xml version="1.0" encoding="UTF-8"?>
<svg xmlns="http://www.w3.org/2000/svg" viewBox="0 0 702.8 702.8"><path fill="#019df4" fill-rule="evenodd" d="M540.4 424.4c7.7 28.9-9.6 58.6-38.5 66.3-14.4 4-29.9 1.9-42.7-6v164c0 30.8-22.1 54.1-51.4 54.1-29.2 0-51.2-23.3-51.2-54.1v-159h-10v159c0 30.9-21.3 53.3-50.5 53.3-29.4 0-51.6-22.9-51.6-53.3v-164l-1.4.9c-12.8 7.1-27.6 9-41.5 5-28.8-7.7-45.9-37.3-38.3-66.1l41.2-150.3c.4-1.8 1-3.5 1.7-5.2 10.2-46.2 52.1-79.6 100-79.6h91.5c47.9 0 89.7 33.3 99.9 79.4 1 2.3 1.7 4.5 2.1 6.7 0 .2 40.7 148.9 40.7 148.9zM343.1 177c-55.8 0-89.2-33.1-89.2-88.4 0-28.3 8.2-50.5 24.4-66C294 7.6 315.8 0 343.1 0c27.4 0 49.2 7.6 64.8 22.5 16.2 15.5 24.5 37.7 24.5 66 0 55.4-33.3 88.4-89.3 88.5z" clip-rule="evenodd" style="fill: #019df4;"/></svg>
