<?xml version="1.0" encoding="UTF-8"?>
<svg xmlns="http://www.w3.org/2000/svg" viewBox="0 0 702.8 702.8"><path fill="#019df4" fill-rule="evenodd" d="M591.7 272.6c-5.1.6-9.8 2.8-13.4 6.5L474.1 384c-5.4 5.4-7.7 13.4-5.9 20.9 13.9 60.8-6.9 119.7-63.5 177.1l-140-140.8c-.4-.5-.6-1.2-1.1-1.7-.5-.5-1.2-.7-1.7-1.1L124.8 300.5l1-1.1c56.2-56.6 115-78 174.7-63.8 7.5 1.9 15.4-.4 20.9-6l104.2-104.9c3.7-3.7 5.9-8.5 6.4-13.7 2.1-21.6 12-42.4 30.6-63l192.3 193.3c-20.1 18.7-40.8 29-63.2 31.3m99.6-58.1L489.2 11.4c-14.7-14.8-38.1-15.5-53.5 0-26.3 26.5-42.1 55.7-47 87l-90.3 91c-52-9-126-.3-204.2 78.4l-1.1 1.2c-8.4 8.4-12.9 19.5-12.9 31.4 0 11.8 4.6 22.9 12.9 31.3L216 455.5 6.6 664.5c-8.7 8.7-8.8 23-.1 31.8 4.4 4.4 10.1 6.6 15.9 6.6 5.6 0 11.4-2.2 15.7-6.5l209.5-209.1 125.6 126.6c8.4 8.5 19.4 12.8 30.7 12.8 11.9 0 24-4.8 33.8-14.7 63.1-63.6 88.9-132.4 76.5-204.7l90.4-91.1c31.3-5.3 60.7-21.5 87.9-48.9 6.7-6.7 10.4-15.7 10.4-25.3-.1-10.3-4.1-20-11.6-27.5" clip-rule="evenodd" style="fill: #019df4;"/></svg>
