<?xml version="1.0" encoding="UTF-8"?>
<svg xmlns="http://www.w3.org/2000/svg" viewBox="0 0 702.8 702.8"><path fill="#019df4" fill-rule="evenodd" d="M597.7 278.6c-3.5.4-6.7 1.9-9.1 4.4L482.1 390.1c-3.7 3.8-5.2 9.2-4 14.3 14.9 64.8-7.1 127.4-67.3 188.1-1.3 1.4-3.2 2.2-5.2 2.2-1.9 0-3.8-.8-5.2-2.2L256.8 447.8c-.2-.3-.3-.6-.5-.9-.3-.3-.6-.4-.9-.6L114.2 304.2c-2.7-2.8-2.7-7.3.2-10l1.1-1.1c59.4-59.9 121.9-82.6 185.7-67.2 5.2 1.2 10.5-.3 14.2-4l106.4-107.2c2.5-2.5 4-5.8 4.4-9.3 2.5-26.2 15.3-51.1 39.2-74.1l207 208c-23.3 23.3-48.4 36.5-74.7 39.3m95.6-61.5L486.8 9.6c-6-6.1-14.1-9.5-22.5-9.6-7.6 0-14.7 2.9-21.4 9.6-26.4 26.5-41.9 55.8-46.3 87.1l-96.9 97.5c-51.2-9.7-126.2-2.8-205.8 77.3l10.7 10.8-11.9-9.7c-7.1 7.1-11 16.7-11 26.6 0 10 3.9 19.5 10.9 26.6l131 131.9-219.1 219c-6 5.9-6 15.6-.1 21.6 5.9 6 15.4 6.1 21.4.2l.1-.1 219.4-219L379 614.1c7.1 7.2 16.6 11.2 26.6 11.2s19.4-4 28.5-13.1C498 548 523.3 478.7 509.4 406l96.9-97.5c31.3-4.7 60.7-20.7 88.1-48.2 5.4-5.5 8.4-12.8 8.4-20.5 0-8.6-3.5-16.7-9.5-22.7" clip-rule="evenodd" style="fill: #019df4;"/></svg>
