<?xml version="1.0" encoding="UTF-8"?>
<svg xmlns="http://www.w3.org/2000/svg" viewBox="0 0 702.8 702.8"><path fill="#019df4" fill-rule="evenodd" d="M410.8 263.2c-12.9 25.2-22.9 52.1-30.3 77.8h132.7c28.9 0 52.4 23.2 52.4 51.5v52.9c0 24.3-17.4 44.5-40.3 50.1H177.8c-22.9-5.2-40.6-25.8-40.6-50.1v-52.9c0-28.3 23.6-51.5 52.4-51.5h134.2c-6.5-57.8-18.9-101.2-32.7-133.3 7.1-3.7 13.8-8.4 20-13.9l4.2-4.7c15.9 34.4 29.7 79.9 37.4 140.6 8.5-27.7 19.4-57.2 34.1-84.7l.3.3.9.9c6.3 7.1 14.3 12.3 22.8 17 21.5-41.7 51.5-77.2 92.7-89 7.8-2.1 12.5-10.2 10.4-18 0-.1 0-.2-.1-.2-2.4-7.8-10.7-12.2-18.5-9.8-48.9 13.9-83.9 53.2-108.6 98.9l-7.6-9.8c-12.1-18.8-17.9-41.4-17.9-67.9C361.1 97.2 402 57 473.5 57h65.9c25.6 0 46.2 20.5 46.2 45.4l-.6 75.2c-4.1 64.8-43.6 100.1-111.6 100.1-24.9-.1-45.5-5-62.6-14.5zm-119.7-55.6c-17.4 9-37.7 13.6-61.5 13.6-68.3 0-108.1-35.5-111.9-100.3l-.3-.6-.3-4.3V45.7C117.1 20.5 138 0 163.6 0h66.2c72.4 0 112.4 39.3 112.4 110.7 0 29.5-7.4 53.8-22.1 72.6l-5 5.7c-39.4-85.6-91.8-100.9-95.3-101.8-7.8-2.1-15.9 2.5-18 10.4-2.3 7.5 2.3 15.6 10.3 17.9.7.2 44.8 14.3 79 92.1zM185.4 531.2h332.2l-13.5 128.3c0 22.8-20.9 43.4-46.8 43.4H245.2c-25.6 0-46.5-20.5-46.5-45.7l-13.3-126z" clip-rule="evenodd" style="fill: #019df4;"/></svg>
