<?xml version="1.0" encoding="UTF-8"?>
<svg xmlns="http://www.w3.org/2000/svg" viewBox="0 0 702.8 702.8"><path fill="#019df4" fill-rule="evenodd" d="M555.3 166.9c-.2.9-.4 1.8-.4 2.7-2.1 49.1-28.8 72.9-81.6 72.9-19.2 0-34.7-3.5-47.1-9.9 19.6-29.1 44.9-53.1 77.4-62.2 7.7-2 12.4-9.8 10.4-17.6 0-.2-.1-.3-.1-.5-2.5-7.8-10.9-12.2-18.8-9.9-38.7 10.9-68.5 37-91.7 69.9-8-12.5-12.1-28.8-12.1-48.8 0-53 26.9-78.8 82.1-78.8h65.9c8.7-.2 15.9 6.7 16.1 15.4l-.1 66.8zm-21.2 230.8V451c0 8.5-7.2 15.4-16 15.4H184.4c-8.7.2-15.8-6.7-16-15.3v-53.3c0-8.5 7.2-15.4 16-15.4h333.7c8.8-.1 16 6.8 16 15.3zM470.7 664c0 5.3-4.5 9.7-10 9.7H241.9c-5.6 0-10.1-4.4-10.2-11.2l-19.2-167h277.3L470.7 664zM229.8 187.4c-53 0-79.8-24-81.9-72.7 0-1.1-.1-2.2-.4-3.2V44.9c0-8.7 7.3-15.8 16.3-15.8H230c55.4 0 82.3 25.9 82.3 79.2 0 19.3-4.2 35.2-12.1 47.8-36.7-58.7-77.2-70.2-80.1-70.9-7.9-2-15.9 2.5-18.3 10.2-2.1 7.8 2.5 15.8 10.3 17.9h.2c.6.1 34.4 10.7 65.5 64.1-12.7 6.6-28.8 10-48 10zM539.3 55.6h-66c-71.5 0-112.4 39.3-112.4 107.9 0 26 5.8 47.9 18 66.3l7.7 9.6c-14.4 26.2-25.4 54.6-33.9 82.3-7.6-58.8-21.1-103.7-36.8-137l4.1-4.5c.2-.3.4-.6.7-.8 14.6-18.4 21.9-42.4 21.9-71.2C342.5 38.4 302.5 0 229.9 0h-66.2c-25.7 0-46.6 20.1-46.6 44.9v68.6c0 1.1.2 2.4.5 3.7 3.5 64.1 43.2 99.4 112.1 99.4 23.7 0 44-4.5 61.2-13.4 15.5 35 28.9 83.2 34.8 149.4 0 .2.2.4.2.6H184.4c-25.5 0-46.3 20-46.3 44.5V451c0 23.7 19.6 43 44 44.2L201.5 664c0 21.4 18.2 38.8 40.4 38.8h218.7c22.3 0 40.4-17.4 40.3-37.2l19.6-170.4c24.4-1.2 44-20.5 44-44.2v-53.3c0-24.5-20.8-44.5-46.4-44.5H375.2c7.2-27.6 18.7-63 35.9-95.5 17 8.9 37.5 13.9 62.2 13.9 68.5 0 108.1-34.8 111.9-98.8.3-1.2.5-2.5.5-3.8v-68.7c0-24.7-20.9-44.7-46.4-44.7z" clip-rule="evenodd" style="fill: #019df4;"/></svg>
