<?xml version="1.0" encoding="UTF-8"?>
<svg xmlns="http://www.w3.org/2000/svg" viewBox="0 0 702.8 702.8"><path fill="#019df4" fill-rule="evenodd" d="M541.6 169c-.2 1-.3 2-.4 3-1.8 43.9-24.7 64.4-71.7 64.4-11.9.2-23.7-1.6-35-5.5 17.5-24 39.2-43.2 66.3-50.9 11.3-3 18.1-14.6 15.1-26 0-.1-.1-.3-.1-.4-3.7-11.4-15.8-17.9-27.4-14.5-35.1 9.9-62.8 32.3-84.9 60.6-4.1-10.6-6.2-21.9-6.1-33.3 0-47.6 22.9-69.7 72.1-69.7h63.9c4.5 0 8.2 3.5 8.2 7.9V169zM521 398.2v51.9c0 4.4-3.7 7.9-8.2 7.9H189.7c-4.4.1-8.1-3.5-8.2-7.9v-51.9c0-4.4 3.7-7.9 8.2-7.9h323.2c4.4 0 8.1 3.5 8.1 7.9zm-63.8 262H245.3c-1.3 0-2.4-1.1-2.5-4.7l-17.7-154.9h252.2l-17.8 157.3c.1 1.3-1 2.3-2.3 2.3zM233.5 182.7c-47.2 0-70.1-20.5-71.9-63.8 0-1.3-.1-2.6-.4-3.9V51c0-4.6 3.8-8.3 8.4-8.3h64.1C283 42.7 306 65 306 112.8c0 12.2-1.9 22.8-5.3 32-35.2-50.6-72-60.7-74.7-61.4-11.4-2.9-23.1 3.7-26.5 14.9-3.3 11.1 3.6 22.8 15 26.2.5.1 28 9 55.2 52.2-10.1 3.9-22 6.1-36.2 6zM533.4 54.2h-63.9c-73.9 0-116.2 40.9-116.2 112.3 0 26.7 6 49.4 18.9 69.1l4.7 5.8c-8.3 15.7-15.5 32-21.6 48.7-7.4-41.3-17.9-74.8-29.9-101.4l1-1.2c.4-.4.6-.8 1-1.2 15.2-19.2 22.8-44 22.8-73.6C350.1 41.1 307.7 0 233.7 0h-64.1c-28.9 0-52.5 22.8-52.5 51v66.8c0 1.5.2 3.1.5 4.6 3.8 65.5 45.9 103 115.9 103 20.9 0 39.1-3.7 55.3-10.7 13.3 32.1 24.5 75.2 30 133.1H189.7c-28.8 0-52.2 22.7-52.2 50.5v51.9c0 24.9 18.8 45.5 43.3 49.6L199 657.9c0 24.8 20.8 44.9 46.4 44.9h211.9c25.6 0 46.4-20.1 46.3-42.6l18.3-160.5c24.5-4.1 43.3-24.7 43.3-49.6v-51.9c0-27.8-23.4-50.5-52.3-50.5H383c6.4-23.8 15.9-52.6 29.5-79.9 16.1 7.1 35 11.1 57 11.1 69.5 0 111.4-37 115.6-102.4.4-1.6.6-3.2.6-4.8v-67.1c0-27.7-23.5-50.4-52.3-50.4z" clip-rule="evenodd" style="fill: #019df4;"/></svg>
