<?xml version="1.0" encoding="UTF-8"?>
<svg xmlns="http://www.w3.org/2000/svg" viewBox="0 0 800 800"><path fill="#019df4" d="M401.9 752.3c-229.7 0-351.2-121.4-351.2-351.2 0-229.8 121.4-351.3 351.2-351.3 112.1 0 199 29 258.4 86.3 61.6 59.4 92.9 148.6 92.9 265 .1 229.7-121.4 351.2-351.3 351.2zm0-682.5c-219.7 0-331.2 111.5-331.2 331.3 0 219.7 111.4 331.2 331.2 331.2 219.9 0 331.3-111.4 331.3-331.2.1-219.9-111.4-331.3-331.3-331.3z" style="fill: #019df4;"/><path fill="#019df4" d="M293.3 555.5c-1.6 0-3.2-.4-4.6-1.2-2.9-1.7-4.6-4.7-4.6-8V252.4c0-3.3 1.8-6.4 4.6-8 2.9-1.7 6.4-1.7 9.3 0l254.5 146.9c2.9 1.7 4.6 4.7 4.6 8s-1.8 6.4-4.6 8l-254.6 147c-1.4.8-3 1.2-4.6 1.2zm9.3-287v261.7l226.6-130.8-226.6-130.9z" style="fill: #019df4;"/></svg>
