<?xml version="1.0" encoding="UTF-8"?>
<svg xmlns="http://www.w3.org/2000/svg" viewBox="0 0 800 800"><path fill="#019df4" d="M399.9 750.9c-111.5 0-198.2-29.1-257.7-86.5C80.4 604.9 49.1 516 49.1 400.1s31.3-204.9 93.1-264.5C201.7 78.2 288.5 49 399.9 49c111.5 0 198.2 29.1 257.8 86.5 61.9 59.6 93.2 148.6 93.2 264.5s-31.4 204.8-93.2 264.4c-59.6 57.4-146.3 86.5-257.8 86.5zm0-663c-207 0-312 105-312 312.2 0 207 105 312 312 312 207.1 0 312.2-105 312.2-312C712.1 193 607 87.9 399.9 87.9z" style="fill: #019df4;"/><path fill="#019df4" d="M300 553.8c-3 0-6-.8-8.7-2.3-5.4-3.1-8.7-8.8-8.7-15V262.2c0-6.2 3.3-11.9 8.7-15s12-3.1 17.3 0l237.5 137.1c5.4 3.1 8.7 8.8 8.7 15s-3.3 11.9-8.7 15L308.6 551.5c-2.7 1.5-5.7 2.3-8.6 2.3zm17.3-261.6v214.2l185.5-107.1-185.5-107.1z" style="fill: #019df4;"/></svg>
