<?xml version="1.0" encoding="UTF-8"?>
<svg xmlns="http://www.w3.org/2000/svg" viewBox="0 0 800 800"><path fill="#019df4" d="M657.2 135.9c-59.6-57.4-146.3-86.5-257.8-86.5S201.2 78.5 141.7 136c-61.8 59.6-93.1 148.6-93.1 264.5s31.3 204.8 93.1 264.4c59.5 57.4 146.2 86.5 257.7 86.5s198.2-29.1 257.8-86.5c61.8-59.6 93.2-148.5 93.2-264.4s-31.3-205-93.2-264.6zM545.6 414.6L308.1 551.7c-8.3 4.8-18.9 1.9-23.7-6.4-1.5-2.6-2.3-5.6-2.3-8.6V262.4c0-9.6 7.8-17.3 17.4-17.3 3 0 6 .8 8.6 2.3l237.5 137.1c8.3 4.8 11.1 15.4 6.3 23.7-1.5 2.7-3.6 4.8-6.3 6.4z" style="fill: #019df4;"/></svg>
