<?xml version="1.0" encoding="UTF-8"?>
<svg xmlns="http://www.w3.org/2000/svg" viewBox="0 0 702.8 702.8"><path fill="#019df4" fill-rule="evenodd" d="M259.9 97.4c-1.2 3.4-.4 7 2.1 9.5l32.6 32.7c3.3 3.4 5.1 9 4.4 13.7l-7.7 46.1c-.6 3.6.7 7 3.6 9 2.5 1.7 5.5 1.9 8.1.4l40.4-21.8c2.2-1.2 4.8-1.8 7.3-1.8 2.8 0 5.5.7 7.9 2.1l39.8 21.5c2.6 1.4 5.7 1.2 8.1-.4 2.9-2 4.3-5.4 3.6-9l-7.7-46.1c-.8-4.9 1.1-10.7 4.8-14.1l32.2-32.3c2.4-2.5 3.2-6.1 2.1-9.5-1-3-3.5-5.3-6.6-5.7L389.8 85c-4.8-.7-9.4-4.1-11.5-8.4L358 34.3c-2.9-6-11.8-6-14.6 0l-20.2 42c-2.3 4.7-7.4 8.3-12.7 8.8l-44 6.6c-3.1.4-5.6 2.6-6.6 5.7zm8.5 57.8l-27.6-27.7c-10.3-10.4-13.8-25.5-9.1-39.4 4.6-13.7 16.3-23.4 30.4-25.6l37.5-5.6 16.9-35.3C322.9 8.3 336-.1 350.8-.1c14.7 0 27.9 8.3 34.2 21.6l17 35.3 37.5 5.6c14.1 2.1 25.8 11.9 30.4 25.6 4.7 13.9 1.2 29-9.2 39.4l-27.6 27.7 6.5 39.4c2.4 14.8-3.6 29.2-15.8 37.8-11.5 8.1-27.3 9-39.7 2.3l-33.3-18.1-33.3 18.1c-5.7 3.1-11.9 4.6-18 4.6-7.6 0-15.2-2.3-21.6-6.9-12.2-8.6-18.3-23-15.9-37.8l6.4-39.3zM673 671.8V540.4c-.6-.1-1.2-.1-1.8-.1h-191c-.6 0-1.2 0-1.7.1v131.4c.5 0 1.1.1 1.7.1h191c.6 0 1.2 0 1.8-.1zm-417.1.8h191l1.8-331.5-192.8-.1-1.7 315.2v16.3l1.7.1zm-224.3-.7h191c.6 0 1.2-.1 1.7-.2V453c-.5-.2-1.1-.3-1.7-.3h-191c-.6 0-1.2.1-1.7.3v218.8c.4.1 1.1.1 1.7.1zm448.6 30.9H31.6C14.2 702.8 0 690.6 0 676.5V448.1c0-15.3 16.3-25.6 31.6-25.6h191c.6 0 1.2.3 1.7.3V341c0-16.1 14.8-30.3 31.6-30.3h191c16.8 0 31.6 14.2 31.6 30.3v169.2c.5 0 1.2-.2 1.7-.2h191c15.7 0 31.6 7.5 31.6 21.9V680c0 12.9-13.1 22.6-31.7 22.6H480.2z" clip-rule="evenodd" style="fill: #019df4;"/></svg>
