<?xml version="1.0" encoding="UTF-8"?>
<svg xmlns="http://www.w3.org/2000/svg" viewBox="0 0 702.8 702.8"><path fill="#019df4" fill-rule="evenodd" d="M664.5 501.3c22.2 0 38.3 12 38.3 28.5v143.6c0 16.8-15.8 29.3-38.4 29.3H526.9V501.3h137.6zM0 448.5c0-19.8 19.9-32.1 38.3-32.1h137.5v286.3H38.3C17.2 702.7 0 687.6 0 669.9V448.5zm444.9-140.4c20.4 0 38.3 17.1 38.3 36.7v358.1H219.7v-358c0-19.5 17.9-36.6 38.3-36.6h186.9zM312 99.1l-42.7 6.5 31.7 35.2c4.9 5 7.4 13 6.2 19.9l-7.5 45.8 40.3-19.9c3.3-1.8 7-2.7 10.7-2.7 4 0 8.1 1.1 11.5 3.2l38.7 21.2.1.1s.1 0 .2-.1l-7-47.6c-1.2-7.2 1.6-15.4 6.9-20.5l31.3-31.8-44.4-9.5c-7.1-1-13.6-5.9-16.8-12.3l-19.9-42.1-20.9 41.7c-3.3 7.1-10.6 12.3-18.4 12.9zM262.3 164l-24.4-24.8c-12.1-12.4-16.2-30.2-10.6-46.7 5.3-16.1 19-27.7 35.5-30.2l32.9-5 14.9-31.5C318.1 10 333.5.1 350.8.1c17.2 0 32.6 9.8 40.1 25.7l15 31.6 32.9 4.9c16.6 2.5 30.3 14.2 35.7 30.3 5.4 16.6 1.3 34.4-10.8 46.7l-24.4 24.9 5.8 35.4c2.1 13-1.3 25.7-9 35.5-2.7 3.5-5.8 6.5-9.5 9.2-13.6 9.7-32 10.7-46.6 2.7l-21.7-11.9-7.5-4.1-7.5 4.1-21.6 11.9c-6.6 3.7-13.9 5.4-21.1 5.4-8.9 0-17.8-2.7-25.5-8.1-3.7-2.6-6.9-5.7-9.5-9.2-7.6-9.9-11.1-22.6-8.9-35.5l5.6-35.6z" clip-rule="evenodd" style="fill: #019df4;"/></svg>
