<?xml version="1.0" encoding="UTF-8"?>
<svg xmlns="http://www.w3.org/2000/svg" viewBox="0 0 702.8 702.8"><path fill="#019df4" fill-rule="evenodd" d="M400.9 208.3l.1.1s.1 0 .1-.1l-6.9-47.6c-1.2-7.2 1.5-15.5 6.9-20.5l31.3-31.8-44.4-9.5c-7.1-1.1-13.6-5.9-16.8-12.3l-19.9-42.2-20.9 41.7c-3.3 7-10.6 12.2-18.4 12.9l-42.7 6.5 31.7 35.2c4.9 5 7.4 13 6.2 19.9l-7.5 45.8 40.3-19.8c3.3-1.8 7-2.7 10.7-2.7 4 0 8.1 1.1 11.5 3.1l38.7 21.3zm-138.6-44.4l-24.4-24.8c-12.1-12.3-16.2-30.2-10.7-46.7 5.3-16.2 19-27.8 35.6-30.3l32.9-5 14.9-31.5C318.1 9.8 333.5-.1 350.8-.1c17.2 0 32.6 9.8 40.1 25.7l15 31.6 32.9 4.9c16.6 2.5 30.3 14.1 35.7 30.3 5.4 16.5 1.3 34.4-10.8 46.7l-24.4 24.8 5.8 35.4c2.8 17.5-4.3 34.6-18.5 44.7-13.6 9.6-32 10.7-46.6 2.7l-29.2-16-29.1 15.9c-6.6 3.7-13.9 5.5-21.1 5.5-9 0-17.8-2.8-25.5-8.2-14.3-10.2-21.3-27.3-18.5-44.7l5.7-35.3zm220.8 494.3H659v-113H483.1v113zM43.8 460.3v197.9h175.8V460.3H43.8zm395.5-108.4H263.4v95.9c0 .3.1.4.1.7v210.4h175.8v-307zm5.6 350.9H38.3C17.2 702.8 0 687.7 0 670V448.5c0-19.8 19.9-32.1 38.3-32.1h181.4v-71.7c0-19.5 17.9-36.7 38.2-36.7h187c20.4 0 38.3 17.1 38.3 36.7v156.6h181.4c22.2 0 38.2 12 38.2 28.5v143.7c0 16.8-15.8 29.2-38.3 29.2H444.9z" clip-rule="evenodd" style="fill: #019df4;"/></svg>
