<?xml version="1.0" encoding="UTF-8"?>
<svg xmlns="http://www.w3.org/2000/svg" viewBox="0 0 702.8 702.8"><path fill="#019df4" fill-rule="evenodd" d="M586 662.4V92.5c0-2.9-9.4-11.8-22.5-11.8H458.4c.4 3.5 1 6.9 1.1 10.5l.2 6.8-.1 3.3c-1.6 46.5-44.4 56.2-108.2 56.2-63.7 0-106.5-9.7-108.2-56.8v-6.9l.2-3.3c.1-3.5.8-6.5 1.3-9.8H139.4c-13.2 0-22.5 9-22.5 11.8v569.9c0 4 9.8 11.8 22.5 11.8h424c12.8 0 22.6-7.9 22.6-11.8zM351.4 28.6c-51.9 0-77 20.3-79 63.9l-.2 5.5c.5 14 1.1 30.8 79.3 30.8s78.8-16.9 79.2-29.2v-4.7c-.2-8.4-1.5-16.7-3.9-24.8-9-27.9-33.6-41.5-75.4-41.5zm212 23.5c27 0 51.6 19.3 51.6 40.4v569.9c0 21.9-23.6 40.4-51.5 40.4h-424c-27.9 0-51.5-18.5-51.5-40.4V92.5c0-21.1 24.6-40.4 51.5-40.4H252C266.9 18.3 301.1 0 351.4 0c61.3 0 87.9 26.4 99.3 52.1h112.7zm-244.2 52.6c-7.9 0-14.4-6.3-14.5-14.3 0-7.9 6.5-14.3 14.5-14.3h64.3c8 0 14.5 6.4 14.5 14.3s-6.5 14.3-14.5 14.3h-64.3z" clip-rule="evenodd" style="fill: #019df4;"/></svg>
