<?xml version="1.0" encoding="UTF-8"?>
<svg xmlns="http://www.w3.org/2000/svg" viewBox="0 0 702.8 702.8"><path fill="#019df4" fill-rule="evenodd" d="M418 77.8c-2.8-8.9-11.3-35.8-66.6-35.8-59.7 0-68.7 29.9-69.9 56l-.2 12.4c.4 9.5.8 23.3 70.1 23.3s69.7-13.7 70-21.8v-11.5c-.1-7.7-1.3-15.3-3.4-22.6zm139.7-26.7c30.5 0 57.2 21.8 57.2 46.6v558.5c0 25.3-26.2 46.6-57.2 46.6H145c-31 0-57.2-21.4-57.2-46.6V97.6C87.8 72.8 114.6 51 145 51h105.5C267.3 18.4 302 0 351.4 0c60.2 0 88.1 25.3 101 51.1h105.3zm-231.2 60.7c-10.9 0-19.7-8.8-19.7-19.6s8.8-19.6 19.7-19.6h49.7c10.9 0 19.8 8.8 19.8 19.6s-8.9 19.6-19.8 19.6h-49.7z" clip-rule="evenodd" style="fill: #019df4;"/></svg>
