<?xml version="1.0" encoding="UTF-8"?>
<svg xmlns="http://www.w3.org/2000/svg" viewBox="0 0 702.8 702.8"><path fill="#019df4" fill-rule="evenodd" d="M557.7 660.7c8.3 0 14.3-4.5 15.2-6.1l-.3-556.9c0 .5-6.9-4.6-14.9-4.6h-94.5c.1 1 .3 1.9.4 3l.1 2.8.1 4.1-.1 3.8c-1.8 53.9-55.1 61.5-112.3 61.5-57.2 0-110.4-7.6-112.4-62.4V103l.1-4.5.2-3.6c0-.7.2-1.2.3-1.9H145c-7.7 0-14.2 4.7-15.3 6.6l.4 556.5c.6.1 6.6 4.6 14.9 4.6h412.7zM351.4 42.1c-59.7 0-68.7 29.9-69.9 56l-.2 5c.4 9.6.8 23.3 70.1 23.3s69.7-13.7 70-21.9v-4.2c-.2-7.6-1.3-15.1-3.5-22.4-2.8-8.9-11.2-35.8-66.5-35.8zm206.3 9c30.5 0 57.2 21.8 57.2 46.6v558.5c0 25.3-26.2 46.6-57.2 46.6H145c-31 0-57.2-21.4-57.2-46.6V97.6C87.8 72.8 114.6 51 145 51h105.5C267.3 18.4 302 0 351.4 0c60.2 0 88.1 25.3 101 51.1h105.3zm-231.2 60.7c-10.9 0-19.7-8.8-19.7-19.6s8.8-19.6 19.7-19.6h49.7c10.9 0 19.8 8.8 19.8 19.6s-8.9 19.6-19.8 19.6h-49.7z" clip-rule="evenodd" style="fill: #019df4;"/></svg>
