<?xml version="1.0" encoding="UTF-8"?>
<svg xmlns="http://www.w3.org/2000/svg" viewBox="0 0 800 800"><path fill="#019df4" d="M658.5 134c-59.7-57.5-146.6-86.7-258.4-86.7S201.5 76.5 141.9 134C80 193.8 48.6 282.9 48.6 399.1s31.4 205.3 93.3 265c59.7 57.5 146.6 86.7 258.3 86.7s198.7-29.2 258.4-86.7c62-59.7 93.4-148.9 93.4-265S720.5 193.8 658.5 134zM382 145c0-11 9-20 20-20s20 9 20 20v146.3c0 11-9 20-20 20s-20-9-20-20V145zm180 417.9c-37 35.7-90.5 53.7-159.1 53.7s-122-18.1-159-53.8c-38.4-37-57.9-92-57.9-163.2 0-59.2 13.5-107.3 40.2-143.1 26.4-35.3 65-58.3 114.9-68.2 10.8-2.2 21.4 4.9 23.5 15.7 2.2 10.8-4.9 21.4-15.7 23.5-82.8 16.5-123 72.8-123 172.1 0 60 15.4 105.2 45.7 134.4 29.3 28.2 73.5 42.5 131.3 42.5s102-14.3 131.3-42.5c30.3-29.2 45.7-74.5 45.7-134.4 0-100.7-41.4-157.2-126.5-172.8-10.9-2-18.1-12.4-16.1-23.3s12.4-18.1 23.3-16.1c51.2 9.4 90.8 32.1 117.9 67.5 27.5 36 41.4 84.6 41.4 144.6.1 71.4-19.4 126.3-57.9 163.4z" style="fill: #019df4;"/></svg>
