<?xml version="1.0" encoding="UTF-8"?>
<svg xmlns="http://www.w3.org/2000/svg" viewBox="0 0 800 800"><path fill="#019df4" d="M399.2 752.2c-111.7 0-198.6-29.2-258.3-86.7-61.9-59.7-93.3-148.8-93.3-265 0-116.1 31.4-205.3 93.3-265.1C200.6 78 287.5 48.8 399.2 48.8c111.7 0 198.6 29.2 258.4 86.7 62 59.8 93.4 148.9 93.4 265.1 0 116.1-31.4 205.3-93.4 265-59.8 57.5-146.7 86.6-258.4 86.6zm0-664.5C191.7 87.7 86.5 193 86.5 400.6c0 207.5 105.2 312.7 312.7 312.7 207.6 0 312.9-105.2 312.9-312.7C712 193 606.8 87.7 399.2 87.7z" style="fill: #019df4;"/><path fill="#019df4" d="M402 618.1c-68.5 0-122-18.1-159-53.8-38.4-37-57.9-92-57.9-163.2 0-59.2 13.5-107.3 40.2-143.1 26.3-35.3 65-58.3 114.9-68.2 10.8-2.2 21.4 4.9 23.5 15.7 2.2 10.8-4.9 21.4-15.7 23.5-82.8 16.5-123 72.8-123 172.1 0 60 15.4 105.2 45.7 134.4C300 563.7 344.2 578 402 578c57.8 0 102-14.3 131.3-42.6C563.6 506.2 579 461 579 401c0-100.7-41.4-157.2-126.5-172.8-10.9-2-18.1-12.4-16.1-23.3s12.4-18.1 23.3-16.1c51.2 9.4 90.8 32.1 117.9 67.5 27.5 36 41.4 84.6 41.4 144.6 0 71.2-19.5 126.2-58 163.2-37 35.9-90.5 54-159 54z" style="fill: #019df4;"/><path fill="#019df4" d="M401 312.8c-11 0-20-9-20-20V146.5c0-11 9-20 20-20s20 9 20 20v146.3c0 11-9 20-20 20z" style="fill: #019df4;"/></svg>
