<?xml version="1.0" encoding="UTF-8"?>
<svg xmlns="http://www.w3.org/2000/svg" viewBox="0 0 800 800"><path fill="#019df4" d="M401.9 752.3c-229.7 0-351.2-121.4-351.2-351.2 0-229.8 121.4-351.3 351.2-351.3 112.1 0 199 29 258.4 86.3 61.6 59.4 92.9 148.6 92.9 265 .1 229.7-121.4 351.2-351.3 351.2zm0-682.5c-219.7 0-331.2 111.5-331.2 331.3 0 219.7 111.4 331.2 331.2 331.2 219.9 0 331.3-111.4 331.3-331.2.1-219.9-111.4-331.3-331.3-331.3z" style="fill: #019df4;"/><path fill="#019df4" d="M402 616.8c-68.6 0-122-17.9-158.5-53.1-37.9-36.6-57.2-91.3-57.2-162.6 0-59.4 13.4-107.5 39.8-143 25.9-34.7 64-57.3 113.5-67.1 5.4-1.1 10.7 2.4 11.8 7.9 1.1 5.4-2.4 10.7-7.9 11.8-91 18.1-137.2 82.2-137.2 190.5 0 129.9 65.8 195.7 195.7 195.7 129.9 0 195.8-65.8 195.8-195.7 0-109.7-47.5-174.1-141-191.2-5.4-1-9-6.2-8-11.6 1-5.4 6.2-9 11.6-8 50.7 9.3 89.9 31.6 116.5 66.4 27.2 35.6 41 84.2 41 144.5 0 71.3-19.3 126-57.2 162.6-36.7 35-90.1 52.9-158.7 52.9z" style="fill: #019df4;"/><path fill="#019df4" d="M402 302.8c-5.5 0-10-4.5-10-10V146.5c0-5.5 4.5-10 10-10s10 4.5 10 10v146.3c0 5.5-4.5 10-10 10z" style="fill: #019df4;"/><path fill="#019df4" d="M402 616.8c-68.6 0-122-17.9-158.5-53.1-37.9-36.6-57.2-91.3-57.2-162.6 0-59.4 13.4-107.5 39.8-143 25.9-34.7 64-57.3 113.5-67.1 5.4-1.1 10.7 2.4 11.8 7.9 1.1 5.4-2.4 10.7-7.9 11.8-91 18.1-137.2 82.2-137.2 190.5 0 129.9 65.8 195.7 195.7 195.7 129.9 0 195.8-65.8 195.8-195.7 0-109.7-47.5-174.1-141-191.2-5.4-1-9-6.2-8-11.6 1-5.4 6.2-9 11.6-8 50.7 9.3 89.9 31.6 116.5 66.4 27.2 35.6 41 84.2 41 144.5 0 71.3-19.3 126-57.2 162.6-36.7 35-90.1 52.9-158.7 52.9z" style="fill: #019df4;"/><path fill="#019df4" d="M402 302.8c-5.5 0-10-4.5-10-10V146.5c0-5.5 4.5-10 10-10s10 4.5 10 10v146.3c0 5.5-4.5 10-10 10z" style="fill: #019df4;"/></svg>
