<?xml version="1.0" encoding="UTF-8"?>
<svg xmlns="http://www.w3.org/2000/svg" viewBox="0 0 702.8 702.8"><path fill="#019df4" fill-rule="evenodd" d="M366.1 659.6c68.9-1.3 293.7-27.1 293.7-307.3 0-280.1-225.9-307.3-295.1-309-9.4-.2-20.5-.4-30.6-.3C265.8 43.7 43 67.5 43 350.4c0 283.2 224.7 308.4 293.6 309.4 9.9.2 20.7 0 29.5-.2zM365.7.4C422 1.7 702.8 25 702.8 352.3c0 327.6-279.8 349.3-336 350.3-6.2.1-13.5.2-20.7.2-3.4 0-6.8 0-10.1-.1C279.9 702 0 681.2 0 350.4S278 .6 333.8.1c10.4-.2 22.1 0 31.9.3zm-30 513.5c18.9 0 31.2 12.4 31.2 30.2 0 19.9-12.1 31.8-30.1 31.8-19.2 0-31.2-11.9-31.2-29.5v-2.3c.1-17.8 12.4-30.2 30.1-30.2zm94.4-359.1c24.9 18.4 36.6 43.7 36.6 79.7 0 44-18.2 70.2-59.9 119.4-47.8 55.3-49.7 57.5-49.7 109.1 0 7.9-6.4 14.3-14.3 14.3H327c-6.8 0-12.7-4.8-14.1-11.6-1.4-7.4-2.1-15-2-22.6 0-38.7 13.6-61.6 44.1-98.3l5.8-7c50.2-59.4 59.7-76 59.7-104 0-19.9-5.7-32.9-19.1-43.6-7.7-6.1-21.2-13.2-58.1-13.2-20.1 0-37.8 2.3-59.5 7.8-7.7 1.9-15.4-2.7-17.4-10.3-.1-.3-.1-.6-.2-.9l-2.3-12.2c-1.2-6.4 2-12.8 7.9-15.6 13.5-6.4 46.6-13 78.5-13 33.6-.1 60.4 7.3 79.8 22z" clip-rule="evenodd" style="fill: #019df4;"/></svg>
