<?xml version="1.0" encoding="UTF-8"?>
<svg xmlns="http://www.w3.org/2000/svg" viewBox="0 0 702.8 702.8"><path fill="#019df4" fill-rule="evenodd" d="M406.7 353.9c-47.8 55.3-49.6 57.5-49.6 109.1 0 7.9-6.4 14.3-14.3 14.3H327c-6.9 0-12.8-4.8-14-11.6-1.4-7.1-2-13.9-2-22.6 0-38.7 13.6-61.6 44.1-98.3l5.8-7c50.2-59.4 59.7-75.9 59.7-104 0-19.9-5.7-32.9-19.1-43.6-7.7-6.1-21.2-13.2-58.1-13.2-20 0-37.8 2.3-59.5 7.8-3.8.9-7.9.3-11.2-1.9-3.3-2.1-5.6-5.5-6.3-9.4l-2.3-12.3c-1.2-6.4 2-12.8 7.9-15.6 13.5-6.4 46.5-13 78.4-13 33.6 0 60.4 7.5 79.8 22.1 24.9 18.3 36.6 43.7 36.6 79.7-.1 44-18.4 70.2-60.1 119.5m-69.8 221.9c-19.1 0-31.2-11.9-31.2-29.5V544c0-17.7 12.4-30.1 30.1-30.1 18.9 0 31.2 12.4 31.2 30.1 0 20-12.1 31.8-30.1 31.8M365.7.4c-9.8-.2-21.5-.5-31.9-.3C278 .6 0 19.7 0 350.4 0 681.2 279.9 702 336 702.8c3.3.1 6.8.1 10.1.1 7.3 0 14.5-.1 20.7-.2 56.1-1 335.9-22.7 335.9-350.3C702.8 25 422 1.7 365.7.4" clip-rule="evenodd" style="fill: #019df4;"/></svg>
