<?xml version="1.0" encoding="UTF-8"?>
<svg xmlns="http://www.w3.org/2000/svg" viewBox="0 0 702.8 702.8"><path fill="#019df4" fill-rule="evenodd" d="M633 182.7l.3-13c-3.7-.8-7.5-1-11.3-.8l-542.4-.3c-3.4-.1-6.8.5-10 1.6v13c2.2.5 5.9 1 11 .8h18.5c1.6 0 3-.3 4.3-.3l494.4.3c1.9-.3 3.5.2 5.1.2H623c3.4.1 6.8-.4 10-1.5zm-26.6 342.1l.3-299.3c-.8-1.5-2.7-2-5.4-2.3l-499.5-.3c-3.2.5-5.7 2-5.7 2.8v299c.8 2.1 3.2 2.9 7.8 2.9l495.2.3c4.6 0 7-2.4 7.3-3.1zM350.2 669c12.6-.3 12.6-6.7 12.6-11.1 0-4.2 0-11.2-10.7-11.4H350c-9.4 0-10.2 5.4-10.2 11.1-.1 4.5-.1 11.2 10.4 11.4zM335.1 87.7l-78.4 42 185.3.3-73-42.9c-5.2 1.9-10.6 2.9-16.1 2.9h-3c-4.8 0-9.9-.8-14.8-2.3zm14.8-54c-9.4.3-10.2 5.4-10.2 11.2 0 5.7.8 11.4 10.5 11.4 12.6-.3 12.6-6.7 12.6-11.1 0-4.2 0-11.2-10.7-11.4l-2.2-.1zm313.4 108.8c6.4 5.7 9.9 13.5 10.2 21.5l-.3 24.6c0 14.1-10.5 25.5-27.1 30.9.3 1.8.8 3.9.8 5.9l-.3 299.3c0 23-21.2 42-47.5 42l-227.7-.3v50.1c14.8 6 26.3 19.5 26.3 41.3 0 30.3-22.5 44.4-44.8 44.9h-3.5c-22-.3-44.6-14.3-44.6-45.2 0-22.1 11.5-35.3 26.4-41.3v-49.8H105c-18.6.7-29.8-6.3-36.3-12.2-8.3-7.5-13-18.1-12.9-29.3V225.5c0-1.8.3-3.6.5-5.4-6.7-2.1-12.6-5.2-17.2-9.4-6.2-5.5-9.8-13.5-9.9-21.8v-24.6c0-20 21.2-34.5 50.2-34.5h94.2l132.9-71.1c-1.2-4.5-1.9-9.1-1.9-13.8 0-30.6 22.5-44.6 44.8-44.9v.3h3.5c22 .2 44.6 14.5 44.6 44.9 0 4.7-.5 8.8-1.6 12.5L520.2 130h101.2c18-.7 32.8 3.9 41.9 12.5zM473.7 456c8.1 0 14.8 6.2 14.8 14.3-.2 8-6.8 14.4-14.8 14.3H192c-8 .2-14.6-6.2-14.8-14.2V297.1c0-8.1 6.4-14.2 14.8-14.2 8.1 0 14.8 6.2 14.8 14.2v135.2l42.7-64.9c3.9-5.8 11.3-8.1 17.7-5.5l91.3 34 59.4-72.4H402c-8 .2-14.6-6.2-14.8-14.2v-.1c0-7.8 6.7-14.1 14.8-14.1h47.8c7.3 0 13.4 5 14.8 12l6.4 41.5c1 7.9-4.5 15.2-12.4 16.4-.8 0-1.6.3-2.4.3-7.2 0-13.3-5.2-14.5-12.2l-1.6-10.3-65.2 79.4c-4.2 4.7-10.9 6.5-16.9 4.5l-90.2-33.8-41.7 63.1h247.6z" clip-rule="evenodd" style="fill: #019df4;"/></svg>
