<?xml version="1.0" encoding="UTF-8"?>
<svg xmlns="http://www.w3.org/2000/svg" viewBox="0 0 702.8 702.8"><path fill="#019df4" fill-rule="evenodd" d="M646.6 184.3s2.5-.4 2.5-10.2c0-9.3-3.3-11.9-3.3-11.9-1.5-1.2-4.9-2-16.1-2H74c-10.7 0-13-.6-17.1 3.3-.1 0-2.4 2.5-2.3 11.7.1 8.6 4.1 11 4.1 11 2.2 1.6 3.3 2.7 14.5 2.7h555.9c10.4-.1 16.7-3.3 17.5-4.6zm-27.7 342.3V224.3c.1-2.4-.8-4.6-2.5-6.3-1.9-1.8-5.4-2.3-9.6-2.9H95.4c-6.3 1.1-11.5 4.7-11.5 9.2V527c0 2.3.8 4.5 2.8 6 2.5 2.3 6.9 3.1 12.6 3.1l505.5.3c7.3 0 14.1-4.5 14.1-9.8zM367.4 661.3c0-4.2 0-15-15.1-15.2h-2.5c-14.6 0-14.6 11-14.6 15.2 0 3.9 0 15.2 14.8 15.2 17.4-.2 17.4-11 17.4-15.2zM331.5 79l-103.1 54.9h240.5l-96.3-55.4c-6 2.9-12.9 4.5-19.5 4.7h-3c-6.4-.2-12.7-1.6-18.6-4.2zm18.4-52.8c-14.6 0-14.6 11-14.6 15.3s0 15.2 15.1 15.5c17-.2 17-11.2 17-15.2 0-4.2 0-15.2-15.1-15.5.1-.1-2.4-.1-2.4-.1zm315.7 118.5c4.9 4.7 7.9 11 7.9 17.3v24.7c0 13.1-11.8 23.1-29.3 26.8 1.1 3.4 2.2 6.8 2.2 10.5v302.7c0 19.9-18.6 35.9-41.7 35.9H365.3V622c16.5 4.5 29.6 17.3 29.6 39.4 0 28.1-21.1 41.2-41.6 41.5h-3.6c-20.6-.3-41.7-13.1-41.7-41.5 0-22.8 13.7-35.7 29.9-39.9v-58.8l-238-.3c-15.9 1.1-26.6-5.2-32.1-10.2-7.1-6.5-11.2-15.6-11.3-25.2V224.2c0-3.7 1.1-7.4 2.2-10.5-8.8-1.8-16.2-4.7-21.1-9.4-5-4.4-8-10.7-8.3-17.3l.3-24.7c0-16.5 18.7-28.3 44.5-28.3H172l139.6-74.3c-2.4-5.7-3.7-11.9-3.6-18.1C308 13.2 329.1.4 350 .1h3.3c20.6.6 41.6 13.7 41.6 41.7 0 6.3-1.1 12.1-3.3 17.1L521.9 134h105.6c16.7-.6 29.8 3.3 38.1 10.7zm-189 313.7c7.4 0 13.7 6 13.7 13.1-.2 7.4-6.3 13.3-13.7 13.1h-288c-7.4.1-13.5-5.7-13.7-13.1V296.4c0-7.1 6.3-13.1 13.7-13.1 7.4-.1 13.5 5.7 13.7 13.1v141.2l46.3-69.1c3.5-5.5 10.4-7.7 16.5-5.3l94.1 34.9 63.1-76.1h-18.9c-7.3.2-13.5-5.5-13.7-12.8v-.3c0-7.4 6-13.1 13.7-13.1h48.8c6.6 0 12.4 4.7 13.5 11l6.6 42.3c1.4 7-3.8 13.6-11.5 14.9h-1.9c-6.6 0-12.6-4.7-13.5-11l-2.1-13.6-68.8 82.7c-3.8 4.6-10.1 6.2-15.6 4.2l-93-34.6-44.9 66.7h255.6z" clip-rule="evenodd" style="fill: #019df4;"/></svg>
