<?xml version="1.0" encoding="UTF-8"?>
<svg xmlns="http://www.w3.org/2000/svg" viewBox="0 0 702.8 702.8"><path fill="#019df4" fill-rule="evenodd" d="M633 182.7l.3-13c-3.7-.8-7.5-1-11.3-.8l-542.5-.3c-3.4-.1-6.8.5-10 1.6v13c2.2.5 5.9 1 11 .8H99c1.6 0 3-.3 4.3-.3l494.4.3c1.9-.3 3.5.2 5.1.2H623c3.4.1 6.8-.4 10-1.5zM350.2 669c12.6-.3 12.6-6.7 12.6-11.1 0-4.2 0-11.2-10.7-11.4H350c-9.4 0-10.2 5.4-10.2 11.1-.1 4.5-.1 11.2 10.4 11.4zM335.1 87.7l-78.5 42 185.4.3-73-42.9c-5.2 1.9-10.6 2.9-16.1 2.9h-3c-4.8 0-9.9-.8-14.8-2.3zm14.8-54c-9.4.3-10.2 5.4-10.2 11.2 0 5.7.8 11.4 10.5 11.4 12.6-.3 12.6-6.7 12.6-11.1 0-4.2 0-11.2-10.7-11.4l-2.2-.1zm313.5 108.8c6.4 5.7 9.9 13.5 10.2 21.5l-.3 24.6c0 14.1-10.5 25.5-27.1 30.9.3 1.8.8 3.9.8 5.9l-.3 299.3c0 23-21.2 42-47.5 42l-227.7-.3v50.1c14.8 6 26.3 19.5 26.3 41.3 0 30.3-22.5 44.4-44.8 44.9h-3.5c-22-.3-44.6-14.3-44.6-45.2 0-22.1 11.5-35.3 26.4-41.3v-49.8H105c-18.6.7-29.8-6.3-36.3-12.2-8.3-7.5-13-18.1-12.9-29.3V225.5c0-1.8.3-3.6.5-5.4-6.7-2.1-12.6-5.2-17.2-9.4-6.2-5.5-9.8-13.5-9.9-21.8v-24.6c0-20 21.2-34.5 50.2-34.5h94.2l133-71.1c-1.2-4.5-1.9-9.1-1.9-13.8 0-30.6 22.5-44.6 44.8-44.9v.3h3.5c22 .2 44.6 14.5 44.6 44.9 0 4.7-.5 8.8-1.6 12.5L520.2 130h101.2c18-.7 32.8 3.9 42 12.5zM473.7 456H226l41.6-63.1 90.2 33.8c5.9 2 12.9.2 16.9-4.4l65.2-79.4 1.6 10.3c1.1 7 7.5 12.2 14.5 12.2.8 0 1.6-.3 2.4-.3 7.9-1.2 13.4-8.5 12.4-16.4l-6.4-41.5c-1.4-7-7.6-12.1-14.8-11.9H402c-7.9-.2-14.5 6.1-14.8 14 0 8 6.7 14.2 14.8 14.2h15.8L358.4 396l-91.3-34c-6.5-2.6-13.9-.3-17.7 5.5l-42.7 64.9V297.1c-.1-8-6.7-14.4-14.7-14.2h-.1c-7.9-.3-14.5 5.9-14.8 13.8v173.5c0 7.8 6.4 14.3 14.8 14.3h281.7c8 .1 14.6-6.3 14.8-14.3-.1-7.9-6.6-14.3-14.7-14.2z" clip-rule="evenodd" style="fill: #019df4;"/></svg>
