<?xml version="1.0" encoding="UTF-8"?>
<svg xmlns="http://www.w3.org/2000/svg" viewBox="0 0 702.8 702.8"><path fill="#019df4" fill-rule="evenodd" d="M351.3 659.7c204.6 0 308.4-103.7 308.4-308.2 0-204.6-103.7-308.4-308.4-308.4-204.5 0-308.2 103.8-308.2 308.4 0 204.5 103.7 308.2 308.2 308.2zm0-659.7c229.9 0 351.5 121.5 351.5 351.5 0 229.8-121.5 351.3-351.5 351.3C121.5 702.8 0 581.3 0 351.5 0 121.5 121.5 0 351.3 0zm1.6 72.9c11.9 0 21.6 9.7 21.6 21.6v108c0 11.9-9.6 21.6-21.6 21.6s-21.6-9.6-21.6-21.6v-108c.1-11.9 9.7-21.6 21.6-21.6zM224 349.9c0 11.9-9.7 21.6-21.6 21.6h-108c-11.9 0-21.6-9.6-21.6-21.6s9.6-21.6 21.6-21.6h108c12 .1 21.6 9.7 21.6 21.6zm5.8 90.5c8.4-8.4 22.1-8.4 30.5 0 8.4 8.4 8.4 22.1 0 30.5L184 547.2c-8.4 8.4-22 8.4-30.4.1l-.1-.1c-8.4-8.4-8.4-22.1 0-30.5l76.3-76.3zm120.1 38.4c11.9 0 21.5 9.7 21.5 21.6v107.9c-.4 11.9-10.4 21.2-22.3 20.7-11.3-.4-20.3-9.5-20.7-20.7V500.4c0-11.9 9.6-21.6 21.5-21.6zm121-36.2l76.3 76.3c8.1 8.8 7.5 22.4-1.2 30.5-8.3 7.6-21 7.6-29.2 0L440.4 473c-8.8-8.1-9.3-21.7-1.2-30.5 8.1-8.8 21.7-9.3 30.5-1.2.4.4.8.9 1.2 1.3zm137.4-111.2c11.9.4 21.2 10.4 20.7 22.3-.4 11.3-9.5 20.3-20.7 20.7h-108c-11.9-.4-21.2-10.4-20.7-22.3.4-11.3 9.5-20.3 20.7-20.7h108zm-150.5-62.7c-11.9 0-21.5-9.6-21.6-21.5 0-5.7 2.3-11.3 6.3-15.3l76.3-76.4c8.4-8.4 22.1-8.4 30.5 0 8.4 8.4 8.4 22 0 30.5L473 262.4c-4 4-9.5 6.3-15.2 6.3z" clip-rule="evenodd" style="fill: #019df4;"/></svg>
