<?xml version="1.0" encoding="UTF-8"?>
<svg xmlns="http://www.w3.org/2000/svg" viewBox="0 0 702.8 702.8"><path fill="#019df4" d="M351.4 0c229 0 351.4 121.2 351.4 351.4S581.6 702.8 351.4 702.8 0 581.6 0 351.4 121.2 0 351.4 0zm0 673.5c212.9 0 322.1-108.3 322.1-322.1S565.5 29.3 351.4 29.3 29.3 138.5 29.3 351.4s108 322.1 322.1 322.1zm0-599.1c7.7 0 14 5.8 14.6 13.5v111.3c-.2 8-6.6 14.5-14.6 14.6-8.1 0-14.6-6.6-14.6-14.6V89c0-8.1 6.5-14.6 14.6-14.6zm-137.6 275c0 8.1-6.6 14.6-14.6 14.6H87.8c-8.1 0-14.6-6.6-14.6-14.6 0-8.1 6.6-14.6 14.6-14.6h111.3c8.1-.1 14.7 6.5 14.7 14.6zm18.1 97.5c6-5.4 15.3-5 20.7 1l.1.1c5.7 5.3 5.9 14.2.6 19.9l-.6.6-77 76.7c-2.8 3.1-6.9 4.7-11.1 4.4-8.1-.1-14.5-6.8-14.4-14.8.1-3.8 1.6-7.4 4.2-10-.1 0 77.5-77.9 77.5-77.9zm117.5 41.3c8.1 0 14.6 6.6 14.6 14.6v109.8c0 8.1-6.6 14.6-14.6 14.6-8.1 0-14.6-6.6-14.6-14.6V502.8c-.1-8.1 6.5-14.6 14.6-14.6zm119.1-39.3l77.9 77.9c5.7 5.7 5.8 15 .1 20.7l-.1.1c-2.8 2.6-6.4 4.1-10.2 4.1-3.8 0-7.5-1.4-10.2-4.1l-78-77.9c-5.7-5.7-5.8-15-.1-20.7l.1-.1c5.7-5.6 14.8-5.6 20.5 0zm144.1-111c8.1 0 14.6 6.6 14.6 14.6 0 8.1-6.6 14.6-14.6 14.6H502.8c-8.1 0-14.6-6.6-14.6-14.6 0-8.1 6.6-14.6 14.6-14.6h109.8zm-153.1-78.7c-3.9 0-7.7-1.5-10.5-4.1-5.6-5.8-5.6-15 0-20.8l78.2-77.9c6.2-5.2 15.4-4.4 20.6 1.7 4.7 5.5 4.6 13.6-.1 19.1l-79.1 77.9c-2.6 2.3-5.8 3.7-9.1 4.1z" style="fill: #019df4;"/></svg>
