<?xml version="1.0" encoding="UTF-8"?>
<svg xmlns="http://www.w3.org/2000/svg" viewBox="0 0 702.8 702.8"><path fill="#019df4" fill-rule="evenodd" d="M608.3 374.5H500.4c-11.9 0-21.6-9.6-21.6-21.6s9.6-21.6 21.6-21.6h107.9c11.9 0 21.6 9.6 21.6 21.6s-9.7 21.6-21.6 21.6zm-61.1 174.9c-8.4 8.4-22 8.5-30.4.1l-.1-.1-76.3-76.4c-8.4-8.4-8.4-22.1 0-30.5s22.1-8.4 30.5 0l76.3 76.3c8.5 8.5 8.5 22.1 0 30.6zM374.5 202.5c0 11.9-9.6 21.6-21.6 21.6s-21.6-9.6-21.6-21.6v-108c0-11.9 9.6-21.6 21.6-21.6s21.6 9.6 21.6 21.6v108zm-3 405.8c0 11.9-9.6 21.6-21.6 21.6s-21.6-9.6-21.6-21.6v-108c0-11.9 9.6-21.6 21.6-21.6s21.6 9.6 21.6 21.6v108zM260.2 470.9l-76.3 76.4c-8.4 8.4-22.1 8.4-30.5 0-8.4-8.4-8.4-22.1 0-30.5l76.3-76.3c8.6-8.2 22.3-7.8 30.5.8 7.9 8.2 7.9 21.3 0 29.6zm-187.3-121c0-11.9 9.7-21.6 21.6-21.6h108c11.9 0 21.6 9.6 21.6 21.6s-9.6 21.6-21.6 21.6h-108c-11.9 0-21.6-9.7-21.6-21.6zm369.7-118l76.3-76.3c8.4-8.4 22-8.4 30.5 0s8.4 22 0 30.5L473 262.4c-8.4 8.4-22 8.4-30.5 0-8.3-8.4-8.3-22 .1-30.5zM351.3 0C121.5 0 0 121.5 0 351.5c0 229.8 121.5 351.3 351.3 351.3 229.9 0 351.5-121.5 351.5-351.3C702.8 121.5 581.3 0 351.3 0z" clip-rule="evenodd" style="fill: #019df4;"/></svg>
