<?xml version="1.0" encoding="UTF-8"?>
<svg xmlns="http://www.w3.org/2000/svg" viewBox="0 0 702.8 702.8"><path fill="#019df4" fill-rule="evenodd" d="M702.8 453.7v131.4c0 8.2-6.7 14.8-14.8 14.7H554.8c-8.2.2-14.9-6.3-15.1-14.5v-.2c0-8.2 6.6-14.7 15.1-14.7h100.3L441.8 274.6l-270 115.5c-7 2.9-15.1.3-19-6.2L2 124.2c-4.1-7.1-1.6-16.1 5.5-20.2.1-.1.2-.1.3-.2 7.3-3.9 16.3-1.4 20.6 5.6l144.1 248.3L441 242.8c6.6-3 14.3-.9 18.4 5l213.2 295.4v-89.6c0-8.2 6.6-14.7 15.1-14.7 8.5.1 15.1 6.6 15.1 14.8" clip-rule="evenodd" style="fill: #019df4;"/></svg>
