<?xml version="1.0" encoding="UTF-8"?>
<svg xmlns="http://www.w3.org/2000/svg" viewBox="0 0 702.8 702.8"><path fill="#019df4" fill-rule="evenodd" d="M702.6 452l-15.3 124.3c-1.8 14.1-13.9 24.6-28.1 24.5H534.6c-15.5.1-28.1-12.3-28.3-27.8 0-15.3 12.8-27.8 28.3-27.8h67.2l-178-248.1-242.5 104.5c-13.4 5.6-28.9.5-36.3-11.9L3.6 144.6C-4 131.2.7 114.3 14.1 106.7c.1-.1.2-.1.3-.2C28 99 45.1 103.6 52.9 117l128.9 223.3L422.1 237c12.3-5.4 26.7-1.5 34.6 9.4l182.7 255.1 6.8-56.2c2.2-15.4 16.2-26.3 31.7-24.5 15.3 1.7 26.4 15.6 24.7 30.9v.3" clip-rule="evenodd" style="fill: #019df4;"/></svg>
