<?xml version="1.0" encoding="UTF-8"?>
<svg xmlns="http://www.w3.org/2000/svg" viewBox="0 0 702.8 702.8"><path fill="#019df4" fill-rule="evenodd" d="M702.8 124.4v127.7c0 11.7-10 21.4-22.2 21.4-12 .2-22-9.4-22.2-21.4V187L463.1 456.2c-6.1 8.5-17.3 11.6-26.9 7.4l-257-109.3L41.4 590c-4 6.8-11.3 10.9-19.2 10.8-3.8 0-7.5-.9-11-2.6C.9 592.7-3 579.9 2.5 569.6c.2-.3.3-.6.5-.8l147.5-252.2c5.8-9.7 17.8-13.6 28.1-9.1l258.7 109.9L634.5 146h-84c-12 .2-22-9.4-22.2-21.4v-.1c0-12 9.8-21.5 22.2-21.5h130.1c12.1 0 22.2 9.4 22.2 21.4" clip-rule="evenodd" style="fill: #019df4;"/></svg>
