<?xml version="1.0" encoding="UTF-8"?>
<svg xmlns="http://www.w3.org/2000/svg" viewBox="0 0 702.8 702.8"><path fill="#019df4" fill-rule="evenodd" d="M702.8 117.7v131.2c0 8.2-6.9 14.7-15.1 14.7-8.2.2-14.9-6.3-15.1-14.5v-89.5L459.4 455.2c-4.3 5.6-11.8 7.7-18.4 5L172.2 345 28.4 593.4c-4.4 7-13.5 9.4-20.8 5.6-7.1-4-9.7-13-5.7-20.1L152.5 319c3.9-6.7 12.3-9.4 19.4-6.2l269.7 115.6 213.5-295.9H554.5c-8.2 0-14.9-6.6-15.1-14.8.1-8.2 6.9-14.8 15.1-14.7h133.2c8.2 0 15.1 6.4 15.1 14.7" clip-rule="evenodd" style="fill: #019df4;"/></svg>
