<?xml version="1.0" encoding="UTF-8"?>
<svg xmlns="http://www.w3.org/2000/svg" viewBox="0 0 702.8 702.8"><path fill="#019df4" fill-rule="evenodd" d="M342.4 331.8l-42 21.2c0-10.2 0-20.1-.2-29.7l27.4-13.8c6.4-3.3 10.6-10 10.6-17.4V82.2h26.4v210.4c0 7.4 4.1 14.1 10.6 17.4l27.2 13.8c-.1 9.6-.2 19.5-.2 29.7l-42.9-21.7c-5.2-2.7-11.5-2.7-16.9 0m351.1 121.9c-21-123.9-110.4-228.2-122.7-242-17.8-27-42.6-40.1-75.7-40.1-51.9 0-71 29.7-77.9 48.8-3.1 6.1-5.9 13.5-8.6 23-2.2 7.8-3.8 21.1-4.7 37.8l-1.2-.6V77.2c0-18.6-14.9-33.8-33.2-33.8h-36.2c-18.3 0-33.2 15.2-33.2 33.8v202.9l-1.2.6c-1-17.2-2.5-30.9-4.8-38.9v-.1c-2.8-9.7-5.5-16.9-8.6-22.9-6.8-19.1-25.9-48.8-77.8-48.8-33.1 0-57.9 13.1-75.7 40.1C119.7 224 30.3 328.2 9.3 452.2-7.3 550.4-1.8 607.4 27.1 637.1c3 3.1 19.4 18.5 45.5 19.6 1.6.1 3.2.1 4.7.1 37.1 0 60-19.6 72.6-30.3l2.8-2.4c10.7-8.9 13.6-11.3 25.6-11.3 14.6.1 53-3.2 58.8-4.8 38-10 58.9-40.1 58.9-84.3 1.1-24.8 3.1-75.2 4-127.1l51-25.7 51.9 26.2c.9 52.2 2.9 102.9 4 127.7 0 44.7 20.9 74.8 58.7 84.7 6.1 1.7 44.8 4.9 58.7 4.9h.2c12.1 0 15 2.4 25.6 11.3l2.8 2.4c12.6 10.7 35.5 30.3 72.6 30.3 1.5 0 3.1-.1 4.7-.1 26.1-1.1 42.5-16.5 45.6-19.7 28.9-29.8 34.3-86.8 17.7-184.9" clip-rule="evenodd" style="fill: #019df4;"/></svg>
