<?xml version="1.0" encoding="UTF-8"?>
<svg xmlns="http://www.w3.org/2000/svg" viewBox="0 0 702.8 702.8"><path fill="#019df4" fill-rule="evenodd" d="M644.7 606.9c-.3.2-6.4 6.2-16.4 6.6-22.5 1.2-35.7-10-47.2-19.8l-3.2-2.7c-12.6-10.6-25.7-21.5-53.6-21.5h-.3c-13.5 0-44.5-3-47.4-3.4-12.8-3.4-25.9-10.9-26-43-4.9-111.2-6.9-242.3.2-267.3 2-7 3.9-12.1 5.7-15.5.6-1.2 1.2-2.4 1.6-3.7 2-6.1 6.7-20.2 36.8-20.2 18.7 0 30.2 6.2 39.9 21.3.7 1 1.5 2.1 2.3 3 .9 1 93.1 103.6 112.9 220.6 16.8 98.5 6.3 133.7-5.3 145.6M342.4 331.8l-42 21.2c0-10.2 0-20.1-.2-29.7l27.4-13.8c6.4-3.3 10.6-10 10.6-17.4V82.2h26.4v210.4c0 7.4 4.1 14.1 10.6 17.4l27.2 13.8c-.1 9.6-.2 19.5-.2 29.7l-42.9-21.7c-5.2-2.7-11.5-2.7-16.9 0M252 523.1c0 30.5-13.1 38.1-24.5 41.1-4.3.7-35.2 3.7-48.8 3.7h-.3c-27.8 0-40.9 10.9-53.5 21.5l-3.2 2.7c-11.4 9.8-24.4 21-47.2 19.8-10-.4-16.1-6.4-16.2-6.4-11.7-12.1-22.2-47.2-5.6-145.8 19.8-117 111.9-219.6 112.9-220.7.8-.9 1.6-1.9 2.3-3 9.6-15.1 21.2-21.3 39.9-21.3 30.2 0 34.8 14.2 36.8 20.2.4 1.3 1 2.6 1.7 3.9 1.8 3.3 3.6 8.2 5.7 15.4 7 25.1 5 156.2 0 268.9m441.5-69.4c-21-123.9-110.4-228.2-122.7-242-17.8-27-42.6-40.1-75.7-40.1-51.9 0-71 29.7-77.9 48.8-3.1 6.1-5.9 13.5-8.6 23-2.2 7.8-3.8 21.1-4.7 37.8l-1.2-.6V77.2c0-18.6-14.9-33.8-33.2-33.8h-36.2c-18.3 0-33.2 15.2-33.2 33.8v202.9l-1.2.6c-1-17.2-2.5-30.9-4.8-38.9v-.1c-2.8-9.7-5.5-16.9-8.6-22.9-6.8-19.1-25.9-48.8-77.8-48.8-33.1 0-57.9 13.1-75.7 40.1C119.7 224 30.3 328.2 9.3 452.2-7.3 550.4-1.8 607.4 27.1 637.1c3 3.1 19.4 18.5 45.5 19.6 1.6.1 3.2.1 4.7.1 37.1 0 60-19.6 72.6-30.3l2.8-2.4c10.7-8.9 13.6-11.3 25.6-11.3 14.6.1 53-3.2 58.8-4.8 38-10 58.9-40.1 58.9-84.3 1.1-24.8 3.1-75.2 4-127.1l51-25.7 51.9 26.2c.9 52.2 2.9 102.9 4 127.7 0 44.7 20.9 74.8 58.7 84.7 6.1 1.7 44.8 4.9 58.7 4.9h.2c12.1 0 15 2.4 25.6 11.3l2.8 2.4c12.6 10.7 35.5 30.3 72.6 30.3 1.5 0 3.1-.1 4.7-.1 26.1-1.1 42.5-16.5 45.6-19.7 28.9-29.8 34.3-86.8 17.7-184.9" clip-rule="evenodd" style="fill: #019df4;"/></svg>
