<?xml version="1.0" encoding="UTF-8"?>
<svg xmlns="http://www.w3.org/2000/svg" viewBox="0 0 702.8 702.8"><path fill="#019df4" fill-rule="evenodd" d="M656.1 620.1c-.3.3-8.3 8.2-21.6 8.8-26.4 1-41.2-11.6-53.3-21.9l-3.2-2.7c-13-10.8-24.2-20.2-50-20.2-14.5-1.1-47.2-3.2-50.6-3.7-13.8-3.6-32.1-12.7-32.1-50.9-5.3-117.7-7.1-248.4.4-274.8 2.2-7.9 4.3-13.4 7.6-19.9 2.1-6.4 8.5-25.8 44.7-25.8 21.7 0 35.7 7.5 48.5 27.2 1 1.1 96.5 107.1 117.1 228.6 14.3 83.3 11.7 135.5-7.5 155.3zM355.4 338.3c-4.2-2.1-9.2-2.1-13.3 0l-50.2 25.3c.1-13.9 0-27.4-.2-40.1l33-16.6c5.1-2.6 8.3-7.8 8.3-13.6l-.5-218.4 36.5-.5v219.5c0 5.8 3.2 11 8.3 13.6l33.7 17c-.2 13.3-.2 27.5-.1 42l-55.5-28.2zm-98 190.9c0 36.9-18.3 46-31.3 49.4-4.2.7-37 3.3-51.4 3.9-25.7 0-36.9 9.3-49.9 20.2l-3.2 2.7c-12.1 10.2-26.4 22.9-53.3 21.9-13.3-.6-21.3-8.5-21.6-8.8-19.2-19.8-21.8-72-7.8-155.1 20.6-121.5 116.2-227.6 118.7-230.7 11.3-17.6 25.3-25.1 47-25.1 32.4 0 41 14.7 45.8 28.3 2.2 4.1 4.3 9.6 6.5 17.4 7.6 26.3 5.7 156.9.5 275.9zm435.9-69.4c-22.1-130.6-120.5-239.6-123.1-242.1-16.8-26.2-40.4-39-72.1-39-37.2 0-63.2 16.5-72 43.9-3.4 6.1-6.2 13.4-9.1 23.6-2.5 8.7-4.1 24.8-5 44.6l-13.1-6.6v-210c0-16.5-13.2-29.9-29.4-29.9h-37c-16.2 0-29.4 13.4-29.4 29.9v209.5l-12.4 6.3c-1-20.2-2.5-36.6-5.1-45.4-2.9-10.1-5.7-17.6-8-21.1-9.9-30-35.9-46.5-73.1-46.5-31.8 0-55.3 12.8-70.5 36.9-4.2 4.6-102.5 113.6-124.7 244.2-16.5 97.3-11.6 153.4 16 181.6 2.7 2.8 17.4 16.8 41.6 17.9 1.6.1 3.1.1 4.6.1 35 0 56.3-18.1 69.2-29.1l3-2.5c11.3-9.4 16.2-12.6 31.2-13.3 15.6 0 53.2-3.4 57.8-4.7 35.1-9.3 54.5-37.3 54.5-78.9 1.1-25.6 3.2-78.1 4.2-131.6l57.2-28.8 62.6 31.6c1 53.1 3.1 104.9 4.2 130.3 0 41.7 19.4 69.8 54.3 79 4.7 1.3 42.3 4.7 58 4.7h.3c15 0 19.7 3.9 30.9 13.3l3 2.5c12.9 11 34.2 29.1 69.2 29.1 1.5 0 3.1 0 4.6-.1 24.1-1.1 38.9-15.1 41.6-17.8 27.6-28.2 32.5-84.3 16-181.6z" clip-rule="evenodd" style="fill: #019df4;"/></svg>
