<?xml version="1.0" encoding="UTF-8"?>
<svg xmlns="http://www.w3.org/2000/svg" viewBox="0 0 702.8 702.8"><path fill="#019df4" fill-rule="evenodd" d="M44.2 556.2v78.2c0 4.4 3.4 7.9 7.7 7.9h448.7c4.1 0 7.4-3.6 7.4-7.9V527.3c0-7.3 3.4-14.2 9.2-18.4 5.8-4.3 13.2-5.3 20-3 12 4.2 23.3 5.1 30.8 5.4 1.9 0 4.6 0 6.8-.2 26.5-.5 83.8-9.8 83.8-88.2 0-74.8-51.4-87.7-82.2-88.6h-9.8c-4.5 0-16.4.5-29.8 4.9-6.6 2.2-14 1-19.8-3.3-5.7-4.2-9-11-9-18.3v-95.9c0-4.4-3.3-8-7.4-8H378.4c-7.1 0-13.7-3.4-17.8-9.3-4.2-5.8-5.4-13.3-3.2-20.2 3.4-11 5.1-22.8 5.1-36.1 0-75.2-51.7-87.9-82.5-88.7h-9.5c-30 .4-80.7 12.4-80.7 88 0 13.6 1.7 25.9 5.1 36.8 2.1 6.9.9 14.4-3.2 20.2-4.2 5.8-10.8 9.3-17.8 9.3H52c-4.3 0-7.7 3.6-7.7 8l.2 67.3c6.5.2 23.6 1 42.8 7.8 30.6 9.7 83.2 39.2 83.2 126.2 0 86.7-52.6 116.4-83.9 126.4-17.9 6.1-33.9 7-41.8 7-.3-.2-.4-.2-.6-.2m456.4 131.5H51.9C23.3 687.7 0 663.8 0 634.5V532.9c0-6.5 2.7-12.6 7.4-17 4.7-4.3 10.9-6.4 17.3-5.5 4.3.5 8 .8 10.6.9h1.3c1.9 0 4 0 5.8-.2 6.4-.1 17.7-.6 30.6-5 35.4-11.3 53.2-39.2 53.2-83.2 0-44.1-17.7-72.1-52.8-83.1-13.8-4.9-26-5.4-30-5.6h-9.5c-2 .1-5.4.2-9.5.7-6.5.7-12.5-1.4-17.1-5.6C2.6 325 0 318.9 0 312.4v-90.7c0-29.4 23.3-53.2 51.9-53.2h94.8c-.7-6.8-1.1-13.8-1.1-21C145.6 50.4 210 15 270.2 14.2h10.4c61.2 1.7 126.1 37.7 126.1 133.9 0 7-.4 13.8-1.1 20.3h95.1c28.5 0 51.6 23.9 51.6 53.2v68.1c6-.7 11-.8 14.4-.8h10.7c60.6 1.8 125.4 37.9 125.4 133.9 0 97.1-67.6 132.5-125.4 133.3-1.6.2-5.9.3-10.1.3-3-.1-8.3-.3-15-1.1v79.1c0 29.4-23.2 53.3-51.7 53.3" clip-rule="evenodd" style="fill: #019df4;"/></svg>
