<?xml version="1.0" encoding="UTF-8"?>
<svg xmlns="http://www.w3.org/2000/svg" viewBox="0 0 702.8 702.8"><path fill="#019df4" fill-rule="evenodd" d="M500.6 687.7H51.9C23.3 687.7 0 663.8 0 634.5V532.9c0-6.5 2.7-12.6 7.4-17 4.7-4.3 10.9-6.4 17.3-5.5 4.3.5 8 .8 10.6.9h1.3c1.9 0 4 0 5.8-.2 6.4-.1 17.7-.6 30.6-5 35.4-11.3 53.2-39.2 53.2-83.2 0-44.1-17.7-72.1-52.8-83.1-13.8-4.9-26-5.4-30-5.6h-9.5c-2 .1-5.4.2-9.5.7-6.5.7-12.5-1.4-17.1-5.6C2.6 325 0 318.9 0 312.4v-90.7c0-29.4 23.3-53.2 51.9-53.2h94.8c-.7-6.8-1.1-13.8-1.1-21C145.6 50.4 210 15 270.2 14.2h10.4c61.2 1.7 126.1 37.7 126.1 133.9 0 7-.4 13.8-1.1 20.3h95.1c28.5 0 51.6 23.9 51.6 53.2v68.1c6-.7 11-.8 14.4-.8h10.7c60.6 1.8 125.4 37.9 125.4 133.9 0 97.1-67.6 132.5-125.4 133.3-1.6.2-5.9.3-10.1.3-3-.1-8.3-.3-15-1.1v79.1c0 29.4-23.2 53.3-51.7 53.3" clip-rule="evenodd" style="fill: #019df4;"/></svg>
