<?xml version="1.0" encoding="UTF-8"?>
<svg xmlns="http://www.w3.org/2000/svg" viewBox="0 0 702.8 702.8"><path fill="#019df4" fill-rule="evenodd" d="M671.3 668.7c.6-1.2 1.5-3.6-.3-6.6L464.3 388.9c-32 9.4-73.5 14.5-117.1 14.5-40.6 0-79.3-4.5-110-12.7L30.7 666.9c-.3.9 0 2.4.6 3.4.6 1.2 1.8 2.4 3.7 2.4h629.5c4-.1 6.2-2.8 6.8-4zM276.5 337.8l-19.6 26.3c55.3 11.8 134.2 11.2 187.4-1.5l-18.7-24.8c-1.9-2.4-3.1-5.7-3.1-8.8V30.1H279.6v262.6c.3 1.2 0 2.4 0 3.9v32.3c0 3.2-1.2 6.5-3.1 8.9zm419.7 307c8.3 12.7 8.6 26.6 1.8 38.6-6.8 12.1-19.4 19.3-33.5 19.3H35c-12.6 0-24.2-6.6-30.4-17.5-6.5-11.2-6.1-24.2.6-35l243.7-326.3v-27.2c-.3-1.5-.3-3 0-3.9V30.2h-35.6c-8.3 0-15.4-6.9-15.4-15.1 0-8.5 7-15.1 15.4-15.1h276.5c8.3 0 15.4 6.6 15.4 15.1 0 8.2-7.1 15.1-15.4 15.1h-36.6v293.7l243 320.9zm-260.8-31.5c8.4-.2 42.2-3.3 42.2-44 0-40.6-33.7-44-42.3-44.2H431c-8.9.1-41.8 3.1-41.8 44s33.3 44.1 42.2 44.2h4zm.6-118.4c35.9.8 72.3 24.2 72.3 74.4 0 50.3-36.3 73.5-72.3 74.1h-5.1c-36.1-.5-72.5-23.7-72.5-74.4 0-50.8 36.3-73.8 72.4-74.1H436zM276.7 520c4.7-.1 23.5-1.8 23.5-24.5 0-22.5-18.7-24.4-23.6-24.5h-2.3c-4.9.1-23.3 1.8-23.3 24.5s18.6 24.5 23.5 24.6h.8c.5 0 1-.1 1.4-.1zm.6-79.1c25.8.6 53.5 18.1 53.5 54.7 0 36.9-27.8 54.2-53.6 54.6H274c-25.9-.4-53.7-17.7-53.7-54.8 0-37.2 27.9-54.4 53.7-54.6h.9l2.4.1z" clip-rule="evenodd" style="fill: #019df4;"/></svg>
