<?xml version="1.0" encoding="UTF-8"?>
<svg xmlns="http://www.w3.org/2000/svg" viewBox="0 0 702.8 702.8"><path fill="#019df4" fill-rule="evenodd" d="M434 622.7h-4.5c-12.9-.3-27.1-4.4-37.9-13.6-10.9-9.2-18.4-23.3-18.4-44.6 0-42.2 30.1-57.6 56-57.6h4.8c25.9.6 55.9 16.3 55.9 57.9 0 41.9-30.1 57.3-55.9 57.9M271.9 359.1l12.1-16.3c3-3.8 4.5-8.6 4.5-13.3V44.3h125.1v285.2c0 5 1.5 9.5 4.5 13.3l12.3 16.6c-49.4 7.4-109.8 7.4-158.5-.3m6.6 172.3h-2.7c-18.6-.3-37.6-12.4-37.6-39 0-26.3 18.9-38.4 37.6-38.4h2.7c18.9.3 37.9 12.4 37.9 38.7 0 26.3-19 38.4-37.9 38.7M695 634.5L487.8 361.1l-29.2-38.7V44.3h28c12.7 0 22.6-10.1 22.6-22.2S499.3-.1 486.6-.1H216.3C204-.1 193.7 10 193.7 22.1s10.2 22.2 22.6 22.2h27v278.1l-28.9 38.4L6 640.4c-7.8 12.7-8.2 28.6-.6 41.4 7.2 13 21.4 21 36.4 21h615.9c16.5 0 31.9-8.6 39.7-22.8 7.8-14.1 7.2-30.7-2.4-45.5" clip-rule="evenodd" style="fill: #019df4;"/></svg>
