<?xml version="1.0" encoding="UTF-8"?>
<svg xmlns="http://www.w3.org/2000/svg" viewBox="0 0 800 800"><path fill="#019df4" d="M420.4 234.1c-10.8 0-19.6-8.8-19.6-19.6V188c0-.7-.4-11-5.6-20.6-6.2-11.5-16.5-16.8-32.5-16.8h-68.5c-32 0-59.4-7.1-79.2-20.5-21.6-14.7-33.5-36.6-33.5-61.6 0-10.8 8.8-19.6 19.6-19.6s19.6 8.8 19.6 19.6c0 31.7 38 43 73.6 43h68.5c31 0 55.1 13.9 67.8 39.1 9.1 17.9 9.3 35.3 9.3 37.3v26.6c0 10.8-8.7 19.6-19.5 19.6z" style="fill: #019df4;"/><path fill="#019df4" d="M566.5 249.4c-34.2-32.4-83.7-48.9-147.1-48.9s-113 16.5-147.1 48.9c-35.6 33.8-53.6 84.1-53.6 149.4v153.9c0 65.3 18 115.6 53.6 149.4C306.5 734.6 356 751 419.4 751c69.8 0 119.7-16.1 152.7-49.3 32.3-32.5 48-81.3 48-149V398.8c0-65.3-18.1-115.5-53.6-149.4zm-166.7 38.4c0-10.8 8.8-19.6 19.6-19.6s19.5 8.8 19.6 19.6v102.7c0 10.8-8.8 19.6-19.6 19.6s-19.5-8.8-19.6-19.6V287.8zm189.4 162.1c-56.4 5.8-113 8.6-169.7 8.6-56.7.1-113.3-2.8-169.7-8.6-9.9-1-16.8-7.9-15.4-15.3s10.5-12.6 20.4-11.5c54.7 5.6 109.7 8.4 164.7 8.3 55 .1 110-2.7 164.7-8.3 9.9-1 19 4.1 20.4 11.5s-5.5 14.3-15.4 15.3z" style="fill: #019df4;"/></svg>
