<?xml version="1.0" encoding="UTF-8"?>
<svg xmlns="http://www.w3.org/2000/svg" viewBox="0 0 800 800"><path fill="#019df4" d="M419.3 751.1c-63.5 0-113-16.5-147.1-48.9-35.6-33.8-53.6-84.1-53.6-149.4v-154c0-65.3 18-115.6 53.6-149.4 34.2-32.5 83.7-49 147.1-49 63.5 0 113 16.5 147.1 48.9C602 283.1 620 333.4 620 398.7v153.9c0 67.7-15.7 116.5-48.1 149-32.9 33.3-82.8 49.5-152.6 49.5zm0-511.5c-108.8 0-161.6 52.1-161.6 159.3v153.9c0 107.1 52.9 159.2 161.6 159.2 58.8 0 99.7-12.4 124.9-37.8 24.7-24.9 36.7-64.6 36.7-121.5V398.8c.1-107.2-52.8-159.2-161.6-159.2z" style="fill: #019df4;"/><path fill="#019df4" d="M419.3 410.1c-10.8 0-19.6-8.8-19.6-19.6V287.8c0-10.8 8.8-19.6 19.6-19.6s19.6 8.8 19.6 19.6v102.7c0 10.8-8.8 19.6-19.6 19.6zM420.4 234.1c-10.8 0-19.6-8.8-19.6-19.6V188c0-.7-.4-11-5.6-20.6-6.2-11.5-16.5-16.8-32.5-16.8h-68.5c-32 0-59.4-7.1-79.2-20.5-21.6-14.7-33.5-36.6-33.5-61.6 0-10.8 8.8-19.6 19.6-19.6s19.6 8.8 19.6 19.6c0 31.7 38 43 73.6 43h68.5c31 0 55.1 13.9 67.8 39.1 9.1 17.9 9.3 35.3 9.3 37.3v26.6c0 10.8-8.7 19.6-19.5 19.6zM421.2 466.9h-3.8c-60.6 0-121.8-4.2-181.9-12.4-10.7-1.5-18.2-11.3-16.7-22s11.3-18.2 22-16.7c58.3 8 117.8 12 176.7 12h3.6c59 0 118.4-4 176.7-12 10.7-1.5 20.6 6 22 16.7s-6 20.6-16.7 22c-60 8.2-121.3 12.4-181.9 12.4z" style="fill: #019df4;"/></svg>
