<?xml version="1.0" encoding="UTF-8"?>
<svg xmlns="http://www.w3.org/2000/svg" viewBox="0 0 800 800"><path fill="#019df4" d="M419.9 751.3c-128.6 0-196.6-67.1-196.6-194.1V398.8c0-127 68-194.1 196.6-194.1s196.6 67.1 196.6 194.1v158.4c0 66.9-15.2 114.8-46.5 146.3-32.1 32.2-81.1 47.8-150.1 47.8zm0-526.4c-117.1 0-176.5 58.5-176.5 173.9v158.5c0 115.4 59.4 173.9 176.5 173.9 63.4 0 107.8-13.7 135.8-41.9 27.4-27.6 40.7-70.8 40.7-132.1V398.8c-.1-115.4-59.5-173.9-176.5-173.9z" style="fill: #019df4;"/><path fill="#019df4" d="M419.9 400.3c-5.6 0-10.1-4.5-10.1-10.1V284.5c0-5.6 4.5-10.1 10.1-10.1s10.1 4.5 10.1 10.1v105.7c-.1 5.6-4.6 10.1-10.1 10.1zM420.9 219.1c-5.6 0-10.1-4.5-10.1-10.1v-27.4c0-.1-.2-12.9-6.6-25.3-8-15.4-22.4-23.2-42.6-23.2h-70.5c-64.4 0-106-29.2-106-74.5 0-5.6 4.5-10.1 10.1-10.1s10.1 4.5 10.1 10.1c0 15.9 7.2 28.9 21.3 38.5 15.3 10.4 37.6 15.9 64.5 15.9h70.5c35.7 0 52.8 18.9 60.9 34.8 8.4 16.6 8.5 33.1 8.5 33.8V209c0 5.6-4.5 10.1-10.1 10.1zM421.8 458.8h-4c-62 0-124.5-4.3-185.9-12.7-5.5-.8-9.4-5.8-8.6-11.3.8-5.5 5.8-9.4 11.3-8.6 61.1 8.4 123.4 12.5 185.1 12.5h2c61.1 0 122.7-4.2 183.2-12.5 5.5-.8 10.6 3.1 11.3 8.6.8 5.5-3.1 10.6-8.6 11.3-61.2 8.5-123.8 12.7-185.8 12.7z" style="fill: #019df4;"/></svg>
