<?xml version="1.0" encoding="UTF-8"?>
<svg xmlns="http://www.w3.org/2000/svg" viewBox="0 0 702.8 702.8"><path fill="#019df4" fill-rule="evenodd" d="M253 626.1l82.7-213.6c1.6-4 1.3-8.5-.6-12.3-2-3.8-5.4-6.6-9.5-7.6l-151.3-37L432.6 81.5l-81.2 203.8c-1.6 4-1.4 8.5.6 12.4 1.9 3.9 5.4 6.6 9.6 7.7l165.5 40.3L253 626.1zm316.8-292.9c-1.5-5.2-5.5-9.2-10.7-10.4l-174.3-42.5L488.3 20.6c2.6-6.6.3-14.2-5.6-18.1-5.9-3.8-13.6-3-18.5 2.2L135.4 353.5c-3.6 3.8-4.9 9.4-3.5 14.5 1.5 5.1 5.5 9.1 10.6 10.3l159.8 39.1-102.6 264.8c-2.5 6.6-.2 14.1 5.6 17.9 2.5 1.6 5.2 2.4 8 2.4 3.8 0 7.6-1.5 10.4-4.4l342.4-350.4c3.8-3.7 5.2-9.3 3.7-14.5z" clip-rule="evenodd" style="fill: #019df4;"/></svg>
