<?xml version="1.0" encoding="UTF-8"?>
<svg xmlns="http://www.w3.org/2000/svg" viewBox="0 0 702.8 702.8"><path fill="#019df4" fill-rule="evenodd" d="M276.3 590.3l67.6-176.5c2.2-5.9 1.9-12.5-.9-18.1-2.8-5.6-7.9-9.7-13.9-11.2l-134.5-33.3 216-231.9-64.8 164.4c-2.3 5.9-2 12.6.8 18.2 2.8 5.7 7.9 9.8 13.9 11.3l148 36.5-232.2 240.6zm294.4-258.7c-2.1-7.6-8-13.4-15.5-15.3l-160.7-39.6 97.1-246.5c3.8-9.7.4-20.9-8.2-26.6-8.6-5.7-19.8-4.4-26.9 3.2L138.2 348.5c-5.3 5.6-7.2 13.8-5.1 21.3 2.1 7.5 8 13.3 15.4 15.1l146.8 36.3-96.4 251.7c-3.7 9.7-.3 20.7 8.2 26.3 3.6 2.4 7.6 3.6 11.6 3.6 5.5 0 10.9-2.2 15.1-6.4L565.3 353c5.4-5.6 7.5-13.8 5.4-21.4z" clip-rule="evenodd" style="fill: #019df4;"/></svg>
