<?xml version="1.0" encoding="UTF-8"?>
<svg xmlns="http://www.w3.org/2000/svg" viewBox="0 0 702.8 702.8"><path fill="#019df4" fill-rule="evenodd" d="M690.7 1.6c-7.8-3.2-16.9-1.7-23.1 4L567 101c-61.7-47.2-138.2-72.6-216.9-72-177-.3-326.2 127-347.5 296.4s92.3 327.4 264.2 367.7c171.9 40.3 348-49.7 409.9-209.6 3.9-10.2-1.4-21.6-12-25.5-5.1-1.9-10.9-1.8-15.9.4s-9 6.2-10.9 11.2C591.2 589.5 470 667 337.3 661.8c-132.7-5.2-247-92-283.3-215.1-36.4-123.2 13.3-255 123.2-326.8s255.3-67.6 360.5 10.6l-92.8 88.3c-6.1 5.6-8 14.3-4.8 21.8s10.8 12.4 19.2 12.4l211.2-12.7c10.4-.6 18.8-8.6 19.4-18.7l12.8-198.8c1.1-8.9-3.7-17.4-12-21.2z" clip-rule="evenodd" style="fill: #019df4;"/></svg>
