<?xml version="1.0" encoding="UTF-8"?>
<svg xmlns="http://www.w3.org/2000/svg" viewBox="0 0 702.8 702.8"><path fill="#019df4" fill-rule="evenodd" d="M443.8 236.7c3.4 7.2 10.7 11.7 18.6 11.6h1.2l207.4-12c10.1-.4 18.3-8.3 19.1-18.4l12.6-197c.5-8.2-4.3-15.9-11.9-19.2-7.7-3.3-16.6-1.8-22.7 3.9L576.3 93c-63.4-49.2-141.5-75.8-221.7-75.7C159 17.3 0 171 0 360s159 342.7 354.5 342.7c147.2 0 280.7-89.6 332.2-223 5.7-15.1-2-31.9-17.1-37.6l-.9-.3c-15.6-5.8-33 1.9-39.3 17.3-42.6 110.4-153.1 184.6-274.9 184.6-161.8.1-293.4-127.2-293.4-283.7S192.7 76.2 354.5 76.2c64.9 0 127.1 20.5 178.1 58.2L448 214.7c-6 5.6-7.7 14.5-4.2 22" clip-rule="evenodd" style="fill: #019df4;"/></svg>
