<?xml version="1.0" encoding="UTF-8"?>
<svg xmlns="http://www.w3.org/2000/svg" viewBox="0 0 702.8 702.8"><path fill="#019df4" fill-rule="evenodd" d="M672.3 333.6c0 12.6-9 22.1-14.9 22.1H364.6v-151h292.8c5 0 14.9 10 14.9 22.1v106.8zm-47.2 317.6c0 12.6-9 22.1-14.9 22.1H364.7v-288h260.4v265.9zm-549.5-.1V388.5c0-1.2-.4-2.2-.7-3.3h259.4v288H90.4c-5.8 0-14.9-9.5-14.8-22.1zM30.5 333.6V226.7c0-12.1 9.9-22.1 14.9-22.1h288.9v151h-289c-5.8 0-14.8-9.5-14.8-22zM163.8 62.9c12.1-18.1 26.3-28.9 42.3-32.2 3.5-.7 7-1 10.6-1 13 0 26.9 4.6 41.5 13.8 31.7 20 61.7 89.6 73.4 125.2-37.3 4-115.8 6-147.7-14.1-18.6-11.7-29.8-25.6-33.1-41-3.4-15.6.9-32.6 13-50.7zm278.7-19.5c18.6-11.8 36.1-16.1 52.1-12.7 16 3.3 30.2 14.1 42.3 32.2 24.3 36.3 17.4 67.9-20 91.6-31.9 20.2-110.3 18.2-147.7 14.1 11.6-35.6 41.5-105.1 73.3-125.2zm215 131.7H539.1c21.8-15.3 36-34.3 40.6-55.5 5-23.1-1-48.3-17.4-72.9-16.4-24.5-37.7-40.1-61.5-45-23.7-5-49.7.9-75 17-33.3 21-59.9 74.4-75.6 113.9C334.6 93 308 39.7 274.8 18.7c-25.3-16-51.2-22-75-17-23.8 4.9-45.1 20.5-61.5 45s-22.4 49.7-17.4 72.9c4.6 21.2 18.9 40.1 40.6 55.5H45.3C21.6 175.1 0 199.7 0 226.7v106.9c0 27.5 21.2 51.7 45.3 51.7h.4c-.3 1.1-.7 2.1-.7 3.3v262.6c0 27.5 21.2 51.7 45.4 51.7h519.7c24.1 0 45.3-24.1 45.3-51.6v-266h2c24.1 0 45.3-24.1 45.3-51.6v-107c.1-27-21.5-51.6-45.2-51.6z" clip-rule="evenodd" style="fill: #019df4;"/></svg>
