<?xml version="1.0" encoding="UTF-8"?>
<svg xmlns="http://www.w3.org/2000/svg" viewBox="0 0 702.8 702.8"><path fill="#019df4" fill-rule="evenodd" d="M657 334c0 7.6-5 13.3-6.6 13.8H372.3V215.7l277.1-.1c2.2.8 7.6 7 7.6 13.9V334zm-52.7 324.3H372.4V392.2h238.5v252.3c-.1 7.6-5.1 13.3-6.6 13.8zM89.8 644.5V392.2h236.8v266.1H96.9c-2.1-.6-7.1-6.2-7.1-13.8zm-44-415.1c0-6.9 5.3-13.1 6.6-13.8h274.3v132.1H52.8c-2.1-.8-6.9-6.3-6.9-13.8V229.4zm129-155.9c12.9-19.3 28-28.9 45.1-28.9 11.1 0 23.2 4.1 36 12.2 26 16.4 52.5 73.2 65.3 109.2-38.8 3.1-103.5 2.7-129.2-13.6-16.3-10.3-26.1-22.2-28.9-35.2-2.9-13.2 1.1-27.9 11.7-43.7zm270-16.8c32.6-20.6 59.9-15 81.1 16.7 10.6 15.9 14.6 30.5 11.7 43.6-2.8 13-12.6 24.9-28.9 35.2-25.8 16.3-90.5 16.7-129.3 13.6 12.9-35.9 39.4-92.6 65.4-109.1zm205.7 114.5h-94.2c13.3-13.3 22.5-28.4 26.1-44.9 5.4-24.7-.9-51.3-18.1-77.1-35.1-52.5-90.4-63.9-144.4-29.7-29.5 18.7-53.3 60.5-69.5 97-16.1-36.5-40-78.4-69.5-97-54-34.2-109.3-22.8-144.4 29.7-17.2 25.8-23.5 52.4-18.1 77.1 3.6 16.5 12.8 31.6 26 44.9h-92C25 171.2.1 199 .1 229.5V334c0 28.4 19.5 52.7 44 57.3v253.2c0 31.6 24 58.3 52.3 58.3h507.9c28.3 0 52.3-26.7 52.3-58.3v-253c25.6-3.6 46.2-28.3 46.2-57.6V229.4c0-30.5-24.9-58.2-52.3-58.2z" clip-rule="evenodd" style="fill: #019df4;"/></svg>
