<?xml version="1.0" encoding="UTF-8"?>
<svg xmlns="http://www.w3.org/2000/svg" viewBox="0 0 702.8 702.8"><path fill="#019df4" fill-rule="evenodd" d="M44 644.5V431.6h283.1v271.2H95.8c-28 0-51.8-26.5-51.8-58.3zm327.8 58.3V431.6h284.7v213.2c0 31.5-23.5 58.1-51.9 58.1H371.8zm156.9-588c2.8-12.8-1.1-27.2-11.4-42.7-10.3-15.5-22.2-24.8-35.2-27.5-13.1-2.8-27.7 1-43.6 11.2-25.3 16.1-51.1 71.6-63.6 106.9 37.9 2.9 100.7 2.5 125.7-13.4 15.9-10.1 25.4-21.7 28.1-34.5zm-336.3 34.5c25.1 15.9 87.8 16.4 125.7 13.4-12.5-35.2-38.3-90.8-63.6-106.9-12.5-8-24.4-12-35.2-12-2.9 0-5.7.3-8.4.9-13.1 2.7-24.9 12-35.3 27.5-10.3 15.5-14.2 29.9-11.4 42.7 2.8 12.7 12.3 24.3 28.2 34.4zM651 167.9c27.1 0 51.8 27.8 51.8 58.2v105.4c0 27.7-18.3 51.6-41.8 57.1-1.2-.2-2.3-.7-3.5-.7H371.8V189.7h-44.7v198.1H39.8C17.3 381.5 0 358.3 0 331.4V226c0-30.4 24.7-58.2 51.8-58.2h94c-12.9-13-21.8-27.8-25.3-44-5.2-24.2.8-50.4 17.6-75.6 16.8-25.3 38.7-41.3 63.5-46.5 24.8-5.2 51.5.9 77.3 17.3 28.8 18.3 52 59.2 67.6 94.9 15.7-35.8 38.8-76.6 67.6-94.9 25.8-16.4 52.6-22.5 77.3-17.3 24.7 5.1 46.7 21.2 63.5 46.5 16.8 25.3 22.9 51.4 17.6 75.6-3.5 16.2-12.4 30.9-25.4 44H651z" clip-rule="evenodd" style="fill: #019df4;"/></svg>
