<?xml version="1.0" encoding="UTF-8"?>
<svg xmlns="http://www.w3.org/2000/svg" viewBox="0 0 702.8 702.8"><path fill="#019df4" fill-rule="evenodd" d="M585 566.3c11.5-19.9 4.7-45.5-15.2-57-19.9-11.4-45.5-4.6-57 15.3s-4.6 45.5 15.3 57c6.4 3.7 13.6 5.6 20.8 5.6 3.6 0 7.3-.5 10.9-1.5 10.6-2.9 19.6-9.8 25.2-19.4zm-98.5-125.2c3 3.1 7 4.6 10.9 4.6 3.9 0 7.7-1.5 10.7-4.4l46.5-45.7L533 374l-46.3 45.5c-6 5.9-6.1 15.6-.2 21.6zm-90-38.1l82.8-82.9-21.6-21.6-82.8 82.9c-6 6-6 15.7 0 21.6 3 3 6.9 4.5 10.8 4.5 3.8 0 7.8-1.5 10.8-4.5zM346 295.6c3.9 0 7.7-1.5 10.7-4.4l47.2-46.4-21.6-21.6-47 46.2c-6 5.9-6.1 15.6-.2 21.6 3 3 7 4.6 10.9 4.6zm-102.4-41.3l84.9-85-21.6-21.6-84.9 85c-6 6-6 15.6 0 21.6 3 3 6.9 4.5 10.8 4.5 3.9 0 7.8-1.5 10.8-4.5zm-50.5-107.4c3.9 0 7.7-1.4 10.7-4.4l49.4-48.6-21.6-21.6-49.2 48.4c-6 5.9-6.1 15.6-.2 21.6 3 3.1 7 4.6 10.9 4.6zm500.2 367.4c6 8 9.5 17.7 9.5 27.9 0 12.5-4.9 24.3-13.7 33.1L575.4 689.1c-8.8 8.9-20.6 13.7-33.1 13.7s-24.2-4.8-33-13.7L13.7 193.2c-18.2-18.2-18.2-47.9 0-66.2L127.5 13.2c17.6-17.7 48.5-17.7 66.1 0l7.8 7.8.4-.3 492.5 492.7-1 .9z" clip-rule="evenodd" style="fill: #019df4;"/></svg>
