<?xml version="1.0" encoding="UTF-8"?>
<svg xmlns="http://www.w3.org/2000/svg" viewBox="0 0 702.8 702.8"><path fill="#019df4" fill-rule="evenodd" d="M667.5 553.7c6.3-6.3 6.3-16.5 0-22.8l-123.9-124-53.6 52.6c-6 5.9-15.6 5.9-21.5-.1l-.1-.1c-5.9-6-5.8-15.7.2-21.6l53.4-52.5-53.8-53.9-80.8 80.7c-6 6-15.7 6-21.6 0-6-6-6-15.7 0-21.6l80.7-80.8-53.7-53.7-47.6 46.9c-6 5.9-15.7 5.8-21.6-.2-5.9-6-5.9-15.6.1-21.6l.1-.1 47.4-46.6-53.8-53.8-89.5 89.6c-6 6-15.7 6-21.6 0-6-6-6-15.7 0-21.6l89.5-89.5-53.8-53.9-44.6 43.9c-6 5.9-15.7 5.8-21.7-.2-5.9-6-5.8-15.7.2-21.7l44.5-43.7-48.5-48.5c-6.3-6.3-16.5-6.3-22.8-.1l-.1.1L35.3 148.7c-6.3 6.3-6.3 16.6 0 22.9l495.6 495.9c6.3 6.2 16.5 6.2 22.8 0l113.8-113.8zm21.6-44.6c8.8 8.8 13.7 20.6 13.7 33.1s-4.8 24.3-13.7 33.1L575.4 689.1c-8.8 8.8-20.6 13.7-33.1 13.7s-24.2-4.8-33-13.7L13.7 193.2c-8.8-8.7-13.8-20.6-13.7-33 0-12.5 4.8-24.2 13.7-33.1L127.4 13.3c17.6-17.7 48.5-17.7 66.1 0l495.6 495.8zm-123.9 45.7c5.1-9 2.1-20.5-6.9-25.7-8.9-5.2-20.4-2.1-25.5 6.8 0 0 0 .1-.1.1-5.2 9-2.1 20.4 6.8 25.6 9.1 5.3 20.5 2.1 25.7-6.8zm4.6-45.6c20 11.5 26.9 37 15.5 57-11.5 20-37 26.9-57 15.5-9.7-5.5-16.7-14.7-19.6-25.5-2.9-10.7-1.4-22.1 4.2-31.7 11.5-19.9 36.9-26.8 56.8-15.4 0 .1 0 .1.1.1z" clip-rule="evenodd" style="fill: #019df4;"/></svg>
