<?xml version="1.0" encoding="UTF-8"?>
<svg xmlns="http://www.w3.org/2000/svg" viewBox="0 0 702.8 702.8"><path fill="#019df4" fill-rule="evenodd" d="M655.5 544.1c3.2-3.2 3.2-8.5 0-11.8l-116-116-47.1 46.4c-8.9 8.7-23.1 8.5-31.8-.3s-8.5-23.1.3-31.7l46.9-46.1-42-42-73.8 73.6c-8.7 8.8-22.9 8.8-31.6.1l-.1-.1c-8.8-8.8-8.8-23 0-31.8l73.7-73.7-42.1-42-41.3 40.6c-8.8 8.7-22.9 8.6-31.6-.1l-.1-.1c-8.7-8.8-8.6-23 .3-31.7l41-40.4-42-42-82.3 82.4c-8.7 8.8-22.8 8.8-31.6.1l-.1-.1c-8.8-8.8-8.8-23 0-31.8l82.3-82.4-42-42-38.6 37.8c-8.8 8.7-23 8.6-31.6-.2l-.1-.1c-8.7-8.8-8.6-23.1.3-31.8l38.1-37.5-42.2-42.1c-3.3-3.2-8.5-3.2-11.7 0L47.3 158.7c-3.2 3.2-3.2 8.5 0 11.7l485.1 485c3.2 3.2 8.6 3.2 11.7 0 0 .1 111.4-111.3 111.4-111.3zm31.7-43.5c20.7 20.8 20.7 54.5 0 75.3L575.9 687.2c-10.4 10.4-24 15.6-37.6 15.6s-27.2-5.2-37.7-15.6l-485-485c-20.7-20.8-20.7-54.5 0-75.3L126.9 15.6c20.8-20.8 54.5-20.8 75.3 0l485 485zm-129.9 48.1c4-6.9 1.7-15.8-5.2-19.9 0 0-.1 0-.1-.1-7-4.1-15.9-1.7-20 5.3s-1.7 15.9 5.3 20c3.4 2 7.5 2.5 11.3 1.5 3.6-1 6.8-3.4 8.7-6.8zm9.7-45.9c21.3 12.2 28.6 39.2 16.5 60.5-.1.1-.1.2-.2.4-12.2 21.3-39.4 28.7-60.7 16.4-.1 0-.1-.1-.2-.1-21.3-12.3-28.6-39.6-16.3-60.9 6-10.3 15.6-17.7 27.1-20.8 11.5-3 23.5-1.5 33.8 4.5z" clip-rule="evenodd" style="fill: #019df4;"/></svg>
