<?xml version="1.0" encoding="UTF-8"?>
<svg xmlns="http://www.w3.org/2000/svg" viewBox="0 0 702.8 702.8"><path fill="#019df4" fill-rule="evenodd" d="M639.3 284.7c-8.9 8.8-105 94.5-263.5 234.9l-6.8 5.5-134.2 44.4c-1.9.5-3.7.1-4.9-1.1-1.3-1.3-1.7-3.1-1.1-4.8l46.3-136.2c87.6-77.4 256.4-226.9 268.2-238.7 14.2-14.2 31-20.3 47.4-20.3 18.4 0 36.2 7.7 48.8 20.3 12.8 12.8 20.4 31.2 20.3 49.1 0 17.5-7.1 33.7-20.5 46.9zM569 555.5c0 32.6-8.5 58.2-25.1 76-17.6 18.8-43.8 28.3-78 28.3H146.1c-34.2 0-60.4-9.5-78-28.3-16.7-17.8-25.1-43.3-25.1-76V149.1C43 80.7 79.6 43 146.1 43h319.8c59.1 0 94.4 30.4 101.5 85.3-20 4.6-38.9 14.5-54.3 29.9-9.1 9.1-144 128.8-266.2 236.9-6.3 5.5-11 12.6-13.7 20.6l-45 134.2c-5.8 17.2-1.4 36 11.4 48.9 9.1 9.1 21.1 14 33.8 14 5.1 0 10.1-.8 15-2.4L382.6 566c6.1-2 11.9-5.3 16.7-9.6l5.1-4.5c54.9-48.6 115.2-102.2 164.7-146.2v149.8zm133.8-317.6c.1-29.1-12.2-58.9-32.9-79.7-16.1-16.1-37.3-26.6-59.7-30.8C601.8 48.6 548 0 465.8 0H146.1C56 0 0 57.1 0 149.1v406.4c0 43.9 12.3 79.4 36.7 105.4 26 27.8 62.7 41.9 109.3 41.9h319.8c46.5 0 83.4-14.1 109.4-41.9 24.4-26 36.8-61.5 36.8-105.4V367.3c31.2-27.9 53-47.5 57.5-52 21.7-21.4 33.2-48.2 33.3-77.4z" clip-rule="evenodd" style="fill: #019df4;"/></svg>
