<?xml version="1.0" encoding="UTF-8"?>
<svg xmlns="http://www.w3.org/2000/svg" viewBox="0 0 702.8 702.8"><path fill="#019df4" fill-rule="evenodd" d="M639.3 284.7c-8.9 8.8-105 94.5-263.5 234.9l-6.8 5.5-122 44.8c-1.9.5-11.6 4-17.1-1.5-5.4-5.5-1.7-14.5-1.1-16.3l44.4-119.5c1.3-3.5 3.3-6.4 6-8.9 88.6-78.3 252.5-223.5 264.1-235.1 14.2-14.2 31-20.3 47.4-20.3 18.4 0 36.2 7.7 48.8 20.3 12.8 12.8 20.4 31.2 20.3 49.1 0 17.6-7.1 33.8-20.5 47m63.5-46.8c.1-29.1-12.2-58.9-32.9-79.7-16.1-16.1-37.3-26.6-59.7-30.8C601.8 48.6 548 0 465.8 0H146C55.9 0-.1 57.1-.1 149.1v406.4c0 43.9 12.3 79.4 36.8 105.4 26 27.8 62.7 41.9 109.3 41.9h319.8c46.5 0 83.4-14.1 109.4-41.9 24.4-26 36.7-61.5 36.7-105.4V367.3c31.3-27.9 53-47.5 57.5-52 21.8-21.4 33.3-48.2 33.4-77.4" clip-rule="evenodd" style="fill: #019df4;"/></svg>
