<?xml version="1.0" encoding="UTF-8"?>
<svg xmlns="http://www.w3.org/2000/svg" viewBox="0 0 702.8 702.8"><path fill="#019df4" fill-rule="evenodd" d="M382.1 527.8l-6.2 5.5c-1.2 1.1-2.7 1.9-4.2 2.4l-137 45.3c-4.2 1.4-9.2.3-12.4-3-3.2-3.3-4.4-8.1-2.9-12.4l45.9-136.9c.7-2.1 1.9-3.9 3.5-5.3C358.2 344.5 530.3 192 542.2 180c18.6-18.6 38.7-22.9 53.3-22.9 1.2 0 2.4 0 3.5.1 19.2.9 38.1 9.2 51.7 22.8 14.4 14.4 23 35.1 22.9 55.4-.1 19.8-8.1 38.2-23.2 53.1-5.4 5.4-47.3 43.5-268.3 239.3zm198.7 32c0 35.2-9.3 63-27.6 82.6-19.4 20.7-48 31.2-85 31.2H141.8c-37 0-65.6-10.5-84.9-31.2-18.3-19.6-27.6-47.4-27.6-82.6V144.9c0-73.5 41-115.6 112.5-115.6h326.4c65.9 0 105.8 36.5 111.5 99.9-21.8 3.4-41.7 13.7-58.2 30.2-9.4 9.4-147.2 131.7-272.1 242.1-5.4 4.8-9.5 10.9-11.9 17.9l-45.9 137c-5 15-1.2 31.2 9.9 42.4 7.9 7.8 18.2 12.2 29.3 12.2 4.4 0 8.8-.7 13-2.1l137-45.3c5.3-1.8 10.3-4.6 14.4-8.3l6.2-5.5c60.3-53.4 127.1-112.7 179.3-159.2v169.2zm122-324.3c.1-27.9-11.7-56.3-31.5-76.2-16.7-16.7-39-27.1-62.4-30.2C602.7 49.3 549.8-.1 468.1-.1H141.8C54.3-.1 0 55.4 0 144.8v414.9c0 42.9 12 77.4 35.5 102.6 25.1 26.8 60.8 40.4 106.3 40.4h326.4c45.4 0 81.2-13.6 106.3-40.4 23.6-25.2 35.6-59.7 35.6-102.6V365c0-.1-.1-.3-.1-.5 33.2-29.6 56.3-50.5 61-55.1 20.7-20.5 31.7-46.1 31.8-73.9z" clip-rule="evenodd" style="fill: #019df4;"/></svg>
