<?xml version="1.0" encoding="UTF-8"?>
<svg xmlns="http://www.w3.org/2000/svg" viewBox="0 0 702.8 702.8"><path fill="#019df4" fill-rule="evenodd" d="M268.7 287.1c.2-.8.2-1.7.2-2.6v-67.8H146.4v67.7c0 .9.1 1.8.2 2.6h32.2c.9 0 3 .3 3.9.5 7.7 1.4 13 8.7 11.8 16.5-15.2 101.5-40.8 314.2-41.1 316.4.1 45.4 32.4 52.9 51.7 53.2h5.9c19.3-.4 51.6-7.9 51.6-54.5-.1-.4-17.8-177.3-38.4-313.7-2.1-7.7 2.4-15.7 10.1-17.8 1.2-.3 2.5-.5 3.8-.5h30.6zM283.5.6c8 0 14.6 6.5 14.6 14.6v269.2c0 18.1-10.1 31.8-23.3 31.8h-19.4c19.6 134.6 36.2 299.7 36.4 301.4.1 62.1-43.1 84.4-80.1 85.1h-6.8c-37-.6-80.3-22.9-80.3-84.1.4-3.7 23.5-195.7 38.9-302.4h-22.6c-13.3 0-23.4-13.7-23.4-31.8 0-269.3 0-269.6.1-270.2.3-7.8 6.9-14 14.7-13.7h.3c7.9.3 14.1 6.8 14 14.7v172.3h44.8V15.2C191 7.2 197.3.4 205.3 0s14.8 5.9 15.2 13.9V187.6h48.6V15.2c-.2-8 6.3-14.5 14.4-14.6zm222.9 673c18.7-.4 50-7.7 50-52.8-.1 0-11.3-111.2-25.9-223.2-.3-1.1-.4-2.3-.4-3.5v-.6c0-5.9 3.5-11 8.6-13.4V31.6c-52.2 7.4-91.1 52.1-91.1 104.9v243h17c8 0 14.6 6.6 14.6 14.6 0 .6-.1 2.4-.1 3-13.6 102.2-28.4 224.9-28.4 225 .1 44 31.4 51.3 50 51.5h5.7zM561 406.5c13.9 108.2 24.3 211.8 24.4 212.9.1 60.9-42.3 82.7-78.5 83.4h-6.7c-36.3-.5-78.7-22.3-78.7-82.4.1-1.7 13.5-112.8 26.5-211.7h-15c-8 0-14.5-6.5-14.5-14.6V136.5c0-74.5 60.3-134.9 134.8-135 8 0 14.5 6.5 14.5 14.6v378.1c0 4.9-2.5 9.6-6.8 12.3z" clip-rule="evenodd" style="fill: #019df4;"/></svg>
