<?xml version="1.0" encoding="UTF-8"?>
<svg xmlns="http://www.w3.org/2000/svg" viewBox="0 0 702.8 702.8"><path fill="#019df4" fill-rule="evenodd" d="M285.5.1c11.7 0 21.2 9.6 21.2 21.5v264c0 21.9-12.8 38.3-29.8 38.3h-10.7c18.6 130.6 34 286 34.2 287.6.1 66.8-45.5 90.6-84.7 91.3h-7.1c-38.9-.5-84.7-24.4-84.7-89.6.4-4.3 21.8-183.4 36.7-289.5l-13.8.1c-17 0-29.8-16.4-29.8-38.3V22.8C117 11 126.5.7 138.2.7s21.2 8.9 21.2 20.8v161.9h29.3V21.5c0-11.8 9.5-21.5 21.2-21.5s21.2 9.6 21.2 21.5v161.9H264l.2-161.8C264.3 9.7 273.8.1 285.5.1zm276.9 408c13.3 104.7 23.1 204 23.2 205 .1 65.5-44.7 88.9-83.1 89.7h-6.7c-38.5-.5-83.4-23.8-83.4-87.9.2-2.4 12.4-105.6 24.8-200.4h-6.6c-11.7 0-21.2-9.6-21.2-21.5V140.4C409.4 63.4 471.3.8 547.3.8c11.7 0 21.2 9.6 21.2 21.5V393c.1 5.9-2.2 11.2-6.1 15.1z" clip-rule="evenodd" style="fill: #019df4;"/></svg>
