<?xml version="1.0" encoding="UTF-8"?>
<svg xmlns="http://www.w3.org/2000/svg" viewBox="0 0 702.8 702.8"><path fill="#019df4" fill-rule="evenodd" d="M221.1 307.3c-.9-3.8-.8-7.9.6-11.8 2.9-8.7 10.8-14.6 19.9-14.6h22.5v-54.7H159.6v54.6h24.5c1.2 0 2.5.1 3.8.3 11.3 2.1 20.1 13.1 18.4 24.5-14.7 99.5-39.6 307.9-39.9 310 .1 35.5 23.6 43.8 43.3 44.1h5.5c19.6-.4 43.1-8.7 43.1-46.3-.2.2-17.4-172.8-37.2-306.1zM285.5.1c11.7 0 21.2 9.6 21.2 21.5v264c0 21.9-12.8 38.3-29.7 38.3h-10.7c18.6 130.6 34 286 34.2 287.6.1 66.8-45.6 90.6-84.7 91.3h-7.1c-38.9-.5-84.7-24.4-84.7-89.6.4-4.3 21.8-183.4 36.7-289.4l-13.8.1c-17 0-29.8-16.4-29.8-38.3V22.9c0-11.8 9.5-22.2 21.2-22.2s21.2 9 21.2 20.8v161.9h29.3V21.5C188.8 9.7 198.3 0 210 0s21.2 9.6 21.2 21.5v161.9h32.9l.2-161.8c0-11.9 9.5-21.5 21.2-21.5zm216.3 659.8c18.9-.4 41.6-8.4 41.6-44.7-.1 0-10.9-108.3-25-217.5-.3-1.5-.5-3.1-.5-4.7v-.7c0-7 3.3-13.2 8.4-17.1V46.1c-42.5 9.8-74.3 48.3-74.3 94.3v231.1h9.4c11.7 0 21.2 9.6 21.2 21.5 0 .9-.1 3-.2 4-13.3 100.1-27.6 220.5-27.6 220.5.2 34.2 22.8 42.2 41.7 42.4h5.3zm60.6-251.8c13.2 104.7 23.1 204 23.2 205 .1 65.5-44.7 88.9-83.1 89.7h-6.7c-38.4-.5-83.3-23.8-83.3-87.9.1-2.4 12.4-105.5 24.8-200.4h-6.6c-11.7 0-21.2-9.6-21.2-21.5V140.4C409.5 63.4 471.4.8 547.4.8c11.7 0 21.2 9.6 21.2 21.5V393c0 5.9-2.4 11.2-6.2 15.1z" clip-rule="evenodd" style="fill: #019df4;"/></svg>
