<?xml version="1.0" encoding="UTF-8"?>
<svg xmlns="http://www.w3.org/2000/svg" viewBox="0 0 800 800"><path fill="#019df4" d="M399.2 752.2c-111.7 0-198.6-29.2-258.3-86.7-61.9-59.7-93.3-148.8-93.3-265 0-116.1 31.4-205.3 93.3-265.1C200.6 78 287.5 48.8 399.2 48.8c111.7 0 198.6 29.2 258.4 86.7 62 59.8 93.4 148.9 93.4 265.1 0 116.1-31.4 205.3-93.4 265-59.8 57.5-146.7 86.6-258.4 86.6zm0-664.5C191.7 87.7 86.5 193 86.5 400.6c0 207.5 105.2 312.7 312.7 312.7 207.6 0 312.9-105.2 312.9-312.7C712 193 606.8 87.7 399.2 87.7z" style="fill: #019df4;"/><path fill="#019df4" d="M364 516c-3.5 0-7.1-.9-10.2-2.8l-178.1-106c-6-3.6-9.8-10.1-9.8-17.1s3.7-13.6 9.7-17.2l178.1-107c6.2-3.7 13.9-3.8 20.1-.3 6.3 3.5 10.2 10.2 10.2 17.4v213c0 7.2-3.9 13.8-10.1 17.4-3.1 1.8-6.5 2.6-9.9 2.6zM224.9 389.9l119.1 71V318.4l-119.1 71.5z" style="fill: #019df4;"/><path fill="#019df4" d="M577.1 516.2c-3.5 0-7.1-.9-10.2-2.8l-178.1-106c-6-3.6-9.8-10.1-9.8-17.1 0-7 3.7-13.6 9.7-17.2l178.1-107c6.2-3.7 13.9-3.8 20.1-.3 6.3 3.5 10.2 10.2 10.2 17.4v213c0 7.2-3.9 13.8-10.1 17.4-3.1 1.7-6.5 2.6-9.9 2.6zM437.9 390.1L557.1 461V318.5l-119.2 71.6z" style="fill: #019df4;"/></svg>
