<?xml version="1.0" encoding="UTF-8"?>
<svg xmlns="http://www.w3.org/2000/svg" viewBox="0 0 800 800"><path fill="#019df4" d="M401.9 752.3c-229.7 0-351.2-121.4-351.2-351.2 0-229.8 121.4-351.3 351.2-351.3 112.1 0 199 29 258.4 86.3 61.6 59.4 92.9 148.6 92.9 265 .1 229.7-121.4 351.2-351.3 351.2zm0-682.5c-219.7 0-331.2 111.5-331.2 331.3 0 219.7 111.4 331.2 331.2 331.2 219.9 0 331.3-111.4 331.3-331.2.1-219.9-111.4-331.3-331.3-331.3z" style="fill: #019df4;"/><path fill="#019df4" d="M370.8 517.3c-1.8 0-3.5-.5-5.1-1.4L169 398.8c-3-1.8-4.9-5.1-4.9-8.6s1.8-6.8 4.8-8.6l196.6-118.1c3.1-1.9 6.9-1.9 10.1-.1 3.1 1.8 5.1 5.1 5.1 8.7v235.1c0 3.6-1.9 6.9-5.1 8.7-1.4.9-3.1 1.4-4.8 1.4zM193.6 390.2l167.1 99.5V289.8L193.6 390.2z" style="fill: #019df4;"/><path fill="#019df4" d="M586 517.4c-1.8 0-3.5-.5-5.1-1.4L384.3 399c-3-1.8-4.9-5.1-4.9-8.6s1.8-6.8 4.8-8.6l196.6-118.1c3.1-1.9 6.9-1.9 10.1-.1 3.1 1.8 5.1 5.1 5.1 8.7v235.1c0 3.6-1.9 6.9-5.1 8.7-1.5.9-3.2 1.3-4.9 1.3zm-177.1-127L576 489.9V290L408.9 390.4z" style="fill: #019df4;"/></svg>
