<?xml version="1.0" encoding="UTF-8"?>
<svg xmlns="http://www.w3.org/2000/svg" viewBox="0 0 800 800"><path fill="#019df4" d="M657 135c-59.7-57.5-146.6-86.7-258.4-86.7S200 77.5 140.4 135C78.4 194.8 47 283.9 47 400.1s31.4 205.3 93.3 265c59.7 57.5 146.6 86.7 258.3 86.7s198.7-29.2 258.4-86.7c62-59.7 93.4-148.9 93.4-265S719 194.8 657 135zm-58.4 360.7c0 11-8.9 20-20 20-3.6 0-7.1-1-10.2-2.8l-178.1-106c-3.3-2-6-4.9-7.7-8.4v97c0 11-8.9 20-20 20-3.6 0-7.1-1-10.2-2.8l-178.1-106c-9.5-5.6-12.6-17.9-7-27.4 1.7-2.8 4.1-5.2 6.9-6.9l178.1-107c9.5-5.7 21.8-2.6 27.4 6.8 1.9 3.1 2.9 6.7 2.9 10.3v98.4c1.7-3.5 4.4-6.3 7.6-8.3l178.1-107c9.5-5.7 21.8-2.6 27.4 6.8 1.9 3.1 2.9 6.7 2.9 10.3v213z" style="fill: #019df4;"/></svg>
