<?xml version="1.0" encoding="UTF-8"?>
<svg xmlns="http://www.w3.org/2000/svg" viewBox="0 0 702.8 702.8"><path fill="#019df4" fill-rule="evenodd" d="M135.9 287.9v69.2h431.4V77.4H135.9v210.5zm-76.6 0h46.6V174.6H59.3v113.3zm261.5 123.6H382v-24.6h-61.2v24.6zm322.7 261.9V440.9H59.3v232.5H146c0-.4-.3-.8-.3-1.3v-149c0-16.3 13.4-29.4 30-29.4H527c16.5 0 30 13.1 30 29.4v149c0 .5-.2.9-.3 1.3h86.8zm-467.8-1.3H527v-149H175.7v149zm421.6-383.8h46.2V175h-46.2v113.3zm-30 98.2H412v25.1h231.5c16.5 0 30 13.2 30 29.4v232.5c0 16.2-13.4 29.4-30 29.4H59.3c-16.5 0-30-13.2-30-29.4V441c0-16.2 13.4-29.4 30-29.4h231.5v-25.1H135.9c-16.5 0-30-13.2-30-29.4v-39.8H59.3c-16.5 0-30-13.2-30-29.4V174.6c0-16.2 13.4-29.4 30-29.4h46.6V77.4c0-16.3 13.4-29.4 30-29.4h200.5V34.6c-3.6-3.7-5.8-8.6-5.8-14.1C330.6 9.2 340 .1 351.4.1c11.5 0 20.9 9.2 20.9 20.4 0 5.5-2.2 10.4-5.9 14.1V48h201c16.5 0 30 13.1 30 29.4v68.2h46.2c16.5 0 30 13.1 30 29.4v113.3c0 16.2-13.5 29.4-30 29.4h-46.2v39.4c-.1 16.2-13.6 29.4-30.1 29.4zM261.8 209.7c13.5 0 24.5-10.8 24.5-24 0-13.3-11-24.1-24.5-24.1s-24.5 10.8-24.5 24.1 11 24 24.5 24zm54.5-24c0 29.5-24.4 53.4-54.5 53.4s-54.5-24-54.5-53.4c0-29.5 24.4-53.4 54.5-53.4 30.1-.1 54.5 23.9 54.5 53.4zM441.4 209c13.5 0 24.5-10.8 24.5-24 0-13.3-11-24.1-24.5-24.1s-24.5 10.8-24.5 24.1c0 13.2 11 24 24.5 24zm0-77.5c30.1 0 54.5 24 54.5 53.5s-24.4 53.4-54.5 53.4-54.5-24-54.5-53.4 24.4-53.5 54.5-53.5zm-27.1 139.1c8.3 0 15 6.6 15 14.7s-6.7 14.7-15 14.7H288.9c-8.3 0-15-6.6-15-14.7s6.7-14.7 15-14.7h125.4z" clip-rule="evenodd" style="fill: #019df4;"/></svg>
