<?xml version="1.0" encoding="UTF-8"?>
<svg xmlns="http://www.w3.org/2000/svg" viewBox="0 0 702.8 702.8"><path fill="#019df4" fill-rule="evenodd" d="M397 340.1h162.2V89.9H143.4v75.8c.1 1 .3 2 .3 3v103.2c0 1-.2 2-.3 3v65.3h162.2c.4 0 .7-.2 1.1-.2h89.2c.4-.1.7.1 1.1.1zm-67.8 70.5h44.1v-26.9h-44.1v26.9zm299 43.7H396.5c-.2 0-.4.2-.7.2h-89.2c-.2 0-.4-.2-.7-.2H74.2v204.9h65.4c0-.4-.1-.8-.1-1.2V526.7c0-24.1 20.1-43.7 45.1-43.7h333.1c24.9 0 45.1 19.5 45.1 43.7V658c0 .4-.1.8-.1 1.2h65.4V454.3zm-69-70.5H418.4v26.9h209.8c24.9 0 45.1 19.6 45.1 43.7v204.9c0 24.1-20.2 43.7-45.1 43.7H74.3c-24.9 0-45.1-19.5-45.1-43.7V454.4c0-24.1 20.2-43.7 45.1-43.7h209.8v-26.9H143.3c-24.9 0-45.1-19.5-45.1-43.7v-24.6H74.5c-24.9 0-45.1-19.5-45.1-43.7V168.6c0-24.1 20.2-43.7 45.1-43.7h23.7V89.8c0-24.1 20.2-43.7 45.1-43.7h189.9v-9.6c-3.2-3.9-5.4-8.6-5.4-13.9 0-12.5 10.5-22.7 23.4-22.7 12.9 0 23.4 10.2 23.4 22.7 0 5.3-2.2 10-5.4 13.9v9.6h189.9c24.9 0 45.1 19.5 45.1 43.7v35.5h24.1c24.9 0 45.1 19.5 45.1 43.7v103.2c0 24.1-20.2 43.7-45.1 43.7h-24.1v24.2c.1 24.1-20.1 43.7-45 43.7zm-293.1-190c9.1 0 16.5-7.2 16.5-16s-7.4-15.9-16.5-15.9-16.5 7.1-16.5 15.9c0 8.9 7.3 16 16.5 16zm58.5-15.9c0 31.3-26.3 56.7-58.6 56.7s-58.6-25.4-58.6-56.7c0-31.2 26.3-56.7 58.6-56.7s58.6 25.5 58.6 56.7zm111.9 15.3c9.1 0 16.5-7.1 16.5-15.9s-7.4-15.9-16.5-15.9-16.5 7.1-16.5 15.9c0 8.7 7.4 15.9 16.5 15.9zm0-72.6c32.3 0 58.5 25.4 58.5 56.7 0 31.2-26.3 56.7-58.5 56.7s-58.6-25.4-58.6-56.7c.1-31.3 26.4-56.7 58.6-56.7zm-27.3 139.1c12.4 0 22.5 9.8 22.5 21.8 0 12.1-10.1 21.8-22.5 21.8H293.5c-12.4 0-22.5-9.8-22.5-21.8s10.1-21.8 22.5-21.8h115.7z" clip-rule="evenodd" style="fill: #019df4;"/></svg>
