<?xml version="1.0" encoding="UTF-8"?>
<svg xmlns="http://www.w3.org/2000/svg" viewBox="0 0 702.8 702.8"><path fill="#019df4" fill-rule="evenodd" d="M98.5 542.4c14.5 0 23.9 7.5 23.9 23.7 0 7.8-2.2 13.5-6 17.5-4.2 4.2-10.3 6.3-17.9 6.3-7.5 0-13.7-2-17.9-6.3-3.9-3.9-6-9.7-6-17.5 0-16.2 9.4-23.7 23.9-23.7zm87 0c14.5 0 23.9 7.5 23.9 23.7 0 7.8-2.2 13.5-6 17.5-4.2 4.2-10.3 6.3-17.8 6.3-7.6 0-13.7-2-17.9-6.3-3.9-3.9-6-9.7-6-17.5-.1-16.2 9.3-23.7 23.8-23.7zm488 52.9v-58.5c0-26.2-6.2-45.8-18.4-58.5-12.6-13.1-32.7-19.7-59.8-19.7H107.6c-27.1 0-47.3 6.6-59.8 19.7-12.2 12.7-18.4 32.3-18.4 58.5v58.5c0 26.2 6.2 45.8 18.4 58.5 12.6 13.1 32.7 19.7 59.8 19.7h487.7c27.1 0 47.2-6.6 59.8-19.7 12.2-12.7 18.4-32.3 18.4-58.5zm2.7-137.3c17.6 18.3 26.6 44.8 26.6 78.8v58.5c0 34-9 60.5-26.6 78.8-18.4 19.1-45.6 28.7-81 28.7H107.6c-35.4 0-62.6-9.6-81-28.7C8.9 655.8 0 629.3 0 595.3v-58.5c0-34 8.9-60.5 26.6-78.8 18.4-19 45.6-28.7 81-28.7H175V164.9c0-8.1 6.6-14.6 14.6-14.6s14.6 6.6 14.6 14.6v264.5h390.9c35.5 0 62.7 9.6 81.1 28.6zM403.7 163.9c-.9-86.4-56.6-138-57.1-138.5-6-5.5-6.4-14.7-1-20.7 5.4-5.9 14.6-6.4 20.6-1.1C368.9 6 431.9 63.9 433 163c.2 3.7 3.6 101-65.8 163-6 5.4-15.3 4.9-20.7-1.2-5.4-6-4.9-15.3 1.2-20.7 59.1-52.6 56.1-139.3 56-140.2zm-92.4 1c-.6-52.9-34-83.5-34.3-83.8-5.6-5.8-5.5-15.1.3-20.7 5.3-5.1 13.5-5.5 19.3-1 1.8 1.6 43.3 39.7 44 104.7.1 2.2 2.3 66.2-43.4 107.2-6 5.4-15.2 4.9-20.6-1.1l-.1-.1c-5.4-6-4.9-15.3 1.2-20.7 35.5-31.7 33.6-84 33.6-84.5z" clip-rule="evenodd" style="fill: #019df4;"/></svg>
