<?xml version="1.0" encoding="UTF-8"?>
<svg xmlns="http://www.w3.org/2000/svg" viewBox="0 0 702.8 702.8"><path fill="#019df4" fill-rule="evenodd" d="M396.5 169.8c-.9-83.2-54.2-131.5-54.8-131.9-8.9-7.9-9.7-21.5-1.8-30.4.1-.1.2-.2.2-.3 8.2-8.9 22-9.6 31-1.6 2.8 2.5 68.1 61.8 69.2 163.1.2 3.5 3.7 103.2-68.3 166.8-4 3.6-9.3 5.5-14.6 5.5-6.2 0-12.2-2.6-16.4-7.3-8-8.8-7.3-22.5 1.6-30.5l.2-.2c56.2-49.6 53.7-132.4 53.7-133.2zm-92.5.9c-.6-48.6-31.6-77.6-31.9-77.9-8.9-7.9-9.7-21.5-1.8-30.5l.2-.2c8.2-8.9 22-9.6 31-1.6 1.9 1.7 45.8 41.5 46.5 109 .1 2.1 2.5 68.8-45.9 111.5-4 3.6-9.2 5.5-14.6 5.5-6.3 0-12.2-2.6-16.4-7.3-8-8.8-7.3-22.4 1.5-30.4.1-.1.2-.2.3-.2 32.3-28.6 31.1-77.4 31.1-77.9zM203.4 584.8c3.9-3.9 6.1-9.6 6.1-17.3 0-16-9.4-23.5-23.9-23.5-14.5 0-23.9 7.4-23.9 23.5 0 7.7 2.2 13.4 6 17.3 4.2 4.2 10.4 6.2 17.9 6.2 7.4 0 13.6-2.1 17.8-6.2zm-87 0c3.8-3.9 6-9.6 6-17.3 0-16-9.4-23.5-23.9-23.5-14.5 0-23.9 7.4-23.9 23.5 0 7.7 2.2 13.4 6 17.3C84.8 589 91 591 98.5 591c7.5 0 13.7-2.1 17.9-6.2zm559.8-124.2c17.6 18.2 26.6 44.3 26.6 78v57.9c0 33.6-9 59.9-26.6 78-18.4 18.8-45.6 28.4-81 28.4H107.6c-35.4 0-62.6-9.6-81-28.4C8.9 656.3 0 630 0 596.4v-57.9c0-33.6 8.9-59.8 26.6-78 18.4-18.8 45.6-28.4 81-28.4h60.2V170.4c0-12 9.8-21.7 22-21.7 12.1 0 22 9.7 22 21.7v261.7h383.6c35.2.1 62.5 9.6 80.8 28.5z" clip-rule="evenodd" style="fill: #019df4;"/></svg>
