<?xml version="1.0" encoding="UTF-8"?>
<svg xmlns="http://www.w3.org/2000/svg" viewBox="0 0 702.8 702.8"><path fill="#019df4" fill-rule="evenodd" d="M107.8 544c16.8 0 27.7 8.6 27.7 27.1 0 8.9-2.5 15.5-7 20-4.8 4.8-12 7.1-20.7 7.1s-15.8-2.2-20.7-7c-4.5-4.5-7-11.1-7-20 .1-18.6 10.9-27.2 27.7-27.2zm100.8 0c16.8 0 27.7 8.6 27.7 27.1 0 8.9-2.5 15.5-7 20-4.8 4.8-11.9 7.1-20.7 7.1-8.7 0-15.8-2.3-20.7-7.1-4.5-4.5-7-11.1-7-20 0-18.5 10.9-27.1 27.7-27.1zm450.2 52.4v-57.9c0-22-4.8-38.1-14.3-47.8-9.8-10-26.4-15.1-49.3-15.1H107.6c-23 0-39.5 5.1-49.3 15.1-9.5 9.7-14.3 25.8-14.3 47.8v57.9c0 22 4.8 38.1 14.3 47.8 9.8 10 26.3 15.1 49.3 15.1h487.7c23 0 39.5-5.1 49.3-15.1 9.4-9.7 14.3-25.8 14.2-47.8zm17.4-135.8c17.6 18.1 26.6 44.4 26.6 78v57.9c0 33.6-9 59.9-26.6 78-18.4 18.9-45.6 28.4-81 28.4H107.6c-35.4 0-62.6-9.5-81-28.4C8.9 656.3 0 630 0 596.4v-57.9c0-33.6 8.9-59.8 26.6-78 18.4-18.9 45.6-28.4 81-28.4h60.1V170.4c0-12 9.8-21.8 22-21.8 12.1 0 22 9.8 22 21.8v261.8h383.6c35.3 0 62.5 9.5 80.9 28.4zM396.4 169.8c-.9-82.3-54.2-131.5-54.8-132-8.9-8-9.6-21.6-1.6-30.5l.1-.1c8.2-8.9 21.9-9.6 31-1.6 2.8 2.5 68.1 61.8 69.2 163.1.2 3.5 3.7 103.2-68.3 166.8-4 3.6-9.3 5.5-14.6 5.5-6.2 0-12.2-2.6-16.4-7.2-8-8.8-7.3-22.5 1.5-30.5.1-.1.2-.1.2-.2 56.7-50.1 53.8-132.4 53.7-133.3zm-92.4.8c-.6-48.5-31.6-77.5-32-77.8-8.9-7.9-9.7-21.5-1.8-30.4.1-.1.2-.2.2-.3 8.2-8.9 22-9.6 31-1.6 1.9 1.7 45.7 41.5 46.5 109.1.1 2 2.5 68.8-45.9 111.5-9.1 7.9-22.9 7.2-31-1.8-8-8.9-7.3-22.5 1.6-30.5l.2-.2c32.6-28.7 31.2-77.5 31.2-78z" clip-rule="evenodd" style="fill: #019df4;"/></svg>
