<?xml version="1.0" encoding="UTF-8"?>
<svg xmlns="http://www.w3.org/2000/svg" viewBox="0 0 702.8 702.8"><path fill="#019df4" fill-rule="evenodd" d="M682.1 464.7c11.4 0 20.7 9.3 20.7 20.7s-9.3 20.7-20.7 20.7H506v176.1c0 11.4-9.3 20.7-20.7 20.7s-20.7-9.3-20.7-20.7V485.4c0-11.4 9.2-20.7 20.6-20.7h196.9zm-464.7 0c11.4 0 20.7 9.2 20.7 20.6v196.8c0 11.4-9.3 20.7-20.7 20.7s-20.7-9.3-20.7-20.7V506h-176C9.3 506 0 496.8 0 485.3s9.3-20.7 20.7-20.7c0 .1 196.7.1 196.7.1zm0-464.7c11.4 0 20.7 9.2 20.7 20.6v196.8c-.2 11.3-9.3 20.5-20.6 20.7H20.7C9.3 238.1 0 228.9 0 217.5s9.3-20.7 20.7-20.7h176.1V20.7C196.8 9.2 206 0 217.4 0zm268 238.1c-11.4 0-20.7-9.2-20.7-20.6V20.7C464.7 9.3 474 0 485.4 0S506 9.3 506 20.7v176.1h176.1c11.4 0 20.7 9.3 20.7 20.7s-9.3 20.7-20.7 20.7H485.4z" clip-rule="evenodd" style="fill: #019df4;"/></svg>
