<?xml version="1.0" encoding="UTF-8"?>
<svg xmlns="http://www.w3.org/2000/svg" viewBox="0 0 702.8 702.8"><path fill="#019df4" fill-rule="evenodd" d="M673.2 451.5c16.6.6 29.6 14.6 29 31.3-.6 15.7-13.2 28.4-29 29H512.3v161c0 16.6-13.5 30.1-30.2 30.1-16.6 0-30.1-13.5-30.1-30.1V481.6c0-16.7 13.5-30.1 30.1-30.1h191.1zm-451.4 0c16.6 0 30.1 13.5 30.1 30.1v191.1c-.9 16.6-15.1 29.4-31.7 28.5-15.4-.8-27.6-13.1-28.5-28.5v-161h-161c-16.7-.6-29.7-14.6-29-31.2.6-15.7 13.2-28.4 29-29h191.1zm0-451.5c16.6 0 30.1 13.5 30.1 30.1v191.1c0 16.6-13.5 30.1-30.1 30.1H30.7C14.1 251.3.6 237.8.6 221.1c0-16.6 13.5-30.1 30.1-30.1h160.9V30.1c0-16.6 13.5-30.1 30.2-30.1zm260.4 251.3c-16.6 0-30.1-13.5-30.1-30.1V30.1C453 13.5 467.2.7 483.8 1.6c15.4.8 27.6 13.1 28.5 28.5V191h161c16.6.6 29.6 14.6 29 31.3-.6 15.7-13.2 28.4-29 29H482.2z" clip-rule="evenodd" style="fill: #019df4;"/></svg>
