<?xml version="1.0" encoding="UTF-8"?>
<svg xmlns="http://www.w3.org/2000/svg" viewBox="0 0 800 800"><path fill="#019df4" d="M531.5 752.2H267.6c-38.1 0-68.1-10.1-89.1-29.9-22-20.8-33.2-51.1-33.2-90.2l.1-201.5c-.1-11-.1-15.4-.1-15.4v-.2c0-39.1 11.2-69.5 33.2-90.2 21-19.8 51-29.9 89.2-29.9h263.9c38.1 0 68.1 10 89.2 29.8 22 20.7 33.5 51 33.9 90V632.4c-.5 39.1-11.9 69.3-33.9 90-21.2 19.8-51.2 29.8-89.3 29.8zM186.7 414.8c0 .8.1 5.4.1 15.5v.2l-.1 201.6c0 27.3 6.8 47.5 20.2 60.1 13.1 12.3 33.5 18.6 60.8 18.6h263.9c27.2 0 47.7-6.3 60.9-18.7 13.5-12.6 20.5-32.9 20.9-60.2V415.1c-.4-27.3-7.4-47.6-20.9-60.2-13.2-12.4-33.7-18.6-60.9-18.6h-264c-27.2 0-47.7 6.3-60.8 18.6-13.3 12.5-20.1 32.7-20.1 59.9z" style="fill: #019df4;"/><path fill="#019df4" d="M245.4 336.1c-11.4 0-20.7-9.3-20.7-20.7V209.1c0-89 77.1-161.3 171.9-161.3h6.8c94.8 0 171.9 72.4 171.9 161.3v105.5c0 11.4-9.3 20.7-20.7 20.7s-20.7-9.3-20.7-20.7V209.1c0-66.1-58.6-120-130.5-120h-6.8c-72 0-130.5 53.8-130.5 120v106.3c0 11.5-9.3 20.7-20.7 20.7zM400.2 617.4c-18.6 0-33.5-5.3-44.4-15.8-11.3-10.9-17.1-26.3-17.1-45.7 0-19.4 5.7-34.8 17-45.7 10.8-10.5 25.8-15.8 44.4-15.8 18.6 0 33.6 5.3 44.4 15.8 11.3 10.9 17.1 26.3 17.1 45.7 0 19.4-5.7 34.8-17.1 45.7-10.7 10.5-25.7 15.8-44.3 15.8zm0-81.5c-15.4 0-20 4.7-20 20.1 0 15.4 4.7 20 20 20 15.4 0 20.1-4.7 20.1-20 0-15.4-4.7-20.1-20.1-20.1z" style="fill: #019df4;"/></svg>
