<?xml version="1.0" encoding="UTF-8"?>
<svg xmlns="http://www.w3.org/2000/svg" viewBox="0 0 800 800"><path fill="#019df4" d="M537 751.4H262.1c-36.8 0-65.5-9.4-85.3-27.8-20.7-19.3-31.2-47.9-31.2-85.1l.1-207.1c-.1-11.3-.1-15.9-.1-15.9v-.1c0-37.2 10.5-65.8 31.2-85.1 19.8-18.4 48.5-27.8 85.4-27.8H537c36.8 0 65.5 9.3 85.4 27.8 20.8 19.2 31.5 47.8 32 85V638.7c-.5 37.2-11.2 65.8-32 85-19.9 18.3-48.6 27.7-85.4 27.7zM167 415.3c0 .6.1 5.3.1 16v.1l-.1 207.1c0 31 8.2 54.3 24.4 69.4 15.7 14.6 39.6 22.1 70.8 22.1H537c63.8 0 95.2-29.9 96-91.5v-223c-.8-61.6-32.2-91.5-96-91.5H262.1c-31.2 0-55 7.4-70.8 22.1-16.1 14.8-24.3 38.2-24.3 69.2z" style="fill: #019df4;"/><path fill="#019df4" d="M239 323.2c-5.6 0-10.1-4.5-10.1-10.1V203.9c0-85.3 75.2-154.6 167.6-154.6h7c92.4 0 167.6 69.4 167.6 154.6v108.4c0 5.6-4.5 10.1-10.1 10.1s-10.1-4.5-10.1-10.1V203.9c0-74.1-66.1-134.5-147.4-134.5h-7c-81.3 0-147.4 60.3-147.4 134.5v109.2c0 5.6-4.5 10.1-10.1 10.1zM400.2 615.2c-37.6 0-59.2-21.6-59.2-59.2s21.6-59.2 59.2-59.2 59.2 21.6 59.2 59.2c.1 37.6-21.5 59.2-59.2 59.2zm0-97c-25.8 0-37.8 12-37.8 37.8 0 25.8 12 37.8 37.8 37.8 25.8 0 37.8-12 37.8-37.8 0-25.8-12-37.8-37.8-37.8z" style="fill: #019df4;"/></svg>
