<?xml version="1.0" encoding="UTF-8"?>
<svg xmlns="http://www.w3.org/2000/svg" viewBox="0 0 800 800"><path fill="#019df4" d="M654.7 414.7c-.5-39.1-11.9-69.4-34-90-21.1-19.8-51.2-29.9-89.2-29.9H267.6c-38.1 0-68.1 10.1-89.1 29.9-22 20.8-33.2 51.1-33.2 90.2v.2s.1 4.4.1 15.4l-.1 201.5c0 39.1 11.2 69.5 33.2 90.2 21 19.8 51 29.9 89.1 29.9h263.9c38.1 0 68.1-10 89.2-29.8 22-20.7 33.5-51 34-90V414.9v-.2zm-210.1 187c-10.9 10.5-25.8 15.8-44.4 15.8s-33.5-5.3-44.4-15.8c-11.3-10.9-17-26.3-17-45.7s5.7-34.8 17-45.7c10.9-10.5 25.8-15.8 44.4-15.8s33.5 5.3 44.4 15.8c11.4 10.9 17 26.3 17 45.7s-5.6 34.8-17 45.7z" style="fill: #019df4;"/><path fill="#019df4" d="M245.4 336.1c-11.4 0-20.7-9.3-20.7-20.7V209.1c0-89 77.1-161.4 171.9-161.4h6.8c94.8 0 171.9 72.4 171.9 161.4v105.5c0 11.4-9.3 20.7-20.7 20.7s-20.7-9.3-20.7-20.7V209.1c0-66.1-58.5-120-130.5-120h-6.8c-72 0-130.5 53.8-130.5 120v106.3c0 11.5-9.3 20.7-20.7 20.7z" style="fill: #019df4;"/></svg>
