<?xml version="1.0" encoding="UTF-8"?>
<svg xmlns="http://www.w3.org/2000/svg" viewBox="0 0 704.5 704.5"><path fill="#019df4" d="M580.8 40c7 0 8.8 4.1 3.8 9.1l-25.4 25.4c-5 5-8.3 14.8-7.3 21.8l5.2 36.5c1 7 7.5 13.5 14.5 14.5l36.5 5.2c.9.1 1.8.2 2.7.2 6.6 0 14.7-3 19.1-7.4l25.4-25.4c1.9-1.9 3.7-2.9 5.2-2.9 2.3 0 3.9 2.3 3.9 6.6 0 0 .2 57.6-25.9 83.8-25.7 25.7-81.8 25.9-83.7 25.9h-.1c-7 0-16.8 4-21.8 9L242.3 532.9c-5 5-9 14.8-9 21.9 0 0 .2 57.6-25.9 83.8-25.7 25.7-81.8 25.9-83.7 25.9h-.1c-7 0-8.7-4.1-3.8-9.1l25.4-25.4c5-5 8.3-14.8 7.3-21.8l-5.2-36.5c-1-7-7.5-13.5-14.5-14.5L96.3 552c-.9-.1-1.8-.2-2.7-.2-6.6 0-14.7 3-19.1 7.4l-25.4 25.4c-1.9 1.9-3.7 2.9-5.2 2.9-2.3 0-3.9-2.3-3.9-6.6 0 0-.2-57.6 25.9-83.8 25.7-25.7 81.8-25.9 83.7-25.9h.1c7 0 16.8-4 21.8-9l290.6-290.6c5-5 9-14.8 9-21.9 0 0-.2-57.6 25.9-83.8C522.8 40.2 578.9 40 580.8 40m.1-40c-13.6.2-27.1 1.5-40.3 4-31.1 5.8-55.2 17.1-71.7 33.7-16.7 16.7-28.1 41.2-33.9 72.8-2.1 11.7-3.4 23.6-3.7 35.5L145.9 431.3c-12.3.4-24.5 1.7-36.6 4-31.1 5.8-55.2 17.1-71.7 33.6-16.7 16.7-28.1 41.2-33.9 72.8-2.4 13-3.6 26.2-3.8 39.4-.1 9 2.3 17.8 6.9 25.6 7.8 13 21.8 20.9 37 20.9 12.2 0 24.1-5.2 33.5-14.6l20.4-20.4 12.4 1.8 1.8 12.4-20.4 20.4C77.6 641 73.2 660.1 80.2 677s23.5 27.4 43.2 27.5h.2c13.5-.2 27-1.5 40.3-4 31.1-5.8 55.2-17.1 71.7-33.7 16.7-16.7 28.1-41.2 33.9-72.8 2.1-11.7 3.4-23.6 3.7-35.5l285.3-285.3c12.3-.4 24.5-1.7 36.6-4 31.1-5.8 55.2-17.1 71.7-33.6 16.7-16.7 28.1-41.2 33.8-72.8 2.4-13 3.6-26.2 3.8-39.4.1-9-2.3-17.8-6.9-25.6-7.8-13-21.8-20.9-37-20.9-12.2 0-24.1 5.2-33.5 14.6l-20.3 20.3-12.4-1.8-1.8-12.4 20.4-20.3c13.9-13.9 18.3-33.1 11.3-49.9S600.8.1 581.1 0h-.2z" style="fill: #019df4;"/></svg>
