<?xml version="1.0" encoding="UTF-8"?>
<svg xmlns="http://www.w3.org/2000/svg" viewBox="0 0 702.8 702.8"><path fill="#019df4" d="M587 29.5c7.3 0 9 4.3 3.9 9.4l-26.2 26.2c-5.1 5.1-8.5 15.2-7.5 22.4l5.4 37.6c1 7.2 7.8 13.9 15 15l37.6 5.4c.9.1 1.8.2 2.7.2 6.8 0 15.2-3.1 19.7-7.7l26.2-26.2c2-2 3.8-3 5.4-3 2.4 0 4 2.4 4 6.8 0 0 .2 59.4-26.7 86.3-26.5 26.5-84.3 26.7-86.3 26.7h-.1c-7.3 0-17.4 4.2-22.5 9.3L238 537.6c-5.1 5.1-9.3 15.3-9.3 22.6 0 0 .2 59.4-26.7 86.3-26.5 26.5-84.3 26.7-86.3 26.7h-.1c-7.3 0-9-4.3-3.9-9.4l26.3-26.2c5.1-5.1 8.5-15.2 7.5-22.4l-5.4-37.6c-1-7.2-7.8-13.9-14.9-15l-37.6-5.4c-.9-.1-1.8-.2-2.7-.2-6.8 0-15.2 3.1-19.7 7.7L38.9 591c-2 2-3.8 3-5.4 3-2.4 0-4-2.4-4-6.8 0 0-.2-59.4 26.7-86.4 26.5-26.6 84.3-26.8 86.3-26.8h.1c7.3 0 17.4-4.2 22.5-9.3l299.6-299.5c5.1-5.2 9.3-15.3 9.3-22.6 0 0-.2-59.4 26.7-86.3 26.6-26.6 84.4-26.8 86.3-26.8m0-20.6c-12.7.2-25.3 1.5-37.7 3.8-27.9 5.2-49.1 15-63.1 29-14.2 14.2-24 35.8-29.2 64.2-2.2 12.2-3.4 24.5-3.6 36.8-.4 2.9-1.6 5.6-3.3 7.9L150.6 450.1c-2.3 1.7-5.1 2.8-7.9 3.3h-.1c-12.7.2-25.3 1.5-37.7 3.8-27.9 5.2-49.1 15-63.1 29-14.2 14.2-24 35.8-29.2 64.2-2.2 12.2-3.4 24.5-3.6 36.8.1 18 12.4 27.4 24.6 27.4 5 0 12.5-1.6 20-9l26.1-26.1c1.6-1 3.3-1.6 5.2-1.7l35.2 5 5 35.3c-.1 1.8-.7 3.6-1.7 5.2l-26.1 26.1c-8.5 8.5-11.2 19.4-7.2 29s13.6 15.5 25.6 15.5h.1c12.7-.2 25.3-1.5 37.7-3.8 27.9-5.2 49.1-15 63.1-29 14.2-14.2 24-35.8 29.2-64.2 2.2-12.2 3.4-24.5 3.6-36.8.4-2.9 1.6-5.6 3.3-7.9l299.5-299.5c2.3-1.7 5.1-2.8 7.9-3.3h.1c12.7-.2 25.3-1.5 37.7-3.8 27.9-5.2 49.1-15 63.1-29 14.2-14.2 24-35.8 29.2-64.2 2.2-12.2 3.4-24.5 3.6-36.8-.1-18-12.4-27.4-24.6-27.4-5 0-12.5 1.6-20 9l-26.1 26.1c-1.5 1-3.3 1.5-5.1 1.7l-35.2-5-5-35.2c.1-1.8.7-3.6 1.7-5.2l26.1-26.1c8.5-8.5 11.2-19.4 7.2-29S599.2 8.9 587.2 8.9h-.2z" style="fill: #019df4;"/></svg>
