<?xml version="1.0" encoding="UTF-8"?>
<svg xmlns="http://www.w3.org/2000/svg" viewBox="0 0 702.8 702.8"><path fill="#019df4" d="M580 9.1c-13 .2-25.8 1.5-38.5 3.9-29 5.4-51.4 15.8-66.5 30.9-15.2 15.2-25.7 38-31.1 67.5-2.2 12.1-3.4 24.4-3.6 36.7-.2.7-.5 1.4-.8 2L150.1 439.5c-.6.3-1.3.6-2 .8-12.7.2-25.3 1.5-37.7 3.8-29.1 5.4-51.4 15.8-66.5 30.9-15.2 15.2-25.7 38-31.1 67.5-2.3 12.4-3.5 25-3.6 37.6-.1 7.2 1.8 14.2 5.4 20.4 6 10 16.8 16.1 28.4 16.1 6.7 0 16.8-2 26.4-11.7L93.3 581l24.7 3.5 3.5 24.7-23.8 23.9c-4 3.9-7.1 8.5-9.2 13.6-7 16.9 1 36.3 17.9 43.5 5.1 2.2 10.6 3.3 16.1 3.2h.2c12.9-.2 25.8-1.5 38.4-3.8 29.1-5.4 51.4-15.8 66.5-30.9 15.2-15.2 25.7-38 31.1-67.5 2.2-12.1 3.4-24.4 3.6-36.7.2-.7.5-1.4.8-2l289.4-289.4c.6-.3 1.3-.6 2-.8 12.7-.2 25.3-1.5 37.7-3.8 29-5.4 51.4-15.8 66.5-30.9 15.2-15.2 25.7-38 31.1-67.5 2.3-12.4 3.5-25 3.6-37.6.1-7.2-1.8-14.2-5.5-20.4-6-10-16.8-16.1-28.4-16.1-6.7 0-16.8 2-26.4 11.7l-23.9 23.9-24.7-3.5-3.5-24.7 24-23.9c4-3.9 7.1-8.5 9.2-13.6 7-16.9-1-36.3-17.9-43.5-5.1-2.2-10.6-3.3-16.1-3.2l-.2-.1z" style="fill: #019df4;"/></svg>
