<?xml version="1.0" encoding="UTF-8"?>
<svg xmlns="http://www.w3.org/2000/svg" viewBox="0 0 702.8 702.8"><path fill="#019df4" fill-rule="evenodd" d="M673.5 457.1V137.3c0-43.9-37.1-79.7-82.7-79.7H112c-45.6 0-82.8 35.7-82.8 79.7v319.8c0 38.5 26 70.7 63.2 78 6.8 1.4 11.7 7.2 11.7 13.9v77.4c0 9.7 10 18.8 20.5 18.8 3.5 0 10.7 0 18-9.4l75.6-93.6c2.8-3.5 7.1-5.4 11.5-5.4h360.9c45.8-.1 82.9-35.8 82.9-79.7zM590.8 29.3c61.7 0 112 48.4 112 108v319.8c0 59.6-50.3 108-112 108H237L166 653c-10.5 13.6-24.4 20.6-41.3 20.6-27 0-49.8-21.6-49.8-47.1V560C30.2 545.8 0 505.1 0 457.1V137.3c0-59.6 50.3-108 112-108h478.8zM169.4 285.5c25.5 9.9 57.3 22.1 57.3 63.5 0 36.6-26 57.6-71.2 57.6-22.6 0-42-4.9-49.9-7.8-5.1-1.8-8-7.2-6.7-12.4l1.9-7.7c.7-2.9 2.7-5.3 5.3-6.7 2.7-1.5 5.8-1.8 8.7-.9 27.1 8.3 59.4 7.9 71.8-.3 3.7-2.3 9.7-8.2 9.7-21.4 0-20.6-14.2-27.1-39.4-36.8-24.8-9.6-55.6-21.6-55.6-60.7 0-16.8 5.9-30.8 17.1-40.4 19-16.3 53.6-18.8 90.9-8.3 5.6 1.5 9 7.1 7.6 12.8l-1.9 7.4c-.8 2.8-2.6 5.2-5.2 6.6-2.6 1.4-5.6 1.8-8.5 1-10.8-3.2-21.9-4.8-33.2-4.9-36.7 0-36.7 17.3-36.7 24.6 0 19.1 13.8 25.4 38 34.8zm261.8-85.2c6-.1 10.9 4.7 11 10.6v181.3c-.1 6-5 10.7-11 10.6h-7.7c-6 .1-10.9-4.7-11-10.6v-123l-48 88.1c-2 3.5-5.7 5.7-9.7 5.7h-8.2c-4.1 0-7.8-2.2-9.8-5.8l-46.1-86.9v122c-.1 6-5 10.7-11 10.6H272c-6 .1-10.9-4.7-11-10.6V211c0-5.9 4.9-10.6 11-10.6h8.3c4.1 0 7.9 2.2 9.8 5.8l61 115L413.8 206c2-3.5 5.7-5.7 9.8-5.7h7.6zm115.9 85.2c25.5 9.9 57.3 22.1 57.3 63.5 0 36.6-26 57.6-71.2 57.6-22.6 0-42-4.9-49.9-7.8-5.1-1.8-8-7.2-6.7-12.4l1.9-7.7c.7-2.9 2.7-5.3 5.3-6.7 2.7-1.5 5.8-1.8 8.7-.9 27.1 8.3 59.4 7.9 71.8-.3 3.7-2.3 9.7-8.2 9.7-21.4 0-20.6-14.2-27.1-39.4-36.8-24.8-9.6-55.7-21.6-55.7-60.7 0-16.8 5.9-30.8 17.2-40.4 19-16.3 53.6-18.8 90.9-8.3 5.6 1.5 9 7.2 7.6 12.8l-1.9 7.4c-.8 2.8-2.6 5.2-5.2 6.6-2.6 1.4-5.7 1.8-8.5 1-10.8-3.2-21.9-4.8-33.1-4.9-36.7 0-36.7 17.3-36.7 24.6-.2 19.1 13.6 25.4 37.9 34.8z" clip-rule="evenodd" style="fill: #019df4;"/></svg>
