<?xml version="1.0" encoding="UTF-8"?>
<svg xmlns="http://www.w3.org/2000/svg" viewBox="0 0 702.8 702.8"><path fill="#019df4" fill-rule="evenodd" d="M586 29.3c64.4 0 116.8 50.5 116.8 112.6v312.9c0 62.1-52.4 112.6-116.8 112.6H242.8l-67.4 83.3c-7.9 10.2-22.5 22.8-46.1 22.8-30.4 0-56-24.3-56-53v-60.2C29 544.3-.4 502 0 454.8V141.9C0 79.8 52.4 29.3 116.9 29.3H586zm-418.2 249c-24.9-9.6-35.1-15.1-35.1-30.8 0-6.7 0-20.6 32.3-20.6 13 0 23.2 2.3 31.5 4.7 3.7 1.1 7.7.6 11.1-1.3 3.3-1.9 5.8-5 6.8-8.7l1.9-7.3c1.8-7.3-2.6-14.7-9.9-16.6-37.8-10.7-72.8-8-92.4 8.8-11.8 10-18 24.6-18 42.1 0 40.7 32.9 53.4 56.8 62.7 25.8 10 36.3 15.7 36.3 32.8 0 10.7-4.2 15.8-7.9 18.1-3.9 2.6-12.1 5.7-28.7 5.7-13 0-25.9-2-38.6-5.9-3.8-1.2-7.9-.8-11.4 1.2-3.4 1.8-5.9 5-6.9 8.8l-1.9 7.5c-1.7 6.9 2.2 13.9 8.8 16.2 10.7 3.9 30.3 7.9 50.2 7.9 46.6 0 73.4-21.8 73.4-59.8 0-43-33.7-56-58.3-65.5zm261.8-83.6h-7.5c-5.3 0-10.1 2.8-12.7 7.4l-58.2 106.6-56.7-106.6c-2.5-4.7-7.4-7.5-12.7-7.5h-8.1c-7.9 0-14.3 6.2-14.3 13.9V386c0 7.6 6.4 13.9 14.3 13.9h7.6c7.9 0 14.3-6.2 14.3-13.9V280.9l38.4 72.3c2.5 4.7 7.4 7.5 12.7 7.5h8.1c5.3 0 10.1-2.8 12.7-7.4l40.3-73.8V386c0 7.7 6.4 13.9 14.3 13.9h7.5c7.9 0 14.3-6.2 14.3-13.9V208.6c-.1-7.8-6.5-14-14.3-13.9zm121.5 83.6c-24.9-9.6-35-15.1-35-30.8 0-6.7 0-20.6 32.3-20.6 13 0 23.2 2.3 31.5 4.7 3.7 1.1 7.8.6 11.2-1.3 3.3-1.9 5.8-5 6.7-8.7l1.9-7.3c1.8-7.3-2.6-14.7-9.9-16.6-37.8-10.7-72.8-8-92.4 8.8-11.8 10-18 24.6-18 42.1 0 40.7 32.9 53.4 56.8 62.7 25.8 10 36.3 15.7 36.3 32.8 0 10.7-4.2 15.8-8 18.1-3.9 2.6-12.1 5.7-28.7 5.7-12.9 0-25.9-2-38.6-5.9-3.8-1.2-7.9-.8-11.4 1.2-3.4 1.8-5.9 5-6.9 8.8l-1.9 7.5c-1.7 6.9 2.2 13.9 8.8 16.2 10.7 3.9 30.3 7.9 50.2 7.9 46.6 0 73.4-21.8 73.4-59.8 0-43-33.7-56-58.3-65.5z" clip-rule="evenodd" style="fill: #019df4;"/></svg>
