<?xml version="1.0" encoding="UTF-8"?>
<svg xmlns="http://www.w3.org/2000/svg" viewBox="0 0 702.8 702.8"><path fill="#019df4" fill-rule="evenodd" d="M363.4 570.7h-21.2c-60.5-.9-200.7-23.4-200.7-215.7 0-191.9 139-213.9 198.9-214.5h4.2c6 0 12.1 0 17.5.3 60.8 1.5 201.9 25.3 201.9 215.4.1 190.1-140.2 213.3-200.6 214.5m324.3-236.2H598c-1.5 0-3 .6-4.6.9-3.9-68.6-25.4-116.7-55-149.8.6-.3 1.2-.6 1.5-.9l65-64.4c5.7-6 5.7-15.6 0-21.4-6-6-15.7-6-21.5 0l-65 64.4c-.3.6-.6 1.2-.9 1.5-54.1-45.1-121.8-52.9-150.9-54.1V15c0-8.4-6.9-15-15.1-15-8.4 0-15.1 6.6-15.1 15v95.7c-29.9.6-96.7 7.5-149.9 52.6-.6-.6-.9-1.2-1.5-1.8l-62.9-62.6c-5.7-6-15.4-6-21.2 0-6 5.7-6 15.3 0 21.4l62.9 62.6c.6.3 1.2.6 1.8 1.2-28.7 33.1-49.9 81.5-53.5 151.4-1.2-.3-2.4-.9-3.6-.9H15.1c-8.5 0-15.1 6.9-15.1 15 0 8.5 6.7 15 15.1 15h93.4c1.2 0 2.1-.3 3.1-.6 1.8 70.4 21.1 119.7 48.4 154.6-.6.3-1.2.6-1.8 1.2l-62.6 61.9c-5.8 6-5.8 15.7 0 21.4 3 3 6.9 4.5 10.6 4.5 3.6 0 7-1.5 9.7-3.6 2.4-.9 4.5-1.8 6.3-3.6l57.1-56.8c.6-.6.9-1.5 1.5-2.4 53.8 49.6 123.9 58.3 155.6 59.5v87c0 8.1 6.7 15 15.1 15 8.2 0 15.1-6.9 15.1-15v-87c29.7-.9 102.5-9 157.8-59.9.6.9 1.2 2.1 2.1 3l56.8 56.6c3.1 3 6.7 4.2 10.6 4.2 3.9 0 7.9-1.2 10.9-4.2 5.7-6 5.7-15.3 0-21.4l-57.1-56.6c-.9-1.2-2.1-1.8-3.7-2.4 28.4-34.9 48.4-84.8 49.9-156.1 1.2.3 2.4.6 3.9.6h89.7c8.5 0 15.1-6.6 15.1-15 .2-8-6.4-15-14.9-15" clip-rule="evenodd" style="fill: #019df4;"/></svg>
