<?xml version="1.0" encoding="UTF-8"?>
<svg xmlns="http://www.w3.org/2000/svg" viewBox="0 0 702.8 702.8"><path fill="#019df4" fill-rule="evenodd" d="M680.6 327.9h-88.1c-1.8 0-3.2.6-4.7.9C583 269 564.3 225.9 538.9 195c.9-.6 1.5-.9 2.1-1.5l63.3-63c8.6-8.3 8.9-22 .6-30.6l-.6-.6c-8.4-8.7-22.2-8.9-30.9-.5l-.5.5-63.3 63c-.6.6-.9 1.5-1.5 2.3-47.6-37.1-104.4-46.2-134.6-48.3V22.1c-.1-12.2-10-22-22.2-22.1-12.2 0-22.1 9.8-22.2 22v94.1c-30.7 1.8-86.7 10.3-133.7 46.8-.6-.6-.9-1.7-1.8-2.3l-61.5-61.3c-8.4-8.7-22.3-8.9-30.9-.5l-.5.5c-8.5 8.7-8.5 22.6 0 31.2l61.5 61.2c.9.6 1.8.9 2.7 1.8-24.8 31-43.2 74.6-47.3 135.2-1.5-.3-2.6-.8-4.1-.8H22.2C10 327.9.1 337.8 0 350c0 12 10.1 22 22.2 22h91.4c1.2 0 2.3-.6 3.5-.6 2.7 61 18.7 105.7 42 138.2-.6.6-1.5.8-2.3 1.7l-61 60.7c-8.6 8.3-8.9 22.1-.5 30.7.2.2.3.4.5.5 4.2 4.4 9.8 6.4 15.7 6.4 4.1 0 8.3-1.4 11.8-3.8 3.4-1 6.4-2.8 8.9-5.3l55.9-55.4c.6-.9.9-1.8 1.8-2.6 47.6 40.9 106.8 50.7 139.3 52.7v85.4c0 12.4 9.8 22.1 22.2 22.1 12.2 0 22.1-9.8 22.2-22.1v-84.8c0-.3-.3-.3-.3-.6 31.3-1.8 92.9-11.2 142.3-53 .6.9.9 2.1 1.8 2.9l55.6 55.4c4.4 4.4 10 6.4 15.7 6.4 5.9 0 11.5-2 15.7-6.4 8.6-8.3 8.9-22 .6-30.6l-.6-.6-55.7-55.3c-1.2-1.2-2.6-1.8-4.2-2.7 24.3-32.7 41.4-78.1 43.8-140.2 1.5.3 2.7.9 4.1.9h88.1c12.2-.1 22.1-9.9 22.2-22.1 0-12.1-9.9-22-22.1-22" clip-rule="evenodd" style="fill: #019df4;"/></svg>
