<?xml version="1.0" encoding="UTF-8"?>
<svg xmlns="http://www.w3.org/2000/svg" viewBox="0 0 702.8 702.8"><path fill="#019df4" fill-rule="evenodd" d="M184.6 428.9C119 267.2 171.9 147.1 205.4 94.1l142.8 238.2-163.6 96.6zm-53.4-300.3c-30.4 74.1-49.5 187.3 9.6 326.1l-75.3 44.5c-3.2 1.9-5 3.6-12.7 1.5-4.3-1.4-7.5-4.2-9-7.7-29.3-69.3-36.9-135.1-22.7-195.5 14.3-62.2 51.5-118.7 110.1-168.9zm444.9 69l-184.5 109L246.7 65c58.8-7.9 195-6.4 329.4 132.6zM684 115.4c2.7 2.9 4 6.9 3.6 10.4-.6 4.3-3.1 7.7-7 10.1L620 171.7C517.9 62.8 413.8 25.6 334.6 16.2 396.4-2.2 455.5-5 511 8.3c62.9 15.1 121.1 51.1 173 107.1zM201.5 89l-13.3-22.2c-6.9-11.6-2.7-26.5 9.5-33.2 12.2-6.6 27.8-2.6 34.8 9.1L245 63.6 201.5 89zm190.3 218.5l215.1 358.9c7 11.7 2.7 26.5-9.5 33.2-4 2.1-8.3 3.2-12.6 3.2-8.9 0-17.4-4.4-22.1-12.2L348.3 333l43.5-25.5z" clip-rule="evenodd" style="fill: #019df4;"/></svg>
