<?xml version="1.0" encoding="UTF-8"?>
<svg xmlns="http://www.w3.org/2000/svg" viewBox="0 0 702.8 702.8"><path fill="#019df4" fill-rule="evenodd" d="M647.7 166.2l-59.1 35.6C482 83.2 372.6 57.3 300.8 56.2 369.1 28.9 434.2 22.3 495 37.1c57.4 14.1 110.3 47.5 157.4 99.4 3.8 4.1 5.6 9.9 5 15.4-.9 6-4.5 11.3-9.7 14.3zM246.5 90.1c47-8.6 183.6-17.1 316.1 127.5L384.4 324.9 246.5 90.1zm-46.8 346.1c-69.4-165.2-7.4-285.1 22.4-328.5l136.7 232.6-159.1 95.9zm-98.3 59.3c-5.3 3.3-11.7 4-17.6 2-5.6-1.7-10.2-5.8-12.6-11.2-26.6-64.2-33.5-125.2-20.5-181.5 15.1-66.9 57.8-126.6 126.4-178.1-32.5 64.4-66 180-3.4 325.2l-72.3 43.6zm573.5-378.6C623.8 60.6 565.7 24.2 502.3 8.6c-85.3-20.7-177.5-4-274.5 49.8l-15.1-25.8c-4.2-7.1-13.4-9.5-20.6-5.4-7 3.8-9.6 12.5-5.8 19.5.1.2.2.3.3.5l15.5 26.5C101.8 135.5 41 211.1 21.2 298.4c-14.3 62.1-6.9 129.1 22 198.8 5.4 13 16.5 23.2 31.4 28.2 5.8 1.7 10.8 2.5 15.7 2.5 9.2 0 18.7-2.5 26.9-7.4l256.7-154.7 193.5 329.5c4.2 7.1 13.4 9.6 20.6 5.4 7-3.8 9.6-12.5 5.8-19.5-.1-.2-.2-.3-.3-.5L399.4 350.4l264.2-159.2c12.9-7.8 21.4-20.6 23.7-35.5 1.7-14.2-2.8-28.3-12.4-38.8z" clip-rule="evenodd" style="fill: #019df4;"/></svg>
