<?xml version="1.0" encoding="UTF-8"?>
<svg xmlns="http://www.w3.org/2000/svg" viewBox="0 0 702.8 702.8"><path fill="#019df4" fill-rule="evenodd" d="M637.3 163.9l-52.6 31.8C496 98.9 405.6 65.9 336.7 57.6c53.7-16.3 105-18.8 153.3-7C544.6 64 595.1 96 640.3 145.7c2.3 2.5 3.4 6.1 3.1 9.2-.6 3.8-2.8 7.1-6.1 9zm-376.9-63c51.1-7 169.4-5.7 286.1 117.8l-160.3 96.7c.1 0-125.8-214.5-125.8-214.5zm-53.9 323c-57-143.6-11.1-250.1 18.1-297.3l124 211.5c.1 0-142.1 85.8-142.1 85.8zm-103.4 62.5c-2.8 1.7-4.4 3.2-11.1 1.3-3.5-1-6.3-3.5-7.8-6.9C58.8 419.3 52.1 361 64.5 307.3c12.4-55.2 44.7-105.4 95.6-149.9-26.4 65.9-43 166.3 8.3 289.5l-65.3 39.5zm570.2-369.5c-51-56.2-109.1-92.7-172.6-108.3-83.4-20.4-173.1-4.7-267.3 46.1l-11.2-19.2c-6.3-10.4-19.7-14-30.2-8-10.3 5.6-14.1 18.6-8.5 28.9.1.2.2.3.3.5L195.6 77c-96.2 60.9-155 135.2-174.2 220.8C7 360 14.3 427 43.2 496.8c6 14.7 18.6 26.2 35.3 31.9 6.2 1.8 12 2.7 17.5 2.7 10.3 0 21-2.9 30.2-8.3l244.5-147.6 185.5 316.3c6.2 10.4 19.6 14 30.2 8 10.4-5.6 14.2-18.5 8.6-28.9l-.3-.6-186.4-317.4 252.4-152.3c14.4-8.8 24.1-23.1 26.6-40.1 1.8-15.9-3.2-31.8-14-43.6z" clip-rule="evenodd" style="fill: #019df4;"/></svg>
