<?xml version="1.0" encoding="UTF-8"?>
<svg xmlns="http://www.w3.org/2000/svg" viewBox="0 0 702.8 702.8"><path fill="#019df4" fill-rule="evenodd" d="M633.6 87.8c-38.2 0-69.2 30.9-69.3 69.1 0 16.7 6.2 31.9 16.2 43.8l-85.4 142.8c-5.3-1.3-10.6-2-16-2-20.1 0-38.1 8.8-50.7 22.5L281 299.4c.1-1.9.6-3.7.6-5.7 0-38.1-31-69.1-69.3-69.1-38.2 0-69.2 30.9-69.3 69.1 0 17 6.7 33 17.7 45.5L82 478.1c-4.2-.8-8.5-1.3-12.8-1.3C31 476.8 0 507.7-.1 545.9 0 584 31 615 69.3 615c38.2 0 69.2-30.9 69.3-69.1 0-17.6-6.8-33.4-17.7-45.6l78.9-139.1c4.1.8 8.3 1.6 12.5 1.6 20.1 0 38.1-8.8 50.8-22.5l147.3 64.5c-.1 1.9-.6 3.7-.6 5.7 0 38.2 31 69.3 69.2 69.3s69.3-31 69.3-69.2v-.1c0-16.3-5.9-31.1-15.4-42.9l85.6-143.3c4.8 1.1 9.8 1.8 15 1.8 38.2 0 69.1-30.9 69.2-69.1.1-38.2-30.9-69.2-69.1-69.2" clip-rule="evenodd" style="fill: #019df4;"/></svg>
