<?xml version="1.0" encoding="UTF-8"?>
<svg xmlns="http://www.w3.org/2000/svg" viewBox="0 0 702.8 702.8"><path fill="#019df4" fill-rule="evenodd" d="M633.6 181.3c-13.5 0-24.5-10.9-24.5-24.4s10.9-24.5 24.4-24.5c13.5 0 24.5 10.9 24.5 24.4 0 13.6-10.9 24.5-24.4 24.5M212.3 318.1c-13.5-.5-24-11.8-23.6-25.3.4-12.8 10.7-23.1 23.6-23.6 13.5-.5 24.8 10.1 25.3 23.6.5 13.5-10.1 24.8-23.6 25.3-.5.1-1.1.1-1.7 0M633.6 87.8c-38.2 0-69.2 30.9-69.3 69.1 0 16.7 6.2 31.8 16.1 43.7l-85.3 142.8c-5.3-1.3-10.6-2-16-2-20.1 0-38.1 8.7-50.8 22.5L281 299.4c.2-1.9.6-3.7.6-5.7 0-38.1-31-69.1-69.2-69.1s-69.2 30.9-69.3 69.1c0 17.1 6.7 33.1 17.7 45.5L82 478.1c-4.2-.8-8.5-1.3-12.8-1.3C31 476.8 0 507.7-.1 545.9 0 584 31 615 69.3 615c38.2 0 69.2-30.9 69.3-69.1 0-17.6-6.8-33.4-17.7-45.6l78.9-139.1c4.2.8 8.3 1.6 12.6 1.6 20.1 0 38.1-8.7 50.8-22.5l147.3 64.5c-.1 1.9-.6 3.7-.6 5.7 0 38.2 31 69.3 69.2 69.3s69.3-31 69.3-69.2v-.1c0-16.3-5.9-31.1-15.4-43l85.6-143.3c4.9 1.1 9.8 1.8 15.1 1.8 38.2 0 69.1-30.9 69.2-69.1-.1-38.1-31.1-69.1-69.3-69.1" clip-rule="evenodd" style="fill: #019df4;"/></svg>
