<?xml version="1.0" encoding="UTF-8"?>
<svg xmlns="http://www.w3.org/2000/svg" viewBox="0 0 702.8 702.8"><path fill="#019df4" fill-rule="evenodd" d="M640.2 184.3c-18.4 0-33.3-15-33.3-33.4s14.9-33.5 33.3-33.5 33.3 15 33.3 33.5-15 33.4-33.3 33.4M482.1 445.9c-18.4-.1-33.3-15-33.3-33.5 0-18.4 14.9-33.4 33.3-33.4s33.4 15 33.3 33.4c0 18.4-14.9 33.5-33.3 33.5m-273-120.5c-18.4 0-33.3-14.9-33.3-33.3v-.2c0-18.4 14.9-33.4 33.3-33.4 18.4.1 33.3 15 33.2 33.4.1 18.4-14.8 33.4-33.2 33.5M62.7 585.5c-18.4 0-33.3-15-33.3-33.4s14.9-33.4 33.3-33.4c18.4.1 33.3 15 33.3 33.4-.1 18.4-15 33.4-33.3 33.4M640.1 87.8c-34.5 0-62.6 28.3-62.6 63 0 17.3 7 33 18.3 44.5l-93.6 157.8c-6.5-2.4-13.3-3.6-20.2-3.6-20.3 0-38.1 9.9-49.6 24.9l-162-71.5c.7-3.6 1.1-7.3 1.1-11 0-34.7-28.1-62.9-62.6-62.9-34.6 0-62.6 28.3-62.6 63 0 17.6 7.5 34 20 45.8l-86.6 154c-5.5-1.7-11.3-2.6-17.1-2.7C28.1 489.1 0 517.3 0 552s28.1 63 62.6 63c34.7-.2 62.7-28.5 62.5-63.2-.1-17.3-7.3-33.7-19.9-45.5l86.6-153.9c5.6 1.6 11.3 2.5 17.2 2.5 20.2 0 38.1-9.9 49.5-24.9l162 71.5c-.7 3.6-1.1 7.3-1.1 11 0 34.7 28.1 63 62.6 63 34.7-.1 62.8-28.4 62.6-63.1-.1-16.2-6.4-31.7-17.6-43.3l94-158.7c6.1 2 12.4 3.3 19.1 3.3 34.6 0 62.6-28.2 62.6-62.9.1-34.7-28-63-62.6-63" clip-rule="evenodd" style="fill: #019df4;"/></svg>
