<?xml version="1.0" encoding="UTF-8"?>
<svg xmlns="http://www.w3.org/2000/svg" viewBox="0 0 702.8 702.8"><path fill="#019df4" fill-rule="evenodd" d="M386.6 392.8c6.3-6.2 9.4-17 9.4-31.9 0-14.9-3.2-25.7-9.5-32-6.1-6.1-16.2-9.2-30.1-9.2-13.8 0-24 3-30 9.2-6.2 6.3-9.4 17.1-9.4 32 0 14.9 3.2 25.6 9.3 31.9 6 6.1 16.2 9.2 30.1 9.2 13.9 0 24.1-3.1 30.2-9.2zm-30.2-103.5c21.7 0 38.6 6 50.3 17.8 12.2 12.2 18.4 30.4 18.4 53.8 0 23.5-6.2 41.6-18.5 53.8-11.7 11.7-28.6 17.6-50.3 17.6-21.7 0-38.6-6-50.3-17.6-12.1-12.3-18.3-30.3-18.3-53.8 0-23.4 6.1-41.6 18.3-53.8 11.8-11.8 28.8-17.8 50.4-17.8zM397 81.6h-79.7c3 17.3 5.3 32.1 5.6 33.4.4 2.2 2.9 12.5 7.3 12.5h50c3.2 0 5.3-4.7 6.4-8.7 2.9-10.2 7.1-25.2 10.4-37.2zM261.4 30.4c-8.1-.1-14.5-7-14.4-15.4.1-8.4 5.4-14.7 14.8-15H275c14.9 0 27.6 10.4 31.7 26 1.3 5.1 3.2 14.4 5.2 25.1h104.4c4.6 0 8.9 2.2 11.7 6 2.8 3.8 3.7 8.7 2.4 13.4 0 0-10.2 37.3-15.7 56.7-5.3 19.1-18.3 30.6-34.4 30.6h-50c-21.2 0-33.6-19.8-36.2-38.2-1.7-10.5-5.1-31.2-8.5-50.1-.1-.3-.1-.6-.2-1-2.7-15-5.3-28.6-6.9-34.6-.9-3.6-3.8-3.6-3.6-3.6-7.1.2-13.5.1-13.5.1zm70.8 140.9c.4 0 .7.1 1.1.1 2.7.1 13.5 1.2 13.5 14.6 0 13.5-10.7 14.6-13.4 14.6H332c-2.8-.1-13.4-1.1-13.4-14.7 0-13.5 10.5-14.5 13.3-14.6h.3zm44.9 0c.4 0 .7.1 1.1.1 2.7.1 13.5 1.2 13.5 14.6 0 13.5-10.7 14.6-13.4 14.6H377.1c-2.9-.1-13.4-1.1-13.4-14.7 0-13.5 10.5-14.5 13.3-14.6h.1zm209.4 499.3h87V376.1h-87v294.5zm-29.1 0v-32.8-385.4c-.5-.2-5.1-3.9-10.5-3.9h-383c-5.4 0-10.1 3.6-10.8 5.1l.2 418.5 79.7-.3v-182c0-8.4 6.5-15.2 14.6-15.2H464c8.1 0 14.6 6.8 14.6 15.2V671l78.8-.4zm-108.1.5v-166h-187v166.6l187-.6zm-420.1-.5h87V376.1h-87v294.5zm659-324.9c8.1 0 14.6 6.8 14.6 15.2v324.9c0 8.4-6.6 17-14.7 17H14.6c-8.1 0-14.6-8.6-14.6-17V360.9c0-8.5 6.5-15.2 14.6-15.2h109.6v-93.3c0-18.3 18.6-34.3 39.8-34.3h382.9c21.2 0 39.8 16 39.8 34.3v93.2h101.5z" clip-rule="evenodd" style="fill: #019df4;"/></svg>
