<?xml version="1.0" encoding="UTF-8"?>
<svg xmlns="http://www.w3.org/2000/svg" viewBox="0 0 702.8 702.8"><path fill="#019df4" fill-rule="evenodd" d="M336.9 336.2c-3.1 3.1-4.8 10.7-4.8 20.8 0 10.1 1.7 17.6 4.8 20.8 3 3 10.1 4.8 19.5 4.8s16.5-1.8 19.6-4.9c3.1-3.1 4.8-10.6 4.8-20.7s-1.8-17.6-4.9-20.7c-3.1-3.2-10.2-4.9-19.5-4.9s-16.5 1.7-19.5 4.8zm19.5 91.6c-21.2 0-37.9-5.8-49.3-17.5-11.9-12-17.9-29.9-17.9-53.2 0-23.2 6-41.2 17.9-53.2 11.4-11.7 28.1-17.6 49.3-17.6 21.2 0 37.8 5.9 49.3 17.6 12 12.1 18 30 18 53.2 0 23.3-6.1 41.2-18 53.2-11.5 11.6-28.1 17.5-49.3 17.5zm39.7-347.1H318c2.9 17.2 5.3 31.8 5.5 33.1.3 2.2 2.8 12.4 7.2 12.4h49c3.2 0 5.1-4.7 6.3-8.7 2.7-10 6.8-24.9 10.1-36.8zM263.2 30.1c-7.9-.1-14.2-6.9-14.1-15.3.1-8.2 6.5-14.8 14.3-14.8h13.2c14.6 0 27 10.3 31 25.7 1.3 5.1 3.1 14.2 5.1 24.8h102.4c4.5 0 8.7 2.2 11.4 6 2.7 3.8 3.6 8.6 2.3 13.2 0 0-10 36.9-15.5 56.2-5.2 18.9-17.9 30.3-33.7 30.3h-49c-20.8 0-32.9-19.7-35.4-37.8-1.7-10.4-5-30.9-8.3-49.6-.1-.3-.1-.6-.2-1-2.6-14.9-5.2-28.3-6.7-34.2-.9-3.3-3-3.5-3.5-3.5-7.1.1-13.3 0-13.3 0zm69.4 139.3h1c2.7.1 13.2 1.2 13.2 14.5 0 13.4-10.5 14.5-13.1 14.5H332.5c-2.8-.1-13.1-1.1-13.1-14.6 0-13.4 10.3-14.4 13-14.5h.2zm44 0h1c2.7.1 13.2 1.2 13.2 14.5 0 13.4-10.5 14.5-13.1 14.5h-1.3c-2.8-.1-13.1-1.1-13.1-14.6 0-13.4 10.3-14.4 13.1-14.5h.2zm212.3 486.5h71V379.6h-71v276.3zM271.3 657l169-.6V507.2h-169V657zM164.6 254.2v403.2l63.7-.2V484.6c0-12.5 9.6-22.6 21.5-22.6h211.9c11.8 0 21.5 10.1 21.5 22.6v171.6l62.9-.2v-25-376.8c-.9-.4-2.1-.8-3.2-.8H167.8c-1.2 0-2.3.4-3.2.8zM42.9 655.9h71V379.6h-71v276.3zm638.4-321.5c11.9 0 21.5 10.1 21.5 22.6v321.5c0 12.4-9.8 24.3-21.6 24.3H21.6C9.8 702.8 0 690.9 0 678.5V357c0-12.5 9.6-22.6 21.5-22.6h100.2v-84.7c0-22.1 21.6-41.4 46.1-41.4h375.1c24.6 0 46.1 19.4 46.1 41.5v84.7h92.3z" clip-rule="evenodd" style="fill: #019df4;"/></svg>
