<?xml version="1.0" encoding="UTF-8"?>
<svg xmlns="http://www.w3.org/2000/svg" viewBox="0 0 702.8 702.8"><path fill="#019df4" fill-rule="evenodd" d="M263.3 30.1c-7.9-.1-14.2-6.9-14.1-15.3.1-8.2 6.4-14.8 14.3-14.8h13.2c14.6 0 27 10.3 31 25.7 1.3 5 3.1 14.2 5.1 24.9h102.3c4.5 0 8.7 2.2 11.4 6 2.7 3.8 3.5 8.6 2.3 13.2 0 0-10 37-15.4 56.2-5.2 18.9-17.9 30.2-33.8 30.2h-49c-20.8 0-32.9-19.6-35.5-37.8-1.6-10.4-5.1-31-8.3-49.6-.1-.3-.1-.6-.2-1-2.6-14.9-5.2-28.4-6.7-34.3-.9-3.3-3-3.5-3.5-3.5-7 .2-13.1.1-13.1.1zm69.2 139.3h1c2.7.1 13.2 1.2 13.2 14.5 0 13.4-10.5 14.5-13.1 14.5h-1.3c-2.8-.1-13.1-1.1-13.1-14.6 0-13.4 10.3-14.4 13-14.5h.3zm44 0h1c2.7.1 13.2 1.2 13.2 14.5 0 13.4-10.5 14.5-13.1 14.5H376.4c-2.8-.1-13.1-1.1-13.1-14.6 0-13.4 10.3-14.4 13-14.5h.2zm212.4 486.5h70.9V379.6h-70.9v276.3zm-148.7.5V507.3H271.3v149.8l168.9-.7zm-112.6-331c-6.1 6.2-9.2 16.9-9.2 31.7s3.1 25.3 9.2 31.5c5.9 6.1 15.8 9.1 29.4 9.1s23.5-3 29.5-9.1c6.1-6.2 9.2-16.7 9.2-31.5s-3.1-25.4-9.2-31.6c-6-6.1-15.9-9.2-29.5-9.2s-23.5 3.1-29.4 9.1zM42.9 655.9h70.9V379.6H42.9v276.3zm638.4-321.5c11.8 0 21.5 10.1 21.5 22.6v321.5c0 12.5-9.7 24.2-21.6 24.2H468.8l-7.2.1H249.7c-.9 0-1.5-.4-2.4-.5l-124.7.5h-.1c-2.9 0-13.2-.1-13.2-.1H21.4C9.6 702.7-.1 691-.1 678.5V357c0-12.5 9.6-22.6 21.5-22.6h100.2v-84.7c0-22.1 21.6-41.4 46.1-41.4h375c24.6 0 46.1 19.4 46.1 41.5v84.7h92.5z" clip-rule="evenodd" style="fill: #019df4;"/></svg>
