<?xml version="1.0" encoding="UTF-8"?>
<svg xmlns="http://www.w3.org/2000/svg" viewBox="0 0 702.8 702.8"><path fill="#019df4" fill-rule="evenodd" d="M495.1 673.5c34.2 0 91.5-13.1 91.5-100.8v-5.4H116.7v5.5c0 1.2-.1 2.4-.2 3.6 0 .2-4.2 41.6 19.7 69.2 16 18.5 42.2 27.8 77.9 27.8l275.4-.1c.7 0 1.5 0 2.2.1.2.1 1.4.1 3.4.1zM154.9 43.8c-25.7 16-38.2 44-38.2 85.5V538h469.9c0-150-.2-409.1-.2-409.1 0-.9 0-1.8.1-2.6 0-.2 2.9-42.4-21.9-70.1-15.9-17.8-40.9-26.8-74.5-26.8l-276.7.1c-.7 0-1.3 0-1.9-.1H209c-7.2-.1-32.3.9-54.1 14.4zm459.8 85s.2 303.7.2 443.9c0 122.3-95.5 130.1-119.9 130.1-3.6 0-5.6-.2-5.6-.2s-134.1.1-275.4.1c-141.3 0-125.7-129.9-125.7-129.9V554c-.1-.5-.3-.9-.3-1.4 0-.5.2-.9.3-1.4V129.3C88.3 6.9 186.7 0 208.9 0c2.8 0 4.4.1 4.4.1S354.2 0 490.1 0c135.8.1 124.6 128.8 124.6 128.8zM351.4 596.4c16.3 0 26.1 10.1 26.1 27.1 0 8.3-2.3 14.9-6.8 19.7-4.6 4.9-11.3 7.4-19.3 7.4s-14.7-2.5-19.3-7.4c-4.5-4.8-6.8-11.4-6.8-19.7 0-17 9.7-27.1 26.1-27.1z" clip-rule="evenodd" style="fill: #019df4;"/></svg>
