<?xml version="1.0" encoding="UTF-8"?>
<svg xmlns="http://www.w3.org/2000/svg" viewBox="0 0 702.8 702.8"><path fill="#019df4" fill-rule="evenodd" d="M162.3 56.4c-7.8 4.8-31.4 19.5-31.4 72.9v398.3h441.6c0-151.3-.2-398.7-.2-398.7 0-1.3.1-2.6.2-4 0 0 2.2-36.2-18.3-59-13.1-14.5-34.6-21.9-64-21.9l-276.7.1c-1 0-1.9-.1-2.9-.1h-1.5c-6.4-.1-28.3.8-46.8 12.4zm452.4 72.4s.2 303.7.2 443.9c0 122.3-95.5 130.1-119.9 130.1-3.6 0-5.6-.1-5.6-.1s-134.1.1-275.4.1c-141.3 0-125.7-129.9-125.7-129.9V129.5C88.3 7.1 186.7.2 208.9.2c2.8 0 4.4.1 4.4.1S354.2.2 490 .2C625.9.1 614.7 128.8 614.7 128.8zM351.4 585.7c-18.3 0-29.3 11-29.3 29.3 0 8.9 2.5 16.1 7.6 21.3 5.2 5.2 12.7 8 21.7 8s16.5-2.8 21.7-8c5.1-5.2 7.6-12.4 7.6-21.3 0-18.3-11-29.3-29.3-29.3z" clip-rule="evenodd" style="fill: #019df4;"/></svg>
