<?xml version="1.0" encoding="UTF-8"?>
<svg xmlns="http://www.w3.org/2000/svg" viewBox="0 0 702.8 702.8"><path fill="#019df4" fill-rule="evenodd" d="M495.1 658.9c35.3 0 77.4-15 77.4-86.2v-1.2H130.9v1.2c0 1.8-.1 3.6-.3 5.4 0 0-3.3 35.3 16.3 57.8 13.2 15.1 35.8 22.8 67.2 22.8l275.4-.1c1.1 0 2.2 0 3.4.1l2.2.2zM162.3 56.4c-7.8 4.8-31.4 19.5-31.4 72.9v398.3h441.6c0-151.2-.2-398.7-.2-398.7 0-1.3.1-2.6.2-4 0 0 2.2-36.2-18.3-59C541 51.4 519.4 44 490.1 44H213.4c-1 0-1.9-.1-2.9-.1H209c-6.3 0-28.2.9-46.7 12.5zm452.4 72.4s.2 303.7.2 443.8c0 122.3-95.5 130.1-119.9 130.1-3.6 0-5.6-.1-5.6-.1s-134.1.1-275.4.1-125.7-130-125.7-130V129.3C88.4 6.9 186.7 0 208.9 0c2.8 0 4.4.1 4.4.1L490 0c136 .1 124.7 128.8 124.7 128.8zM351.4 589.2c16.3 0 26.1 10.1 26.1 27.1 0 8.3-2.3 14.9-6.8 19.7-4.6 4.8-11.2 7.4-19.3 7.4-8.1 0-14.7-2.5-19.3-7.4-4.5-4.8-6.8-11.4-6.8-19.7 0-17 9.8-27.1 26.1-27.1z" clip-rule="evenodd" style="fill: #019df4;"/></svg>
