<?xml version="1.0" encoding="UTF-8"?>
<svg xmlns="http://www.w3.org/2000/svg" viewBox="0 0 702.8 702.8"><path fill="#019df4" fill-rule="evenodd" d="M491.7 203.7c6.9-8.9 5.4-21.8-3.6-28.8s-21.9-5.4-28.8 3.6L211.4 497.2c-7 8.9-5.4 21.9 3.6 28.8 3.7 2.9 8.2 4.3 12.5 4.3 6.1 0 12.2-2.7 16.2-7.9l248-318.7zm-57.4 308c37.3 0 59.1-18.8 59.1-59.1s-21.8-59.1-59.1-59.1-59.1 18.8-59.1 59.1 21.7 59.1 59.1 59.1zM268.5 195.5c-37.4 0-59.1 18.9-59.1 59.1s21.7 59.1 59.1 59.1c37.3 0 59.1-18.9 59.1-59.1 0-40.3-21.8-59.1-59.1-59.1zM351.3 0c222 0 351.5 112.1 351.5 351.5S573.3 702.8 351.3 702.8 0 590.9 0 351.5 129.3 0 351.3 0z" clip-rule="evenodd" style="fill: #019df4;"/></svg>
