<?xml version="1.0" encoding="UTF-8"?>
<svg xmlns="http://www.w3.org/2000/svg" viewBox="0 0 702.8 702.8"><path fill="#019df4" fill-rule="evenodd" d="M351.3 673.5c213.8 0 322.2-108.3 322.2-322 0-213.8-108.4-322.2-322.2-322.2-213.7 0-322 108.4-322 322.2 0 213.7 108.3 322 322 322zm0-673.5c222 0 351.5 112.1 351.5 351.5S573.3 702.8 351.3 702.8 0 590.9 0 351.5 129.3 0 351.3 0zm83 483.3c22.6 0 29.9-7.3 29.9-29.8 0-22.6-7.3-29.9-29.9-29.9-22.6 0-29.8 7.3-29.8 29.9 0 22.6 7.2 29.8 29.8 29.8zm0-88.9c37.3 0 59.2 18.9 59.2 59.2 0 40.2-21.8 59.1-59.2 59.1-37.3 0-59.1-18.9-59.1-59.1s21.7-59.2 59.1-59.2zM268.5 225.7c-22.5 0-29.8 7.3-29.8 29.9 0 22.5 7.3 29.8 29.8 29.8 22.6 0 29.9-7.2 29.9-29.8-.1-22.7-7.4-29.9-29.9-29.9zm0 88.9c-37.3 0-59.1-18.8-59.1-59.1s21.8-59.2 59.1-59.2 59.2 18.9 59.2 59.2-21.9 59.1-59.2 59.1zm216-134.1c6.4 4.9 7.5 14.1 2.6 20.5L239.2 519.8c-5 6.4-14.2 7.5-20.5 2.6-6.4-5-7.5-14.2-2.6-20.5L463.9 183c4.9-6.4 14-7.6 20.4-2.7l.2.2z" clip-rule="evenodd" style="fill: #019df4;"/></svg>
