<?xml version="1.0" encoding="UTF-8"?>
<svg xmlns="http://www.w3.org/2000/svg" viewBox="0 0 702.8 702.8"><path fill="#019df4" fill-rule="evenodd" d="M434.3 470.7c16.3 0 18.2-1.9 18.2-18.1 0-16.1-2-18.1-18.2-18.1-16.3 0-18.1 1.8-18.1 18.1 0 16.2 1.8 18.1 18.1 18.1zm0-77.2c37.3 0 59.2 18.9 59.2 59.2 0 40.3-21.8 59.1-59.2 59.1-37.3 0-59.1-18.8-59.1-59.1 0-40.4 21.7-59.2 59.1-59.2zm-165.8-157c-16.3 0-18.1 1.8-18.1 18.1 0 16.2 1.8 18.1 18.1 18.1s18.1-1.8 18.1-18.1c0-16.1-2-18.1-18.1-18.1zm0 77.2c-37.4 0-59.1-18.9-59.1-59.1 0-40.3 21.8-59.2 59.1-59.2s59.2 18.9 59.2 59.2c0 40.3-21.9 59.1-59.2 59.1zm190.8-135.2c6.9-8.9 19.7-10.6 28.6-3.7l.1.1c8.9 6.9 10.6 19.8 3.6 28.7L243.8 522.4c-6.9 8.9-19.8 10.6-28.8 3.6-8.9-6.9-10.6-19.8-3.6-28.8l247.9-318.7zm-108 480.4c206.9 0 307.6-100.6 307.6-307.4 0-207-100.6-307.6-307.6-307.6-206.8 0-307.4 100.6-307.4 307.6 0 206.8 100.6 307.4 307.4 307.4zm0-658.9c222 0 351.5 112.1 351.5 351.5S573.3 702.8 351.3 702.8 0 590.9 0 351.5 129.3 0 351.3 0z" clip-rule="evenodd" style="fill: #019df4;"/></svg>
