<?xml version="1.0" encoding="UTF-8"?>
<svg xmlns="http://www.w3.org/2000/svg" viewBox="0 0 702.8 702.8"><path fill="#019df4" fill-rule="evenodd" d="M649.2 556.8H53.4c-4.6 0-8.3-3.6-8.3-8.1V402.1h612.4v146.6c-.1 4.5-3.8 8.1-8.3 8.1zM53.4 147h595.8c4.6 0 8.3 3.6 8.3 8.1v68.5H45.1v-68.5c0-4.5 3.7-8.1 8.3-8.1zm649.4 98.6c0-1.1-.5-2-.6-3v-87.5c0-28.8-23.8-52.1-53-52.1H53.4C24.1 103 .3 126.3.3 155.1v88.8c-.1.6-.4 1.1-.4 1.7v134.5c0 .6.3 1.1.4 1.7v166.9c0 28.7 23.8 52.1 53.1 52.1h595.8c29.2 0 53-23.4 53-52.1V383c.1-1 .6-1.9.6-3V245.6z" clip-rule="evenodd" style="fill: #019df4;"/></svg>
