<?xml version="1.0" encoding="UTF-8"?>
<svg xmlns="http://www.w3.org/2000/svg" viewBox="0 0 702.8 702.8"><path fill="#019df4" fill-rule="evenodd" d="M702.8 245.6v134.5c0 1.1-.5 1.9-.6 3v165.7c0 28.7-23.8 52.1-53 52.1H53.4C24.1 600.9.3 577.5.3 548.8v-167c-.1-.6-.4-1.1-.4-1.7V245.6c0-.6.3-1.1.4-1.7v-88.8c0-28.8 23.8-52.1 53.1-52.1h595.8c29.2 0 53 23.3 53 52.1v87.5c.1 1 .6 1.9.6 3zm-53.6 311.2c4.5 0 8.2-3.6 8.3-8.1V402.1H45.1v146.7c0 4.5 3.8 8.2 8.3 8.1 0-.1 595.8-.1 595.8-.1zM53.4 147c-4.5-.1-8.3 3.6-8.3 8.1v68.5h612.3v-68.5c0-4.5-3.7-8.1-8.3-8.1H53.4zm-8.3 211.1h612.3v-90.5H45.1v90.5z" clip-rule="evenodd" style="fill: #019df4;"/></svg>
