<?xml version="1.0" encoding="UTF-8"?>
<svg xmlns="http://www.w3.org/2000/svg" viewBox="0 0 702.8 702.8"><path fill="#019df4" d="M702.7 241.9v138.7c.1 1.1.1 2.1 0 3.2v172c.1 11.9-4.7 23.4-13.2 31.9-8.6 8.4-20.1 13.1-32.2 13.1H44.8C20.2 600.8.3 581 0 556.4V147.3c.3-24.7 20.4-44.5 45.1-44.4h612.2c11.9-.1 23.4 4.6 31.9 12.9s13.4 19.6 13.4 31.5v91.4c.2 1.1.2 2.2.1 3.2zM29.3 256.7v109.7h644.2V256.7H29.3zm15.8-124.4c-4.2-.1-8.2 1.5-11.2 4.4-3 2.9-4.7 6.8-4.7 11v80.1h643.7v-80.1c0-8.5-7-15.4-15.5-15.4H45.1zm612.3 439.2c4.2.2 8.3-1.4 11.4-4.3 3-2.9 4.7-6.9 4.7-11.1V395.4H29.3v160.7c0 4.1 1.7 8.1 4.7 11 3 2.9 7 4.5 11.2 4.4h612.2z" style="fill: #019df4;"/></svg>
