<?xml version="1.0" encoding="UTF-8"?>
<svg xmlns="http://www.w3.org/2000/svg" viewBox="0 0 702.8 702.8"><path fill="#019df4" fill-rule="evenodd" d="M316.5 405.8c1.9-3.3 3.2-6.6 4.3-9.8-28.2 18.6-78.1 43-150.4 40.4 15.6 11.8 42.5 21.2 85.9 9.1 30-8.4 50.3-21.8 60.2-39.7zm23.6-56.2c5.2 1.3 9.4 5.3 10.9 10.4.4 1.2 8.5 30.2-8.3 60.4-14 25.2-40.4 43.4-78.4 54-17.2 4.8-32.5 6.9-46.1 6.9-71.6 0-94.7-56.4-95-57.1-2-5-1.1-10.6 2.1-14.8 3.2-4.2 8.5-6.5 13.8-5.7 123 16.2 186-49.3 186.6-49.9 3.7-3.8 9.2-5.4 14.4-4.2zm-224.4-21.2c4.7 0 9.8-.3 14.8-.9 16.4-1.9 31.8-7.5 31.8-7.5s10.9-5.8 1.2-13.9c0 0-10.2-11.8-27.3-11.8-9.9 0-22 3.9-35.8 16.4-14.6 13.2-2.1 17.7 15.3 17.7zm57 19.9c-1.9.7-19.4 7-38.8 9.2-6.3.7-12.4 1.1-18.1 1.1-26.4 0-43-8.6-49.5-25.6-2.7-7.1-6.8-25.8 14.2-44.8 17.7-15.9 36.5-24 55.9-24 21.4 0 38.9 10.6 48.3 20.4 9.4 8.8 14.1 20.4 12.8 32.1-1.6 14.8-12 25.2-21.1 30-1.3.6-2.5 1.1-3.7 1.6zm71.1-73.2c-7.1 12.5-2.4 17 6.9 17 7.6 0 18.4-3 28.5-7 15.6-6.2 28.9-16.3 28.9-16.3s8.9-8.9-3.5-15.1c0 0-9.3-6.5-21.9-6.5-11.7 0-26.4 5.8-38.9 27.9zm6.9 47.1c-22.2 0-32.2-13-35.4-18.6-5.1-8.8-8.8-23.5 2.5-43.4 21.2-37.5 49.8-43.1 65-43.1 17.8 0 31.4 7.2 36.9 10.5 15.7 8.5 19.9 21.3 21 28.3 3 18.2-7.9 30.8-11.4 34.2-1 1-2.1 1.9-3.2 2.8-1.7 1.3-17.1 12.7-35.8 20.2-10.5 4.1-25.8 9.1-39.6 9.1zM395.4 469c57.4 3.4 96.4 25.7 119.1 44.1-3.6-15.2-15.4-33.3-48.2-45.9-33.6-13-56.4-7.3-70.9 1.8zm228.8 7.2c31.7-72.8 42.8-136.3 46.6-170.7-48.3 20.7-110.8 14.7-145.7 1.2-34.3-13.2-84.7-54-106.8-97.9-7.9 11.7-17.9 27.2-28.3 44.8-.3.5-.8.8-1.2 1.3 3.7 12 7.1 24.7 10.3 37.9 3.4-.9 6.7-1.9 11-2.2 3.1-.2 6-.4 8.9-.4 54.5 0 74.2 37.2 77.4 58.9 3.3 15.5-2.5 26.3-6.4 31.4-6.9 9.1-18 14.3-30.3 14.3-4.1 0-7-.5-7-.5-1-.2-2.6-.6-3.5-.8-2-.6-19.8-6.1-36.9-15.8-.2-.1-.2-.3-.4-.4.6 21.1-1.5 39.3-6 55.2 19.3-4.8 42.9-4.2 71.1 6.6 30.8 11.8 51.6 29.6 61.8 52.9 13.4 30.7 2.5 59.2 2.1 60.4-2 5.2-6.7 8.7-12.1 9.4-.6.1-1.2.1-1.8.1-4.8 0-9.4-2.3-12.2-6.3-1.8-2.6-47.5-64-152.5-56.2-.8.1-1.5-.4-2.3-.5-4.1 3.1-8.4 5.9-13 8.7 16 24.1 41.6 43.2 79.4 57.7 92.3 35.5 145.4 31.1 197.8-89.1zm-363.7 33.9c100.4-28.1 142.8-65.3 112-200.3-18.9-82.8-49.8-144.1-67.9-175.1-21.9 38.5-61.2 68.4-115.5 87.4-29.3 10.3-94.9 13.9-158.6-14.3C32 249 37.9 333.5 61.3 396.3 101 502.4 162.4 537.4 260.5 510.1zm145-188.3c1.1 5.6 2 11.1 2.8 16.4 5.1 4.5 11.8 9.1 19 13.2 14.6 8.3 30.6 13.2 30.6 13.2s.8.1 2 .1c3.4 0 9.5-1.1 7.2-10.1 0 0-3.4-34.2-47.9-34.2-2.1 0-4.4.1-6.7.3-3.1.1-5.2.6-7 1.1zm289-56.9c5.1 2.6 8.3 7.8 8.3 13.6 0 3.8-1.1 94.9-51.2 209.8C610.9 581.8 565.5 615 509.2 615c-28.2 0-59.1-8.3-93.5-21.6-45.3-17.4-76.3-41.3-95.6-72.2-15.6 6.7-32.7 12.6-51.6 17.9-23.8 6.7-46.1 10-66.8 10-77.5 0-132.9-47-168.5-142.3-34-91-33.3-218.5-33.3-223.9.1-5.4 2.9-10.3 7.5-13 4.6-2.6 10.3-2.6 15 0 63.9 36.9 133.2 31.8 156.7 23.6 39.9-13.9 91.2-41.8 108.9-95.3 1.7-5.3 6.4-9.2 11.9-10.1 5.5-1 11.1 1.4 14.4 6 1.8 2.4 33.9 47.1 62.1 123.9 18.7-29.8 33.6-49.9 34.4-50.9 3.6-4.9 9.7-6.9 15.6-5.6 5.8 1.5 10.3 6.4 11.2 12.3 6.2 40.6 63.8 91.5 98.1 104.7 35.5 13.6 104.9 17 142.9-12.1 4.7-3.5 10.8-4 15.9-1.5zm-95.9 128.6s-7.9-18.4-32.1-18.4c-6.1 0-13.2 1.1-21.5 4-20.5 7.2-.4 16.2 19.9 20.9 14.2 3.2 28.6 3.4 28.6 3.4s10.7-1.1 5.1-9.9zm-63.5-42.8c10.9-3.8 21.4-5.7 31.3-5.7 32.8 0 51.7 20.5 58.6 34.2 6.2 10.9 6.9 23.1 1.8 33.7-5.4 11.4-16.7 19-30.2 20.5-1.1.1-2.1.2-3.2.2h-.3c-1.8 0-18.2-.3-35-4.2-13.7-3.2-50.1-11.5-51.7-41.7-.3-6.3.8-27.3 28.7-37z" clip-rule="evenodd" style="fill: #019df4;"/></svg>
