<?xml version="1.0" encoding="UTF-8"?>
<svg xmlns="http://www.w3.org/2000/svg" viewBox="0 0 702.8 702.8"><path fill="#019df4" fill-rule="evenodd" d="M317.2 404.4c1.8-3.2 3.1-6.4 4.2-9.5-27.6 18-76.2 41.9-147.3 39.3 15.3 11.5 41.6 20.6 84.1 8.8 29.5-8.2 49.3-21.2 59-38.6zm33.8-44.6c.4 1.2 8.3 29.4-8.1 58.8-13.7 24.5-39.5 42.2-76.8 52.6-16.8 4.7-31.8 6.7-45.1 6.7-70.1 0-92.8-54.9-93-55.5-1.9-4.8-1.1-10.3 2.1-14.4s8.3-6.4 13.5-5.5c120.4 15.8 182.1-47.9 182.7-48.6 3.6-3.8 9-5.3 14.1-4.2 5.1 1.2 9.2 5.1 10.6 10.1zm-230.4-30.7c4.6 0 9.6-.3 14.5-.9 16-1.8 31.2-7.3 31.2-7.3s10.7-5.6 1.2-13.5c0 0-10-11.5-26.7-11.5-9.7 0-21.5 3.8-35.1 15.9-14.4 13-2.2 17.3 14.9 17.3zm55.8 19.3c-1.9.7-19 6.8-38 8.9-6.2.7-12.2 1.1-17.7 1.1-25.8 0-42.2-8.4-48.4-24.9-2.7-6.9-6.7-25.1 13.9-43.5 17.4-15.5 35.8-23.4 54.7-23.4 20.9 0 38.1 10.3 47.3 19.8 9.2 8.5 13.8 19.8 12.5 31.3-1.6 14.4-11.7 24.5-20.7 29.2-1.3.6-2.4 1.1-3.6 1.5zm69.6-71.1c-6.9 12.2-2.4 16.6 6.8 16.6 7.5 0 18-2.9 27.9-6.8 15.2-6.1 28.3-15.9 28.3-15.9s8.7-8.7-3.4-14.6c0 0-9.1-6.3-21.4-6.3-11.6-.1-25.9 5.5-38.2 27zm6.8 45.8c-21.8 0-31.5-12.7-34.7-18.1-5-8.6-8.6-22.8 2.4-42.2 20.8-36.5 48.8-42 63.6-42 17.4 0 30.7 7 36.1 10.3 15.3 8.3 19.5 20.7 20.6 27.5 2.9 17.6-7.8 29.9-11.1 33.3-1 1-2.1 1.9-3.1 2.7-1.6 1.2-16.7 12.3-35.1 19.6-10.2 4.1-25.2 8.9-38.7 8.9zm358.9 146.8c27.3-62.3 38.8-117.5 43.6-152-47.3 15.6-103.8 9.4-136.4-3.1-31.9-12.2-77.6-48-102.4-88.1-6.1 9.3-13.1 20.3-20.3 32.3 3.3 10.8 6.3 22.2 9.2 33.9 1.2-.1 2.3-.4 3.6-.5 3-.2 5.9-.4 8.7-.4 53.4 0 72.6 36.2 75.8 57.3 3.3 15.1-2.4 25.5-6.3 30.5-6.8 8.9-17.6 13.9-29.6 13.9-4.1 0-6.9-.5-6.9-.5-1-.2-2.6-.6-3.5-.8-1.6-.5-14.9-4.7-29.1-11.8.2 18.3-1.9 34.2-5.6 48.6 17.4-2.8 37.9-1.6 61.9 7.6 30.2 11.5 50.5 28.9 60.5 51.4 13.2 29.9 2.5 57.6 2 58.7-2 5-6.5 8.5-11.9 9.1-.6.1-1.2.1-1.8.1-4.7 0-9.2-2.3-11.9-6.2-1.7-2.4-44.2-58.1-140.4-54.6-4.3 3.5-8.7 6.9-13.5 10 15.1 19.2 37.8 34.9 70.1 47.3 87.6 33.5 135 29.5 184.2-82.7zm-351.3 28.9c95.7-26.6 133.5-59.8 104.5-186.2-16.4-71.4-41.9-125.8-59.6-157.7-23.1 33.8-60.6 60.3-110.4 77.6-28.2 9.8-89 13.6-149.9-9.7 2.1 42.4 8.7 114.9 29.3 169.7 37.7 100.3 93.4 132.1 186.1 106.3zm137.8-34.9c-.5.7-.9 1.5-1.3 2.2 54.9 3.8 92.3 25 114.2 42.7-3.5-14.8-15-32.4-47.1-44.6-30.3-11.7-51.6-8-65.8-.3zm17.1-119c3.3 2.3 6.7 4.5 10.3 6.5 14.3 8.1 30 12.8 30 12.8s.8.1 2 .1c3.3 0 9.3-1.1 7-9.8 0 0-3.3-33.3-46.9-33.3-2 0-4 .1-6.1.2 1.5 8.2 2.7 16.1 3.7 23.5zm275.3-84.1c7.5 3.7 12.2 11.4 12.2 19.8 0 3.8-1.2 93.8-50.7 206.9-41.3 94.2-88.9 127.4-146.4 127.4-28.7 0-59.8-8.2-93.9-21.2-43.4-16.6-73.7-39.2-93.7-68.1-14.1 5.8-29.4 10.9-45.8 15.5-24.3 6.7-47 10.1-68.1 10.1-78.7 0-135-47.4-171.1-143.3C-.6 318.1 0 192.7.1 187.4c.1-7.8 4.3-15 11.1-18.9 6.8-3.9 15.1-3.9 21.9 0 60.4 34.6 125.4 30.1 147.4 22.4 37.5-13 85.7-38.9 102-88.1 2.6-7.8 9.4-13.5 17.5-14.8 8.2-1.3 16.3 2.1 21.2 8.8 1.6 2.2 29.9 41.4 56.5 108.7 14.6-22.4 25.5-37 26.2-37.8 5.3-7.1 14.3-10.2 22.9-8.1 8.6 2.2 15.1 9.3 16.4 18 5.5 35.9 59.3 83.8 91.4 96.1 32.3 12.4 98.2 15.6 132.8-10.8 6.7-5 15.7-5.8 23.2-2.1zm-97.2 131.6s-7.7-17.9-31.5-17.9c-6 0-12.9 1.1-21 3.9-20.1 7-.4 15.8 19.5 20.4 13.9 3.1 28 3.3 28 3.3s10.5-1.1 5-9.7zm-62.1-41.6c10.6-3.7 20.9-5.5 30.6-5.5 32.1 0 50.6 19.9 57.4 33.3 6 10.6 6.7 22.4 1.8 32.8-5.3 11.1-16.4 18.5-29.6 20-1 .1-2.1.1-3.1.1h-.3c-1.8 0-17.8-.3-34.3-4-13.4-3.1-49-11.2-50.6-40.6-.3-6.2.7-26.7 28.1-36.1z" clip-rule="evenodd" style="fill: #019df4;"/></svg>
