<?xml version="1.0" encoding="UTF-8"?>
<svg xmlns="http://www.w3.org/2000/svg" viewBox="0 0 703.1 702.8"><g fill="#019df4"><path d="M644.8 642.1c52.9-55.4 49.1-105.8 0-154.8-9.5-9.7-20.2-18.1-31.8-25.1-40.8-25.4-83.6-19.8-126.4 23-5.6 5.6-10.8 11.5-15.6 17.8-30 27.7-101.5-35.3-166.7-100.4l-1.5-1.5-1.5-1.5C236.1 334.5 173.2 263 200.9 232.9c6.3-4.8 12.2-10 17.8-15.6 42.8-42.8 48.5-85.6 23-126.4-6.9-11.7-15.4-22.4-25.1-31.8-49-49-99.4-52.9-154.8 0-11.2 10.7-22.8 27.7-23.2 28-47.5 68.8.4 226.2 174.7 400.5l1.5 1.5 1.5 1.5C390.6 665 548 712.8 616.8 665.3c.4-.3 17.4-12 28-23.2z" style="fill: #019df4;"/><path d="M553.1 702.6c-30.9 0-66.3-7.6-104.4-22.8-77.9-31.1-163.2-91.6-246.6-175l-.2-.2-2.7-2.6-.2-.2C115.6 418.4 55.1 333.2 24 255.2-5.7 180.6-6.4 116.9 22 75.7l.6-.9.4-.6c3.7-4.7 14.1-19.2 25-29.6C79 15 110.6.3 142 .9c30.2.6 60.1 15.4 88.8 44.1 10.8 10.6 20.3 22.6 28 35.7 15.4 24.8 21 50.4 16.6 76.1s-18.7 50.8-42.7 74.8c-5.6 5.6-11.5 10.9-17.7 15.8-2.3 4.2-.9 17.4 17.7 44.6 21.5 31.4 57.5 68.5 82.7 93.7l3 3c25.2 25.2 62.3 61.1 93.7 82.7 27.1 18.6 40.4 20 44.6 17.7 4.9-6.2 10.1-12.1 15.8-17.7 24-24 49.1-38.3 74.8-42.7s51.3 1.2 76.1 16.6c13.1 7.8 25 17.2 35.7 28.1 28.7 28.7 43.5 58.6 44.1 88.8.6 31.3-14.1 63-43.8 94-10.4 10.9-24.9 21.3-29.7 24.8l-.6.4c-.3.2-.6.4-.9.7-20.1 13.6-45.6 20.5-75.1 20.5zm77.8-23.1zM230.5 476.6c79.5 79.5 160.1 136.9 233 166 60.6 24.2 112.1 26.5 141.6 6.5l1.2-.8c10.8-7.8 18.9-14.5 24.1-19.9 43.6-45.6 43.7-83.6.3-126.9-8.3-8.5-17.6-15.8-27.7-21.9l-.6-.3c-16.6-10.3-32.5-14-48.5-11.3-17.3 2.9-35.2 13.5-53.2 31.5-5.1 5-9.8 10.3-14.1 16-.7.8-1.4 1.6-2.1 2.3-8.5 7.9-23.8 16-48 9.8-13.7-3.5-29.1-11.1-47-23.4-34.1-23.4-73-61.1-99.3-87.4l-3-3c-26.3-26.3-64-65.2-87.4-99.4-12.3-17.9-20-33.3-23.4-47-6.1-24.2 2-39.5 9.8-48 .7-.8 1.5-1.5 2.3-2.1 5.7-4.3 11-9 16-14.1 18-18 28.6-35.9 31.5-53.2 2.7-16.1-1-31.9-11.3-48.5l-.3-.6c-6.1-10.1-13.4-19.5-21.9-27.7-43.3-43.3-81.3-43.2-126.9.4-5.4 5.2-12.2 13.3-19.9 24.1l-.9 1.2c-20 29.4-17.6 81 6.5 141.6 29.1 72.9 86.5 153.5 166 233l1.4 1.4.4.4 1.4 1.3zm414.3 165.5zM24.4 73zm0 0z" style="fill: #019df4;"/></g></svg>
