<?xml version="1.0" encoding="UTF-8"?>
<svg xmlns="http://www.w3.org/2000/svg" viewBox="0 0 704.3 703"><path fill="#019df4" d="M558.6 703c-30.5 0-65.6-7.6-103.8-22.8C375.7 648.6 289 587 204 502.1l-.1-.1-2.9-2.9v-.1C116 414 54.4 327.3 22.9 248.2-6.5 174.7-7.6 112.5 19.6 73.1c.1-.2.3-.4.4-.5l.6-.8c9.1-12.7 17.3-22.5 24.2-29.1 58.9-56.3 117.3-56.2 173.7.1 10.6 10.4 19.8 22 27.4 34.8 37.2 59.8 6.8 110.6-25.3 142.6-5.8 5.9-12 11.3-18.5 16.4-10.7 12.7 3.4 39.3 17.2 59.4 22.7 33.1 60.3 71.9 86.5 98.1l3.1 3.1c26.3 26.3 65 63.8 98.1 86.5 20.2 13.8 46.7 27.9 59.4 17.2 5-6.5 10.5-12.7 16.4-18.5 32.1-32 82.8-62.4 142.6-25.3 12.7 7.6 24.4 16.8 34.8 27.4 56.3 56.4 56.4 114.8.1 173.7-6.7 7-16.5 15.1-29.1 24.3l-.8.6-.5.4c-18.9 13-43.1 19.5-71.3 19.5zM218.2 488c83.1 83 167.4 143.1 244 173.6 34.2 13.7 65.5 20.8 93 21.4 25.8.5 47-4.8 63.1-15.9l1.3-.9c11.7-8.4 20.5-15.8 26.3-21.8 25.1-26.3 37.1-50.9 36.7-75.2-.4-23.3-12.4-46.4-36.5-70.5-9.2-9.4-19.5-17.5-30.8-24.3l-.3-.2c-19.1-11.9-38.5-16.3-57.5-13.1-20.1 3.4-40.4 15.3-60.6 35.5-5.5 5.5-10.6 11.3-15.3 17.4-.3.4-.7.8-1.1 1.2-37.5 34.5-111.4-29.5-185.8-103.9l-3.1-3.1c-74.4-74.4-138.4-148.3-103.9-185.8.4-.4.7-.8 1.2-1.1 6.2-4.7 12-9.8 17.4-15.3 20.1-20.1 32.1-40.5 35.5-60.6 3.2-19-1.2-38.3-13.1-57.5l-.2-.3c-6.7-11.3-14.9-21.6-24.3-30.8-24.1-24.1-47.2-36.1-70.5-36.5-24.1-.4-48.7 11.7-75 36.8-6.1 5.8-13.4 14.7-21.8 26.3-.4.5-.7.9-.9 1.3-11 16.1-16.4 37.3-15.9 63.1.5 27.5 7.7 58.8 21.4 93 30.6 76.6 90.6 161 173.7 244l1.5 1.5.2.2 1.3 1.5zm413 194.4zm0 0zm0 0zm0 0zm21.9-31zM20.7 71.8zm0 0zm0 0zm0 0z" style="fill: #019df4;"/></svg>
