<?xml version="1.0" encoding="UTF-8"?>
<svg xmlns="http://www.w3.org/2000/svg" viewBox="0 0 702.8 702.8"><path fill="#019df4" fill-rule="evenodd" d="M351.3 658.9c207 0 307.6-100.6 307.6-307.4 0-207-100.6-307.6-307.6-307.6-206.8 0-307.4 100.6-307.4 307.6 0 206.8 100.6 307.4 307.4 307.4zm0-658.9c222 0 351.5 112.1 351.5 351.5S573.3 702.8 351.3 702.8 0 590.9 0 351.5 129.3 0 351.3 0zm22.1 352l101.7 101.8c8.9 8.3 9.4 22.2 1.1 31-8.3 8.9-22.2 9.4-31 1.1l-1.1-1.1-108.2-108.2c-4.1-4.1-6.4-9.7-6.4-15.5V214.7c0-12.1 9.8-22 22-22s22 9.8 22 22l-.1 137.3z" clip-rule="evenodd" style="fill: #019df4;"/></svg>
