<?xml version="1.0" encoding="UTF-8"?>
<svg xmlns="http://www.w3.org/2000/svg" viewBox="0 0 702.8 702.8"><path fill="#019df4" fill-rule="evenodd" d="M351.3 673.5c213.8 0 322.2-108.3 322.2-322 0-213.8-108.4-322.2-322.2-322.2-213.7 0-322 108.4-322 322.2 0 213.7 108.3 322 322 322zm0-673.5c222 0 351.5 112.1 351.5 351.5S573.3 702.8 351.3 702.8 0 590.9 0 351.5 129.3 0 351.3 0zm14.8 355l103.8 103.9c5.6 5.8 5.5 15.1-.4 20.7-5.7 5.5-14.7 5.5-20.3 0L341 371.5c-2.7-2.8-4.3-6.5-4.3-10.4V214.7c0-8.1 6.6-14.6 14.6-14.6s14.6 6.6 14.6 14.6l.2 140.3z" clip-rule="evenodd" style="fill: #019df4;"/></svg>
