<?xml version="1.0" encoding="UTF-8"?>
<svg xmlns="http://www.w3.org/2000/svg" viewBox="0 0 702.8 702.8"><path fill="#019df4" fill-rule="evenodd" d="M595.6 356.7c42.3 0 78-21.6 78-47.1 0-10.2-5.9-18.3-10.8-23.4l-.1-.1c-6.5-6.8-12.5-24.4-29.4-85.6-3.1-11.4-5.8-21.2-7.5-26.5l-45-142.8c-.4-1.1-1.5-1.9-2.7-1.9l-453.3 1.3c-1.2 0-2.3.7-2.7 1.8-6.1 19.4-15.2 48.8-25 80.3-27.8 89.7-47.8 153.9-51.6 162.8-2.4 5.3-5.2 10.3-8.4 15.1-4.9 7.8-7.7 12.4-7.7 18.8 0 25.6 35.7 47.1 78 47.1 28.4 0 54.7-9.7 68.6-25.2l4.4-4.9 8.7-1c5 0 9.7 2.1 13.1 5.9 13.9 15.6 40.2 25.2 68.6 25.2 28.1 0 54.3-9.5 68.3-24.9l4.4-4.8 8.6-.9c4.9 0 9.5 2.1 12.8 5.7 14 15.4 40.2 24.9 68.3 24.9 28.1 0 54.3-9.5 68.3-24.9l4.3-4.7 8.5-1h.1c4.8 0 9.5 2 12.8 5.6 14.1 15.6 40.3 25.1 68.4 25.2zm34 293.8V381.7c-11.2 2.7-22.6 4.1-34.1 4.2-31.7 0-61.1-9.7-81.2-26.2-20.1 16.6-49.6 26.2-81.3 26.2s-61.1-9.6-81.2-26.2c-20 16.6-49.5 26.2-81.3 26.2-31.9 0-61.6-9.8-81.7-26.6-20.1 16.8-49.7 26.6-81.7 26.6-12 0-23.3-1.7-34.1-4.2v268.7c0 12.7 11.2 23.1 24.9 23.1h160.3V495.2c0-20.9 17.6-37.9 39.2-37.9H406c21.7 0 39.3 17 39.3 37.9v178.3h159.5c13.7 0 24.9-10.3 24.8-23zm-213.6 23V495.2c0-4.8-4.5-8.7-10-8.7H297.6c-5.5 0-10 3.9-10 8.7v178.3H416zm286.8-364c0 25.8-17.2 48-43.9 61.8v279.2c0 28.8-24.3 52.3-54.1 52.3H98c-29.9 0-54.2-23.5-54.2-52.3V371.3C17.2 357.6 0 335.3 0 309.5c0-15.2 6.8-25.9 12.2-34.5 2.2-3.5 4.5-7 6.2-11 3.5-8.1 30.7-95.8 50.5-159.9 9.8-31.7 18.9-61 25.1-80.7 4.4-13.2 16.6-22 30.5-22.1L577.9 0c13.6-.2 26.5 8.9 30.7 22.3l45 142.9c1.8 5.6 4.6 15.7 7.8 27.6 5.9 21.3 18 65.3 22.8 73.6 12.2 12.7 18.6 27.5 18.6 43.1z" clip-rule="evenodd" style="fill: #019df4;"/></svg>
