<?xml version="1.0" encoding="UTF-8"?>
<svg xmlns="http://www.w3.org/2000/svg" viewBox="0 0 702.8 702.8"><path fill="#019df4" fill-rule="evenodd" d="M616.8 644.4V390c-8.7 1.5-17.4 2.3-26.2 2.4-30.4 0-58.9-8.7-79.6-23.8-20.8 15.1-49.3 23.8-79.6 23.8-30.4 0-58.9-8.7-79.6-23.8-20.8 15.1-49.3 23.8-79.6 23.8-30.6 0-59.2-8.8-80-24.2-20.8 15.3-49.4 24.2-80 24.2-9.1 0-17.8-1-26.2-2.4v254.3c0 8.5 7.7 15.4 17.2 15.4h149.9V492.2c0-24.4 20.4-44.3 45.6-44.3h106.1c25.2 0 45.6 19.9 45.6 44.3v167.5h149c9.7.1 17.4-6.9 17.4-15.3zm-209.3 15.4V492.2c0-.2-.8-1.3-2.6-1.3H298.8c-1.8 0-2.6 1.1-2.6 1.3v167.5c-.1.1 111.3.1 111.3.1zm-358-364.1c-4.3 6.8-6.4 10.3-6.4 14.6 0 18.4 28.4 39 69.2 39 25.8 0 49.5-8.6 61.9-22.4 0 0 6.7-5 8.8-6.3 3.4-2 9.5-1.9 9.5-1.9 7 .1 13.6 3.1 18.2 8.3 12.2 13.6 35.9 22.2 61.7 22.2 25.6 0 49.2-8.5 61.7-22.1 0 0 5.2-5.2 8.6-6.9 3.1-1.5 9.2-1 9.2-1 6.3 1.2 13.4 2.8 18 7.8 12.6 13.8 36.2 22.3 61.8 22.3 25.5 0 49.4-8.9 61.7-21.9 0 0 6.1-5.1 8.5-6.6 3.2-2 9.4-1.5 9.4-1.5 6.8 0 13.4 2.9 18 7.9 12.4 13.6 36 22.1 61.6 22.1 40.8 0 69.2-20.6 69.2-39.1 0-7.6-4.6-13.9-8.5-17.9l-.1-.1c-7.6-7.9-13.3-24.1-30.6-87-3.1-11-5.6-20.4-7.3-25.7L570.3 43l-437.8 1.3c-6 18.9-14.4 46.2-23.5 75.5-28.2 90.8-46.9 151.1-50.8 160.1-2.5 5.7-5.6 10.8-8.7 15.8zm653.3 14.7c0 26.6-16.9 49.7-43 64.6v269.4c0 32.2-27 58.4-60.2 58.4H103.2C70 702.8 43 676.6 43 644.4V375c-26.1-15-43-38-43-64.7 0-17 7.6-28.9 13.1-37.7 2-3.1 4-6.2 5.6-9.8 3.6-8.6 30-93.7 49.2-155.9 9.6-31 18.5-59.7 24.6-79.1 5.3-16 20-26.6 36.7-26.6L573.3 0h.1c16.9 0 31.7 10.7 36.9 26.8l44.1 140c1.8 5.5 4.5 15.5 7.7 27.2 5.5 19.8 16.6 60.3 21.4 69.9 12.6 13.6 19.3 29.6 19.3 46.5z" clip-rule="evenodd" style="fill: #019df4;"/></svg>
