<?xml version="1.0" encoding="UTF-8"?>
<svg xmlns="http://www.w3.org/2000/svg" viewBox="0 0 702.8 702.8"><path fill="#019df4" fill-rule="evenodd" d="M514.3 395c23.2 13 51.7 20.2 81.2 20.2 23.1 0 44.4-4.7 63.3-12.2v242.3c0 31.7-24.3 57.5-54.1 57.5H445.2V501.3c0-24.3-17.6-44-39.2-44H297.6c-21.7 0-39.2 19.7-39.2 44v201.5H98c-29.9 0-54.1-25.8-54.1-57.5V403c18.9 7.6 40.2 12.2 63.3 12.2 29.8 0 58.5-7.3 81.7-20.5 23.2 13.1 51.9 20.5 81.7 20.5 22.2 0 44.1-4.1 63.6-11.8 6.2-2.5 12.1-5.3 17.6-8.4 23.2 13 51.7 20.2 81.3 20.2 29.6 0 58.1-7.2 81.2-20.2zm170.2-128.3c11.7 11.9 18.3 27 18.3 42.8 0 42.8-47.1 76.4-107.2 76.4-31.7 0-61.1-9.7-81.2-26.2-20 16.5-49.5 26.2-81.3 26.2-31.7 0-61.1-9.7-81.2-26.2-8 6.6-17.7 12.2-28.5 16.5-15.9 6.4-34.2 9.7-52.7 9.7-32 0-61.5-9.7-81.7-26.6-20 16.8-49.7 26.6-81.7 26.6C47.2 385.9.1 352.3.1 309.5c0-15.2 6.8-25.9 12.3-34.5 2.2-3.5 4.5-7 6.2-11 3.5-8.1 30.6-95.8 50.5-159.9 9.8-31.6 18.9-61 25.1-80.7 4.4-13.2 16.6-22 30.4-22.1L577.9 0h.1c14.1 0 26.3 8.9 30.6 22.2l45 142.9c1.8 5.5 4.5 15.5 7.7 27.1 6 21.8 18.5 67.1 23.2 74.5z" clip-rule="evenodd" style="fill: #019df4;"/></svg>
