<?xml version="1.0" encoding="UTF-8"?>
<svg xmlns="http://www.w3.org/2000/svg" viewBox="0 0 702.8 702.8"><path fill="#019df4" fill-rule="evenodd" d="M566.2 673.5c72.6 0 106.6-33 106.6-103.8 0-71.1-33.9-104.1-106.6-104.1-72.9 0-106.9 33-106.9 104.1 0 70.8 33.9 103.8 106.9 103.8zM326.9 380.7c68.5 0 106.3 43.3 131.5 88.1l23.1-20.1L57.9 35.8C18.6 86.1 54 139.6 92.5 177.1L303 382.2c8.3-.9 16.4-1.5 23.9-1.5zm-94 82.2c15.6-25.8 31.9-44.8 50.5-58.2l-16.2-15.5-59.7 58.2c9.6 4.1 18 9.4 25.4 15.5zm-96 208c72.6 0 106.6-33.1 106.6-103.9 0-29-5.7-51.5-17.4-68.1 0-.3-.3-.3-.3-.3-.9-1.8-2.1-3.2-3.3-5-17.4-20.8-45.6-30.7-85.6-30.7C64 462.9 30 496 30 567c0 70.9 34 103.9 106.9 103.9zm493-635.1l-264.8 258 55.5 54.1c.3-.3.6-.9.9-1.2L595.4 177c27.6-26.6 44.7-54.1 50.2-79 4.4-22.4-.7-42.9-15.7-62.2zm-63.7 400.5c86.2 0 136.6 42.4 136.6 133.4 0 90.7-50.4 133.1-136.6 133.1-86.5 0-136.9-42.4-136.9-133.1 0-27.2 5.1-49.4 13.5-68.2-.9-.9-1.8-1.7-2.4-2.6-27.6-55.9-57.1-83.1-97.6-88.1-.3 0-.9.3-1.2.3-13.3 2-24.7 6.4-35.8 13.5-18.9 12.3-35.7 32.2-51.9 62 12.6 20.5 19.5 47.1 19.5 80.4 0 90.7-50.4 133.1-136.6 133.1C50.4 700.2 0 657.7 0 567s50.4-133.4 136.9-133.4c13.8 0 26.4 1.4 38.4 3.8l70.9-69-175-170.6C.3 128.9-8.7 58.3 46.5 4.2c6-5.5 15.3-5.5 21.3 0l275.9 268.9L619.9 4.2c5.9-5.6 15.1-5.6 21 0 55.5 54.2 46.6 124.7-24.3 193.7L442.8 367.3c-.6.6-.9.6-1.5.9l72.6 70.8c.9.9 1.8 2.4 2.4 3.5 16.3-4.2 33.1-6.2 49.9-6.2zm-.1 172.8c30 0 40.6-10.3 40.6-39.5 0-28.9-11-39.6-40.6-39.6-30 0-40.6 10.3-40.6 39.6 0 29.2 10.6 39.5 40.6 39.5zm0-108.4c44.6 0 70.7 22 70.7 68.8 0 46.9-26.1 68.8-70.7 68.8s-70.6-21.9-70.6-68.8c-.1-46.8 26-68.8 70.6-68.8zM136.8 606.5c30 0 40.6-10.4 40.6-39.6 0-28.8-11-39.6-40.6-39.6-30 0-40.6 10.3-40.6 39.6-.1 29.3 10.6 39.6 40.6 39.6zm0-108.4c44.6 0 70.7 21.9 70.7 68.8s-26.1 68.8-70.7 68.8-70.7-21.8-70.7-68.7c0-46.9 26-68.9 70.7-68.9zm186-170.2c9.4 0 14.9 4.7 14.9 14.6 0 10-5.6 14.6-14.9 14.6-9.4 0-14.9-4.6-14.9-14.6 0-9.9 5.5-14.6 14.9-14.6z" clip-rule="evenodd" style="fill: #019df4;"/></svg>
