<?xml version="1.0" encoding="UTF-8"?>
<svg xmlns="http://www.w3.org/2000/svg" viewBox="0 0 702.8 702.8"><path fill="#019df4" fill-rule="evenodd" d="M568.5 600.7c22.8 0 30.1-7 30.1-28.9s-7.3-29-30.1-29c-22.7 0-30 7.1-30 29s7.3 28.9 30 28.9zm0-86.8c37.9 0 60.1 18.5 60.1 57.9s-22.1 57.9-60.1 57.9c-37.9 0-60-18.4-60-57.9s22-57.9 60-57.9zM139 599.3c22.7 0 30-7 30-28.9s-7.3-29-30-29-30 7-30 29c0 21.9 7.3 28.9 30 28.9zm0-86.8c37.9 0 60 18.5 60 57.9s-22.1 57.9-60 57.9-60-18.5-60-57.9c0-39.5 22.1-57.9 60-57.9zm427.2 146.9c65.1 0 91.6-25.8 91.6-88.3 0-62.8-26.4-88.6-91.6-88.6-65.1 0-91.9 25.7-91.9 88.6 0 62.5 26.8 88.3 91.9 88.3zM322.8 363.3c11.2 0 17.7-5.6 17.7-17.5 0-11.5-6.5-17.1-17.7-17.1-11.6 0-18.1 5.6-18.1 17.1-.1 11.9 6.4 17.5 18.1 17.5zM136.9 656.8c65.1 0 91.6-25.5 91.6-88.3s-26.4-88.6-91.6-88.6S45 505.6 45 568.5c0 62.8 26.8 88.3 91.9 88.3zm429.3-217.7c86.5 0 136.6 42 136.6 132 0 89.8-50.1 131.7-136.6 131.7s-136.9-42-136.9-131.7c0-17.3 2.7-32.4 6.3-46-23.1-57.3-56.7-88.9-100.2-94.6-6.3 2-12.9 4.9-18.6 8.4-19.8 12.5-36.9 33.6-54 66.3 0 .3-.3.3-.3.6 7.2 17.7 11.1 38.2 11.1 62.8 0 89.7-50.5 131.7-136.6 131.7C50.5 700.3.1 658.3.1 568.6c0-89.7 50.4-132 136.9-132 10.5 0 20.7.9 30.3 2 .6-.6.6-1.4 1.2-2l67.2-64.6L65.8 208.4c-33.1-32.1-53.4-64.6-60-96.7-8.1-38.5 4.2-75 35.7-105.1 8.7-8.7 23.1-8.7 31.8-.3l272 260L614.6 6.6c9-8.7 23.1-8.7 31.8 0 31.5 30.1 43.8 66.6 35.7 105.1-6.6 32.1-26.7 64.6-60 96.7L454 370.2l75.4 72.1c11.6-1.8 23.6-3.2 36.8-3.2z" clip-rule="evenodd" style="fill: #019df4;"/></svg>
