<?xml version="1.0" encoding="UTF-8"?>
<svg xmlns="http://www.w3.org/2000/svg" viewBox="0 0 702.8 702.8"><path fill="#019df4" fill-rule="evenodd" d="M591.8 514.2c-2.6 4.5-7.3 7.3-12.5 7.3h-15.5c-5 0-9.7-2.7-12.3-7l-92.3-154.4-36.7 45.9v101.1c0 7.9-6.4 14.4-14.4 14.4h-13.7c-7.9 0-14.4-6.4-14.4-14.4V195.5c0-7.9 6.4-14.4 14.4-14.4h13.7c7.9 0 14.4 6.4 14.4 14.4v145.1l122.4-154.1c2.7-3.4 6.9-5.4 11.3-5.4h15.9c5.5 0 10.5 3.2 12.9 8.1 2.4 5 1.7 10.9-1.7 15.2l-96.2 121.5 104.6 173.7c2.6 4.6 2.7 10.1.1 14.6zM351.6 211.1c-1.5 6.6-7.3 11.2-14 11.2h-84.9v284.9c0 7.9-6.4 14.4-14.4 14.4h-13.6c-8 0-14.4-6.4-14.4-14.4V222.3h-86.8c-7.9 0-14.4-6.4-14.4-14.4v-12.3c0-7.9 6.4-14.4 14.4-14.4h216.8c4.3 0 8.5 2 11.2 5.4 2.7 3.4 3.8 7.8 2.8 12.1l-2.7 12.4zM351.3 0C121.5 0 0 121.5 0 351.5c0 229.8 121.5 351.3 351.3 351.3 230 0 351.5-121.5 351.5-351.3C702.8 121.5 581.3 0 351.3 0z" clip-rule="evenodd" style="fill: #019df4;"/></svg>
