<?xml version="1.0" encoding="UTF-8"?>
<svg xmlns="http://www.w3.org/2000/svg" viewBox="0 0 702.8 702.8"><path fill="#019df4" fill-rule="evenodd" d="M351.3 673.5c213.8 0 322.1-108.3 322.1-322 0-213.8-108.4-322.1-322.1-322.1-213.7 0-322 108.3-322 322.1 0 213.6 108.4 322 322 322zm0-673.5c230 0 351.5 121.6 351.5 351.5 0 229.8-121.5 351.3-351.5 351.3C121.5 702.8 0 581.3 0 351.5 0 121.6 121.5 0 351.3 0zm-11.7 176.5c6.1 0 11 5 11 11.1 0 .7-.1 1.4-.2 2l-2.6 13.2c-1 5.2-5.6 8.9-10.8 8.9h-93.3v303.4c0 6.1-4.9 11-11 11h-14.5c-6.1 0-11-4.9-11-11V211.7h-95.5c-6.1 0-11-4.9-11-11v-13.2c0-6.1 4.9-11 11-11h227.9zm260.9 333.1c3.1 5.2 1.4 12-3.8 15.1-1.7 1-3.6 1.5-5.6 1.6h-16.3c-3.9 0-7.5-2.1-9.5-5.4l-100-167.5-43.2 54.1v107.7c0 6.1-4.9 11-11 11h-14.3c-6.1 0-11-4.9-11-11V187.7c0-6.1 4.9-11 11-11h14.3c6.1 0 11 4.9 11 11V352l136-171.2c2.1-2.6 5.3-4.1 8.6-4.1h16.8c6.1.1 11 5.1 10.9 11.2 0 2.4-.8 4.7-2.3 6.7l-103 130 111.4 185z" clip-rule="evenodd" style="fill: #019df4;"/></svg>
