<?xml version="1.0" encoding="UTF-8"?>
<svg xmlns="http://www.w3.org/2000/svg" viewBox="0 0 702.8 702.8"><path fill="#019df4" fill-rule="evenodd" d="M351.3 43.1c-204.5 0-308.2 103.8-308.2 308.4 0 204.5 103.7 308.2 308.2 308.2 204.6 0 308.4-103.7 308.4-308.2 0-204.6-103.8-308.4-308.4-308.4zm0 659.7C121.5 702.8 0 581.3 0 351.5 0 121.5 121.5 0 351.3 0c230 0 351.5 121.5 351.5 351.5 0 229.8-121.5 351.3-351.5 351.3zm-11-521.5c4.3 0 8.5 2 11.2 5.4 2.7 3.4 3.7 7.9 2.8 12.1l-2.7 12.3c-1.5 6.6-7.3 11.2-14 11.2h-84.9v284.9c0 7.9-6.4 14.4-14.4 14.4h-13.6c-8 0-14.4-6.4-14.4-14.4V222.3h-86.8c-7.9 0-14.4-6.4-14.4-14.4v-12.3c0-7.9 6.4-14.4 14.4-14.4h216.8zm251.3 318.4c2.7 4.4 2.8 10 .2 14.5-2.6 4.5-7.3 7.3-12.5 7.3h-15.5c-5.1 0-9.7-2.7-12.3-7l-92.3-154.4-36.8 45.9v101.1c0 7.9-6.4 14.4-14.4 14.4h-13.6c-8 0-14.4-6.4-14.4-14.4V195.6c0-7.9 6.4-14.4 14.4-14.4H408c8 0 14.4 6.4 14.4 14.4v145.1l122.4-154.1c2.7-3.4 6.9-5.4 11.3-5.4H572c5.5 0 10.5 3.1 13 8.1 2.4 5 1.7 10.9-1.7 15.2L487 326l104.6 173.7z" clip-rule="evenodd" style="fill: #019df4;"/></svg>
