<?xml version="1.0" encoding="UTF-8"?>
<svg xmlns="http://www.w3.org/2000/svg" viewBox="0 0 702.8 702.8"><path fill="#019df4" fill-rule="evenodd" d="M459.8 395.3V247.8c18.8 1.6 125.4 15.5 176.3 119.8 4.8 9.8 8.5 18.9 11.7 27.7h-188zm135.6 154.6l-2.7 1.7c-5.2 3.5-11.1 6.3-17.1 5.2l-30.6-.2c-10.6-19.2-30.4-30.7-56.5-30.7-25.9 0-45.7 11.3-56.4 30.2l-108.4-.2c-10.7-18.8-30.4-30-56.3-30-25.8 0-45.5 11.2-56.2 30h-33.1c-10.7-18.8-30.4-30-56.2-30-25.8 0-45.5 11.1-56.2 29.9H42.9v-53.6h603.8c-13.1 22.3-34.2 36.3-51.3 47.7zm-106.9 64.8c-16 0-22.2-6.3-22.2-22.5s6.2-22.5 22.2-22.5 22.2 6.3 22.2 22.5-6.2 22.5-22.2 22.5zm-221 0c-16 0-22.2-6.3-22.2-22.5s6.2-22.5 22.2-22.5 22.2 6.3 22.2 22.5-6.2 22.5-22.2 22.5zm-145.4 0c-16 0-22.2-6.3-22.2-22.5s6.2-22.5 22.2-22.5c15.9 0 22.2 6.3 22.2 22.5-.1 16.2-6.3 22.5-22.2 22.5zM43 272h89.8v120.8H43V272zm140 120.9h80.6V272H183v120.9zM306.6 168h25.6l-35.3 35.9h-25.6l35.3-35.9zm-29.9-43.6h144.6V87.1H276.7v37.3zm37 268.5h82.2V272h-82.2v120.9zm360.9-44.7c-66.1-135.6-209.5-144-216.6-144.3H357.7L393 168h49.7c11.9 0 21.5-9.8 21.5-21.8V87.1h212.2c11.9 0 21.5-9.8 21.5-21.8 0-12.1-9.6-21.8-21.5-21.8h-655C9.5 43.5-.1 53.3-.1 65.3c0 12.1 9.6 21.8 21.5 21.8h212.2v59.1c0 9.3 5.7 17.1 13.7 20.3l-36.9 37.4h-189c-5.7 0-11.2 2.3-15.2 6.4-4 4.1-6.3 9.6-6.3 15.4V577.8c0 12.1 9.6 21.8 21.5 21.8h35.9c3 35.8 27.6 58.8 64.6 58.8 37.1 0 61.5-22.9 64.6-58.7h16.3c3.1 35.8 27.6 58.7 64.6 58.7 37 0 61.5-22.9 64.6-58.6l91.8.2c3.2 35.7 27.6 58.5 64.6 58.5 36.8 0 61.2-22.6 64.5-58l22.3.1h.6c14.3 0 28.3-4.3 40.4-12.3l2.6-1.8c39-25.9 129.9-86.4 55.8-238.3z" clip-rule="evenodd" style="fill: #019df4;"/></svg>
