<?xml version="1.0" encoding="UTF-8"?>
<svg xmlns="http://www.w3.org/2000/svg" viewBox="0 0 702.8 702.8"><path fill="#019df4" fill-rule="evenodd" d="M604.3 565.6l-2.7 1.8c-6.6 4.4-14.5 6.6-21.5 6.5l-33.6-.2c-8-22.6-27.7-35.9-55.2-35.9-27.4 0-47.1 13.2-55.1 35.6l-115.3-.2c-8.1-22.3-27.7-35.4-55.1-35.4s-46.9 13-55 35.3h-38.4c-8.1-22.2-27.7-35.3-55-35.3s-46.8 13-55 35.2H29.5v-70.3h635.3c-13.7 31.3-40.5 49.5-60.5 62.9zm-113.1 63.7c-20.2 0-29.9-10.1-29.9-30.7 0-20.7 9.8-30.8 29.9-30.8 20.1 0 29.9 10.1 29.9 30.8 0 20.7-9.8 30.7-29.9 30.7zm-225.5 0c-20.2 0-30-10.1-30-30.7 0-20.7 9.8-30.8 30-30.8 20.1 0 29.9 10.1 29.9 30.8.1 20.7-9.8 30.7-29.9 30.7zm-148.5 0c-20.1 0-29.9-10.1-29.9-30.7 0-20.7 9.8-30.8 29.9-30.8 20.2 0 30 10.1 30 30.8 0 20.7-9.8 30.7-30 30.7zM29.3 404.9h99.9V299.6H29.3v105.3zm129.2 0h83.3V299.6h-83.3v105.3zm112.6 0h92.1V299.6h-92.1v105.3zm151.1-165v182.4c0 8.3 6.6 15 14.6 15h234.4c2.1 13.9 2.3 26.4.9 37.5-2.2-1.3-4.5-2.2-7.2-2.2H29.3v-37.8h348.5c8.1 0 14.6-6.7 14.6-15V284.5c0-8.3-6.6-15-14.6-15H29.3V240l392.9-.1zm-119.6-82h46.8l-50.7 52h-46.8l50.7-52zm-34.8-30H430V74.4H267.8v53.5zm380.5 240c6.8 14.2 11.9 27.2 15.8 39.4H451.4V239.9h8c1.3.1 130.9 7.7 188.9 128zm26.2-13.3c-65.6-136-207.7-144.4-214.5-144.7H340l50.1-51.3c.2-.2.2-.5.4-.7h54c8.1 0 14.6-6.7 14.6-15V74.4H683c8.1 0 14.6-6.7 14.6-15s-6.5-15-14.6-15H14.6C6.5 44.4 0 51.1 0 59.4s6.6 15 14.6 15h223.9v68.5c0 8.3 6.6 15 14.6 15h8.1l-50.7 52H14.6c-3.9 0-7.6 1.6-10.3 4.4-2.8 2.8-4.3 6.6-4.3 10.6v194.9c0 .1 0 .2.1.2v67.3c0 .1-.1.2-.1.3s.1.2.1.3v100c0 8.3 6.6 15 14.6 15h43.6c1.8 34.7 23.9 56.3 58.9 56.3s57.1-21.5 58.9-56.2h30.7c1.8 34.7 23.9 56.2 58.9 56.2 34.9 0 57-21.5 58.8-56.1l107.8.2c1.9 34.5 24 55.9 58.8 55.9 34.7 0 56.7-21.2 58.8-55.5l29.8.2h.6c13.4 0 25.9-3.9 37.2-11.5l2.7-1.8c41.3-27.6 127.1-85.2 54.3-236z" clip-rule="evenodd" style="fill: #019df4;"/></svg>
