<?xml version="1.0" encoding="UTF-8"?>
<svg xmlns="http://www.w3.org/2000/svg" viewBox="0 0 702.8 702.8"><path fill="#019df4" fill-rule="evenodd" d="M595.4 550.9l-2.7 1.8c-5.2 3.5-11.1 6.2-17.1 5.2l-30.6-.2c-10.6-19.2-30.4-30.6-56.5-30.6-25.9 0-45.7 11.3-56.3 30.2l-108.4-.2c-10.7-18.9-30.4-30-56.2-30-25.8 0-45.5 11.1-56.2 30h-33.1c-10.7-18.8-30.4-29.9-56.2-29.9-25.8 0-45.5 11.1-56.2 29.9H43.1v-53.6h603.7c-13.2 21.9-34.2 35.9-51.4 47.4zm-106.9 64.8c-15.9 0-22.2-6.3-22.2-22.5s6.2-22.5 22.2-22.5 22.2 6.3 22.2 22.5-6.2 22.5-22.2 22.5zm-221 0c-15.9 0-22.2-6.3-22.2-22.5s6.2-22.5 22.2-22.5 22.2 6.3 22.2 22.5-6.2 22.5-22.2 22.5zm-145.5 0c-16 0-22.2-6.3-22.2-22.5s6.2-22.5 22.2-22.5 22.2 6.3 22.2 22.5-6.2 22.5-22.2 22.5zM43.1 393.8h77V318h-77v75.8zm120 0h69.1V318h-69.1v75.8zm112.1 0h70.5V318h-70.5v75.8zm141.5-145.3v169.6c0 12.1 9.6 21.8 21.5 21.8h220.6c.8 7.1 1 13.7.7 19.9-.3 0-.5-.2-.8-.2H43v-22.1h324.2c11.9 0 21.5-9.8 21.5-21.8V296.3c0-12.1-9.6-21.8-21.5-21.8H43v-25.9l373.7-.1zM306.6 169h25.6l-35.3 35.8h-25.6l35.3-35.8zm-29.9-43.6h144.6V88.1H276.7v37.3zM636 368.5c4.8 9.8 8.5 19 11.8 27.7h-188V248.7c18.8 1.7 125.4 15.6 176.2 119.8zm38.6-19.4c-66.1-135.6-209.5-144-216.6-144.3H357.7L393 169h49.8c11.9 0 21.5-9.8 21.5-21.8V88.1h212.2c11.9 0 21.5-9.8 21.5-21.8 0-12.1-9.6-21.8-21.5-21.8h-655C9.6 44.5 0 54.3 0 66.3c0 12.1 9.6 21.8 21.5 21.8h212.2v59.1c0 9.2 5.7 17.1 13.7 20.2l-36.9 37.4h-189c-5.7 0-11.2 2.3-15.2 6.4-4 4.1-6.3 9.6-6.3 15.4V578.7c0 12.1 9.6 21.8 21.5 21.8h35.9c3 35.8 27.5 58.8 64.6 58.8 37.1 0 61.6-22.9 64.6-58.8h16.3c3.1 35.8 27.5 58.8 64.6 58.8 37 0 61.5-22.9 64.6-58.6l91.8.2c3.2 35.7 27.6 58.5 64.6 58.5 36.8 0 61.2-22.6 64.5-58.1l22.3.1h.6c14.3 0 28.3-4.3 40.4-12.3l2.6-1.7c38.9-25.8 129.8-86.3 55.7-238.3z" clip-rule="evenodd" style="fill: #019df4;"/></svg>
