<?xml version="1.0" encoding="UTF-8"?>
<svg xmlns="http://www.w3.org/2000/svg" viewBox="0 0 702.8 702.8"><path fill="#019df4" fill-rule="evenodd" d="M483 627.5c60.1 48.2 127.3 75.3 186.1 75.3 2.7 0 5.4-.1 8-.2 5.7-.3 11.1-2.1 15.7-5.1 10.4-6.9 13-20.4 5.8-30.3-6.1-8.5-17.5-11.5-27-8-47.6 1.4-106.3-22.5-159.3-65.1l-2.4-1.9c-29.8-23.9-54.9-52.1-75.8-83 7.7 6.7 15.4 12.6 23.3 17.2 31.6 18.6 63 28.1 90.8 28.1 15.6 0 30.1-3 42.9-9.1 19.3-9.2 43-29.5 49.7-73.9 34.1-30.9 37.8-61.1 34.5-81.4-6-37.4-40.1-71.3-93.5-92.9-30.2-12.3-73.3-15.1-115.5-13.7 35.4-22.1 68.9-48.2 85.9-74.8 30.5-47.1 37.7-93.6 19.9-127.4-9.7-18.4-30.9-41-77.6-47.4C462 1.3 430.4-2.2 409.1 1c-39.2 5.7-74.7 38.3-97.4 89.2-12.9 28.7-15.8 69.8-14.3 110.1-23.2-33.7-50.6-65.7-78.5-81.9-49.5-29-98.2-36-133.7-19-19.3 9.2-43 29.5-49.7 73.9C1.4 204.2-2.3 234.4 1 254.7c6 37.4 40.2 71.2 93.5 92.8 25.5 10.4 60.4 14.1 96.2 14.1 6.5 0 12.9-.2 19.4-.4-35.4 22.1-69 48.3-86 74.9-30.5 47.1-37.7 93.6-19.9 127.4 9.7 18.4 31 41 77.6 47.3 26.6 26.7 52.6 33.8 72.9 33.8 4.4 0 8.7-.3 12.5-.9 39.3-5.7 74.8-38.3 97.4-89.2 6.5-14.4 10.4-32.1 12.6-51 25.9 46.3 60.9 87.9 103.5 122" clip-rule="evenodd" style="fill: #019df4;"/></svg>
