<?xml version="1.0" encoding="UTF-8"?>
<svg xmlns="http://www.w3.org/2000/svg" viewBox="0 0 702.8 702.8"><path fill="#019df4" fill-rule="evenodd" d="M322.5 537.5c-15.9 35.7-39.8 59.9-62.3 63.2-16.2 2.3-33.2-5.9-50-24.7l-6-6.7-9.3-.8c-25.8-2.2-42.6-10.4-50-24.5-10.2-19.5-3.3-52.1 18.1-85.1 26.5-41.3 114.1-87.6 159.3-107.5 9.2 46.5 20.3 141.5.2 186.1M112.4 307.4C75 292.3 49.6 269.5 46.1 248c-2.5-15.5 6.2-31.5 25.8-47.5l7.1-5.8.8-8.8c2.3-24.6 11-40.6 25.7-47.6 6.2-3 13.8-4.5 22.2-4.5 19.2 0 43 7.5 67.1 21.7 43.3 25.2 91.9 108.7 112.7 151.8-48.7 8.7-148.3 19.2-195.1.1m241.3-200.2c15.9-35.7 39.8-59.9 62.3-63.3 1.8-.2 3.7-.4 5.5-.4 14.6 0 29.5 8.4 44.4 25.1l6 6.7 9.3.8c25.8 2.2 42.6 10.5 50 24.5 10.2 19.5 3.3 52.1-18.1 85.2-26.4 41.3-114 87.6-159.2 107.5-9.1-46.6-20.2-141.5-.2-186.1m210.1 230c37.4 15.1 62.9 37.9 66.3 59.4 2.5 15.6-6.2 31.6-25.9 47.6l-7.1 5.7-.9 8.9c-2.3 24.5-10.9 40.5-25.7 47.6-20.3 9.7-54.6 3.2-89.3-17.3-43.3-25.2-91.9-108.7-112.7-151.9 49-8.5 148.6-19.1 195.3 0M483 627.5c60.1 48.2 127.3 75.3 186.1 75.3 2.7 0 5.4-.1 8-.2 5.7-.3 11.1-2.1 15.8-5.1 9.9-6.2 12.8-19.3 6.6-29.1-.3-.4-.5-.8-.8-1.2-6.3-8.3-17.2-11.5-27-8-47.6 1.4-106.3-22.5-159.3-65.1l-2.5-1.9c-29.3-23.7-54.9-51.7-75.8-83 7.7 6.7 15.4 12.6 23.3 17.2 31.6 18.6 63 28.1 90.8 28.1 15.6 0 30.1-3 42.9-9.1 19.3-9.2 43-29.5 49.7-73.9 34.1-31 37.8-61.1 34.5-81.4-6-37.4-40.1-71.3-93.6-92.9-30.2-12.3-73.3-15.1-115.5-13.7 35.4-22.1 68.9-48.2 85.9-74.8 30.5-47.1 37.8-93.6 20-127.4-9.7-18.4-30.9-41-77.6-47.4-32.4-32.7-64.1-36.2-85.4-33-39.2 5.8-74.7 38.3-97.4 89.2-12.9 28.7-15.8 69.8-14.3 110.1-23.3-33.7-50.5-65.7-78.5-81.9-49.5-29-98.2-36-133.7-19-19.3 9.3-43 29.5-49.7 73.9-34.2 31-37.8 61.1-34.5 81.4 6 37.4 40.2 71.3 93.5 92.9 25.5 10.4 60.4 14.1 96.2 14.1 6.4 0 12.9-.2 19.4-.4-35.4 22.2-69 48.3-86 74.9-30.5 47.1-37.7 93.6-19.9 127.4 9.7 18.4 31 41 77.6 47.3 26.6 26.7 52.6 33.8 72.9 33.8 4.5 0 8.6-.3 12.5-.9 39.2-5.8 74.8-38.3 97.4-89.2 6.5-14.4 10.4-32.1 12.6-51 26.3 46.9 61.5 88.4 103.5 122" clip-rule="evenodd" style="fill: #019df4;"/></svg>
