<?xml version="1.0" encoding="UTF-8"?>
<svg xmlns="http://www.w3.org/2000/svg" viewBox="0 0 702.8 702.8"><path fill="#019df4" fill-rule="evenodd" d="M329 544.3c-17.6 39.4-43.6 65.1-69.7 69-19.6 2.8-39.1-6.4-58.1-27.7l-4.1-4.6-6.3-.5c-29.2-2.5-48.5-12.3-57.3-29.1-11.8-22.5-4.8-57.6 18.7-94.1 30.3-47.2 131.5-98.5 175.2-116.5 10 44.4 24.5 152.6 1.6 203.5m-224.9-231c-41.4-16.7-68.5-41.5-72.4-66.4-3-18.6 6.8-37.2 29.1-55.3l4.8-3.9.6-6c2.6-27.8 12.9-46.2 30.5-54.6 7.5-3.6 16.5-5.4 26.4-5.4 21 0 46.4 8 72.4 23.2 49.6 28.9 103.5 125.2 122.4 166.8-46.7 9.6-160.4 23.4-213.8 1.6M346.6 99.1c17.6-39.4 43.6-65.2 69.7-69 2.3-.4 4.6-.5 6.9-.5 17.2 0 34.4 9.5 51.2 28.2l4.1 4.6 6.3.6c29.2 2.5 48.5 12.3 57.3 29.1 11.8 22.5 4.8 57.6-18.8 94.1-30.3 47.2-131.4 98.5-175.2 116.5-9.8-44.4-24.4-152.6-1.5-203.6m224.9 231c41.3 16.8 68.4 41.6 72.4 66.4 3 18.6-6.8 37.2-29 55.3l-4.9 3.9-.6 6c-2.6 27.8-12.9 46.2-30.6 54.6-23.6 11.3-60.5 4.6-98.8-17.9-46.4-26.9-96-112.1-117.7-157.4-.1-.1-.1-.2-.2-.3-1.5-3.1-3.2-6.6-4.4-9.2 46.8-9.4 160.4-23.3 213.8-1.4m-80.6 297.5c60.1 48.1 126.9 75.2 185.1 75.2 2.6 0 5.3-.1 7.9-.2 4.3-.2 8.5-1.6 12-3.8 7.2-4.5 9.1-13.8 4.3-20.5-4.4-6.2-11.2-5.8-19.6-5.2-51.7 1.7-113.4-23.1-169.6-68.2l-2.5-2c-49-39.3-86.8-89.3-111.5-144.9 20.5 27.5 43.4 52.2 66.8 65.8 31.1 18.3 61.8 27.6 88.7 27.6 14.8 0 28.4-2.8 40.4-8.5 18.4-8.8 41.1-28.5 46.9-72.5 34.3-30 38-59 34.9-78.4-5.7-35.6-38.9-68.1-90.9-89.2-36.9-15-93.6-15.8-144.2-11.9 43.6-24.7 89.5-56.6 110.4-89.2 29.7-45.9 37-90.7 20-122.9-9.2-17.5-29.9-39.1-76.1-44.7-31.6-32.7-62-36.3-82.3-33.2C374.2 6.4 340.1 38 318 87.6c-15.8 35.1-16.7 89.1-12.5 137.2-25.9-41.5-59.4-85.1-93.6-105-48.2-28.3-95.3-35.3-129-19.1-18.4 8.8-41.1 28.5-46.9 72.5-34.3 30-38 59-34.9 78.4 5.7 35.6 38.9 68.1 91 89.1 25.2 10.4 59.8 14 95.3 14 16.4 0 32.9-.8 48.9-2.1-43.7 24.7-89.5 56.6-110.5 89.2-29.7 45.9-37 90.7-20 122.9 9.2 17.5 29.9 39.1 76.1 44.6 26 27 51.3 34.1 70.8 34.1 4.1 0 8-.4 11.6-.9 37.4-5.4 71.5-37.1 93.6-86.6 9.5-21.1 13.5-49.1 14.4-78.5 26.6 56.7 66 107.8 116.4 148.2" clip-rule="evenodd" style="fill: #019df4;"/></svg>
