<?xml version="1.0" encoding="UTF-8"?>
<svg xmlns="http://www.w3.org/2000/svg" viewBox="0 0 702.8 702.8"><path fill="#019df4" fill-rule="evenodd" d="M467.8 336.9H235V276c0-21.4 12.4-43.6 33-43.6h166.9c20.6 0 33 22.2 33 43.6-.1 0-.1 60.9-.1 60.9zm0 214.6c0 24.9-14.2 43.6-32.9 43.6H268c-18.8 0-33-18.7-33-43.6V375.6h232.9v175.9zM282.7 142.2h137.4V43.5H282.7v98.7zm230.4.3H464v-111C464 14.7 448.8 0 431.5 0H271.2c-17.7 0-32.5 14.4-32.5 31.5v111h-49.1c-23 0-43.3 22.5-43.3 48.2V633c0 26.2 19.8 48.3 43.3 48.3h38.6c2.9 19.6 19.7 21.5 24.5 21.5h2.4c4.6-.1 21.6-1.9 24.5-21.5h144.8c2.9 19.6 19.7 21.4 24.5 21.5h2.4c4.6-.1 21.6-1.9 24.5-21.5h37.3c23.5 0 43.3-22.1 43.3-48.3V190.7c0-25.7-20.2-48.2-43.3-48.2z" clip-rule="evenodd" style="fill: #019df4;"/></svg>
