<?xml version="1.0" encoding="UTF-8"?>
<svg xmlns="http://www.w3.org/2000/svg" viewBox="0 0 702.8 702.8"><path fill="#019df4" fill-rule="evenodd" d="M514 632.3v-447c0-6.4-4.7-11.7-6.6-12.2H196.1c-1.7.4-6.4 5.7-6.4 12.1v447c0 7.2 4.7 12 6.4 12.1h311.5c1.6.1 6.4-4.9 6.4-12zm-235.3-603v114.4h146.4V29.3H278.7zm228.9 114.6c18.1 0 34.6 19.8 34.6 41.4v447c0 22.1-16.1 41.4-34.6 41.4h-35.4c0 .6.1 1 .1 1.6 0 25.4-19.3 27.4-24.2 27.4h-2.3c-5.1-.1-24.2-2.1-24.2-27.6 0-.6.1-.9.1-1.5H283.3c0 .6.2 1 .2 1.6 0 25.4-19.4 27.4-24.2 27.4h-2.4c-5.1-.1-24.2-2.1-24.2-27.6 0-.6.1-.9.1-1.5H196c-18.4 0-34.6-19.4-34.6-41.4V185.4c0-21.7 16.5-41.4 34.6-41.4h54.3V24.5c0-13 11.3-24.5 24.3-24.5h154.3c12.9 0 24.3 11.4 24.3 24.5v119.4h54.4zm-80 413.4c.8-2.4 1.2-4.9 1.2-7.4V365.6H275.1v184.3c0 3.1.6 5.7 1.2 7.4h151.3zM276.3 264.1c-.8 2.4-1.3 4.9-1.3 7.4v64.7h153.6v-64.7c0-2.9-.6-5.6-1.3-7.4h-151zm156-29.2c15.5 0 24.7 18.7 24.7 36.7v278.3c0 17.8-8.7 36.7-24.7 36.7H271.5c-16 0-24.7-18.9-24.7-36.7V271.6c0-18.1 9.2-36.7 24.7-36.7h160.8z" clip-rule="evenodd" style="fill: #019df4;"/></svg>
