<?xml version="1.0" encoding="UTF-8"?>
<svg xmlns="http://www.w3.org/2000/svg" viewBox="0 0 702.8 702.8"><g fill="#019df4"><path d="M113 546.5c-37.2 0-65.7-10.1-85-30C9.5 497.3.1 469.4.1 433.7V209.6c0-35.7 9.4-63.4 27.9-82.3 19.1-19.6 47.7-29.5 84.9-29.5l476.8-.3c37.2 0 65.8 9.9 84.9 29.5 18.5 19 27.9 46.7 27.9 82.3v224.1c0 35.7-9.4 63.6-27.9 82.8-19.2 19.9-47.8 30-85 30l-476.6.3zm476.8-429l-476.8.3c-62.5 0-92.9 30-92.9 91.8v224.1c0 30.4 7.5 53.5 22.3 68.9 15.3 15.9 39 23.9 70.6 23.9l476.8-.3c31.5 0 55.3-8 70.6-23.9 14.8-15.3 22.3-38.5 22.3-68.9V209.3c-.1-61.8-30.4-91.8-92.9-91.8zM448.8 604.9H253.7c-5.5 0-10-4.5-10-10s4.5-10 10-10h195.1c5.5 0 10 4.5 10 10s-4.5 10-10 10z" style="fill: #019df4;"/></g></svg>
