<?xml version="1.0" encoding="UTF-8"?>
<svg xmlns="http://www.w3.org/2000/svg" viewBox="0 0 702.8 702.8"><g fill="#019df4"><path d="M580 546.4l-457.1-.3c-40 0-71-11.1-92.1-33.1C10.3 491.9 0 461.7 0 423.3V209.2C0 130.6 43.6 87.4 122.8 87.4l457.2.3c79.2 0 122.8 43.3 122.8 121.8v214.1c0 38.4-10.3 68.6-30.7 89.7-21.2 22-52.2 33.1-92.1 33.1zm-457.2-419c-28.8 0-50.2 6.9-63.5 20.5C46.5 161 40 181.6 40 209.2v214.1c0 56.5 26.3 82.8 82.8 82.8l457.1.3c56.5 0 82.8-26.3 82.8-82.8V209.5c0-27.6-6.5-48.2-19.4-61.3-13.3-13.6-34.6-20.5-63.5-20.5l-457-.3zM439 625.4l-175.5-.3c-11 0-20-9-20-20s9-20 20-20l175.5.3c11 0 20 9 20 20s-9 20-20 20z" style="fill: #019df4;"/></g></svg>
