<?xml version="1.0" encoding="UTF-8"?>
<svg xmlns="http://www.w3.org/2000/svg" viewBox="0 0 702.8 702.8"><path fill="#019df4" fill-rule="evenodd" d="M351.5 43C219 43 145.8 117.2 145.4 252c-.4 119.8 142.2 324.2 205.5 397.6 57.6-67.2 207.1-270.8 207.5-396.3.4-135.2-72.7-209.8-205.9-210.3h-1zm-.5 659.8c-5.6 0-11.1-2.3-15-6.3-47.5-48.2-233.5-291.2-233-444.6C103.5 94.1 196.4 0 351.5 0h1.1c155.8.5 248.6 95.2 248.1 253.4C600.3 418 395.2 666.9 366 696.5c-4 4-9.4 6.3-15 6.3zm.9-516.5c-34.1 0-50.8 16.9-50.8 51.5 0 34.7 16.6 51.6 50.8 51.6s50.8-16.9 50.8-51.5c0-34.7-16.7-51.5-50.8-51.6zm0 146.2c-57.5 0-93.2-36.3-93.2-94.6s35.7-94.6 93.2-94.6 93.2 36.3 93.2 94.6-35.7 94.6-93.2 94.6z" clip-rule="evenodd" style="fill: #019df4;"/></svg>
