<?xml version="1.0" encoding="UTF-8"?>
<svg xmlns="http://www.w3.org/2000/svg" viewBox="0 0 702.9 702.8"><path fill="#019df4" fill-rule="evenodd" d="M352.7 0c155.9.5 248.6 94.4 248.2 251.4-.5 152.8-190.9 398.2-239.6 447.2-2.8 2.8-6.5 4.3-10.3 4.3-3.7 0-7.4-1.4-10.3-4.3-48.5-48.8-238.1-294.4-237.7-448.7.2-77.5 23.1-141.3 66.2-184.4C212 22.6 275 0 351.5 0h1.2zm90 235.5c0-55.9-33.4-89.2-89.2-89.2-55.8 0-89.2 33.4-89.2 89.2 0 55.9 33.4 89.2 89.2 89.2 55.9 0 89.2-33.3 89.2-89.2z" clip-rule="evenodd" style="fill: #019df4;"/></svg>
