<?xml version="1.0" encoding="UTF-8"?>
<svg xmlns="http://www.w3.org/2000/svg" viewBox="0 0 702.8 702.8"><path fill="#019df4" fill-rule="evenodd" d="M351 666.7c55.4-62.4 220.3-281.3 220.7-415.5.4-142.7-77.4-221.5-219.1-221.9h-1.1c-141.1 0-219 78.3-219.4 220.7-.4 135.4 163.7 354.4 218.9 416.7zM352.6 0c155.9.5 248.7 94.4 248.2 251.3-.5 152.7-190.9 398.2-239.5 447.1-5.6 5.7-14.7 5.8-20.4.2l-.2-.2C292.1 649.7 102.5 404.1 103 249.8 103.5 93.3 196.4 0 351.5 0h1.1zm-.7 295.4c38.9 0 59.5-20.7 59.5-59.9s-20.6-59.9-59.5-59.9-59.6 20.7-59.6 59.9 20.6 59.9 59.6 59.9zm0-149.1c55.5 0 88.6 33.4 88.6 89.2s-33.1 89.2-88.6 89.2-88.6-33.4-88.6-89.2 33.1-89.2 88.6-89.2z" clip-rule="evenodd" style="fill: #019df4;"/></svg>
