<?xml version="1.0" encoding="UTF-8"?>
<svg xmlns="http://www.w3.org/2000/svg" viewBox="0 0 702.8 702.8"><path fill="#019df4" fill-rule="evenodd" d="M590.1 673.2c7 0 13.1-4.5 13.8-6.5l-.1-74.7c-.7-1.2-6.7-5.7-13.7-5.7H115.7c-7.4 0-12.9 4.2-13.7 6v75.2c.5 1.3 6.1 5.7 13.7 5.7h474.4zM157.9 340.8V556h389.9V340.8c0-130-65.6-195.9-195-195.9-129.3 0-194.9 65.9-194.9 195.9zm432.2 216c23 0 43.1 16.4 43.1 35.2v75.5c0 18.7-20.2 35.2-43.1 35.2H115.7c-23.4 0-43.1-16.1-43.1-35.2V592c0-19.1 19.8-35.2 43.1-35.2h12.9V340.7c0-147.4 77.6-225.4 224.3-225.4 146.8 0 224.4 77.9 224.4 225.4v216h12.8v.1zM352.9 83.2c-8.1 0-14.7-6.6-14.7-14.8V14.8c0-8.1 6.6-14.7 14.7-14.7s14.7 6.6 14.7 14.7v53.7c0 8.1-6.6 14.7-14.7 14.7zm-270 179.6c0 8.1-6.6 14.7-14.7 14.8H14.7C6.6 277.5 0 271 0 262.8v-.1c0-8.2 6.6-14.8 14.7-14.8h53.4c8.1.1 14.7 6.7 14.8 14.9zM688.1 249c8.1 0 14.7 6.6 14.7 14.7s-6.6 14.7-14.7 14.7h-53.5c-8.1 0-14.7-6.6-14.7-14.7v-.1c0-8.1 6.6-14.8 14.7-14.8l53.5.2zM125.9 126.1L88.1 88.2c-5.7-5.8-5.7-15.1 0-20.9 5.7-5.7 15-5.8 20.7-.1l.1.1 37.8 37.9c5.7 5.8 5.6 15.2-.2 21-2.7 2.7-6.3 4.2-10.1 4.2-4 0-7.7-1.5-10.5-4.3zm414.7-.1c-8.1 0-14.7-6.5-14.8-14.7 0-3.9 1.6-7.7 4.4-10.5l37.8-38c5.7-5.7 15-5.8 20.7-.1l.1.1c5.7 5.8 5.7 15.1 0 20.9l-37.8 38c-2.7 2.8-6.5 4.4-10.4 4.3z" clip-rule="evenodd" style="fill: #019df4;"/></svg>
