<?xml version="1.0" encoding="UTF-8"?>
<svg xmlns="http://www.w3.org/2000/svg" viewBox="0 0 702.8 702.8"><path fill="#019df4" fill-rule="evenodd" d="M591.5 657.5v-66.9c-1.9-1.2-4-1.9-6.2-1.9H120.5c-2.2 0-4.3.6-6.2 1.7v67.4c1.9 1.1 4 1.6 6.2 1.6h464.8c2.2 0 4.4-.7 6.2-1.9zM169.1 341v203.6h367.6V341c0-124.2-60.1-184.6-183.9-184.6-123.6 0-183.7 60.4-183.7 184.6zm416.2 204.4c26.4 0 49.4 19.5 49.4 41.7V661c0 22.3-23.1 41.8-49.4 41.8H120.5c-26.8 0-49.4-19.1-49.4-41.8v-73.9c0-22.6 22.6-41.7 49.4-41.7h5.4V341c0-147 80.6-228 226.9-228 146.4 0 227 81 227 228v204.4h5.5zM352.9 96c-11.9 0-21.6-9.7-21.6-21.7V21.7c0-12 9.7-21.7 21.6-21.7 11.9 0 21.6 9.7 21.6 21.7v52.6c0 11.9-9.6 21.6-21.6 21.7zM95.5 264.6c0 11.9-9.6 21.6-21.6 21.7H21.6c-12-.1-21.6-9.8-21.6-21.7 0-12 9.7-21.7 21.6-21.7H74c11.9 0 21.6 9.7 21.5 21.7zm585.7-20.7c11.9 0 21.6 9.7 21.6 21.7 0 11.9-9.6 21.7-21.6 21.7h-52.4c-11.9 0-21.6-9.7-21.6-21.7s9.7-21.7 21.6-21.7h52.4zm-555.7-108l-37-37.2C80 90.2 80 76.5 88.5 68c8.4-8.4 22-8.5 30.4-.1l.1.1 37 37.2c8.4 8.6 8.4 22.3-.2 30.8-4 4-9.4 6.2-15.1 6.3-5.7-.1-11.2-2.4-15.2-6.4zm411.4 2c-12-.1-21.6-9.9-21.5-21.9 0-5.7 2.3-11.1 6.3-15.1l37-37.2c8.4-8.4 22-8.5 30.4-.1l.1.1c8.4 8.5 8.4 22.2 0 30.6l-37 37.2c-4.1 4.1-9.6 6.4-15.3 6.4z" clip-rule="evenodd" style="fill: #019df4;"/></svg>
