<?xml version="1.0" encoding="UTF-8"?>
<svg xmlns="http://www.w3.org/2000/svg" viewBox="0 0 702.8 702.9"><g fill="#019df4"><path d="M653.4 702.5H48.9c-5.5 0-10-4.5-10-10v-78c0-53.3 16.6-98.7 47.9-131.3C121 447.8 172.1 429 234.5 429h233.3c62.4 0 113.5 18.8 147.7 54.3 31.4 32.6 47.9 78 47.9 131.3v78c0 5.4-4.5 9.9-10 9.9zm-594.5-20h584.5v-68c0-48-14.6-88.6-42.3-117.4-30.8-31.9-75.6-48.1-133.3-48.1H234.5c-57.7 0-102.5 16.2-133.3 48.1-27.7 28.8-42.3 69.3-42.3 117.4v68zM351.1 351.5c-114.8 0-175.5-60.7-175.5-175.5 0-58.3 15.6-102.9 46.4-132.7C251.7 14.6 295.1 0 351.1 0s99.5 14.6 129.4 43.3c31 29.8 46.6 74.5 46.6 132.7 0 114.8-60.8 175.5-176 175.5zm0-331.5c-50.6 0-89.4 12.7-115.2 37.7-26.7 25.9-40.3 65.7-40.3 118.3s13.6 92.3 40.3 118c25.8 24.9 64.6 37.4 115.2 37.4s89.6-12.6 115.5-37.5c26.9-25.8 40.5-65.5 40.5-118s-13.6-92.4-40.5-118.3C440.6 32.7 401.8 20 351.1 20z" style="fill: #019df4;"/></g></svg>
