<?xml version="1.0" encoding="UTF-8"?>
<svg xmlns="http://www.w3.org/2000/svg" viewBox="0 0 702.8 703"><g fill="#019df4"><path d="M351.4 352c-55.6 0-98.9-14.6-128.9-43.5-31.1-30-46.9-74.5-46.9-132.3s15.8-102.4 46.9-132.5c30-29 73.3-43.7 128.9-43.7s99 14.7 129.1 43.7c31.3 30.1 47.1 74.7 47.1 132.5s-15.9 102.3-47.2 132.3c-30 28.9-73.4 43.5-129 43.5zM643.9 703h-585c-11 0-20-9-20-20v-58.5c0-56 17.4-103.7 50.4-138.1 36-37.5 89.4-57.4 154.6-57.4h214.5c65.2 0 118.8 19.8 154.8 57.3 33.2 34.5 50.7 82.2 50.7 138.2V683c0 11-9 20-20 20z" style="fill: #019df4;"/></g></svg>
