<?xml version="1.0" encoding="UTF-8"?>
<svg xmlns="http://www.w3.org/2000/svg" viewBox="0 0 702.8 703"><g fill="#019df4"><path d="M351.4 352c-55.6 0-98.9-14.6-128.9-43.5-31.1-30-46.9-74.5-46.9-132.3s15.8-102.4 46.9-132.5c30-29 73.3-43.7 128.9-43.7s99 14.7 129.1 43.7c31.3 30.1 47.1 74.7 47.1 132.5s-15.9 102.3-47.2 132.3c-30 28.9-73.4 43.5-129 43.5zm0-312c-44.8 0-78.8 10.9-101.1 32.5-23 22.3-34.7 57.2-34.7 103.8s11.7 81.3 34.7 103.5c22.2 21.4 56.2 32.3 101.1 32.3s79-10.9 101.4-32.3c23.1-22.2 34.9-57 34.9-103.4C487.6 84.6 443 40 351.4 40zM643.9 703h-585c-11 0-20-9-20-20v-58.5c0-56 17.4-103.7 50.4-138.1 36-37.5 89.4-57.4 154.6-57.4h214.5c65.2 0 118.8 19.8 154.8 57.3 33.2 34.5 50.7 82.2 50.7 138.2V683c0 11-9 20-20 20zm-565-40h545v-38.5c0-45.4-13.7-83.6-39.5-110.5-28.8-29.9-71.2-45-126-45H243.9c-54.8 0-97.1 15.1-125.7 45-25.7 26.8-39.3 65-39.3 110.5V663z" style="fill: #019df4;"/></g></svg>
