<?xml version="1.0" encoding="UTF-8"?>
<svg xmlns="http://www.w3.org/2000/svg" viewBox="0 0 702.8 702.8"><path fill="#019df4" fill-rule="evenodd" d="M525.5 140.4h-45.6L455.1 243h75.4l10.6-89.1c-.1-6.6-7-13.5-15.6-13.5zm-44.3 516.9l45.7-384h-79.1l-83 344.3c-2 8.1-10.1 13.2-18.3 11.2h-.1c-8.1-1.9-13.2-10-11.3-18.1v-.1l81.3-337.3H103l45.6 382.2c.1 10.2 7.1 17.1 15.6 17.1h301.5c8.5 0 15.4-6.8 15.5-15.3zM104.4 140.4c-8.5 0-15.5 6.8-15.5 15.3L99.4 243h324.5l24.7-102.6H104.4zm532.1-63.8c7.3 4 10 13.3 5.9 20.6-4.2 7.3-13.4 9.9-20.8 5.8l-117-65-17.4 72.1h38.4c25.3 0 46 20.5 46 45.6l-60 503.2c.1 23.4-20.5 43.8-45.8 43.8H164.2c-25.4 0-46-20.4-46-45.6L58.6 157.6c-.1-26.9 20.5-47.4 45.9-47.4h351.4l23.7-98.6c2-8.2 10.2-13.2 18.4-11.2 1.4.3 2.7.8 3.9 1.5l134.6 74.7zM240.7 411.7c28.6-28.3 8-53.3 1.9-59.5l-2.8-2.8c-3.6-3.4-14.7-12.7-29.3-12.7-9.1 0-19.6 3.6-30.5 14.4-28.4 28.2-7.6 53.6-1.8 59.6l2.9 2.9c3.7 3.7 14.5 12.7 28.8 12.7 9.1.1 19.7-3.6 30.8-14.6zm23.8-80.6c24.7 25.2 33.5 66.4-2.3 101.9-19.6 19.5-39.3 23.6-52.4 23.6-25.5 0-43.6-15-50.3-21.5-1.2-1.2-2.4-2.3-3.5-3.5-24.3-25.4-33.1-66.7 2.3-101.8 19.4-19.3 39-23.3 52.1-23.3 25.5 0 43.8 14.8 50.5 21.2 1.2 1 2.5 2.3 3.6 3.4zm19.8 226c15.9-15.8 4.5-29.7 1.1-33.1-.5-.5-1.1-1.1-1.6-1.5-2-1.9-8.1-7.1-16.3-7.1-5 0-10.9 2-16.9 8.1-15.8 15.6-4.2 29.8-1.1 33.1l1.6 1.6c2.1 2 8.1 7.1 16 7.1 5.1 0 11-2.1 17.2-8.2zm20.4-56.6l2.5 2.5c17.7 18.1 24.9 49.5-1.4 75.6-14.2 14.1-28.8 17-38.7 17-13.5 0-27.1-5.8-37.3-15.7l-2.3-2.3c-17.6-18.2-24.5-49.6 1.5-75.4 14-14 28.7-16.9 38.5-16.9 19.1-.1 32.6 10.7 37.2 15.2z" clip-rule="evenodd" style="fill: #019df4;"/></svg>
