<?xml version="1.0" encoding="UTF-8"?>
<svg xmlns="http://www.w3.org/2000/svg" viewBox="0 0 702.8 702.8"><path fill="#019df4" fill-rule="evenodd" d="M521.1 152.3h-38.6L461.9 238h57.5l9.6-80.7c-.2-1.6-3.7-5-7.9-5zm-50.7 498.5l43.7-368.5h-62.9l-79.5 331.4c-3.2 11.9-15.4 19-27.3 15.8-11.5-3-18.5-14.5-16.1-26.2l77-321H117.6l43.6 365.8c.1 6.8 3.6 10.2 7.8 10.2h293.8c4.2.1 7.6-3.3 7.6-7.5zM110.7 152.3c-4.2 0-7.6 3.4-7.6 7.6l9.3 78.1H416l20.6-85.7H110.7zM632.8 76c10.7 5.9 14.5 19.4 8.6 30.1v.1c-5.9 10.7-19.4 14.6-30.1 8.6-.1 0-.1-.1-.2-.1L505.6 55.9l-12.5 52H521c28.8 0 52.3 23.3 52.3 52l-58.5 493.5c.1 26.1-23.2 49.4-52.1 49.4H169c-28.8 0-52.1-23.2-52.2-52L58.6 162.5c-.1-31.3 23.3-54.6 52.1-54.6h336.7L469.1 17c1.6-6.8 6.3-12.4 12.7-15.1 6.4-2.8 13.7-2.5 19.8.9L632.8 76zM243.5 410.4c27.9-27.8 7.8-52.2 1.9-58.2l-2.7-2.7c-3.6-3.4-14.3-12.4-28.5-12.4-8.9 0-19.1 3.5-29.8 14.1-27.7 27.6-7.4 52.4-1.8 58.4l2.8 2.8c3.7 3.6 14.1 12.5 28.1 12.5 8.8-.1 19.2-3.7 30-14.5zm23.2-78.9c24.1 24.6 32.7 65-2.2 99.8-19.1 19.1-38.3 23-51 23-24.9 0-42.5-14.6-48.9-20.9l-3.5-3.5c-23.7-24.9-32.2-65.3 2.3-99.7 18.9-18.8 38.1-22.8 50.8-22.8 24.9 0 42.6 14.5 49.1 20.7 1 1 2.3 2.2 3.4 3.4zM286 552.7c15.5-15.5 4.3-29 1-32.4l-1.5-1.5c-2-1.9-7.9-6.9-15.8-6.9-4.9 0-10.6 2-16.6 7.9-15.4 15.3-4.1 29.1-1 32.4.5.5 1 1.1 1.6 1.6 2 2 7.9 7 15.6 7 4.9 0 10.6-2.1 16.7-8.1zm20.1-55.2l2.3 2.3c17.3 17.7 24.2 48.4-1.4 73.9-13.9 13.8-28.1 16.7-37.7 16.7-13.1 0-26.4-5.7-36.4-15.4l-2.3-2.3c-17-17.9-23.9-48.5 1.5-73.8 13.7-13.6 28-16.5 37.6-16.5 18.6-.1 31.6 10.6 36.4 15.1z" clip-rule="evenodd" style="fill: #019df4;"/></svg>
