<?xml version="1.0" encoding="UTF-8"?>
<svg xmlns="http://www.w3.org/2000/svg" viewBox="0 0 702.8 702.8"><path fill="#019df4" fill-rule="evenodd" d="M521.1 152.2c4.2 0 7.7 3.5 7.7 5l-9.5 80.8H462l-90.3 375.4c-2.3 10.4-11.6 17.2-21.7 17.2-1.8 0-3.3-.3-5.1-.6-12.2-3-19.3-14.8-16.6-26.6L416 238H112.4l-9.2-78.1c0-4.1 3.3-7.7 7.7-7.7h325.9L416 238h46l20.5-85.8h38.6zM285.8 552.8c-5.9 5.9-11.6 8-16.6 8-7.8 0-13.4-5-15.5-7.1l-1.5-1.5c-3.3-3.3-14.6-17.2.9-32.5 5.9-5.9 11.6-7.7 16.3-7.7 8 0 14 5 16 6.8l1.5 1.5c3.4 3.2 14.7 16.8-1.1 32.5zm-72.2-128.1c-14 0-24.7-8.9-28.2-12.4-.9-.9-2.1-2.1-2.7-3-5.6-5.9-26.1-30.8 1.8-58.3 10.4-10.7 20.8-14.2 29.7-14.2 14.3 0 25 9.2 28.5 12.4.9.9 1.8 1.8 2.7 3 5.9 5.9 25.8 30.2-1.8 58-10.9 10.9-21.3 14.5-30 14.5zM632.8 75.9L501.5 2.8c-5.9-3.3-13.3-3.8-19.6-.9-6.5 2.7-11.3 8.3-12.8 15.1l-21.7 90.8H110.8c-28.8 0-52.3 23.4-52.3 54.7l8.9 75.4 5.3 44.4 44 368.3c0 28.7 23.4 52.1 52.3 52.1h293.8c28.8 0 52-23.4 52-49.4l44-371 5.3-44.4 9.2-78.1c0-28.7-23.5-52.1-52.3-52.1h-27.9l12.4-51.8L611 114.5c10.7 6.2 24.1 2.4 30.3-8.6 6.1-10.5 2.2-23.8-8.5-30z" clip-rule="evenodd" style="fill: #019df4;"/></svg>
