<?xml version="1.0" encoding="UTF-8"?>
<svg xmlns="http://www.w3.org/2000/svg" viewBox="0 0 702.8 702.8"><path fill="#019df4" fill-rule="evenodd" d="M622.8 428.3l-227.6 65.4c-4.3 19.8-22.3 34.7-43.8 34.7-24.8 0-44.8-19.7-44.8-44s20.1-43.9 44.8-43.9c12.3 0 23.4 4.8 31.5 12.7l227.8-65.5c11.5-3.3 23.4 3.1 26.7 14.3 3.4 11.3-3.2 23-14.6 26.3zm-415-123.5c-4.2 4.1-9.7 6.2-15.3 6.2-5.5 0-11-2.1-15.2-6.2l-20.6-20.2c-8.4-8.3-8.4-21.6 0-29.9 8.4-8.3 22.1-8.3 30.5 0l20.6 20.2c8.5 8.3 8.5 21.7 0 29.9zm-72.1 140.8h-29.2c-11.9 0-21.5-9.5-21.5-21.1s9.7-21.1 21.5-21.1h29.2c11.9 0 21.5 9.5 21.5 21.1s-9.6 21.1-21.5 21.1zm193.7-233.2c0-11.7 9.7-21.1 21.5-21.1 11.9 0 21.5 9.5 21.5 21.1V241c0 11.7-9.7 21.1-21.5 21.1-11.9 0-21.5-9.5-21.5-21.1v-28.6zM493.8 275l20.6-20.2c8.4-8.3 22-8.3 30.5 0 8.4 8.3 8.4 21.6 0 29.9l-20.6 20.2c-4.2 4.1-9.7 6.2-15.2 6.2s-11-2.1-15.2-6.2c-8.5-8.3-8.5-21.7-.1-29.9zM351.3 103C121.5 103 0 222.2 0 447.6c0 51.4 6.5 97.9 19.3 138.3 2.8 8.8 11.1 14.8 20.6 14.8h622.7c8.2 0 15.7-4.6 19.3-11.8l.7-1.5c.5-1 .9-2 1.3-3.1 12.5-40 18.9-86 18.9-136.7 0-225.4-121.5-344.6-351.5-344.6z" clip-rule="evenodd" style="fill: #019df4;"/></svg>
