<?xml version="1.0" encoding="UTF-8"?>
<svg xmlns="http://www.w3.org/2000/svg" viewBox="0 0 702.8 702.8"><path fill="#019df4" fill-rule="evenodd" d="M658.4 570.8c10-35.7 15.1-76.5 15.1-121.4 0-211.3-108.4-318.4-322.1-318.4-213.7 0-322 107.1-322 318.4 0 44.9 5.1 85.7 15 121.4h614zM351.3 102c229.9 0 351.5 120.1 351.5 347.4 0 51.5-6.4 98.2-18.9 138.6-.2.7-.5 1.5-.8 2.1l-.8 1.6c-2.5 5-7.6 8.1-13.2 8.1H33.4c-6.4 0-12-4.1-14-10.2C6.5 548.8 0 501.6 0 449.4 0 222.2 121.5 102 351.3 102zm.1 416.1c14.9 0 26.8-10.6 29.8-24.5l-24.3 7c-7.7 2.3-15.8-2.1-18.2-9.8-2.2-7.7 2.2-15.7 9.9-18h.1l24.7-7.2c-5.8-5.8-13.7-9.1-22-9-17.2 0-31.1 13.8-31.1 30.7 0 17 13.9 30.8 31.1 30.8zm0-90.4c21.2 0 40.9 11.2 51.8 29.5l215-62.4c7.7-2.3 15.8 2 18.1 9.7v.1c2.3 7.6-2.1 15.7-9.8 17.9h-.2l-214.9 62.3c0 .8.3 1.6.3 2.5 0 32.9-27.1 59.7-60.4 59.7S291 520.3 291 487.4c0-32.9 27.1-59.7 60.4-59.7zm-.5-205.5c-8.1 0-14.6-6.4-14.7-14.5v-29.4c0-8 6.6-14.5 14.6-14.5 8.1 0 14.7 6.5 14.7 14.5v29.4c0 8.1-6.6 14.6-14.6 14.5zm-185.6 18.7l21.1 20.8c5.7 5.6 5.7 14.7.2 20.3l-.2.2c-5.8 5.6-15 5.6-20.7 0l-21.1-20.8c-5.7-5.6-5.7-14.7-.2-20.3l.2-.2c5.7-5.6 14.9-5.6 20.7 0zm-63.4 170.2c8.1 0 14.6 6.5 14.6 14.5s-6.6 14.5-14.6 14.5H72.1c-8 0-14.6-6.5-14.6-14.5s6.6-14.5 14.6-14.5h29.8zm426.4-123.3c-3.9 0-7.6-1.5-10.4-4.2-5.7-5.6-5.7-14.7-.1-20.4l.1-.1 21.1-20.8c5.7-5.7 15-5.7 20.7 0 5.7 5.5 5.8 14.6.2 20.3l-.2.2-21 20.8c-2.8 2.6-6.6 4.2-10.4 4.2z" clip-rule="evenodd" style="fill: #019df4;"/></svg>
