<?xml version="1.0" encoding="UTF-8"?>
<svg xmlns="http://www.w3.org/2000/svg" viewBox="0 0 702.8 702.8"><path fill="#019df4" fill-rule="evenodd" d="M646.1 558.2c8.7-32.8 13.1-70 13.1-110.7 0-200.3-103.6-301.9-307.8-301.9-204.2 0-307.7 101.5-307.7 301.9 0 40.8 4.4 78 13 110.7h589.4zM351.3 103.4c229.6 0 350.9 119 350.9 344.1 0 50.6-6.3 96.5-18.9 136.5-.3 1.1-.8 2.1-1.3 3.1l-.7 1.5c-3.7 7.3-11.1 11.8-19.3 11.8H40.4c-9.3.1-17.7-5.9-20.6-14.8C7.1 545.2.6 498.8.6 447.5c0-225.1 121.3-344.1 350.7-344.1zm.1 337c12.3 0 23.3 4.9 31.4 12.7l227.5-65.4c11.5-3.3 23.4 3.1 26.7 14.3 3.2 11.1-3.2 22.8-14.3 26.1-.1 0-.2.1-.3.1l-227.2 65.3c-4.6 20.4-22.8 34.8-43.7 34.7-24.7 0-44.7-19.6-44.7-43.9-.1-24.2 19.9-43.8 44.6-43.9zm-.5-178.2c-11.8.1-21.4-9.3-21.5-21.1v-28.5c0-11.6 9.6-21.1 21.5-21.1s21.5 9.5 21.5 21.1v28.5c0 11.7-9.6 21.1-21.5 21.1zm-163.4-7.3l20.6 20.2c8.2 8 8.4 21.1.5 29.4l-.5.5c-4.1 4-9.5 6.2-15.2 6.2-5.7 0-11.1-2.2-15.2-6.2L157 284.7c-8.2-8-8.4-21.2-.4-29.4l.4-.4c8.5-8.2 22-8.2 30.5 0zm-51.4 148.4c11.9 0 21.5 9.4 21.5 21.1 0 11.6-9.6 21.1-21.5 21.1H107c-11.7.1-21.4-9.3-21.5-21.1 0-11.7 9.6-21.1 21.5-21.1h29.1zm372.6-92.2c-5.7 0-11.2-2.2-15.2-6.2-8.2-8-8.4-21.1-.5-29.4l.5-.5 20.6-20.2c8.5-8.2 22-8.2 30.4 0 8.2 8 8.4 21.2.4 29.4l-.4.4-20.6 20.2c-4 4.1-9.5 6.3-15.2 6.3z" clip-rule="evenodd" style="fill: #019df4;"/></svg>
