<?xml version="1.0" encoding="UTF-8"?>
<svg xmlns="http://www.w3.org/2000/svg" viewBox="0 0 702.8 702.8"><path fill="#019df4" fill-rule="evenodd" d="M352.4 541.2c139.4 0 281.6-150.8 316.4-190.2-34.9-39.4-178-190.3-317.3-190.3-139.4 0-282.3 150.8-317.3 190.3 35.1 39.3 178.9 190.2 318.2 190.2zm347.1-199.6c4.4 5.4 4.5 13.2.1 18.6-7 8.6-173.8 210.3-347.2 210.3-173.3 0-341.9-201.6-349-210.2-4.5-5.4-4.5-13.2 0-18.7 7-8.6 174.7-210.4 348.1-210.4 173.2.1 340.9 201.8 348 210.4zm-344.3-78.2c17.8.4 86.7 7.4 86.7 90.6 0 83.3-69.1 89.8-86.4 90.2-2.5 0-5.5.1-8.3 0-18.2-.2-86.4-6.8-86.4-90.7 0-83.8 67.6-90 85.7-90.1 3-.1 6.1-.1 8.7 0z" clip-rule="evenodd" style="fill: #019df4;"/></svg>
