<?xml version="1.0" encoding="UTF-8"?>
<svg xmlns="http://www.w3.org/2000/svg" viewBox="0 0 702.8 702.8"><path fill="#019df4" fill-rule="evenodd" d="M352.4 528.9C481 528.9 613 395.5 652.6 352 612.8 308.5 480 174.9 351.5 174.9c-128.6 0-261.3 133.4-301.1 177 40.1 43.5 173.5 177 302 177zm345.5-190.5c6.5 7.8 6.5 19.2 0 27-6.9 8.5-172.4 206.1-345.5 206.1S12 373.9 5 365.5c-6.6-7.8-6.6-19.2-.1-27.1C12 330 178.3 132.3 351.5 132.3S690.9 330 697.9 338.4zm-342.8-71.1c17.4.4 85 7.2 85 87.6 0 80.6-67.7 86.9-84.6 87.2-2.7.1-5.4.1-8.1.1-17.8-.3-84.6-6.6-84.6-87.8 0-81.1 66.1-87.1 84-87.2 2.7 0 5.8 0 8.3.1z" clip-rule="evenodd" style="fill: #019df4;"/></svg>
