<?xml version="1.0" encoding="UTF-8"?>
<svg xmlns="http://www.w3.org/2000/svg" viewBox="0 0 702.8 702.8"><path fill="#019df4" fill-rule="evenodd" d="M574.9 329.8c-4.9 4.6-11.9 6.9-20.9 6.9-9 0-16-2.3-20.9-6.9-5.1-4.8-7.6-11.8-7.6-21.1s2.6-16.4 7.6-21.2c4.9-4.6 11.9-7 20.9-7 9 0 16 2.4 20.9 7 5.1 4.8 7.7 11.9 7.7 21.2-.1 9.3-2.7 16.4-7.7 21.1m-57.8-56c-4.8 4.6-11.9 6.9-20.9 6.9-8.9 0-16-2.3-20.9-6.9-5-4.8-7.5-12-7.5-21.1 0-9.2 2.6-16.3 7.5-21.1 4.9-4.7 11.9-7 20.9-7 9 0 16 2.3 20.9 7 5.1 4.8 7.6 11.9 7.6 21.1 0 9.2-2.5 16.3-7.6 21.1m0 112.1c-4.8 4.7-11.9 7-20.9 7-8.9 0-16-2.3-20.9-7-5-4.8-7.5-11.9-7.5-21.1 0-9.2 2.6-16.3 7.5-21.1 4.9-4.7 11.9-7 20.9-7 9 0 16 2.4 20.9 7 5.1 4.8 7.6 11.9 7.6 21.1 0 9.2-2.5 16.3-7.6 21.1m-57.8-56.1c-4.9 4.6-11.9 6.9-20.9 6.9-9 0-16-2.3-20.9-6.9-5-4.8-7.6-11.8-7.6-21.1s2.6-16.4 7.6-21.2c4.9-4.6 11.9-7 20.9-7 9 0 16 2.4 20.9 7 5 4.8 7.6 11.9 7.6 21.2.1 9.3-2.5 16.4-7.6 21.1M284 336.5c-6.7 6.3-16.5 9.5-29.2 9.5h-4l.1.8c.5 2.2.7 4.5.7 6.3 0 13-3.5 22.9-10.3 29.3-6.6 6.3-16.5 9.5-29.2 9.5-12.8 0-22.6-3.2-29.2-9.5-6.7-6.2-10.2-16.2-10.2-29.3 0-1.2.4-4.3.6-5.6-1.5.2-2.6.2-6 .2-12.8 0-22.6-3.2-29.3-9.5-6.7-6.3-10.2-16.2-10.2-29.3 0-13.1 3.5-22.9 10.3-29.5 6.5-6.2 16.4-9.4 29.1-9.4 1.1 0 4.2.3 5.2.4h.7c-.2-1.8-.4-3.6-.4-5.7 0-13.1 3.5-23 10.4-29.4 6.5-6.2 16.3-9.4 29.1-9.4 12.7 0 22.5 3.2 29.2 9.5 6.9 6.5 10.3 16.4 10.3 29.4 0 .7-.1 2.5-.2 3.8.6-.1 1.8-.2 3.4-.2 12.7 0 22.5 3.2 29.2 9.5 6.9 6.7 10.3 16.6 10.3 29.5-.1 12.7-3.6 22.6-10.4 29.1m342.9-136.6c-2.1-5.1-3.9-9.5-5.4-12.9-1.4-3.3-2-4.2-2.4-5l-2.1-4c-5.4-9.6-11.6-18.5-19.5-26-24.3-23.1-58.7-34.8-102.3-34.8-17.9 0-33.9 2.5-48.6 6.3-8.7 2.3-28 10.8-28.4 11 0 0-14.8 8.3-19.5 11.5-14.3 9.6-30.8 14.4-47.3 14.4-16.6 0-33.1-4.8-47.3-14.4-4.8-3.2-19.5-11.5-19.5-11.5-.3-.2-19.6-8.7-28.3-11-14.7-3.9-30.7-6.3-48.6-6.3-43.6 0-78 11.7-102.2 34.8-7.9 7.5-14.1 16.4-19.6 26l-2 4c-.4.8-1 1.8-2.4 5-1.5 3.4-3.4 7.8-5.5 12.9C56 247.9-1.3 365.2.1 467.6c.2 14.8 5.8 44.2 10.2 58.4 8.7 28.3 29 46.5 51.3 53.8 9.1 3 21.4 5.1 30.3 5.8.9 0 1.8.1 2.8.1 12.5 0 33.9-5.1 45-10.1 6.8-3.1 16.3-8.1 27.5-17.7 6.7-5.8 9.6-9.6 20.7-23.3 7.8-9.6 14.7-20.1 23.7-28.7 20.7-19.8 47.1-33.9 78.4-42.6 20-5.5 40.8-8.4 61.6-8.4 20.8 0 41.5 2.8 61.5 8.4 31.4 8.8 57.7 22.8 78.4 42.6 9.1 8.6 16 19.1 23.8 28.7 11.1 13.6 14 17.5 20.7 23.3 11.2 9.6 21.2 14.6 28 17.7 12 5.3 35.4 10 47.3 10 8.9 0 21.2-2.8 30.3-5.8 22.2-7.3 42.6-25.5 51.3-53.8 4.3-14.1 9.9-43.6 10.1-58.4 1.2-102.3-56.1-219.6-76.1-267.7" clip-rule="evenodd" style="fill: #019df4;"/></svg>
