<?xml version="1.0" encoding="UTF-8"?>
<svg xmlns="http://www.w3.org/2000/svg" viewBox="0 0 702.8 702.8"><path fill="#019df4" fill-rule="evenodd" d="M496.2 224.7c9 0 16 2.3 20.9 6.9 5.1 4.8 7.7 11.9 7.7 21.2 0 9.2-2.6 16.3-7.7 21.1-4.9 4.6-11.9 6.9-20.9 6.9-9 0-16-2.3-20.9-6.9-5.1-4.8-7.6-11.8-7.6-21.1s2.6-16.4 7.6-21.2c4.8-4.6 11.8-6.9 20.9-6.9zm-57.8 56c9 0 16 2.3 20.9 7 5.1 4.8 7.7 11.9 7.7 21.2 0 9.2-2.6 16.3-7.7 21.1-4.9 4.6-11.9 6.9-20.9 6.9-9 0-16-2.3-20.9-6.9-5-4.8-7.7-11.8-7.7-21.1s2.6-16.4 7.7-21.2c4.9-4.7 11.9-7 20.9-7zm57.8 56c9 0 16 2.3 20.9 6.9 5.1 4.8 7.7 11.9 7.7 21.2 0 9.2-2.6 16.3-7.7 21.1-4.9 4.6-11.9 6.9-20.9 6.9-9 0-16-2.3-20.9-6.9-5.1-4.8-7.6-11.8-7.6-21.1s2.6-16.4 7.6-21.2c4.8-4.6 11.8-6.9 20.9-6.9zm57.7-56c9 0 16 2.3 20.9 7 5.1 4.8 7.7 11.9 7.7 21.2 0 9.2-2.6 16.3-7.7 21.1-4.9 4.6-11.9 6.9-20.9 6.9-9.1 0-16-2.3-20.9-6.9-5-4.8-7.6-11.8-7.6-21.1s2.6-16.4 7.6-21.2c4.9-4.7 11.9-7 20.9-7zm-299.1-12.5c12.8 0 22.6 3.1 29.2 9.4 6.9 6.7 10.4 16.5 10.4 29.5s-3.5 22.8-10.4 29.3c-6.6 6.3-16.5 9.5-29.2 9.5h-4l.1.8c.5 2.2.8 4.5.8 6.3 0 13-3.5 22.8-10.4 29.3-6.7 6.3-16.5 9.4-29.2 9.4-12.8 0-22.7-3.1-29.2-9.5-6.8-6.3-10.2-16.2-10.2-29.3 0-1.2.4-4.3.6-5.6-1.5.1-2.6.2-6 .2-12.8 0-22.6-3.2-29.2-9.5-6.7-6.3-10.2-16.3-10.2-29.4 0-13.1 3.5-23 10.3-29.4 6.5-6.2 16.3-9.5 29.1-9.5 1.1 0 4.1.2 5.2.4h.7c-.2-1.8-.4-3.6-.4-5.7 0-13.1 3.4-23 10.4-29.5 6.5-6.2 16.3-9.5 29.1-9.5s22.6 3.2 29.2 9.5c6.8 6.5 10.4 16.5 10.4 29.5 0 .6-.1 2.5-.3 3.8.4.1 1.5 0 3.2 0zm395.8 245.2c3.6-11.8 8.1-36.9 8.2-46.3 1.1-80.8-41-177.7-63.6-229.8-3.4-7.9-6.5-14.9-9-20.9l-1.3-3.2c-1.4-3.3-2.7-6.3-3.7-8.7l-.9-2-.5-1-.2-.4-1.4-2.6c-4-6.9-7.6-11.8-11.3-15.4-15.8-15-39.9-22.6-71.7-22.6-12.6 0-24.8 1.6-37.1 4.9-3.3.9-13.5 5.1-19.9 7.9-3.6 2-11.4 6.4-14.5 8.5-21.4 14.4-46.3 22-72.2 22-25.9 0-50.9-7.6-72.2-22-3.3-2.2-11.1-6.6-14.6-8.6-5.9-2.5-16.5-6.9-19.9-7.9-12.4-3.2-24.5-4.9-37.1-4.9-31.8 0-55.9 7.7-71.6 22.6-3.7 3.6-7.5 8.6-11.3 15.4l-1.1 2.2-.9 1.8-1 2.1c-1.2 2.7-2.6 6.1-4.2 9.9l-.8 2c-2.5 6-5.6 13.1-9 20.9-22.6 52.1-64.7 149-63.6 229.8.1 9.4 4.5 34.6 8.2 46.3 5.5 17.8 18 23.6 23.2 25.3 4.7 1.6 13.4 3.1 19.8 3.7 4.4-.1 19.6-3.4 26.2-6.4 5.6-2.5 11.1-6.1 16.8-10.9 2.7-2.3 3.7-3.4 11.8-13.4l3.4-4.2c2.1-2.7 4.1-5.4 6.2-8.1 5.9-7.7 12.4-16.4 21.1-24.7 25.7-24.5 58.4-42.4 97-53.2 23.8-6.6 48.6-10 73.5-10s49.7 3.4 73.5 10c38.7 10.8 71.3 28.7 97 53.2 8.7 8.3 15.4 17 21.2 24.7 2.1 2.7 4.1 5.3 6.2 8l3.3 4.1c8.1 10 9.2 11.1 11.8 13.5 7.1 6.1 13.3 9.2 17.3 10.9 6.1 2.7 23.4 6.2 29.2 6.2 2.3 0 9.5-1.3 16.4-3.5 5.3-1.6 17.8-7.4 23.3-25.2zm-23.7-313.5c20.1 48.1 77.3 165.3 75.9 267.7-.2 14.8-5.7 44.2-10.1 58.4-8.7 28.3-29 46.5-51.3 53.8-9.1 2.9-21.4 5.7-30.3 5.7-11.9 0-35.3-4.7-47.3-10.1-6.8-3-16.8-8.2-28-17.7-6.7-5.7-9.7-9.7-20.7-23.3-7.9-9.6-14.8-20.1-23.8-28.7-20.7-19.7-47.1-33.9-78.4-42.6-19.9-5.6-40.7-8.4-61.5-8.4-20.8 0-41.5 2.7-61.5 8.4-31.3 8.7-57.6 22.8-78.4 42.6-9 8.6-15.9 19-23.7 28.7-11.1 13.6-14 17.6-20.7 23.3-11.2 9.5-20.7 14.7-27.5 17.7-11.1 5-32.4 10.2-45 10.2-1 0-2 0-2.8-.1-8.9-.7-21.2-2.8-30.3-5.7-22.3-7.3-42.5-25.5-51.3-53.8C5.8 511.8.3 482.4 0 467.6-1.4 365.2 55.9 248 75.9 199.9c2.1-5 3.9-9.5 5.5-12.9 1.4-3.1 2-4.1 2.4-5l2-3.9c5.5-9.6 11.6-18.6 19.6-26.1 24.2-23.1 58.7-34.8 102.2-34.8 18 0 33.9 2.5 48.6 6.4 8.7 2.3 28 10.8 28.3 11 0 0 14.8 8.3 19.5 11.4 14.3 9.6 30.8 14.4 47.4 14.4 16.5 0 33.1-4.8 47.3-14.4 4.7-3.1 19.5-11.4 19.5-11.4.4-.2 19.7-8.7 28.4-11 14.8-4 30.7-6.4 48.6-6.4 43.6 0 78 11.7 102.3 34.8 7.9 7.5 14.1 16.5 19.5 26.1l2.1 3.9c.4.9 1 1.9 2.4 5 1.5 3.4 3.3 7.9 5.4 12.9z" clip-rule="evenodd" style="fill: #019df4;"/></svg>
