<?xml version="1.0" encoding="UTF-8"?>
<svg xmlns="http://www.w3.org/2000/svg" viewBox="0 0 702.8 702.8"><path fill="#019df4" fill-rule="evenodd" d="M176.6 624.8c25.6-8.4 65.6-31.8 46.3-93.5-11.4-37.2-33.1-55.2-66.1-55.2-11.4 0-21 2.1-25.9 3.3-2.7.9-5.7 1.8-8.4 2.7-31 9.9-64 33.9-45.7 93.3 11.7 37.5 33 55.8 65.2 55.8 11.7 0 21.3-2.1 26.1-3.6 2.8-1 6.1-1.9 8.5-2.8zm103.1-127.1c7.8-2.4 16.2 2.1 18.6 9.9 2.4 8.1-2.1 16.5-9.9 18.9l-33.1 10.2c4.5 21.9 3 39.9-1.8 54.6l27.4 14.7c7.5 3.6 10.2 12.9 6.3 20.1-2.7 5.1-7.8 8.1-13.3 8.1-2.4 0-4.8-.6-6.9-1.8l-28-14.7c-13.8 17.1-31.8 27.3-44.2 32.4l10.5 33.3c2.4 7.8-2.1 16.2-9.9 18.6-1.5.6-3 .9-4.5.9-6.3 0-12.3-4.2-14.4-10.8l-10.2-33.3c-6.6 1.2-14.7 2.4-24.3 2.4-9.4 0-19.6-1.2-30.1-4.5l-15 27.9c-2.7 5.1-7.8 8.1-13.3 8.1-2.4 0-4.8-.6-6.9-1.8-7.5-3.9-10.3-12.9-6.3-20.1l15-28.2c-12.3-9.6-23.5-23.7-31.9-43.8l-34.2 10.5c-1.5.3-3 .6-4.5.6-6.3 0-12.3-4.2-14.1-10.5-2.4-7.8 1.8-16.5 9.9-18.9l34-10.5c-4.8-21.6-3.6-39.6 1.2-54.3l-27.7-14.4c-7.5-3.9-10.2-13.2-6.3-20.4 3.9-7.5 12.9-10.2 20.1-6.3l27.7 14.7c13.5-17.4 31.9-27.3 44.2-32.4l-10.2-33.3c-2.4-7.8 2.1-16.2 9.9-18.6 7.8-2.7 16.2 1.8 18.9 9.9l10.2 33.6c6.6-1.5 14.7-2.4 24.1-2.4 9.6 0 19.8 1.2 30.4 4.5l14.7-28.2c3.9-7.5 13.2-10.2 20.5-6.3 7.2 3.9 10.2 12.9 6.3 20.1l-14.7 27.9c12.3 9.6 23.8 23.7 32.2 44.1l33.6-10.5zm313.6-14.4c40.6-40.5 62.8-91.2-109.7-263.4-105.5-105.6-165.7-138-205.7-138-25.3 0-42.7 12.9-58.3 28.5C179 151.2 156.5 201.9 329 374c172.6 172.2 223.4 150 264.3 109.3zm98.9-45.4c7.8 2.7 12.3 11.1 9.9 18.9-2.1 6.6-8.1 10.5-14.4 10.5-1.5 0-3 0-4.5-.6l-36.7-11.4c-4.5 12.9-11.4 25.5-21.6 37.5l27.7 27.6c6 5.7 6 15.3 0 21-3 3-6.6 4.5-10.5 4.5-3.9 0-7.8-1.5-10.8-4.5l-27.7-27.6c-12.1 10.2-24.4 17.4-37.3 21.9l11.4 36.6c2.4 7.8-1.8 16.2-9.9 18.6-1.5.6-3 .9-4.5.9-6.3 0-12.3-4.2-14.2-10.5l-12.6-39.9c-.6 0-1.2.3-1.8.3-17.7 0-36.7-5.1-57.4-14.4l-3.9 32.7c-1.2 7.5-7.5 13.2-15 13.2-.6 0-1.2 0-1.8-.3-8.4-.9-14.1-8.4-13.2-16.8l5.7-43.5c-16.2-9.6-33.3-21.9-51.7-36.3l-19.2 38.4c-2.7 5.1-8.1 8.1-13.5 8.1-2.4 0-4.5-.3-6.9-1.5-7.2-3.6-10.2-12.6-6.6-20.1l22.6-44.7c-17.4-15-35.7-32.1-55.3-51.3L283.3 440c-3 3-6.6 4.5-10.5 4.5-3.9 0-7.8-1.5-10.8-4.5-5.7-5.7-5.7-15.3 0-21l35.2-35.1c-19.2-19.5-36.4-38.1-51.4-55.5L201 350.9c-2.1 1.2-4.5 1.8-6.6 1.8-5.7 0-10.9-3-13.5-8.4-3.6-7.5-.9-16.5 6.6-20.1L226 305c-14.4-18.3-26.8-35.7-36.4-51.6l-43.6 5.4c-.9 0-1.5.3-2.1.3-7.5 0-13.8-5.7-14.7-13.2-1.2-8.4 4.8-15.9 12.9-16.8l32.8-4.2c-9.3-21.3-13.5-40.8-13.2-58.8l-40.9-12.6c-7.8-2.4-12.4-10.8-9.7-18.9 2.4-7.8 10.9-12.3 18.7-9.9l37.6 11.7c4.5-12.6 11.7-24.9 21.9-36.6l-28.6-28.5c-6-6-6-15.3 0-21.3 5.7-5.7 15.3-5.7 21 0l28.6 28.5c11.7-9.6 24.1-16.5 36.7-21l-11.7-38.1c-2.7-7.8 1.8-16.2 9.6-18.9 8.1-2.4 16.5 2.1 18.9 9.9l13 42c18-.3 37.3 3.9 58.6 13.2l4.2-33.9c1.2-8.4 8.7-14.1 16.8-12.9 8.1.9 14.2 8.4 13 16.5l-5.7 45.3c15.9 9.3 33 21.6 51.4 36L434.9 77c3.6-7.5 12.9-10.5 20.1-6.6 7.5 3.6 10.5 12.6 6.6 20.1l-22.8 45.9c17.1 14.7 35.4 31.8 55 51l36.1-36c5.7-5.7 15.3-5.7 21.3 0 5.7 6 5.7 15.3 0 21.3l-36.1 36c19.2 19.2 36.1 37.5 51.1 54.9l46-23.1c7.5-3.6 16.5-.6 20.1 6.6 3.9 7.5.9 16.5-6.6 20.1L586 287.3c14.7 18 26.8 35.1 36.4 51l45.1-5.7c8.1-1.2 15.6 4.8 16.5 13.2 1.2 8.1-4.8 15.6-12.9 16.8l-33.4 3.9c9.6 21.3 14.1 40.8 13.8 58.8l40.7 12.6z" clip-rule="evenodd" style="fill: #019df4;"/></svg>
