<?xml version="1.0" encoding="UTF-8"?>
<svg xmlns="http://www.w3.org/2000/svg" viewBox="0 0 702.8 702.8"><path fill="#019df4" fill-rule="evenodd" d="M175.5 605.3c53.3-17.3 40.3-59.6 36.2-73.4-12.1-38.7-33.5-43.7-50.6-43.7-10 0-18.3 2-21.5 2.9-2.4.6-5.3 1.5-7.9 2.4-52.4 16.8-39.1 59.3-35.1 73.2 12.1 39.4 33 44.3 50.1 44.3 9.7 0 18.3-2.1 21.2-3.2 2.6-.8 5.3-1.7 7.6-2.5zm103.4-117.5c11.7-3.5 24.1 3 27.6 14.7 3.5 11.5-2.9 23.8-14.7 27.3l-33.3 10.3c2.4 15 1.8 27.9-.9 39.1l28.3 15c10.9 5.6 15 19.1 9.2 29.7-3.8 7.6-11.5 11.8-19.5 11.8-3.5 0-7.1-.6-10.3-2.4l-28.8-15.2c-10 10.6-21.8 17.9-31.2 22.9l10.3 33.5c3.5 11.4-2.9 23.8-14.7 27.6-2.1.6-4.4.9-6.4.9-9.4 0-18.3-6.2-21.2-15.6L163 653.9c-5 .6-10.3 1.2-16.2 1.2-7.1 0-14.7-.9-22.4-2.6l-15.6 29.1c-3.8 7.3-11.5 11.8-19.4 11.8-3.5 0-7.1-.9-10.3-2.7-10.6-5.6-14.7-19.1-9.2-29.6L85.2 632c-8.5-7.6-16.2-17.9-22.7-31.4 0 0 0 .3-.3.3l-33.5 10.3c-2.4.9-4.4 1.1-6.5 1.1-9.4 0-18.2-6.1-21.2-15.5-3.5-11.7 3-24.1 14.7-27.6l33.6-10.3c.3-.3.3 0 .6-.3-2.4-14.7-2.1-27.3.3-38.5l-28.5-15.3c-10.9-5.6-15-19.1-9.2-29.7 5.6-10.9 19.1-15 29.8-9.4L70.8 481c10-10.9 21.8-18.2 31.5-23L92 424.5c-3.5-11.5 3-23.8 14.7-27.3 11.5-3.5 23.9 3 27.7 14.4l10.3 33.8c5-.6 10.3-1.2 16.5-1.2 6.7 0 14.4.9 22.1 2.6l15.3-29.1c5.9-10.9 19.2-15 30-9.4 10.6 5.9 14.7 19.1 9.1 30l-15 28.5c8.5 7.6 16.5 17.9 22.9 31.5l33.3-10.5zM532 501.5c24.7 0 38.6-13.8 50.9-26.1 29.7-29.6 70.4-70.2-107.1-247.7-74.4-74.3-130.4-116.3-171.3-128.9-8.8-2.7-16.8-4.1-24.5-4.1-18.5 0-34.7 8.2-52.4 26.2-25.3 25-31.5 46.4-22.1 76.6 12.7 40.9 55 96.7 129.2 171 104.9 104.3 162 133 197.3 133zm155.1-72.2c11.8 3.8 18.3 16.1 14.7 27.6-2.9 9.4-11.8 15.6-21.2 15.6-2.1 0-4.4-.3-6.5-1.1l-29.1-9.1c-3.5 9.4-9.1 18.5-15.9 27.3l22.4 22.4c8.5 8.5 8.5 22.3 0 31.1-4.4 4.1-10 6.5-15.6 6.5s-11.2-2.3-15.6-6.5l-22.1-22c-7.7 6.2-16.8 12-27.1 16.2l8.8 28.5c3.5 11.5-2.9 24.1-14.4 27.6-2.3.6-4.4.9-6.8.9-9.4 0-18-5.9-20.9-15.2l-10.6-33.2c-10.3-.3-21.8-2.1-34.1-6.1-4.1-1.2-8.2-3-12.7-4.7l-2.6 22c-1.2 11.1-10.9 19.1-21.8 19.1h-2.6c-12.1-1.5-20.9-12.6-19.1-24.7l4.7-37.6c-12.7-7.9-25.9-17.3-40-28.5l-15 29.7c-3.8 7.7-11.8 12-19.7 12-3.3 0-6.8-.9-10-2.4-10.9-5.6-15.3-18.8-9.7-29.6l19.4-38.5c-14.1-12.3-29.4-26.4-45-41.7L289.9 444c-4.4 4.1-10 6.5-15.6 6.5s-11.5-2.4-15.6-6.5c-8.5-8.8-8.5-22.6 0-31.1l29.1-29.1c-15.6-15.9-29.4-30.8-42.1-45.2L207.1 358c-2.9 1.7-6.5 2.3-9.7 2.3-8.2 0-15.9-4.4-19.7-12-5.6-10.9-1.2-24.1 9.7-29.7l29.4-15c-2.7-3.5-5.3-6.7-7.9-10.3-7.7-10.3-14.1-19.9-20-29.4l-38 4.7H148c-10.9 0-20.3-8.3-21.8-19.4-1.5-12 7.1-22.9 19.1-24.4l22.4-2.9c-1.7-3.8-2.9-7.6-4.1-11.2-4.1-12.6-5.9-24.4-6.2-35l-34.1-10.9c-11.8-3.5-18-15.9-14.4-27.6 3.5-11.5 15.9-18.2 27.7-14.4l29.7 9.1c4.1-10 10-18.8 15.9-26.1l-23-23.2c-8.5-8.5-8.5-22.6 0-31.1s22.7-8.5 31.2 0l23.3 23.2c7.6-5.9 16.2-11.5 26.2-15.6l-9.4-30.3c-3.8-11.5 2.6-23.8 14.4-27.6 11.5-3.6 24.2 2.9 27.7 14.4l10.9 35.3c10.6.3 21.8 2.1 34.1 5.9 3.8 1.2 7.7 2.6 11.8 4.1l2.9-23.2c1.8-12 12.7-20.6 24.7-19.1 12.1 1.7 20.6 12.6 19.1 24.7l-5 39.3c12.7 7.6 25.9 17.1 39.7 27.9l15.6-30.8c5.3-10.9 18.5-15.3 29.7-9.7 10.9 5.6 15 18.8 9.7 29.7l-20 39.6c14.1 12.3 29.2 26.2 44.7 41.7l30-30.2c8.8-8.5 22.7-8.5 31.2 0 8.8 8.8 8.8 22.6 0 31.1l-30 30c15.3 15.5 29.1 30.5 41.8 44.6l39.7-19.9c10.9-5.3 24.1-.9 29.7 10 5.3 10.8.9 24.1-10 29.4l-30.6 15.2c10.9 14.1 20.6 27.3 28.3 39.9l39.1-5c12.1-1.2 23 7 24.4 19.1 1.8 12-7.1 23.2-19.1 24.7l-22.7 2.9c6.5 16.5 10 31.7 10.6 46.1l34.2 10.4z" clip-rule="evenodd" style="fill: #019df4;"/></svg>
