<?xml version="1.0" encoding="UTF-8"?>
<svg xmlns="http://www.w3.org/2000/svg" viewBox="0 0 702.8 702.8"><path fill="#019df4" fill-rule="evenodd" d="M657.4 571.8c8.5 0 15.4-6.8 15.5-15.3v-219H29.7v218.9c0 8.5 6.9 15.3 15.5 15.3h612.2zM45.1 132c-8.5 0-15.4 6.8-15.5 15.3v51.1h643.2v-51.1c0-8.5-7-15.4-15.5-15.3H45.1zM29.7 308.4H673v-80.9H29.7v80.9zM702.8 213v110c0 1.1-.4 2-.6 2.9v230.5c0 24.5-20.1 44.4-44.7 44.4H45.1C20.4 600.8.4 580.9.4 556.4V324.8c-.1-.6-.4-1.2-.4-1.8V213c0-.6.3-1.2.4-1.8v-63.8c0-24.5 20.1-44.4 44.7-44.4h612.3c24.7 0 44.7 19.9 44.7 44.4v62.7c.3.9.7 1.9.7 2.9zM558.1 503.4c17.6-.3 47.2-7.2 47.2-49.3 0-42.2-29.8-49.3-47.6-49.7l-5.7-.1c-5.2.1-21 1.7-32.6 12.1 4.9 10.3 7.9 22.7 7.9 37.7 0 14.8-2.9 27-7.6 37.2 11.7 10.3 27.7 12.1 32.9 12.2l5.5-.1zm-107.4 0c17.6-.3 47.2-7.2 47.2-49.3 0-42.2-29.8-49.3-47.6-49.7l-5.7-.1c-17.4.2-46.6 6.8-46.6 49.3 0 42.7 29.6 49.5 47.2 49.8h5.5zm107.6-128.1c35.3.9 76.3 22 76.3 78.7 0 56.8-40.9 77.7-76 78.4h-6.4c-10.1-.2-32.4-2.6-50.6-17.6-14.5 12-33.1 17.3-50.4 17.6h-6.4c-35.1-.6-76.1-21.5-76.1-78.8 0-57.4 40.8-78.1 75.7-78.4l6.5.1c17.2.4 35.7 5.8 50.2 17.6 18.1-15.2 40.5-17.6 50.7-17.7l6.5.1z" clip-rule="evenodd" style="fill: #019df4;"/></svg>
