<?xml version="1.0" encoding="UTF-8"?>
<svg xmlns="http://www.w3.org/2000/svg" viewBox="0 0 702.8 702.8"><path fill="#019df4" fill-rule="evenodd" d="M651.2 558.5c4.4 0 7.9-3.5 7.9-7.8V345H43.4v205.7c0 4.3 3.6 7.8 8 7.8h599.8zM51.4 145.3c-4.4 0-8 3.5-8 7.9v42.6h615.7v-42.6c0-4.3-3.6-7.9-7.9-7.9H51.4zM702.8 217v106.8c0 1-.5 2-.6 3v223.9c0 27.7-22.9 50.2-51 50.2H51.4c-28.1 0-51-22.5-51-50.2V325.6c-.1-.6-.4-1.1-.4-1.8V217c0-.6.3-1.2.4-1.7v-62c0-27.7 22.9-50.2 51-50.2h599.8c28.1 0 51 22.5 51 50.2v60.8c.1.9.6 1.8.6 2.9zM446.5 496.1c18.3-.3 40.1-7.8 40.1-41.7 0-33.9-22-41.5-40.5-42H440.9c-18 .1-39.5 7.5-39.5 41.7 0 34.3 21.8 41.8 40 42.1l5.1-.1zm102.4-120.3c35.3.8 76.7 21.9 76.7 78.7 0 56.9-41.4 77.8-76.8 78.4h-6.2c-9.6-.1-30.2-2.2-48-15.4-14.1 10.2-31.4 15-47.6 15.3h-6.2c-35.4-.5-76.8-21.4-76.8-78.8s41.2-78.1 76.4-78.4c2.3 0 4.6 0 6.6.1 15.9.4 33 5.2 47.1 15.3 18.6-13.7 40.5-15.3 48.2-15.4 2.2 0 4.6.1 6.6.2z" clip-rule="evenodd" style="fill: #019df4;"/></svg>
