<?xml version="1.0" encoding="UTF-8"?>
<svg xmlns="http://www.w3.org/2000/svg" viewBox="0 0 702.8 702.8"><path fill="#019df4" fill-rule="evenodd" d="M651.2 558.5c4.3 0 7.9-3.5 7.9-7.8V345H43.4v205.7c0 4.4 3.6 7.9 8 7.8h599.8zM51.4 145.3c-4.4 0-8 3.5-8 7.9v42.6h615.8v-42.6c0-4.4-3.5-7.9-7.9-7.9H51.4zm-8 157.3h615.8v-64.4H43.4v64.4zM702.8 217v106.8c0 1.1-.5 2-.6 3v223.9c0 27.7-22.8 50.2-51 50.2H51.4c-28.1 0-51-22.5-51-50.2V325.5c-.1-.5-.4-1.1-.4-1.7V217c0-.6.3-1.2.4-1.8v-62c0-27.7 22.8-50.3 51-50.3h599.8c28.1 0 51 22.5 51 50.2V214c.1 1 .6 1.9.6 3zM548.2 496.1c18.3-.3 40.1-7.8 40.1-41.7s-22-41.6-40.5-42h-5c-4.3 0-16 .9-25.4 7.6 4 9.7 6.5 21 6.5 34.4 0 13.2-2.4 24.3-6.2 33.9 9.6 6.8 21.5 7.8 25.6 7.8h4.9zm-101.7 0c18.3-.3 40.1-7.8 40.1-41.7s-22-41.6-40.5-42H440.9c-18 .1-39.4 7.4-39.4 41.7 0 34.3 21.8 41.8 40 42.1-.1-.1 5-.1 5-.1zm102.4-120.3c35.3.8 76.7 21.9 76.7 78.7 0 56.9-41.4 77.8-76.8 78.4h-6.2c-9.5-.1-30.2-2.2-48-15.3-13.9 9.8-30.5 15.2-47.6 15.3h-6.2c-35.4-.5-76.8-21.4-76.8-78.8s41.2-78.1 76.4-78.4c2.2 0 4.4 0 6.6.1 16.9.3 33.3 5.6 47.1 15.3 18.6-13.7 40.5-15.3 48.2-15.3 2.2-.2 4.6-.1 6.6 0z" clip-rule="evenodd" style="fill: #019df4;"/></svg>
