<?xml version="1.0" encoding="UTF-8"?>
<svg xmlns="http://www.w3.org/2000/svg" viewBox="0 0 702.8 702.8"><path fill="#019df4" fill-rule="evenodd" d="M658.9 199.8V138c0-4.3-3.7-7.9-8.1-7.9H52.1c-4.5 0-8.2 3.5-8.2 7.9v61.8h615zm0 365V242h-615v322.8c0 4.3 3.7 7.8 8.2 7.8h598.7c4.4.1 8.1-3.5 8.1-7.8zm-8.1-476.9c28.7 0 52 22.5 52 50.1v426.8c0 27.7-23.4 50.1-52 50.1H52.1C23.4 614.9 0 592.4 0 564.8V138c0-27.7 23.4-50.1 52.1-50.1h598.7zM133.6 507.8c-8.2-8.6-7.7-21.9 1.2-29.9l81.6-72.6-81.5-71.2c-9-7.8-9.7-21.2-1.5-29.9 8.1-8.7 22-9.3 31-1.4l99.2 86.7c4.6 4 7.2 9.6 7.2 15.6 0 5.9-2.5 11.6-7.1 15.6L164.5 509c-4.2 3.8-9.6 5.6-14.9 5.6-5.8 0-11.7-2.3-16-6.8zm184.3-80.7c-12.1 0-22-9.5-22-21.1 0-11.7 9.8-21.1 22-21.1h235.2c12.1 0 22 9.5 22 21.1 0 11.7-9.8 21.1-22 21.1H317.9zM150.6 144.3c11.2 0 20.3 8.8 20.3 19.6s-9.1 19.6-20.3 19.6c-11.3 0-20.3-8.8-20.3-19.6 0-10.9 9-19.6 20.3-19.6zm61 0c11.3 0 20.3 8.8 20.3 19.6s-9.1 19.6-20.3 19.6-20.3-8.8-20.3-19.6c0-10.9 9.1-19.6 20.3-19.6zm-122.1 0c11.3 0 20.3 8.8 20.3 19.6s-9.1 19.6-20.3 19.6c-11.3 0-20.3-8.8-20.3-19.6 0-10.9 9.1-19.6 20.3-19.6z" clip-rule="evenodd" style="fill: #019df4;"/></svg>
