<?xml version="1.0" encoding="UTF-8"?>
<svg xmlns="http://www.w3.org/2000/svg" viewBox="0 0 702.8 702.8"><path fill="#019df4" fill-rule="evenodd" d="M166.2 296.1l97.4 85.1c4.5 3.9 7 9.5 7.1 15.3 0 5.9-2.5 11.4-6.9 15.3l-97.4 86.7c-4 3.6-9.2 5.6-14.6 5.5-6 0-11.7-2.4-15.8-6.7-7.8-8-7.6-20.8.4-28.6.3-.2.5-.5.8-.7l80.1-71.3-79.9-69.9c-8.5-7.3-9.4-20-2.2-28.5.2-.3.5-.5.7-.8 8-8.5 21.4-9.1 30.3-1.4zm381.3 80.5c11.9 0 21.6 9.3 21.6 20.7s-9.7 20.7-21.5 20.7H316.7c-11.7.2-21.3-9.1-21.6-20.7 0-11.4 9.7-20.8 21.6-20.8l230.8.1zm104.3 196.9c4.4 0 8-3.4 8-7.7v-345H43v345c0 4.2 3.6 7.7 8 7.7h600.8zm-538-406.8c-.2-10.8-9.1-19.4-19.9-19.2h-.1c-10.8-.2-19.7 8.4-19.9 19.2 0 10.6 8.9 19.2 19.9 19.2 10.9.2 19.8-8.4 20-19.2zm59.9 0c-.2-10.8-9.1-19.4-19.9-19.2h-.1c-10.8-.2-19.7 8.4-19.9 19.2 0 10.6 8.9 19.2 19.9 19.2 10.9.2 19.8-8.4 20-19.2zm59.9 0c-.2-10.8-9.1-19.4-19.9-19.2h-.1c-10.8-.2-19.7 8.4-19.9 19.2 0 10.6 8.9 19.2 19.9 19.2 10.9.2 19.8-8.4 20-19.2zm418.2-78.8c28.1 0 51 22.1 51 49.2v428.7c0 27.1-22.9 49.2-51 49.2H51c-28.2 0-51-22-51-49.1V137.1C0 110 22.8 87.9 51 87.9h600.8z" clip-rule="evenodd" style="fill: #019df4;"/></svg>
