<?xml version="1.0" encoding="UTF-8"?>
<svg xmlns="http://www.w3.org/2000/svg" viewBox="0 0 702.8 702.8"><path fill="#019df4" fill-rule="evenodd" d="M658 586.5c8.5 0 15.5-6.7 15.5-15V231.4H29.3v340.1c0 8.3 6.9 15 15.5 15H658zM44.8 116.3c-8.5 0-15.5 6.8-15.5 15V203h644.2v-71.7c0-8.3-6.9-15-15.5-15H44.8zM658 87.9c24.7 0 44.8 19.5 44.8 43.4v440.3c0 23.9-20.1 43.4-44.8 43.4H44.8C20.1 615 0 595.5 0 571.6V131.3c0-23.9 20.1-43.4 44.8-43.4H658zM157.4 299.8l99.4 87.4c3 2.7 4.8 6.5 4.8 10.5s-1.7 7.8-4.7 10.5l-99.4 89c-2.8 2.5-6.4 3.8-10 3.8-4 0-7.9-1.5-10.8-4.5-5.5-5.8-5.1-14.8.8-20.1l87.6-78.5-87.5-77c-6-5.3-6.5-14.3-1-20.1 5.5-5.8 14.8-6.2 20.8-1zm394.2 84.5c8.1 0 14.7 6.4 14.7 14.2 0 7.8-6.6 14.2-14.7 14.2H316c-8.1 0-14.7-6.4-14.7-14.2 0-7.8 6.5-14.2 14.7-14.2h235.6zm-402-202.8c-11.3 0-20.4-8.9-20.4-19.7 0-10.9 9.1-19.8 20.4-19.8 11.3 0 20.4 8.8 20.4 19.8 0 10.8-9.1 19.7-20.4 19.7zm61.2 0c-11.3 0-20.4-8.9-20.4-19.7 0-10.9 9.1-19.8 20.4-19.8 11.3 0 20.3 8.8 20.3 19.8 0 10.8-9 19.7-20.3 19.7zm-122.3 0c-11.3 0-20.4-8.9-20.4-19.7 0-10.9 9.1-19.8 20.4-19.8s20.4 8.8 20.4 19.8c0 10.8-9.1 19.7-20.4 19.7z" clip-rule="evenodd" style="fill: #019df4;"/></svg>
