<?xml version="1.0" encoding="UTF-8"?>
<svg xmlns="http://www.w3.org/2000/svg" viewBox="0 0 704.5 704.5"><path fill="#019df4" d="M22.9 236.7c-5.1 0-10.2-1.9-14.1-5.8-7.8-7.8-7.8-20.5 0-28.3l.6-.7c45-44.7 97.2-79.8 155.2-104.4C225 71.9 289.2 58.9 355.5 58.9c65.7 0 129.6 12.8 189.8 38.1 57.5 24.2 109.3 58.7 153.7 102.5 7.9 7.8 8 20.4.2 28.3-7.8 7.9-20.4 8-28.3.2-40.8-40.2-88.3-71.9-141.1-94.1-55.3-23.2-114-35-174.3-35-60.9 0-119.8 11.9-175.3 35.4-53.3 22.6-101.3 54.8-142.6 95.9l-.6.6c-3.9 3.9-9 5.9-14.1 5.9z" style="fill: #019df4;"/><path fill="#019df4" d="M111.1 346c-5.1 0-10.1-1.9-14-5.7-7.9-7.7-8-20.4-.2-28.3l.7-.7c33.2-33 71.8-59 114.6-77.3 45.3-19.3 93.5-29.1 143.2-29.1 49.1 0 96.7 9.6 141.7 28.5 42.5 17.9 80.7 43.3 113.7 75.7 7.9 7.7 8 20.4.3 28.3s-20.4 8-28.3.3c-29.4-28.8-63.4-51.5-101.2-67.4-40-16.9-82.5-25.4-126.2-25.4-44.3 0-87.2 8.7-127.5 25.9-38.2 16.3-72.6 39.5-102.2 68.9l-.4.4c-3.9 3.9-9 5.9-14.2 5.9zM199.3 455.2c-5.1 0-10.2-2-14.1-5.9-7.8-7.8-7.8-20.5 0-28.3 21.6-21.6 46.6-38.7 74.5-50.7 30.2-13.1 62.4-19.7 95.5-19.7 32.4 0 63.9 6.4 93.6 18.9 27.4 11.5 52.2 28 73.7 48.8 7.9 7.7 8.1 20.4.4 28.3-7.7 7.9-20.4 8.1-28.3.4-17.9-17.4-38.6-31.1-61.4-40.7-24.7-10.5-51-15.8-78-15.8-27.7 0-54.5 5.5-79.6 16.4-23.2 10-44.1 24.3-62.1 42.3-3.9 4.1-9 6-14.2 6z" style="fill: #019df4;"/><g><path fill="#019df4" d="M353.9 643.1c-23.9 0-42.9-6.6-56.5-19.7-14.1-13.6-21.3-33.2-21.3-58.1s7.2-44.5 21.3-58.1c13.6-13.1 32.6-19.7 56.5-19.7s42.9 6.6 56.5 19.7c14.1 13.6 21.3 33.2 21.3 58.1s-7.2 44.5-21.3 58.1c-13.5 13.1-32.5 19.7-56.5 19.7zm0-115.6c-26.8 0-37.8 11-37.8 37.8s11 37.8 37.8 37.8 37.8-11 37.8-37.8c0-13.7-3-23.5-9.1-29.3-5.8-5.7-15.4-8.5-28.7-8.5z" style="fill: #019df4;"/></g></svg>
