<?xml version="1.0" encoding="UTF-8"?>
<svg xmlns="http://www.w3.org/2000/svg" viewBox="0 0 702.8 702.8"><path fill="#019df4" d="M11.8 223c-2.6 0-5.3-1-7.3-3-4-4-4-10.5 0-14.6l.7-.7c45.3-45.1 98-80.5 156.5-105.3 60.9-25.8 125.7-38.9 192.5-38.9 66.3 0 130.7 12.9 191.4 38.4 58 24.4 110.2 59.2 155 103.3 4 4 4.1 10.5.1 14.6-4 4-10.5 4.1-14.6.1-42.9-42.3-92.9-75.6-148.5-99-58.2-24.4-119.9-36.8-183.5-36.8-64 0-126.1 12.5-184.5 37.3-56.1 23.8-106.6 57.7-150 100.9l-.6.6c-1.9 2.1-4.6 3.1-7.2 3.1z" style="fill: #019df4;"/><path fill="#019df4" d="M102.6 335.5c-2.6 0-5.2-1-7.2-3-4-4-4.1-10.5-.1-14.5l.5-.5c33.3-33.1 71.9-59.2 114.8-77.5 45.4-19.4 93.6-29.2 143.4-29.2 49.1 0 96.9 9.6 141.9 28.6 42.5 17.9 80.8 43.4 113.9 75.8 4.1 4 4.1 10.5.1 14.6s-10.5 4.1-14.6.1c-31.2-30.6-67.3-54.6-107.4-71.5-42.5-17.9-87.5-27-133.9-27-47 0-92.5 9.3-135.3 27.5-40.5 17.3-77 41.9-108.4 73.1l-.4.4c-2 2.1-4.6 3.1-7.3 3.1zM193.5 448c-2.6 0-5.3-1-7.3-3-4-4-4-10.5 0-14.6 21.3-21.3 46-38.1 73.5-50 29.8-12.9 61.5-19.4 94.2-19.4 32 0 63 6.3 92.3 18.7 27 11.4 51.5 27.6 72.7 48.2 4.1 4 4.2 10.5.2 14.6s-10.5 4.2-14.6.2c-19.4-18.8-41.7-33.6-66.4-44-26.7-11.3-55.1-17.1-84.3-17.1-29.9 0-58.8 6-86.1 17.7-25.1 10.9-47.6 26.2-67.1 45.7-1.8 2-4.5 3-7.1 3z" style="fill: #019df4;"/><g><path fill="#019df4" d="M352.6 641.4c-45 0-69.8-24.8-69.8-69.8s24.8-69.8 69.8-69.8c21.9 0 39 5.9 51 17.4 12.5 12 18.8 29.6 18.8 52.4 0 45-24.8 69.8-69.8 69.8zm0-119c-33.6 0-49.2 15.6-49.2 49.2s15.6 49.2 49.2 49.2 49.2-15.6 49.2-49.2c0-17-4.2-29.6-12.5-37.6-8-7.7-20.3-11.6-36.7-11.6z" style="fill: #019df4;"/></g></svg>
